<?xml version="1.0" encoding="UTF-8" standalone="no"?>
<!-- Created with Inkscape (http://www.inkscape.org/) -->

<svg
   xmlns:dc="http://purl.org/dc/elements/1.1/"
   xmlns:cc="http://creativecommons.org/ns#"
   xmlns:rdf="http://www.w3.org/1999/02/22-rdf-syntax-ns#"
   xmlns:svg="http://www.w3.org/2000/svg"
   xmlns="http://www.w3.org/2000/svg"
   xmlns:xlink="http://www.w3.org/1999/xlink"
   xmlns:sodipodi="http://sodipodi.sourceforge.net/DTD/sodipodi-0.dtd"
   xmlns:inkscape="http://www.inkscape.org/namespaces/inkscape"
   version="1.0"
   width="96"
   height="96"
   id="svg2408"
   inkscape:version="0.48.2 r9819"
   sodipodi:docname="folder-html.svg">
  <metadata
     id="metadata72">
    <rdf:RDF>
      <cc:Work
         rdf:about="">
        <dc:format>image/svg+xml</dc:format>
        <dc:type
           rdf:resource="http://purl.org/dc/dcmitype/StillImage" />
        <dc:title />
      </cc:Work>
    </rdf:RDF>
  </metadata>
  <sodipodi:namedview
     pagecolor="#ffffff"
     bordercolor="#666666"
     borderopacity="1"
     objecttolerance="10"
     gridtolerance="10"
     guidetolerance="10"
     inkscape:pageopacity="0"
     inkscape:pageshadow="2"
     inkscape:window-width="1238"
     inkscape:window-height="735"
     id="namedview70"
     showgrid="false"
     inkscape:zoom="2.9595058"
     inkscape:cx="119.13284"
     inkscape:cy="29.289809"
     inkscape:window-x="10"
     inkscape:window-y="0"
     inkscape:window-maximized="0"
     inkscape:current-layer="svg2408"
     inkscape:object-paths="true"
     inkscape:snap-intersection-paths="true"
     inkscape:object-nodes="true"
     inkscape:snap-smooth-nodes="true"
     inkscape:snap-midpoints="true"
     inkscape:snap-object-midpoints="true"
     inkscape:snap-center="true"
     inkscape:snap-bbox="true"
     inkscape:bbox-paths="true"
     inkscape:bbox-nodes="true"
     inkscape:snap-bbox-edge-midpoints="true"
     inkscape:snap-bbox-midpoints="true"
     showguides="true"
     inkscape:guide-bbox="true"
     inkscape:snap-global="false" />
  <defs
     id="defs2410">
    <linearGradient
       inkscape:collect="always"
       id="linearGradient3874">
      <stop
         style="stop-color:#000000;stop-opacity:1;"
         offset="0"
         id="stop3876" />
      <stop
         style="stop-color:#000000;stop-opacity:0;"
         offset="1"
         id="stop3878" />
    </linearGradient>
    <linearGradient
       id="linearGradient4091">
      <stop
         style="stop-color:#ffffff;stop-opacity:1;"
         offset="0"
         id="stop4093" />
      <stop
         id="stop4099"
         offset="0.80000001"
         style="stop-color:#ffffff;stop-opacity:1;" />
      <stop
         style="stop-color:#ffffff;stop-opacity:0;"
         offset="1"
         id="stop4095" />
    </linearGradient>
    <linearGradient
       id="linearGradient4188">
      <stop
         style="stop-color:#ffffff;stop-opacity:0;"
         offset="0"
         id="stop4190" />
      <stop
         id="stop4198"
         offset="0.15000001"
         style="stop-color:#ffffff;stop-opacity:1;" />
      <stop
         id="stop4196"
         offset="0.85000002"
         style="stop-color:#ffffff;stop-opacity:1;" />
      <stop
         style="stop-color:#ffffff;stop-opacity:0;"
         offset="1"
         id="stop4192" />
    </linearGradient>
    <linearGradient
       inkscape:collect="always"
       id="linearGradient3888">
      <stop
         style="stop-color:#ffffff;stop-opacity:1;"
         offset="0"
         id="stop3890" />
      <stop
         style="stop-color:#ffffff;stop-opacity:0;"
         offset="1"
         id="stop3892" />
    </linearGradient>
    <linearGradient
       x1="45.447727"
       y1="92.539597"
       x2="45.447727"
       y2="7.0165396"
       id="ButtonShadow"
       gradientUnits="userSpaceOnUse"
       gradientTransform="scale(1.0058652,0.994169)">
      <stop
         id="stop3750"
         style="stop-color:#000000;stop-opacity:1"
         offset="0" />
      <stop
         id="stop3752"
         style="stop-color:#000000;stop-opacity:0.58823532"
         offset="1" />
    </linearGradient>
    <filter
       color-interpolation-filters="sRGB"
       id="filter3174">
      <feGaussianBlur
         id="feGaussianBlur3176"
         stdDeviation="1.71" />
    </filter>
    <linearGradient
       inkscape:collect="always"
       xlink:href="#gradient4-1"
       id="linearGradient3050-6"
       gradientUnits="userSpaceOnUse"
       spreadMethod="pad"
       x1="32.251045"
       y1="6.1317058"
       x2="32.251045"
       y2="90.238678"
       gradientTransform="translate(6,-89.50005)" />
    <linearGradient
       id="gradient4-1"
       gradientUnits="userSpaceOnUse"
       x1="32.251045"
       y1="6.1317058"
       x2="32.251045"
       y2="90.238678"
       spreadMethod="pad">
      <stop
         stop-color="#000000"
         offset="0.00000000000"
         stop-opacity="1.00000000000"
         id="stop27-0" />
      <stop
         stop-color="#000000"
         offset="1.00000000000"
         stop-opacity="0.58823529412"
         id="stop29-6" />
    </linearGradient>
    <linearGradient
       inkscape:collect="always"
       xlink:href="#gradient3-2"
       id="linearGradient3053-3"
       gradientUnits="userSpaceOnUse"
       gradientTransform="matrix(1.0058652,0,0,0.99416905,5,-90.50005)"
       spreadMethod="pad"
       x1="32.062981"
       y1="6.1676679"
       x2="32.062981"
       y2="90.767815" />
    <linearGradient
       id="gradient3-2"
       gradientTransform="scale(1.0058652,0.99416905)"
       gradientUnits="userSpaceOnUse"
       x1="32.062981"
       y1="6.1676679"
       x2="32.062981"
       y2="90.767815"
       spreadMethod="pad">
      <stop
         stop-color="#000000"
         offset="0.00000000000"
         stop-opacity="1.00000000000"
         id="stop22-0" />
      <stop
         stop-color="#000000"
         offset="1.00000000000"
         stop-opacity="0.58823529412"
         id="stop24-6" />
    </linearGradient>
    <linearGradient
       inkscape:collect="always"
       xlink:href="#gradient2-5"
       id="linearGradient3056-1"
       gradientUnits="userSpaceOnUse"
       gradientTransform="matrix(1.0057307,0,0,-0.99430195,4,91.50005)"
       spreadMethod="pad"
       x1="32.067265"
       y1="6.1668468"
       x2="32.067265"
       y2="90.756142" />
    <linearGradient
       id="gradient2-5"
       gradientTransform="scale(1.0057307,0.99430195)"
       gradientUnits="userSpaceOnUse"
       x1="32.067265"
       y1="6.1668468"
       x2="32.067265"
       y2="90.756142"
       spreadMethod="pad">
      <stop
         stop-color="#000000"
         offset="0.00000000000"
         stop-opacity="1.00000000000"
         id="stop17-5" />
      <stop
         stop-color="#000000"
         offset="1.00000000000"
         stop-opacity="0.58823529412"
         id="stop19-4" />
    </linearGradient>
    <linearGradient
       inkscape:collect="always"
       xlink:href="#gradient1-6"
       id="linearGradient3059-7"
       gradientUnits="userSpaceOnUse"
       gradientTransform="matrix(1.0055984,0,0,-0.9944328,2.96875,92.53125)"
       spreadMethod="pad"
       x1="32.071472"
       y1="6.1660314"
       x2="32.071472"
       y2="90.744209" />
    <linearGradient
       id="gradient1-6"
       gradientTransform="scale(1.0055984,0.9944328)"
       gradientUnits="userSpaceOnUse"
       x1="32.071472"
       y1="6.1660314"
       x2="32.071472"
       y2="90.744209"
       spreadMethod="pad">
      <stop
         stop-color="#000000"
         offset="0.00000000000"
         stop-opacity="1.00000000000"
         id="stop12-5" />
      <stop
         stop-color="#000000"
         offset="1.00000000000"
         stop-opacity="0.58823529412"
         id="stop14-6" />
    </linearGradient>
    <linearGradient
       id="gradient0-3"
       gradientTransform="scale(1.0054757,0.99455408)"
       gradientUnits="userSpaceOnUse"
       x1="32.07542"
       y1="6.1652875"
       x2="32.07542"
       y2="90.732689"
       spreadMethod="pad">
      <stop
         stop-color="#000000"
         offset="0.00000000000"
         stop-opacity="1.00000000000"
         id="stop7-7" />
      <stop
         stop-color="#000000"
         offset="1.00000000000"
         stop-opacity="0.58823529412"
         id="stop9-4" />
    </linearGradient>
    <linearGradient
       y2="90.732689"
       x2="32.07542"
       y1="6.1652875"
       x1="32.07542"
       spreadMethod="pad"
       gradientTransform="matrix(1.0054757,0,0,-0.99455408,1.96875,93.53125)"
       gradientUnits="userSpaceOnUse"
       id="linearGradient3216"
       xlink:href="#gradient0-3"
       inkscape:collect="always" />
    <linearGradient
       id="linearGradient3832">
      <stop
         style="stop-color:#000000;stop-opacity:1;"
         offset="0"
         id="stop3834" />
      <stop
         id="stop3842"
         offset="0.05"
         style="stop-color:#ffffff;stop-opacity:1;" />
      <stop
         style="stop-color:#000000;stop-opacity:1;"
         offset="0.1"
         id="stop3846" />
      <stop
         id="stop3840"
         offset="0.5"
         style="stop-color:#000000;stop-opacity:0.49803922;" />
      <stop
         style="stop-color:#000000;stop-opacity:1;"
         offset="0.89999998"
         id="stop3844" />
      <stop
         id="stop3848"
         offset="0.94999999"
         style="stop-color:#ffffff;stop-opacity:1;" />
      <stop
         style="stop-color:#000000;stop-opacity:1;"
         offset="1"
         id="stop3836" />
    </linearGradient>
    <linearGradient
       inkscape:collect="always"
       xlink:href="#linearGradient4144-8"
       id="linearGradient4025"
       gradientUnits="userSpaceOnUse"
       x1="72.875"
       y1="68.71875"
       x2="72.875"
       y2="77.34375" />
    <linearGradient
       id="linearGradient4144-8">
      <stop
         style="stop-color:#dddddd;stop-opacity:1;"
         offset="0"
         id="stop4146-4" />
      <stop
         id="stop4152-5"
         offset="0.64999998"
         style="stop-color:#989898;stop-opacity:1;" />
      <stop
         style="stop-color:#eaeaea;stop-opacity:1;"
         offset="1"
         id="stop4148-0" />
    </linearGradient>
    <linearGradient
       inkscape:collect="always"
       xlink:href="#linearGradient3888"
       id="linearGradient3205"
       gradientUnits="userSpaceOnUse"
       x1="-56.230446"
       y1="5.5"
       x2="-56.230446"
       y2="69.53125" />
    <linearGradient
       inkscape:collect="always"
       xlink:href="#linearGradient4188"
       id="linearGradient3207"
       gradientUnits="userSpaceOnUse"
       gradientTransform="translate(-200,0)"
       x1="106"
       y1="77.51565"
       x2="180"
       y2="77.51565" />
    <linearGradient
       inkscape:collect="always"
       xlink:href="#linearGradient3832"
       id="linearGradient3209"
       gradientUnits="userSpaceOnUse"
       gradientTransform="translate(0,-0.9843498)"
       x1="-94"
       y1="82.984398"
       x2="-10.187523"
       y2="82.984398" />
    <radialGradient
       inkscape:collect="always"
       xlink:href="#linearGradient4091"
       id="radialGradient3211"
       gradientUnits="userSpaceOnUse"
       gradientTransform="matrix(-1.0721726,0,0,-0.87502024,-0.53571,-19.125546)"
       cx="48"
       cy="-27"
       fx="48"
       fy="-27"
       r="42" />
    <linearGradient
       inkscape:collect="always"
       xlink:href="#linearGradient3832"
       id="linearGradient3213"
       gradientUnits="userSpaceOnUse"
       gradientTransform="translate(0,-0.9843498)"
       x1="-94"
       y1="82.984398"
       x2="-20"
       y2="82.984398" />
    <linearGradient
       inkscape:collect="always"
       xlink:href="#linearGradient3874"
       id="linearGradient3215"
       gradientUnits="userSpaceOnUse"
       gradientTransform="translate(-100,0)"
       x1="70.030853"
       y1="82"
       x2="89.473785"
       y2="82" />
    <linearGradient
       id="linearGradient1400">
      <stop
         stop-color="#000000"
         stop-opacity="0.678431"
         offset="0"
         id="stop1401" />
      <stop
         stop-color="#000000"
         stop-opacity="0.348315"
         offset="0.417077"
         id="stop1403" />
      <stop
         stop-color="#ffffff"
         stop-opacity="0"
         offset="1"
         id="stop1402" />
    </linearGradient>
    <linearGradient
       id="linearGradient853">
      <stop
         stop-color="#e3f9ff"
         offset="0"
         id="stop854" />
      <stop
         stop-color="#73bee7"
         offset="0.361947"
         id="stop867" />
      <stop
         stop-color="#438ec5"
         offset="0.625349"
         id="stop856" />
      <stop
         stop-color="#477daf"
         offset="0.726074"
         id="stop1185" />
      <stop
         stop-color="#020407"
         offset="1"
         id="stop855" />
    </linearGradient>
    <linearGradient
       id="linearGradient865">
      <stop
         stop-color="#ffffff"
         offset="0"
         id="stop866" />
      <stop
         stop-color="#ffffff"
         stop-opacity="0"
         offset="1"
         id="stop868" />
    </linearGradient>
    <radialGradient
       inkscape:collect="always"
       xlink:href="#linearGradient1400"
       id="radialGradient10375"
       gradientUnits="userSpaceOnUse"
       cx="0.5"
       cy="0.5"
       fx="0.47843099"
       fy="-0.076086998"
       r="0.5"
       gradientTransform="translate(-171.49464,2.481903)" />
    <linearGradient
       inkscape:collect="always"
       xlink:href="#linearGradient865"
       id="linearGradient10418"
       gradientUnits="userSpaceOnUse"
       x1="0.488372"
       y1="1.717002"
       x2="0.488372"
       y2="0.485075"
       gradientTransform="translate(-171.49464,2.481903)" />
    <linearGradient
       inkscape:collect="always"
       xlink:href="#linearGradient865"
       id="linearGradient10421"
       gradientUnits="userSpaceOnUse"
       x1="0.577586"
       y1="-0.351197"
       x2="0.62209302"
       y2="0.58955199"
       gradientTransform="translate(-171.49464,2.481903)" />
    <radialGradient
       inkscape:collect="always"
       xlink:href="#linearGradient853"
       id="radialGradient10428"
       gradientUnits="userSpaceOnUse"
       cx="0.50704199"
       cy="0.57042301"
       fx="0.545775"
       fy="0.130282"
       r="0.58099699"
       gradientTransform="translate(-171.49464,2.481903)" />
    <radialGradient
       inkscape:collect="always"
       xlink:href="#linearGradient1400"
       id="radialGradient10431"
       gradientUnits="userSpaceOnUse"
       cx="0.5"
       cy="0.5"
       fx="0.5"
       fy="0.5"
       r="0.5"
       gradientTransform="translate(-171.49464,2.481903)" />
    <linearGradient
       inkscape:collect="always"
       xlink:href="#linearGradient4188-5"
       id="linearGradient4863"
       gradientUnits="userSpaceOnUse"
       x1="112.09375"
       y1="76.609375"
       x2="183.90625"
       y2="76.609375" />
    <linearGradient
       id="linearGradient4188-5">
      <stop
         style="stop-color:#ffffff;stop-opacity:0;"
         offset="0"
         id="stop4190-0" />
      <stop
         id="stop4198-3"
         offset="0.15000001"
         style="stop-color:#ffffff;stop-opacity:1;" />
      <stop
         id="stop4196-6"
         offset="0.85000002"
         style="stop-color:#ffffff;stop-opacity:1;" />
      <stop
         style="stop-color:#ffffff;stop-opacity:0;"
         offset="1"
         id="stop4192-1" />
    </linearGradient>
    <linearGradient
       inkscape:collect="always"
       xlink:href="#linearGradient3888"
       id="linearGradient3140"
       gradientUnits="userSpaceOnUse"
       x1="-56.230446"
       y1="5.5"
       x2="-56.230446"
       y2="69.53125" />
    <linearGradient
       inkscape:collect="always"
       xlink:href="#linearGradient4188"
       id="linearGradient3142"
       gradientUnits="userSpaceOnUse"
       gradientTransform="translate(-200,0)"
       x1="106"
       y1="77.51565"
       x2="180"
       y2="77.51565" />
    <linearGradient
       inkscape:collect="always"
       xlink:href="#linearGradient3832"
       id="linearGradient3144"
       gradientUnits="userSpaceOnUse"
       gradientTransform="translate(0,-0.9843498)"
       x1="-94"
       y1="82.984398"
       x2="-10.187523"
       y2="82.984398" />
    <radialGradient
       inkscape:collect="always"
       xlink:href="#linearGradient4091"
       id="radialGradient3146"
       gradientUnits="userSpaceOnUse"
       gradientTransform="matrix(-1.0721726,0,0,-0.87502024,-0.53571,-19.125546)"
       cx="48"
       cy="-27"
       fx="48"
       fy="-27"
       r="42" />
    <linearGradient
       inkscape:collect="always"
       xlink:href="#linearGradient3832"
       id="linearGradient3148"
       gradientUnits="userSpaceOnUse"
       gradientTransform="translate(0,-0.9843498)"
       x1="-94"
       y1="82.984398"
       x2="-20"
       y2="82.984398" />
    <linearGradient
       inkscape:collect="always"
       xlink:href="#linearGradient3874"
       id="linearGradient3150"
       gradientUnits="userSpaceOnUse"
       gradientTransform="translate(-100,0)"
       x1="70.030853"
       y1="82"
       x2="89.473785"
       y2="82" />
    <linearGradient
       inkscape:collect="always"
       xlink:href="#linearGradient3874"
       id="linearGradient3154"
       gradientUnits="userSpaceOnUse"
       gradientTransform="translate(100,0)"
       x1="70.030853"
       y1="82"
       x2="89.473785"
       y2="82" />
    <linearGradient
       inkscape:collect="always"
       xlink:href="#linearGradient3832"
       id="linearGradient3157"
       gradientUnits="userSpaceOnUse"
       gradientTransform="translate(200,-0.9843498)"
       x1="-94"
       y1="82.984398"
       x2="-20"
       y2="82.984398" />
    <radialGradient
       inkscape:collect="always"
       xlink:href="#linearGradient4091"
       id="radialGradient3162"
       gradientUnits="userSpaceOnUse"
       gradientTransform="matrix(-1.0721726,0,0,-0.87502024,199.46429,-19.125546)"
       cx="48"
       cy="-27"
       fx="48"
       fy="-27"
       r="42" />
    <linearGradient
       inkscape:collect="always"
       xlink:href="#linearGradient3832"
       id="linearGradient3166"
       gradientUnits="userSpaceOnUse"
       gradientTransform="translate(200,-0.9843498)"
       x1="-94"
       y1="82.984398"
       x2="-10.187523"
       y2="82.984398" />
    <linearGradient
       inkscape:collect="always"
       xlink:href="#linearGradient4188"
       id="linearGradient3174"
       gradientUnits="userSpaceOnUse"
       x1="106"
       y1="77.51565"
       x2="180"
       y2="77.51565" />
    <linearGradient
       inkscape:collect="always"
       xlink:href="#linearGradient3888"
       id="linearGradient3177"
       gradientUnits="userSpaceOnUse"
       x1="-56.230446"
       y1="5.5"
       x2="-56.230446"
       y2="69.53125"
       gradientTransform="translate(200,0)" />
    <linearGradient
       inkscape:collect="always"
       xlink:href="#linearGradient3888"
       id="linearGradient3196"
       gradientUnits="userSpaceOnUse"
       gradientTransform="translate(200,0)"
       x1="-56.230446"
       y1="5.5"
       x2="-56.230446"
       y2="69.53125" />
    <linearGradient
       inkscape:collect="always"
       xlink:href="#linearGradient4188"
       id="linearGradient3198"
       gradientUnits="userSpaceOnUse"
       x1="106"
       y1="77.51565"
       x2="180"
       y2="77.51565" />
    <linearGradient
       inkscape:collect="always"
       xlink:href="#linearGradient3832"
       id="linearGradient3200"
       gradientUnits="userSpaceOnUse"
       gradientTransform="translate(200,-0.9843498)"
       x1="-94"
       y1="82.984398"
       x2="-10.187523"
       y2="82.984398" />
    <radialGradient
       inkscape:collect="always"
       xlink:href="#linearGradient4091"
       id="radialGradient3202"
       gradientUnits="userSpaceOnUse"
       gradientTransform="matrix(-1.0721726,0,0,-0.87502024,199.46429,-19.125546)"
       cx="48"
       cy="-27"
       fx="48"
       fy="-27"
       r="42" />
    <linearGradient
       inkscape:collect="always"
       xlink:href="#linearGradient3832"
       id="linearGradient3204"
       gradientUnits="userSpaceOnUse"
       gradientTransform="translate(200,-0.9843498)"
       x1="-94"
       y1="82.984398"
       x2="-20"
       y2="82.984398" />
    <linearGradient
       inkscape:collect="always"
       xlink:href="#linearGradient3874"
       id="linearGradient3206"
       gradientUnits="userSpaceOnUse"
       gradientTransform="translate(100,0)"
       x1="70.030853"
       y1="82"
       x2="89.473785"
       y2="82" />
  </defs>
  <g
     id="layer2"
     style="display:none">
    <rect
       width="86"
       height="85"
       rx="6"
       ry="6"
       x="5"
       y="7"
       id="rect3745"
       style="opacity:0.9;fill:url(#ButtonShadow);fill-opacity:1;fill-rule:nonzero;stroke:none;filter:url(#filter3174)" />
  </g>
  <g
     id="g3943">
    <path
       id="path3786-4"
       d="m 11.99995,93.53125 c -5.51104,0 -10.0312,-4.52016 -10.0312,-10.0312 l 0,-71 c 0,-5.5111 4.52016,-10.0313 10.0312,-10.0313 l 72,0 c 5.5111,0 10.0313,4.5202 10.0313,10.0313 l 0,71 c 0,5.51104 -4.5202,10.0312 -10.0313,10.0312 z"
       style="opacity:0.07999998;fill:url(#linearGradient3216)"
       inkscape:connector-curvature="0" />
    <path
       id="path3778-5"
       d="m 12,92.53125 c -4.97163,0 -9.03125,-4.05962 -9.03125,-9.03125 l 0,-70.99995 c 0,-4.9717 4.05962,-9.0313 9.03125,-9.0313 l 71.99995,0 c 4.9717,0 9.0313,4.0596 9.0313,9.0313 l 0,70.99995 c 0,4.97163 -4.0596,9.03125 -9.0313,9.03125 z"
       style="opacity:0.1;fill:url(#linearGradient3059-7)"
       inkscape:connector-curvature="0" />
    <path
       id="path3770-2"
       d="m 12,91.50005 c -4.40913,0 -8,-3.59087 -8,-8 l 0,-71 c 0,-4.4091 3.59087,-8 8,-8 l 72,0 c 4.4091,0 8,3.5909 8,8 l 0,71 c 0,4.40913 -3.5909,8 -8,8 z"
       style="opacity:0.2;fill:url(#linearGradient3056-1)"
       inkscape:connector-curvature="0" />
    <rect
       id="rect3723-5"
       transform="scale(1,-1)"
       width="86"
       height="85"
       rx="7"
       ry="7"
       style="opacity:0.3;fill:url(#linearGradient3053-3)"
       x="5"
       y="-90.500046" />
    <rect
       id="rect3716-4"
       transform="scale(1,-1)"
       width="84"
       height="84"
       rx="6"
       ry="6"
       style="opacity:0.4;fill:url(#linearGradient3050-6)"
       x="6"
       y="-89.500046" />
  </g>
  <path
     style="fill:#202020;fill-opacity:1;fill-rule:nonzero;stroke:none;display:inline"
     d="m 84,4.5000496 -72,0 c -3.324,0 -6,2.676 -6,6.0000004 l 0,72 c 0,3.324 2.676,6 6,6 l 72,0 c 3.324,0 6,-2.676 6,-6 l 0,-72 C 90,7.1760496 87.324,4.5000496 84,4.5000496 z"
     id="rect2419-1"
     inkscape:connector-curvature="0" />
  <g
     id="g4855"
     transform="translate(-98,0)">
    <path
       sodipodi:nodetypes="sssssssss"
       inkscape:connector-curvature="0"
       id="path4843"
       d="m 117.21875,8.59375 c -3.921,0 -7.125,3.203999 -7.125,7.125 l 0,60.5625 c 0,3.921001 3.204,7.125 7.125,7.125 l 61.5625,0 c 3.921,0 7.125,-3.203999 7.125,-7.125 l 0,-60.5625 c 0,-3.921001 -3.204,-7.125 -7.125,-7.125 z"
       style="font-size:medium;font-style:normal;font-variant:normal;font-weight:normal;font-stretch:normal;text-indent:0;text-align:start;text-decoration:none;line-height:normal;letter-spacing:normal;word-spacing:normal;text-transform:none;direction:ltr;block-progression:tb;writing-mode:lr-tb;text-anchor:start;baseline-shift:baseline;opacity:0.1;color:#000000;fill:#000000;fill-opacity:1;fill-rule:nonzero;stroke:none;stroke-width:2;marker:none;visibility:visible;display:inline;overflow:visible;enable-background:accumulate;font-family:Sans;-inkscape-font-specification:Sans" />
    <path
       style="font-size:medium;font-style:normal;font-variant:normal;font-weight:normal;font-stretch:normal;text-indent:0;text-align:start;text-decoration:none;line-height:normal;letter-spacing:normal;word-spacing:normal;text-transform:none;direction:ltr;block-progression:tb;writing-mode:lr-tb;text-anchor:start;baseline-shift:baseline;opacity:0.2;color:#000000;fill:#000000;fill-opacity:1;fill-rule:nonzero;stroke:none;stroke-width:2;marker:none;visibility:visible;display:inline;overflow:visible;enable-background:accumulate;font-family:Sans;-inkscape-font-specification:Sans"
       d="m 117.21875,8.59375 c -3.37935,0 -6.125,2.745652 -6.125,6.125 l 0,61.5625 c 0,3.379348 2.74565,6.125 6.125,6.125 l 61.5625,0 c 3.37935,0 6.125,-2.745652 6.125,-6.125 l 0,-61.5625 c 0,-3.379348 -2.74565,-6.125 -6.125,-6.125 z"
       id="path4849"
       inkscape:connector-curvature="0"
       sodipodi:nodetypes="sssssssss" />
    <path
       style="fill:#ececec;fill-opacity:1;fill-rule:nonzero;stroke:none;display:inline"
       d="m 178.78677,9.582146 -61.57354,0 c -2.84265,0 -5.13113,2.288484 -5.13113,5.13113 l 0,61.573548 c 0,2.842646 2.28848,5.13113 5.13113,5.13113 l 61.57354,0 c 2.84265,0 5.13113,-2.288484 5.13113,-5.13113 l 0,-61.573548 c 0,-2.842646 -2.28848,-5.13113 -5.13113,-5.13113 z"
       id="path4710"
       inkscape:connector-curvature="0" />
    <path
       inkscape:connector-curvature="0"
       id="path4810"
       d="m 112.09375,74.8125 0,1.46875 c 0,2.842646 2.28235,5.125 5.125,5.125 l 61.5625,0 c 2.84265,0 5.125,-2.282354 5.125,-5.125 l 0,-1.46875 c -0.26183,2.593688 -2.46002,4.59375 -5.125,4.59375 l -61.5625,0 c -2.66498,0 -4.86317,-2.000062 -5.125,-4.59375 z"
       style="opacity:0.1;fill:#000000;fill-opacity:1;fill-rule:nonzero;stroke:none;display:inline" />
    <path
       inkscape:connector-curvature="0"
       id="path4815"
       d="m 112.09375,73.8125 0,1 c 0.26183,2.593688 2.46002,4.59375 5.125,4.59375 l 61.5625,0 c 2.66498,0 4.86317,-2.000062 5.125,-4.59375 l 0,-1 c -0.26183,2.593688 -2.46002,4.59375 -5.125,4.59375 l -61.5625,0 c -2.66498,0 -4.86317,-2.000062 -5.125,-4.59375 z"
       style="opacity:0.4;fill:url(#linearGradient4863);fill-opacity:1;fill-rule:nonzero;stroke:none;display:inline" />
    <path
       inkscape:connector-curvature="0"
       id="path4820"
       d="m 116.6875,9.59375 c -2.59369,0.2618304 -4.59375,2.460019 -4.59375,5.125 l 0,0.46875 c 0.26183,-2.593688 2.46002,-4.59375 5.125,-4.59375 l 61.5625,0 c 2.66498,0 4.86317,2.000062 5.125,4.59375 l 0,-0.46875 c 0,-2.842646 -2.28235,-5.125 -5.125,-5.125 l -61.5625,0 c -0.17767,0 -0.35834,-0.017455 -0.53125,0 z"
       style="opacity:0.5;fill:#ffffff;fill-opacity:1;fill-rule:nonzero;stroke:none;display:inline" />
  </g>
  <path
     style="fill:#333333;fill-opacity:1;fill-rule:nonzero;stroke:none;display:inline"
     d="m 12,4.5 c -3.324,0 -6,2.6759996 -6,6 l 0,70 c 0,3.324 2.676,6 6,6 l 62,0 c 3.324,0 6,-2.676 6,-6 l 0,-38.1875 6.875,-4.125 C 88.74566,37.173813 90,35.1915 90,32.90625 L 90,10.5 c 0,-3.3240004 -2.676,-6 -6,-6 z"
     id="path3262"
     inkscape:connector-curvature="0"
     sodipodi:nodetypes="ssssssccssss" />
  <g
     id="g4031">
    <rect
       y="10"
       x="9"
       height="65"
       width="1"
       id="rect4494"
       style="opacity:0.15;color:#000000;fill:#ffffff;fill-opacity:1;fill-rule:nonzero;stroke:none;stroke-width:5;marker:none;visibility:visible;display:inline;overflow:visible;enable-background:accumulate" />
    <rect
       style="opacity:0.25;color:#000000;fill:#000000;fill-opacity:1;fill-rule:nonzero;stroke:none;stroke-width:5;marker:none;visibility:visible;display:inline;overflow:visible;enable-background:accumulate"
       id="rect4496"
       width="1"
       height="65"
       x="10"
       y="10" />
    <rect
       style="opacity:0.15;color:#000000;fill:#ffffff;fill-opacity:1;fill-rule:nonzero;stroke:none;stroke-width:5;marker:none;visibility:visible;display:inline;overflow:visible;enable-background:accumulate"
       id="rect4498"
       width="1"
       height="65"
       x="13"
       y="10" />
    <rect
       y="10"
       x="14"
       height="65"
       width="1"
       id="rect4500"
       style="opacity:0.25;color:#000000;fill:#000000;fill-opacity:1;fill-rule:nonzero;stroke:none;stroke-width:5;marker:none;visibility:visible;display:inline;overflow:visible;enable-background:accumulate" />
    <path
       id="path4130"
       d="m 72.875,68.71875 c -2.51184,0 -4.5625,1.93878 -4.5625,4.3125 0,2.37372 2.05066,4.3125 4.5625,4.3125 2.51184,0 4.5625,-1.93878 4.5625,-4.3125 0,-2.37372 -2.05066,-4.3125 -4.5625,-4.3125 z m 0,1.34375 c 1.73733,0 3.15625,1.326959 3.15625,2.96875 0,1.641792 -1.41892,2.96875 -3.15625,2.96875 -1.73733,0 -3.15625,-1.326958 -3.15625,-2.96875 0,-1.641791 1.41892,-2.96875 3.15625,-2.96875 z"
       style="color:#000000;fill:url(#linearGradient4025);fill-opacity:1;fill-rule:nonzero;stroke:none;stroke-width:5;marker:none;visibility:visible;display:inline;overflow:visible;enable-background:accumulate"
       inkscape:connector-curvature="0" />
    <path
       id="path4132"
       d="m 72.875,70.0625 c -1.73733,0 -3.15625,1.326959 -3.15625,2.96875 0,0.55226 0.19112,1.056911 0.46875,1.5 0.54773,-0.874152 1.53457,-1.46875 2.6875,-1.46875 1.15293,0 2.13977,0.594598 2.6875,1.46875 0.27763,-0.443089 0.46875,-0.94774 0.46875,-1.5 0,-1.641791 -1.41892,-2.96875 -3.15625,-2.96875 z"
       style="opacity:0.8;color:#000000;fill:#000000;fill-opacity:1;fill-rule:nonzero;stroke:none;stroke-width:5;marker:none;visibility:visible;display:inline;overflow:visible;enable-background:accumulate"
       inkscape:connector-curvature="0" />
    <path
       inkscape:connector-curvature="0"
       id="path4154"
       d="m 72.875,68.71875 c -2.51184,0 -4.5625,1.93878 -4.5625,4.3125 0,0.08494 0.0261,0.166247 0.0313,0.25 0.13954,-2.256915 2.10928,-4.0625 4.53125,-4.0625 2.42197,0 4.39171,1.805585 4.53125,4.0625 0.005,-0.08375 0.0313,-0.165064 0.0313,-0.25 0,-2.37372 -2.05066,-4.3125 -4.5625,-4.3125 z m -3.125,4.5625 c -0.008,0.08469 -0.0313,0.163412 -0.0313,0.25 0,1.641792 1.41892,2.96875 3.15625,2.96875 1.73733,0 3.15625,-1.326958 3.15625,-2.96875 0,-0.08659 -0.0235,-0.165312 -0.0313,-0.25 C 75.86113,74.802331 74.5207,76 72.875,76 71.2293,76 69.88887,74.802331 69.75,73.28125 z"
       style="opacity:0.2;color:#000000;fill:#ffffff;fill-opacity:1;fill-rule:nonzero;stroke:none;stroke-width:5;marker:none;visibility:visible;display:inline;overflow:visible;enable-background:accumulate" />
    <path
       inkscape:connector-curvature="0"
       id="path4170"
       d="m 72.875,73.0625 c -1.15293,0 -2.13977,0.594598 -2.6875,1.46875 C 70.73523,75.405402 71.72207,76 72.875,76 74.02793,76 75.01477,75.405402 75.5625,74.53125 75.01477,73.657098 74.02793,73.0625 72.875,73.0625 z"
       style="opacity:0.7;color:#000000;fill:#000000;fill-opacity:1;fill-rule:nonzero;stroke:none;stroke-width:5;marker:none;visibility:visible;display:inline;overflow:visible;enable-background:accumulate" />
    <path
       inkscape:connector-curvature="0"
       id="path4175"
       d="m 72.875,69.5625 c -1.73733,0 -3.15625,1.326959 -3.15625,2.96875 0,0.08659 0.0235,0.165312 0.0313,0.25 0.13887,-1.52108 1.4793,-2.71875 3.125,-2.71875 1.6457,0 2.98613,1.19767 3.125,2.71875 0.008,-0.08469 0.0313,-0.163412 0.0313,-0.25 0,-1.641791 -1.41892,-2.96875 -3.15625,-2.96875 z m -4.53125,3.21875 c -0.005,0.08375 -0.0313,0.165064 -0.0313,0.25 0,2.37372 2.05066,4.3125 4.5625,4.3125 2.51184,0 4.5625,-1.93878 4.5625,-4.3125 0,-0.08494 -0.0261,-0.166247 -0.0313,-0.25 -0.13954,2.256915 -2.10928,4.0625 -4.53125,4.0625 -2.42197,0 -4.39171,-1.805585 -4.53125,-4.0625 z"
       style="opacity:0.2;color:#000000;fill:#000000;fill-opacity:1;fill-rule:nonzero;stroke:none;stroke-width:5;marker:none;visibility:visible;display:inline;overflow:visible;enable-background:accumulate" />
    <path
       id="path3825"
       d="M 80.875,8.59375 80.34375,9.9375 80,9 l 0,22.21875 0.34375,-0.9375 0.53125,1.34375 0.53125,-1.34375 0.53125,1.3125 0.5,-1.3125 0.5,1.3125 0.53125,-1.3125 L 84,31.625 84.5,30.28125 85.03125,31.625 85.5625,30.28125 86,31.40625 86,8.8125 85.5625,9.9375 85.03125,8.59375 84.5,9.9375 84,8.59375 83.46875,9.9375 82.9375,8.625 82.4375,9.9375 81.9375,8.625 81.40625,9.9375 80.875,8.59375 z"
       style="opacity:0.3;fill:#ffffff;fill-opacity:1;fill-rule:nonzero;stroke:none;display:inline"
       inkscape:connector-curvature="0" />
    <path
       inkscape:connector-curvature="0"
       id="path4207"
       d="M 80.875,8.59375 80.34375,9.9375 80,9 l 0,0.5 0.34375,0.9375 0.53125,-1.34375 0.53125,1.34375 0.53125,-1.3125 0.5,1.3125 0.5,-1.3125 0.53125,1.3125 L 84,9.09375 84.5,10.4375 85.03125,9.09375 85.5625,10.4375 86,9.3125 86,8.8125 85.5625,9.9375 85.03125,8.59375 84.5,9.9375 84,8.59375 83.46875,9.9375 82.9375,8.625 82.4375,9.9375 81.9375,8.625 81.40625,9.9375 80.875,8.59375 z"
       style="opacity:0.2;fill:#ffffff;fill-opacity:1;fill-rule:nonzero;stroke:none;display:inline" />
    <path
       inkscape:connector-curvature="0"
       id="path4212"
       d="M 80.34375,29.78125 80,30.71875 l 0,0.5 0.34375,-0.9375 0.53125,1.34375 0.53125,-1.34375 0.53125,1.3125 0.5,-1.3125 0.5,1.3125 0.53125,-1.3125 L 84,31.625 l 0.5,-1.34375 0.53125,1.34375 0.53125,-1.34375 0.4375,1.125 0,-0.5 -0.4375,-1.125 L 85.03125,31.125 84.5,29.78125 84,31.125 l -0.53125,-1.34375 -0.53125,1.3125 -0.5,-1.3125 -0.5,1.3125 -0.53125,-1.3125 L 80.875,31.125 80.34375,29.78125 z"
       style="opacity:0.15;fill:#000000;fill-opacity:1;fill-rule:nonzero;stroke:none;display:inline" />
  </g>
  <path
     style="fill:url(#radialGradient10375);fill-rule:evenodd;stroke-width:1pt"
     inkscape:connector-curvature="0"
     d=""
     id="path3115" />
  <path
     id="path1399"
     d=""
     inkscape:connector-curvature="0"
     style="fill:url(#radialGradient10431);fill-rule:evenodd;stroke-width:1pt" />
  <path
     id="path825"
     d=""
     inkscape:connector-curvature="0"
     style="fill:url(#radialGradient10428);fill-rule:evenodd;stroke-width:1pt" />
  <path
     id="path868"
     d=""
     inkscape:connector-curvature="0"
     style="fill:url(#linearGradient10421);fill-rule:evenodd;stroke-width:1pt" />
  <path
     id="path884"
     d=""
     inkscape:connector-curvature="0"
     style="fill:url(#linearGradient10418);fill-rule:evenodd;stroke-width:1pt" />
  <g
     id="g3905"
     transform="translate(-80,0)">
    <path
       sodipodi:nodetypes="scccccscccccscscscscccscscccccccccccccsccccccscccccccsccsccccccccccccccscccccccccscccccccccsccsccccccsccccscccccccscscscccccccc"
       inkscape:connector-curvature="0"
       id="path3131"
       d="m 126.375,23.34375 c -7.86694,0 -14.60411,4.608501 -17.71875,11.21875 L 104.6875,31.625 97.25,42.5 l 7.25,10.96875 4.25,-2.5625 c 3.15406,6.503478 9.83293,11.03125 17.625,11.03125 7.79207,0 14.50219,-4.527772 17.65625,-11.03125 l 4.25,2.5625 7.25,-10.96875 -7.4375,-10.875 -3.96875,2.9375 c -3.11464,-6.610249 -9.88306,-11.21875 -17.75,-11.21875 z M 123.6875,31 c 0.005,0.26803 0.0313,0.368754 0.0313,0.6875 l 0,2.28125 -0.875,0 c -0.19619,0 -0.32275,0.0031 -0.5,0 0.12661,-0.301882 0.25067,-0.584705 0.40625,-0.9375 0.34408,-0.780254 0.6417,-1.429642 0.9375,-2.03125 z m 5.59375,0 c 0.38243,0.737417 0.80538,1.597669 1.125,2.34375 0.1002,0.233897 0.17133,0.394446 0.25,0.59375 -0.20364,0.01026 -0.35673,0.03125 -0.59375,0.03125 l -0.875,0 L 129.25,31.75 c 0.009,-0.348747 0.0186,-0.464476 0.0313,-0.75 z m -12.65625,2.3125 -0.21875,0.65625 -0.4375,0 c 0.22469,-0.224662 0.40822,-0.421616 0.65625,-0.65625 z m 19.84375,0.25 c 0.14173,0.144695 0.24615,0.267691 0.375,0.40625 l -0.25,0 z m -28.625,3.125 c -0.62514,1.885221 -1.0625,3.878751 -1.0625,5.96875 0,2.13502 0.44245,4.143854 1.09375,6.0625 l -4.28125,-6 z m 37.09375,0 4.25,6.03125 -4.28125,6 c 0.6513,-1.918646 1.0625,-3.92748 1.0625,-6.0625 0,-2.089999 -0.40611,-4.083529 -1.03125,-5.96875 z m -31.875,2.96875 1.25,0.0625 1,0.03125 c -0.0426,0.362621 -0.0788,0.764365 -0.0937,1.34375 -0.018,0.701036 -0.0137,1.525094 0,2.34375 l 0.0313,1.90625 -0.96875,0 c -0.52136,0 -0.98915,-0.01558 -1.3125,-0.0625 -0.0142,-0.0021 -0.0176,0.0021 -0.0313,0 -0.021,-0.119594 -0.0434,-0.236849 -0.0625,-0.40625 -0.053,-0.470088 -0.11011,-1.081805 -0.125,-1.71875 -0.0298,-1.27389 0.10615,-2.736417 0.1875,-3.03125 l 0,-0.03125 0.125,-0.4375 z m 7.9375,0 1.40625,0 1.34375,0 0.0313,1.71875 c 0.0266,1.490677 0.049,3.186745 0.0625,3.78125 l 0,0.09375 -1.375,0.03125 c -0.61135,0.02131 -1.18757,0.02278 -1.59375,0 -0.004,-0.05787 0.004,-0.09176 0,-0.15625 -0.0292,-0.465759 -0.0573,-1.062777 -0.0625,-1.71875 -0.0104,-1.311947 0.0473,-2.834031 0.125,-3.34375 z m 8.1875,0 1.34375,0.0625 0.0313,0 1.5,0.0625 0.125,1.125 c 0.12737,1.088496 0.15118,2.416164 0.0625,3.4375 -0.0397,0.457535 -0.0962,0.828577 -0.15625,1.09375 -0.0776,9.79e-4 -0.12707,1.48e-4 -0.21875,0 -0.41911,-6.75e-4 -0.96462,-0.0086 -1.53125,-0.03125 l -0.0313,0 -1.125,-0.03125 0,-2.90625 z m 8.53125,0 0.9375,0 1.15625,0 0.0625,0.28125 c 0.0839,0.389345 0.15609,1.799876 0.15625,3.0625 8e-5,0.631312 5e-5,1.238363 -0.0313,1.71875 -0.0225,0.345515 -0.0502,0.461037 -0.0625,0.5625 -0.19898,0.03449 -0.56799,0.0625 -1.25,0.0625 l -0.96875,0 0,-2.84375 0,-2.84375 z m -21.875,11.40625 c 0.27295,0.01711 0.57489,0.04671 0.5625,0.03125 0.0247,0.05208 0.0655,0.09384 0.125,0.25 0.0638,0.167443 0.18476,0.501031 0.28125,0.75 -0.0581,-0.05772 -0.0983,-0.09719 -0.15625,-0.15625 -0.31727,-0.32351 -0.55128,-0.587659 -0.8125,-0.875 z m 6.53125,0 c 0.2037,-0.01331 0.10841,0 0.40625,0 0.51857,0 0.86167,0.01312 1.03125,0.03125 0.009,0.0496 0.0474,0.158194 0.0625,0.5625 0.0185,0.495828 0.008,1.221328 0,2.21875 -0.002,0.179985 -0.0279,0.245228 -0.0313,0.40625 -0.59535,-1.146068 -1.14903,-2.391154 -1.46875,-3.21875 z m 6.8125,0 0.875,0 c 0.35967,0 0.439,0.01807 0.65625,0.03125 -0.17504,0.438803 -0.41839,0.986789 -0.6875,1.5625 -0.29762,0.636703 -0.52251,0.993736 -0.8125,1.53125 -0.005,-0.262456 -0.0313,-0.433488 -0.0313,-0.71875 l 0,-2.40625 z m 7.84375,0.0625 c -0.0148,0.01655 -0.0161,0.01465 -0.0313,0.03125 -0.17661,0.193859 -0.41226,0.411609 -0.625,0.625 l 0.21875,-0.625 0.4375,-0.03125 z"
       style="font-size:medium;font-style:normal;font-variant:normal;font-weight:normal;font-stretch:normal;text-indent:0;text-align:start;text-decoration:none;line-height:normal;letter-spacing:normal;word-spacing:normal;text-transform:none;direction:ltr;block-progression:tb;writing-mode:lr-tb;text-anchor:start;baseline-shift:baseline;opacity:0.2;color:#000000;fill:#000000;fill-opacity:1;fill-rule:nonzero;stroke:none;stroke-width:2;marker:none;visibility:visible;display:inline;overflow:visible;enable-background:accumulate;font-family:Sans;-inkscape-font-specification:Sans" />
    <path
       inkscape:connector-curvature="0"
       id="path10639"
       d="m 126.39054,24.349565 c -10.2685,0 -18.59369,8.194642 -18.59369,18.303165 0,10.108523 8.32519,18.278955 18.59369,18.278955 10.2685,0 18.59369,-8.170433 18.59369,-18.278955 0,-10.108523 -8.32519,-18.303165 -18.59369,-18.303165 z m -2.13053,4.018949 c 0.3413,0.01265 0.46,1.079747 0.46,3.316843 l 0,3.268422 -1.88842,0 c -1.03534,0 -1.88842,-0.04547 -1.88842,-0.09684 0,-0.287276 1.61884,-3.955527 2.25158,-5.108424 0.49565,-0.903118 0.83174,-1.38865 1.06526,-1.38 z m 4.50317,0.169474 c 0.26868,-0.01885 0.67846,0.585928 1.28315,1.718948 0.87375,1.637111 1.91263,4.047871 1.91263,4.478949 0,0.112359 -0.84786,0.217894 -1.88842,0.217894 l -1.91263,0 0.0968,-3.220001 c 0.0549,-2.148461 0.16297,-3.171555 0.50843,-3.19579 z m -10.48317,2.130527 c 0.2683,0 0.332,0.175127 0.19369,0.508421 -0.11388,0.274404 -0.45875,1.228913 -0.77474,2.130527 l -0.58106,1.646316 -1.54947,0 c -0.86145,0 -1.57369,-0.114669 -1.57369,-0.242105 0,-0.398384 3.86232,-4.043159 4.28527,-4.043159 z m 16.63264,0.290526 c 0.47492,0 3.70421,3.206373 3.70421,3.680002 0,0.175695 -0.60769,0.314736 -1.40421,0.314736 l -1.38,0 -0.46,-1.501053 c -0.25942,-0.823212 -0.56891,-1.710859 -0.6779,-1.985264 -0.13339,-0.335905 -0.0657,-0.508421 0.2179,-0.508421 z M 104.9158,33.18641 c -1.96267,3.253889 -4.14324,6.401272 -6.4158,9.345268 2.16926,3.047293 4.32885,6.309273 6.34316,9.563162 l 2.95369,-1.767369 -5.42317,-7.577899 5.32633,-7.602108 c -0.98133,-0.568139 -1.95784,-1.186318 -2.78421,-1.961054 z m 42.94948,0 c -0.82638,0.774736 -1.80288,1.392915 -2.78421,1.961054 l 5.32632,7.602108 -5.42316,7.577899 2.95369,1.767369 c 2.01432,-3.253889 4.1739,-6.515869 6.34316,-9.563162 -2.27255,-2.943996 -4.45313,-6.091379 -6.4158,-9.345268 z m -35.58949,5.447372 2.08212,0.07263 2.10631,0.09684 -0.14527,0.847369 c -0.0797,0.470407 -0.12376,2.169618 -0.0968,3.776844 l 0.0484,2.929475 -1.98526,0 c -1.12472,0 -2.06821,-0.13834 -2.17895,-0.314738 -0.38187,-0.608253 -0.4835,-4.972096 -0.14526,-6.197897 l 0.31473,-1.210526 z m 15.90633,0 2.39684,0.07263 2.39684,0.09684 0.2179,1.985264 c 0.27555,2.354853 4.3e-4,5.483406 -0.48421,5.616844 -0.18779,0.05171 -1.26625,0.04607 -2.42105,0 l -2.10632,-0.07263 0,-3.849476 0,-3.849474 z m -8.0379,0.02421 2.27579,0 2.3,0 0.0484,2.711581 c 0.0266,1.489622 0.0593,3.188833 0.0726,3.776842 l 0.0242,1.065265 -2.37263,0.07263 c -1.30084,0.04534 -2.42075,-0.02152 -2.49368,-0.145263 -0.2192,-0.371846 -0.2557,-4.861545 -0.0484,-6.222108 l 0.19368,-1.258948 z m 16.58422,0 1.93684,0 1.93684,0 0.24211,1.065264 c 0.2664,1.236569 0.26773,5.462607 0,6.149476 -0.14336,0.367739 -0.60454,0.484208 -2.15474,0.484211 l -1.96105,0 0,-3.849476 0,-3.849475 z m 2.20316,11.378952 -0.43579,0.823159 c -0.47313,0.900684 -3.51196,3.752632 -3.99474,3.752632 -0.169,0 -0.21469,-0.200555 -0.0968,-0.48421 0.11402,-0.274404 0.49907,-1.262343 0.84736,-2.203159 l 0.62948,-1.718948 1.52526,-0.09684 1.52527,-0.07263 z m -23.38738,0.02421 c 1.4919,0 1.57448,0.03257 1.91263,0.919999 0.19418,0.509608 0.60163,1.55519 0.89579,2.300002 0.51008,1.291484 0.51603,1.331579 0.0242,1.331579 -0.2836,0 -1.38378,-0.878683 -2.44526,-1.961053 -1.06149,-1.082372 -1.93685,-2.103741 -1.93685,-2.275791 0,-0.188252 0.61206,-0.314736 1.54948,-0.314736 z m 7.23895,0 c 2.21856,0 2.11542,-0.146908 2.08211,3.825264 -0.0274,3.269557 -0.33321,3.658444 -1.42842,1.81579 -0.80332,-1.351554 -2.02337,-3.983504 -2.32421,-4.98737 -0.18537,-0.618489 -0.13075,-0.653684 1.67052,-0.653684 z m 5.39895,0 1.88842,0 c 1.44814,0 1.88843,0.09475 1.88843,0.411579 0,0.564689 -1.86571,4.557079 -2.61475,5.592633 -0.3353,0.463553 -0.74736,0.847369 -0.89578,0.847369 -0.15179,0 -0.26632,-1.513852 -0.26632,-3.437896 l 0,-3.413685 z"
       style="opacity:0.85;color:#000000;fill:#ffffff;fill-opacity:1;fill-rule:nonzero;stroke:none;stroke-width:40;marker:none;visibility:visible;display:inline;overflow:visible;enable-background:accumulate" />
    <path
       inkscape:connector-curvature="0"
       id="path10671"
       d="m 126.39054,24.34375 c -10.2685,0 -18.59375,8.203977 -18.59375,18.3125 0,0.505216 0.0217,1.005244 0.0625,1.5 0.77544,-9.406655 8.77596,-16.8125 18.53125,-16.8125 9.75529,0 17.75581,7.405845 18.53125,16.8125 0.0408,-0.494756 0.0625,-0.994784 0.0625,-1.5 0,-10.108523 -8.32525,-18.3125 -18.59375,-18.3125 z m -21.46875,8.84375 c -1.96267,3.253889 -4.13369,6.399754 -6.40625,9.34375 0.35879,0.504021 0.70485,1.047741 1.0625,1.5625 1.88163,-2.525672 3.69501,-5.172829 5.34375,-7.90625 0.41318,0.387368 0.84241,0.740096 1.3125,1.0625 l 1.46875,-2.09375 c -0.98133,-0.568139 -1.95488,-1.194014 -2.78125,-1.96875 z m 42.9375,0 c -0.82638,0.774736 -1.79992,1.400611 -2.78125,1.96875 l 1.46875,2.09375 c 0.47009,-0.322404 0.89931,-0.675132 1.3125,-1.0625 1.64874,2.733421 3.46212,5.380578 5.34375,7.90625 0.35765,-0.514759 0.70371,-1.058479 1.0625,-1.5625 -2.27255,-2.943996 -4.44358,-6.089861 -6.40625,-9.34375 z m -29.59375,0.46875 c -0.11186,0 -0.47954,0.273825 -0.9375,0.65625 l -0.21875,0.65625 -0.5,0 c -1.21593,1.094287 -2.625,2.507318 -2.625,2.75 0,0.127436 0.7323,0.25 1.59375,0.25 l 1.53125,0 0.59375,-1.65625 c 0.31599,-0.901614 0.66737,-1.850596 0.78125,-2.125 0.13831,-0.333294 0.0496,-0.53125 -0.21875,-0.53125 z m 16.65625,0.3125 c -0.2836,0 -0.35214,0.164095 -0.21875,0.5 0.10899,0.274405 0.39683,1.145538 0.65625,1.96875 l 0.46875,1.53125 1.375,0 c 0.79652,0 1.40625,-0.168055 1.40625,-0.34375 0,-0.304493 -1.29554,-1.670921 -2.375,-2.65625 l -0.40625,0 -0.15625,-0.53125 c -0.35117,-0.28984 -0.63543,-0.46875 -0.75,-0.46875 z m -4.0625,0.9375 c -0.2584,0.01611 -0.47137,0.0625 -0.78125,0.0625 l -1.8125,0 -0.0937,3 1.90625,0 c 1.04056,0 1.875,-0.106391 1.875,-0.21875 0,-0.297912 -0.49881,-1.56362 -1.09375,-2.84375 z m -8.71875,0.03125 c -0.60874,1.344103 -1.1875,2.732308 -1.1875,2.90625 0,0.05137 0.83966,0.125 1.875,0.125 l 1.90625,0 0,-3 -1.90625,0 c -0.26499,0 -0.45764,-0.02596 -0.6875,-0.03125 z m -5.90625,6.875 c -0.007,0.530124 -0.009,1.060299 0,1.625 l 0,0.59375 c 0.0181,-0.623449 0.0564,-1.154749 0.0937,-1.375 l 0.125,-0.84375 -0.21875,0 z m -4.40625,2.15625 c -0.12955,1.767859 -0.0217,4.579923 0.28125,5.0625 0.11074,0.176398 1.06278,0.3125 2.1875,0.3125 l 1.96875,0 -0.0313,-2.90625 c -5.5e-4,-0.03258 4.9e-4,-0.06111 0,-0.09375 l -1.9375,0 c -1.12472,0 -2.07676,-0.136102 -2.1875,-0.3125 -0.14975,-0.238532 -0.22732,-1.084583 -0.28125,-2.0625 z m -8.40625,0.25 -1.0625,1.53125 3.9375,5.46875 1.5,-0.90625 -4.375,-6.09375 z m 16.40625,0 c -0.0808,1.861553 -0.0149,4.615825 0.15625,4.90625 0.0729,0.123743 1.19916,0.20159 2.5,0.15625 l 2.375,-0.0625 -0.0313,-1.0625 c -0.007,-0.301292 -0.0177,-1.230405 -0.0313,-1.9375 l -2.3125,0.0625 c -1.30084,0.04534 -2.42707,-0.03251 -2.5,-0.15625 -0.0846,-0.143533 -0.1296,-0.952422 -0.15625,-1.90625 z m 29.53125,0 -4.375,6.09375 1.5,0.90625 3.9375,-5.46875 -1.0625,-1.53125 z m -16.125,0.21875 c -0.0949,1.093175 -0.28893,1.902031 -0.53125,1.96875 -0.18779,0.05171 -1.25145,0.04607 -2.40625,0 l -2.125,-0.0625 0,3 2.125,0.0625 c 1.1548,0.04607 2.21846,0.05171 2.40625,0 0.44084,-0.121377 0.69388,-2.727526 0.53125,-4.96875 z m 7.75,0 c -0.0321,0.66109 -0.0452,1.232685 -0.125,1.4375 -0.14336,0.367739 -0.60605,0.468747 -2.15625,0.46875 l -1.96875,0 0,3 1.96875,0 c 1.5502,-3e-6 2.01289,-0.101011 2.15625,-0.46875 0.18874,-0.48422 0.2023,-2.72283 0.125,-4.4375 z m -2.0625,8.59375 -1.5,0.09375 -1.0625,0.0625 c -0.23982,0.221454 -0.46635,0.406813 -0.6875,0.59375 l -0.40625,1.15625 c -0.34829,0.940816 -0.76098,1.913096 -0.875,2.1875 -0.11789,0.283655 -0.044,0.5 0.125,0.5 0.48278,0 3.49562,-2.849316 3.96875,-3.75 l 0.4375,-0.84375 z m -23.375,0.03125 c -0.93742,0 -1.5625,0.124248 -1.5625,0.3125 0,0.17205 0.87601,1.198878 1.9375,2.28125 1.06148,1.08237 2.18515,1.96875 2.46875,1.96875 0.49183,0 0.47883,-0.05227 -0.0313,-1.34375 -0.28247,-0.715218 -0.67276,-1.689759 -0.875,-2.21875 -0.31928,-0.253146 -0.67762,-0.601341 -1.0625,-0.96875 -0.008,-6.03e-4 -0.0231,5.66e-4 -0.0313,0 -0.21918,-0.01531 -0.48408,-0.03125 -0.84375,-0.03125 z m 6.1875,0 c -0.76658,0.03889 -0.76403,0.192383 -0.625,0.65625 0.30084,1.003866 1.50918,3.617196 2.3125,4.96875 1.09521,1.842654 1.4101,1.457057 1.4375,-1.8125 0.009,-1.129383 0.003,-1.876037 -0.0313,-2.4375 -0.0654,2.647169 -0.39059,2.958813 -1.40625,1.25 -0.40551,-0.682249 -0.8977,-1.664337 -1.34375,-2.625 -0.10139,0.0022 -0.26108,-0.0042 -0.34375,0 z m 9.1875,0.03125 c -0.56006,1.198128 -1.18798,2.450973 -1.5625,2.96875 -0.3353,0.463553 -0.75783,0.84375 -0.90625,0.84375 -0.15179,0 -0.28125,-1.513456 -0.28125,-3.4375 l 0,3 c 0,1.924044 0.12946,3.4375 0.28125,3.4375 0.14842,0 0.57095,-0.380197 0.90625,-0.84375 0.74904,-1.035554 2.59375,-5.029061 2.59375,-5.59375 0,-0.243078 -0.2566,-0.335863 -1.03125,-0.375 z"
       style="opacity:0.1;color:#000000;fill:#000000;fill-opacity:1;fill-rule:nonzero;stroke:none;stroke-width:40;marker:none;visibility:visible;display:inline;overflow:visible;enable-background:accumulate" />
    <path
       inkscape:connector-curvature="0"
       id="path10673"
       d="m 126.39054,24.34375 c -10.2685,0 -18.59375,8.203977 -18.59375,18.3125 0,0.337161 0.0442,0.667383 0.0625,1 0.52997,-9.641195 8.60525,-17.3125 18.53125,-17.3125 9.926,0 18.00128,7.671305 18.53125,17.3125 0.0183,-0.332617 0.0625,-0.662839 0.0625,-1 0,-10.108523 -8.32525,-18.3125 -18.59375,-18.3125 z m -8.125,8.3125 c -0.0645,0 -0.20787,0.10508 -0.40625,0.25 -0.061,0.172017 -0.0955,0.232935 -0.15625,0.40625 l -0.59375,1.65625 -1.53125,0 c -0.0119,0 -0.0194,4.3e-5 -0.0313,0 -0.82285,0.803097 -1.5625,1.582498 -1.5625,1.75 0,0.127436 0.7323,0.25 1.59375,0.25 l 1.53125,0 0.59375,-1.65625 c 0.31599,-0.901614 0.66737,-1.850596 0.78125,-2.125 0.13831,-0.333294 0.0496,-0.53125 -0.21875,-0.53125 z m 16.65625,0.3125 c -0.2836,0 -0.35214,0.164095 -0.21875,0.5 0.10899,0.274405 0.39683,1.145538 0.65625,1.96875 l 0.46875,1.53125 1.375,0 c 0.79652,0 1.40625,-0.168055 1.40625,-0.34375 0,-0.204511 -0.62129,-0.910855 -1.34375,-1.65625 -0.0218,2.11e-4 -0.0404,0 -0.0625,0 l -1.375,0 -0.46875,-1.53125 c -0.0408,-0.129362 -0.0515,-0.182586 -0.0937,-0.3125 -0.15596,-0.107591 -0.27785,-0.15625 -0.34375,-0.15625 z m -30,0.21875 c -1.96267,3.253889 -4.13369,6.399754 -6.40625,9.34375 0.23868,0.335284 0.48049,0.691064 0.71875,1.03125 2.00824,-2.664387 3.93668,-5.47233 5.6875,-8.375 0.55435,0.519708 1.1669,0.964039 1.8125,1.375 l 0.96875,-1.40625 c -0.98133,-0.568139 -1.95488,-1.194014 -2.78125,-1.96875 z m 42.9375,0 c -0.82638,0.774736 -1.79992,1.400611 -2.78125,1.96875 l 0.96875,1.40625 c 0.6456,-0.410961 1.25815,-0.855292 1.8125,-1.375 1.75082,2.90267 3.67926,5.710613 5.6875,8.375 0.23826,-0.340186 0.48007,-0.695966 0.71875,-1.03125 -2.27255,-2.943996 -4.44358,-6.089861 -6.40625,-9.34375 z m -16.5625,1.6875 c -0.33452,0.03564 -0.73544,0.09375 -1.21875,0.09375 l -1.84375,0 -0.0625,2 1.90625,0 c 1.04056,0 1.875,-0.106391 1.875,-0.21875 0,-0.220618 -0.27343,-0.986414 -0.65625,-1.875 z m -9.59375,0.0625 c -0.41466,0.953716 -0.75,1.777752 -0.75,1.90625 0,0.05137 0.83966,0.125 1.875,0.125 l 1.90625,0 0,-2 -1.90625,0 c -0.43344,0 -0.80467,-0.01821 -1.125,-0.03125 z m -5.4375,5.875 c -0.0249,0.664543 -0.0407,1.442658 -0.0313,2.3125 0.0176,-0.684507 0.0539,-1.233547 0.0937,-1.46875 l 0.125,-0.84375 -0.1875,0 z m 3.5625,2.59375 c -0.0669,1.854146 -0.008,4.439866 0.15625,4.71875 0.0729,0.123743 1.19916,0.20159 2.5,0.15625 l 2.375,-0.0625 -0.0313,-1.0625 c -0.003,-0.145748 0.005,-0.675327 0,-0.9375 l -2.34375,0.0625 c -1.30084,0.04534 -2.42707,-0.03251 -2.5,-0.15625 -0.1096,-0.185923 -0.14564,-1.379774 -0.15625,-2.71875 z m -8.03125,0.15625 c -0.0683,1.750673 0.0415,4.03708 0.3125,4.46875 0.11074,0.176398 1.06278,0.3125 2.1875,0.3125 l 1.96875,0 -0.0313,-2 -1.9375,0 c -1.12472,0 -2.07676,-0.136102 -2.1875,-0.3125 -0.17116,-0.272634 -0.26831,-1.307856 -0.3125,-2.46875 z m 21.46875,0.125 c -0.0642,1.43965 -0.26915,2.637982 -0.5625,2.71875 -0.18779,0.05171 -1.25145,0.04607 -2.40625,0 l -2.125,-0.0625 0,2 2.125,0.0625 c 1.1548,0.04607 2.21846,0.05171 2.40625,0 0.42406,-0.116758 0.68781,-2.540534 0.5625,-4.71875 z m -30.1875,0.0625 -0.71875,1 4.4375,6.15625 1,-0.59375 -4.71875,-6.5625 z m 46.625,0 -4.71875,6.5625 1,0.59375 4.4375,-6.15625 -0.71875,-1 z m -8.6875,0.21875 c -0.0263,0.873163 -0.0588,1.656196 -0.15625,1.90625 -0.14336,0.367739 -0.60605,0.468747 -2.15625,0.46875 l -1.96875,0 0,2 1.96875,0 c 1.5502,-3e-6 2.01289,-0.101011 2.15625,-0.46875 0.17007,-0.436323 0.2023,-2.287152 0.15625,-3.90625 z m -2.09375,8.0625 -1.5,0.09375 c -0.74217,0.776899 -1.6467,1.650262 -2.28125,2.125 -0.30215,0.804648 -0.65227,1.639797 -0.75,1.875 -0.11789,0.283655 -0.044,0.5 0.125,0.5 0.48278,0 3.49562,-2.849316 3.96875,-3.75 l 0.4375,-0.84375 z m -23.53125,0.03125 c -0.83989,0.01455 -1.40625,0.135984 -1.40625,0.3125 0,0.17205 0.87601,1.198878 1.9375,2.28125 1.06148,1.08237 2.18515,1.96875 2.46875,1.96875 0.49183,0 0.47883,-0.05227 -0.0313,-1.34375 -0.1031,-0.261044 -0.19563,-0.513588 -0.3125,-0.8125 -0.47352,-0.285401 -1.31005,-0.981509 -2.125,-1.8125 -0.21235,-0.216581 -0.33922,-0.38837 -0.5312,-0.59375 z m 6.25,0.03125 c -0.63499,0.04833 -0.66188,0.189152 -0.53125,0.625 0.30084,1.003866 1.50918,3.617196 2.3125,4.96875 1.09521,1.842654 1.4101,1.457057 1.4375,-1.8125 0.007,-0.882705 0.012,-1.477303 0,-2 -0.0274,3.269557 -0.34229,3.655154 -1.4375,1.8125 -0.54802,-0.922022 -1.26949,-2.403364 -1.78125,-3.59375 z m 9.6875,0.03125 c -0.61193,1.415275 -1.48528,3.269105 -1.96875,3.9375 -0.3353,0.463553 -0.75783,0.84375 -0.90625,0.84375 -0.15179,0 -0.28125,-1.513456 -0.28125,-3.4375 l 0,2 c 0,1.924044 0.12946,3.4375 0.28125,3.4375 0.14842,0 0.57095,-0.380197 0.90625,-0.84375 0.74904,-1.035554 2.59375,-5.029061 2.59375,-5.59375 0,-0.189325 -0.18946,-0.285856 -0.625,-0.34375 z"
       style="opacity:0.2;color:#000000;fill:#000000;fill-opacity:1;fill-rule:nonzero;stroke:none;stroke-width:40;marker:none;visibility:visible;display:inline;overflow:visible;enable-background:accumulate" />
    <path
       inkscape:connector-curvature="0"
       id="path10675"
       d="m 126.39054,24.34375 c -10.2685,0 -18.59375,8.203977 -18.59375,18.3125 0,0.16858 0.0267,0.332527 0.0313,0.5 0.2713,-9.875454 8.46525,-17.8125 18.5625,-17.8125 10.09725,0 18.2912,7.937046 18.5625,17.8125 0.005,-0.167473 0.0313,-0.33142 0.0313,-0.5 0,-10.108523 -8.32525,-18.3125 -18.59375,-18.3125 z m -8.09375,7.3125 c -0.15848,0.420548 -0.34819,0.955605 -0.59375,1.65625 l -0.59375,1.65625 -1.53125,0 c -0.35943,0 -0.67092,-0.06123 -0.9375,-0.09375 -0.38294,0.411129 -0.65625,0.74189 -0.65625,0.84375 0,0.127436 0.7323,0.25 1.59375,0.25 l 1.53125,0 0.59375,-1.65625 c 0.31599,-0.901614 0.66737,-1.850596 0.78125,-2.125 0.1327,-0.319782 0.054,-0.517653 -0.1875,-0.53125 z m 16.5625,0.3125 c -0.22852,0.02565 -0.27882,0.191331 -0.15625,0.5 0.10899,0.274405 0.39683,1.145538 0.65625,1.96875 l 0.46875,1.53125 1.375,0 c 0.79652,0 1.40625,-0.168055 1.40625,-0.34375 0,-0.118407 -0.18983,-0.382798 -0.5,-0.75 -0.24328,0.04651 -0.54981,0.09375 -0.90625,0.09375 l -1.375,0 -0.46875,-1.53125 c -0.19395,-0.615449 -0.35479,-1.064452 -0.5,-1.46875 z m -29.9375,1.21875 c -1.96267,3.253889 -4.13369,6.399754 -6.40625,9.34375 0.12012,0.168737 0.22371,0.361235 0.34375,0.53125 2.14496,-2.810675 4.20192,-5.79036 6.0625,-8.875 0.68521,0.642396 1.47243,1.168408 2.28125,1.65625 l 0.5,-0.6875 c -0.98133,-0.568139 -1.95488,-1.194014 -2.78125,-1.96875 z m 42.9375,0 c -0.82638,0.774736 -1.79992,1.400611 -2.78125,1.96875 l 0.5,0.6875 c 0.80882,-0.487842 1.59603,-1.013854 2.28125,-1.65625 1.86058,3.08464 3.91755,6.064325 6.0625,8.875 0.12004,-0.170015 0.22363,-0.362513 0.34375,-0.53125 -2.27255,-2.943996 -4.44358,-6.089861 -6.40625,-9.34375 z m -16.15625,1.65625 c -0.31895,0.06818 -0.90623,0.125 -1.625,0.125 l -1.875,0 -0.0313,1 1.90625,0 c 1.04056,0 1.875,-0.106391 1.875,-0.21875 0,-0.130824 -0.0923,-0.487722 -0.25,-0.90625 z m -10.40625,0.0625 c -0.19999,0.488598 -0.34375,0.856267 -0.34375,0.9375 0,0.05137 0.83966,0.125 1.875,0.125 l 1.90625,0 0,-1 -1.90625,0 c -0.70007,0 -1.20523,-0.03315 -1.53125,-0.0625 z m -4.96875,4.90625 c -0.0503,0.395884 -0.0868,1.282443 -0.0937,2.3125 0.0176,-0.684507 0.0539,-1.233547 0.0937,-1.46875 l 0.125,-0.84375 -0.125,0 z m 16.9375,3.3125 c -0.0262,1.688183 -0.23094,3.18996 -0.5625,3.28125 -0.18779,0.05171 -1.25145,0.04607 -2.40625,0 l -2.125,-0.0625 0,1 2.125,0.0625 c 1.1548,0.04607 2.21846,0.05171 2.40625,0 0.39673,-0.109233 0.63372,-2.225291 0.5625,-4.28125 z m -30.5625,0.125 -0.34375,0.5 4.9375,6.875 0.5,-0.3125 -5.09375,-7.0625 z m 47.375,0 -5.09375,7.0625 0.5,0.3125 4.9375,-6.875 -0.34375,-0.5 z m -38.3125,0.125 c -0.009,1.59031 0.11279,3.288372 0.34375,3.65625 0.11074,0.176398 1.06278,0.3125 2.1875,0.3125 l 1.96875,0 0,-1 -1.96875,0 c -1.12472,0 -2.07676,-0.136102 -2.1875,-0.3125 -0.18111,-0.28847 -0.30574,-1.413701 -0.34375,-2.65625 z m 8.0625,0.03125 c -0.0206,1.680192 0.0192,3.486346 0.15625,3.71875 0.0729,0.123743 1.19916,0.20159 2.5,0.15625 l 2.375,-0.0625 -0.0313,-1 -2.34375,0.0625 c -1.30084,0.04534 -2.42707,-0.03251 -2.5,-0.15625 -0.1096,-0.185923 -0.14564,-1.379774 -0.15625,-2.71875 z m 21.1875,0.0625 c -0.0151,1.098088 -0.04,2.108054 -0.15625,2.40625 -0.14336,0.367739 -0.60605,0.468747 -2.15625,0.46875 l -1.96875,0 0,1 1.96875,0 c 1.5502,-3e-6 2.01289,-0.101011 2.15625,-0.46875 0.15253,-0.391331 0.17765,-1.924683 0.15625,-3.40625 z m -2.09375,7.5625 -0.5625,0.03125 c -0.67637,1.00015 -3.13698,3.332401 -3.75,3.53125 -0.0556,0.140735 -0.19095,0.464339 -0.21875,0.53125 -0.11789,0.283655 -0.044,0.5 0.125,0.5 0.48278,0 3.49562,-2.849316 3.96875,-3.75 l 0.4375,-0.84375 z m -24.5,0.125 c -0.27019,0.05515 -0.4375,0.124624 -0.4375,0.21875 0,0.17205 0.87601,1.198878 1.9375,2.28125 1.06148,1.08237 2.18515,1.96875 2.46875,1.96875 0.43569,0 0.44372,-0.09505 0.0937,-1 -0.0369,0.0016 -0.0484,0 -0.0937,0 -0.2836,0 -1.40727,-0.88638 -2.46875,-1.96875 -0.54771,-0.558482 -1.02108,-1.082293 -1.375,-1.5 -0.0367,0.0061 -0.0917,-0.0068 -0.125,0 z m 6.78125,0 c -0.21564,0.08611 -0.18643,0.253256 -0.0937,0.5625 0.30084,1.003866 1.50918,3.617196 2.3125,4.96875 1.09521,1.842654 1.4101,1.457057 1.4375,-1.8125 0.004,-0.441352 -0.002,-0.654501 0,-1 -0.0274,3.269557 -0.34229,3.655154 -1.4375,1.8125 -0.71597,-1.204596 -1.72404,-3.351629 -2.15625,-4.53125 -0.014,0.0044 -0.0502,-0.0049 -0.0625,0 z m 10.53125,0.0625 c -0.50689,1.350906 -1.77863,4.019266 -2.375,4.84375 -0.3353,0.463553 -0.75783,0.84375 -0.90625,0.84375 -0.15179,0 -0.28125,-1.513456 -0.28125,-3.4375 l 0,1 c 0,1.924044 0.12946,3.4375 0.28125,3.4375 0.14842,0 0.57095,-0.380197 0.90625,-0.84375 0.74904,-1.035554 2.59375,-5.029061 2.59375,-5.59375 0,-0.111983 -0.0837,-0.187882 -0.21875,-0.25 z"
       style="opacity:0.3;color:#000000;fill:#000000;fill-opacity:1;fill-rule:nonzero;stroke:none;stroke-width:40;marker:none;visibility:visible;display:inline;overflow:visible;enable-background:accumulate" />
    <path
       style="opacity:0.5;color:#000000;fill:#000000;fill-opacity:1;fill-rule:nonzero;stroke:none;stroke-width:40;marker:none;visibility:visible;display:inline;overflow:visible;enable-background:accumulate"
       d="m 126.39054,23.34375 c -10.2685,0 -18.59375,8.203977 -18.59375,18.3125 0,0.16858 0.0267,0.332527 0.0313,0.5 0.2713,-9.875454 8.46525,-17.8125 18.5625,-17.8125 10.09725,0 18.2912,7.937046 18.5625,17.8125 0.005,-0.167473 0.0313,-0.33142 0.0313,-0.5 0,-10.108523 -8.32525,-18.3125 -18.59375,-18.3125 z m -8.09375,7.3125 c -0.15848,0.420548 -0.34819,0.955605 -0.59375,1.65625 l -0.59375,1.65625 -1.53125,0 c -0.35943,0 -0.67092,-0.06123 -0.9375,-0.09375 -0.38294,0.411129 -0.65625,0.74189 -0.65625,0.84375 0,0.127436 0.7323,0.25 1.59375,0.25 l 1.53125,0 0.59375,-1.65625 c 0.31599,-0.901614 0.66737,-1.850596 0.78125,-2.125 0.1327,-0.319782 0.054,-0.517653 -0.1875,-0.53125 z m 16.5625,0.3125 c -0.22852,0.02565 -0.27882,0.191331 -0.15625,0.5 0.10899,0.274405 0.39683,1.145538 0.65625,1.96875 l 0.46875,1.53125 1.375,0 c 0.79652,0 1.40625,-0.168055 1.40625,-0.34375 0,-0.118407 -0.18983,-0.382798 -0.5,-0.75 -0.24328,0.04651 -0.54981,0.09375 -0.90625,0.09375 l -1.375,0 -0.46875,-1.53125 c -0.19395,-0.615449 -0.35479,-1.064452 -0.5,-1.46875 z m -29.9375,1.21875 c -1.96267,3.253889 -4.13369,6.399754 -6.40625,9.34375 0.12012,0.168737 0.22371,0.361235 0.34375,0.53125 2.14496,-2.810675 4.20192,-5.79036 6.0625,-8.875 0.68521,0.642396 1.47243,1.168408 2.28125,1.65625 l 0.5,-0.6875 c -0.98133,-0.568139 -1.95488,-1.194014 -2.78125,-1.96875 z m 42.9375,0 c -0.82638,0.774736 -1.79992,1.400611 -2.78125,1.96875 l 0.5,0.6875 c 0.80882,-0.487842 1.59603,-1.013854 2.28125,-1.65625 1.86058,3.08464 3.91755,6.064325 6.0625,8.875 0.12004,-0.170015 0.22363,-0.362513 0.34375,-0.53125 -2.27255,-2.943996 -4.44358,-6.089861 -6.40625,-9.34375 z m -16.15625,1.65625 c -0.31895,0.06818 -0.90623,0.125 -1.625,0.125 l -1.875,0 -0.0313,1 1.90625,0 c 1.04056,0 1.875,-0.106391 1.875,-0.21875 0,-0.130824 -0.0923,-0.487722 -0.25,-0.90625 z m -10.40625,0.0625 c -0.19999,0.488598 -0.34375,0.856267 -0.34375,0.9375 0,0.05137 0.83966,0.125 1.875,0.125 l 1.90625,0 0,-1 -1.90625,0 c -0.70007,0 -1.20523,-0.03315 -1.53125,-0.0625 z m -4.96875,4.90625 c -0.0503,0.395884 -0.0868,1.282443 -0.0937,2.3125 0.0176,-0.684507 0.0539,-1.233547 0.0937,-1.46875 l 0.125,-0.84375 -0.125,0 z m 16.9375,3.3125 c -0.0262,1.688183 -0.23094,3.18996 -0.5625,3.28125 -0.18779,0.05171 -1.25145,0.04607 -2.40625,0 l -2.125,-0.0625 0,1 2.125,0.0625 c 1.1548,0.04607 2.21846,0.05171 2.40625,0 0.39673,-0.109233 0.63372,-2.225291 0.5625,-4.28125 z m -30.5625,0.125 -0.34375,0.5 4.9375,6.875 0.5,-0.3125 -5.09375,-7.0625 z m 47.375,0 -5.09375,7.0625 0.5,0.3125 4.9375,-6.875 -0.34375,-0.5 z m -38.3125,0.125 c -0.009,1.59031 0.11279,3.288372 0.34375,3.65625 0.11074,0.176398 1.06278,0.3125 2.1875,0.3125 l 1.96875,0 0,-1 -1.96875,0 c -1.12472,0 -2.07676,-0.136102 -2.1875,-0.3125 -0.18111,-0.28847 -0.30574,-1.413701 -0.34375,-2.65625 z m 8.0625,0.03125 c -0.0206,1.680192 0.0192,3.486346 0.15625,3.71875 0.0729,0.123743 1.19916,0.20159 2.5,0.15625 l 2.375,-0.0625 -0.0313,-1 -2.34375,0.0625 c -1.30084,0.04534 -2.42707,-0.03251 -2.5,-0.15625 -0.1096,-0.185923 -0.14564,-1.379774 -0.15625,-2.71875 z m 21.1875,0.0625 c -0.0151,1.098088 -0.04,2.108054 -0.15625,2.40625 -0.14336,0.367739 -0.60605,0.468747 -2.15625,0.46875 l -1.96875,0 0,1 1.96875,0 c 1.5502,-3e-6 2.01289,-0.101011 2.15625,-0.46875 0.15253,-0.391331 0.17765,-1.924683 0.15625,-3.40625 z m -2.09375,7.5625 -0.5625,0.03125 c -0.67637,1.00015 -3.13698,3.332401 -3.75,3.53125 -0.0556,0.140735 -0.19095,0.464339 -0.21875,0.53125 -0.11789,0.283655 -0.044,0.5 0.125,0.5 0.48278,0 3.49562,-2.849316 3.96875,-3.75 l 0.4375,-0.84375 z m -24.5,0.125 c -0.27019,0.05515 -0.4375,0.124624 -0.4375,0.21875 0,0.17205 0.87601,1.198878 1.9375,2.28125 1.06148,1.08237 2.18515,1.96875 2.46875,1.96875 0.43569,0 0.44372,-0.09505 0.0937,-1 -0.0369,0.0016 -0.0484,0 -0.0937,0 -0.2836,0 -1.40727,-0.88638 -2.46875,-1.96875 -0.54771,-0.558482 -1.02108,-1.082293 -1.375,-1.5 -0.0367,0.0061 -0.0917,-0.0068 -0.125,0 z m 6.78125,0 c -0.21564,0.08611 -0.18643,0.253256 -0.0937,0.5625 0.30084,1.003866 1.50918,3.617196 2.3125,4.96875 1.09521,1.842654 1.4101,1.457057 1.4375,-1.8125 0.004,-0.441352 -0.002,-0.654501 0,-1 -0.0274,3.269557 -0.34229,3.655154 -1.4375,1.8125 -0.71597,-1.204596 -1.72404,-3.351629 -2.15625,-4.53125 -0.014,0.0044 -0.0502,-0.0049 -0.0625,0 z m 10.53125,0.0625 c -0.50689,1.350906 -1.77863,4.019266 -2.375,4.84375 -0.3353,0.463553 -0.75783,0.84375 -0.90625,0.84375 -0.15179,0 -0.28125,-1.513456 -0.28125,-3.4375 l 0,1 c 0,1.924044 0.12946,3.4375 0.28125,3.4375 0.14842,0 0.57095,-0.380197 0.90625,-0.84375 0.74904,-1.035554 2.59375,-5.029061 2.59375,-5.59375 0,-0.111983 -0.0837,-0.187882 -0.21875,-0.25 z"
       id="path10686"
       inkscape:connector-curvature="0" />
    <path
       style="opacity:0.85;color:#000000;fill:#ffffff;fill-opacity:1;fill-rule:nonzero;stroke:none;stroke-width:40;marker:none;visibility:visible;display:inline;overflow:visible;enable-background:accumulate"
       d="m 124.26554,27.375 c -0.23352,-0.0086 -0.56685,0.471882 -1.0625,1.375 -0.63274,1.152897 -2.25,4.806474 -2.25,5.09375 0,0.01664 0.18762,0.04845 0.34375,0.0625 0.50725,-1.239295 1.45243,-3.329359 1.90625,-4.15625 0.49565,-0.903118 0.82898,-1.38365 1.0625,-1.375 0.3413,0.01265 0.46875,1.075404 0.46875,3.3125 l 0,-1 c 0,-2.237096 -0.12745,-3.29985 -0.46875,-3.3125 z m 4.5,0.15625 c -0.34546,0.02424 -0.4451,1.039039 -0.5,3.1875 l -0.0937,3.25 0.0313,0 0.0625,-2.25 c 0.0549,-2.148461 0.15454,-3.163265 0.5,-3.1875 0.26868,-0.01885 0.67656,0.58573 1.28125,1.71875 0.60858,1.140278 1.29429,2.63319 1.65625,3.59375 0.14279,-0.03052 0.25,-0.059 0.25,-0.09375 0,-0.431078 -1.0325,-2.862889 -1.90625,-4.5 -0.60469,-1.13302 -1.01257,-1.7376 -1.28125,-1.71875 z m -10.5,2.125 c -0.42295,0 -4.28125,3.664116 -4.28125,4.0625 0,0.07426 0.28391,0.110824 0.65625,0.15625 1.11478,-1.196843 3.31019,-3.21875 3.625,-3.21875 0.0109,0 0.0211,-5.75e-4 0.0313,0 0.0455,-0.120628 0.16212,-0.407585 0.1875,-0.46875 0.13831,-0.333294 0.0496,-0.53125 -0.21875,-0.53125 z m 16.65625,0.3125 c -0.2836,0 -0.35214,0.164095 -0.21875,0.5 0.0275,0.06925 0.10723,0.363517 0.15625,0.5 0.0202,-0.0023 0.0395,0 0.0625,0 0.35619,0 2.257,1.804645 3.1875,2.90625 0.30036,-0.05743 0.5,-0.152929 0.5,-0.25 0,-0.473629 -3.21258,-3.65625 -3.6875,-3.65625 z m -27.71875,4.875 -4.84375,6.90625 0.34375,0.5 5,-7.09375 c -0.16763,-0.09705 -0.33338,-0.211999 -0.5,-0.3125 z m 38.375,0 c -0.16662,0.100501 -0.33237,0.215451 -0.5,0.3125 l 5,7.09375 0.34375,-0.5 -4.84375,-6.90625 z m -33.3125,2.78125 -0.3125,1.21875 c -0.17783,0.644452 -0.22964,2.153827 -0.1875,3.53125 0.006,-1.039121 0.0538,-2.046827 0.1875,-2.53125 l 0.3125,-1.21875 2.09375,0.09375 1.96875,0.09375 c 0.004,-0.03162 -0.004,-0.13133 0,-0.15625 l 0.125,-0.84375 -2.09375,-0.09375 -2.09375,-0.09375 z m 15.90625,0 0,1 2.40625,0.09375 2.40625,0.09375 0.21875,1.96875 c 0.05,0.427154 0.0467,0.888176 0.0625,1.34375 0.0121,-0.779424 0.0245,-1.599941 -0.0625,-2.34375 l -0.21875,-1.96875 -2.40625,-0.09375 -2.40625,-0.09375 z m -8.03125,0.03125 -0.1875,1.25 c -0.0777,0.510211 -0.11261,1.491885 -0.125,2.5 0.0223,-0.618049 0.0732,-1.159859 0.125,-1.5 l 0.1875,-1.25 2.28125,0 2.3125,0 0,-1 -2.3125,0 -2.28125,0 z m 16.59375,0 0,1 1.9375,0 1.9375,0 0.25,1.0625 c 0.11462,0.532057 0.14009,1.631102 0.15625,2.75 0.0197,-1.431266 -0.006,-3.050272 -0.15625,-3.75 l -0.25,-1.0625 -1.9375,0 -1.9375,0 z m -11.96875,2.71875 0,1 c 0.0266,1.489622 0.0492,3.193241 0.0625,3.78125 l 0,0.0625 0.0313,0 -0.0313,-1.0625 c -0.0133,-0.588009 -0.0359,-2.291628 -0.0625,-3.78125 z m -25.90625,1.6875 c -0.11769,0.154217 -0.22554,0.31562 -0.34375,0.46875 2.16926,3.047293 4.29819,6.308611 6.3125,9.5625 l 2.96875,-1.78125 -0.5,-0.6875 -2.46875,1.46875 c -1.90277,-3.073713 -3.92101,-6.13088 -5.96875,-9.03125 z m 55.0625,0 c -2.04774,2.90037 -4.06597,5.957537 -5.96875,9.03125 l -2.46875,-1.46875 -0.5,0.6875 2.96875,1.78125 c 2.01432,-3.253889 4.14324,-6.515207 6.3125,-9.5625 -0.11821,-0.15313 -0.22606,-0.314533 -0.34375,-0.46875 z m -46.09375,0.09375 c -0.005,0.167487 -0.0313,0.33142 -0.0313,0.5 0,10.108523 8.32525,18.28125 18.59375,18.28125 10.2685,0 18.59375,-8.172728 18.59375,-18.28125 0,-0.16858 -0.0266,-0.332513 -0.0313,-0.5 -0.2713,9.874672 -8.46525,17.78125 -18.5625,17.78125 -10.09725,0 -18.2912,-7.906577 -18.5625,-17.78125 z m 31.09375,6.875 -1.5,0.09375 -1.53125,0.09375 -0.625,1.71875 c -0.34829,0.940816 -0.76098,1.913096 -0.875,2.1875 -0.11789,0.283655 -0.044,0.5 0.125,0.5 0.0193,0 0.0666,-0.02245 0.0937,-0.03125 0.17233,-0.436421 0.39289,-0.944845 0.65625,-1.65625 l 0.625,-1.71875 1.53125,-0.09375 0.9375,-0.0625 c 0.0427,-0.06313 0.098,-0.136161 0.125,-0.1875 l 0.4375,-0.84375 z m -23.375,0.03125 c -0.93742,0 -1.5625,0.124248 -1.5625,0.3125 0,0.08328 0.2305,0.389415 0.5625,0.78125 0.26176,-0.04318 0.58898,-0.09375 1,-0.09375 1.4919,0 1.5681,0.01882 1.90625,0.90625 0.19418,0.509608 0.61209,1.567688 0.90625,2.3125 0.0582,0.14743 0.0799,0.227133 0.125,0.34375 0.36297,-0.01609 0.338,-0.17148 -0.125,-1.34375 -0.29416,-0.744812 -0.71207,-1.802892 -0.90625,-2.3125 -0.33815,-0.887429 -0.41435,-0.90625 -1.90625,-0.90625 z m 6.1875,0 c -0.76658,0.03889 -0.76403,0.192383 -0.625,0.65625 0.0327,0.109153 0.10352,0.293589 0.15625,0.4375 0.23064,-0.07309 0.68199,-0.09375 1.53125,-0.09375 1.66392,0 2.00157,-0.07194 2.0625,1.5625 0.006,-2.50607 -0.15207,-2.5625 -2.0625,-2.5625 -0.45032,0 -0.80697,-0.01296 -1.0625,0 z m 6.4375,0 0,1 1.90625,0 c 0.9363,0 1.40918,0.04262 1.65625,0.15625 0.12976,-0.345836 0.21875,-0.634903 0.21875,-0.75 0,-0.316829 -0.42686,-0.40625 -1.875,-0.40625 l -1.90625,0 z"
       id="path10693"
       inkscape:connector-curvature="0" />
  </g>
  <g
     id="g3179"
     transform="translate(-100,0)">
    <path
       inkscape:connector-curvature="0"
       id="path3157"
       d="m 112,5.5 c -2.7873,0 -5,2.2127028 -5,5 l 0,56.3125 c 1.07066,1.628779 2.89693,2.71875 5,2.71875 l 68,0 0,-25.21875 0,-5 0,-2 6.875,-4.125 c 0.86852,-0.47064 1.58604,-1.147137 2.125,-1.96875 L 189,10.5 c 0,-2.7872972 -2.2127,-5 -5,-5 l -72,0 z m 77,32.71875 c -0.13474,0.205403 -0.28087,0.407435 -0.4375,0.59375 0.16108,-0.189117 0.30071,-0.385228 0.4375,-0.59375 z"
       style="opacity:0.1;fill:url(#linearGradient3196);fill-opacity:1;fill-rule:nonzero;stroke:none;display:inline" />
    <path
       style="opacity:0.2;fill:url(#linearGradient3198);fill-opacity:1;fill-rule:nonzero;stroke:none"
       d="m 106,73.51565 0,2 c 0,3.324 2.676,6 6,6 l 62,0 c 3.324,0 6,-2.676 6,-6 l 0,-2 c 0,3.324 -2.676,6 -6,6 l -62,0 c -3.324,0 -6,-2.676 -6,-6 z"
       id="path3163"
       inkscape:connector-curvature="0"
       sodipodi:nodetypes="csssscssc" />
    <path
       id="path3167"
       d="m 190,29.90625 c 0,2.28525 -1.25434,4.267563 -3.125,5.28125 l -6.875,4.125 0,3 6.875,-4.125 C 188.74566,37.173813 190,35.1915 190,32.90625 l 0,-3 z"
       style="opacity:0.45;fill:#000000;fill-opacity:1;fill-rule:nonzero;stroke:none;display:inline"
       inkscape:connector-curvature="0" />
    <path
       inkscape:connector-curvature="0"
       id="path3169"
       d="m 190,27.90625 c 0,2.28525 -1.25434,4.267563 -3.125,5.28125 l -6.875,4.125 0,2 6.875,-4.125 C 188.74566,34.173813 190,32.1915 190,29.90625 l 0,-2 z"
       style="opacity:0.2;fill:#ffffff;fill-opacity:1;fill-rule:nonzero;stroke:none;display:inline" />
    <path
       style="opacity:0.05;fill:#ffffff;fill-opacity:1;fill-rule:nonzero;stroke:none;display:inline"
       d="m 190,27.90625 c 0,2.28525 -1.25434,4.267563 -3.125,5.28125 l -6.875,4.125 0,2 6.875,-4.125 C 188.74566,34.173813 190,32.1915 190,29.90625 l 0,-2 z"
       id="path3171"
       inkscape:connector-curvature="0" />
    <path
       inkscape:connector-curvature="0"
       id="path3198"
       d="m 106,75.5 0,2 c 0,3.324 2.676,6 6,6 l 62,0 c 3.324,0 6,-2.676 6,-6 l 0,-2 c 0,3.324 -2.676,6 -6,6 l -62,0 c -3.324,0 -6,-2.676 -6,-6 z"
       style="opacity:0.25;fill:#000000;fill-opacity:1;fill-rule:nonzero;stroke:none" />
    <path
       sodipodi:nodetypes="csssscssc"
       inkscape:connector-curvature="0"
       id="path3225"
       d="m 106,80.5 0,2 c 0,3.324 2.676,6 6,6 l 72,0 c 3.324,0 6,-2.676 6,-6 l 0,-2 c 0,3.324 -2.676,6 -6,6 l -72,0 c -3.324,0 -6,-2.676 -6,-6 z"
       style="opacity:0.25;fill:#000000;fill-opacity:1;fill-rule:nonzero;stroke:none" />
    <path
       sodipodi:nodetypes="csssscssc"
       inkscape:connector-curvature="0"
       id="path3227"
       d="m 106,80.5 0,2 c 0,3.324 2.676,6 6,6 l 72,0 c 3.324,0 6,-2.676 6,-6 l 0,-2 c 0,3.324 -2.676,6 -6,6 l -72,0 c -3.324,0 -6,-2.676 -6,-6 z"
       style="opacity:0.1;fill:url(#linearGradient3200);fill-opacity:1;fill-rule:nonzero;stroke:none" />
    <path
       id="path4116"
       d="m 190,79.53125 c 0,3.324 -2.676,6 -6,6 L 177.28125,85.5 c -0.94168,0.62023 -2.06399,1 -3.28125,1 l 10,0.03125 c 3.324,0 6,-2.676 6,-6 l 0,-1 z"
       style="opacity:0.15;fill:#ffffff;fill-opacity:1;fill-rule:nonzero;stroke:none"
       inkscape:connector-curvature="0" />
    <path
       inkscape:connector-curvature="0"
       id="path3316"
       d="m 112,4.5 c -3.324,0 -6,2.6759996 -6,6 l 0,15 1,0 0,-15 c 0,-2.7872972 2.2127,-5 5,-5 l 72,0 c 2.7873,0 5,2.2127028 5,5 l 0,15 1,0 0,-15 c 0,-3.3240004 -2.676,-6 -6,-6 l -72,0 z"
       style="opacity:0.45;fill:url(#radialGradient3202);fill-opacity:1;fill-rule:nonzero;stroke:none;display:inline" />
    <path
       inkscape:connector-curvature="0"
       id="path4105"
       d="m 190,32.90625 c 0,2.28525 -1.25434,4.267563 -3.125,5.28125 L 180,42.3125 180,80.5 c 0,3.324 -2.676,6 -6,6 l 2,0 c 3.324,0 6,-2.676 6,-6 l 0,-38.1875 6.875,-4.125 c 0.40921,-0.221744 0.78146,-0.505024 1.125,-0.8125 l 0,-4.46875 z"
       style="opacity:0.1;fill:#000000;fill-opacity:1;fill-rule:nonzero;stroke:none;display:inline" />
    <path
       inkscape:connector-curvature="0"
       id="path4117"
       d="m 190,37.375 c -0.34354,0.307476 -0.71579,0.590756 -1.125,0.8125 L 182,42.3125 182,80.5 c 0,3.324 -2.676,6 -6,6 l 2,0 c 3.324,0 6,-2.676 6,-6 l 0,-38.1875 6,-3.59375 0,-1.34375 z"
       style="opacity:0.05;fill:#000000;fill-opacity:1;fill-rule:nonzero;stroke:none;display:inline" />
    <path
       inkscape:connector-curvature="0"
       id="path3076"
       d="m 106,75.5 0,2 c 0,3.324 2.676,6 6,6 l 62,0 c 3.324,0 6,-2.676 6,-6 l 0,-2 c 0,3.324 -2.676,6 -6,6 l -62,0 c -3.324,0 -6,-2.676 -6,-6 z"
       style="opacity:0.1;fill:url(#linearGradient3204);fill-opacity:1;fill-rule:nonzero;stroke:none" />
    <path
       inkscape:connector-curvature="0"
       id="path3089"
       d="m 106,77.5 0,1 0,1 0,1 c 0,3.324 2.676,6 6,6 l 62,0 c 3.324,0 6,-2.676 6,-6 l 0,-1 0,-1 0,-1 c 0,3.324 -2.676,6 -6,6 l -62,0 c -3.324,0 -6,-2.676 -6,-6 z"
       style="opacity:0.65;fill:url(#linearGradient3206);fill-opacity:1;fill-rule:nonzero;stroke:none" />
    <path
       inkscape:connector-curvature="0"
       id="path4122"
       d="m 106,79.5 0,1 c 0,3.324 2.676,6 6,6 l 62,0 c 1.23052,0 2.36247,-0.369434 3.3125,-1 L 112,85.5 c -3.324,0 -6,-2.676 -6,-6 z"
       style="opacity:0.15;fill:#ffffff;fill-opacity:1;fill-rule:nonzero;stroke:none" />
  </g>
</svg>
