<?xml version="1.0" encoding="UTF-8" standalone="no"?>
<!-- Created with Inkscape (http://www.inkscape.org/) -->

<svg
   xmlns:dc="http://purl.org/dc/elements/1.1/"
   xmlns:cc="http://creativecommons.org/ns#"
   xmlns:rdf="http://www.w3.org/1999/02/22-rdf-syntax-ns#"
   xmlns:svg="http://www.w3.org/2000/svg"
   xmlns="http://www.w3.org/2000/svg"
   xmlns:xlink="http://www.w3.org/1999/xlink"
   xmlns:sodipodi="http://sodipodi.sourceforge.net/DTD/sodipodi-0.dtd"
   xmlns:inkscape="http://www.inkscape.org/namespaces/inkscape"
   version="1.0"
   width="96"
   height="96"
   id="svg2408"
   inkscape:version="0.48.2 r9819"
   sodipodi:docname="folder-image-people.svg">
  <metadata
     id="metadata72">
    <rdf:RDF>
      <cc:Work
         rdf:about="">
        <dc:format>image/svg+xml</dc:format>
        <dc:type
           rdf:resource="http://purl.org/dc/dcmitype/StillImage" />
        <dc:title />
      </cc:Work>
    </rdf:RDF>
  </metadata>
  <sodipodi:namedview
     pagecolor="#ffffff"
     bordercolor="#666666"
     borderopacity="1"
     objecttolerance="10"
     gridtolerance="10"
     guidetolerance="10"
     inkscape:pageopacity="0"
     inkscape:pageshadow="2"
     inkscape:window-width="1238"
     inkscape:window-height="735"
     id="namedview70"
     showgrid="false"
     inkscape:zoom="2.9595058"
     inkscape:cx="55.186473"
     inkscape:cy="38.429013"
     inkscape:window-x="10"
     inkscape:window-y="0"
     inkscape:window-maximized="0"
     inkscape:current-layer="svg2408"
     inkscape:object-paths="true"
     inkscape:snap-intersection-paths="true"
     inkscape:object-nodes="true"
     inkscape:snap-smooth-nodes="true"
     inkscape:snap-midpoints="true"
     inkscape:snap-object-midpoints="true"
     inkscape:snap-center="true"
     inkscape:snap-bbox="true"
     inkscape:bbox-paths="true"
     inkscape:bbox-nodes="true"
     inkscape:snap-bbox-edge-midpoints="true"
     inkscape:snap-bbox-midpoints="true"
     showguides="true"
     inkscape:guide-bbox="true"
     inkscape:snap-global="false" />
  <defs
     id="defs2410">
    <linearGradient
       inkscape:collect="always"
       id="linearGradient3874">
      <stop
         style="stop-color:#000000;stop-opacity:1;"
         offset="0"
         id="stop3876" />
      <stop
         style="stop-color:#000000;stop-opacity:0;"
         offset="1"
         id="stop3878" />
    </linearGradient>
    <linearGradient
       id="linearGradient4091">
      <stop
         style="stop-color:#ffffff;stop-opacity:1;"
         offset="0"
         id="stop4093" />
      <stop
         id="stop4099"
         offset="0.80000001"
         style="stop-color:#ffffff;stop-opacity:1;" />
      <stop
         style="stop-color:#ffffff;stop-opacity:0;"
         offset="1"
         id="stop4095" />
    </linearGradient>
    <linearGradient
       id="linearGradient4188">
      <stop
         style="stop-color:#ffffff;stop-opacity:0;"
         offset="0"
         id="stop4190" />
      <stop
         id="stop4198"
         offset="0.15000001"
         style="stop-color:#ffffff;stop-opacity:1;" />
      <stop
         id="stop4196"
         offset="0.85000002"
         style="stop-color:#ffffff;stop-opacity:1;" />
      <stop
         style="stop-color:#ffffff;stop-opacity:0;"
         offset="1"
         id="stop4192" />
    </linearGradient>
    <linearGradient
       inkscape:collect="always"
       id="linearGradient3888">
      <stop
         style="stop-color:#ffffff;stop-opacity:1;"
         offset="0"
         id="stop3890" />
      <stop
         style="stop-color:#ffffff;stop-opacity:0;"
         offset="1"
         id="stop3892" />
    </linearGradient>
    <linearGradient
       x1="45.447727"
       y1="92.539597"
       x2="45.447727"
       y2="7.0165396"
       id="ButtonShadow"
       gradientUnits="userSpaceOnUse"
       gradientTransform="scale(1.0058652,0.994169)">
      <stop
         id="stop3750"
         style="stop-color:#000000;stop-opacity:1"
         offset="0" />
      <stop
         id="stop3752"
         style="stop-color:#000000;stop-opacity:0.58823532"
         offset="1" />
    </linearGradient>
    <filter
       color-interpolation-filters="sRGB"
       id="filter3174">
      <feGaussianBlur
         id="feGaussianBlur3176"
         stdDeviation="1.71" />
    </filter>
    <linearGradient
       inkscape:collect="always"
       xlink:href="#gradient4-1"
       id="linearGradient3050-6"
       gradientUnits="userSpaceOnUse"
       spreadMethod="pad"
       x1="32.251045"
       y1="6.1317058"
       x2="32.251045"
       y2="90.238678"
       gradientTransform="translate(6,-89.50005)" />
    <linearGradient
       id="gradient4-1"
       gradientUnits="userSpaceOnUse"
       x1="32.251045"
       y1="6.1317058"
       x2="32.251045"
       y2="90.238678"
       spreadMethod="pad">
      <stop
         stop-color="#000000"
         offset="0.00000000000"
         stop-opacity="1.00000000000"
         id="stop27-0" />
      <stop
         stop-color="#000000"
         offset="1.00000000000"
         stop-opacity="0.58823529412"
         id="stop29-6" />
    </linearGradient>
    <linearGradient
       inkscape:collect="always"
       xlink:href="#gradient3-2"
       id="linearGradient3053-3"
       gradientUnits="userSpaceOnUse"
       gradientTransform="matrix(1.0058652,0,0,0.99416905,5,-90.50005)"
       spreadMethod="pad"
       x1="32.062981"
       y1="6.1676679"
       x2="32.062981"
       y2="90.767815" />
    <linearGradient
       id="gradient3-2"
       gradientTransform="scale(1.0058652,0.99416905)"
       gradientUnits="userSpaceOnUse"
       x1="32.062981"
       y1="6.1676679"
       x2="32.062981"
       y2="90.767815"
       spreadMethod="pad">
      <stop
         stop-color="#000000"
         offset="0.00000000000"
         stop-opacity="1.00000000000"
         id="stop22-0" />
      <stop
         stop-color="#000000"
         offset="1.00000000000"
         stop-opacity="0.58823529412"
         id="stop24-6" />
    </linearGradient>
    <linearGradient
       inkscape:collect="always"
       xlink:href="#gradient2-5"
       id="linearGradient3056-1"
       gradientUnits="userSpaceOnUse"
       gradientTransform="matrix(1.0057307,0,0,-0.99430195,4,91.50005)"
       spreadMethod="pad"
       x1="32.067265"
       y1="6.1668468"
       x2="32.067265"
       y2="90.756142" />
    <linearGradient
       id="gradient2-5"
       gradientTransform="scale(1.0057307,0.99430195)"
       gradientUnits="userSpaceOnUse"
       x1="32.067265"
       y1="6.1668468"
       x2="32.067265"
       y2="90.756142"
       spreadMethod="pad">
      <stop
         stop-color="#000000"
         offset="0.00000000000"
         stop-opacity="1.00000000000"
         id="stop17-5" />
      <stop
         stop-color="#000000"
         offset="1.00000000000"
         stop-opacity="0.58823529412"
         id="stop19-4" />
    </linearGradient>
    <linearGradient
       inkscape:collect="always"
       xlink:href="#gradient1-6"
       id="linearGradient3059-7"
       gradientUnits="userSpaceOnUse"
       gradientTransform="matrix(1.0055984,0,0,-0.9944328,2.96875,92.53125)"
       spreadMethod="pad"
       x1="32.071472"
       y1="6.1660314"
       x2="32.071472"
       y2="90.744209" />
    <linearGradient
       id="gradient1-6"
       gradientTransform="scale(1.0055984,0.9944328)"
       gradientUnits="userSpaceOnUse"
       x1="32.071472"
       y1="6.1660314"
       x2="32.071472"
       y2="90.744209"
       spreadMethod="pad">
      <stop
         stop-color="#000000"
         offset="0.00000000000"
         stop-opacity="1.00000000000"
         id="stop12-5" />
      <stop
         stop-color="#000000"
         offset="1.00000000000"
         stop-opacity="0.58823529412"
         id="stop14-6" />
    </linearGradient>
    <linearGradient
       id="gradient0-3"
       gradientTransform="scale(1.0054757,0.99455408)"
       gradientUnits="userSpaceOnUse"
       x1="32.07542"
       y1="6.1652875"
       x2="32.07542"
       y2="90.732689"
       spreadMethod="pad">
      <stop
         stop-color="#000000"
         offset="0.00000000000"
         stop-opacity="1.00000000000"
         id="stop7-7" />
      <stop
         stop-color="#000000"
         offset="1.00000000000"
         stop-opacity="0.58823529412"
         id="stop9-4" />
    </linearGradient>
    <linearGradient
       y2="90.732689"
       x2="32.07542"
       y1="6.1652875"
       x1="32.07542"
       spreadMethod="pad"
       gradientTransform="matrix(1.0054757,0,0,-0.99455408,1.96875,93.53125)"
       gradientUnits="userSpaceOnUse"
       id="linearGradient3216"
       xlink:href="#gradient0-3"
       inkscape:collect="always" />
    <linearGradient
       id="linearGradient3832">
      <stop
         style="stop-color:#000000;stop-opacity:1;"
         offset="0"
         id="stop3834" />
      <stop
         id="stop3842"
         offset="0.05"
         style="stop-color:#ffffff;stop-opacity:1;" />
      <stop
         style="stop-color:#000000;stop-opacity:1;"
         offset="0.1"
         id="stop3846" />
      <stop
         id="stop3840"
         offset="0.5"
         style="stop-color:#000000;stop-opacity:0.49803922;" />
      <stop
         style="stop-color:#000000;stop-opacity:1;"
         offset="0.89999998"
         id="stop3844" />
      <stop
         id="stop3848"
         offset="0.94999999"
         style="stop-color:#ffffff;stop-opacity:1;" />
      <stop
         style="stop-color:#000000;stop-opacity:1;"
         offset="1"
         id="stop3836" />
    </linearGradient>
    <linearGradient
       inkscape:collect="always"
       xlink:href="#linearGradient4144-8"
       id="linearGradient4025"
       gradientUnits="userSpaceOnUse"
       x1="72.875"
       y1="68.71875"
       x2="72.875"
       y2="77.34375" />
    <linearGradient
       id="linearGradient4144-8">
      <stop
         style="stop-color:#dddddd;stop-opacity:1;"
         offset="0"
         id="stop4146-4" />
      <stop
         id="stop4152-5"
         offset="0.64999998"
         style="stop-color:#989898;stop-opacity:1;" />
      <stop
         style="stop-color:#eaeaea;stop-opacity:1;"
         offset="1"
         id="stop4148-0" />
    </linearGradient>
    <linearGradient
       inkscape:collect="always"
       xlink:href="#linearGradient3888"
       id="linearGradient3205"
       gradientUnits="userSpaceOnUse"
       x1="-56.230446"
       y1="5.5"
       x2="-56.230446"
       y2="69.53125" />
    <linearGradient
       inkscape:collect="always"
       xlink:href="#linearGradient4188"
       id="linearGradient3207"
       gradientUnits="userSpaceOnUse"
       gradientTransform="translate(-200,0)"
       x1="106"
       y1="77.51565"
       x2="180"
       y2="77.51565" />
    <linearGradient
       inkscape:collect="always"
       xlink:href="#linearGradient3832"
       id="linearGradient3209"
       gradientUnits="userSpaceOnUse"
       gradientTransform="translate(0,-0.9843498)"
       x1="-94"
       y1="82.984398"
       x2="-10.187523"
       y2="82.984398" />
    <radialGradient
       inkscape:collect="always"
       xlink:href="#linearGradient4091"
       id="radialGradient3211"
       gradientUnits="userSpaceOnUse"
       gradientTransform="matrix(-1.0721726,0,0,-0.87502024,-0.53571,-19.125546)"
       cx="48"
       cy="-27"
       fx="48"
       fy="-27"
       r="42" />
    <linearGradient
       inkscape:collect="always"
       xlink:href="#linearGradient3832"
       id="linearGradient3213"
       gradientUnits="userSpaceOnUse"
       gradientTransform="translate(0,-0.9843498)"
       x1="-94"
       y1="82.984398"
       x2="-20"
       y2="82.984398" />
    <linearGradient
       inkscape:collect="always"
       xlink:href="#linearGradient3874"
       id="linearGradient3215"
       gradientUnits="userSpaceOnUse"
       gradientTransform="translate(-100,0)"
       x1="70.030853"
       y1="82"
       x2="89.473785"
       y2="82" />
    <linearGradient
       inkscape:collect="always"
       xlink:href="#linearGradient4188-5"
       id="linearGradient4863"
       gradientUnits="userSpaceOnUse"
       x1="112.09375"
       y1="76.609375"
       x2="183.90625"
       y2="76.609375" />
    <linearGradient
       id="linearGradient4188-5">
      <stop
         style="stop-color:#ffffff;stop-opacity:0;"
         offset="0"
         id="stop4190-0" />
      <stop
         id="stop4198-3"
         offset="0.15000001"
         style="stop-color:#ffffff;stop-opacity:1;" />
      <stop
         id="stop4196-6"
         offset="0.85000002"
         style="stop-color:#ffffff;stop-opacity:1;" />
      <stop
         style="stop-color:#ffffff;stop-opacity:0;"
         offset="1"
         id="stop4192-1" />
    </linearGradient>
    <linearGradient
       inkscape:collect="always"
       xlink:href="#linearGradient3888"
       id="linearGradient3117"
       gradientUnits="userSpaceOnUse"
       x1="-56.230446"
       y1="5.5"
       x2="-56.230446"
       y2="69.53125" />
    <linearGradient
       inkscape:collect="always"
       xlink:href="#linearGradient4188"
       id="linearGradient3119"
       gradientUnits="userSpaceOnUse"
       gradientTransform="translate(-200,0)"
       x1="106"
       y1="77.51565"
       x2="180"
       y2="77.51565" />
    <linearGradient
       inkscape:collect="always"
       xlink:href="#linearGradient3832"
       id="linearGradient3121"
       gradientUnits="userSpaceOnUse"
       gradientTransform="translate(0,-0.9843498)"
       x1="-94"
       y1="82.984398"
       x2="-10.187523"
       y2="82.984398" />
    <radialGradient
       inkscape:collect="always"
       xlink:href="#linearGradient4091"
       id="radialGradient3123"
       gradientUnits="userSpaceOnUse"
       gradientTransform="matrix(-1.0721726,0,0,-0.87502024,-0.53571,-19.125546)"
       cx="48"
       cy="-27"
       fx="48"
       fy="-27"
       r="42" />
    <linearGradient
       inkscape:collect="always"
       xlink:href="#linearGradient3832"
       id="linearGradient3125"
       gradientUnits="userSpaceOnUse"
       gradientTransform="translate(0,-0.9843498)"
       x1="-94"
       y1="82.984398"
       x2="-20"
       y2="82.984398" />
    <linearGradient
       inkscape:collect="always"
       xlink:href="#linearGradient3874"
       id="linearGradient3127"
       gradientUnits="userSpaceOnUse"
       gradientTransform="translate(-100,0)"
       x1="70.030853"
       y1="82"
       x2="89.473785"
       y2="82" />
    <linearGradient
       inkscape:collect="always"
       xlink:href="#linearGradient3874"
       id="linearGradient3131"
       gradientUnits="userSpaceOnUse"
       gradientTransform="translate(100,0)"
       x1="70.030853"
       y1="82"
       x2="89.473785"
       y2="82" />
    <linearGradient
       inkscape:collect="always"
       xlink:href="#linearGradient3832"
       id="linearGradient3134"
       gradientUnits="userSpaceOnUse"
       gradientTransform="translate(200,-0.9843498)"
       x1="-94"
       y1="82.984398"
       x2="-20"
       y2="82.984398" />
    <radialGradient
       inkscape:collect="always"
       xlink:href="#linearGradient4091"
       id="radialGradient3139"
       gradientUnits="userSpaceOnUse"
       gradientTransform="matrix(-1.0721726,0,0,-0.87502024,199.46429,-19.125546)"
       cx="48"
       cy="-27"
       fx="48"
       fy="-27"
       r="42" />
    <linearGradient
       inkscape:collect="always"
       xlink:href="#linearGradient3832"
       id="linearGradient3143"
       gradientUnits="userSpaceOnUse"
       gradientTransform="translate(200,-0.9843498)"
       x1="-94"
       y1="82.984398"
       x2="-10.187523"
       y2="82.984398" />
    <linearGradient
       inkscape:collect="always"
       xlink:href="#linearGradient4188"
       id="linearGradient3151"
       gradientUnits="userSpaceOnUse"
       x1="106"
       y1="77.51565"
       x2="180"
       y2="77.51565" />
    <linearGradient
       inkscape:collect="always"
       xlink:href="#linearGradient3888"
       id="linearGradient3154"
       gradientUnits="userSpaceOnUse"
       x1="-56.230446"
       y1="5.5"
       x2="-56.230446"
       y2="69.53125"
       gradientTransform="translate(200,0)" />
    <linearGradient
       inkscape:collect="always"
       xlink:href="#linearGradient3888"
       id="linearGradient3173"
       gradientUnits="userSpaceOnUse"
       gradientTransform="translate(200,0)"
       x1="-56.230446"
       y1="5.5"
       x2="-56.230446"
       y2="69.53125" />
    <linearGradient
       inkscape:collect="always"
       xlink:href="#linearGradient4188"
       id="linearGradient3175"
       gradientUnits="userSpaceOnUse"
       x1="106"
       y1="77.51565"
       x2="180"
       y2="77.51565" />
    <linearGradient
       inkscape:collect="always"
       xlink:href="#linearGradient3832"
       id="linearGradient3177"
       gradientUnits="userSpaceOnUse"
       gradientTransform="translate(200,-0.9843498)"
       x1="-94"
       y1="82.984398"
       x2="-10.187523"
       y2="82.984398" />
    <radialGradient
       inkscape:collect="always"
       xlink:href="#linearGradient4091"
       id="radialGradient3179"
       gradientUnits="userSpaceOnUse"
       gradientTransform="matrix(-1.0721726,0,0,-0.87502024,199.46429,-19.125546)"
       cx="48"
       cy="-27"
       fx="48"
       fy="-27"
       r="42" />
    <linearGradient
       inkscape:collect="always"
       xlink:href="#linearGradient3832"
       id="linearGradient3181"
       gradientUnits="userSpaceOnUse"
       gradientTransform="translate(200,-0.9843498)"
       x1="-94"
       y1="82.984398"
       x2="-20"
       y2="82.984398" />
    <linearGradient
       inkscape:collect="always"
       xlink:href="#linearGradient3874"
       id="linearGradient3183"
       gradientUnits="userSpaceOnUse"
       gradientTransform="translate(100,0)"
       x1="70.030853"
       y1="82"
       x2="89.473785"
       y2="82" />
    <linearGradient
       inkscape:collect="always"
       xlink:href="#linearGradient3874"
       id="linearGradient3187"
       gradientUnits="userSpaceOnUse"
       gradientTransform="translate(90,0)"
       x1="70.030853"
       y1="82"
       x2="89.473785"
       y2="82" />
    <linearGradient
       inkscape:collect="always"
       xlink:href="#linearGradient3832"
       id="linearGradient3190"
       gradientUnits="userSpaceOnUse"
       gradientTransform="translate(190,-0.9843498)"
       x1="-94"
       y1="82.984398"
       x2="-20"
       y2="82.984398" />
    <radialGradient
       inkscape:collect="always"
       xlink:href="#linearGradient4091"
       id="radialGradient3195"
       gradientUnits="userSpaceOnUse"
       gradientTransform="matrix(-1.0721726,0,0,-0.87502024,189.46429,-19.125546)"
       cx="48"
       cy="-27"
       fx="48"
       fy="-27"
       r="42" />
    <linearGradient
       inkscape:collect="always"
       xlink:href="#linearGradient3832"
       id="linearGradient3199"
       gradientUnits="userSpaceOnUse"
       gradientTransform="translate(190,-0.9843498)"
       x1="-94"
       y1="82.984398"
       x2="-10.187523"
       y2="82.984398" />
    <linearGradient
       inkscape:collect="always"
       xlink:href="#linearGradient4188"
       id="linearGradient3208"
       gradientUnits="userSpaceOnUse"
       x1="106"
       y1="77.51565"
       x2="180"
       y2="77.51565"
       gradientTransform="translate(-10,0)" />
    <linearGradient
       inkscape:collect="always"
       xlink:href="#linearGradient3888"
       id="linearGradient3211"
       gradientUnits="userSpaceOnUse"
       gradientTransform="translate(190,0)"
       x1="-56.230446"
       y1="5.5"
       x2="-56.230446"
       y2="69.53125" />
    <linearGradient
       inkscape:collect="always"
       xlink:href="#linearGradient3888"
       id="linearGradient3230"
       gradientUnits="userSpaceOnUse"
       gradientTransform="translate(190,0)"
       x1="-56.230446"
       y1="5.5"
       x2="-56.230446"
       y2="69.53125" />
    <linearGradient
       inkscape:collect="always"
       xlink:href="#linearGradient4188"
       id="linearGradient3232"
       gradientUnits="userSpaceOnUse"
       gradientTransform="translate(-10,0)"
       x1="106"
       y1="77.51565"
       x2="180"
       y2="77.51565" />
    <linearGradient
       inkscape:collect="always"
       xlink:href="#linearGradient3832"
       id="linearGradient3234"
       gradientUnits="userSpaceOnUse"
       gradientTransform="translate(190,-0.9843498)"
       x1="-94"
       y1="82.984398"
       x2="-10.187523"
       y2="82.984398" />
    <radialGradient
       inkscape:collect="always"
       xlink:href="#linearGradient4091"
       id="radialGradient3236"
       gradientUnits="userSpaceOnUse"
       gradientTransform="matrix(-1.0721726,0,0,-0.87502024,189.46429,-19.125546)"
       cx="48"
       cy="-27"
       fx="48"
       fy="-27"
       r="42" />
    <linearGradient
       inkscape:collect="always"
       xlink:href="#linearGradient3832"
       id="linearGradient3238"
       gradientUnits="userSpaceOnUse"
       gradientTransform="translate(190,-0.9843498)"
       x1="-94"
       y1="82.984398"
       x2="-20"
       y2="82.984398" />
    <linearGradient
       inkscape:collect="always"
       xlink:href="#linearGradient3874"
       id="linearGradient3240"
       gradientUnits="userSpaceOnUse"
       gradientTransform="translate(90,0)"
       x1="70.030853"
       y1="82"
       x2="89.473785"
       y2="82" />
  </defs>
  <g
     id="layer2"
     style="display:none">
    <rect
       width="86"
       height="85"
       rx="6"
       ry="6"
       x="5"
       y="7"
       id="rect3745"
       style="opacity:0.9;fill:url(#ButtonShadow);fill-opacity:1;fill-rule:nonzero;stroke:none;filter:url(#filter3174)" />
  </g>
  <g
     id="g3943">
    <path
       id="path3786-4"
       d="m 11.99995,93.53125 c -5.51104,0 -10.0312,-4.52016 -10.0312,-10.0312 l 0,-71 c 0,-5.5111 4.52016,-10.0313 10.0312,-10.0313 l 72,0 c 5.5111,0 10.0313,4.5202 10.0313,10.0313 l 0,71 c 0,5.51104 -4.5202,10.0312 -10.0313,10.0312 z"
       style="opacity:0.07999998;fill:url(#linearGradient3216)"
       inkscape:connector-curvature="0" />
    <path
       id="path3778-5"
       d="m 12,92.53125 c -4.97163,0 -9.03125,-4.05962 -9.03125,-9.03125 l 0,-70.99995 c 0,-4.9717 4.05962,-9.0313 9.03125,-9.0313 l 71.99995,0 c 4.9717,0 9.0313,4.0596 9.0313,9.0313 l 0,70.99995 c 0,4.97163 -4.0596,9.03125 -9.0313,9.03125 z"
       style="opacity:0.1;fill:url(#linearGradient3059-7)"
       inkscape:connector-curvature="0" />
    <path
       id="path3770-2"
       d="m 12,91.50005 c -4.40913,0 -8,-3.59087 -8,-8 l 0,-71 c 0,-4.4091 3.59087,-8 8,-8 l 72,0 c 4.4091,0 8,3.5909 8,8 l 0,71 c 0,4.40913 -3.5909,8 -8,8 z"
       style="opacity:0.2;fill:url(#linearGradient3056-1)"
       inkscape:connector-curvature="0" />
    <rect
       id="rect3723-5"
       transform="scale(1,-1)"
       width="86"
       height="85"
       rx="7"
       ry="7"
       style="opacity:0.3;fill:url(#linearGradient3053-3)"
       x="5"
       y="-90.500046" />
    <rect
       id="rect3716-4"
       transform="scale(1,-1)"
       width="84"
       height="84"
       rx="6"
       ry="6"
       style="opacity:0.4;fill:url(#linearGradient3050-6)"
       x="6"
       y="-89.500046" />
  </g>
  <path
     style="fill:#202020;fill-opacity:1;fill-rule:nonzero;stroke:none;display:inline"
     d="m 84,4.5000496 -72,0 c -3.324,0 -6,2.676 -6,6.0000004 l 0,72 c 0,3.324 2.676,6 6,6 l 72,0 c 3.324,0 6,-2.676 6,-6 l 0,-72 C 90,7.1760496 87.324,4.5000496 84,4.5000496 z"
     id="rect2419-1"
     inkscape:connector-curvature="0" />
  <g
     id="g4855"
     transform="translate(-98,0)">
    <path
       sodipodi:nodetypes="sssssssss"
       inkscape:connector-curvature="0"
       id="path4843"
       d="m 117.21875,8.59375 c -3.921,0 -7.125,3.203999 -7.125,7.125 l 0,60.5625 c 0,3.921001 3.204,7.125 7.125,7.125 l 61.5625,0 c 3.921,0 7.125,-3.203999 7.125,-7.125 l 0,-60.5625 c 0,-3.921001 -3.204,-7.125 -7.125,-7.125 z"
       style="font-size:medium;font-style:normal;font-variant:normal;font-weight:normal;font-stretch:normal;text-indent:0;text-align:start;text-decoration:none;line-height:normal;letter-spacing:normal;word-spacing:normal;text-transform:none;direction:ltr;block-progression:tb;writing-mode:lr-tb;text-anchor:start;baseline-shift:baseline;opacity:0.1;color:#000000;fill:#000000;fill-opacity:1;fill-rule:nonzero;stroke:none;stroke-width:2;marker:none;visibility:visible;display:inline;overflow:visible;enable-background:accumulate;font-family:Sans;-inkscape-font-specification:Sans" />
    <path
       style="font-size:medium;font-style:normal;font-variant:normal;font-weight:normal;font-stretch:normal;text-indent:0;text-align:start;text-decoration:none;line-height:normal;letter-spacing:normal;word-spacing:normal;text-transform:none;direction:ltr;block-progression:tb;writing-mode:lr-tb;text-anchor:start;baseline-shift:baseline;opacity:0.2;color:#000000;fill:#000000;fill-opacity:1;fill-rule:nonzero;stroke:none;stroke-width:2;marker:none;visibility:visible;display:inline;overflow:visible;enable-background:accumulate;font-family:Sans;-inkscape-font-specification:Sans"
       d="m 117.21875,8.59375 c -3.37935,0 -6.125,2.745652 -6.125,6.125 l 0,61.5625 c 0,3.379348 2.74565,6.125 6.125,6.125 l 61.5625,0 c 3.37935,0 6.125,-2.745652 6.125,-6.125 l 0,-61.5625 c 0,-3.379348 -2.74565,-6.125 -6.125,-6.125 z"
       id="path4849"
       inkscape:connector-curvature="0"
       sodipodi:nodetypes="sssssssss" />
    <path
       style="fill:#ececec;fill-opacity:1;fill-rule:nonzero;stroke:none;display:inline"
       d="m 178.78677,9.582146 -61.57354,0 c -2.84265,0 -5.13113,2.288484 -5.13113,5.13113 l 0,61.573548 c 0,2.842646 2.28848,5.13113 5.13113,5.13113 l 61.57354,0 c 2.84265,0 5.13113,-2.288484 5.13113,-5.13113 l 0,-61.573548 c 0,-2.842646 -2.28848,-5.13113 -5.13113,-5.13113 z"
       id="path4710"
       inkscape:connector-curvature="0" />
    <path
       inkscape:connector-curvature="0"
       id="path4810"
       d="m 112.09375,74.8125 0,1.46875 c 0,2.842646 2.28235,5.125 5.125,5.125 l 61.5625,0 c 2.84265,0 5.125,-2.282354 5.125,-5.125 l 0,-1.46875 c -0.26183,2.593688 -2.46002,4.59375 -5.125,4.59375 l -61.5625,0 c -2.66498,0 -4.86317,-2.000062 -5.125,-4.59375 z"
       style="opacity:0.1;fill:#000000;fill-opacity:1;fill-rule:nonzero;stroke:none;display:inline" />
    <path
       inkscape:connector-curvature="0"
       id="path4815"
       d="m 112.09375,73.8125 0,1 c 0.26183,2.593688 2.46002,4.59375 5.125,4.59375 l 61.5625,0 c 2.66498,0 4.86317,-2.000062 5.125,-4.59375 l 0,-1 c -0.26183,2.593688 -2.46002,4.59375 -5.125,4.59375 l -61.5625,0 c -2.66498,0 -4.86317,-2.000062 -5.125,-4.59375 z"
       style="opacity:0.4;fill:url(#linearGradient4863);fill-opacity:1;fill-rule:nonzero;stroke:none;display:inline" />
    <path
       inkscape:connector-curvature="0"
       id="path4820"
       d="m 116.6875,9.59375 c -2.59369,0.2618304 -4.59375,2.460019 -4.59375,5.125 l 0,0.46875 c 0.26183,-2.593688 2.46002,-4.59375 5.125,-4.59375 l 61.5625,0 c 2.66498,0 4.86317,2.000062 5.125,4.59375 l 0,-0.46875 c 0,-2.842646 -2.28235,-5.125 -5.125,-5.125 l -61.5625,0 c -0.17767,0 -0.35834,-0.017455 -0.53125,0 z"
       style="opacity:0.5;fill:#ffffff;fill-opacity:1;fill-rule:nonzero;stroke:none;display:inline" />
  </g>
  <path
     style="fill:#333333;fill-opacity:1;fill-rule:nonzero;stroke:none;display:inline"
     d="m 12,4.5 c -3.324,0 -6,2.6759996 -6,6 l 0,70 c 0,3.324 2.676,6 6,6 l 62,0 c 3.324,0 6,-2.676 6,-6 l 0,-38.1875 6.875,-4.125 C 88.74566,37.173813 90,35.1915 90,32.90625 L 90,10.5 c 0,-3.3240004 -2.676,-6 -6,-6 z"
     id="path3262"
     inkscape:connector-curvature="0"
     sodipodi:nodetypes="ssssssccssss" />
  <g
     id="g4031">
    <rect
       y="10"
       x="9"
       height="65"
       width="1"
       id="rect4494"
       style="opacity:0.15;color:#000000;fill:#ffffff;fill-opacity:1;fill-rule:nonzero;stroke:none;stroke-width:5;marker:none;visibility:visible;display:inline;overflow:visible;enable-background:accumulate" />
    <rect
       style="opacity:0.25;color:#000000;fill:#000000;fill-opacity:1;fill-rule:nonzero;stroke:none;stroke-width:5;marker:none;visibility:visible;display:inline;overflow:visible;enable-background:accumulate"
       id="rect4496"
       width="1"
       height="65"
       x="10"
       y="10" />
    <rect
       style="opacity:0.15;color:#000000;fill:#ffffff;fill-opacity:1;fill-rule:nonzero;stroke:none;stroke-width:5;marker:none;visibility:visible;display:inline;overflow:visible;enable-background:accumulate"
       id="rect4498"
       width="1"
       height="65"
       x="13"
       y="10" />
    <rect
       y="10"
       x="14"
       height="65"
       width="1"
       id="rect4500"
       style="opacity:0.25;color:#000000;fill:#000000;fill-opacity:1;fill-rule:nonzero;stroke:none;stroke-width:5;marker:none;visibility:visible;display:inline;overflow:visible;enable-background:accumulate" />
    <path
       id="path4130"
       d="m 72.875,68.71875 c -2.51184,0 -4.5625,1.93878 -4.5625,4.3125 0,2.37372 2.05066,4.3125 4.5625,4.3125 2.51184,0 4.5625,-1.93878 4.5625,-4.3125 0,-2.37372 -2.05066,-4.3125 -4.5625,-4.3125 z m 0,1.34375 c 1.73733,0 3.15625,1.326959 3.15625,2.96875 0,1.641792 -1.41892,2.96875 -3.15625,2.96875 -1.73733,0 -3.15625,-1.326958 -3.15625,-2.96875 0,-1.641791 1.41892,-2.96875 3.15625,-2.96875 z"
       style="color:#000000;fill:url(#linearGradient4025);fill-opacity:1;fill-rule:nonzero;stroke:none;stroke-width:5;marker:none;visibility:visible;display:inline;overflow:visible;enable-background:accumulate"
       inkscape:connector-curvature="0" />
    <path
       id="path4132"
       d="m 72.875,70.0625 c -1.73733,0 -3.15625,1.326959 -3.15625,2.96875 0,0.55226 0.19112,1.056911 0.46875,1.5 0.54773,-0.874152 1.53457,-1.46875 2.6875,-1.46875 1.15293,0 2.13977,0.594598 2.6875,1.46875 0.27763,-0.443089 0.46875,-0.94774 0.46875,-1.5 0,-1.641791 -1.41892,-2.96875 -3.15625,-2.96875 z"
       style="opacity:0.8;color:#000000;fill:#000000;fill-opacity:1;fill-rule:nonzero;stroke:none;stroke-width:5;marker:none;visibility:visible;display:inline;overflow:visible;enable-background:accumulate"
       inkscape:connector-curvature="0" />
    <path
       inkscape:connector-curvature="0"
       id="path4154"
       d="m 72.875,68.71875 c -2.51184,0 -4.5625,1.93878 -4.5625,4.3125 0,0.08494 0.0261,0.166247 0.0313,0.25 0.13954,-2.256915 2.10928,-4.0625 4.53125,-4.0625 2.42197,0 4.39171,1.805585 4.53125,4.0625 0.005,-0.08375 0.0313,-0.165064 0.0313,-0.25 0,-2.37372 -2.05066,-4.3125 -4.5625,-4.3125 z m -3.125,4.5625 c -0.008,0.08469 -0.0313,0.163412 -0.0313,0.25 0,1.641792 1.41892,2.96875 3.15625,2.96875 1.73733,0 3.15625,-1.326958 3.15625,-2.96875 0,-0.08659 -0.0235,-0.165312 -0.0313,-0.25 C 75.86113,74.802331 74.5207,76 72.875,76 71.2293,76 69.88887,74.802331 69.75,73.28125 z"
       style="opacity:0.2;color:#000000;fill:#ffffff;fill-opacity:1;fill-rule:nonzero;stroke:none;stroke-width:5;marker:none;visibility:visible;display:inline;overflow:visible;enable-background:accumulate" />
    <path
       inkscape:connector-curvature="0"
       id="path4170"
       d="m 72.875,73.0625 c -1.15293,0 -2.13977,0.594598 -2.6875,1.46875 C 70.73523,75.405402 71.72207,76 72.875,76 74.02793,76 75.01477,75.405402 75.5625,74.53125 75.01477,73.657098 74.02793,73.0625 72.875,73.0625 z"
       style="opacity:0.7;color:#000000;fill:#000000;fill-opacity:1;fill-rule:nonzero;stroke:none;stroke-width:5;marker:none;visibility:visible;display:inline;overflow:visible;enable-background:accumulate" />
    <path
       inkscape:connector-curvature="0"
       id="path4175"
       d="m 72.875,69.5625 c -1.73733,0 -3.15625,1.326959 -3.15625,2.96875 0,0.08659 0.0235,0.165312 0.0313,0.25 0.13887,-1.52108 1.4793,-2.71875 3.125,-2.71875 1.6457,0 2.98613,1.19767 3.125,2.71875 0.008,-0.08469 0.0313,-0.163412 0.0313,-0.25 0,-1.641791 -1.41892,-2.96875 -3.15625,-2.96875 z m -4.53125,3.21875 c -0.005,0.08375 -0.0313,0.165064 -0.0313,0.25 0,2.37372 2.05066,4.3125 4.5625,4.3125 2.51184,0 4.5625,-1.93878 4.5625,-4.3125 0,-0.08494 -0.0261,-0.166247 -0.0313,-0.25 -0.13954,2.256915 -2.10928,4.0625 -4.53125,4.0625 -2.42197,0 -4.39171,-1.805585 -4.53125,-4.0625 z"
       style="opacity:0.2;color:#000000;fill:#000000;fill-opacity:1;fill-rule:nonzero;stroke:none;stroke-width:5;marker:none;visibility:visible;display:inline;overflow:visible;enable-background:accumulate" />
    <path
       id="path3825"
       d="M 80.875,8.59375 80.34375,9.9375 80,9 l 0,22.21875 0.34375,-0.9375 0.53125,1.34375 0.53125,-1.34375 0.53125,1.3125 0.5,-1.3125 0.5,1.3125 0.53125,-1.3125 L 84,31.625 84.5,30.28125 85.03125,31.625 85.5625,30.28125 86,31.40625 86,8.8125 85.5625,9.9375 85.03125,8.59375 84.5,9.9375 84,8.59375 83.46875,9.9375 82.9375,8.625 82.4375,9.9375 81.9375,8.625 81.40625,9.9375 80.875,8.59375 z"
       style="opacity:0.3;fill:#ffffff;fill-opacity:1;fill-rule:nonzero;stroke:none;display:inline"
       inkscape:connector-curvature="0" />
    <path
       inkscape:connector-curvature="0"
       id="path4207"
       d="M 80.875,8.59375 80.34375,9.9375 80,9 l 0,0.5 0.34375,0.9375 0.53125,-1.34375 0.53125,1.34375 0.53125,-1.3125 0.5,1.3125 0.5,-1.3125 0.53125,1.3125 L 84,9.09375 84.5,10.4375 85.03125,9.09375 85.5625,10.4375 86,9.3125 86,8.8125 85.5625,9.9375 85.03125,8.59375 84.5,9.9375 84,8.59375 83.46875,9.9375 82.9375,8.625 82.4375,9.9375 81.9375,8.625 81.40625,9.9375 80.875,8.59375 z"
       style="opacity:0.2;fill:#ffffff;fill-opacity:1;fill-rule:nonzero;stroke:none;display:inline" />
    <path
       inkscape:connector-curvature="0"
       id="path4212"
       d="M 80.34375,29.78125 80,30.71875 l 0,0.5 0.34375,-0.9375 0.53125,1.34375 0.53125,-1.34375 0.53125,1.3125 0.5,-1.3125 0.5,1.3125 0.53125,-1.3125 L 84,31.625 l 0.5,-1.34375 0.53125,1.34375 0.53125,-1.34375 0.4375,1.125 0,-0.5 -0.4375,-1.125 L 85.03125,31.125 84.5,29.78125 84,31.125 l -0.53125,-1.34375 -0.53125,1.3125 -0.5,-1.3125 -0.5,1.3125 -0.53125,-1.3125 L 80.875,31.125 80.34375,29.78125 z"
       style="opacity:0.15;fill:#000000;fill-opacity:1;fill-rule:nonzero;stroke:none;display:inline" />
  </g>
  <g
     id="g3882"
     transform="translate(-80,0)">
    <path
       sodipodi:nodetypes="sssssssssscccccccccccccscccccccccccccccsccccccccccccccccccccscccccccccccccccccccscccscccccsccccsscccccscccccscccccsccccccscccccccccccccscsccccccccccccscccccccccccccccsccccccccscccccs"
       inkscape:connector-curvature="0"
       id="path3108"
       d="M 105.28125,22 C 102.91769,22 101,23.967062 101,26.34375 l 0,33.3125 C 101,62.032938 102.91769,64 105.28125,64 l 41.4375,0 C 149.08231,64 151,62.032938 151,59.65625 l 0,-33.3125 C 151,23.967062 149.08231,22 146.71875,22 z M 126,29.96875 c 2.34359,0 4.16895,1.710274 4.1875,3.78125 9e-5,0.01059 0,0.02064 0,0.03125 -0.0111,0.309754 -0.0365,0.687374 -0.0625,1.0625 l -0.0313,0.53125 0.4375,0.34375 c -0.17538,-0.131757 -0.0973,-0.187662 -0.0937,0 0.004,0.187662 -0.0439,0.536351 -0.1875,0.875 -0.10295,0.242753 -0.25581,0.447958 -0.375,0.59375 l -0.15625,0.1875 -0.0313,0.21875 c -0.0637,0.297951 -0.0769,0.49304 -0.125,0.71875 -0.002,0.01132 -0.0287,0.01965 -0.0313,0.03125 -0.002,0.0068 0.003,0.05445 0,0.0625 -0.0679,0.168051 -0.28311,0.54324 -0.5625,1 -0.30308,0.4955 -0.67968,1.068007 -1,1.5625 l -0.125,0.21875 -0.0313,0.25 c -0.043,0.68468 -0.0596,1.408624 0.0313,2.15625 l 0.0625,0.375 0.28125,0.25 c 1.34018,1.166252 3.36935,1.807049 4.9375,2.46875 l 0.375,0.1875 0.375,-0.15625 c 0.7027,-0.292258 1.38859,-0.612054 1.96875,-1.09375 l 0.3125,-0.25 0.0625,-0.375 c 0.1252,-0.730696 0.0868,-1.362274 0.0313,-1.9375 l -0.0313,-0.28125 -0.15625,-0.21875 c -0.25735,-0.343338 -0.53963,-0.716165 -0.75,-1.03125 -0.18253,-0.273383 -0.30831,-0.459891 -0.34375,-0.53125 -0.007,-0.03271 -0.0246,-0.03367 -0.0313,-0.0625 -5e-4,-0.0011 1e-4,-0.03094 0,-0.03125 -0.0214,-0.09103 -0.0462,-0.152713 -0.0625,-0.21875 8.7e-4,-0.02184 9.6e-4,-0.03437 0,-0.0625 -0.002,-0.0084 0.002,-0.02292 0,-0.03125 -0.006,-0.02708 -0.0257,-0.06652 -0.0313,-0.09375 -0.006,-0.02224 0.0113,-0.05481 0,-0.09375 -1e-5,-5.8e-5 0.001,-0.02884 0,-0.03125 l -0.0313,-0.125 -0.125,-0.15625 -0.0625,-0.0625 c -0.004,-0.0072 0.003,-0.02575 0,-0.03125 -0.0138,-0.01551 -0.0175,-0.0457 -0.0313,-0.0625 -0.0843,-0.103222 -0.19248,-0.208107 -0.25,-0.34375 -0.0849,-0.20017 -0.0862,-0.385777 -0.0937,-0.5 L 134.5625,38.9375 134.5,38.28125 c -0.0194,-0.231973 -0.0255,-0.426874 -0.0313,-0.65625 0,-0.01 -1.2e-4,-0.02128 0,-0.03125 0.0173,-1.410778 1.25948,-2.625 2.875,-2.625 1.61555,0 2.8885,1.22425 2.90625,2.625 1.3e-4,0.0099 0,0.02135 0,0.03125 -0.008,0.182336 -0.0406,0.433777 -0.0625,0.75 l -0.0313,0.53125 0.25,0.1875 c -0.001,0.09599 -0.004,0.287506 -0.0937,0.5 -0.0654,0.154292 -0.16824,0.275003 -0.25,0.375 l -0.15625,0.1875 -0.0313,0.21875 c -0.0458,0.214594 -0.0596,0.370842 -0.0937,0.53125 -0.002,0.01094 -0.0288,0.02007 -0.0313,0.03125 -0.002,0.0053 0.003,0.05515 0,0.0625 -0.0465,0.107618 -0.21011,0.361473 -0.40625,0.6875 -0.21998,0.365666 -0.48039,0.788273 -0.71875,1.15625 l -0.125,0.21875 -0.0313,0.25 c -0.0333,0.531611 -0.0382,1.085093 0.0313,1.65625 l 0.0625,0.375 0.28125,0.25 c 0.9992,0.86954 2.37503,1.317956 3.5,1.78125 0.56248,0.231647 1.06369,0.481109 1.34375,0.65625 0.10407,0.06509 0.12352,0.09558 0.15625,0.125 l 0.5,3.1875 c 0.01,-0.10392 0.0636,-0.08172 -0.21875,0.09375 -0.3171,0.197062 -0.88419,0.427596 -1.625,0.625 l -0.5625,0.15625 -0.15625,0.53125 -0.21875,0.75 c 0.008,-0.0013 -0.0268,0.02996 -0.0313,0.03125 -0.91163,0.264867 -2.47464,0.5 -4.1875,0.5 -1.60046,0 -3.03425,-0.193757 -3.96875,-0.4375 l -0.9375,-0.25 -0.28125,0.9375 -0.28125,1 c -0.058,0.032 -0.12283,0.06588 -0.21875,0.09375 -1.25522,0.364697 -3.33866,0.65625 -5.65625,0.65625 -2.31759,0 -4.40103,-0.291553 -5.65625,-0.65625 -0.0959,-0.02788 -0.16081,-0.06177 -0.21875,-0.09375 l -0.25,-1 -0.25,-0.96875 -0.96875,0.25 c -0.9487,0.250393 -2.39475,0.46875 -4,0.46875 -1.71286,0 -3.27589,-0.235134 -4.1875,-0.5 -0.003,-8.14e-4 -0.0341,-4.47e-4 -0.0313,0 l -0.15625,-0.71875 -0.125,-0.5625 -0.59375,-0.15625 c -0.75805,-0.197372 -1.36031,-0.45298 -1.6875,-0.65625 -0.29133,-0.180994 -0.22739,-0.19482 -0.21875,-0.09375 l 0.5,-3.25 0,-0.09375 0,-0.0625 c 8e-4,0.172051 -0.0753,0.142325 0.1875,-0.03125 0.26278,-0.173575 0.72574,-0.373448 1.28125,-0.59375 1.11103,-0.440603 2.48092,-0.841365 3.5,-1.6875 l 0.3125,-0.25 L 113.5,45 c 0.1252,-0.730696 0.0868,-1.362274 0.0313,-1.9375 L 113.5,42.78125 113.34375,42.5625 c -0.25735,-0.343341 -0.53963,-0.716166 -0.75,-1.03125 C 112.41122,41.257868 112.28544,41.071344 112.25,41 c -0.004,-0.01873 0.003,-0.04465 0,-0.0625 -0.001,-0.0025 -0.0311,-0.03075 -0.0313,-0.03125 -0.021,-0.117837 -0.022,-0.206779 -0.0625,-0.40625 l -0.0313,-0.25 -0.1875,-0.21875 c -0.0417,-0.04916 -0.0237,-0.0243 -0.0313,-0.03125 -0.009,-0.0098 -0.0226,-0.02098 -0.0313,-0.03125 -0.0111,-0.01085 -0.0385,-0.03836 -0.0313,-0.03125 -0.0805,-0.100756 -0.16362,-0.213768 -0.21875,-0.34375 -0.0808,-0.190491 -0.0892,-0.359581 -0.0937,-0.46875 l 0.34375,-0.1875 -0.0625,-0.65625 c -0.0251,-0.301181 -0.0566,-0.504557 -0.0625,-0.65625 -2.8e-4,-0.0072 1.8e-4,-0.02439 0,-0.03125 0.0178,-1.400745 1.29071,-2.625 2.90625,-2.625 1.61553,0 2.85765,1.21421 2.875,2.625 1.2e-4,0.01 0,0.02126 0,0.03125 -0.008,0.182336 -0.0406,0.433777 -0.0625,0.75 l -0.0313,0.53125 0.25,0.1875 c -0.001,0.09598 -0.004,0.287512 -0.0937,0.5 -0.0654,0.154185 -0.16819,0.274937 -0.25,0.375 l -0.15625,0.1875 -0.0313,0.21875 c -0.046,0.215026 -0.0597,0.370943 -0.0937,0.53125 -0.002,0.01093 -0.0288,0.02008 -0.0313,0.03125 -0.002,0.0053 0.003,0.05515 0,0.0625 -0.0465,0.10763 -0.21012,0.361478 -0.40625,0.6875 -0.21998,0.365661 -0.48039,0.788292 -0.71875,1.15625 l -0.125,0.21875 -0.0313,0.25 c -0.0333,0.531748 -0.0381,1.085348 0.0313,1.65625 l 0.0625,0.375 0.28125,0.25 c 0.49911,0.434331 1.11014,0.768303 1.75,1.0625 l 0.375,0.1875 0.4375,-0.1875 c 1.56237,-0.662994 3.64345,-1.228026 5.0625,-2.40625 l 0.3125,-0.25 0.0625,-0.375 c 0.15739,-0.918371 0.13758,-1.725888 0.0625,-2.5 l -0.031,-0.28125 L 124,40.625 c -0.34631,-0.46202 -0.739,-0.973429 -1.03125,-1.40625 -0.26535,-0.392986 -0.44677,-0.692343 -0.5,-0.8125 -0.004,-0.01951 0.004,-0.04368 0,-0.0625 -0.002,-0.004 -0.0303,-0.02833 -0.0313,-0.03125 -0.0339,-0.181261 -0.0387,-0.323222 -0.0937,-0.59375 L 122.3125,37.4375 122.125,37.25 c -0.11982,-0.135229 -0.13483,-0.147959 -0.0313,-0.03125 -0.17221,-0.193904 -0.34069,-0.396713 -0.4375,-0.625 -0.14684,-0.346239 -0.16855,-0.688071 -0.15625,-0.875 0.0123,-0.186929 0.0698,-0.120591 -0.15625,0 l 0.5938,-0.3125 L 121.875,34.75 c -0.0296,-0.356031 -0.0555,-0.699427 -0.0625,-0.96875 -2.3e-4,-0.0087 1.9e-4,-0.02277 0,-0.03125 0.0185,-2.070963 1.84392,-3.78125 4.1875,-3.78125 z"
       style="font-size:8.9971447px;font-style:normal;font-variant:normal;font-weight:bold;font-stretch:normal;text-indent:0;text-align:start;text-decoration:none;line-height:125%;letter-spacing:normal;word-spacing:normal;text-transform:none;direction:ltr;block-progression:tb;writing-mode:lr-tb;text-anchor:start;baseline-shift:baseline;opacity:0.2;color:#000000;fill:#000000;fill-opacity:1;fill-rule:nonzero;stroke:none;stroke-width:2;marker:none;visibility:visible;display:inline;overflow:visible;enable-background:accumulate;font-family:Sans;-inkscape-font-specification:Abandoned Bitplane Bold" />
    <path
       id="path3648"
       d="M 105.28125,23 C 103.46816,23 102,24.497084 102,26.34375 l 0,33.3125 C 102,61.502916 103.46816,63 105.28125,63 l 41.4375,0 C 148.53184,63 150,61.502916 150,59.65625 l 0,-33.3125 C 150,24.497084 148.53184,23 146.71875,23 l -41.4375,0 z M 126,28.96875 c 2.85617,0 5.18746,2.144688 5.1875,4.8125 -0.0114,0.335278 -0.0353,0.732709 -0.0625,1.125 0.39018,0.293136 0.41414,1.159668 0.0313,2.0625 -0.1382,0.325868 -0.31278,0.614749 -0.5,0.84375 -0.0606,0.28323 -0.0784,0.482658 -0.15625,0.8125 -0.21213,0.636912 -1.05353,1.896317 -1.6875,2.875 -0.0409,0.650892 -0.049,1.307903 0.0313,1.96875 1.06734,0.928823 3.04578,1.632943 4.65625,2.3125 0.66766,-0.277686 1.28899,-0.580678 1.71875,-0.9375 0.1049,-0.612236 0.0833,-1.149264 0.0313,-1.6875 -0.52297,-0.697718 -1.10627,-1.506017 -1.25,-1.9375 -0.0464,-0.212502 -0.0867,-0.342863 -0.125,-0.53125 -0.005,-0.0059 0.006,-0.02525 0,-0.03125 -0.16072,-0.180939 -0.3209,-0.412554 -0.4375,-0.6875 -0.30239,-0.713035 -0.27651,-1.412892 0.0625,-1.59375 -0.0238,-0.285213 -0.0252,-0.520698 -0.0313,-0.75 0,-2.000853 1.73288,-3.65625 3.875,-3.65625 2.14213,0 3.90626,1.655389 3.90625,3.65625 -0.008,0.251459 -0.0421,0.518282 -0.0625,0.8125 0.29263,0.219849 0.31841,0.854119 0.0313,1.53125 -0.10366,0.244399 -0.23458,0.453252 -0.375,0.625 -0.0453,0.212421 -0.0665,0.377622 -0.125,0.625 -0.1591,0.47768 -0.77454,1.422232 -1.25,2.15625 -0.0306,0.488169 -0.029,0.973119 0.0313,1.46875 1.48681,1.293882 5.33675,1.986365 5.34375,3.09375 l 0.53125,3.40625 c 0,0.679536 -1.02726,1.261748 -2.625,1.6875 L 142.46875,54 a 0.56323436,0.56366726 0 0 1 -0.34375,0.34375 c -0.0727,0.02814 -0.11327,0.09834 -0.3125,0.15625 -1.04948,0.304919 -2.67192,0.53125 -4.46875,0.53125 -1.67825,0 -3.17234,-0.195818 -4.21875,-0.46875 l -0.3125,1.09375 a 0.75097913,0.75155633 0 0 1 -0.4375,0.5 c -0.0969,0.03751 -0.17187,0.11032 -0.4375,0.1875 -1.39931,0.40656 -3.54173,0.6875 -5.9375,0.6875 -2.39577,0 -4.53819,-0.28094 -5.9375,-0.6875 -0.26563,-0.07718 -0.3406,-0.14997 -0.4375,-0.1875 a 0.75097913,0.75155633 0 0 1 -0.4375,-0.5 l -0.28125,-1.125 c -1.04913,0.276901 -2.5569,0.5 -4.25,0.5 -1.79683,0 -3.41928,-0.226331 -4.46875,-0.53125 -0.19922,-0.05788 -0.2398,-0.12812 -0.3125,-0.15625 a 0.56323436,0.56366726 0 0 1 -0.34375,-0.375 L 109.3125,53.0625 c -1.63775,-0.42642 -2.6875,-1.029508 -2.6875,-1.71875 l 0.53125,-3.40625 c -0.006,-1.293883 3.83846,-1.843922 5.34375,-3.09375 0.1049,-0.612236 0.0833,-1.149264 0.0313,-1.6875 -0.52297,-0.697718 -1.10628,-1.506017 -1.25,-1.9375 -0.0465,-0.212503 -0.0554,-0.342862 -0.0937,-0.53125 -0.005,-0.0059 -0.0252,-0.02525 -0.0313,-0.03125 -0.16071,-0.18094 -0.32089,-0.412555 -0.4375,-0.6875 -0.30249,-0.713036 -0.24526,-1.412891 0.0937,-1.59375 -0.0238,-0.285213 -0.0565,-0.520698 -0.0625,-0.75 0,-2.000852 1.76412,-3.65625 3.90625,-3.65625 2.14213,0 3.875,1.65539 3.875,3.65625 -0.008,0.251459 -0.0421,0.518282 -0.0625,0.8125 0.29264,0.21985 0.31843,0.854118 0.0313,1.53125 -0.10364,0.244399 -0.23459,0.453253 -0.375,0.625 -0.0454,0.212422 -0.0665,0.377622 -0.125,0.625 -0.1591,0.477681 -0.77451,1.422233 -1.25,2.15625 -0.0306,0.48817 -0.0289,0.973119 0.0313,1.46875 0.38073,0.331318 0.91137,0.635607 1.5,0.90625 1.63637,-0.694398 3.71389,-1.343139 4.84375,-2.28125 0.1399,-0.816309 0.1321,-1.532355 0.0625,-2.25 -0.6973,-0.930294 -1.49588,-2.018435 -1.6875,-2.59375 -0.0618,-0.283336 -0.0739,-0.467564 -0.125,-0.71875 -0.007,-0.0079 -0.0242,-0.02325 -0.0313,-0.03125 -0.21426,-0.241252 -0.43828,-0.539649 -0.59375,-0.90625 -0.4032,-0.950709 -0.327,-1.883848 0.125,-2.125 -0.0316,-0.380282 -0.0555,-0.756766 -0.0625,-1.0625 0,-2.667818 2.33134,-4.8125 5.1875,-4.8125 z"
       style="font-size:8.9971447px;font-style:normal;font-variant:normal;font-weight:bold;font-stretch:normal;text-align:start;line-height:125%;writing-mode:lr-tb;text-anchor:start;opacity:0.85;fill:#ffffff;fill-opacity:1;stroke:none;display:inline;font-family:Sans;-inkscape-font-specification:Abandoned Bitplane Bold"
       inkscape:connector-curvature="0" />
    <path
       inkscape:connector-curvature="0"
       id="path3196"
       d="M 105.28125,23 C 103.46816,23 102,24.497084 102,26.34375 l 0,3 C 102,27.497084 103.46816,26 105.28125,26 l 41.4375,0 C 148.53184,26 150,27.497084 150,29.34375 l 0,-3 C 150,24.497084 148.53184,23 146.71875,23 l -41.4375,0 z m 25.90625,13.90625 c -0.009,0.02252 -0.0217,0.03993 -0.0313,0.0625 -0.1382,0.325868 -0.31278,0.614749 -0.5,0.84375 -0.0606,0.28323 -0.0784,0.482658 -0.15625,0.8125 -0.21213,0.636912 -1.05353,1.896317 -1.6875,2.875 -0.0409,0.650892 -0.049,1.307903 0.0313,1.96875 0.12753,0.110975 0.25489,0.238849 0.40625,0.34375 0.53433,-0.825956 1.08446,-1.690477 1.25,-2.1875 0.0779,-0.329842 0.0957,-0.52927 0.15625,-0.8125 0.18722,-0.229001 0.3618,-0.517882 0.5,-0.84375 0.38284,-0.902832 0.35893,-1.769364 -0.0313,-2.0625 0.0242,-0.348837 0.05,-0.690351 0.0625,-1 z M 120.84375,37.125 c 0.0115,0.232879 0.01,0.461732 0.0313,0.71875 -0.452,0.241152 -0.5282,1.174291 -0.125,2.125 0.15547,0.366601 0.37949,0.664998 0.59375,0.90625 0.007,0.008 0.0242,0.02335 0.0313,0.03125 0.0511,0.251186 0.0632,0.435414 0.125,0.71875 0.1564,0.469586 0.73249,1.274305 1.3125,2.0625 0.10464,-0.07323 0.21984,-0.141817 0.3125,-0.21875 0.1399,-0.816309 0.1321,-1.532355 0.0625,-2.25 -0.6973,-0.930294 -1.49588,-2.018435 -1.6875,-2.59375 -0.0618,-0.283336 -0.0739,-0.467564 -0.125,-0.71875 -0.007,-0.0079 -0.0241,-0.02325 -0.0313,-0.03125 -0.18025,-0.202952 -0.35256,-0.459581 -0.5,-0.75 z m -2.375,2.9375 c -0.0965,0.20629 -0.22078,0.380835 -0.34375,0.53125 -0.0454,0.212422 -0.0665,0.377622 -0.125,0.625 -0.1591,0.477681 -0.77451,1.422233 -1.25,2.15625 -0.0306,0.48817 -0.0291,0.973119 0.0313,1.46875 0.18043,0.157014 0.41827,0.293331 0.65625,0.4375 0.25821,-0.423648 0.47657,-0.804505 0.5625,-1.0625 0.0585,-0.247378 0.0796,-0.412578 0.125,-0.625 0.14041,-0.171747 0.27136,-0.380601 0.375,-0.625 0.28713,-0.677132 0.26139,-1.3114 -0.0313,-1.53125 0.0204,-0.294218 0.0545,-0.561041 0.0625,-0.8125 0,-0.195251 -0.0307,-0.375046 -0.0625,-0.5625 z m 22.71875,0 c -0.0965,0.206289 -0.22077,0.380834 -0.34375,0.53125 -0.0453,0.212421 -0.0665,0.377622 -0.125,0.625 -0.1591,0.47768 -0.77454,1.422232 -1.25,2.15625 -0.0306,0.488169 -0.0291,0.973119 0.0313,1.46875 0.18585,0.161735 0.40867,0.323824 0.65625,0.46875 0.26407,-0.432037 0.47507,-0.831262 0.5625,-1.09375 0.0585,-0.247378 0.0797,-0.412579 0.125,-0.625 0.14042,-0.171748 0.27134,-0.380601 0.375,-0.625 0.28711,-0.677131 0.26138,-1.311401 -0.0313,-1.53125 0.0204,-0.294218 0.0545,-0.561041 0.0625,-0.8125 0,-0.195251 -0.0302,-0.375045 -0.0625,-0.5625 z m -30.375,0.09375 c -0.0227,0.157868 -0.0625,0.305576 -0.0625,0.46875 0.006,0.229302 0.0387,0.464787 0.0625,0.75 -0.33896,0.180859 -0.39624,0.880714 -0.0937,1.59375 0.11661,0.274945 0.27679,0.50656 0.4375,0.6875 0.006,0.006 0.0263,0.02535 0.0313,0.03125 0.0383,0.188388 0.0472,0.318747 0.0937,0.53125 0.0828,0.248448 0.31495,0.625985 0.59375,1.03125 0.23291,-0.130493 0.44718,-0.258605 0.625,-0.40625 0.1049,-0.612236 0.0832,-1.149264 0.0313,-1.6875 -0.52297,-0.697718 -1.10628,-1.506017 -1.25,-1.9375 -0.0465,-0.212503 -0.0555,-0.342862 -0.0937,-0.53125 -0.005,-0.0059 -0.0251,-0.02525 -0.0313,-0.03125 -0.12053,-0.135705 -0.24197,-0.310384 -0.34375,-0.5 z m 22.71875,0 c -0.0223,0.157868 -0.0625,0.305576 -0.0625,0.46875 0.006,0.229302 0.007,0.464787 0.0313,0.75 -0.33901,0.180858 -0.36489,0.880715 -0.0625,1.59375 0.1166,0.274946 0.27678,0.506561 0.4375,0.6875 0.006,0.006 -0.005,0.02535 0,0.03125 0.0383,0.188387 0.0786,0.318748 0.125,0.53125 0.0828,0.248448 0.31495,0.625985 0.59375,1.03125 0.22512,-0.127845 0.45232,-0.262873 0.625,-0.40625 0.1049,-0.612236 0.0832,-1.149264 0.0313,-1.6875 -0.52297,-0.697718 -1.10627,-1.506017 -1.25,-1.9375 -0.0464,-0.212502 -0.0867,-0.342863 -0.125,-0.53125 -0.005,-0.0059 0.006,-0.02525 0,-0.03125 -0.12054,-0.135704 -0.24197,-0.310384 -0.34375,-0.5 z M 107,52.03125 l -0.375,2.3125 c 0,0.689242 1.04975,1.29233 2.6875,1.71875 l 0.21875,0.90625 a 0.56323436,0.56366726 0 0 0 0.34375,0.375 c 0.0727,0.02813 0.11328,0.09837 0.3125,0.15625 1.04947,0.304919 2.67192,0.53125 4.46875,0.53125 1.6931,0 3.20087,-0.223099 4.25,-0.5 l 0.28125,1.125 a 0.75097913,0.75155633 0 0 0 0.4375,0.5 c 0.0969,0.03753 0.17187,0.11032 0.4375,0.1875 1.39931,0.40656 3.54173,0.6875 5.9375,0.6875 2.39577,0 4.53819,-0.28094 5.9375,-0.6875 0.26563,-0.07718 0.3406,-0.14999 0.4375,-0.1875 a 0.75097913,0.75155633 0 0 0 0.4375,-0.5 l 0.3125,-1.09375 c 1.04641,0.272932 2.5405,0.46875 4.21875,0.46875 1.79683,0 3.41927,-0.226331 4.46875,-0.53125 0.19923,-0.05791 0.2398,-0.12811 0.3125,-0.15625 A 0.56323436,0.56366726 0 0 0 142.46875,57 L 142.75,56.03125 c 1.59774,-0.425752 2.625,-1.007964 2.625,-1.6875 L 145,52.03125 c -0.43425,0.387306 -1.22288,0.726302 -2.25,1 L 142.46875,54 a 0.56323436,0.56366726 0 0 1 -0.34375,0.34375 c -0.0727,0.02814 -0.11327,0.09834 -0.3125,0.15625 -1.04948,0.304919 -2.67192,0.53125 -4.46875,0.53125 -1.67825,0 -3.17234,-0.195818 -4.21875,-0.46875 l -0.3125,1.09375 a 0.75097913,0.75155633 0 0 1 -0.4375,0.5 c -0.0969,0.03751 -0.17187,0.11032 -0.4375,0.1875 -1.39931,0.40656 -3.54173,0.6875 -5.9375,0.6875 -2.39577,0 -4.53819,-0.28094 -5.9375,-0.6875 -0.26563,-0.07718 -0.3406,-0.14997 -0.4375,-0.1875 a 0.75097913,0.75155633 0 0 1 -0.4375,-0.5 l -0.28125,-1.125 c -1.04913,0.276901 -2.5569,0.5 -4.25,0.5 -1.79683,0 -3.41928,-0.226331 -4.46875,-0.53125 -0.19922,-0.05788 -0.2398,-0.12812 -0.3125,-0.15625 a 0.56323436,0.56366726 0 0 1 -0.34375,-0.375 L 109.3125,53.0625 C 108.25966,52.788373 107.44417,52.427352 107,52.03125 z"
       style="font-size:8.9971447px;font-style:normal;font-variant:normal;font-weight:bold;font-stretch:normal;text-align:start;line-height:125%;writing-mode:lr-tb;text-anchor:start;opacity:0.1;fill:#000000;fill-opacity:1;stroke:none;display:inline;font-family:Sans;-inkscape-font-specification:Abandoned Bitplane Bold" />
    <path
       inkscape:connector-curvature="0"
       id="path3199"
       d="M 105.28125,23 C 103.46816,23 102,24.497084 102,26.34375 l 0,2 C 102,26.497084 103.46816,25 105.28125,25 l 41.4375,0 C 148.53184,25 150,26.497084 150,28.34375 l 0,-2 C 150,24.497084 148.53184,23 146.71875,23 l -41.4375,0 z m 15.4375,13.96875 c -0.31188,0.35316 -0.32155,1.16813 0.0313,2 0.15547,0.366601 0.37949,0.664998 0.59375,0.90625 0.007,0.008 0.0242,0.02335 0.0313,0.03125 0.0511,0.251186 0.0632,0.435414 0.125,0.71875 0.18926,0.568225 0.96518,1.639929 1.65625,2.5625 0.0924,-0.696893 0.0924,-1.338414 0.0313,-1.96875 -0.6973,-0.930294 -1.49588,-2.018435 -1.6875,-2.59375 -0.0618,-0.283336 -0.0739,-0.467564 -0.125,-0.71875 -0.007,-0.0079 -0.0241,-0.02325 -0.0313,-0.03125 -0.21426,-0.241252 -0.43828,-0.539649 -0.59375,-0.90625 -0.006,0.0059 -0.0258,-0.0062 -0.0313,0 z m 10.4375,0 c -0.1382,0.325868 -0.31278,0.614749 -0.5,0.84375 -0.0606,0.28323 -0.0784,0.482658 -0.15625,0.8125 -0.21213,0.636912 -1.05353,1.896317 -1.6875,2.875 -0.0403,0.640761 -0.0451,1.287057 0.0313,1.9375 0.62943,-0.970361 1.44809,-2.187517 1.65625,-2.8125 0.0779,-0.329842 0.0957,-0.52927 0.15625,-0.8125 0.18722,-0.229001 0.3618,-0.517882 0.5,-0.84375 0.36489,-0.860512 0.33908,-1.670494 0,-2 z m -12.65625,3 c -0.10364,0.244399 -0.23459,0.453253 -0.375,0.625 -0.0454,0.212422 -0.0665,0.377622 -0.125,0.625 -0.1591,0.477681 -0.77451,1.422233 -1.25,2.15625 -0.0306,0.48817 -0.0291,0.973119 0.0313,1.46875 0.0615,0.05351 0.14983,0.104182 0.21875,0.15625 0.42403,-0.658356 0.86642,-1.380187 1,-1.78125 0.0585,-0.247378 0.0796,-0.412578 0.125,-0.625 0.14041,-0.171747 0.27136,-0.380601 0.375,-0.625 0.28713,-0.677132 0.26139,-1.3114 -0.0313,-1.53125 0.0118,-0.169608 0.018,-0.315045 0.0313,-0.46875 z m 22.71875,0 c -0.10366,0.244399 -0.23458,0.453252 -0.375,0.625 -0.0453,0.212421 -0.0665,0.377622 -0.125,0.625 -0.1591,0.47768 -0.77454,1.422232 -1.25,2.15625 -0.0306,0.488169 -0.0291,0.973119 0.0313,1.46875 0.0619,0.05391 0.14904,0.104353 0.21875,0.15625 0.42402,-0.658357 0.86642,-1.380188 1,-1.78125 0.0585,-0.247378 0.0797,-0.412579 0.125,-0.625 0.14042,-0.171748 0.27134,-0.380601 0.375,-0.625 0.28711,-0.677131 0.26138,-1.311401 -0.0313,-1.53125 0.0118,-0.169608 0.018,-0.315045 0.0313,-0.46875 z M 133.5,40.0625 c 0.004,0.10456 -0.01,0.193867 0,0.3125 -0.33901,0.180858 -0.36489,0.880715 -0.0625,1.59375 0.1166,0.274946 0.27678,0.506561 0.4375,0.6875 0.006,0.006 -0.005,0.02535 0,0.03125 0.0383,0.188387 0.0786,0.318748 0.125,0.53125 0.12908,0.387511 0.61769,1.07644 1.09375,1.71875 0.0387,-0.02923 0.0889,-0.06378 0.125,-0.09375 0.1049,-0.612236 0.0832,-1.149264 0.0313,-1.6875 -0.52297,-0.697718 -1.10627,-1.506017 -1.25,-1.9375 -0.0464,-0.212502 -0.0867,-0.342863 -0.125,-0.53125 -0.005,-0.0059 0.006,-0.02525 0,-0.03125 -0.13929,-0.156814 -0.26454,-0.365591 -0.375,-0.59375 z m -22.71875,0.0625 c 0.009,0.0859 0.0233,0.154601 0.0313,0.25 -0.33896,0.180859 -0.39624,0.880714 -0.0937,1.59375 0.11661,0.274945 0.27679,0.50656 0.4375,0.6875 0.006,0.006 0.0263,0.02535 0.0313,0.03125 0.0383,0.188388 0.0472,0.318747 0.0937,0.53125 0.12907,0.387511 0.61769,1.07644 1.09375,1.71875 0.04,-0.03007 0.0878,-0.06285 0.125,-0.09375 0.1049,-0.612236 0.0832,-1.149264 0.0313,-1.6875 -0.52297,-0.697718 -1.10628,-1.506017 -1.25,-1.9375 -0.0465,-0.212503 -0.0555,-0.342862 -0.0937,-0.53125 -0.005,-0.0059 -0.0251,-0.02525 -0.0313,-0.03125 -0.12857,-0.144752 -0.26915,-0.325395 -0.375,-0.53125 z m -3.9375,11.75 -0.21875,1.46875 c 0,0.689242 1.04975,1.29233 2.6875,1.71875 l 0.21875,0.90625 a 0.56323436,0.56366726 0 0 0 0.34375,0.375 c 0.0727,0.02813 0.11328,0.09837 0.3125,0.15625 1.04947,0.304919 2.67192,0.53125 4.46875,0.53125 1.6931,0 3.20087,-0.223099 4.25,-0.5 l 0.28125,1.125 a 0.75097913,0.75155633 0 0 0 0.4375,0.5 c 0.0969,0.03753 0.17187,0.11032 0.4375,0.1875 1.39931,0.40656 3.54173,0.6875 5.9375,0.6875 2.39577,0 4.53819,-0.28094 5.9375,-0.6875 0.26563,-0.07718 0.3406,-0.14999 0.4375,-0.1875 a 0.75097913,0.75155633 0 0 0 0.4375,-0.5 l 0.3125,-1.09375 c 1.04641,0.272932 2.5405,0.46875 4.21875,0.46875 1.79683,0 3.41927,-0.226331 4.46875,-0.53125 0.19923,-0.05791 0.2398,-0.12811 0.3125,-0.15625 A 0.56323436,0.56366726 0 0 0 142.46875,56 L 142.75,55.03125 c 1.59774,-0.425752 2.625,-1.007964 2.625,-1.6875 L 145.15625,51.875 c -0.37892,0.456239 -1.23648,0.844539 -2.40625,1.15625 L 142.46875,54 a 0.56323436,0.56366726 0 0 1 -0.34375,0.34375 c -0.0727,0.02814 -0.11327,0.09834 -0.3125,0.15625 -1.04948,0.304919 -2.67192,0.53125 -4.46875,0.53125 -1.67825,0 -3.17234,-0.195818 -4.21875,-0.46875 l -0.3125,1.09375 a 0.75097913,0.75155633 0 0 1 -0.4375,0.5 c -0.0969,0.03751 -0.17187,0.11032 -0.4375,0.1875 -1.39931,0.40656 -3.54173,0.6875 -5.9375,0.6875 -2.39577,0 -4.53819,-0.28094 -5.9375,-0.6875 -0.26563,-0.07718 -0.3406,-0.14997 -0.4375,-0.1875 a 0.75097913,0.75155633 0 0 1 -0.4375,-0.5 l -0.28125,-1.125 c -1.04913,0.276901 -2.5569,0.5 -4.25,0.5 -1.79683,0 -3.41928,-0.226331 -4.46875,-0.53125 -0.19922,-0.05788 -0.2398,-0.12812 -0.3125,-0.15625 a 0.56323436,0.56366726 0 0 1 -0.34375,-0.375 L 109.3125,53.0625 c -1.19907,-0.3122 -2.08127,-0.721422 -2.46875,-1.1875 z"
       style="font-size:8.9971447px;font-style:normal;font-variant:normal;font-weight:bold;font-stretch:normal;text-align:start;line-height:125%;writing-mode:lr-tb;text-anchor:start;opacity:0.2;fill:#000000;fill-opacity:1;stroke:none;display:inline;font-family:Sans;-inkscape-font-specification:Abandoned Bitplane Bold" />
    <path
       inkscape:connector-curvature="0"
       id="path3201"
       d="M 105.28125,23 C 103.46816,23 102,24.497084 102,26.34375 l 0,1 C 102,25.497084 103.46816,24 105.28125,24 l 41.4375,0 C 148.53184,24 150,25.497084 150,27.34375 l 0,-1 C 150,24.497084 148.53184,23 146.71875,23 l -41.4375,0 z m 15.5625,11.28125 c -0.0178,0.162256 -0.0313,0.333261 -0.0313,0.5 6.2e-4,0.02688 -8.7e-4,0.06582 0,0.09375 0.0179,-0.01276 0.0432,-0.02096 0.0625,-0.03125 -0.0167,-0.201287 -0.0202,-0.37327 -0.0313,-0.5625 z m 10.3125,0.03125 c -0.0112,0.199983 -0.0169,0.386741 -0.0313,0.59375 0.0244,0.01832 0.041,0.03983 0.0625,0.0625 0.003,-0.05883 -0.002,-0.131792 0,-0.1875 0,-0.156358 -0.0156,-0.316313 -0.0313,-0.46875 z m -10.59375,2.03125 c -0.11502,0.417934 -0.0748,1.00643 0.1875,1.625 0.15547,0.366601 0.37949,0.664998 0.59375,0.90625 0.007,0.008 0.0242,0.02335 0.0313,0.03125 0.0511,0.251186 0.0632,0.435414 0.125,0.71875 0.19162,0.575315 0.9902,1.663456 1.6875,2.59375 0.0139,0.143646 0.023,0.293165 0.0313,0.4375 0.0303,-0.491724 0.0139,-0.972197 -0.0313,-1.4375 -0.6973,-0.930294 -1.49588,-2.018435 -1.6875,-2.59375 -0.0618,-0.283336 -0.0739,-0.467564 -0.125,-0.71875 -0.007,-0.0079 -0.0242,-0.02325 -0.0313,-0.03125 -0.21426,-0.241252 -0.43828,-0.539649 -0.59375,-0.90625 -0.0912,-0.214935 -0.14415,-0.419654 -0.1875,-0.625 z m 10.8125,0 c -0.0456,0.204519 -0.12714,0.408965 -0.21875,0.625 -0.1382,0.325868 -0.31278,0.614749 -0.5,0.84375 -0.0606,0.28323 -0.0784,0.482658 -0.15625,0.8125 -0.21213,0.636912 -1.05353,1.896317 -1.6875,2.875 -0.0275,0.437516 -0.019,0.870148 0,1.3125 0.005,-0.105182 -0.007,-0.207627 0,-0.3125 0.63397,-0.978683 1.47537,-2.238088 1.6875,-2.875 0.0779,-0.329842 0.0956,-0.52927 0.15625,-0.8125 0.18722,-0.229001 0.3618,-0.517882 0.5,-0.84375 0.26293,-0.620058 0.32643,-1.213178 0.21875,-1.625 z M 110.8125,38.25 c -0.006,0.05346 -0.0276,0.102168 -0.0313,0.15625 0.0121,-0.0084 0.0183,-0.02434 0.0313,-0.03125 -0.004,-0.04721 0.004,-0.08032 0,-0.125 z m 7.65625,0 c -0.006,0.06476 0.005,0.120003 0,0.1875 0.0214,0.01606 0.044,0.04217 0.0625,0.0625 -0.003,-0.08765 -0.0527,-0.163919 -0.0625,-0.25 z m 22.71875,0 c -0.006,0.06476 0.005,0.120003 0,0.1875 0.0214,0.01606 0.044,0.04217 0.0625,0.0625 -0.003,-0.08765 -0.0526,-0.163919 -0.0625,-0.25 z m -7.875,1.34375 c -0.13612,0.306558 -0.10179,0.840224 0.125,1.375 0.1166,0.274946 0.27678,0.506561 0.4375,0.6875 0.006,0.006 -0.005,0.02535 0,0.03125 0.0383,0.188387 0.0786,0.318748 0.125,0.53125 0.14373,0.431483 0.72703,1.239782 1.25,1.9375 0.005,0.05168 -0.004,0.104528 0,0.15625 0.0258,-0.399658 0.0362,-0.781261 0,-1.15625 -0.52297,-0.697718 -1.10627,-1.506017 -1.25,-1.9375 -0.0464,-0.212502 -0.0867,-0.342863 -0.125,-0.53125 -0.005,-0.0059 0.006,-0.02525 0,-0.03125 -0.16072,-0.180939 -0.3209,-0.412554 -0.4375,-0.6875 -0.0539,-0.127165 -0.0919,-0.251542 -0.125,-0.375 z M 110.625,39.625 c -0.13248,0.309645 -0.12719,0.822954 0.0937,1.34375 0.11661,0.274945 0.27679,0.50656 0.4375,0.6875 0.006,0.006 0.0263,0.02535 0.0313,0.03125 0.0383,0.188388 0.0473,0.318747 0.0937,0.53125 0.14372,0.431483 0.72703,1.239782 1.25,1.9375 0.005,0.05168 -0.004,0.104528 0,0.15625 0.0258,-0.399658 0.0362,-0.781261 0,-1.15625 -0.52297,-0.697718 -1.10628,-1.506017 -1.25,-1.9375 -0.0465,-0.212503 -0.0555,-0.342862 -0.0937,-0.53125 -0.005,-0.0059 -0.0251,-0.02525 -0.0313,-0.03125 -0.16071,-0.18094 -0.32089,-0.412555 -0.4375,-0.6875 -0.0487,-0.114676 -0.0634,-0.23186 -0.0937,-0.34375 z m 7.96875,0.03125 c -0.0297,0.101945 -0.0491,0.207075 -0.0937,0.3125 -0.10364,0.244399 -0.23459,0.453253 -0.375,0.625 -0.0454,0.212422 -0.0665,0.377622 -0.125,0.625 -0.1591,0.477681 -0.77451,1.422233 -1.25,2.15625 -0.0211,0.335827 -0.0181,0.662695 0,1 0.47549,-0.734017 1.0909,-1.678569 1.25,-2.15625 0.0585,-0.247378 0.0796,-0.412578 0.125,-0.625 0.14041,-0.171747 0.27136,-0.380601 0.375,-0.625 0.22583,-0.532576 0.23265,-1.013735 0.0937,-1.3125 z m 22.71875,0 c -0.0297,0.101945 -0.0491,0.207075 -0.0937,0.3125 -0.10366,0.244399 -0.23458,0.453252 -0.375,0.625 -0.0453,0.212421 -0.0665,0.377622 -0.125,0.625 -0.1591,0.47768 -0.77454,1.422232 -1.25,2.15625 -0.0211,0.335827 -0.0181,0.662695 0,1 0.47546,-0.734018 1.0909,-1.67857 1.25,-2.15625 0.0585,-0.247378 0.0797,-0.412579 0.125,-0.625 0.14042,-0.171748 0.27134,-0.380601 0.375,-0.625 0.22582,-0.532575 0.23265,-1.013735 0.0937,-1.3125 z m -34.59375,12.03125 -0.0937,0.65625 c 0,0.689242 1.04975,1.29233 2.6875,1.71875 l 0.21875,0.90625 a 0.56323436,0.56366726 0 0 0 0.34375,0.375 c 0.0727,0.02813 0.11328,0.09837 0.3125,0.15625 1.04947,0.304919 2.67192,0.53125 4.46875,0.53125 1.6931,0 3.20087,-0.223099 4.25,-0.5 l 0.28125,1.125 a 0.75097913,0.75155633 0 0 0 0.4375,0.5 c 0.0969,0.03753 0.17187,0.11032 0.4375,0.1875 1.39931,0.40656 3.54173,0.6875 5.9375,0.6875 2.39577,0 4.53819,-0.28094 5.9375,-0.6875 0.26563,-0.07718 0.3406,-0.14999 0.4375,-0.1875 a 0.75097913,0.75155633 0 0 0 0.4375,-0.5 l 0.3125,-1.09375 c 1.04641,0.272932 2.5405,0.46875 4.21875,0.46875 1.79683,0 3.41927,-0.226331 4.46875,-0.53125 0.19923,-0.05791 0.2398,-0.12811 0.3125,-0.15625 A 0.56323436,0.56366726 0 0 0 142.46875,55 L 142.75,54.03125 c 1.59774,-0.425752 2.625,-1.007964 2.625,-1.6875 l -0.0937,-0.65625 c -0.27738,0.536161 -1.20313,0.989844 -2.53125,1.34375 L 142.46875,54 a 0.56323436,0.56366726 0 0 1 -0.34375,0.34375 c -0.0727,0.02814 -0.11327,0.09834 -0.3125,0.15625 -1.04948,0.304919 -2.67192,0.53125 -4.46875,0.53125 -1.67825,0 -3.17234,-0.195818 -4.21875,-0.46875 l -0.3125,1.09375 a 0.75097913,0.75155633 0 0 1 -0.4375,0.5 c -0.0969,0.03751 -0.17187,0.11032 -0.4375,0.1875 -1.39931,0.40656 -3.54173,0.6875 -5.9375,0.6875 -2.39577,0 -4.53819,-0.28094 -5.9375,-0.6875 -0.26563,-0.07718 -0.3406,-0.14997 -0.4375,-0.1875 a 0.75097913,0.75155633 0 0 1 -0.4375,-0.5 l -0.28125,-1.125 c -1.04913,0.276901 -2.5569,0.5 -4.25,0.5 -1.79683,0 -3.41928,-0.226331 -4.46875,-0.53125 -0.19922,-0.05788 -0.2398,-0.12812 -0.3125,-0.15625 a 0.56323436,0.56366726 0 0 1 -0.34375,-0.375 L 109.3125,53.0625 c -1.36138,-0.354462 -2.31018,-0.82838 -2.59375,-1.375 z"
       style="font-size:8.9971447px;font-style:normal;font-variant:normal;font-weight:bold;font-stretch:normal;text-align:start;line-height:125%;writing-mode:lr-tb;text-anchor:start;opacity:0.3;fill:#000000;fill-opacity:1;stroke:none;display:inline;font-family:Sans;-inkscape-font-specification:Abandoned Bitplane Bold" />
    <path
       style="font-size:8.9971447px;font-style:normal;font-variant:normal;font-weight:bold;font-stretch:normal;text-align:start;line-height:125%;writing-mode:lr-tb;text-anchor:start;opacity:0.85;fill:#ffffff;fill-opacity:1;stroke:none;display:inline;font-family:Sans;-inkscape-font-specification:Abandoned Bitplane Bold"
       d="m 126,27.96875 c -2.85616,0 -5.1875,2.144682 -5.1875,4.8125 0.003,0.143906 0.0214,0.331727 0.0313,0.5 0.26659,-2.433836 2.4786,-4.3125 5.15625,-4.3125 2.67766,0 4.88963,1.878668 5.15625,4.3125 0.009,-0.167728 0.0262,-0.35093 0.0313,-0.5 -4e-5,-2.667812 -2.33133,-4.8125 -5.1875,-4.8125 z m -11.34375,5 c -2.14213,0 -3.90625,1.655398 -3.90625,3.65625 0.005,0.191349 0.041,0.399736 0.0625,0.625 0.21046,-1.822198 1.84197,-3.28125 3.84375,-3.28125 2.00178,0 3.60561,1.459047 3.8125,3.28125 0.0189,-0.217523 0.0563,-0.431229 0.0625,-0.625 0,-2.00086 -1.73287,-3.65625 -3.875,-3.65625 z m 22.6875,0 c -2.14212,0 -3.875,1.655397 -3.875,3.65625 0.006,0.229302 0.007,0.464787 0.0313,0.75 0.14165,-1.88284 1.7947,-3.40625 3.84375,-3.40625 2.00178,0 3.63329,1.459046 3.84375,3.28125 0.0189,-0.217523 0.0563,-0.431229 0.0625,-0.625 1e-5,-2.000861 -1.76412,-3.65625 -3.90625,-3.65625 z M 133.5,37.375 c -0.27396,0.146155 -0.33051,0.630418 -0.1875,1.1875 0.0444,-0.08748 0.11122,-0.146807 0.1875,-0.1875 -0.0238,-0.285213 -0.0251,-0.520698 -0.0313,-0.75 0,-0.08693 0.0248,-0.164479 0.0313,-0.25 z m -12.6875,-3.5 c -0.30692,0.218637 -0.3902,0.804571 -0.25,1.46875 0.0618,-0.224408 0.15459,-0.415751 0.3125,-0.5 -0.0288,-0.346843 -0.0535,-0.679023 -0.0625,-0.96875 z m 10.375,0.09375 c -0.0128,0.295243 -0.0398,0.61039 -0.0625,0.9375 0.11632,0.08739 0.19985,0.231175 0.25,0.40625 0.12511,-0.585141 0.0492,-1.094385 -0.1875,-1.34375 z m -20.40625,3.4375 c -0.24984,0.173077 -0.29752,0.641782 -0.15625,1.1875 0.0483,-0.102186 0.10276,-0.173535 0.1875,-0.21875 -0.0238,-0.285213 -0.0565,-0.520698 -0.0625,-0.75 0,-0.07624 0.0262,-0.143585 0.0313,-0.21875 z m 7.75,0.09375 c 0.002,0.04244 0,0.08223 0,0.125 -0.008,0.251459 -0.0421,0.518282 -0.0625,0.8125 0.0625,0.04693 0.0873,0.137657 0.125,0.21875 0.14716,-0.505012 0.13295,-0.941527 -0.0625,-1.15625 z m 22.71875,0 c 0.002,0.04244 0,0.08223 0,0.125 -0.008,0.251459 -0.0421,0.518282 -0.0625,0.8125 0.0625,0.04693 0.0873,0.137657 0.125,0.21875 0.14716,-0.505012 0.13295,-0.941527 -0.0625,-1.15625 z m -18.03125,4.15625 c -0.0164,0.26667 -0.0446,0.525466 -0.0937,0.8125 -1.12986,0.938111 -3.20738,1.586852 -4.84375,2.28125 -0.58863,-0.270643 -1.11927,-0.574932 -1.5,-0.90625 -0.0163,-0.134162 -0.023,-0.273377 -0.0313,-0.40625 -0.0265,0.466743 -0.0264,0.932128 0.0313,1.40625 0.38073,0.331318 0.91137,0.635607 1.5,0.90625 1.63637,-0.694398 3.71389,-1.343139 4.84375,-2.28125 0.1119,-0.652914 0.12688,-1.235749 0.0937,-1.8125 z m 5.59375,0.15625 c -0.0242,0.547623 -0.0361,1.10188 0.0313,1.65625 1.06734,0.928823 3.04578,1.632943 4.65625,2.3125 0.66766,-0.277686 1.28899,-0.580678 1.71875,-0.9375 0.0948,-0.553454 0.0722,-1.044264 0.0313,-1.53125 -0.0112,0.173986 5.7e-4,0.345559 -0.0313,0.53125 -0.42976,0.356822 -1.05109,0.659814 -1.71875,0.9375 -1.61047,-0.679557 -3.58891,-1.383677 -4.65625,-2.3125 -0.0263,-0.21664 -0.022,-0.440515 -0.0313,-0.65625 z m -16.28125,1.5 c -0.0112,0.173986 5.7e-4,0.345559 -0.0313,0.53125 -1.50529,1.249828 -5.34975,1.799867 -5.34375,3.09375 l -0.53125,3.40625 c 0,0.11631 0.0362,0.232782 0.0937,0.34375 l 0.4375,-2.75 c -0.006,-1.293883 3.83846,-1.843922 5.34375,-3.09375 0.0948,-0.553454 0.0722,-1.044264 0.0313,-1.53125 z m 26.9375,0.125 c -0.0265,0.466742 -0.0264,0.932128 0.0313,1.40625 1.48681,1.293882 5.33675,1.986365 5.34375,3.09375 l 0.4375,2.75 c 0.0563,-0.108845 0.0937,-0.229078 0.0937,-0.34375 l -0.53125,-3.40625 c -0.007,-1.107385 -3.85694,-1.799868 -5.34375,-3.09375 -0.0163,-0.134162 -0.023,-0.273377 -0.0313,-0.40625 z M 102,58.65625 l 0,1 C 102,61.502916 103.46816,63 105.28125,63 l 41.4375,0 C 148.53184,63 150,61.502916 150,59.65625 l 0,-1 C 150,60.502916 148.53184,62 146.71875,62 l -41.4375,0 C 103.46816,62 102,60.502916 102,58.65625 z"
       id="path3217"
       inkscape:connector-curvature="0" />
    <path
       style="font-size:8.9971447px;font-style:normal;font-variant:normal;font-weight:bold;font-stretch:normal;text-align:start;line-height:125%;writing-mode:lr-tb;text-anchor:start;opacity:0.5;fill:#000000;fill-opacity:1;stroke:none;display:inline;font-family:Sans;-inkscape-font-specification:Abandoned Bitplane Bold"
       d="M 105.28125,22 C 103.46816,22 102,23.497084 102,25.34375 l 0,1 C 102,24.497084 103.46816,23 105.28125,23 l 41.4375,0 C 148.53184,23 150,24.497084 150,26.34375 l 0,-1 C 150,23.497084 148.53184,22 146.71875,22 l -41.4375,0 z m 15.5625,11.28125 c -0.0178,0.162256 -0.0313,0.333261 -0.0313,0.5 6.2e-4,0.02688 -8.7e-4,0.06582 0,0.09375 0.0179,-0.01276 0.0432,-0.02096 0.0625,-0.03125 -0.0167,-0.201287 -0.0202,-0.37327 -0.0313,-0.5625 z m 10.3125,0.03125 c -0.0112,0.199983 -0.0169,0.386741 -0.0313,0.59375 0.0244,0.01832 0.041,0.03983 0.0625,0.0625 0.003,-0.05883 -0.002,-0.131792 0,-0.1875 0,-0.156358 -0.0156,-0.316313 -0.0313,-0.46875 z m -10.59375,2.03125 c -0.11502,0.417934 -0.0748,1.00643 0.1875,1.625 0.15547,0.366601 0.37949,0.664998 0.59375,0.90625 0.007,0.008 0.0242,0.02335 0.0313,0.03125 0.0511,0.251186 0.0632,0.435414 0.125,0.71875 0.19162,0.575315 0.9902,1.663456 1.6875,2.59375 0.0139,0.143646 0.023,0.293165 0.0313,0.4375 0.0303,-0.491724 0.0139,-0.972197 -0.0313,-1.4375 -0.6973,-0.930294 -1.49588,-2.018435 -1.6875,-2.59375 -0.0618,-0.283336 -0.0739,-0.467564 -0.125,-0.71875 -0.007,-0.0079 -0.0242,-0.02325 -0.0313,-0.03125 -0.21426,-0.241252 -0.43828,-0.539649 -0.59375,-0.90625 -0.0912,-0.214935 -0.14415,-0.419654 -0.1875,-0.625 z m 10.8125,0 c -0.0456,0.204519 -0.12714,0.408965 -0.21875,0.625 -0.1382,0.325868 -0.31278,0.614749 -0.5,0.84375 -0.0606,0.28323 -0.0784,0.482658 -0.15625,0.8125 -0.21213,0.636912 -1.05353,1.896317 -1.6875,2.875 -0.0275,0.437516 -0.019,0.870148 0,1.3125 0.005,-0.105182 -0.007,-0.207627 0,-0.3125 0.63397,-0.978683 1.47537,-2.238088 1.6875,-2.875 0.0779,-0.329842 0.0956,-0.52927 0.15625,-0.8125 0.18722,-0.229001 0.3618,-0.517882 0.5,-0.84375 0.26293,-0.620058 0.32643,-1.213178 0.21875,-1.625 z M 110.8125,37.25 c -0.006,0.05346 -0.0276,0.102168 -0.0313,0.15625 0.0121,-0.0084 0.0183,-0.02434 0.0313,-0.03125 -0.004,-0.04721 0.004,-0.08032 0,-0.125 z m 7.65625,0 c -0.006,0.06476 0.005,0.120003 0,0.1875 0.0214,0.01606 0.044,0.04217 0.0625,0.0625 -0.003,-0.08765 -0.0527,-0.163919 -0.0625,-0.25 z m 22.71875,0 c -0.006,0.06476 0.005,0.120003 0,0.1875 0.0214,0.01606 0.044,0.04217 0.0625,0.0625 -0.003,-0.08765 -0.0526,-0.163919 -0.0625,-0.25 z m -7.875,1.34375 c -0.13612,0.306558 -0.10179,0.840224 0.125,1.375 0.1166,0.274946 0.27678,0.506561 0.4375,0.6875 0.006,0.006 -0.005,0.02535 0,0.03125 0.0383,0.188387 0.0786,0.318748 0.125,0.53125 0.14373,0.431483 0.72703,1.239782 1.25,1.9375 0.005,0.05168 -0.004,0.104528 0,0.15625 0.0258,-0.399658 0.0362,-0.781261 0,-1.15625 -0.52297,-0.697718 -1.10627,-1.506017 -1.25,-1.9375 -0.0464,-0.212502 -0.0867,-0.342863 -0.125,-0.53125 -0.005,-0.0059 0.006,-0.02525 0,-0.03125 -0.16072,-0.180939 -0.3209,-0.412554 -0.4375,-0.6875 -0.0539,-0.127165 -0.0919,-0.251542 -0.125,-0.375 z M 110.625,38.625 c -0.13248,0.309645 -0.12719,0.822954 0.0937,1.34375 0.11661,0.274945 0.27679,0.50656 0.4375,0.6875 0.006,0.006 0.0263,0.02535 0.0313,0.03125 0.0383,0.188388 0.0473,0.318747 0.0937,0.53125 0.14372,0.431483 0.72703,1.239782 1.25,1.9375 0.005,0.05168 -0.004,0.104528 0,0.15625 0.0258,-0.399658 0.0362,-0.781261 0,-1.15625 -0.52297,-0.697718 -1.10628,-1.506017 -1.25,-1.9375 -0.0465,-0.212503 -0.0555,-0.342862 -0.0937,-0.53125 -0.005,-0.0059 -0.0251,-0.02525 -0.0313,-0.03125 -0.16071,-0.18094 -0.32089,-0.412555 -0.4375,-0.6875 -0.0487,-0.114676 -0.0634,-0.23186 -0.0937,-0.34375 z m 7.96875,0.03125 c -0.0297,0.101945 -0.0491,0.207075 -0.0937,0.3125 -0.10364,0.244399 -0.23459,0.453253 -0.375,0.625 -0.0454,0.212422 -0.0665,0.377622 -0.125,0.625 -0.1591,0.477681 -0.77451,1.422233 -1.25,2.15625 -0.0211,0.335827 -0.0181,0.662695 0,1 0.47549,-0.734017 1.0909,-1.678569 1.25,-2.15625 0.0585,-0.247378 0.0796,-0.412578 0.125,-0.625 0.14041,-0.171747 0.27136,-0.380601 0.375,-0.625 0.22583,-0.532576 0.23265,-1.013735 0.0937,-1.3125 z m 22.71875,0 c -0.0297,0.101945 -0.0491,0.207075 -0.0937,0.3125 -0.10366,0.244399 -0.23458,0.453252 -0.375,0.625 -0.0453,0.212421 -0.0665,0.377622 -0.125,0.625 -0.1591,0.47768 -0.77454,1.422232 -1.25,2.15625 -0.0211,0.335827 -0.0181,0.662695 0,1 0.47546,-0.734018 1.0909,-1.67857 1.25,-2.15625 0.0585,-0.247378 0.0797,-0.412579 0.125,-0.625 0.14042,-0.171748 0.27134,-0.380601 0.375,-0.625 0.22582,-0.532575 0.23265,-1.013735 0.0937,-1.3125 z m -34.59375,12.03125 -0.0937,0.65625 c 0,0.689242 1.04975,1.29233 2.6875,1.71875 l 0.21875,0.90625 a 0.56323436,0.56366726 0 0 0 0.34375,0.375 c 0.0727,0.02813 0.11328,0.09837 0.3125,0.15625 1.04947,0.304919 2.67192,0.53125 4.46875,0.53125 1.6931,0 3.20087,-0.223099 4.25,-0.5 l 0.28125,1.125 a 0.75097913,0.75155633 0 0 0 0.4375,0.5 c 0.0969,0.03753 0.17187,0.11032 0.4375,0.1875 1.39931,0.40656 3.54173,0.6875 5.9375,0.6875 2.39577,0 4.53819,-0.28094 5.9375,-0.6875 0.26563,-0.07718 0.3406,-0.14999 0.4375,-0.1875 a 0.75097913,0.75155633 0 0 0 0.4375,-0.5 l 0.3125,-1.09375 c 1.04641,0.272932 2.5405,0.46875 4.21875,0.46875 1.79683,0 3.41927,-0.226331 4.46875,-0.53125 0.19923,-0.05791 0.2398,-0.12811 0.3125,-0.15625 A 0.56323436,0.56366726 0 0 0 142.46875,54 L 142.75,53.03125 c 1.59774,-0.425752 2.625,-1.007964 2.625,-1.6875 l -0.0937,-0.65625 c -0.27738,0.536161 -1.20313,0.989844 -2.53125,1.34375 L 142.46875,53 a 0.56323436,0.56366726 0 0 1 -0.34375,0.34375 c -0.0727,0.02814 -0.11327,0.09834 -0.3125,0.15625 -1.04948,0.304919 -2.67192,0.53125 -4.46875,0.53125 -1.67825,0 -3.17234,-0.195818 -4.21875,-0.46875 l -0.3125,1.09375 a 0.75097913,0.75155633 0 0 1 -0.4375,0.5 c -0.0969,0.03751 -0.17187,0.11032 -0.4375,0.1875 -1.39931,0.40656 -3.54173,0.6875 -5.9375,0.6875 -2.39577,0 -4.53819,-0.28094 -5.9375,-0.6875 -0.26563,-0.07718 -0.3406,-0.14997 -0.4375,-0.1875 a 0.75097913,0.75155633 0 0 1 -0.4375,-0.5 l -0.28125,-1.125 c -1.04913,0.276901 -2.5569,0.5 -4.25,0.5 -1.79683,0 -3.41928,-0.226331 -4.46875,-0.53125 -0.19922,-0.05788 -0.2398,-0.12812 -0.3125,-0.15625 a 0.56323436,0.56366726 0 0 1 -0.34375,-0.375 L 109.3125,52.0625 c -1.36138,-0.354462 -2.31018,-0.82838 -2.59375,-1.375 z"
       id="path3093"
       inkscape:connector-curvature="0" />
  </g>
  <g
     id="g3213"
     transform="translate(-90,0)">
    <path
       inkscape:connector-curvature="0"
       id="path3157"
       d="m 102,5.5 c -2.7873,0 -5,2.2127028 -5,5 l 0,56.3125 c 1.07066,1.628779 2.89693,2.71875 5,2.71875 l 68,0 0,-25.21875 0,-5 0,-2 6.875,-4.125 c 0.86852,-0.47064 1.58604,-1.147137 2.125,-1.96875 L 179,10.5 c 0,-2.7872972 -2.2127,-5 -5,-5 l -72,0 z m 77,32.71875 c -0.13474,0.205403 -0.28087,0.407435 -0.4375,0.59375 0.16108,-0.189117 0.30071,-0.385228 0.4375,-0.59375 z"
       style="opacity:0.1;fill:url(#linearGradient3230);fill-opacity:1;fill-rule:nonzero;stroke:none;display:inline" />
    <path
       style="opacity:0.2;fill:url(#linearGradient3232);fill-opacity:1;fill-rule:nonzero;stroke:none"
       d="m 96,73.51565 0,2 c 0,3.324 2.676,6 6,6 l 62,0 c 3.324,0 6,-2.676 6,-6 l 0,-2 c 0,3.324 -2.676,6 -6,6 l -62,0 c -3.324,0 -6,-2.676 -6,-6 z"
       id="path3163"
       inkscape:connector-curvature="0"
       sodipodi:nodetypes="csssscssc" />
    <path
       id="path3167"
       d="m 180,29.90625 c 0,2.28525 -1.25434,4.267563 -3.125,5.28125 l -6.875,4.125 0,3 6.875,-4.125 C 178.74566,37.173813 180,35.1915 180,32.90625 l 0,-3 z"
       style="opacity:0.45;fill:#000000;fill-opacity:1;fill-rule:nonzero;stroke:none;display:inline"
       inkscape:connector-curvature="0" />
    <path
       inkscape:connector-curvature="0"
       id="path3169"
       d="m 180,27.90625 c 0,2.28525 -1.25434,4.267563 -3.125,5.28125 l -6.875,4.125 0,2 6.875,-4.125 C 178.74566,34.173813 180,32.1915 180,29.90625 l 0,-2 z"
       style="opacity:0.2;fill:#ffffff;fill-opacity:1;fill-rule:nonzero;stroke:none;display:inline" />
    <path
       style="opacity:0.05;fill:#ffffff;fill-opacity:1;fill-rule:nonzero;stroke:none;display:inline"
       d="m 180,27.90625 c 0,2.28525 -1.25434,4.267563 -3.125,5.28125 l -6.875,4.125 0,2 6.875,-4.125 C 178.74566,34.173813 180,32.1915 180,29.90625 l 0,-2 z"
       id="path3171"
       inkscape:connector-curvature="0" />
    <path
       inkscape:connector-curvature="0"
       id="path3198"
       d="m 96,75.5 0,2 c 0,3.324 2.676,6 6,6 l 62,0 c 3.324,0 6,-2.676 6,-6 l 0,-2 c 0,3.324 -2.676,6 -6,6 l -62,0 c -3.324,0 -6,-2.676 -6,-6 z"
       style="opacity:0.25;fill:#000000;fill-opacity:1;fill-rule:nonzero;stroke:none" />
    <path
       sodipodi:nodetypes="csssscssc"
       inkscape:connector-curvature="0"
       id="path3225"
       d="m 96,80.5 0,2 c 0,3.324 2.676,6 6,6 l 72,0 c 3.324,0 6,-2.676 6,-6 l 0,-2 c 0,3.324 -2.676,6 -6,6 l -72,0 c -3.324,0 -6,-2.676 -6,-6 z"
       style="opacity:0.25;fill:#000000;fill-opacity:1;fill-rule:nonzero;stroke:none" />
    <path
       sodipodi:nodetypes="csssscssc"
       inkscape:connector-curvature="0"
       id="path3227"
       d="m 96,80.5 0,2 c 0,3.324 2.676,6 6,6 l 72,0 c 3.324,0 6,-2.676 6,-6 l 0,-2 c 0,3.324 -2.676,6 -6,6 l -72,0 c -3.324,0 -6,-2.676 -6,-6 z"
       style="opacity:0.1;fill:url(#linearGradient3234);fill-opacity:1;fill-rule:nonzero;stroke:none" />
    <path
       id="path4116"
       d="m 180,79.53125 c 0,3.324 -2.676,6 -6,6 L 167.28125,85.5 c -0.94168,0.62023 -2.06399,1 -3.28125,1 l 10,0.03125 c 3.324,0 6,-2.676 6,-6 l 0,-1 z"
       style="opacity:0.15;fill:#ffffff;fill-opacity:1;fill-rule:nonzero;stroke:none"
       inkscape:connector-curvature="0" />
    <path
       inkscape:connector-curvature="0"
       id="path3316"
       d="m 102,4.5 c -3.324,0 -6,2.6759996 -6,6 l 0,15 1,0 0,-15 c 0,-2.7872972 2.2127,-5 5,-5 l 72,0 c 2.7873,0 5,2.2127028 5,5 l 0,15 1,0 0,-15 c 0,-3.3240004 -2.676,-6 -6,-6 l -72,0 z"
       style="opacity:0.45;fill:url(#radialGradient3236);fill-opacity:1;fill-rule:nonzero;stroke:none;display:inline" />
    <path
       inkscape:connector-curvature="0"
       id="path4105"
       d="m 180,32.90625 c 0,2.28525 -1.25434,4.267563 -3.125,5.28125 L 170,42.3125 170,80.5 c 0,3.324 -2.676,6 -6,6 l 2,0 c 3.324,0 6,-2.676 6,-6 l 0,-38.1875 6.875,-4.125 c 0.40921,-0.221744 0.78146,-0.505024 1.125,-0.8125 l 0,-4.46875 z"
       style="opacity:0.1;fill:#000000;fill-opacity:1;fill-rule:nonzero;stroke:none;display:inline" />
    <path
       inkscape:connector-curvature="0"
       id="path4117"
       d="m 180,37.375 c -0.34354,0.307476 -0.71579,0.590756 -1.125,0.8125 L 172,42.3125 172,80.5 c 0,3.324 -2.676,6 -6,6 l 2,0 c 3.324,0 6,-2.676 6,-6 l 0,-38.1875 6,-3.59375 0,-1.34375 z"
       style="opacity:0.05;fill:#000000;fill-opacity:1;fill-rule:nonzero;stroke:none;display:inline" />
    <path
       inkscape:connector-curvature="0"
       id="path3076"
       d="m 96,75.5 0,2 c 0,3.324 2.676,6 6,6 l 62,0 c 3.324,0 6,-2.676 6,-6 l 0,-2 c 0,3.324 -2.676,6 -6,6 l -62,0 c -3.324,0 -6,-2.676 -6,-6 z"
       style="opacity:0.1;fill:url(#linearGradient3238);fill-opacity:1;fill-rule:nonzero;stroke:none" />
    <path
       inkscape:connector-curvature="0"
       id="path3089"
       d="m 96,77.5 0,1 0,1 0,1 c 0,3.324 2.676,6 6,6 l 62,0 c 3.324,0 6,-2.676 6,-6 l 0,-1 0,-1 0,-1 c 0,3.324 -2.676,6 -6,6 l -62,0 c -3.324,0 -6,-2.676 -6,-6 z"
       style="opacity:0.65;fill:url(#linearGradient3240);fill-opacity:1;fill-rule:nonzero;stroke:none" />
    <path
       inkscape:connector-curvature="0"
       id="path4122"
       d="m 96,79.5 0,1 c 0,3.324 2.676,6 6,6 l 62,0 c 1.23052,0 2.36247,-0.369434 3.3125,-1 L 102,85.5 c -3.324,0 -6,-2.676 -6,-6 z"
       style="opacity:0.15;fill:#ffffff;fill-opacity:1;fill-rule:nonzero;stroke:none" />
  </g>
</svg>
