<?xml version="1.0" encoding="UTF-8" standalone="no"?>
<!-- Created with Inkscape (http://www.inkscape.org/) -->

<svg
   xmlns:dc="http://purl.org/dc/elements/1.1/"
   xmlns:cc="http://creativecommons.org/ns#"
   xmlns:rdf="http://www.w3.org/1999/02/22-rdf-syntax-ns#"
   xmlns:svg="http://www.w3.org/2000/svg"
   xmlns="http://www.w3.org/2000/svg"
   xmlns:xlink="http://www.w3.org/1999/xlink"
   xmlns:sodipodi="http://sodipodi.sourceforge.net/DTD/sodipodi-0.dtd"
   xmlns:inkscape="http://www.inkscape.org/namespaces/inkscape"
   version="1.0"
   width="96"
   height="96"
   id="svg2408"
   inkscape:version="0.48.2 r9819"
   sodipodi:docname="folder-video.svg">
  <metadata
     id="metadata72">
    <rdf:RDF>
      <cc:Work
         rdf:about="">
        <dc:format>image/svg+xml</dc:format>
        <dc:type
           rdf:resource="http://purl.org/dc/dcmitype/StillImage" />
        <dc:title />
      </cc:Work>
    </rdf:RDF>
  </metadata>
  <sodipodi:namedview
     pagecolor="#ffffff"
     bordercolor="#666666"
     borderopacity="1"
     objecttolerance="10"
     gridtolerance="10"
     guidetolerance="10"
     inkscape:pageopacity="0"
     inkscape:pageshadow="2"
     inkscape:window-width="1238"
     inkscape:window-height="735"
     id="namedview70"
     showgrid="false"
     inkscape:zoom="2.0926866"
     inkscape:cx="78.090256"
     inkscape:cy="73.198903"
     inkscape:window-x="10"
     inkscape:window-y="0"
     inkscape:window-maximized="0"
     inkscape:current-layer="svg2408"
     inkscape:object-paths="true"
     inkscape:snap-intersection-paths="true"
     inkscape:object-nodes="true"
     inkscape:snap-smooth-nodes="true"
     inkscape:snap-midpoints="true"
     inkscape:snap-object-midpoints="true"
     inkscape:snap-center="true"
     inkscape:snap-bbox="true"
     inkscape:bbox-paths="true"
     inkscape:bbox-nodes="true"
     inkscape:snap-bbox-edge-midpoints="true"
     inkscape:snap-bbox-midpoints="true"
     showguides="true"
     inkscape:guide-bbox="true"
     inkscape:snap-global="true" />
  <defs
     id="defs2410">
    <linearGradient
       inkscape:collect="always"
       id="linearGradient3874">
      <stop
         style="stop-color:#000000;stop-opacity:1;"
         offset="0"
         id="stop3876" />
      <stop
         style="stop-color:#000000;stop-opacity:0;"
         offset="1"
         id="stop3878" />
    </linearGradient>
    <linearGradient
       id="linearGradient4091">
      <stop
         style="stop-color:#ffffff;stop-opacity:1;"
         offset="0"
         id="stop4093" />
      <stop
         id="stop4099"
         offset="0.80000001"
         style="stop-color:#ffffff;stop-opacity:1;" />
      <stop
         style="stop-color:#ffffff;stop-opacity:0;"
         offset="1"
         id="stop4095" />
    </linearGradient>
    <linearGradient
       id="linearGradient4188">
      <stop
         style="stop-color:#ffffff;stop-opacity:0;"
         offset="0"
         id="stop4190" />
      <stop
         id="stop4198"
         offset="0.15000001"
         style="stop-color:#ffffff;stop-opacity:1;" />
      <stop
         id="stop4196"
         offset="0.85000002"
         style="stop-color:#ffffff;stop-opacity:1;" />
      <stop
         style="stop-color:#ffffff;stop-opacity:0;"
         offset="1"
         id="stop4192" />
    </linearGradient>
    <linearGradient
       inkscape:collect="always"
       id="linearGradient3888">
      <stop
         style="stop-color:#ffffff;stop-opacity:1;"
         offset="0"
         id="stop3890" />
      <stop
         style="stop-color:#ffffff;stop-opacity:0;"
         offset="1"
         id="stop3892" />
    </linearGradient>
    <linearGradient
       x1="45.447727"
       y1="92.539597"
       x2="45.447727"
       y2="7.0165396"
       id="ButtonShadow"
       gradientUnits="userSpaceOnUse"
       gradientTransform="scale(1.0058652,0.994169)">
      <stop
         id="stop3750"
         style="stop-color:#000000;stop-opacity:1"
         offset="0" />
      <stop
         id="stop3752"
         style="stop-color:#000000;stop-opacity:0.58823532"
         offset="1" />
    </linearGradient>
    <filter
       color-interpolation-filters="sRGB"
       id="filter3174">
      <feGaussianBlur
         id="feGaussianBlur3176"
         stdDeviation="1.71" />
    </filter>
    <linearGradient
       inkscape:collect="always"
       xlink:href="#gradient4-1"
       id="linearGradient3050-6"
       gradientUnits="userSpaceOnUse"
       spreadMethod="pad"
       x1="32.251045"
       y1="6.1317058"
       x2="32.251045"
       y2="90.238678"
       gradientTransform="translate(6,-89.50005)" />
    <linearGradient
       id="gradient4-1"
       gradientUnits="userSpaceOnUse"
       x1="32.251045"
       y1="6.1317058"
       x2="32.251045"
       y2="90.238678"
       spreadMethod="pad">
      <stop
         stop-color="#000000"
         offset="0.00000000000"
         stop-opacity="1.00000000000"
         id="stop27-0" />
      <stop
         stop-color="#000000"
         offset="1.00000000000"
         stop-opacity="0.58823529412"
         id="stop29-6" />
    </linearGradient>
    <linearGradient
       inkscape:collect="always"
       xlink:href="#gradient3-2"
       id="linearGradient3053-3"
       gradientUnits="userSpaceOnUse"
       gradientTransform="matrix(1.0058652,0,0,0.99416905,5,-90.50005)"
       spreadMethod="pad"
       x1="32.062981"
       y1="6.1676679"
       x2="32.062981"
       y2="90.767815" />
    <linearGradient
       id="gradient3-2"
       gradientTransform="scale(1.0058652,0.99416905)"
       gradientUnits="userSpaceOnUse"
       x1="32.062981"
       y1="6.1676679"
       x2="32.062981"
       y2="90.767815"
       spreadMethod="pad">
      <stop
         stop-color="#000000"
         offset="0.00000000000"
         stop-opacity="1.00000000000"
         id="stop22-0" />
      <stop
         stop-color="#000000"
         offset="1.00000000000"
         stop-opacity="0.58823529412"
         id="stop24-6" />
    </linearGradient>
    <linearGradient
       inkscape:collect="always"
       xlink:href="#gradient2-5"
       id="linearGradient3056-1"
       gradientUnits="userSpaceOnUse"
       gradientTransform="matrix(1.0057307,0,0,-0.99430195,4,91.50005)"
       spreadMethod="pad"
       x1="32.067265"
       y1="6.1668468"
       x2="32.067265"
       y2="90.756142" />
    <linearGradient
       id="gradient2-5"
       gradientTransform="scale(1.0057307,0.99430195)"
       gradientUnits="userSpaceOnUse"
       x1="32.067265"
       y1="6.1668468"
       x2="32.067265"
       y2="90.756142"
       spreadMethod="pad">
      <stop
         stop-color="#000000"
         offset="0.00000000000"
         stop-opacity="1.00000000000"
         id="stop17-5" />
      <stop
         stop-color="#000000"
         offset="1.00000000000"
         stop-opacity="0.58823529412"
         id="stop19-4" />
    </linearGradient>
    <linearGradient
       inkscape:collect="always"
       xlink:href="#gradient1-6"
       id="linearGradient3059-7"
       gradientUnits="userSpaceOnUse"
       gradientTransform="matrix(1.0055984,0,0,-0.9944328,2.96875,92.53125)"
       spreadMethod="pad"
       x1="32.071472"
       y1="6.1660314"
       x2="32.071472"
       y2="90.744209" />
    <linearGradient
       id="gradient1-6"
       gradientTransform="scale(1.0055984,0.9944328)"
       gradientUnits="userSpaceOnUse"
       x1="32.071472"
       y1="6.1660314"
       x2="32.071472"
       y2="90.744209"
       spreadMethod="pad">
      <stop
         stop-color="#000000"
         offset="0.00000000000"
         stop-opacity="1.00000000000"
         id="stop12-5" />
      <stop
         stop-color="#000000"
         offset="1.00000000000"
         stop-opacity="0.58823529412"
         id="stop14-6" />
    </linearGradient>
    <linearGradient
       id="gradient0-3"
       gradientTransform="scale(1.0054757,0.99455408)"
       gradientUnits="userSpaceOnUse"
       x1="32.07542"
       y1="6.1652875"
       x2="32.07542"
       y2="90.732689"
       spreadMethod="pad">
      <stop
         stop-color="#000000"
         offset="0.00000000000"
         stop-opacity="1.00000000000"
         id="stop7-7" />
      <stop
         stop-color="#000000"
         offset="1.00000000000"
         stop-opacity="0.58823529412"
         id="stop9-4" />
    </linearGradient>
    <linearGradient
       y2="90.732689"
       x2="32.07542"
       y1="6.1652875"
       x1="32.07542"
       spreadMethod="pad"
       gradientTransform="matrix(1.0054757,0,0,-0.99455408,1.96875,93.53125)"
       gradientUnits="userSpaceOnUse"
       id="linearGradient3216"
       xlink:href="#gradient0-3"
       inkscape:collect="always" />
    <linearGradient
       id="linearGradient3832">
      <stop
         style="stop-color:#000000;stop-opacity:1;"
         offset="0"
         id="stop3834" />
      <stop
         id="stop3842"
         offset="0.05"
         style="stop-color:#ffffff;stop-opacity:1;" />
      <stop
         style="stop-color:#000000;stop-opacity:1;"
         offset="0.1"
         id="stop3846" />
      <stop
         id="stop3840"
         offset="0.5"
         style="stop-color:#000000;stop-opacity:0.49803922;" />
      <stop
         style="stop-color:#000000;stop-opacity:1;"
         offset="0.89999998"
         id="stop3844" />
      <stop
         id="stop3848"
         offset="0.94999999"
         style="stop-color:#ffffff;stop-opacity:1;" />
      <stop
         style="stop-color:#000000;stop-opacity:1;"
         offset="1"
         id="stop3836" />
    </linearGradient>
    <linearGradient
       inkscape:collect="always"
       xlink:href="#linearGradient4144-8"
       id="linearGradient4025"
       gradientUnits="userSpaceOnUse"
       x1="72.875"
       y1="68.71875"
       x2="72.875"
       y2="77.34375" />
    <linearGradient
       id="linearGradient4144-8">
      <stop
         style="stop-color:#dddddd;stop-opacity:1;"
         offset="0"
         id="stop4146-4" />
      <stop
         id="stop4152-5"
         offset="0.64999998"
         style="stop-color:#989898;stop-opacity:1;" />
      <stop
         style="stop-color:#eaeaea;stop-opacity:1;"
         offset="1"
         id="stop4148-0" />
    </linearGradient>
    <linearGradient
       inkscape:collect="always"
       xlink:href="#linearGradient3888"
       id="linearGradient3205"
       gradientUnits="userSpaceOnUse"
       x1="-56.230446"
       y1="5.5"
       x2="-56.230446"
       y2="69.53125" />
    <linearGradient
       inkscape:collect="always"
       xlink:href="#linearGradient4188"
       id="linearGradient3207"
       gradientUnits="userSpaceOnUse"
       gradientTransform="translate(-200,0)"
       x1="106"
       y1="77.51565"
       x2="180"
       y2="77.51565" />
    <linearGradient
       inkscape:collect="always"
       xlink:href="#linearGradient3832"
       id="linearGradient3209"
       gradientUnits="userSpaceOnUse"
       gradientTransform="translate(0,-0.9843498)"
       x1="-94"
       y1="82.984398"
       x2="-10.187523"
       y2="82.984398" />
    <radialGradient
       inkscape:collect="always"
       xlink:href="#linearGradient4091"
       id="radialGradient3211"
       gradientUnits="userSpaceOnUse"
       gradientTransform="matrix(-1.0721726,0,0,-0.87502024,-0.53571,-19.125546)"
       cx="48"
       cy="-27"
       fx="48"
       fy="-27"
       r="42" />
    <linearGradient
       inkscape:collect="always"
       xlink:href="#linearGradient3832"
       id="linearGradient3213"
       gradientUnits="userSpaceOnUse"
       gradientTransform="translate(0,-0.9843498)"
       x1="-94"
       y1="82.984398"
       x2="-20"
       y2="82.984398" />
    <linearGradient
       inkscape:collect="always"
       xlink:href="#linearGradient3874"
       id="linearGradient3215"
       gradientUnits="userSpaceOnUse"
       gradientTransform="translate(-100,0)"
       x1="70.030853"
       y1="82"
       x2="89.473785"
       y2="82" />
    <linearGradient
       inkscape:collect="always"
       xlink:href="#linearGradient4188-5"
       id="linearGradient4863"
       gradientUnits="userSpaceOnUse"
       x1="112.09375"
       y1="76.609375"
       x2="183.90625"
       y2="76.609375" />
    <linearGradient
       id="linearGradient4188-5">
      <stop
         style="stop-color:#ffffff;stop-opacity:0;"
         offset="0"
         id="stop4190-0" />
      <stop
         id="stop4198-3"
         offset="0.15000001"
         style="stop-color:#ffffff;stop-opacity:1;" />
      <stop
         id="stop4196-6"
         offset="0.85000002"
         style="stop-color:#ffffff;stop-opacity:1;" />
      <stop
         style="stop-color:#ffffff;stop-opacity:0;"
         offset="1"
         id="stop4192-1" />
    </linearGradient>
    <linearGradient
       inkscape:collect="always"
       xlink:href="#linearGradient3888"
       id="linearGradient3117"
       gradientUnits="userSpaceOnUse"
       x1="-56.230446"
       y1="5.5"
       x2="-56.230446"
       y2="69.53125" />
    <linearGradient
       inkscape:collect="always"
       xlink:href="#linearGradient4188"
       id="linearGradient3119"
       gradientUnits="userSpaceOnUse"
       gradientTransform="translate(-200,0)"
       x1="106"
       y1="77.51565"
       x2="180"
       y2="77.51565" />
    <linearGradient
       inkscape:collect="always"
       xlink:href="#linearGradient3832"
       id="linearGradient3121"
       gradientUnits="userSpaceOnUse"
       gradientTransform="translate(0,-0.9843498)"
       x1="-94"
       y1="82.984398"
       x2="-10.187523"
       y2="82.984398" />
    <radialGradient
       inkscape:collect="always"
       xlink:href="#linearGradient4091"
       id="radialGradient3123"
       gradientUnits="userSpaceOnUse"
       gradientTransform="matrix(-1.0721726,0,0,-0.87502024,-0.53571,-19.125546)"
       cx="48"
       cy="-27"
       fx="48"
       fy="-27"
       r="42" />
    <linearGradient
       inkscape:collect="always"
       xlink:href="#linearGradient3832"
       id="linearGradient3125"
       gradientUnits="userSpaceOnUse"
       gradientTransform="translate(0,-0.9843498)"
       x1="-94"
       y1="82.984398"
       x2="-20"
       y2="82.984398" />
    <linearGradient
       inkscape:collect="always"
       xlink:href="#linearGradient3874"
       id="linearGradient3127"
       gradientUnits="userSpaceOnUse"
       gradientTransform="translate(-100,0)"
       x1="70.030853"
       y1="82"
       x2="89.473785"
       y2="82" />
    <linearGradient
       inkscape:collect="always"
       xlink:href="#linearGradient3874"
       id="linearGradient3131"
       gradientUnits="userSpaceOnUse"
       gradientTransform="translate(100,0)"
       x1="70.030853"
       y1="82"
       x2="89.473785"
       y2="82" />
    <linearGradient
       inkscape:collect="always"
       xlink:href="#linearGradient3832"
       id="linearGradient3134"
       gradientUnits="userSpaceOnUse"
       gradientTransform="translate(200,-0.9843498)"
       x1="-94"
       y1="82.984398"
       x2="-20"
       y2="82.984398" />
    <radialGradient
       inkscape:collect="always"
       xlink:href="#linearGradient4091"
       id="radialGradient3139"
       gradientUnits="userSpaceOnUse"
       gradientTransform="matrix(-1.0721726,0,0,-0.87502024,199.46429,-19.125546)"
       cx="48"
       cy="-27"
       fx="48"
       fy="-27"
       r="42" />
    <linearGradient
       inkscape:collect="always"
       xlink:href="#linearGradient3832"
       id="linearGradient3143"
       gradientUnits="userSpaceOnUse"
       gradientTransform="translate(200,-0.9843498)"
       x1="-94"
       y1="82.984398"
       x2="-10.187523"
       y2="82.984398" />
    <linearGradient
       inkscape:collect="always"
       xlink:href="#linearGradient4188"
       id="linearGradient3151"
       gradientUnits="userSpaceOnUse"
       x1="106"
       y1="77.51565"
       x2="180"
       y2="77.51565" />
    <linearGradient
       inkscape:collect="always"
       xlink:href="#linearGradient3888"
       id="linearGradient3154"
       gradientUnits="userSpaceOnUse"
       x1="-56.230446"
       y1="5.5"
       x2="-56.230446"
       y2="69.53125"
       gradientTransform="translate(200,0)" />
    <linearGradient
       inkscape:collect="always"
       xlink:href="#linearGradient3888"
       id="linearGradient3173"
       gradientUnits="userSpaceOnUse"
       gradientTransform="translate(200,0)"
       x1="-56.230446"
       y1="5.5"
       x2="-56.230446"
       y2="69.53125" />
    <linearGradient
       inkscape:collect="always"
       xlink:href="#linearGradient4188"
       id="linearGradient3175"
       gradientUnits="userSpaceOnUse"
       x1="106"
       y1="77.51565"
       x2="180"
       y2="77.51565" />
    <linearGradient
       inkscape:collect="always"
       xlink:href="#linearGradient3832"
       id="linearGradient3177"
       gradientUnits="userSpaceOnUse"
       gradientTransform="translate(200,-0.9843498)"
       x1="-94"
       y1="82.984398"
       x2="-10.187523"
       y2="82.984398" />
    <radialGradient
       inkscape:collect="always"
       xlink:href="#linearGradient4091"
       id="radialGradient3179"
       gradientUnits="userSpaceOnUse"
       gradientTransform="matrix(-1.0721726,0,0,-0.87502024,199.46429,-19.125546)"
       cx="48"
       cy="-27"
       fx="48"
       fy="-27"
       r="42" />
    <linearGradient
       inkscape:collect="always"
       xlink:href="#linearGradient3832"
       id="linearGradient3181"
       gradientUnits="userSpaceOnUse"
       gradientTransform="translate(200,-0.9843498)"
       x1="-94"
       y1="82.984398"
       x2="-20"
       y2="82.984398" />
    <linearGradient
       inkscape:collect="always"
       xlink:href="#linearGradient3874"
       id="linearGradient3183"
       gradientUnits="userSpaceOnUse"
       gradientTransform="translate(100,0)"
       x1="70.030853"
       y1="82"
       x2="89.473785"
       y2="82" />
  </defs>
  <g
     id="layer2"
     style="display:none">
    <rect
       width="86"
       height="85"
       rx="6"
       ry="6"
       x="5"
       y="7"
       id="rect3745"
       style="opacity:0.9;fill:url(#ButtonShadow);fill-opacity:1;fill-rule:nonzero;stroke:none;filter:url(#filter3174)" />
  </g>
  <g
     id="g3943">
    <path
       id="path3786-4"
       d="m 11.99995,93.53125 c -5.51104,0 -10.0312,-4.52016 -10.0312,-10.0312 l 0,-71 c 0,-5.5111 4.52016,-10.0313 10.0312,-10.0313 l 72,0 c 5.5111,0 10.0313,4.5202 10.0313,10.0313 l 0,71 c 0,5.51104 -4.5202,10.0312 -10.0313,10.0312 z"
       style="opacity:0.07999998;fill:url(#linearGradient3216)"
       inkscape:connector-curvature="0" />
    <path
       id="path3778-5"
       d="m 12,92.53125 c -4.97163,0 -9.03125,-4.05962 -9.03125,-9.03125 l 0,-70.99995 c 0,-4.9717 4.05962,-9.0313 9.03125,-9.0313 l 71.99995,0 c 4.9717,0 9.0313,4.0596 9.0313,9.0313 l 0,70.99995 c 0,4.97163 -4.0596,9.03125 -9.0313,9.03125 z"
       style="opacity:0.1;fill:url(#linearGradient3059-7)"
       inkscape:connector-curvature="0" />
    <path
       id="path3770-2"
       d="m 12,91.50005 c -4.40913,0 -8,-3.59087 -8,-8 l 0,-71 c 0,-4.4091 3.59087,-8 8,-8 l 72,0 c 4.4091,0 8,3.5909 8,8 l 0,71 c 0,4.40913 -3.5909,8 -8,8 z"
       style="opacity:0.2;fill:url(#linearGradient3056-1)"
       inkscape:connector-curvature="0" />
    <rect
       id="rect3723-5"
       transform="scale(1,-1)"
       width="86"
       height="85"
       rx="7"
       ry="7"
       style="opacity:0.3;fill:url(#linearGradient3053-3)"
       x="5"
       y="-90.500046" />
    <rect
       id="rect3716-4"
       transform="scale(1,-1)"
       width="84"
       height="84"
       rx="6"
       ry="6"
       style="opacity:0.4;fill:url(#linearGradient3050-6)"
       x="6"
       y="-89.500046" />
  </g>
  <path
     style="fill:#202020;fill-opacity:1;fill-rule:nonzero;stroke:none;display:inline"
     d="m 84,4.5000496 -72,0 c -3.324,0 -6,2.676 -6,6.0000004 l 0,72 c 0,3.324 2.676,6 6,6 l 72,0 c 3.324,0 6,-2.676 6,-6 l 0,-72 C 90,7.1760496 87.324,4.5000496 84,4.5000496 z"
     id="rect2419-1"
     inkscape:connector-curvature="0" />
  <g
     id="g4855"
     transform="translate(-98,0)">
    <path
       sodipodi:nodetypes="sssssssss"
       inkscape:connector-curvature="0"
       id="path4843"
       d="m 117.21875,8.59375 c -3.921,0 -7.125,3.203999 -7.125,7.125 l 0,60.5625 c 0,3.921001 3.204,7.125 7.125,7.125 l 61.5625,0 c 3.921,0 7.125,-3.203999 7.125,-7.125 l 0,-60.5625 c 0,-3.921001 -3.204,-7.125 -7.125,-7.125 z"
       style="font-size:medium;font-style:normal;font-variant:normal;font-weight:normal;font-stretch:normal;text-indent:0;text-align:start;text-decoration:none;line-height:normal;letter-spacing:normal;word-spacing:normal;text-transform:none;direction:ltr;block-progression:tb;writing-mode:lr-tb;text-anchor:start;baseline-shift:baseline;opacity:0.1;color:#000000;fill:#000000;fill-opacity:1;fill-rule:nonzero;stroke:none;stroke-width:2;marker:none;visibility:visible;display:inline;overflow:visible;enable-background:accumulate;font-family:Sans;-inkscape-font-specification:Sans" />
    <path
       style="font-size:medium;font-style:normal;font-variant:normal;font-weight:normal;font-stretch:normal;text-indent:0;text-align:start;text-decoration:none;line-height:normal;letter-spacing:normal;word-spacing:normal;text-transform:none;direction:ltr;block-progression:tb;writing-mode:lr-tb;text-anchor:start;baseline-shift:baseline;opacity:0.2;color:#000000;fill:#000000;fill-opacity:1;fill-rule:nonzero;stroke:none;stroke-width:2;marker:none;visibility:visible;display:inline;overflow:visible;enable-background:accumulate;font-family:Sans;-inkscape-font-specification:Sans"
       d="m 117.21875,8.59375 c -3.37935,0 -6.125,2.745652 -6.125,6.125 l 0,61.5625 c 0,3.379348 2.74565,6.125 6.125,6.125 l 61.5625,0 c 3.37935,0 6.125,-2.745652 6.125,-6.125 l 0,-61.5625 c 0,-3.379348 -2.74565,-6.125 -6.125,-6.125 z"
       id="path4849"
       inkscape:connector-curvature="0"
       sodipodi:nodetypes="sssssssss" />
    <path
       style="fill:#ececec;fill-opacity:1;fill-rule:nonzero;stroke:none;display:inline"
       d="m 178.78677,9.582146 -61.57354,0 c -2.84265,0 -5.13113,2.288484 -5.13113,5.13113 l 0,61.573548 c 0,2.842646 2.28848,5.13113 5.13113,5.13113 l 61.57354,0 c 2.84265,0 5.13113,-2.288484 5.13113,-5.13113 l 0,-61.573548 c 0,-2.842646 -2.28848,-5.13113 -5.13113,-5.13113 z"
       id="path4710"
       inkscape:connector-curvature="0" />
    <path
       inkscape:connector-curvature="0"
       id="path4810"
       d="m 112.09375,74.8125 0,1.46875 c 0,2.842646 2.28235,5.125 5.125,5.125 l 61.5625,0 c 2.84265,0 5.125,-2.282354 5.125,-5.125 l 0,-1.46875 c -0.26183,2.593688 -2.46002,4.59375 -5.125,4.59375 l -61.5625,0 c -2.66498,0 -4.86317,-2.000062 -5.125,-4.59375 z"
       style="opacity:0.1;fill:#000000;fill-opacity:1;fill-rule:nonzero;stroke:none;display:inline" />
    <path
       inkscape:connector-curvature="0"
       id="path4815"
       d="m 112.09375,73.8125 0,1 c 0.26183,2.593688 2.46002,4.59375 5.125,4.59375 l 61.5625,0 c 2.66498,0 4.86317,-2.000062 5.125,-4.59375 l 0,-1 c -0.26183,2.593688 -2.46002,4.59375 -5.125,4.59375 l -61.5625,0 c -2.66498,0 -4.86317,-2.000062 -5.125,-4.59375 z"
       style="opacity:0.4;fill:url(#linearGradient4863);fill-opacity:1;fill-rule:nonzero;stroke:none;display:inline" />
    <path
       inkscape:connector-curvature="0"
       id="path4820"
       d="m 116.6875,9.59375 c -2.59369,0.2618304 -4.59375,2.460019 -4.59375,5.125 l 0,0.46875 c 0.26183,-2.593688 2.46002,-4.59375 5.125,-4.59375 l 61.5625,0 c 2.66498,0 4.86317,2.000062 5.125,4.59375 l 0,-0.46875 c 0,-2.842646 -2.28235,-5.125 -5.125,-5.125 l -61.5625,0 c -0.17767,0 -0.35834,-0.017455 -0.53125,0 z"
       style="opacity:0.5;fill:#ffffff;fill-opacity:1;fill-rule:nonzero;stroke:none;display:inline" />
  </g>
  <path
     style="fill:#333333;fill-opacity:1;fill-rule:nonzero;stroke:none;display:inline"
     d="m 12,4.5 c -3.324,0 -6,2.6759996 -6,6 l 0,70 c 0,3.324 2.676,6 6,6 l 62,0 c 3.324,0 6,-2.676 6,-6 l 0,-38.1875 6.875,-4.125 C 88.74566,37.173813 90,35.1915 90,32.90625 L 90,10.5 c 0,-3.3240004 -2.676,-6 -6,-6 z"
     id="path3262"
     inkscape:connector-curvature="0"
     sodipodi:nodetypes="ssssssccssss" />
  <g
     id="g4031">
    <rect
       y="10"
       x="9"
       height="65"
       width="1"
       id="rect4494"
       style="opacity:0.15;color:#000000;fill:#ffffff;fill-opacity:1;fill-rule:nonzero;stroke:none;stroke-width:5;marker:none;visibility:visible;display:inline;overflow:visible;enable-background:accumulate" />
    <rect
       style="opacity:0.25;color:#000000;fill:#000000;fill-opacity:1;fill-rule:nonzero;stroke:none;stroke-width:5;marker:none;visibility:visible;display:inline;overflow:visible;enable-background:accumulate"
       id="rect4496"
       width="1"
       height="65"
       x="10"
       y="10" />
    <rect
       style="opacity:0.15;color:#000000;fill:#ffffff;fill-opacity:1;fill-rule:nonzero;stroke:none;stroke-width:5;marker:none;visibility:visible;display:inline;overflow:visible;enable-background:accumulate"
       id="rect4498"
       width="1"
       height="65"
       x="13"
       y="10" />
    <rect
       y="10"
       x="14"
       height="65"
       width="1"
       id="rect4500"
       style="opacity:0.25;color:#000000;fill:#000000;fill-opacity:1;fill-rule:nonzero;stroke:none;stroke-width:5;marker:none;visibility:visible;display:inline;overflow:visible;enable-background:accumulate" />
    <path
       id="path4130"
       d="m 72.875,68.71875 c -2.51184,0 -4.5625,1.93878 -4.5625,4.3125 0,2.37372 2.05066,4.3125 4.5625,4.3125 2.51184,0 4.5625,-1.93878 4.5625,-4.3125 0,-2.37372 -2.05066,-4.3125 -4.5625,-4.3125 z m 0,1.34375 c 1.73733,0 3.15625,1.326959 3.15625,2.96875 0,1.641792 -1.41892,2.96875 -3.15625,2.96875 -1.73733,0 -3.15625,-1.326958 -3.15625,-2.96875 0,-1.641791 1.41892,-2.96875 3.15625,-2.96875 z"
       style="color:#000000;fill:url(#linearGradient4025);fill-opacity:1;fill-rule:nonzero;stroke:none;stroke-width:5;marker:none;visibility:visible;display:inline;overflow:visible;enable-background:accumulate"
       inkscape:connector-curvature="0" />
    <path
       id="path4132"
       d="m 72.875,70.0625 c -1.73733,0 -3.15625,1.326959 -3.15625,2.96875 0,0.55226 0.19112,1.056911 0.46875,1.5 0.54773,-0.874152 1.53457,-1.46875 2.6875,-1.46875 1.15293,0 2.13977,0.594598 2.6875,1.46875 0.27763,-0.443089 0.46875,-0.94774 0.46875,-1.5 0,-1.641791 -1.41892,-2.96875 -3.15625,-2.96875 z"
       style="opacity:0.8;color:#000000;fill:#000000;fill-opacity:1;fill-rule:nonzero;stroke:none;stroke-width:5;marker:none;visibility:visible;display:inline;overflow:visible;enable-background:accumulate"
       inkscape:connector-curvature="0" />
    <path
       inkscape:connector-curvature="0"
       id="path4154"
       d="m 72.875,68.71875 c -2.51184,0 -4.5625,1.93878 -4.5625,4.3125 0,0.08494 0.0261,0.166247 0.0313,0.25 0.13954,-2.256915 2.10928,-4.0625 4.53125,-4.0625 2.42197,0 4.39171,1.805585 4.53125,4.0625 0.005,-0.08375 0.0313,-0.165064 0.0313,-0.25 0,-2.37372 -2.05066,-4.3125 -4.5625,-4.3125 z m -3.125,4.5625 c -0.008,0.08469 -0.0313,0.163412 -0.0313,0.25 0,1.641792 1.41892,2.96875 3.15625,2.96875 1.73733,0 3.15625,-1.326958 3.15625,-2.96875 0,-0.08659 -0.0235,-0.165312 -0.0313,-0.25 C 75.86113,74.802331 74.5207,76 72.875,76 71.2293,76 69.88887,74.802331 69.75,73.28125 z"
       style="opacity:0.2;color:#000000;fill:#ffffff;fill-opacity:1;fill-rule:nonzero;stroke:none;stroke-width:5;marker:none;visibility:visible;display:inline;overflow:visible;enable-background:accumulate" />
    <path
       inkscape:connector-curvature="0"
       id="path4170"
       d="m 72.875,73.0625 c -1.15293,0 -2.13977,0.594598 -2.6875,1.46875 C 70.73523,75.405402 71.72207,76 72.875,76 74.02793,76 75.01477,75.405402 75.5625,74.53125 75.01477,73.657098 74.02793,73.0625 72.875,73.0625 z"
       style="opacity:0.7;color:#000000;fill:#000000;fill-opacity:1;fill-rule:nonzero;stroke:none;stroke-width:5;marker:none;visibility:visible;display:inline;overflow:visible;enable-background:accumulate" />
    <path
       inkscape:connector-curvature="0"
       id="path4175"
       d="m 72.875,69.5625 c -1.73733,0 -3.15625,1.326959 -3.15625,2.96875 0,0.08659 0.0235,0.165312 0.0313,0.25 0.13887,-1.52108 1.4793,-2.71875 3.125,-2.71875 1.6457,0 2.98613,1.19767 3.125,2.71875 0.008,-0.08469 0.0313,-0.163412 0.0313,-0.25 0,-1.641791 -1.41892,-2.96875 -3.15625,-2.96875 z m -4.53125,3.21875 c -0.005,0.08375 -0.0313,0.165064 -0.0313,0.25 0,2.37372 2.05066,4.3125 4.5625,4.3125 2.51184,0 4.5625,-1.93878 4.5625,-4.3125 0,-0.08494 -0.0261,-0.166247 -0.0313,-0.25 -0.13954,2.256915 -2.10928,4.0625 -4.53125,4.0625 -2.42197,0 -4.39171,-1.805585 -4.53125,-4.0625 z"
       style="opacity:0.2;color:#000000;fill:#000000;fill-opacity:1;fill-rule:nonzero;stroke:none;stroke-width:5;marker:none;visibility:visible;display:inline;overflow:visible;enable-background:accumulate" />
    <path
       id="path3825"
       d="M 80.875,8.59375 80.34375,9.9375 80,9 l 0,22.21875 0.34375,-0.9375 0.53125,1.34375 0.53125,-1.34375 0.53125,1.3125 0.5,-1.3125 0.5,1.3125 0.53125,-1.3125 L 84,31.625 84.5,30.28125 85.03125,31.625 85.5625,30.28125 86,31.40625 86,8.8125 85.5625,9.9375 85.03125,8.59375 84.5,9.9375 84,8.59375 83.46875,9.9375 82.9375,8.625 82.4375,9.9375 81.9375,8.625 81.40625,9.9375 80.875,8.59375 z"
       style="opacity:0.3;fill:#ffffff;fill-opacity:1;fill-rule:nonzero;stroke:none;display:inline"
       inkscape:connector-curvature="0" />
    <path
       inkscape:connector-curvature="0"
       id="path4207"
       d="M 80.875,8.59375 80.34375,9.9375 80,9 l 0,0.5 0.34375,0.9375 0.53125,-1.34375 0.53125,1.34375 0.53125,-1.3125 0.5,1.3125 0.5,-1.3125 0.53125,1.3125 L 84,9.09375 84.5,10.4375 85.03125,9.09375 85.5625,10.4375 86,9.3125 86,8.8125 85.5625,9.9375 85.03125,8.59375 84.5,9.9375 84,8.59375 83.46875,9.9375 82.9375,8.625 82.4375,9.9375 81.9375,8.625 81.40625,9.9375 80.875,8.59375 z"
       style="opacity:0.2;fill:#ffffff;fill-opacity:1;fill-rule:nonzero;stroke:none;display:inline" />
    <path
       inkscape:connector-curvature="0"
       id="path4212"
       d="M 80.34375,29.78125 80,30.71875 l 0,0.5 0.34375,-0.9375 0.53125,1.34375 0.53125,-1.34375 0.53125,1.3125 0.5,-1.3125 0.5,1.3125 0.53125,-1.3125 L 84,31.625 l 0.5,-1.34375 0.53125,1.34375 0.53125,-1.34375 0.4375,1.125 0,-0.5 -0.4375,-1.125 L 85.03125,31.125 84.5,29.78125 84,31.125 l -0.53125,-1.34375 -0.53125,1.3125 -0.5,-1.3125 -0.5,1.3125 -0.53125,-1.3125 L 80.875,31.125 80.34375,29.78125 z"
       style="opacity:0.15;fill:#000000;fill-opacity:1;fill-rule:nonzero;stroke:none;display:inline" />
  </g>
  <g
     id="g3884"
     transform="translate(-80,0)">
    <path
       sodipodi:nodetypes="sscscscsscccccccsccccsscccccccsccccscsscsssssssssss"
       inkscape:connector-curvature="0"
       id="path3108"
       d="m 116,19 c -7.16786,0 -13,5.832144 -13,13 0,4.58257 2.44163,8.562507 6.03125,10.875 C 109.02961,42.919765 109,42.95443 109,43 l 0,1.1875 c -1.58778,0.220201 -3,1.217697 -3,2.8125 0,1.594803 1.41222,2.592299 3,2.8125 L 109,55 c 0,2.198703 1.8013,4 4,4 l 1,0 1.5625,0 -1.96875,2.5625 0,0.03125 c -0.5493,0.741126 -0.43518,1.760166 0.0313,2.375 0.47184,0.621966 1.24125,1.036589 2.125,1.03125 l 18.03125,0 c 0.88374,0.0053 1.65316,-0.409286 2.125,-1.03125 0.46643,-0.614832 0.58055,-1.633876 0.0313,-2.375 l 0,-0.03125 L 133.96875,59 136,59 l 1,0 c 2.1987,0 4,-1.801297 4,-4 l 0,-1.40625 3.90625,2.71875 0.0937,0.0625 0.0313,-0.03125 c 0.80796,0.627035 2.01034,0.659616 2.78125,-0.03125 0.80389,-0.720369 1.15456,-1.788735 1.15625,-2.90625 l 0,-8.875 c 0.007,-0.926943 -0.26725,-1.771644 -0.75,-2.4375 -0.48275,-0.665856 -1.29632,-1.221565 -2.25,-1.03125 -0.367,0.07496 -0.69023,0.240601 -0.96875,0.46875 l -0.0937,0.0625 L 141,44.34375 141,43 c 0,-0.497187 -0.23838,-0.923541 -0.40625,-1.375 C 143.25606,39.254181 145,35.852259 145,32 c 0,-7.167856 -5.83214,-13 -13,-13 -3.05062,0 -5.78181,1.138819 -8,2.90625 C 121.78181,20.138819 119.05062,19 116,19 z m 0,10 c 1.6687,0 3,1.331302 3,3 0,1.668698 -1.3313,3 -3,3 -1.6687,0 -3,-1.331302 -3,-3 0,-1.668698 1.3313,-3 3,-3 z m 16,0 c 1.6687,0 3,1.331302 3,3 0,1.668698 -1.3313,3 -3,3 -1.6687,0 -3,-1.331302 -3,-3 0,-1.668698 1.3313,-3 3,-3 z"
       style="font-size:medium;font-style:normal;font-variant:normal;font-weight:normal;font-stretch:normal;text-indent:0;text-align:start;text-decoration:none;line-height:normal;letter-spacing:normal;word-spacing:normal;text-transform:none;direction:ltr;block-progression:tb;writing-mode:lr-tb;text-anchor:start;baseline-shift:baseline;opacity:0.2;color:#000000;fill:#000000;fill-opacity:1;fill-rule:nonzero;stroke:none;stroke-width:2;marker:none;visibility:visible;display:inline;overflow:visible;enable-background:accumulate;font-family:Sans;-inkscape-font-specification:Sans" />
    <path
       d="m 116,20 c -6.62742,0 -12,5.372584 -12,12 0,4.456718 2.45369,8.336505 6.0625,10.40625 C 110.02267,42.601895 110,42.79225 110,43 l 0,2.03125 C 109.83696,45.00469 109.67312,45 109.5,45 c -1.385,0 -2.5,0.892 -2.5,2 0,1.108 1.115,2 2.5,2 0.17312,0 0.33696,-0.0047 0.5,-0.03125 L 110,55 c 0,1.662 1.338,3 3,3 l 1,0 3.5625,0 -3.1875,4.1875 c -0.56205,0.72985 0.26436,1.81921 1.375,1.8125 l 9,0 9.03125,0 c 1.11064,0.0067 1.93705,-1.08265 1.375,-1.8125 L 131.96875,58 136,58 l 1,0 c 1.662,0 3,-1.338 3,-3 l 0,-3.03125 0.40625,0 5.15625,3.59375 c 0.48553,0.431077 1.10934,0.434113 1.59375,0 0.48441,-0.434083 0.81119,-1.288918 0.8125,-2.15625 l 0,-4.9375 0,-3.9375 c 0.0106,-1.420441 -0.90359,-2.681381 -1.8125,-2.5 -0.20856,0.0426 -0.41157,0.149448 -0.59375,0.3125 l -5.15625,3.625 -0.40625,0 L 140,43 c 0,-0.62325 -0.17716,-1.208848 -0.5,-1.6875 2.73096,-2.19684 4.5,-5.532472 4.5,-9.3125 0,-6.627416 -5.37258,-12 -12,-12 -3.0781,0 -5.87651,1.153599 -8,3.0625 C 121.87651,21.153599 119.0781,20 116,20 z m 0,6 c 1.86396,0 3.52451,0.854017 4.625,2.1875 0.42797,0.518577 0.76324,1.107738 1,1.75 0.10094,0.27569 0.19006,0.550811 0.25,0.84375 0.0109,0.05217 0.0218,0.103585 0.0313,0.15625 0.005,0.03036 -0.005,0.06323 0,0.09375 C 121.95811,31.347084 122,31.669296 122,32 c 0,0.330704 -0.0419,0.652916 -0.0937,0.96875 -0.005,0.03031 0.005,0.0636 0,0.09375 -0.0442,0.24929 -0.11359,0.48111 -0.1875,0.71875 -0.0293,0.09358 -0.06,0.189706 -0.0937,0.28125 -0.23676,0.642262 -0.57203,1.231423 -1,1.75 C 119.52451,37.145983 117.86396,38 116,38 c -3.31371,0 -6,-2.686291 -6,-6 0,-3.313709 2.68629,-6 6,-6 z m 16,0 c 3.31371,0 6,2.686291 6,6 0,3.313709 -2.68629,6 -6,6 -1.86396,0 -3.52451,-0.854017 -4.625,-2.1875 -0.42797,-0.518577 -0.76324,-1.107738 -1,-1.75 -0.11186,-0.305494 -0.21996,-0.611051 -0.28125,-0.9375 -0.01,-0.04992 0.008,-0.105896 0,-0.15625 C 126.04189,32.652916 126,32.330704 126,32 c 0,-0.330704 0.0419,-0.652916 0.0937,-0.96875 0.008,-0.05035 -0.01,-0.106332 0,-0.15625 0.0613,-0.326449 0.16939,-0.632006 0.28125,-0.9375 0.23676,-0.642262 0.57203,-1.231423 1,-1.75 C 128.47549,26.854017 130.13604,26 132,26 z m -16,2 c -2.20914,0 -4,1.790862 -4,4 0,2.209138 1.79086,4 4,4 2.20914,0 4,-1.790862 4,-4 0,-2.209138 -1.79086,-4 -4,-4 z m 16,0 c -2.20914,0 -4,1.790862 -4,4 0,2.209138 1.79086,4 4,4 2.20914,0 4,-1.790862 4,-4 0,-2.209138 -1.79086,-4 -4,-4 z"
       inkscape:connector-curvature="0"
       id="path3729"
       style="opacity:0.85;fill:#ffffff;fill-opacity:1;stroke:none;display:inline" />
    <path
       inkscape:connector-curvature="0"
       id="path3987"
       d="m 116,20 c -6.62742,0 -12,5.372584 -12,12 0,0.503007 0.0331,1.013464 0.0937,1.5 C 104.83656,27.585618 109.88419,23 116,23 c 3.0781,0 5.87651,1.153599 8,3.0625 2.12349,-1.908901 4.9219,-3.0625 8,-3.0625 6.11581,0 11.16344,4.585618 11.90625,10.5 C 143.96738,33.012873 144,32.504618 144,32 c 0,-6.627416 -5.37258,-12 -12,-12 -3.0781,0 -5.87651,1.153599 -8,3.0625 C 121.87651,21.153599 119.0781,20 116,20 z m 0,9 c -1.33841,0 -2.56446,0.446697 -3.5625,1.1875 C 112.16176,30.730595 112,31.349219 112,32 c 0,0.527984 0.0954,1.038539 0.28125,1.5 0.59177,-1.469338 2.03759,-2.5 3.71875,-2.5 1.68116,0 3.12698,1.030662 3.71875,2.5 C 119.9046,33.038539 120,32.527984 120,32 120,31.349219 119.83824,30.730595 119.5625,30.1875 118.56448,29.441899 117.34201,29 116,29 z m 16,0 c -1.34201,0 -2.56446,0.441899 -3.5625,1.1875 C 128.16176,30.730595 128,31.349219 128,32 c 0,0.527984 0.0954,1.038539 0.28125,1.5 0.59177,-1.469338 2.03759,-2.5 3.71875,-2.5 1.68116,0 3.12698,1.030662 3.71875,2.5 C 135.9046,33.038539 136,32.527984 136,32 136,31.349219 135.83824,30.730595 135.5625,30.1875 134.56446,29.446697 133.33841,29 132,29 z m -21.8125,4.5 C 110.06487,33.978036 110,34.483717 110,35 c 0,3.313709 2.68629,6 6,6 1.86396,0 3.52441,-0.854017 4.625,-2.1875 0.42797,-0.518577 0.76324,-1.107738 1,-1.75 0.0337,-0.09154 0.0644,-0.18767 0.0937,-0.28125 0.0739,-0.23764 0.1433,-0.46946 0.1875,-0.71875 0.005,-0.03015 -0.005,-0.06344 0,-0.09375 C 121.95805,35.652916 122,35.330704 122,35 c 0,-0.330704 -0.0419,-0.652916 -0.0937,-0.96875 -0.005,-0.03052 0.005,-0.06339 0,-0.09375 -0.01,-0.05266 -0.0204,-0.10408 -0.0313,-0.15625 -0.0202,-0.09863 -0.0676,-0.185957 -0.0937,-0.28125 -0.0261,0.09172 -0.0339,0.189138 -0.0625,0.28125 -0.0293,0.09358 -0.06,0.189706 -0.0937,0.28125 -0.23676,0.642262 -0.57203,1.231423 -1,1.75 -0.30819,0.373406 -0.67432,0.710011 -1.0625,1 C 118.90222,38.112992 117.55836,39 116,39 c -1.55836,0 -2.90222,-0.887008 -3.5625,-2.1875 -1.08797,-0.807555 -1.90345,-1.961573 -2.25,-3.3125 z m 16,0 c -0.0366,0.124724 -0.0693,0.244962 -0.0937,0.375 -0.01,0.04992 0.008,0.1059 0,0.15625 C 126.04195,34.347084 126,34.669296 126,35 c 0,0.330704 0.0419,0.652916 0.0937,0.96875 0.008,0.05035 -0.01,0.10633 0,0.15625 0.0613,0.326449 0.16939,0.632006 0.28125,0.9375 0.23676,0.642262 0.57203,1.231423 1,1.75 C 128.47549,40.145983 130.13604,41 132,41 c 3.31371,0 6,-2.686291 6,-6 0,-0.516283 -0.0649,-1.021964 -0.1875,-1.5 -0.34655,1.350927 -1.16203,2.504945 -2.25,3.3125 C 134.90222,38.112992 133.55836,39 132,39 c -1.55836,0 -2.90222,-0.887008 -3.5625,-2.1875 -0.38816,-0.289989 -0.75434,-0.626594 -1.0625,-1 -0.42797,-0.518577 -0.76324,-1.107738 -1,-1.75 -0.0673,-0.183803 -0.1323,-0.374114 -0.1875,-0.5625 z m 19.96875,8.53125 c -0.20856,0.0426 -0.41157,0.149448 -0.59375,0.3125 l -5.15625,3.625 -0.40625,0 c 1e-4,0.01032 0,0.02091 0,0.03125 l 0,2.96875 0.40625,0 5.15625,-3.625 c 0.18218,-0.163052 0.38519,-0.2699 0.59375,-0.3125 0.90891,-0.181381 1.8231,1.079559 1.8125,2.5 l 0,-3 c 0.0106,-1.420441 -0.90359,-2.681381 -1.8125,-2.5 z M 140,45.96875 140,43.875 c -0.16573,0.148779 -0.32628,0.297758 -0.5,0.4375 0.31748,0.47071 0.49423,1.044589 0.5,1.65625 z M 109.40625,45 C 108.06635,45.040318 107,45.917868 107,47 c 0,0.609933 0.3402,1.133741 0.875,1.5 0.43671,-0.299085 1.00242,-0.5 1.625,-0.5 0.17312,0 0.33696,0.0047 0.5,0.03125 L 110,46 c 0,-0.20775 0.0227,-0.398105 0.0625,-0.59375 C 109.83695,45.276891 109.62246,45.143199 109.40625,45 z m 5.875,16 -0.90625,1.1875 c -0.4865,0.631745 0.0596,1.554768 0.9375,1.78125 l 2.25,-2.96875 -2.28125,0 z m 16.6875,0 2.25,2.96875 c 0.87794,-0.226487 1.424,-1.149505 0.9375,-1.78125 L 134.25,61 l -2.28125,0 z"
       style="opacity:0.1;fill:#000000;fill-opacity:1;stroke:none;display:inline" />
    <path
       inkscape:connector-curvature="0"
       id="path3996"
       d="m 116,20 c -6.62742,0 -12,5.372584 -12,12 0,0.332627 0.0357,0.674313 0.0625,1 0.51277,-6.154901 5.65014,-11 11.9375,-11 3.0781,0 5.87651,1.153599 8,3.0625 2.12349,-1.908901 4.9219,-3.0625 8,-3.0625 6.21321,0 11.32298,4.730178 11.9375,10.78125 C 143.95432,32.523043 144,32.262734 144,32 c 0,-6.627416 -5.37258,-12 -12,-12 -3.0781,0 -5.87651,1.153599 -8,3.0625 C 121.87651,21.153599 119.0781,20 116,20 z m 0,8 c -2.20914,0 -4,1.790862 -4,4 0,0.345951 0.0737,0.679835 0.15625,1 0.44467,-1.724309 1.98056,-3 3.84375,-3 1.86319,0 3.39908,1.275691 3.84375,3 C 119.92632,32.679835 120,32.345951 120,32 c 0,-2.209138 -1.79086,-4 -4,-4 z m 16,0 c -2.20914,0 -4,1.790862 -4,4 0,0.345951 0.0737,0.679835 0.15625,1 0.44467,-1.724309 1.98056,-3 3.84375,-3 1.86319,0 3.39908,1.275691 3.84375,3 C 135.92632,32.679835 136,32.345951 136,32 c 0,-2.209138 -1.79086,-4 -4,-4 z m -21.90625,5 C 110.04001,33.322839 110,33.661912 110,34 c 0,3.313709 2.68629,6 6,6 1.86396,0 3.52441,-0.854017 4.625,-2.1875 0.42797,-0.518577 0.76324,-1.107738 1,-1.75 0.0337,-0.09154 0.0644,-0.18767 0.0937,-0.28125 0.0739,-0.23764 0.1433,-0.46946 0.1875,-0.71875 0.005,-0.03015 -0.005,-0.06344 0,-0.09375 C 121.95805,34.652916 122,34.330704 122,34 c 0,-0.320135 -0.0442,-0.631363 -0.0937,-0.9375 -0.0442,0.24929 -0.11359,0.48111 -0.1875,0.71875 -0.0293,0.09358 -0.06,0.189706 -0.0937,0.28125 -0.23676,0.642262 -0.57203,1.231423 -1,1.75 C 119.52441,37.145983 117.86396,38 116,38 c -2.97562,0 -5.43327,-2.158589 -5.90625,-5 z m 27.8125,0 c -0.47298,2.841411 -2.93063,5 -5.90625,5 -1.86396,0 -3.52451,-0.854017 -4.625,-2.1875 -0.42797,-0.518577 -0.76324,-1.107738 -1,-1.75 -0.11186,-0.305494 -0.21996,-0.611051 -0.28125,-0.9375 C 126.0489,33.411676 126,33.701003 126,34 c 0,0.330704 0.0419,0.652916 0.0937,0.96875 0.008,0.05035 -0.01,0.10633 0,0.15625 0.0613,0.326449 0.16939,0.632006 0.28125,0.9375 0.23676,0.642262 0.57203,1.231423 1,1.75 C 128.47549,39.145983 130.13604,40 132,40 c 3.31371,0 6,-2.686291 6,-6 0,-0.338088 -0.04,-0.677161 -0.0937,-1 z m 8.25,9.03125 c -0.20856,0.0426 -0.41157,0.149448 -0.59375,0.3125 l -5.15625,3.625 -0.40625,0 0,2 0.40625,0 5.15625,-3.625 c 0.18218,-0.163052 0.38519,-0.2699 0.59375,-0.3125 0.90891,-0.181381 1.8231,1.079559 1.8125,2.5 l 0,-2 c 0.0106,-1.420441 -0.90359,-2.681381 -1.8125,-2.5 z M 140,42.875 c -0.16573,0.148779 -0.32628,0.297758 -0.5,0.4375 0.32284,0.478652 0.5,1.06425 0.5,1.6875 l 0,-2 c 0,-0.04137 0.002,-0.08399 0,-0.125 z m -30,1.5 0,0.625 c 0,-0.20775 0.0227,-0.398105 0.0625,-0.59375 C 110.0422,44.39459 110.0203,44.38678 110,44.375 z M 109.5,45 c -1.385,0 -2.5,0.892 -2.5,2 0,0.364592 0.1324,0.706269 0.34375,1 0.43095,-0.598922 1.22699,-1 2.15625,-1 0.17312,0 0.33696,0.0047 0.5,0.03125 l 0,-2 C 109.83696,45.00469 109.67312,45 109.5,45 z m 6.53125,15 -1.65625,2.1875 c -0.37298,0.484331 -0.12095,1.1244 0.40625,1.5 L 117.5625,60 l -1.53125,0 z m 15.9375,0 2.78125,3.6875 c 0.5272,-0.3756 0.77923,-1.015669 0.40625,-1.5 L 133.5,60 l -1.53125,0 z"
       style="opacity:0.2;fill:#000000;fill-opacity:1;stroke:none;display:inline" />
    <path
       inkscape:connector-curvature="0"
       id="path4005"
       d="m 116,20 c -6.62742,0 -12,5.372584 -12,12 0,0.196126 0.0219,0.399964 0.0313,0.59375 C 104.24897,26.157602 109.51083,21 116,21 c 3.0781,0 5.87651,1.153599 8,3.0625 2.12349,-1.908901 4.9219,-3.0625 8,-3.0625 6.4362,0 11.671,5.074951 11.96875,11.4375 C 143.97406,32.291838 144,32.147048 144,32 c 0,-6.627416 -5.37258,-12 -12,-12 -3.0781,0 -5.87651,1.153599 -8,3.0625 C 121.87651,21.153599 119.0781,20 116,20 z m 0,8 c -2.20914,0 -4,1.790862 -4,4 0,0.17012 0.0419,0.335468 0.0625,0.5 0.24707,-1.972046 1.89848,-3.5 3.9375,-3.5 2.03902,0 3.69043,1.527954 3.9375,3.5 C 119.95811,32.335468 120,32.17012 120,32 c 0,-2.209138 -1.79086,-4 -4,-4 z m 16,0 c -2.20914,0 -4,1.790862 -4,4 0,0.17012 0.0419,0.335468 0.0625,0.5 0.24707,-1.972046 1.89848,-3.5 3.9375,-3.5 2.03902,0 3.69043,1.527954 3.9375,3.5 C 135.95811,32.335468 136,32.17012 136,32 c 0,-2.209138 -1.79086,-4 -4,-4 z m -10.0625,4.5 c -0.0168,0.155589 -0.006,0.316368 -0.0313,0.46875 -0.005,0.03031 0.005,0.0636 0,0.09375 -0.0442,0.24929 -0.11359,0.48111 -0.1875,0.71875 -0.0293,0.09358 -0.06,0.189706 -0.0937,0.28125 -0.23676,0.642262 -0.57203,1.231423 -1,1.75 C 119.52441,37.145983 117.86396,38 116,38 112.8934,38 110.33851,35.650537 110.03125,32.625 110.02378,32.747591 110,32.875529 110,33 c 0,3.313709 2.68629,6 6,6 1.86396,0 3.52441,-0.854017 4.625,-2.1875 0.42797,-0.518577 0.76324,-1.107738 1,-1.75 0.0337,-0.09154 0.0645,-0.18767 0.0937,-0.28125 0.0739,-0.23764 0.1433,-0.46946 0.1875,-0.71875 0.005,-0.03015 -0.005,-0.06344 0,-0.09375 C 121.95805,33.652916 122,33.330704 122,33 c 0,-0.171148 -0.0445,-0.333108 -0.0625,-0.5 z m 4.125,0 C 126.04449,32.666892 126,32.828852 126,33 c 0,0.330704 0.0419,0.652916 0.0937,0.96875 0.008,0.05035 -0.01,0.10633 0,0.15625 0.0613,0.326449 0.16939,0.632006 0.28125,0.9375 0.23676,0.642262 0.57203,1.231423 1,1.75 C 128.47549,38.145983 130.13604,39 132,39 c 3.31371,0 6,-2.686291 6,-6 0,-0.124471 -0.0238,-0.252409 -0.0313,-0.375 C 137.66149,35.650537 135.1066,38 132,38 c -1.86396,0 -3.52451,-0.854017 -4.625,-2.1875 -0.42797,-0.518577 -0.76324,-1.107738 -1,-1.75 -0.11186,-0.305494 -0.21996,-0.611051 -0.28125,-0.9375 -0.01,-0.04992 0.008,-0.105896 0,-0.15625 -0.025,-0.152382 -0.0145,-0.313161 -0.0313,-0.46875 z m 13.78125,9.5 c -0.11761,0.102171 -0.22227,0.214775 -0.34375,0.3125 0.32284,0.478652 0.5,1.06425 0.5,1.6875 l 0,-1 c 0,-0.346964 -0.0519,-0.688329 -0.15625,-1 z m 6.3125,0.03125 c -0.20856,0.0426 -0.41157,0.149448 -0.59375,0.3125 l -5.15625,3.625 -0.40625,0 0,1 0.40625,0 5.15625,-3.625 c 0.18218,-0.163052 0.38519,-0.2699 0.59375,-0.3125 0.90891,-0.181381 1.8231,1.079559 1.8125,2.5 l 0,-1 c 0.0106,-1.420441 -0.90359,-2.681381 -1.8125,-2.5 z M 110,43.375 110,44 c 0,-0.20775 0.0227,-0.398105 0.0625,-0.59375 C 110.0422,43.39459 110.0203,43.38678 110,43.375 z M 109.5,45 c -1.385,0 -2.5,0.892 -2.5,2 0,0.173125 0.0425,0.340001 0.0937,0.5 0.27659,-0.863997 1.23766,-1.5 2.40625,-1.5 0.17312,0 0.33696,0.0047 0.5,0.03125 l 0,-1 C 109.83696,45.00469 109.67312,45 109.5,45 z m 7.3125,14 -2.4375,3.1875 c -0.24126,0.313285 -0.21431,0.700605 -0.0313,1.03125 0.009,-0.01224 0.022,-0.0192 0.0313,-0.03125 L 117.5625,59 l -0.75,0 z m 15.15625,0 3.1875,4.1875 c 0.009,0.01205 0.0227,0.01901 0.0313,0.03125 0.18306,-0.330643 0.21001,-0.717965 -0.0313,-1.03125 L 132.71875,59 l -0.75,0 z"
       style="opacity:0.3;fill:#000000;fill-opacity:1;stroke:none;display:inline" />
    <path
       style="opacity:0.5;fill:#000000;fill-opacity:1;stroke:none;display:inline"
       d="m 116,19 c -6.62742,0 -12,5.372584 -12,12 0,0.196126 0.0219,0.399964 0.0313,0.59375 C 104.24897,25.157602 109.51083,20 116,20 c 3.0781,0 5.87651,1.153599 8,3.0625 2.12349,-1.908901 4.9219,-3.0625 8,-3.0625 6.4362,0 11.671,5.074951 11.96875,11.4375 C 143.97406,31.291838 144,31.147048 144,31 c 0,-6.627416 -5.37258,-12 -12,-12 -3.0781,0 -5.87651,1.153599 -8,3.0625 C 121.87651,20.153599 119.0781,19 116,19 z m 0,8 c -2.20914,0 -4,1.790862 -4,4 0,0.17012 0.0419,0.335468 0.0625,0.5 0.24707,-1.972046 1.89848,-3.5 3.9375,-3.5 2.03902,0 3.69043,1.527954 3.9375,3.5 C 119.95811,31.335468 120,31.17012 120,31 c 0,-2.209138 -1.79086,-4 -4,-4 z m 16,0 c -2.20914,0 -4,1.790862 -4,4 0,0.17012 0.0419,0.335468 0.0625,0.5 0.24707,-1.972046 1.89848,-3.5 3.9375,-3.5 2.03902,0 3.69043,1.527954 3.9375,3.5 C 135.95811,31.335468 136,31.17012 136,31 c 0,-2.209138 -1.79086,-4 -4,-4 z m -10.0625,4.5 c -0.0168,0.155589 -0.006,0.316368 -0.0313,0.46875 -0.005,0.03031 0.005,0.0636 0,0.09375 -0.0442,0.24929 -0.11359,0.48111 -0.1875,0.71875 -0.0293,0.09358 -0.06,0.189706 -0.0937,0.28125 -0.23676,0.642262 -0.57203,1.231423 -1,1.75 C 119.52441,36.145983 117.86396,37 116,37 112.8934,37 110.33851,34.650537 110.03125,31.625 110.02378,31.747591 110,31.875529 110,32 c 0,3.313709 2.68629,6 6,6 1.86396,0 3.52441,-0.854017 4.625,-2.1875 0.42797,-0.518577 0.76324,-1.107738 1,-1.75 0.0337,-0.09154 0.0645,-0.18767 0.0937,-0.28125 0.0739,-0.23764 0.1433,-0.46946 0.1875,-0.71875 0.005,-0.03015 -0.005,-0.06344 0,-0.09375 C 121.95805,32.652916 122,32.330704 122,32 c 0,-0.171148 -0.0445,-0.333108 -0.0625,-0.5 z m 4.125,0 C 126.04449,31.666892 126,31.828852 126,32 c 0,0.330704 0.0419,0.652916 0.0937,0.96875 0.008,0.05035 -0.01,0.10633 0,0.15625 0.0613,0.326449 0.16939,0.632006 0.28125,0.9375 0.23676,0.642262 0.57203,1.231423 1,1.75 C 128.47549,37.145983 130.13604,38 132,38 c 3.31371,0 6,-2.686291 6,-6 0,-0.124471 -0.0238,-0.252409 -0.0313,-0.375 C 137.66149,34.650537 135.1066,37 132,37 c -1.86396,0 -3.52451,-0.854017 -4.625,-2.1875 -0.42797,-0.518577 -0.76324,-1.107738 -1,-1.75 -0.11186,-0.305494 -0.21996,-0.611051 -0.28125,-0.9375 -0.01,-0.04992 0.008,-0.105896 0,-0.15625 -0.025,-0.152382 -0.0145,-0.313161 -0.0313,-0.46875 z m 13.78125,9.5 c -0.11761,0.102171 -0.22227,0.214775 -0.34375,0.3125 0.32284,0.478652 0.5,1.06425 0.5,1.6875 l 0,-1 c 0,-0.346964 -0.0519,-0.688329 -0.15625,-1 z m 6.3125,0.03125 c -0.20856,0.0426 -0.41157,0.149448 -0.59375,0.3125 l -5.15625,3.625 -0.40625,0 0,1 0.40625,0 5.15625,-3.625 c 0.18218,-0.163052 0.38519,-0.2699 0.59375,-0.3125 0.90891,-0.181381 1.8231,1.079559 1.8125,2.5 l 0,-1 c 0.0106,-1.420441 -0.90359,-2.681381 -1.8125,-2.5 z M 110,42.375 110,43 c 0,-0.20775 0.0227,-0.398105 0.0625,-0.59375 C 110.0422,42.39459 110.0203,42.38678 110,42.375 z M 109.5,44 c -1.385,0 -2.5,0.892 -2.5,2 0,0.173125 0.0425,0.340001 0.0937,0.5 0.27659,-0.863997 1.23766,-1.5 2.40625,-1.5 0.17312,0 0.33696,0.0047 0.5,0.03125 l 0,-1 C 109.83696,44.00469 109.67312,44 109.5,44 z m 7.3125,14 -2.4375,3.1875 c -0.24126,0.313285 -0.21431,0.700605 -0.0313,1.03125 0.009,-0.01224 0.022,-0.0192 0.0313,-0.03125 L 117.5625,58 l -0.75,0 z m 15.15625,0 3.1875,4.1875 c 0.009,0.01205 0.0227,0.01901 0.0313,0.03125 0.18306,-0.330643 0.21001,-0.717965 -0.0313,-1.03125 L 132.71875,58 l -0.75,0 z"
       id="path4014"
       inkscape:connector-curvature="0" />
    <path
       inkscape:connector-curvature="0"
       id="path4016"
       d="m 116,25 c -3.31371,0 -6,2.686291 -6,6 0,0.124471 0.0238,0.252409 0.0313,0.375 C 110.33851,28.349463 112.8934,26 116,26 c 1.86396,0 3.52451,0.854017 4.625,2.1875 0.42797,0.518577 0.76324,1.107738 1,1.75 0.10094,0.27569 0.19006,0.550811 0.25,0.84375 0.0109,0.05217 0.0217,0.103585 0.0313,0.15625 0.005,0.03036 -0.005,0.06323 0,0.09375 0.025,0.152382 0.0145,0.313161 0.0313,0.46875 0.018,-0.166892 0.0625,-0.328852 0.0625,-0.5 0,-0.330704 -0.0419,-0.652916 -0.0937,-0.96875 -0.005,-0.03052 0.005,-0.06339 0,-0.09375 -0.01,-0.05266 -0.0204,-0.10408 -0.0313,-0.15625 -0.0599,-0.292939 -0.14906,-0.56806 -0.25,-0.84375 -0.23676,-0.642262 -0.57203,-1.231423 -1,-1.75 C 119.52451,25.854017 117.86396,25 116,25 z m 16,0 c -1.86396,0 -3.52446,0.854017 -4.625,2.1875 -0.42797,0.518577 -0.76324,1.107738 -1,1.75 -0.11186,0.305494 -0.21995,0.611051 -0.28125,0.9375 -0.01,0.04992 0.008,0.1059 0,0.15625 C 126.04195,30.347084 126,30.669296 126,31 c 0,0.171148 0.0445,0.333108 0.0625,0.5 0.0168,-0.155589 0.006,-0.316368 0.0313,-0.46875 0.008,-0.05035 -0.01,-0.106332 0,-0.15625 0.0613,-0.326449 0.16939,-0.632006 0.28125,-0.9375 0.23676,-0.642262 0.57203,-1.231423 1,-1.75 C 128.47554,26.854017 130.13604,26 132,26 c 3.1066,0 5.66149,2.349463 5.96875,5.375 C 137.97622,31.252409 138,31.124471 138,31 c 0,-3.313709 -2.68629,-6 -6,-6 z m 11.96875,6.4375 c -0.13111,3.59874 -1.84403,6.76362 -4.46875,8.875 0.14311,0.212186 0.26063,0.439318 0.34375,0.6875 C 142.36993,38.805388 144,35.611876 144,32 c 0,-0.191217 -0.0224,-0.373471 -0.0313,-0.5625 z M 112.0625,31.5 C 112.04189,31.664532 112,31.82988 112,32 c 0,2.209138 1.79086,4 4,4 2.20914,0 4,-1.790862 4,-4 0,-0.17012 -0.0419,-0.335468 -0.0625,-0.5 -0.24707,1.972046 -1.89848,3.5 -3.9375,3.5 -2.03902,0 -3.69043,-1.527954 -3.9375,-3.5 z m 16,0 C 128.04189,31.664532 128,31.82988 128,32 c 0,2.209138 1.79086,4 4,4 2.20914,0 4,-1.790862 4,-4 0,-0.17012 -0.0419,-0.335468 -0.0625,-0.5 -0.24707,1.972046 -1.89848,3.5 -3.9375,3.5 -2.03902,0 -3.69043,-1.527954 -3.9375,-3.5 z m -24.03125,0.09375 C 104.02661,31.730873 104,31.861748 104,32 c 0,4.431603 2.42451,8.296672 6,10.375 L 110,42 c 0,-0.20775 0.0227,-0.398105 0.0625,-0.59375 -3.45,-1.978662 -5.8272,-5.602734 -6.03125,-9.8125 z M 107.09375,46.5 C 107.04253,46.659999 107,46.826875 107,47 c 0,1.108 1.115,2 2.5,2 0.17312,0 0.33696,-0.0047 0.5,-0.03125 l 0,-1 C 109.83696,47.9953 109.67312,48 109.5,48 c -1.16859,0 -2.12966,-0.636003 -2.40625,-1.5 z M 140,50.96875 l 0,1 0.40625,0 5.15625,3.59375 c 0.48553,0.431077 1.10934,0.434113 1.59375,0 0.48441,-0.434083 0.81119,-1.288918 0.8125,-2.15625 l 0,-1 c -0.001,0.867332 -0.32809,1.722167 -0.8125,2.15625 -0.48441,0.434113 -1.10822,0.431077 -1.59375,0 l -5.15625,-3.59375 -0.40625,0 z M 110,54 l 0,1 c 0,1.662 1.338,3 3,3 l 1,0 2.8125,0 0.75,-1 -3.5625,0 -1,0 c -1.662,0 -3,-1.338 -3,-3 z m 30,0 c 0,1.662 -1.338,3 -3,3 l -1,0 -4.03125,0 0.75,1 3.28125,0 1,0 c 1.662,0 3,-1.338 3,-3 l 0,-1 z m -25.65625,8.21875 C 113.83577,62.947835 114.6577,64.006599 115.75,64 l 9,0 9.03125,0 c 1.0923,0.0066 1.91423,-1.052165 1.40625,-1.78125 -0.24341,0.439647 -0.77235,0.785074 -1.40625,0.78125 l -9.03125,0 -9,0 c -0.6339,0.0038 -1.16284,-0.341602 -1.40625,-0.78125 z"
       style="opacity:0.85;fill:#ffffff;fill-opacity:1;stroke:none;display:inline" />
  </g>
  <g
     id="g3156"
     transform="translate(-100,0)">
    <path
       inkscape:connector-curvature="0"
       id="path3157"
       d="m 112,5.5 c -2.7873,0 -5,2.2127028 -5,5 l 0,56.3125 c 1.07066,1.628779 2.89693,2.71875 5,2.71875 l 68,0 0,-25.21875 0,-5 0,-2 6.875,-4.125 c 0.86852,-0.47064 1.58604,-1.147137 2.125,-1.96875 L 189,10.5 c 0,-2.7872972 -2.2127,-5 -5,-5 l -72,0 z m 77,32.71875 c -0.13474,0.205403 -0.28087,0.407435 -0.4375,0.59375 0.16108,-0.189117 0.30071,-0.385228 0.4375,-0.59375 z"
       style="opacity:0.1;fill:url(#linearGradient3173);fill-opacity:1;fill-rule:nonzero;stroke:none;display:inline" />
    <path
       style="opacity:0.2;fill:url(#linearGradient3175);fill-opacity:1;fill-rule:nonzero;stroke:none"
       d="m 106,73.51565 0,2 c 0,3.324 2.676,6 6,6 l 62,0 c 3.324,0 6,-2.676 6,-6 l 0,-2 c 0,3.324 -2.676,6 -6,6 l -62,0 c -3.324,0 -6,-2.676 -6,-6 z"
       id="path3163"
       inkscape:connector-curvature="0"
       sodipodi:nodetypes="csssscssc" />
    <path
       id="path3167"
       d="m 190,29.90625 c 0,2.28525 -1.25434,4.267563 -3.125,5.28125 l -6.875,4.125 0,3 6.875,-4.125 C 188.74566,37.173813 190,35.1915 190,32.90625 l 0,-3 z"
       style="opacity:0.45;fill:#000000;fill-opacity:1;fill-rule:nonzero;stroke:none;display:inline"
       inkscape:connector-curvature="0" />
    <path
       inkscape:connector-curvature="0"
       id="path3169"
       d="m 190,27.90625 c 0,2.28525 -1.25434,4.267563 -3.125,5.28125 l -6.875,4.125 0,2 6.875,-4.125 C 188.74566,34.173813 190,32.1915 190,29.90625 l 0,-2 z"
       style="opacity:0.2;fill:#ffffff;fill-opacity:1;fill-rule:nonzero;stroke:none;display:inline" />
    <path
       style="opacity:0.05;fill:#ffffff;fill-opacity:1;fill-rule:nonzero;stroke:none;display:inline"
       d="m 190,27.90625 c 0,2.28525 -1.25434,4.267563 -3.125,5.28125 l -6.875,4.125 0,2 6.875,-4.125 C 188.74566,34.173813 190,32.1915 190,29.90625 l 0,-2 z"
       id="path3171"
       inkscape:connector-curvature="0" />
    <path
       inkscape:connector-curvature="0"
       id="path3198"
       d="m 106,75.5 0,2 c 0,3.324 2.676,6 6,6 l 62,0 c 3.324,0 6,-2.676 6,-6 l 0,-2 c 0,3.324 -2.676,6 -6,6 l -62,0 c -3.324,0 -6,-2.676 -6,-6 z"
       style="opacity:0.25;fill:#000000;fill-opacity:1;fill-rule:nonzero;stroke:none" />
    <path
       sodipodi:nodetypes="csssscssc"
       inkscape:connector-curvature="0"
       id="path3225"
       d="m 106,80.5 0,2 c 0,3.324 2.676,6 6,6 l 72,0 c 3.324,0 6,-2.676 6,-6 l 0,-2 c 0,3.324 -2.676,6 -6,6 l -72,0 c -3.324,0 -6,-2.676 -6,-6 z"
       style="opacity:0.25;fill:#000000;fill-opacity:1;fill-rule:nonzero;stroke:none" />
    <path
       sodipodi:nodetypes="csssscssc"
       inkscape:connector-curvature="0"
       id="path3227"
       d="m 106,80.5 0,2 c 0,3.324 2.676,6 6,6 l 72,0 c 3.324,0 6,-2.676 6,-6 l 0,-2 c 0,3.324 -2.676,6 -6,6 l -72,0 c -3.324,0 -6,-2.676 -6,-6 z"
       style="opacity:0.1;fill:url(#linearGradient3177);fill-opacity:1;fill-rule:nonzero;stroke:none" />
    <path
       id="path4116"
       d="m 190,79.53125 c 0,3.324 -2.676,6 -6,6 L 177.28125,85.5 c -0.94168,0.62023 -2.06399,1 -3.28125,1 l 10,0.03125 c 3.324,0 6,-2.676 6,-6 l 0,-1 z"
       style="opacity:0.15;fill:#ffffff;fill-opacity:1;fill-rule:nonzero;stroke:none"
       inkscape:connector-curvature="0" />
    <path
       inkscape:connector-curvature="0"
       id="path3316"
       d="m 112,4.5 c -3.324,0 -6,2.6759996 -6,6 l 0,15 1,0 0,-15 c 0,-2.7872972 2.2127,-5 5,-5 l 72,0 c 2.7873,0 5,2.2127028 5,5 l 0,15 1,0 0,-15 c 0,-3.3240004 -2.676,-6 -6,-6 l -72,0 z"
       style="opacity:0.45;fill:url(#radialGradient3179);fill-opacity:1;fill-rule:nonzero;stroke:none;display:inline" />
    <path
       inkscape:connector-curvature="0"
       id="path4105"
       d="m 190,32.90625 c 0,2.28525 -1.25434,4.267563 -3.125,5.28125 L 180,42.3125 180,80.5 c 0,3.324 -2.676,6 -6,6 l 2,0 c 3.324,0 6,-2.676 6,-6 l 0,-38.1875 6.875,-4.125 c 0.40921,-0.221744 0.78146,-0.505024 1.125,-0.8125 l 0,-4.46875 z"
       style="opacity:0.1;fill:#000000;fill-opacity:1;fill-rule:nonzero;stroke:none;display:inline" />
    <path
       inkscape:connector-curvature="0"
       id="path4117"
       d="m 190,37.375 c -0.34354,0.307476 -0.71579,0.590756 -1.125,0.8125 L 182,42.3125 182,80.5 c 0,3.324 -2.676,6 -6,6 l 2,0 c 3.324,0 6,-2.676 6,-6 l 0,-38.1875 6,-3.59375 0,-1.34375 z"
       style="opacity:0.05;fill:#000000;fill-opacity:1;fill-rule:nonzero;stroke:none;display:inline" />
    <path
       inkscape:connector-curvature="0"
       id="path3076"
       d="m 106,75.5 0,2 c 0,3.324 2.676,6 6,6 l 62,0 c 3.324,0 6,-2.676 6,-6 l 0,-2 c 0,3.324 -2.676,6 -6,6 l -62,0 c -3.324,0 -6,-2.676 -6,-6 z"
       style="opacity:0.1;fill:url(#linearGradient3181);fill-opacity:1;fill-rule:nonzero;stroke:none" />
    <path
       inkscape:connector-curvature="0"
       id="path3089"
       d="m 106,77.5 0,1 0,1 0,1 c 0,3.324 2.676,6 6,6 l 62,0 c 3.324,0 6,-2.676 6,-6 l 0,-1 0,-1 0,-1 c 0,3.324 -2.676,6 -6,6 l -62,0 c -3.324,0 -6,-2.676 -6,-6 z"
       style="opacity:0.65;fill:url(#linearGradient3183);fill-opacity:1;fill-rule:nonzero;stroke:none" />
    <path
       inkscape:connector-curvature="0"
       id="path4122"
       d="m 106,79.5 0,1 c 0,3.324 2.676,6 6,6 l 62,0 c 1.23052,0 2.36247,-0.369434 3.3125,-1 L 112,85.5 c -3.324,0 -6,-2.676 -6,-6 z"
       style="opacity:0.15;fill:#ffffff;fill-opacity:1;fill-rule:nonzero;stroke:none" />
  </g>
</svg>
