<?xml version="1.0" encoding="UTF-8" standalone="no"?>
<!-- Created with Inkscape (http://www.inkscape.org/) -->

<svg
   xmlns:dc="http://purl.org/dc/elements/1.1/"
   xmlns:cc="http://creativecommons.org/ns#"
   xmlns:rdf="http://www.w3.org/1999/02/22-rdf-syntax-ns#"
   xmlns:svg="http://www.w3.org/2000/svg"
   xmlns="http://www.w3.org/2000/svg"
   xmlns:xlink="http://www.w3.org/1999/xlink"
   xmlns:sodipodi="http://sodipodi.sourceforge.net/DTD/sodipodi-0.dtd"
   xmlns:inkscape="http://www.inkscape.org/namespaces/inkscape"
   version="1.0"
   width="96"
   height="96"
   id="svg2408"
   inkscape:version="0.48.2 r9819"
   sodipodi:docname="folder-open.svg">
  <metadata
     id="metadata72">
    <rdf:RDF>
      <cc:Work
         rdf:about="">
        <dc:format>image/svg+xml</dc:format>
        <dc:type
           rdf:resource="http://purl.org/dc/dcmitype/StillImage" />
        <dc:title />
      </cc:Work>
    </rdf:RDF>
  </metadata>
  <sodipodi:namedview
     pagecolor="#ffffff"
     bordercolor="#666666"
     borderopacity="1"
     objecttolerance="10"
     gridtolerance="10"
     guidetolerance="10"
     inkscape:pageopacity="0"
     inkscape:pageshadow="2"
     inkscape:window-width="1238"
     inkscape:window-height="735"
     id="namedview70"
     showgrid="false"
     inkscape:zoom="4.3204275"
     inkscape:cx="135.53802"
     inkscape:cy="62.12787"
     inkscape:window-x="0"
     inkscape:window-y="0"
     inkscape:window-maximized="0"
     inkscape:current-layer="svg2408"
     inkscape:object-paths="true"
     inkscape:snap-intersection-paths="true"
     inkscape:object-nodes="true"
     inkscape:snap-smooth-nodes="true"
     inkscape:snap-midpoints="true"
     inkscape:snap-object-midpoints="true"
     inkscape:snap-center="true"
     inkscape:snap-bbox="true"
     inkscape:bbox-paths="true"
     inkscape:bbox-nodes="true"
     inkscape:snap-bbox-edge-midpoints="true"
     inkscape:snap-bbox-midpoints="true"
     showguides="true"
     inkscape:guide-bbox="true"
     inkscape:snap-global="true" />
  <defs
     id="defs2410">
    <linearGradient
       id="linearGradient3874">
      <stop
         style="stop-color:#000000;stop-opacity:1;"
         offset="0"
         id="stop3876" />
      <stop
         style="stop-color:#000000;stop-opacity:0;"
         offset="1"
         id="stop3878" />
    </linearGradient>
    <linearGradient
       id="linearGradient4091">
      <stop
         style="stop-color:#ffffff;stop-opacity:1;"
         offset="0"
         id="stop4093" />
      <stop
         id="stop4099"
         offset="0.80000001"
         style="stop-color:#ffffff;stop-opacity:1;" />
      <stop
         style="stop-color:#ffffff;stop-opacity:0;"
         offset="1"
         id="stop4095" />
    </linearGradient>
    <linearGradient
       id="linearGradient4188">
      <stop
         style="stop-color:#ffffff;stop-opacity:0;"
         offset="0"
         id="stop4190" />
      <stop
         id="stop4198"
         offset="0.15000001"
         style="stop-color:#ffffff;stop-opacity:1;" />
      <stop
         id="stop4196"
         offset="0.85000002"
         style="stop-color:#ffffff;stop-opacity:1;" />
      <stop
         style="stop-color:#ffffff;stop-opacity:0;"
         offset="1"
         id="stop4192" />
    </linearGradient>
    <linearGradient
       inkscape:collect="always"
       id="linearGradient3888">
      <stop
         style="stop-color:#ffffff;stop-opacity:1;"
         offset="0"
         id="stop3890" />
      <stop
         style="stop-color:#ffffff;stop-opacity:0;"
         offset="1"
         id="stop3892" />
    </linearGradient>
    <linearGradient
       x1="45.447727"
       y1="92.539597"
       x2="45.447727"
       y2="7.0165396"
       id="ButtonShadow"
       gradientUnits="userSpaceOnUse"
       gradientTransform="scale(1.0058652,0.994169)">
      <stop
         id="stop3750"
         style="stop-color:#000000;stop-opacity:1"
         offset="0" />
      <stop
         id="stop3752"
         style="stop-color:#000000;stop-opacity:0.58823532"
         offset="1" />
    </linearGradient>
    <filter
       color-interpolation-filters="sRGB"
       id="filter3174">
      <feGaussianBlur
         id="feGaussianBlur3176"
         stdDeviation="1.71" />
    </filter>
    <linearGradient
       inkscape:collect="always"
       xlink:href="#gradient4-1"
       id="linearGradient3050-6"
       gradientUnits="userSpaceOnUse"
       spreadMethod="pad"
       x1="32.251045"
       y1="6.1317058"
       x2="32.251045"
       y2="90.238678"
       gradientTransform="translate(6,-89.50005)" />
    <linearGradient
       id="gradient4-1"
       gradientUnits="userSpaceOnUse"
       x1="32.251045"
       y1="6.1317058"
       x2="32.251045"
       y2="90.238678"
       spreadMethod="pad">
      <stop
         stop-color="#000000"
         offset="0.00000000000"
         stop-opacity="1.00000000000"
         id="stop27-0" />
      <stop
         stop-color="#000000"
         offset="1.00000000000"
         stop-opacity="0.58823529412"
         id="stop29-6" />
    </linearGradient>
    <linearGradient
       inkscape:collect="always"
       xlink:href="#gradient3-2"
       id="linearGradient3053-3"
       gradientUnits="userSpaceOnUse"
       gradientTransform="matrix(1.0058652,0,0,0.99416905,5,-90.50005)"
       spreadMethod="pad"
       x1="32.062981"
       y1="6.1676679"
       x2="32.062981"
       y2="90.767815" />
    <linearGradient
       id="gradient3-2"
       gradientTransform="scale(1.0058652,0.99416905)"
       gradientUnits="userSpaceOnUse"
       x1="32.062981"
       y1="6.1676679"
       x2="32.062981"
       y2="90.767815"
       spreadMethod="pad">
      <stop
         stop-color="#000000"
         offset="0.00000000000"
         stop-opacity="1.00000000000"
         id="stop22-0" />
      <stop
         stop-color="#000000"
         offset="1.00000000000"
         stop-opacity="0.58823529412"
         id="stop24-6" />
    </linearGradient>
    <linearGradient
       inkscape:collect="always"
       xlink:href="#gradient2-5"
       id="linearGradient3056-1"
       gradientUnits="userSpaceOnUse"
       gradientTransform="matrix(1.0057307,0,0,-0.99430195,4,91.50005)"
       spreadMethod="pad"
       x1="32.067265"
       y1="6.1668468"
       x2="32.067265"
       y2="90.756142" />
    <linearGradient
       id="gradient2-5"
       gradientTransform="scale(1.0057307,0.99430195)"
       gradientUnits="userSpaceOnUse"
       x1="32.067265"
       y1="6.1668468"
       x2="32.067265"
       y2="90.756142"
       spreadMethod="pad">
      <stop
         stop-color="#000000"
         offset="0.00000000000"
         stop-opacity="1.00000000000"
         id="stop17-5" />
      <stop
         stop-color="#000000"
         offset="1.00000000000"
         stop-opacity="0.58823529412"
         id="stop19-4" />
    </linearGradient>
    <linearGradient
       inkscape:collect="always"
       xlink:href="#gradient1-6"
       id="linearGradient3059-7"
       gradientUnits="userSpaceOnUse"
       gradientTransform="matrix(1.0055984,0,0,-0.9944328,2.96875,92.53125)"
       spreadMethod="pad"
       x1="32.071472"
       y1="6.1660314"
       x2="32.071472"
       y2="90.744209" />
    <linearGradient
       id="gradient1-6"
       gradientTransform="scale(1.0055984,0.9944328)"
       gradientUnits="userSpaceOnUse"
       x1="32.071472"
       y1="6.1660314"
       x2="32.071472"
       y2="90.744209"
       spreadMethod="pad">
      <stop
         stop-color="#000000"
         offset="0.00000000000"
         stop-opacity="1.00000000000"
         id="stop12-5" />
      <stop
         stop-color="#000000"
         offset="1.00000000000"
         stop-opacity="0.58823529412"
         id="stop14-6" />
    </linearGradient>
    <linearGradient
       id="gradient0-3"
       gradientTransform="scale(1.0054757,0.99455408)"
       gradientUnits="userSpaceOnUse"
       x1="32.07542"
       y1="6.1652875"
       x2="32.07542"
       y2="90.732689"
       spreadMethod="pad">
      <stop
         stop-color="#000000"
         offset="0.00000000000"
         stop-opacity="1.00000000000"
         id="stop7-7" />
      <stop
         stop-color="#000000"
         offset="1.00000000000"
         stop-opacity="0.58823529412"
         id="stop9-4" />
    </linearGradient>
    <linearGradient
       y2="90.732689"
       x2="32.07542"
       y1="6.1652875"
       x1="32.07542"
       spreadMethod="pad"
       gradientTransform="matrix(1.0054757,0,0,-0.99455408,1.96875,93.53125)"
       gradientUnits="userSpaceOnUse"
       id="linearGradient3216"
       xlink:href="#gradient0-3"
       inkscape:collect="always" />
    <linearGradient
       id="linearGradient3832">
      <stop
         style="stop-color:#000000;stop-opacity:1;"
         offset="0"
         id="stop3834" />
      <stop
         id="stop3842"
         offset="0.05"
         style="stop-color:#ffffff;stop-opacity:1;" />
      <stop
         style="stop-color:#000000;stop-opacity:1;"
         offset="0.1"
         id="stop3846" />
      <stop
         id="stop3840"
         offset="0.5"
         style="stop-color:#000000;stop-opacity:0.49803922;" />
      <stop
         style="stop-color:#000000;stop-opacity:1;"
         offset="0.89999998"
         id="stop3844" />
      <stop
         id="stop3848"
         offset="0.94999999"
         style="stop-color:#ffffff;stop-opacity:1;" />
      <stop
         style="stop-color:#000000;stop-opacity:1;"
         offset="1"
         id="stop3836" />
    </linearGradient>
    <linearGradient
       id="linearGradient4144-8">
      <stop
         style="stop-color:#dddddd;stop-opacity:1;"
         offset="0"
         id="stop4146-4" />
      <stop
         id="stop4152-5"
         offset="0.64999998"
         style="stop-color:#989898;stop-opacity:1;" />
      <stop
         style="stop-color:#eaeaea;stop-opacity:1;"
         offset="1"
         id="stop4148-0" />
    </linearGradient>
    <linearGradient
       inkscape:collect="always"
       xlink:href="#linearGradient4144-8"
       id="linearGradient4547"
       gradientUnits="userSpaceOnUse"
       gradientTransform="matrix(0.87669792,0,0,1,89.423067,0)"
       x1="72.875"
       y1="68.71875"
       x2="72.875"
       y2="77.34375" />
    <linearGradient
       inkscape:collect="always"
       xlink:href="#linearGradient4188"
       id="linearGradient4863"
       gradientUnits="userSpaceOnUse"
       x1="112.09375"
       y1="76.609375"
       x2="183.90625"
       y2="76.609375" />
    <linearGradient
       inkscape:collect="always"
       xlink:href="#linearGradient4188"
       id="linearGradient4917"
       gradientUnits="userSpaceOnUse"
       x1="122.0821"
       y1="76.609375"
       x2="183.90625"
       y2="76.609375" />
    <linearGradient
       inkscape:collect="always"
       xlink:href="#linearGradient4188"
       id="linearGradient4933"
       gradientUnits="userSpaceOnUse"
       x1="122.0821"
       y1="76.609375"
       x2="183.90625"
       y2="76.609375" />
    <linearGradient
       inkscape:collect="always"
       xlink:href="#linearGradient4188"
       id="linearGradient3153"
       gradientUnits="userSpaceOnUse"
       gradientTransform="translate(10,0)"
       x1="106"
       y1="77.51565"
       x2="159.6611"
       y2="77.515648" />
    <linearGradient
       inkscape:collect="always"
       xlink:href="#linearGradient3888"
       id="linearGradient3155"
       gradientUnits="userSpaceOnUse"
       gradientTransform="translate(210,0)"
       x1="-56.230446"
       y1="5.5"
       x2="-56.230446"
       y2="69.53125" />
    <linearGradient
       inkscape:collect="always"
       xlink:href="#linearGradient3832"
       id="linearGradient3157"
       gradientUnits="userSpaceOnUse"
       gradientTransform="translate(210,-0.9843498)"
       x1="-94"
       y1="82.984398"
       x2="-10.187523"
       y2="82.984398" />
    <radialGradient
       inkscape:collect="always"
       xlink:href="#linearGradient4091"
       id="radialGradient3159"
       gradientUnits="userSpaceOnUse"
       gradientTransform="matrix(-0.80952378,1.1891054e-6,-7.3444745e-7,-0.49999999,194.40744,-9.0000675)"
       cx="57.326862"
       cy="-27"
       fx="57.326862"
       fy="-27"
       r="42" />
    <linearGradient
       inkscape:collect="always"
       xlink:href="#linearGradient3832"
       id="linearGradient3161"
       gradientUnits="userSpaceOnUse"
       gradientTransform="translate(210,-0.9843498)"
       x1="-94"
       y1="82.984398"
       x2="-40.187523"
       y2="82.984398" />
    <linearGradient
       inkscape:collect="always"
       xlink:href="#linearGradient3874"
       id="linearGradient3163"
       gradientUnits="userSpaceOnUse"
       gradientTransform="translate(110,0)"
       x1="57.3125"
       y1="82"
       x2="64.148376"
       y2="82" />
    <linearGradient
       inkscape:collect="always"
       xlink:href="#linearGradient4188"
       id="linearGradient3147"
       gradientUnits="userSpaceOnUse"
       gradientTransform="translate(10,0)"
       x1="106"
       y1="77.51565"
       x2="159.6611"
       y2="77.515648" />
    <linearGradient
       inkscape:collect="always"
       xlink:href="#linearGradient3888"
       id="linearGradient3149"
       gradientUnits="userSpaceOnUse"
       gradientTransform="translate(210,0)"
       x1="-56.230446"
       y1="5.5"
       x2="-56.230446"
       y2="69.53125" />
    <linearGradient
       inkscape:collect="always"
       xlink:href="#linearGradient3832"
       id="linearGradient3151"
       gradientUnits="userSpaceOnUse"
       gradientTransform="translate(210,-0.9843498)"
       x1="-94"
       y1="82.984398"
       x2="-10.187523"
       y2="82.984398" />
    <radialGradient
       inkscape:collect="always"
       xlink:href="#linearGradient4091"
       id="radialGradient3153"
       gradientUnits="userSpaceOnUse"
       gradientTransform="matrix(-0.80952378,1.1891054e-6,-7.3444745e-7,-0.49999999,194.40744,-9.0000675)"
       cx="57.326862"
       cy="-27"
       fx="57.326862"
       fy="-27"
       r="42" />
    <linearGradient
       inkscape:collect="always"
       xlink:href="#linearGradient3832"
       id="linearGradient3156"
       gradientUnits="userSpaceOnUse"
       gradientTransform="translate(210,-0.9843498)"
       x1="-94"
       y1="82.984398"
       x2="-40.187523"
       y2="82.984398" />
    <linearGradient
       inkscape:collect="always"
       xlink:href="#linearGradient3874"
       id="linearGradient3158"
       gradientUnits="userSpaceOnUse"
       gradientTransform="translate(110,0)"
       x1="57.3125"
       y1="82"
       x2="64.148376"
       y2="82" />
    <linearGradient
       inkscape:collect="always"
       xlink:href="#linearGradient3874"
       id="linearGradient3164"
       gradientUnits="userSpaceOnUse"
       gradientTransform="translate(120,0)"
       x1="57.3125"
       y1="82"
       x2="64.148376"
       y2="82" />
    <linearGradient
       inkscape:collect="always"
       xlink:href="#linearGradient3832"
       id="linearGradient3167"
       gradientUnits="userSpaceOnUse"
       gradientTransform="translate(220,-0.9843498)"
       x1="-94"
       y1="82.984398"
       x2="-40.187523"
       y2="82.984398" />
    <radialGradient
       inkscape:collect="always"
       xlink:href="#linearGradient4091"
       id="radialGradient3170"
       gradientUnits="userSpaceOnUse"
       gradientTransform="matrix(-0.80952378,1.1891054e-6,-7.3444745e-7,-0.49999999,204.40744,-9.0000675)"
       cx="57.326862"
       cy="-27"
       fx="57.326862"
       fy="-27"
       r="42" />
    <linearGradient
       inkscape:collect="always"
       xlink:href="#linearGradient3832"
       id="linearGradient3174"
       gradientUnits="userSpaceOnUse"
       gradientTransform="translate(220,-0.9843498)"
       x1="-94"
       y1="82.984398"
       x2="-10.187523"
       y2="82.984398" />
    <linearGradient
       inkscape:collect="always"
       xlink:href="#linearGradient3888"
       id="linearGradient3182"
       gradientUnits="userSpaceOnUse"
       gradientTransform="translate(220,0)"
       x1="-56.230446"
       y1="5.5"
       x2="-56.230446"
       y2="69.53125" />
    <linearGradient
       inkscape:collect="always"
       xlink:href="#linearGradient4188"
       id="linearGradient3185"
       gradientUnits="userSpaceOnUse"
       gradientTransform="translate(20,0)"
       x1="106"
       y1="77.51565"
       x2="159.6611"
       y2="77.515648" />
    <radialGradient
       inkscape:collect="always"
       xlink:href="#linearGradient4091"
       id="radialGradient3190"
       gradientUnits="userSpaceOnUse"
       gradientTransform="matrix(-0.80952378,1.1891054e-6,-7.3444745e-7,-0.49999999,204.40744,-9.0000675)"
       cx="57.326862"
       cy="-27"
       fx="57.326862"
       fy="-27"
       r="42" />
    <linearGradient
       inkscape:collect="always"
       xlink:href="#linearGradient3874"
       id="linearGradient3196"
       gradientUnits="userSpaceOnUse"
       gradientTransform="translate(100,0)"
       x1="57.3125"
       y1="82"
       x2="64.148376"
       y2="82" />
    <linearGradient
       inkscape:collect="always"
       xlink:href="#linearGradient3832"
       id="linearGradient3199"
       gradientUnits="userSpaceOnUse"
       gradientTransform="translate(200,-0.9843498)"
       x1="-94"
       y1="82.984398"
       x2="-40.187523"
       y2="82.984398" />
    <radialGradient
       inkscape:collect="always"
       xlink:href="#linearGradient4091"
       id="radialGradient3202"
       gradientUnits="userSpaceOnUse"
       gradientTransform="matrix(-0.80952378,1.1891054e-6,-7.3444745e-7,-0.49999999,184.40744,-9.0000675)"
       cx="57.326862"
       cy="-27"
       fx="57.326862"
       fy="-27"
       r="42" />
    <linearGradient
       inkscape:collect="always"
       xlink:href="#linearGradient3832"
       id="linearGradient3206"
       gradientUnits="userSpaceOnUse"
       gradientTransform="translate(200,-0.9843498)"
       x1="-94"
       y1="82.984398"
       x2="-10.187523"
       y2="82.984398" />
    <linearGradient
       inkscape:collect="always"
       xlink:href="#linearGradient3888"
       id="linearGradient3214"
       gradientUnits="userSpaceOnUse"
       gradientTransform="translate(200,0)"
       x1="-56.230446"
       y1="5.5"
       x2="-56.230446"
       y2="69.53125" />
    <linearGradient
       inkscape:collect="always"
       xlink:href="#linearGradient4188"
       id="linearGradient3217"
       gradientUnits="userSpaceOnUse"
       x1="106"
       y1="77.51565"
       x2="159.6611"
       y2="77.515648" />
    <linearGradient
       inkscape:collect="always"
       xlink:href="#linearGradient4188"
       id="linearGradient3237"
       gradientUnits="userSpaceOnUse"
       x1="106"
       y1="77.51565"
       x2="159.6611"
       y2="77.515648" />
    <linearGradient
       inkscape:collect="always"
       xlink:href="#linearGradient3888"
       id="linearGradient3239"
       gradientUnits="userSpaceOnUse"
       gradientTransform="translate(200,0)"
       x1="-56.230446"
       y1="5.5"
       x2="-56.230446"
       y2="69.53125" />
    <linearGradient
       inkscape:collect="always"
       xlink:href="#linearGradient3832"
       id="linearGradient3241"
       gradientUnits="userSpaceOnUse"
       gradientTransform="translate(200,-0.9843498)"
       x1="-94"
       y1="82.984398"
       x2="-10.187523"
       y2="82.984398" />
    <radialGradient
       inkscape:collect="always"
       xlink:href="#linearGradient4091"
       id="radialGradient3243"
       gradientUnits="userSpaceOnUse"
       gradientTransform="matrix(-0.80952378,1.1891054e-6,-7.3444745e-7,-0.49999999,184.40744,-9.0000675)"
       cx="57.326862"
       cy="-27"
       fx="57.326862"
       fy="-27"
       r="42" />
    <linearGradient
       inkscape:collect="always"
       xlink:href="#linearGradient3832"
       id="linearGradient3245"
       gradientUnits="userSpaceOnUse"
       gradientTransform="translate(200,-0.9843498)"
       x1="-94"
       y1="82.984398"
       x2="-40.187523"
       y2="82.984398" />
    <linearGradient
       inkscape:collect="always"
       xlink:href="#linearGradient3874"
       id="linearGradient3247"
       gradientUnits="userSpaceOnUse"
       gradientTransform="translate(100,0)"
       x1="57.3125"
       y1="82"
       x2="64.148376"
       y2="82" />
    <radialGradient
       inkscape:collect="always"
       xlink:href="#linearGradient4091"
       id="radialGradient3249"
       gradientUnits="userSpaceOnUse"
       gradientTransform="matrix(-0.80952378,1.1891054e-6,-7.3444745e-7,-0.49999999,204.40744,-9.0000675)"
       cx="57.326862"
       cy="-27"
       fx="57.326862"
       fy="-27"
       r="42" />
  </defs>
  <g
     id="layer2"
     style="display:none">
    <rect
       width="86"
       height="85"
       rx="6"
       ry="6"
       x="5"
       y="7"
       id="rect3745"
       style="opacity:0.9;fill:url(#ButtonShadow);fill-opacity:1;fill-rule:nonzero;stroke:none;filter:url(#filter3174)" />
  </g>
  <g
     id="g3943">
    <path
       id="path3786-4"
       d="m 11.99995,93.53125 c -5.51104,0 -10.0312,-4.52016 -10.0312,-10.0312 l 0,-71 c 0,-5.5111 4.52016,-10.0313 10.0312,-10.0313 l 72,0 c 5.5111,0 10.0313,4.5202 10.0313,10.0313 l 0,71 c 0,5.51104 -4.5202,10.0312 -10.0313,10.0312 z"
       style="opacity:0.07999998;fill:url(#linearGradient3216)"
       inkscape:connector-curvature="0" />
    <path
       id="path3778-5"
       d="m 12,92.53125 c -4.97163,0 -9.03125,-4.05962 -9.03125,-9.03125 l 0,-70.99995 c 0,-4.9717 4.05962,-9.0313 9.03125,-9.0313 l 71.99995,0 c 4.9717,0 9.0313,4.0596 9.0313,9.0313 l 0,70.99995 c 0,4.97163 -4.0596,9.03125 -9.0313,9.03125 z"
       style="opacity:0.1;fill:url(#linearGradient3059-7)"
       inkscape:connector-curvature="0" />
    <path
       id="path3770-2"
       d="m 12,91.50005 c -4.40913,0 -8,-3.59087 -8,-8 l 0,-71 c 0,-4.4091 3.59087,-8 8,-8 l 72,0 c 4.4091,0 8,3.5909 8,8 l 0,71 c 0,4.40913 -3.5909,8 -8,8 z"
       style="opacity:0.2;fill:url(#linearGradient3056-1)"
       inkscape:connector-curvature="0" />
    <rect
       id="rect3723-5"
       transform="scale(1,-1)"
       width="86"
       height="85"
       rx="7"
       ry="7"
       style="opacity:0.3;fill:url(#linearGradient3053-3)"
       x="5"
       y="-90.500046" />
    <rect
       id="rect3716-4"
       transform="scale(1,-1)"
       width="84"
       height="84"
       rx="6"
       ry="6"
       style="opacity:0.4;fill:url(#linearGradient3050-6)"
       x="6"
       y="-89.500046" />
  </g>
  <path
     style="fill:#202020;fill-opacity:1;fill-rule:nonzero;stroke:none;display:inline"
     d="m 84,4.5000496 -72,0 c -3.324,0 -6,2.676 -6,6.0000004 l 0,72 c 0,3.324 2.676,6 6,6 l 72,0 c 3.324,0 6,-2.676 6,-6 l 0,-72 C 90,7.1760496 87.324,4.5000496 84,4.5000496 z"
     id="rect2419-1"
     inkscape:connector-curvature="0" />
  <g
     id="g4855"
     transform="translate(-100,0)">
    <path
       sodipodi:nodetypes="sssssssss"
       inkscape:connector-curvature="0"
       id="path4843"
       d="m 117.21875,8.59375 c -3.921,0 -7.125,3.203999 -7.125,7.125 l 0,60.5625 c 0,3.921001 3.204,7.125 7.125,7.125 l 61.5625,0 c 3.921,0 7.125,-3.203999 7.125,-7.125 l 0,-60.5625 c 0,-3.921001 -3.204,-7.125 -7.125,-7.125 z"
       style="font-size:medium;font-style:normal;font-variant:normal;font-weight:normal;font-stretch:normal;text-indent:0;text-align:start;text-decoration:none;line-height:normal;letter-spacing:normal;word-spacing:normal;text-transform:none;direction:ltr;block-progression:tb;writing-mode:lr-tb;text-anchor:start;baseline-shift:baseline;opacity:0.1;color:#000000;fill:#000000;fill-opacity:1;fill-rule:nonzero;stroke:none;stroke-width:2;marker:none;visibility:visible;display:inline;overflow:visible;enable-background:accumulate;font-family:Sans;-inkscape-font-specification:Sans" />
    <path
       style="font-size:medium;font-style:normal;font-variant:normal;font-weight:normal;font-stretch:normal;text-indent:0;text-align:start;text-decoration:none;line-height:normal;letter-spacing:normal;word-spacing:normal;text-transform:none;direction:ltr;block-progression:tb;writing-mode:lr-tb;text-anchor:start;baseline-shift:baseline;opacity:0.2;color:#000000;fill:#000000;fill-opacity:1;fill-rule:nonzero;stroke:none;stroke-width:2;marker:none;visibility:visible;display:inline;overflow:visible;enable-background:accumulate;font-family:Sans;-inkscape-font-specification:Sans"
       d="m 117.21875,8.59375 c -3.37935,0 -6.125,2.745652 -6.125,6.125 l 0,61.5625 c 0,3.379348 2.74565,6.125 6.125,6.125 l 61.5625,0 c 3.37935,0 6.125,-2.745652 6.125,-6.125 l 0,-61.5625 c 0,-3.379348 -2.74565,-6.125 -6.125,-6.125 z"
       id="path4849"
       inkscape:connector-curvature="0"
       sodipodi:nodetypes="sssssssss" />
    <path
       style="fill:#ececec;fill-opacity:1;fill-rule:nonzero;stroke:none;display:inline"
       d="m 178.78677,9.582146 -61.57354,0 c -2.84265,0 -5.13113,2.288484 -5.13113,5.13113 l 0,61.573548 c 0,2.842646 2.28848,5.13113 5.13113,5.13113 l 61.57354,0 c 2.84265,0 5.13113,-2.288484 5.13113,-5.13113 l 0,-61.573548 c 0,-2.842646 -2.28848,-5.13113 -5.13113,-5.13113 z"
       id="path4710"
       inkscape:connector-curvature="0" />
    <path
       inkscape:connector-curvature="0"
       id="path4810"
       d="m 112.09375,74.8125 0,1.46875 c 0,2.842646 2.28235,5.125 5.125,5.125 l 61.5625,0 c 2.84265,0 5.125,-2.282354 5.125,-5.125 l 0,-1.46875 c -0.26183,2.593688 -2.46002,4.59375 -5.125,4.59375 l -61.5625,0 c -2.66498,0 -4.86317,-2.000062 -5.125,-4.59375 z"
       style="opacity:0.1;fill:#000000;fill-opacity:1;fill-rule:nonzero;stroke:none;display:inline" />
    <path
       inkscape:connector-curvature="0"
       id="path4815"
       d="m 112.09375,73.8125 0,1 c 0.26183,2.593688 2.46002,4.59375 5.125,4.59375 l 61.5625,0 c 2.66498,0 4.86317,-2.000062 5.125,-4.59375 l 0,-1 c -0.26183,2.593688 -2.46002,4.59375 -5.125,4.59375 l -61.5625,0 c -2.66498,0 -4.86317,-2.000062 -5.125,-4.59375 z"
       style="opacity:0.4;fill:url(#linearGradient4863);fill-opacity:1;fill-rule:nonzero;stroke:none;display:inline" />
    <path
       inkscape:connector-curvature="0"
       id="path4820"
       d="m 116.6875,9.59375 c -2.59369,0.2618304 -4.59375,2.460019 -4.59375,5.125 l 0,0.46875 c 0.26183,-2.593688 2.46002,-4.59375 5.125,-4.59375 l 61.5625,0 c 2.66498,0 4.86317,2.000062 5.125,4.59375 l 0,-0.46875 c 0,-2.842646 -2.28235,-5.125 -5.125,-5.125 l -61.5625,0 c -0.17767,0 -0.35834,-0.017455 -0.53125,0 z"
       style="opacity:0.5;fill:#ffffff;fill-opacity:1;fill-rule:nonzero;stroke:none;display:inline" />
  </g>
  <g
     id="g4909"
     transform="translate(-107,0)">
    <path
       style="font-size:medium;font-style:normal;font-variant:normal;font-weight:normal;font-stretch:normal;text-indent:0;text-align:start;text-decoration:none;line-height:normal;letter-spacing:normal;word-spacing:normal;text-transform:none;direction:ltr;block-progression:tb;writing-mode:lr-tb;text-anchor:start;baseline-shift:baseline;opacity:0.1;color:#000000;fill:#000000;fill-opacity:1;fill-rule:nonzero;stroke:none;stroke-width:2;marker:none;visibility:visible;display:inline;overflow:visible;enable-background:accumulate;font-family:Sans;-inkscape-font-specification:Sans"
       d="m 127.21875,8.59375 c -3.921,0 -7.125,3.203999 -7.125,7.125 l 0,60.5625 c 0,3.921001 3.204,7.125 7.125,7.125 l 51.5625,0 c 3.921,0 7.125,-3.203999 7.125,-7.125 l 0,-60.5625 c 0,-3.921001 -3.204,-7.125 -7.125,-7.125 z"
       id="path4867"
       inkscape:connector-curvature="0"
       sodipodi:nodetypes="sssssssss" />
    <path
       sodipodi:nodetypes="sssssssss"
       inkscape:connector-curvature="0"
       id="path4869"
       d="m 127.21875,8.59375 c -3.37935,0 -6.125,2.745652 -6.125,6.125 l 0,61.5625 c 0,3.379348 2.74565,6.125 6.125,6.125 l 51.5625,0 c 3.37935,0 6.125,-2.745652 6.125,-6.125 l 0,-61.5625 c 0,-3.379348 -2.74565,-6.125 -6.125,-6.125 z"
       style="font-size:medium;font-style:normal;font-variant:normal;font-weight:normal;font-stretch:normal;text-indent:0;text-align:start;text-decoration:none;line-height:normal;letter-spacing:normal;word-spacing:normal;text-transform:none;direction:ltr;block-progression:tb;writing-mode:lr-tb;text-anchor:start;baseline-shift:baseline;opacity:0.2;color:#000000;fill:#000000;fill-opacity:1;fill-rule:nonzero;stroke:none;stroke-width:2;marker:none;visibility:visible;display:inline;overflow:visible;enable-background:accumulate;font-family:Sans;-inkscape-font-specification:Sans" />
    <path
       sodipodi:nodetypes="sssssssss"
       inkscape:connector-curvature="0"
       id="path4871"
       d="m 178.78677,9.582146 -51.57354,0 c -2.84265,0 -5.13113,2.288484 -5.13113,5.13113 l 0,61.573548 c 0,2.842646 2.28848,5.13113 5.13113,5.13113 l 51.57354,0 c 2.84265,0 5.13113,-2.288484 5.13113,-5.13113 l 0,-61.573548 c 0,-2.842646 -2.28848,-5.13113 -5.13113,-5.13113 z"
       style="fill:#ececec;fill-opacity:1;fill-rule:nonzero;stroke:none;display:inline" />
    <path
       sodipodi:nodetypes="csssscssc"
       style="opacity:0.1;fill:#000000;fill-opacity:1;fill-rule:nonzero;stroke:none;display:inline"
       d="m 122.09375,74.8125 0,1.46875 c 0,2.842646 2.28235,5.125 5.125,5.125 l 51.5625,0 c 2.84265,0 5.125,-2.282354 5.125,-5.125 l 0,-1.46875 c -0.26183,2.593688 -2.46002,4.59375 -5.125,4.59375 l -51.5625,0 c -2.66498,0 -4.86317,-2.000062 -5.125,-4.59375 z"
       id="path4873"
       inkscape:connector-curvature="0" />
    <path
       sodipodi:nodetypes="ccssccssc"
       style="opacity:0.4;fill:url(#linearGradient4917);fill-opacity:1;fill-rule:nonzero;stroke:none;display:inline"
       d="m 122.09375,73.8125 0,1 c 0.26183,2.593688 2.46002,4.59375 5.125,4.59375 l 51.5625,0 c 2.66498,0 4.86317,-2.000062 5.125,-4.59375 l 0,-1 c -0.26183,2.593688 -2.46002,4.59375 -5.125,4.59375 l -51.5625,0 c -2.66498,0 -4.86317,-2.000062 -5.125,-4.59375 z"
       id="path4875"
       inkscape:connector-curvature="0" />
    <path
       sodipodi:nodetypes="sscsscssss"
       style="opacity:0.5;fill:#ffffff;fill-opacity:1;fill-rule:nonzero;stroke:none;display:inline"
       d="m 126.6875,9.59375 c -2.59369,0.2618304 -4.59375,2.460019 -4.59375,5.125 l 0,0.46875 c 0.26183,-2.593688 2.46002,-4.59375 5.125,-4.59375 l 51.5625,0 c 2.66498,0 4.86317,2.000062 5.125,4.59375 l 0,-0.46875 c 0,-2.842646 -2.28235,-5.125 -5.125,-5.125 l -51.5625,0 c -0.17767,0 -0.35834,-0.017455 -0.53125,0 z"
       id="path4877"
       inkscape:connector-curvature="0" />
  </g>
  <g
     transform="translate(-114,0)"
     id="g4919">
    <path
       sodipodi:nodetypes="sssssssss"
       inkscape:connector-curvature="0"
       id="path4921"
       d="m 127.21875,8.59375 c -3.921,0 -7.125,3.203999 -7.125,7.125 l 0,60.5625 c 0,3.921001 3.204,7.125 7.125,7.125 l 51.5625,0 c 3.921,0 7.125,-3.203999 7.125,-7.125 l 0,-60.5625 c 0,-3.921001 -3.204,-7.125 -7.125,-7.125 z"
       style="font-size:medium;font-style:normal;font-variant:normal;font-weight:normal;font-stretch:normal;text-indent:0;text-align:start;text-decoration:none;line-height:normal;letter-spacing:normal;word-spacing:normal;text-transform:none;direction:ltr;block-progression:tb;writing-mode:lr-tb;text-anchor:start;baseline-shift:baseline;opacity:0.1;color:#000000;fill:#000000;fill-opacity:1;fill-rule:nonzero;stroke:none;stroke-width:2;marker:none;visibility:visible;display:inline;overflow:visible;enable-background:accumulate;font-family:Sans;-inkscape-font-specification:Sans" />
    <path
       style="font-size:medium;font-style:normal;font-variant:normal;font-weight:normal;font-stretch:normal;text-indent:0;text-align:start;text-decoration:none;line-height:normal;letter-spacing:normal;word-spacing:normal;text-transform:none;direction:ltr;block-progression:tb;writing-mode:lr-tb;text-anchor:start;baseline-shift:baseline;opacity:0.2;color:#000000;fill:#000000;fill-opacity:1;fill-rule:nonzero;stroke:none;stroke-width:2;marker:none;visibility:visible;display:inline;overflow:visible;enable-background:accumulate;font-family:Sans;-inkscape-font-specification:Sans"
       d="m 127.21875,8.59375 c -3.37935,0 -6.125,2.745652 -6.125,6.125 l 0,61.5625 c 0,3.379348 2.74565,6.125 6.125,6.125 l 51.5625,0 c 3.37935,0 6.125,-2.745652 6.125,-6.125 l 0,-61.5625 c 0,-3.379348 -2.74565,-6.125 -6.125,-6.125 z"
       id="path4923"
       inkscape:connector-curvature="0"
       sodipodi:nodetypes="sssssssss" />
    <path
       style="fill:#ececec;fill-opacity:1;fill-rule:nonzero;stroke:none;display:inline"
       d="m 178.78677,9.582146 -51.57354,0 c -2.84265,0 -5.13113,2.288484 -5.13113,5.13113 l 0,61.573548 c 0,2.842646 2.28848,5.13113 5.13113,5.13113 l 51.57354,0 c 2.84265,0 5.13113,-2.288484 5.13113,-5.13113 l 0,-61.573548 c 0,-2.842646 -2.28848,-5.13113 -5.13113,-5.13113 z"
       id="path4925"
       inkscape:connector-curvature="0"
       sodipodi:nodetypes="sssssssss" />
    <path
       inkscape:connector-curvature="0"
       id="path4927"
       d="m 122.09375,74.8125 0,1.46875 c 0,2.842646 2.28235,5.125 5.125,5.125 l 51.5625,0 c 2.84265,0 5.125,-2.282354 5.125,-5.125 l 0,-1.46875 c -0.26183,2.593688 -2.46002,4.59375 -5.125,4.59375 l -51.5625,0 c -2.66498,0 -4.86317,-2.000062 -5.125,-4.59375 z"
       style="opacity:0.1;fill:#000000;fill-opacity:1;fill-rule:nonzero;stroke:none;display:inline"
       sodipodi:nodetypes="csssscssc" />
    <path
       inkscape:connector-curvature="0"
       id="path4929"
       d="m 122.09375,73.8125 0,1 c 0.26183,2.593688 2.46002,4.59375 5.125,4.59375 l 51.5625,0 c 2.66498,0 4.86317,-2.000062 5.125,-4.59375 l 0,-1 c -0.26183,2.593688 -2.46002,4.59375 -5.125,4.59375 l -51.5625,0 c -2.66498,0 -4.86317,-2.000062 -5.125,-4.59375 z"
       style="opacity:0.4;fill:url(#linearGradient4933);fill-opacity:1;fill-rule:nonzero;stroke:none;display:inline"
       sodipodi:nodetypes="ccssccssc" />
    <path
       inkscape:connector-curvature="0"
       id="path4931"
       d="m 126.6875,9.59375 c -2.59369,0.2618304 -4.59375,2.460019 -4.59375,5.125 l 0,0.46875 c 0.26183,-2.593688 2.46002,-4.59375 5.125,-4.59375 l 51.5625,0 c 2.66498,0 4.86317,2.000062 5.125,4.59375 l 0,-0.46875 c 0,-2.842646 -2.28235,-5.125 -5.125,-5.125 l -51.5625,0 c -0.17767,0 -0.35834,-0.017455 -0.53125,0 z"
       style="opacity:0.5;fill:#ffffff;fill-opacity:1;fill-rule:nonzero;stroke:none;display:inline"
       sodipodi:nodetypes="sscsscssss" />
  </g>
  <path
     style="fill:#333333;fill-opacity:1;fill-rule:nonzero;stroke:none;display:inline"
     d="M 12 4.5 C 8.676 4.5 6 7.1759996 6 10.5 L 6 80.5 C 6 83.824 8.676 86.5 12 86.5 L 54 86.5 C 57.018551 86.5 59.506439 84.301102 59.9375 81.40625 L 58.53125 81.40625 C 59.43683 80.356 60 79.00191 60 77.5 L 60 42.3125 L 66.875 38.1875 C 68.74566 37.173813 70 35.1915 70 32.90625 L 70 10.5 C 70 7.1759996 67.324 4.5 64 4.5 L 12 4.5 z "
     id="path3262" />
  <g
     id="g4533"
     transform="translate(-100,0)">
    <rect
       y="10"
       x="109"
       height="65"
       width="1"
       id="rect4494"
       style="opacity:0.15;color:#000000;fill:#ffffff;fill-opacity:1;fill-rule:nonzero;stroke:none;stroke-width:5;marker:none;visibility:visible;display:inline;overflow:visible;enable-background:accumulate" />
    <rect
       style="opacity:0.25;color:#000000;fill:#000000;fill-opacity:1;fill-rule:nonzero;stroke:none;stroke-width:5;marker:none;visibility:visible;display:inline;overflow:visible;enable-background:accumulate"
       id="rect4496"
       width="1"
       height="65"
       x="110"
       y="10" />
    <rect
       style="opacity:0.15;color:#000000;fill:#ffffff;fill-opacity:1;fill-rule:nonzero;stroke:none;stroke-width:5;marker:none;visibility:visible;display:inline;overflow:visible;enable-background:accumulate"
       id="rect4498"
       width="1"
       height="65"
       x="112"
       y="10" />
    <rect
       y="10"
       x="113"
       height="65"
       width="1"
       id="rect4500"
       style="opacity:0.25;color:#000000;fill:#000000;fill-opacity:1;fill-rule:nonzero;stroke:none;stroke-width:5;marker:none;visibility:visible;display:inline;overflow:visible;enable-background:accumulate" />
    <path
       id="path4130"
       d="m 153.31243,68.71875 c -2.20213,0 -3.99994,1.93878 -3.99994,4.3125 0,2.37372 1.79781,4.3125 3.99994,4.3125 2.20212,0 3.99993,-1.93878 3.99993,-4.3125 0,-2.37372 -1.79781,-4.3125 -3.99993,-4.3125 z m 0,1.34375 c 1.52311,0 2.76708,1.326959 2.76708,2.96875 0,1.641792 -1.24397,2.96875 -2.76708,2.96875 -1.52312,0 -2.76708,-1.326958 -2.76708,-2.96875 0,-1.641791 1.24396,-2.96875 2.76708,-2.96875 z"
       style="color:#000000;fill:url(#linearGradient4547);fill-opacity:1;fill-rule:nonzero;stroke:none;stroke-width:5;marker:none;visibility:visible;display:inline;overflow:visible;enable-background:accumulate"
       inkscape:connector-curvature="0" />
    <path
       id="path4132"
       d="m 153.31243,70.0625 c -1.52312,0 -2.76708,1.326959 -2.76708,2.96875 0,0.55226 0.16755,1.056911 0.41095,1.5 0.4802,-0.874152 1.34536,-1.46875 2.35613,-1.46875 1.01077,0 1.87593,0.594598 2.35612,1.46875 0.2434,-0.443089 0.41096,-0.94774 0.41096,-1.5 0,-1.641791 -1.24397,-2.96875 -2.76708,-2.96875 z"
       style="opacity:0.8;color:#000000;fill:#000000;fill-opacity:1;fill-rule:nonzero;stroke:none;stroke-width:5;marker:none;visibility:visible;display:inline;overflow:visible;enable-background:accumulate"
       inkscape:connector-curvature="0" />
    <path
       inkscape:connector-curvature="0"
       id="path4154"
       d="m 153.31243,68.71875 c -2.20213,0 -3.99994,1.93878 -3.99994,4.3125 0,0.08494 0.0229,0.166247 0.0274,0.25 0.12234,-2.256915 1.84921,-4.0625 3.97254,-4.0625 2.12334,0 3.8502,1.805585 3.97254,4.0625 0.004,-0.08375 0.0274,-0.165064 0.0274,-0.25 0,-2.37372 -1.79781,-4.3125 -3.99993,-4.3125 z m -2.73968,4.5625 c -0.007,0.08469 -0.0274,0.163412 -0.0274,0.25 0,1.641792 1.24396,2.96875 2.76707,2.96875 1.52312,0 2.76708,-1.326958 2.76708,-2.96875 0,-0.08659 -0.0206,-0.165312 -0.0274,-0.25 C 155.93036,74.802331 154.75521,76 153.31243,76 c -1.44278,0 -2.61794,-1.197669 -2.73968,-2.71875 z"
       style="opacity:0.2;color:#000000;fill:#ffffff;fill-opacity:1;fill-rule:nonzero;stroke:none;stroke-width:5;marker:none;visibility:visible;display:inline;overflow:visible;enable-background:accumulate" />
    <path
       inkscape:connector-curvature="0"
       id="path4170"
       d="m 153.31243,73.0625 c -1.01077,0 -1.87593,0.594598 -2.35613,1.46875 0.4802,0.874152 1.34536,1.46875 2.35613,1.46875 1.01077,0 1.87593,-0.594598 2.35612,-1.46875 -0.48019,-0.874152 -1.34535,-1.46875 -2.35612,-1.46875 z"
       style="opacity:0.7;color:#000000;fill:#000000;fill-opacity:1;fill-rule:nonzero;stroke:none;stroke-width:5;marker:none;visibility:visible;display:inline;overflow:visible;enable-background:accumulate" />
    <path
       inkscape:connector-curvature="0"
       id="path4175"
       d="m 153.31243,69.5625 c -1.52312,0 -2.76708,1.326959 -2.76708,2.96875 0,0.08659 0.0206,0.165312 0.0274,0.25 0.12175,-1.52108 1.2969,-2.71875 2.73968,-2.71875 1.44278,0 2.61794,1.19767 2.73968,2.71875 0.007,-0.08469 0.0274,-0.163412 0.0274,-0.25 0,-1.641791 -1.24396,-2.96875 -2.76707,-2.96875 z m -3.97254,3.21875 c -0.004,0.08375 -0.0274,0.165064 -0.0274,0.25 0,2.37372 1.79781,4.3125 3.99993,4.3125 2.20213,0 3.99994,-1.93878 3.99994,-4.3125 0,-0.08494 -0.0229,-0.166247 -0.0274,-0.25 -0.12234,2.256915 -1.8492,4.0625 -3.97254,4.0625 -2.12334,0 -3.8502,-1.805585 -3.97254,-4.0625 z"
       style="opacity:0.2;color:#000000;fill:#000000;fill-opacity:1;fill-rule:nonzero;stroke:none;stroke-width:5;marker:none;visibility:visible;display:inline;overflow:visible;enable-background:accumulate" />
    <path
       id="path3825"
       d="M 160.875,8.59375 160.34375,9.9375 160,9 l 0,22.21875 0.34375,-0.9375 0.53125,1.34375 0.53125,-1.34375 0.53125,1.3125 0.5,-1.3125 0.5,1.3125 0.53125,-1.3125 L 164,31.625 l 0.5,-1.34375 0.53125,1.34375 0.53125,-1.34375 0.4375,1.125 0,-22.59375 -0.4375,1.125 L 165.03125,8.59375 164.5,9.9375 164,8.59375 163.46875,9.9375 162.9375,8.625 l -0.5,1.3125 -0.5,-1.3125 -0.53125,1.3125 -0.53125,-1.34375 z"
       style="opacity:0.3;fill:#ffffff;fill-opacity:1;fill-rule:nonzero;stroke:none;display:inline"
       inkscape:connector-curvature="0" />
    <path
       inkscape:connector-curvature="0"
       id="path4207"
       d="M 160.875,8.59375 160.34375,9.9375 160,9 l 0,0.5 0.34375,0.9375 0.53125,-1.34375 0.53125,1.34375 0.53125,-1.3125 0.5,1.3125 0.5,-1.3125 0.53125,1.3125 L 164,9.09375 l 0.5,1.34375 0.53125,-1.34375 0.53125,1.34375 0.4375,-1.125 0,-0.5 -0.4375,1.125 L 165.03125,8.59375 164.5,9.9375 164,8.59375 163.46875,9.9375 162.9375,8.625 l -0.5,1.3125 -0.5,-1.3125 -0.53125,1.3125 -0.53125,-1.34375 z"
       style="opacity:0.2;fill:#ffffff;fill-opacity:1;fill-rule:nonzero;stroke:none;display:inline" />
    <path
       inkscape:connector-curvature="0"
       id="path4212"
       d="M 160.34375,29.78125 160,30.71875 l 0,0.5 0.34375,-0.9375 0.53125,1.34375 0.53125,-1.34375 0.53125,1.3125 0.5,-1.3125 0.5,1.3125 0.53125,-1.3125 L 164,31.625 l 0.5,-1.34375 0.53125,1.34375 0.53125,-1.34375 0.4375,1.125 0,-0.5 -0.4375,-1.125 L 165.03125,31.125 164.5,29.78125 164,31.125 l -0.53125,-1.34375 -0.53125,1.3125 -0.5,-1.3125 -0.5,1.3125 -0.53125,-1.3125 -0.53125,1.34375 -0.53125,-1.34375 z"
       style="opacity:0.15;fill:#000000;fill-opacity:1;fill-rule:nonzero;stroke:none;display:inline" />
  </g>
  <g
     id="g3219"
     transform="translate(-100,0)">
    <path
       style="opacity:0.2;fill:url(#linearGradient3237);fill-opacity:1;fill-rule:nonzero;stroke:none"
       d="m 106,73.51565 0,2 c 0,3.324 2.676,6 6,6 l 42,0 c 3.324,0 6,-2.676 6,-6 l 0,-2 c 0,3.324 -2.676,6 -6,6 l -42,0 c -3.324,0 -6,-2.676 -6,-6 z"
       id="path3163"
       inkscape:connector-curvature="0"
       sodipodi:nodetypes="csssscssc" />
    <path
       sodipodi:nodetypes="sscsccccccsss"
       inkscape:connector-curvature="0"
       id="path3157"
       d="m 112,5.5 c -2.7873,0 -5,2.2127028 -5,5 l 0,56.3125 c 1.07066,1.628779 2.89693,2.71875 5,2.71875 l 48,0 0,-25.21875 0,-5 0,-2 6.875,-4.125 c 0.86852,-0.47064 1.58604,-1.147137 2.125,-1.96875 L 169,10.5 c 0,-2.7872972 -2.2127,-5 -5,-5 z"
       style="opacity:0.1;fill:url(#linearGradient3239);fill-opacity:1;fill-rule:nonzero;stroke:none;display:inline" />
    <path
       id="path3167"
       d="m 170,29.90625 c 0,2.28525 -1.25434,4.267563 -3.125,5.28125 l -6.875,4.125 0,3 6.875,-4.125 C 168.74566,37.173813 170,35.1915 170,32.90625 l 0,-3 z"
       style="opacity:0.45;fill:#000000;fill-opacity:1;fill-rule:nonzero;stroke:none;display:inline"
       inkscape:connector-curvature="0" />
    <path
       inkscape:connector-curvature="0"
       id="path3169"
       d="m 170,27.90625 c 0,2.28525 -1.25434,4.267563 -3.125,5.28125 l -6.875,4.125 0,2 6.875,-4.125 C 168.74566,34.173813 170,32.1915 170,29.90625 l 0,-2 z"
       style="opacity:0.2;fill:#ffffff;fill-opacity:1;fill-rule:nonzero;stroke:none;display:inline" />
    <path
       style="opacity:0.05;fill:#ffffff;fill-opacity:1;fill-rule:nonzero;stroke:none;display:inline"
       d="m 170,27.90625 c 0,2.28525 -1.25434,4.267563 -3.125,5.28125 l -6.875,4.125 0,2 6.875,-4.125 C 168.74566,34.173813 170,32.1915 170,29.90625 l 0,-2 z"
       id="path3171"
       inkscape:connector-curvature="0" />
    <path
       sodipodi:nodetypes="csssscssc"
       inkscape:connector-curvature="0"
       id="path3198"
       d="m 106,75.5 0,2 c 0,3.324 2.676,6 6,6 l 42,0 c 3.324,0 6,-2.676 6,-6 l 0,-2 c 0,3.324 -2.676,6 -6,6 l -42,0 c -3.324,0 -6,-2.676 -6,-6 z"
       style="opacity:0.25;fill:#000000;fill-opacity:1;fill-rule:nonzero;stroke:none" />
    <path
       sodipodi:nodetypes="csssscssc"
       inkscape:connector-curvature="0"
       id="path3225"
       d="m 106,80.5 0,2 c 0,3.324 2.676,6 6,6 l 72,0 c 3.324,0 6,-2.676 6,-6 l 0,-2 c 0,3.324 -2.676,6 -6,6 l -72,0 c -3.324,0 -6,-2.676 -6,-6 z"
       style="opacity:0.25;fill:#000000;fill-opacity:1;fill-rule:nonzero;stroke:none" />
    <path
       sodipodi:nodetypes="csssscssc"
       inkscape:connector-curvature="0"
       id="path3227"
       d="m 106,80.5 0,2 c 0,3.324 2.676,6 6,6 l 72,0 c 3.324,0 6,-2.676 6,-6 l 0,-2 c 0,3.324 -2.676,6 -6,6 l -72,0 c -3.324,0 -6,-2.676 -6,-6 z"
       style="opacity:0.1;fill:url(#linearGradient3241);fill-opacity:1;fill-rule:nonzero;stroke:none" />
    <path
       sodipodi:nodetypes="cccccsc"
       id="path4116"
       d="m 190,79.53125 c 0,3.324 -2.676,6 -6,6 L 157.28125,85.5 c -0.94168,0.62023 -2.06399,1 -3.28125,1 l 30,0.03125 c 3.324,0 6,-2.676 6,-6 z"
       style="opacity:0.15;fill:#ffffff;fill-opacity:1;fill-rule:nonzero;stroke:none"
       inkscape:connector-curvature="0" />
    <path
       sodipodi:nodetypes="ssccssssccsss"
       inkscape:connector-curvature="0"
       id="path3316"
       d="m 112,4.5 c -3.324,0 -6,2.6759996 -6,6 l 0,15 1,0 0,-15 c 0,-2.7872972 2.2127,-5 5,-5 l 52,0 c 2.7873,0 5,2.198878 5,5 l 0,15 1,0 0,-15 c 0,-3.3240004 -2.676,-6 -6,-6 z"
       style="opacity:0.45;fill:url(#radialGradient3243);fill-opacity:1;fill-rule:nonzero;stroke:none;display:inline" />
    <path
       sodipodi:nodetypes="csssscssc"
       inkscape:connector-curvature="0"
       id="path3076"
       d="m 106,75.5 0,2 c 0,3.324 2.676,6 6,6 l 42,0 c 3.324,0 6,-2.676 6,-6 l 0,-2 c 0,3.324 -2.676,6 -6,6 l -42,0 c -3.324,0 -6,-2.676 -6,-6 z"
       style="opacity:0.1;fill:url(#linearGradient3245);fill-opacity:1;fill-rule:nonzero;stroke:none" />
    <path
       id="path3089"
       d="m 106,77.5 0,1 0,1 0,1 c 0,3.324 2.676,6 6,6 l 42,0 c 3.01855,0 5.50644,-2.198898 5.9375,-5.09375 l -1.40625,0 C 157.43262,82.680389 155.82209,83.5 154,83.5 l -42,0 c -3.324,0 -6,-2.676 -6,-6 z"
       style="opacity:0.65;fill:url(#linearGradient3247);fill-opacity:1;fill-rule:nonzero;stroke:none"
       inkscape:connector-curvature="0" />
    <path
       sodipodi:nodetypes="cssscsc"
       inkscape:connector-curvature="0"
       id="path4122"
       d="m 106,79.5 0,1 c 0,3.324 2.676,6 6,6 l 42,0 c 1.23052,0 2.36247,-0.369434 3.3125,-1 L 112,85.5 c -3.324,0 -6,-2.676 -6,-6 z"
       style="opacity:0.15;fill:#ffffff;fill-opacity:1;fill-rule:nonzero;stroke:none" />
    <path
       id="path4739"
       d="m 164,4.5 c 3.324,0 6,2.6759996 6,6 l 0,22.40625 c 0,2.28525 -1.25434,4.267563 -3.125,5.28125 L 160,42.3125 160,77.5 c 0,1.50191 -0.56317,2.856 -1.46875,3.90625 l 1.40625,0 C 159.50644,84.301102 157.01855,86.5 154,86.5 l 2,0 c 3.324,0 6,-2.676 6,-6 l 0,-38.1875 6.875,-4.125 C 170.74566,37.173813 172,35.1915 172,32.90625 L 172,10.5 c 0,-3.3240004 -2.676,-6 -6,-6 l -2,0 z"
       style="opacity:0.1;fill:#000000;fill-opacity:1;fill-rule:nonzero;stroke:none;display:inline"
       inkscape:connector-curvature="0" />
    <path
       id="path4741"
       d="m 164,4.5 c 3.324,0 6,2.6759996 6,6 l 0,22.40625 c 0,2.28525 -1.25434,4.267563 -3.125,5.28125 L 160,42.3125 160,77.5 c 0,1.50191 -0.56317,2.856 -1.46875,3.90625 l 1.40625,0 C 159.50644,84.301102 157.01855,86.5 154,86.5 l 1,0 c 3.324,0 6,-2.676 6,-6 l 0,-38.1875 6.875,-4.125 C 169.74566,37.173813 171,35.1915 171,32.90625 L 171,10.5 c 0,-3.3240004 -2.676,-6 -6,-6 l -1,0 z"
       style="opacity:0.2;fill:#000000;fill-opacity:1;fill-rule:nonzero;stroke:none;display:inline"
       inkscape:connector-curvature="0" />
    <path
       inkscape:connector-curvature="0"
       id="path3135"
       d="m 164,4.5 c 1.23052,0 2.36247,0.369434 3.3125,1 L 184,5.5 c 2.7873,0 5,2.198878 5,5 l 0,15 1,0 0,-15 c 0,-3.3240004 -2.676,-6 -6,-6 l -20,0 z"
       style="opacity:0.3;fill:url(#radialGradient3249);fill-opacity:1;fill-rule:nonzero;stroke:none;display:inline" />
  </g>
</svg>
