<?xml version="1.0" encoding="UTF-8" standalone="no"?>
<!-- Created with Inkscape (http://www.inkscape.org/) -->

<svg
   xmlns:dc="http://purl.org/dc/elements/1.1/"
   xmlns:cc="http://creativecommons.org/ns#"
   xmlns:rdf="http://www.w3.org/1999/02/22-rdf-syntax-ns#"
   xmlns:svg="http://www.w3.org/2000/svg"
   xmlns="http://www.w3.org/2000/svg"
   xmlns:xlink="http://www.w3.org/1999/xlink"
   xmlns:sodipodi="http://sodipodi.sourceforge.net/DTD/sodipodi-0.dtd"
   xmlns:inkscape="http://www.inkscape.org/namespaces/inkscape"
   version="1.0"
   width="96"
   height="96"
   id="svg2408"
   inkscape:version="0.48.2 r9819"
   sodipodi:docname="folder-system.svg">
  <metadata
     id="metadata72">
    <rdf:RDF>
      <cc:Work
         rdf:about="">
        <dc:format>image/svg+xml</dc:format>
        <dc:type
           rdf:resource="http://purl.org/dc/dcmitype/StillImage" />
        <dc:title />
      </cc:Work>
    </rdf:RDF>
  </metadata>
  <sodipodi:namedview
     pagecolor="#ffffff"
     bordercolor="#666666"
     borderopacity="1"
     objecttolerance="10"
     gridtolerance="10"
     guidetolerance="10"
     inkscape:pageopacity="0"
     inkscape:pageshadow="2"
     inkscape:window-width="1238"
     inkscape:window-height="735"
     id="namedview70"
     showgrid="false"
     inkscape:zoom="1.4797529"
     inkscape:cx="78.257629"
     inkscape:cy="62.56423"
     inkscape:window-x="10"
     inkscape:window-y="0"
     inkscape:window-maximized="0"
     inkscape:current-layer="svg2408"
     inkscape:object-paths="true"
     inkscape:snap-intersection-paths="true"
     inkscape:object-nodes="true"
     inkscape:snap-smooth-nodes="true"
     inkscape:snap-midpoints="true"
     inkscape:snap-object-midpoints="true"
     inkscape:snap-center="true"
     inkscape:snap-bbox="true"
     inkscape:bbox-paths="true"
     inkscape:bbox-nodes="true"
     inkscape:snap-bbox-edge-midpoints="true"
     inkscape:snap-bbox-midpoints="true"
     showguides="true"
     inkscape:guide-bbox="true"
     inkscape:snap-global="true" />
  <defs
     id="defs2410">
    <linearGradient
       inkscape:collect="always"
       id="linearGradient3874">
      <stop
         style="stop-color:#000000;stop-opacity:1;"
         offset="0"
         id="stop3876" />
      <stop
         style="stop-color:#000000;stop-opacity:0;"
         offset="1"
         id="stop3878" />
    </linearGradient>
    <linearGradient
       id="linearGradient4091">
      <stop
         style="stop-color:#ffffff;stop-opacity:1;"
         offset="0"
         id="stop4093" />
      <stop
         id="stop4099"
         offset="0.80000001"
         style="stop-color:#ffffff;stop-opacity:1;" />
      <stop
         style="stop-color:#ffffff;stop-opacity:0;"
         offset="1"
         id="stop4095" />
    </linearGradient>
    <linearGradient
       id="linearGradient4188">
      <stop
         style="stop-color:#ffffff;stop-opacity:0;"
         offset="0"
         id="stop4190" />
      <stop
         id="stop4198"
         offset="0.15000001"
         style="stop-color:#ffffff;stop-opacity:1;" />
      <stop
         id="stop4196"
         offset="0.85000002"
         style="stop-color:#ffffff;stop-opacity:1;" />
      <stop
         style="stop-color:#ffffff;stop-opacity:0;"
         offset="1"
         id="stop4192" />
    </linearGradient>
    <linearGradient
       inkscape:collect="always"
       id="linearGradient3888">
      <stop
         style="stop-color:#ffffff;stop-opacity:1;"
         offset="0"
         id="stop3890" />
      <stop
         style="stop-color:#ffffff;stop-opacity:0;"
         offset="1"
         id="stop3892" />
    </linearGradient>
    <linearGradient
       x1="45.447727"
       y1="92.539597"
       x2="45.447727"
       y2="7.0165396"
       id="ButtonShadow"
       gradientUnits="userSpaceOnUse"
       gradientTransform="scale(1.0058652,0.994169)">
      <stop
         id="stop3750"
         style="stop-color:#000000;stop-opacity:1"
         offset="0" />
      <stop
         id="stop3752"
         style="stop-color:#000000;stop-opacity:0.58823532"
         offset="1" />
    </linearGradient>
    <filter
       color-interpolation-filters="sRGB"
       id="filter3174">
      <feGaussianBlur
         id="feGaussianBlur3176"
         stdDeviation="1.71" />
    </filter>
    <linearGradient
       id="gradient4-1"
       gradientUnits="userSpaceOnUse"
       x1="32.251045"
       y1="6.1317058"
       x2="32.251045"
       y2="90.238678"
       spreadMethod="pad">
      <stop
         stop-color="#000000"
         offset="0.00000000000"
         stop-opacity="1.00000000000"
         id="stop27-0" />
      <stop
         stop-color="#000000"
         offset="1.00000000000"
         stop-opacity="0.58823529412"
         id="stop29-6" />
    </linearGradient>
    <linearGradient
       id="gradient3-2"
       gradientTransform="scale(1.0058652,0.99416905)"
       gradientUnits="userSpaceOnUse"
       x1="32.062981"
       y1="6.1676679"
       x2="32.062981"
       y2="90.767815"
       spreadMethod="pad">
      <stop
         stop-color="#000000"
         offset="0.00000000000"
         stop-opacity="1.00000000000"
         id="stop22-0" />
      <stop
         stop-color="#000000"
         offset="1.00000000000"
         stop-opacity="0.58823529412"
         id="stop24-6" />
    </linearGradient>
    <linearGradient
       id="gradient2-5"
       gradientTransform="scale(1.0057307,0.99430195)"
       gradientUnits="userSpaceOnUse"
       x1="32.067265"
       y1="6.1668468"
       x2="32.067265"
       y2="90.756142"
       spreadMethod="pad">
      <stop
         stop-color="#000000"
         offset="0.00000000000"
         stop-opacity="1.00000000000"
         id="stop17-5" />
      <stop
         stop-color="#000000"
         offset="1.00000000000"
         stop-opacity="0.58823529412"
         id="stop19-4" />
    </linearGradient>
    <linearGradient
       id="gradient1-6"
       gradientTransform="scale(1.0055984,0.9944328)"
       gradientUnits="userSpaceOnUse"
       x1="32.071472"
       y1="6.1660314"
       x2="32.071472"
       y2="90.744209"
       spreadMethod="pad">
      <stop
         stop-color="#000000"
         offset="0.00000000000"
         stop-opacity="1.00000000000"
         id="stop12-5" />
      <stop
         stop-color="#000000"
         offset="1.00000000000"
         stop-opacity="0.58823529412"
         id="stop14-6" />
    </linearGradient>
    <linearGradient
       id="gradient0-3"
       gradientTransform="scale(1.0054757,0.99455408)"
       gradientUnits="userSpaceOnUse"
       x1="32.07542"
       y1="6.1652875"
       x2="32.07542"
       y2="90.732689"
       spreadMethod="pad">
      <stop
         stop-color="#000000"
         offset="0.00000000000"
         stop-opacity="1.00000000000"
         id="stop7-7" />
      <stop
         stop-color="#000000"
         offset="1.00000000000"
         stop-opacity="0.58823529412"
         id="stop9-4" />
    </linearGradient>
    <linearGradient
       id="linearGradient3832">
      <stop
         style="stop-color:#000000;stop-opacity:1;"
         offset="0"
         id="stop3834" />
      <stop
         id="stop3842"
         offset="0.05"
         style="stop-color:#ffffff;stop-opacity:1;" />
      <stop
         style="stop-color:#000000;stop-opacity:1;"
         offset="0.1"
         id="stop3846" />
      <stop
         id="stop3840"
         offset="0.5"
         style="stop-color:#000000;stop-opacity:0.49803922;" />
      <stop
         style="stop-color:#000000;stop-opacity:1;"
         offset="0.89999998"
         id="stop3844" />
      <stop
         id="stop3848"
         offset="0.94999999"
         style="stop-color:#ffffff;stop-opacity:1;" />
      <stop
         style="stop-color:#000000;stop-opacity:1;"
         offset="1"
         id="stop3836" />
    </linearGradient>
    <linearGradient
       id="linearGradient4144-8">
      <stop
         style="stop-color:#dddddd;stop-opacity:1;"
         offset="0"
         id="stop4146-4" />
      <stop
         id="stop4152-5"
         offset="0.64999998"
         style="stop-color:#989898;stop-opacity:1;" />
      <stop
         style="stop-color:#eaeaea;stop-opacity:1;"
         offset="1"
         id="stop4148-0" />
    </linearGradient>
    <linearGradient
       inkscape:collect="always"
       xlink:href="#gradient0-3"
       id="linearGradient3287"
       gradientUnits="userSpaceOnUse"
       gradientTransform="matrix(1.0054757,0,0,-0.99455408,1.96875,93.53125)"
       spreadMethod="pad"
       x1="32.07542"
       y1="6.1652875"
       x2="32.07542"
       y2="90.732689" />
    <linearGradient
       inkscape:collect="always"
       xlink:href="#gradient1-6"
       id="linearGradient3289"
       gradientUnits="userSpaceOnUse"
       gradientTransform="matrix(1.0055984,0,0,-0.9944328,2.96875,92.53125)"
       spreadMethod="pad"
       x1="32.071472"
       y1="6.1660314"
       x2="32.071472"
       y2="90.744209" />
    <linearGradient
       inkscape:collect="always"
       xlink:href="#gradient2-5"
       id="linearGradient3291"
       gradientUnits="userSpaceOnUse"
       gradientTransform="matrix(1.0057307,0,0,-0.99430195,4,91.50005)"
       spreadMethod="pad"
       x1="32.067265"
       y1="6.1668468"
       x2="32.067265"
       y2="90.756142" />
    <linearGradient
       inkscape:collect="always"
       xlink:href="#gradient3-2"
       id="linearGradient3293"
       gradientUnits="userSpaceOnUse"
       gradientTransform="matrix(1.0058652,0,0,0.99416905,5,-90.50005)"
       spreadMethod="pad"
       x1="32.062981"
       y1="6.1676679"
       x2="32.062981"
       y2="90.767815" />
    <linearGradient
       inkscape:collect="always"
       xlink:href="#gradient4-1"
       id="linearGradient3295"
       gradientUnits="userSpaceOnUse"
       gradientTransform="translate(6,-89.50005)"
       spreadMethod="pad"
       x1="32.251045"
       y1="6.1317058"
       x2="32.251045"
       y2="90.238678" />
    <linearGradient
       inkscape:collect="always"
       xlink:href="#linearGradient4144-8"
       id="linearGradient3297"
       gradientUnits="userSpaceOnUse"
       x1="72.875"
       y1="68.71875"
       x2="72.875"
       y2="77.34375" />
    <linearGradient
       inkscape:collect="always"
       xlink:href="#linearGradient4188-5"
       id="linearGradient4863"
       gradientUnits="userSpaceOnUse"
       x1="112.09375"
       y1="76.609375"
       x2="183.90625"
       y2="76.609375" />
    <linearGradient
       id="linearGradient4188-5">
      <stop
         style="stop-color:#ffffff;stop-opacity:0;"
         offset="0"
         id="stop4190-0" />
      <stop
         id="stop4198-3"
         offset="0.15000001"
         style="stop-color:#ffffff;stop-opacity:1;" />
      <stop
         id="stop4196-6"
         offset="0.85000002"
         style="stop-color:#ffffff;stop-opacity:1;" />
      <stop
         style="stop-color:#ffffff;stop-opacity:0;"
         offset="1"
         id="stop4192-1" />
    </linearGradient>
    <linearGradient
       inkscape:collect="always"
       xlink:href="#linearGradient3888"
       id="linearGradient3173"
       gradientUnits="userSpaceOnUse"
       gradientTransform="translate(200,0)"
       x1="-56.230446"
       y1="5.5"
       x2="-56.230446"
       y2="69.53125" />
    <linearGradient
       inkscape:collect="always"
       xlink:href="#linearGradient4188"
       id="linearGradient3175"
       gradientUnits="userSpaceOnUse"
       x1="106"
       y1="77.51565"
       x2="180"
       y2="77.51565" />
    <linearGradient
       inkscape:collect="always"
       xlink:href="#linearGradient3832"
       id="linearGradient3177"
       gradientUnits="userSpaceOnUse"
       gradientTransform="translate(200,-0.9843498)"
       x1="-94"
       y1="82.984398"
       x2="-10.187523"
       y2="82.984398" />
    <radialGradient
       inkscape:collect="always"
       xlink:href="#linearGradient4091"
       id="radialGradient3179"
       gradientUnits="userSpaceOnUse"
       gradientTransform="matrix(-1.0721726,0,0,-0.87502024,199.46429,-19.125546)"
       cx="48"
       cy="-27"
       fx="48"
       fy="-27"
       r="42" />
    <linearGradient
       inkscape:collect="always"
       xlink:href="#linearGradient3832"
       id="linearGradient3181"
       gradientUnits="userSpaceOnUse"
       gradientTransform="translate(200,-0.9843498)"
       x1="-94"
       y1="82.984398"
       x2="-20"
       y2="82.984398" />
    <linearGradient
       inkscape:collect="always"
       xlink:href="#linearGradient3874"
       id="linearGradient3183"
       gradientUnits="userSpaceOnUse"
       gradientTransform="translate(100,0)"
       x1="70.030853"
       y1="82"
       x2="89.473785"
       y2="82" />
    <linearGradient
       inkscape:collect="always"
       xlink:href="#linearGradient3874"
       id="linearGradient3120"
       gradientUnits="userSpaceOnUse"
       gradientTransform="translate(100,0)"
       x1="70.030853"
       y1="82"
       x2="89.473785"
       y2="82" />
    <linearGradient
       inkscape:collect="always"
       xlink:href="#linearGradient3832"
       id="linearGradient3123"
       gradientUnits="userSpaceOnUse"
       gradientTransform="translate(200,-0.9843498)"
       x1="-94"
       y1="82.984398"
       x2="-20"
       y2="82.984398" />
    <radialGradient
       inkscape:collect="always"
       xlink:href="#linearGradient4091"
       id="radialGradient3128"
       gradientUnits="userSpaceOnUse"
       gradientTransform="matrix(-1.0721726,0,0,-0.87502024,199.46429,-19.125546)"
       cx="48"
       cy="-27"
       fx="48"
       fy="-27"
       r="42" />
    <linearGradient
       inkscape:collect="always"
       xlink:href="#linearGradient3832"
       id="linearGradient3132"
       gradientUnits="userSpaceOnUse"
       gradientTransform="translate(200,-0.9843498)"
       x1="-94"
       y1="82.984398"
       x2="-10.187523"
       y2="82.984398" />
    <linearGradient
       inkscape:collect="always"
       xlink:href="#linearGradient4188"
       id="linearGradient3140"
       gradientUnits="userSpaceOnUse"
       x1="106"
       y1="77.51565"
       x2="180"
       y2="77.51565" />
    <linearGradient
       inkscape:collect="always"
       xlink:href="#linearGradient3888"
       id="linearGradient3144"
       gradientUnits="userSpaceOnUse"
       gradientTransform="translate(200,0)"
       x1="-56.230446"
       y1="5.5"
       x2="-56.230446"
       y2="69.53125" />
    <linearGradient
       inkscape:collect="always"
       xlink:href="#linearGradient3888"
       id="linearGradient3163"
       gradientUnits="userSpaceOnUse"
       gradientTransform="translate(200,0)"
       x1="-56.230446"
       y1="5.5"
       x2="-56.230446"
       y2="69.53125" />
    <linearGradient
       inkscape:collect="always"
       xlink:href="#linearGradient4188"
       id="linearGradient3165"
       gradientUnits="userSpaceOnUse"
       x1="106"
       y1="77.51565"
       x2="180"
       y2="77.51565" />
    <linearGradient
       inkscape:collect="always"
       xlink:href="#linearGradient3832"
       id="linearGradient3167"
       gradientUnits="userSpaceOnUse"
       gradientTransform="translate(200,-0.9843498)"
       x1="-94"
       y1="82.984398"
       x2="-10.187523"
       y2="82.984398" />
    <radialGradient
       inkscape:collect="always"
       xlink:href="#linearGradient4091"
       id="radialGradient3169"
       gradientUnits="userSpaceOnUse"
       gradientTransform="matrix(-1.0721726,0,0,-0.87502024,199.46429,-19.125546)"
       cx="48"
       cy="-27"
       fx="48"
       fy="-27"
       r="42" />
    <linearGradient
       inkscape:collect="always"
       xlink:href="#linearGradient3832"
       id="linearGradient3171"
       gradientUnits="userSpaceOnUse"
       gradientTransform="translate(200,-0.9843498)"
       x1="-94"
       y1="82.984398"
       x2="-20"
       y2="82.984398" />
    <linearGradient
       inkscape:collect="always"
       xlink:href="#linearGradient3874"
       id="linearGradient3174"
       gradientUnits="userSpaceOnUse"
       gradientTransform="translate(100,0)"
       x1="70.030853"
       y1="82"
       x2="89.473785"
       y2="82" />
  </defs>
  <g
     id="g3210">
    <path
       inkscape:connector-curvature="0"
       style="opacity:0.07999998;fill:url(#linearGradient3287)"
       d="m 11.99995,93.53125 c -5.51104,0 -10.0312,-4.52016 -10.0312,-10.0312 l 0,-71 c 0,-5.5111 4.52016,-10.0313 10.0312,-10.0313 l 72,0 c 5.5111,0 10.0313,4.5202 10.0313,10.0313 l 0,71 c 0,5.51104 -4.5202,10.0312 -10.0313,10.0312 z"
       id="path3212" />
    <path
       inkscape:connector-curvature="0"
       style="opacity:0.1;fill:url(#linearGradient3289)"
       d="m 12,92.53125 c -4.97163,0 -9.03125,-4.05962 -9.03125,-9.03125 l 0,-70.99995 c 0,-4.9717 4.05962,-9.0313 9.03125,-9.0313 l 71.99995,0 c 4.9717,0 9.0313,4.0596 9.0313,9.0313 l 0,70.99995 c 0,4.97163 -4.0596,9.03125 -9.0313,9.03125 z"
       id="path3214" />
    <path
       inkscape:connector-curvature="0"
       style="opacity:0.2;fill:url(#linearGradient3291)"
       d="m 12,91.50005 c -4.40913,0 -8,-3.59087 -8,-8 l 0,-71 c 0,-4.4091 3.59087,-8 8,-8 l 72,0 c 4.4091,0 8,3.5909 8,8 l 0,71 c 0,4.40913 -3.5909,8 -8,8 z"
       id="path3216" />
    <rect
       y="-90.500046"
       x="5"
       style="opacity:0.3;fill:url(#linearGradient3293)"
       ry="7"
       rx="7"
       height="85"
       width="86"
       transform="scale(1,-1)"
       id="rect3218" />
    <rect
       y="-89.500046"
       x="6"
       style="opacity:0.4;fill:url(#linearGradient3295)"
       ry="6"
       rx="6"
       height="84"
       width="84"
       transform="scale(1,-1)"
       id="rect3220" />
  </g>
  <path
     inkscape:connector-curvature="0"
     id="path3222"
     d="m 84,4.5000496 -72,0 c -3.324,0 -6,2.676 -6,6.0000004 l 0,72 c 0,3.324 2.676,6 6,6 l 72,0 c 3.324,0 6,-2.676 6,-6 l 0,-72 C 90,7.1760496 87.324,4.5000496 84,4.5000496 z"
     style="fill:#202020;fill-opacity:1;fill-rule:nonzero;stroke:none;display:inline" />
  <g
     id="g4855"
     transform="translate(-98,0)">
    <path
       sodipodi:nodetypes="sssssssss"
       inkscape:connector-curvature="0"
       id="path4843"
       d="m 117.21875,8.59375 c -3.921,0 -7.125,3.203999 -7.125,7.125 l 0,60.5625 c 0,3.921001 3.204,7.125 7.125,7.125 l 61.5625,0 c 3.921,0 7.125,-3.203999 7.125,-7.125 l 0,-60.5625 c 0,-3.921001 -3.204,-7.125 -7.125,-7.125 z"
       style="font-size:medium;font-style:normal;font-variant:normal;font-weight:normal;font-stretch:normal;text-indent:0;text-align:start;text-decoration:none;line-height:normal;letter-spacing:normal;word-spacing:normal;text-transform:none;direction:ltr;block-progression:tb;writing-mode:lr-tb;text-anchor:start;baseline-shift:baseline;opacity:0.1;color:#000000;fill:#000000;fill-opacity:1;fill-rule:nonzero;stroke:none;stroke-width:2;marker:none;visibility:visible;display:inline;overflow:visible;enable-background:accumulate;font-family:Sans;-inkscape-font-specification:Sans" />
    <path
       style="font-size:medium;font-style:normal;font-variant:normal;font-weight:normal;font-stretch:normal;text-indent:0;text-align:start;text-decoration:none;line-height:normal;letter-spacing:normal;word-spacing:normal;text-transform:none;direction:ltr;block-progression:tb;writing-mode:lr-tb;text-anchor:start;baseline-shift:baseline;opacity:0.2;color:#000000;fill:#000000;fill-opacity:1;fill-rule:nonzero;stroke:none;stroke-width:2;marker:none;visibility:visible;display:inline;overflow:visible;enable-background:accumulate;font-family:Sans;-inkscape-font-specification:Sans"
       d="m 117.21875,8.59375 c -3.37935,0 -6.125,2.745652 -6.125,6.125 l 0,61.5625 c 0,3.379348 2.74565,6.125 6.125,6.125 l 61.5625,0 c 3.37935,0 6.125,-2.745652 6.125,-6.125 l 0,-61.5625 c 0,-3.379348 -2.74565,-6.125 -6.125,-6.125 z"
       id="path4849"
       inkscape:connector-curvature="0"
       sodipodi:nodetypes="sssssssss" />
    <path
       style="fill:#ececec;fill-opacity:1;fill-rule:nonzero;stroke:none;display:inline"
       d="m 178.78677,9.582146 -61.57354,0 c -2.84265,0 -5.13113,2.288484 -5.13113,5.13113 l 0,61.573548 c 0,2.842646 2.28848,5.13113 5.13113,5.13113 l 61.57354,0 c 2.84265,0 5.13113,-2.288484 5.13113,-5.13113 l 0,-61.573548 c 0,-2.842646 -2.28848,-5.13113 -5.13113,-5.13113 z"
       id="path4710"
       inkscape:connector-curvature="0" />
    <path
       inkscape:connector-curvature="0"
       id="path4810"
       d="m 112.09375,74.8125 0,1.46875 c 0,2.842646 2.28235,5.125 5.125,5.125 l 61.5625,0 c 2.84265,0 5.125,-2.282354 5.125,-5.125 l 0,-1.46875 c -0.26183,2.593688 -2.46002,4.59375 -5.125,4.59375 l -61.5625,0 c -2.66498,0 -4.86317,-2.000062 -5.125,-4.59375 z"
       style="opacity:0.1;fill:#000000;fill-opacity:1;fill-rule:nonzero;stroke:none;display:inline" />
    <path
       inkscape:connector-curvature="0"
       id="path4815"
       d="m 112.09375,73.8125 0,1 c 0.26183,2.593688 2.46002,4.59375 5.125,4.59375 l 61.5625,0 c 2.66498,0 4.86317,-2.000062 5.125,-4.59375 l 0,-1 c -0.26183,2.593688 -2.46002,4.59375 -5.125,4.59375 l -61.5625,0 c -2.66498,0 -4.86317,-2.000062 -5.125,-4.59375 z"
       style="opacity:0.4;fill:url(#linearGradient4863);fill-opacity:1;fill-rule:nonzero;stroke:none;display:inline" />
    <path
       inkscape:connector-curvature="0"
       id="path4820"
       d="m 116.6875,9.59375 c -2.59369,0.2618304 -4.59375,2.460019 -4.59375,5.125 l 0,0.46875 c 0.26183,-2.593688 2.46002,-4.59375 5.125,-4.59375 l 61.5625,0 c 2.66498,0 4.86317,2.000062 5.125,4.59375 l 0,-0.46875 c 0,-2.842646 -2.28235,-5.125 -5.125,-5.125 l -61.5625,0 c -0.17767,0 -0.35834,-0.017455 -0.53125,0 z"
       style="opacity:0.5;fill:#ffffff;fill-opacity:1;fill-rule:nonzero;stroke:none;display:inline" />
  </g>
  <path
     sodipodi:nodetypes="ssssssccssss"
     inkscape:connector-curvature="0"
     id="path3224"
     d="m 12,4.5 c -3.324,0 -6,2.6759996 -6,6 l 0,70 c 0,3.324 2.676,6 6,6 l 62,0 c 3.324,0 6,-2.676 6,-6 l 0,-38.1875 6.875,-4.125 C 88.74566,37.173813 90,35.1915 90,32.90625 L 90,10.5 c 0,-3.3240004 -2.676,-6 -6,-6 z"
     style="fill:#333333;fill-opacity:1;fill-rule:nonzero;stroke:none;display:inline" />
  <g
     id="g3226">
    <rect
       style="opacity:0.15;color:#000000;fill:#ffffff;fill-opacity:1;fill-rule:nonzero;stroke:none;stroke-width:5;marker:none;visibility:visible;display:inline;overflow:visible;enable-background:accumulate"
       id="rect3228"
       width="1"
       height="65"
       x="9"
       y="10" />
    <rect
       y="10"
       x="10"
       height="65"
       width="1"
       id="rect3230"
       style="opacity:0.25;color:#000000;fill:#000000;fill-opacity:1;fill-rule:nonzero;stroke:none;stroke-width:5;marker:none;visibility:visible;display:inline;overflow:visible;enable-background:accumulate" />
    <rect
       y="10"
       x="13"
       height="65"
       width="1"
       id="rect3232"
       style="opacity:0.15;color:#000000;fill:#ffffff;fill-opacity:1;fill-rule:nonzero;stroke:none;stroke-width:5;marker:none;visibility:visible;display:inline;overflow:visible;enable-background:accumulate" />
    <rect
       style="opacity:0.25;color:#000000;fill:#000000;fill-opacity:1;fill-rule:nonzero;stroke:none;stroke-width:5;marker:none;visibility:visible;display:inline;overflow:visible;enable-background:accumulate"
       id="rect3234"
       width="1"
       height="65"
       x="14"
       y="10" />
    <path
       inkscape:connector-curvature="0"
       style="color:#000000;fill:url(#linearGradient3297);fill-opacity:1;fill-rule:nonzero;stroke:none;stroke-width:5;marker:none;visibility:visible;display:inline;overflow:visible;enable-background:accumulate"
       d="m 72.875,68.71875 c -2.51184,0 -4.5625,1.93878 -4.5625,4.3125 0,2.37372 2.05066,4.3125 4.5625,4.3125 2.51184,0 4.5625,-1.93878 4.5625,-4.3125 0,-2.37372 -2.05066,-4.3125 -4.5625,-4.3125 z m 0,1.34375 c 1.73733,0 3.15625,1.326959 3.15625,2.96875 0,1.641792 -1.41892,2.96875 -3.15625,2.96875 -1.73733,0 -3.15625,-1.326958 -3.15625,-2.96875 0,-1.641791 1.41892,-2.96875 3.15625,-2.96875 z"
       id="path3236" />
    <path
       inkscape:connector-curvature="0"
       style="opacity:0.8;color:#000000;fill:#000000;fill-opacity:1;fill-rule:nonzero;stroke:none;stroke-width:5;marker:none;visibility:visible;display:inline;overflow:visible;enable-background:accumulate"
       d="m 72.875,70.0625 c -1.73733,0 -3.15625,1.326959 -3.15625,2.96875 0,0.55226 0.19112,1.056911 0.46875,1.5 0.54773,-0.874152 1.53457,-1.46875 2.6875,-1.46875 1.15293,0 2.13977,0.594598 2.6875,1.46875 0.27763,-0.443089 0.46875,-0.94774 0.46875,-1.5 0,-1.641791 -1.41892,-2.96875 -3.15625,-2.96875 z"
       id="path3238" />
    <path
       style="opacity:0.2;color:#000000;fill:#ffffff;fill-opacity:1;fill-rule:nonzero;stroke:none;stroke-width:5;marker:none;visibility:visible;display:inline;overflow:visible;enable-background:accumulate"
       d="m 72.875,68.71875 c -2.51184,0 -4.5625,1.93878 -4.5625,4.3125 0,0.08494 0.0261,0.166247 0.0313,0.25 0.13954,-2.256915 2.10928,-4.0625 4.53125,-4.0625 2.42197,0 4.39171,1.805585 4.53125,4.0625 0.005,-0.08375 0.0313,-0.165064 0.0313,-0.25 0,-2.37372 -2.05066,-4.3125 -4.5625,-4.3125 z m -3.125,4.5625 c -0.008,0.08469 -0.0313,0.163412 -0.0313,0.25 0,1.641792 1.41892,2.96875 3.15625,2.96875 1.73733,0 3.15625,-1.326958 3.15625,-2.96875 0,-0.08659 -0.0235,-0.165312 -0.0313,-0.25 C 75.86113,74.802331 74.5207,76 72.875,76 71.2293,76 69.88887,74.802331 69.75,73.28125 z"
       id="path3240"
       inkscape:connector-curvature="0" />
    <path
       style="opacity:0.7;color:#000000;fill:#000000;fill-opacity:1;fill-rule:nonzero;stroke:none;stroke-width:5;marker:none;visibility:visible;display:inline;overflow:visible;enable-background:accumulate"
       d="m 72.875,73.0625 c -1.15293,0 -2.13977,0.594598 -2.6875,1.46875 C 70.73523,75.405402 71.72207,76 72.875,76 74.02793,76 75.01477,75.405402 75.5625,74.53125 75.01477,73.657098 74.02793,73.0625 72.875,73.0625 z"
       id="path3242"
       inkscape:connector-curvature="0" />
    <path
       style="opacity:0.2;color:#000000;fill:#000000;fill-opacity:1;fill-rule:nonzero;stroke:none;stroke-width:5;marker:none;visibility:visible;display:inline;overflow:visible;enable-background:accumulate"
       d="m 72.875,69.5625 c -1.73733,0 -3.15625,1.326959 -3.15625,2.96875 0,0.08659 0.0235,0.165312 0.0313,0.25 0.13887,-1.52108 1.4793,-2.71875 3.125,-2.71875 1.6457,0 2.98613,1.19767 3.125,2.71875 0.008,-0.08469 0.0313,-0.163412 0.0313,-0.25 0,-1.641791 -1.41892,-2.96875 -3.15625,-2.96875 z m -4.53125,3.21875 c -0.005,0.08375 -0.0313,0.165064 -0.0313,0.25 0,2.37372 2.05066,4.3125 4.5625,4.3125 2.51184,0 4.5625,-1.93878 4.5625,-4.3125 0,-0.08494 -0.0261,-0.166247 -0.0313,-0.25 -0.13954,2.256915 -2.10928,4.0625 -4.53125,4.0625 -2.42197,0 -4.39171,-1.805585 -4.53125,-4.0625 z"
       id="path3244"
       inkscape:connector-curvature="0" />
    <path
       inkscape:connector-curvature="0"
       style="opacity:0.3;fill:#ffffff;fill-opacity:1;fill-rule:nonzero;stroke:none;display:inline"
       d="M 80.875,8.59375 80.34375,9.9375 80,9 l 0,22.21875 0.34375,-0.9375 0.53125,1.34375 0.53125,-1.34375 0.53125,1.3125 0.5,-1.3125 0.5,1.3125 0.53125,-1.3125 L 84,31.625 84.5,30.28125 85.03125,31.625 85.5625,30.28125 86,31.40625 86,8.8125 85.5625,9.9375 85.03125,8.59375 84.5,9.9375 84,8.59375 83.46875,9.9375 82.9375,8.625 82.4375,9.9375 81.9375,8.625 81.40625,9.9375 80.875,8.59375 z"
       id="path3246" />
    <path
       style="opacity:0.2;fill:#ffffff;fill-opacity:1;fill-rule:nonzero;stroke:none;display:inline"
       d="M 80.875,8.59375 80.34375,9.9375 80,9 l 0,0.5 0.34375,0.9375 0.53125,-1.34375 0.53125,1.34375 0.53125,-1.3125 0.5,1.3125 0.5,-1.3125 0.53125,1.3125 L 84,9.09375 84.5,10.4375 85.03125,9.09375 85.5625,10.4375 86,9.3125 86,8.8125 85.5625,9.9375 85.03125,8.59375 84.5,9.9375 84,8.59375 83.46875,9.9375 82.9375,8.625 82.4375,9.9375 81.9375,8.625 81.40625,9.9375 80.875,8.59375 z"
       id="path3248"
       inkscape:connector-curvature="0" />
    <path
       style="opacity:0.15;fill:#000000;fill-opacity:1;fill-rule:nonzero;stroke:none;display:inline"
       d="M 80.34375,29.78125 80,30.71875 l 0,0.5 0.34375,-0.9375 0.53125,1.34375 0.53125,-1.34375 0.53125,1.3125 0.5,-1.3125 0.5,1.3125 0.53125,-1.3125 L 84,31.625 l 0.5,-1.34375 0.53125,1.34375 0.53125,-1.34375 0.4375,1.125 0,-0.5 -0.4375,-1.125 L 85.03125,31.125 84.5,29.78125 84,31.125 l -0.53125,-1.34375 -0.53125,1.3125 -0.5,-1.3125 -0.5,1.3125 -0.53125,-1.3125 L 80.875,31.125 80.34375,29.78125 z"
       id="path3250"
       inkscape:connector-curvature="0" />
  </g>
  <g
     id="layer2"
     style="display:none">
    <rect
       width="86"
       height="85"
       rx="6"
       ry="6"
       x="5"
       y="7"
       id="rect3745"
       style="opacity:0.9;fill:url(#ButtonShadow);fill-opacity:1;fill-rule:nonzero;stroke:none;filter:url(#filter3174)" />
  </g>
  <g
     id="g3882"
     transform="translate(-80,0)">
    <path
       sodipodi:nodetypes="sscccsccccsssscccssccccsssscccsccccsssscccsscccssssssss"
       inkscape:connector-curvature="0"
       id="path3108"
       d="m 123.46875,19.5 c -1.41884,0 -2.5625,1.182412 -2.5625,2.59375 l 0,2.4375 c -1.10152,0.343892 -2.1517,0.784049 -3.15625,1.3125 L 116,24.125 c -0.98227,-0.982302 -2.59923,-1.057029 -3.59375,-0.0625 l -4.34375,4.34375 c -0.99462,0.994496 -0.91977,2.611474 0.0625,3.59375 l 1.71875,1.75 c -0.52728,1.002087 -0.96884,2.057592 -1.3125,3.15625 l -2.4375,0 c -1.41134,0 -2.59375,1.14366 -2.59375,2.5625 l 0,6.0625 c 0,1.41884 1.18241,2.5625 2.59375,2.5625 l 2.4375,0 c 0.34366,1.098657 0.78522,2.154163 1.3125,3.15625 L 108.125,53 c -0.98217,0.982299 -1.05701,2.599228 -0.0625,3.59375 l 4.34375,4.34375 c 0.51031,0.51031 1.16403,0.724222 1.8125,0.71875 0.67049,-0.0057 1.3124,-0.312399 1.78125,-0.78125 l 1.75,-1.71875 c 1.00209,0.527284 2.05759,0.968841 3.15625,1.3125 l 0,2.4375 c 0,1.411338 1.14366,2.59375 2.5625,2.59375 l 6.0625,0 c 1.41884,0 2.5625,-1.182411 2.5625,-2.59375 l 0,-2.4375 c 1.09866,-0.34366 2.15416,-0.785216 3.15625,-1.3125 L 137,60.875 c 0.98227,0.982294 2.59923,1.057016 3.59375,0.0625 l 4.34375,-4.34375 C 145.93212,55.599254 145.85727,53.982276 144.875,53 l -1.71875,-1.75 c 0.52728,-1.002087 0.96884,-2.057591 1.3125,-3.15625 l 2.4375,0 c 1.41133,0 2.59375,-1.143653 2.59375,-2.5625 l 0,-6.0625 c 0,-1.418848 -1.18242,-2.5625 -2.59375,-2.5625 l -2.4375,0 c -0.34366,-1.098656 -0.78522,-2.154162 -1.3125,-3.15625 L 144.875,32 c 0.98217,-0.982298 1.05701,-2.599228 0.0625,-3.59375 L 140.59375,24.0625 C 139.59922,23.067996 137.98227,23.142714 137,24.125 l -1.75,1.71875 c -1.00455,-0.528451 -2.05473,-0.968608 -3.15625,-1.3125 l 0,-2.4375 c 0,-1.411346 -1.14366,-2.59375 -2.5625,-2.59375 z M 126.5,36.84375 c 3.13037,0 5.65625,2.525883 5.65625,5.65625 0,3.130371 -2.52588,5.65625 -5.65625,5.65625 -3.13037,0 -5.65625,-2.525881 -5.65625,-5.65625 0,-3.130366 2.52588,-5.65625 5.65625,-5.65625 z"
       style="font-size:medium;font-style:normal;font-variant:normal;font-weight:normal;font-stretch:normal;text-indent:0;text-align:start;text-decoration:none;line-height:normal;letter-spacing:normal;word-spacing:normal;text-transform:none;direction:ltr;block-progression:tb;writing-mode:lr-tb;text-anchor:start;baseline-shift:baseline;opacity:0.2;color:#000000;fill:#000000;fill-opacity:1;fill-rule:nonzero;stroke:none;stroke-width:2;marker:none;visibility:visible;display:block;overflow:visible;enable-background:accumulate;font-family:Sans;-inkscape-font-specification:Sans" />
    <path
       d="m 123.46224,64.5 c -0.86581,0 -1.56686,-0.718229 -1.56686,-1.598832 l 0,-3.101737 c -1.54812,-0.412476 -3.02735,-1.035518 -4.3808,-1.822668 l -2.2064,2.206389 c -0.31134,0.311341 -0.68429,0.476236 -1.0872,0.47965 -0.4029,0.0034 -0.81307,-0.141566 -1.11918,-0.447673 l -4.31685,-4.316849 c -0.61221,-0.612216 -0.5907,-1.583707 0.0319,-2.206389 l 2.20639,-2.206388 c -0.78715,-1.353444 -1.41019,-2.83268 -1.82267,-4.380802 l -3.10173,0 c -0.88061,0 -1.59884,-0.70105 -1.59884,-1.566856 l 0,-6.075563 c 0,-0.865806 0.71823,-1.566857 1.59884,-1.566857 l 3.10173,0 c 0.41248,-1.548124 1.03552,-3.027359 1.82267,-4.380802 l -2.20639,-2.206388 c -0.62268,-0.622681 -0.64419,-1.594173 -0.0319,-2.206389 l 4.31685,-4.31685 c 0.61221,-0.612215 1.58371,-0.590702 2.20638,0.03199 l 2.2064,2.206389 c 1.35345,-0.787151 2.83268,-1.410189 4.3808,-1.822667 l 0,-3.101737 c 0,-0.880604 0.70105,-1.598833 1.56686,-1.598833 l 6.07556,0 c 0.8658,0 1.56686,0.718229 1.56686,1.598833 l 0,3.101737 c 1.54812,0.412478 3.02735,1.035516 4.3808,1.822667 l 2.20639,-2.206389 c 0.62267,-0.62268 1.59417,-0.644193 2.20639,-0.03199 l 4.31684,4.31685 c 0.61221,0.612216 0.5907,1.583708 -0.0319,2.206389 l -2.20638,2.206388 c 0.78715,1.353443 1.41018,2.832678 1.82266,4.380802 l 3.10175,0 c 0.88059,0 1.59883,0.701049 1.59883,1.566857 l 0,6.075563 c 0,0.865805 -0.71824,1.566856 -1.59883,1.566856 l -3.10175,0 c -0.41247,1.548122 -1.03551,3.027358 -1.82266,4.380802 l 2.20639,2.206388 c 0.62268,0.622682 0.64419,1.594173 0.0319,2.206389 l -4.31685,4.316849 c -0.61222,0.612216 -1.58371,0.590705 -2.20639,-0.03199 l -2.20639,-2.20639 c -1.35345,0.787151 -2.83268,1.410193 -4.3808,1.822671 l 0,3.101733 c 0,0.880605 -0.70105,1.598833 -1.56685,1.598833 l -6.07557,0 z m 3.03778,-15.348792 c 3.67143,0 6.65114,-2.979713 6.65114,-6.651146 0,-3.67143 -2.97971,-6.651142 -6.65114,-6.651142 -3.67143,0 -6.65115,2.979712 -6.65115,6.651142 0,3.671433 2.97972,6.651146 6.65115,6.651146 z"
       inkscape:connector-curvature="0"
       id="rect3267"
       style="opacity:0.85;fill:#ffffff;fill-opacity:1;fill-rule:nonzero;stroke:none;stroke-width:1;marker:none;visibility:visible;display:block;overflow:visible;enable-background:accumulate" />
    <path
       inkscape:connector-curvature="0"
       id="path3987"
       d="m 123.46877,20.5 c -0.86581,0 -1.5625,0.713146 -1.5625,1.59375 l 0,3 c 0,-0.880604 0.69669,-1.59375 1.5625,-1.59375 l 6.0625,0 c 0.8658,0 1.5625,0.713146 1.5625,1.59375 l 0,-3 c 0,-0.880604 -0.6967,-1.59375 -1.5625,-1.59375 l -6.0625,0 z m -9.28125,3.84375 c -0.39723,-0.0067 -0.78764,0.131393 -1.09375,0.4375 l -4.3125,4.3125 c -0.61229,0.612216 -0.59143,1.596069 0.0313,2.21875 l 0.375,0.375 3.90625,-3.90625 c 0.61221,-0.612215 1.59608,-0.591442 2.21875,0.03125 l 2.18745,2.21875 c 1.35345,-0.787151 2.85813,-1.431272 4.40625,-1.84375 l 0,-3 c -1.54812,0.412478 -3.0528,1.056599 -4.40625,1.84375 l -2.1875,-2.21875 c -0.31133,-0.311346 -0.72777,-0.462062 -1.125,-0.46875 z m 24.625,0 c -0.39724,0.0067 -0.81367,0.15741 -1.125,0.46875 l -2.1875,2.21875 c -1.35345,-0.787151 -2.85813,-1.431272 -4.40625,-1.84375 l 0,3 c 1.54812,0.412478 3.0528,1.056599 4.40625,1.84375 l 2.1875,-2.21875 c 0.62267,-0.62268 1.60653,-0.643453 2.21875,-0.03125 l 3.90625,3.90625 0.375,-0.375 c 0.6226,-0.622681 0.64346,-1.606534 0.0313,-2.21875 l -4.3125,-4.3125 c -0.30611,-0.306101 -0.69651,-0.444188 -1.09375,-0.4375 z M 110.03127,35.5 c -0.32978,0.772987 -0.62524,1.586139 -0.84375,2.40625 l -3.09375,0 c -0.88061,0 -1.59375,0.696694 -1.59375,1.5625 l 0,3 c 0,-0.865806 0.71314,-1.5625 1.59375,-1.5625 l 3.09375,0 C 109.6,39.358126 110.24412,37.853443 111.03127,36.5 l -1,-1 z m 32.9375,0 -1,1 c 0.78715,1.353443 1.43127,2.858126 1.84375,4.40625 l 3.09375,0 c 0.88059,0 1.59375,0.696692 1.59375,1.5625 l 0,-3 c 0,-0.865808 -0.71316,-1.5625 -1.59375,-1.5625 l -3.09375,0 C 143.59401,37.086139 143.29855,36.272987 142.96877,35.5 z M 120.00002,44 c -0.11083,0.481221 -0.15625,0.985284 -0.15625,1.5 0,3.671433 2.98482,6.65625 6.65625,6.65625 3.67143,0 6.65625,-2.984817 6.65625,-6.65625 0,-0.514716 -0.0454,-1.018779 -0.15625,-1.5 -0.67969,2.951291 -3.34329,5.15625 -6.5,5.15625 -3.15671,0 -5.82031,-2.204959 -6.5,-5.15625 z m -9.96875,8.5 -1.21875,1.1875 c -0.6226,0.622682 -0.64346,1.606534 -0.0313,2.21875 l 0.4063,0.40625 1.84375,-1.8125 c -0.37016,-0.636464 -0.70725,-1.313819 -1,-2 z m 32.9375,0 c -0.29275,0.686181 -0.62984,1.363536 -1,2 l 1.84375,1.8125 0.40625,-0.40625 c 0.61229,-0.612216 0.59143,-1.596068 -0.0313,-2.21875 L 142.96877,52.5 z"
       style="opacity:0.1;fill:#000000;fill-opacity:1;fill-rule:nonzero;stroke:none;stroke-width:1;marker:none;visibility:visible;display:block;overflow:visible;enable-background:accumulate" />
    <path
       inkscape:connector-curvature="0"
       id="path3996"
       d="m 123.46877,20.5 c -0.86581,0 -1.5625,0.713146 -1.5625,1.59375 l 0,2 c 0,-0.880604 0.69669,-1.59375 1.5625,-1.59375 l 6.0625,0 c 0.8658,0 1.5625,0.713146 1.5625,1.59375 l 0,-2 c 0,-0.880604 -0.6967,-1.59375 -1.5625,-1.59375 l -6.0625,0 z m -9.28125,3.84375 c -0.39723,-0.0067 -0.78764,0.131393 -1.09375,0.4375 l -4.3125,4.3125 c -0.57402,0.573953 -0.57569,1.471703 -0.0625,2.09375 0.025,-0.02894 0.035,-0.0662 0.0625,-0.09375 l 4.3125,-4.3125 c 0.61221,-0.612215 1.59608,-0.591442 2.21875,0.03125 l 2.1875,2.21875 c 1.35345,-0.787151 2.85813,-1.431272 4.40625,-1.84375 l 0,-2 c -1.54812,0.412478 -3.0528,1.056599 -4.40625,1.84375 l -2.1875,-2.21875 c -0.31133,-0.311346 -0.72777,-0.462062 -1.125,-0.46875 z m 24.625,0 c -0.39724,0.0067 -0.81367,0.15741 -1.125,0.46875 l -2.1875,2.21875 c -1.35345,-0.787151 -2.85813,-1.431272 -4.40625,-1.84375 l 0,2 c 1.54812,0.412478 3.0528,1.056599 4.40625,1.84375 l 2.1875,-2.21875 c 0.62267,-0.62268 1.60653,-0.643453 2.21875,-0.03125 l 4.3125,4.3125 c 0.0275,0.02755 0.0375,0.06481 0.0625,0.09375 0.51313,-0.622047 0.51145,-1.519798 -0.0625,-2.09375 l -4.3125,-4.3125 c -0.30611,-0.306101 -0.69651,-0.444188 -1.09375,-0.4375 z M 110.34377,34.8125 c -0.47032,0.984567 -0.87143,2.024755 -1.15625,3.09375 l -3.09375,0 c -0.88061,0 -1.59375,0.696694 -1.59375,1.5625 l 0,2 c 0,-0.865806 0.71314,-1.5625 1.59375,-1.5625 l 3.09375,0 C 109.6,38.358126 110.24412,36.853443 111.03127,35.5 l -0.6875,-0.6875 z m 32.3125,0 -0.6875,0.6875 c 0.78715,1.353443 1.43127,2.858126 1.84375,4.40625 l 3.09375,0 c 0.88059,0 1.59375,0.696692 1.59375,1.5625 l 0,-2 c 0,-0.865808 -0.71316,-1.5625 -1.59375,-1.5625 l -3.09375,0 c -0.28482,-1.068995 -0.68593,-2.109183 -1.15625,-3.09375 z m -22.75,8.6875 c -0.0488,0.32456 -0.0625,0.661922 -0.0625,1 0,3.671433 2.98482,6.65625 6.65625,6.65625 3.67143,0 6.65625,-2.984817 6.65625,-6.65625 0,-0.338078 -0.0137,-0.67544 -0.0625,-1 -0.48062,3.20008 -3.2604,5.65625 -6.59375,5.65625 -3.33335,0 -6.11313,-2.45617 -6.59375,-5.65625 z m -9.5625,8.6875 -1.53125,1.5 c -0.59458,0.594661 -0.62401,1.510823 -0.0937,2.125 0.0342,-0.04147 0.0548,-0.08608 0.0937,-0.125 L 111.03127,53.5 c -0.24362,-0.418877 -0.4767,-0.871212 -0.6875,-1.3125 z m 32.3125,0 c -0.2108,0.441288 -0.44388,0.893623 -0.6875,1.3125 l 2.21875,2.1875 c 0.0389,0.03892 0.0595,0.08353 0.0937,0.125 0.53032,-0.614177 0.50091,-1.530339 -0.0937,-2.125 l -1.53125,-1.5 z"
       style="opacity:0.2;fill:#000000;fill-opacity:1;fill-rule:nonzero;stroke:none;stroke-width:1;marker:none;visibility:visible;display:block;overflow:visible;enable-background:accumulate" />
    <path
       inkscape:connector-curvature="0"
       id="path4005"
       d="m 123.46877,20.5 c -0.86581,0 -1.5625,0.713146 -1.5625,1.59375 l 0,1 c 0,-0.880604 0.69669,-1.59375 1.5625,-1.59375 l 6.0625,0 c 0.8658,0 1.5625,0.713146 1.5625,1.59375 l 0,-1 c 0,-0.880604 -0.6967,-1.59375 -1.5625,-1.59375 l -6.0625,0 z m -9.28125,3.84375 c -0.39724,-0.0067 -0.78764,0.131393 -1.09375,0.4375 l -4.3125,4.3125 c -0.4184,0.418348 -0.50684,1.003314 -0.34375,1.53125 0.0744,-0.1869 0.19068,-0.378196 0.34375,-0.53125 l 4.3125,-4.3125 c 0.61221,-0.612215 1.59608,-0.591442 2.21875,0.03125 l 2.1875,2.21875 c 1.35345,-0.787151 2.85813,-1.431272 4.40625,-1.84375 l 0,-1 c -1.54812,0.412478 -3.0528,1.056599 -4.40625,1.84375 l -2.1875,-2.21875 c -0.31133,-0.311346 -0.72776,-0.462062 -1.125,-0.46875 z m 24.625,0 c -0.39724,0.0067 -0.81367,0.15741 -1.125,0.46875 l -2.1875,2.21875 c -1.35345,-0.787151 -2.85813,-1.431272 -4.40625,-1.84375 l 0,1 c 1.54812,0.412478 3.0528,1.056599 4.40625,1.84375 l 2.1875,-2.21875 c 0.62267,-0.62268 1.60653,-0.643453 2.21875,-0.03125 l 4.3125,4.3125 c 0.15305,0.153054 0.2694,0.34435 0.34375,0.53125 0.16307,-0.527936 0.0746,-1.112902 -0.34375,-1.53125 l -4.3125,-4.3125 c -0.30611,-0.306101 -0.69651,-0.444188 -1.09375,-0.4375 z m -28.125,9.8125 c -0.62218,1.176584 -1.15106,2.440371 -1.5,3.75 l -3.09375,0 c -0.88061,0 -1.59375,0.696694 -1.59375,1.5625 l 0,1 c 0,-0.865806 0.71314,-1.5625 1.59375,-1.5625 l 3.09375,0 C 109.6,37.358126 110.24412,35.853443 111.03127,34.5 l -0.34375,-0.34375 z m 31.625,0 -0.34375,0.34375 c 0.78715,1.353443 1.43127,2.858126 1.84375,4.40625 l 3.09375,0 c 0.88059,0 1.59375,0.696692 1.59375,1.5625 l 0,-1 c 0,-0.865808 -0.71316,-1.5625 -1.59375,-1.5625 l -3.09375,0 c -0.34894,-1.309629 -0.87782,-2.573416 -1.5,-3.75 z M 119.87502,43 c -0.0121,0.163934 -0.0313,0.332988 -0.0313,0.5 0,3.671433 2.98482,6.65625 6.65625,6.65625 3.67143,0 6.65625,-2.984817 6.65625,-6.65625 0,-0.167012 -0.0191,-0.336066 -0.0313,-0.5 -0.25424,3.439832 -3.12058,6.15625 -6.625,6.15625 -3.50442,0 -6.37076,-2.716418 -6.625,-6.15625 z m -9.1875,8.84375 -1.875,1.84375 c -0.45871,0.45877 -0.58191,1.101983 -0.375,1.65625 0.0772,-0.234015 0.18563,-0.466851 0.375,-0.65625 L 111.03127,52.5 c -0.12126,-0.208504 -0.23045,-0.441984 -0.34375,-0.65625 z m 31.625,0 c -0.1133,0.214266 -0.22249,0.447746 -0.34375,0.65625 l 2.21875,2.1875 c 0.1894,0.189399 0.29776,0.422235 0.375,0.65625 0.20694,-0.554267 0.0838,-1.19748 -0.375,-1.65625 l -1.875,-1.84375 z"
       style="opacity:0.3;fill:#000000;fill-opacity:1;fill-rule:nonzero;stroke:none;stroke-width:1;marker:none;visibility:visible;display:block;overflow:visible;enable-background:accumulate" />
    <path
       style="opacity:0.5;fill:#000000;fill-opacity:1;fill-rule:nonzero;stroke:none;stroke-width:1;marker:none;visibility:visible;display:block;overflow:visible;enable-background:accumulate"
       d="m 123.46877,19.5 c -0.86581,0 -1.5625,0.713146 -1.5625,1.59375 l 0,1 c 0,-0.880604 0.69669,-1.59375 1.5625,-1.59375 l 6.0625,0 c 0.8658,0 1.5625,0.713146 1.5625,1.59375 l 0,-1 c 0,-0.880604 -0.6967,-1.59375 -1.5625,-1.59375 l -6.0625,0 z m -9.28125,3.84375 c -0.39724,-0.0067 -0.78764,0.131393 -1.09375,0.4375 l -4.3125,4.3125 c -0.4184,0.418348 -0.50684,1.003314 -0.34375,1.53125 0.0744,-0.1869 0.19068,-0.378196 0.34375,-0.53125 l 4.3125,-4.3125 c 0.61221,-0.612215 1.59608,-0.591442 2.21875,0.03125 l 2.1875,2.21875 c 1.35345,-0.787151 2.85813,-1.431272 4.40625,-1.84375 l 0,-1 c -1.54812,0.412478 -3.0528,1.056599 -4.40625,1.84375 l -2.1875,-2.21875 c -0.31133,-0.311346 -0.72776,-0.462062 -1.125,-0.46875 z m 24.625,0 c -0.39724,0.0067 -0.81367,0.15741 -1.125,0.46875 l -2.1875,2.21875 c -1.35345,-0.787151 -2.85813,-1.431272 -4.40625,-1.84375 l 0,1 c 1.54812,0.412478 3.0528,1.056599 4.40625,1.84375 l 2.1875,-2.21875 c 0.62267,-0.62268 1.60653,-0.643453 2.21875,-0.03125 l 4.3125,4.3125 c 0.15305,0.153054 0.2694,0.34435 0.34375,0.53125 0.16307,-0.527936 0.0746,-1.112902 -0.34375,-1.53125 l -4.3125,-4.3125 c -0.30611,-0.306101 -0.69651,-0.444188 -1.09375,-0.4375 z m -28.125,9.8125 c -0.62218,1.176584 -1.15106,2.440371 -1.5,3.75 l -3.09375,0 c -0.88061,0 -1.59375,0.696694 -1.59375,1.5625 l 0,1 c 0,-0.865806 0.71314,-1.5625 1.59375,-1.5625 l 3.09375,0 C 109.6,36.358126 110.24412,34.853443 111.03127,33.5 l -0.34375,-0.34375 z m 31.625,0 -0.34375,0.34375 c 0.78715,1.353443 1.43127,2.858126 1.84375,4.40625 l 3.09375,0 c 0.88059,0 1.59375,0.696692 1.59375,1.5625 l 0,-1 c 0,-0.865808 -0.71316,-1.5625 -1.59375,-1.5625 l -3.09375,0 c -0.34894,-1.309629 -0.87782,-2.573416 -1.5,-3.75 z M 119.87502,42 c -0.0121,0.163934 -0.0313,0.332988 -0.0313,0.5 0,3.671433 2.98482,6.65625 6.65625,6.65625 3.67143,0 6.65625,-2.984817 6.65625,-6.65625 0,-0.167012 -0.0191,-0.336066 -0.0313,-0.5 -0.25424,3.439832 -3.12058,6.15625 -6.625,6.15625 -3.50442,0 -6.37076,-2.716418 -6.625,-6.15625 z m -9.1875,8.84375 -1.875,1.84375 c -0.45871,0.45877 -0.58191,1.101983 -0.375,1.65625 0.0772,-0.234015 0.18563,-0.466851 0.375,-0.65625 L 111.03127,51.5 c -0.12126,-0.208504 -0.23045,-0.441984 -0.34375,-0.65625 z m 31.625,0 c -0.1133,0.214266 -0.22249,0.447746 -0.34375,0.65625 l 2.21875,2.1875 c 0.1894,0.189399 0.29776,0.422235 0.375,0.65625 0.20694,-0.554267 0.0838,-1.19748 -0.375,-1.65625 l -1.875,-1.84375 z"
       id="path4014"
       inkscape:connector-curvature="0" />
    <path
       inkscape:connector-curvature="0"
       id="path4016"
       d="m 108.43752,29.65625 c -0.20694,0.554267 -0.0838,1.197481 0.375,1.65625 l 1.875,1.84375 c 0.1133,-0.214266 0.22249,-0.447747 0.34375,-0.65625 l -2.21875,-2.1875 c -0.1894,-0.189399 -0.29776,-0.422235 -0.375,-0.65625 z m 36.125,0 c -0.0772,0.234015 -0.18563,0.466851 -0.375,0.65625 L 141.96877,32.5 c 0.12126,0.208503 0.23045,0.441984 0.34375,0.65625 l 1.875,-1.84375 c 0.45871,-0.458769 0.58191,-1.101983 0.375,-1.65625 z m -18.0625,5.1875 c -3.67143,0 -6.65625,2.98482 -6.65625,6.65625 0,0.167012 0.0191,0.336066 0.0313,0.5 0.25424,-3.439829 3.12058,-6.15625 6.625,-6.15625 3.50442,0 6.37076,2.716421 6.625,6.15625 0.0121,-0.163934 0.0313,-0.332988 0.0313,-0.5 0,-3.67143 -2.98482,-6.65625 -6.65625,-6.65625 z m -22,9.6875 0,1 c 0,0.865806 0.71314,1.5625 1.59375,1.5625 l 3.09375,0 c 0.34894,1.309628 0.87782,2.573415 1.5,3.75 L 111.03127,50.5 C 110.24412,49.146556 109.6,47.641872 109.18752,46.09375 l -3.09375,0 c -0.88061,0 -1.59375,-0.696694 -1.59375,-1.5625 z m 44,0 c 0,0.865805 -0.71316,1.5625 -1.59375,1.5625 l -3.09375,0 c -0.41247,1.548122 -1.0566,3.052806 -1.84375,4.40625 l 0.34375,0.34375 c 0.62218,-1.176585 1.15107,-2.440372 1.5,-3.75 l 3.09375,0 c 0.88059,0 1.59375,-0.696695 1.59375,-1.5625 l 0,-1 z m -40.0625,9.84375 c -0.16307,0.527936 -0.0746,1.112902 0.34375,1.53125 l 4.3125,4.3125 c 0.30611,0.306107 0.7221,0.4409 1.125,0.4375 0.40291,-0.0034 0.78241,-0.157409 1.09375,-0.46875 l 2.1875,-2.21875 c 1.35345,0.78715 2.85813,1.431274 4.40625,1.84375 l 0,-1 c -1.54812,-0.412476 -3.0528,-1.0566 -4.40625,-1.84375 l -2.1875,2.21875 c -0.31134,0.311341 -0.69084,0.465336 -1.09375,0.46875 -0.4029,0.0034 -0.81889,-0.131393 -1.125,-0.4375 l -4.3125,-4.3125 c -0.15305,-0.153054 -0.2694,-0.34435 -0.34375,-0.53125 z m 36.125,0 c -0.0744,0.1869 -0.19068,0.378196 -0.34375,0.53125 l -4.3125,4.3125 c -0.61222,0.612216 -1.59607,0.591445 -2.21875,-0.03125 l -2.1875,-2.21875 c -1.35345,0.787151 -2.85813,1.431272 -4.40625,1.84375 l 0,1 c 1.54812,-0.412478 3.0528,-1.056599 4.40625,-1.84375 l 2.1875,2.21875 c 0.62268,0.622695 1.60653,0.643466 2.21875,0.03125 l 4.3125,-4.3125 c 0.4184,-0.418348 0.50684,-1.003314 0.34375,-1.53125 z m -22.65625,7.53125 0,1 c 0,0.880603 0.69669,1.59375 1.5625,1.59375 l 6.0625,0 c 0.8658,0 1.5625,-0.713145 1.5625,-1.59375 l 0,-1 c 0,0.880605 -0.6967,1.59375 -1.5625,1.59375 l -6.0625,0 c -0.86581,0 -1.5625,-0.713147 -1.5625,-1.59375 z"
       style="opacity:0.85;fill:#ffffff;fill-opacity:1;fill-rule:nonzero;stroke:none;stroke-width:1;marker:none;visibility:visible;display:block;overflow:visible;enable-background:accumulate" />
  </g>
  <g
     id="g3146"
     transform="translate(-100,0)">
    <path
       style="opacity:0.1;fill:url(#linearGradient3163);fill-opacity:1;fill-rule:nonzero;stroke:none;display:inline"
       d="m 112,5.5 c -2.7873,0 -5,2.2127028 -5,5 l 0,56.3125 c 1.07066,1.628779 2.89693,2.71875 5,2.71875 l 68,0 0,-25.21875 0,-5 0,-2 6.875,-4.125 c 0.86852,-0.47064 1.58604,-1.147137 2.125,-1.96875 L 189,10.5 c 0,-2.7872972 -2.2127,-5 -5,-5 l -72,0 z m 77,32.71875 c -0.13474,0.205403 -0.28087,0.407435 -0.4375,0.59375 0.16108,-0.189117 0.30071,-0.385228 0.4375,-0.59375 z"
       id="path3256"
       inkscape:connector-curvature="0" />
    <path
       sodipodi:nodetypes="csssscssc"
       inkscape:connector-curvature="0"
       id="path3258"
       d="m 106,73.51565 0,2 c 0,3.324 2.676,6 6,6 l 62,0 c 3.324,0 6,-2.676 6,-6 l 0,-2 c 0,3.324 -2.676,6 -6,6 l -62,0 c -3.324,0 -6,-2.676 -6,-6 z"
       style="opacity:0.2;fill:url(#linearGradient3165);fill-opacity:1;fill-rule:nonzero;stroke:none" />
    <path
       inkscape:connector-curvature="0"
       style="opacity:0.45;fill:#000000;fill-opacity:1;fill-rule:nonzero;stroke:none;display:inline"
       d="m 190,29.90625 c 0,2.28525 -1.25434,4.267563 -3.125,5.28125 l -6.875,4.125 0,3 6.875,-4.125 C 188.74566,37.173813 190,35.1915 190,32.90625 l 0,-3 z"
       id="path3260" />
    <path
       style="opacity:0.2;fill:#ffffff;fill-opacity:1;fill-rule:nonzero;stroke:none;display:inline"
       d="m 190,27.90625 c 0,2.28525 -1.25434,4.267563 -3.125,5.28125 l -6.875,4.125 0,2 6.875,-4.125 C 188.74566,34.173813 190,32.1915 190,29.90625 l 0,-2 z"
       id="path3263"
       inkscape:connector-curvature="0" />
    <path
       inkscape:connector-curvature="0"
       id="path3265"
       d="m 190,27.90625 c 0,2.28525 -1.25434,4.267563 -3.125,5.28125 l -6.875,4.125 0,2 6.875,-4.125 C 188.74566,34.173813 190,32.1915 190,29.90625 l 0,-2 z"
       style="opacity:0.05;fill:#ffffff;fill-opacity:1;fill-rule:nonzero;stroke:none;display:inline" />
    <path
       style="opacity:0.25;fill:#000000;fill-opacity:1;fill-rule:nonzero;stroke:none"
       d="m 106,75.5 0,2 c 0,3.324 2.676,6 6,6 l 62,0 c 3.324,0 6,-2.676 6,-6 l 0,-2 c 0,3.324 -2.676,6 -6,6 l -62,0 c -3.324,0 -6,-2.676 -6,-6 z"
       id="path3267"
       inkscape:connector-curvature="0" />
    <path
       style="opacity:0.25;fill:#000000;fill-opacity:1;fill-rule:nonzero;stroke:none"
       d="m 106,80.5 0,2 c 0,3.324 2.676,6 6,6 l 72,0 c 3.324,0 6,-2.676 6,-6 l 0,-2 c 0,3.324 -2.676,6 -6,6 l -72,0 c -3.324,0 -6,-2.676 -6,-6 z"
       id="path3269"
       inkscape:connector-curvature="0"
       sodipodi:nodetypes="csssscssc" />
    <path
       style="opacity:0.1;fill:url(#linearGradient3167);fill-opacity:1;fill-rule:nonzero;stroke:none"
       d="m 106,80.5 0,2 c 0,3.324 2.676,6 6,6 l 72,0 c 3.324,0 6,-2.676 6,-6 l 0,-2 c 0,3.324 -2.676,6 -6,6 l -72,0 c -3.324,0 -6,-2.676 -6,-6 z"
       id="path3271"
       inkscape:connector-curvature="0"
       sodipodi:nodetypes="csssscssc" />
    <path
       inkscape:connector-curvature="0"
       style="opacity:0.15;fill:#ffffff;fill-opacity:1;fill-rule:nonzero;stroke:none"
       d="m 190,79.53125 c 0,3.324 -2.676,6 -6,6 L 177.28125,85.5 c -0.94168,0.62023 -2.06399,1 -3.28125,1 l 10,0.03125 c 3.324,0 6,-2.676 6,-6 l 0,-1 z"
       id="path3273" />
    <path
       style="opacity:0.45;fill:url(#radialGradient3169);fill-opacity:1;fill-rule:nonzero;stroke:none;display:inline"
       d="m 112,4.5 c -3.324,0 -6,2.6759996 -6,6 l 0,15 1,0 0,-15 c 0,-2.7872972 2.2127,-5 5,-5 l 72,0 c 2.7873,0 5,2.2127028 5,5 l 0,15 1,0 0,-15 c 0,-3.3240004 -2.676,-6 -6,-6 l -72,0 z"
       id="path3275"
       inkscape:connector-curvature="0" />
    <path
       style="opacity:0.1;fill:#000000;fill-opacity:1;fill-rule:nonzero;stroke:none;display:inline"
       d="m 190,32.90625 c 0,2.28525 -1.25434,4.267563 -3.125,5.28125 L 180,42.3125 180,80.5 c 0,3.324 -2.676,6 -6,6 l 2,0 c 3.324,0 6,-2.676 6,-6 l 0,-38.1875 6.875,-4.125 c 0.40921,-0.221744 0.78146,-0.505024 1.125,-0.8125 l 0,-4.46875 z"
       id="path3277"
       inkscape:connector-curvature="0" />
    <path
       style="opacity:0.05;fill:#000000;fill-opacity:1;fill-rule:nonzero;stroke:none;display:inline"
       d="m 190,37.375 c -0.34354,0.307476 -0.71579,0.590756 -1.125,0.8125 L 182,42.3125 182,80.5 c 0,3.324 -2.676,6 -6,6 l 2,0 c 3.324,0 6,-2.676 6,-6 l 0,-38.1875 6,-3.59375 0,-1.34375 z"
       id="path3279"
       inkscape:connector-curvature="0" />
    <path
       style="opacity:0.1;fill:url(#linearGradient3171);fill-opacity:1;fill-rule:nonzero;stroke:none"
       d="m 106,75.5 0,2 c 0,3.324 2.676,6 6,6 l 62,0 c 3.324,0 6,-2.676 6,-6 l 0,-2 c 0,3.324 -2.676,6 -6,6 l -62,0 c -3.324,0 -6,-2.676 -6,-6 z"
       id="path3281"
       inkscape:connector-curvature="0" />
    <path
       style="opacity:0.65;fill:url(#linearGradient3174);fill-opacity:1;fill-rule:nonzero;stroke:none"
       d="m 106,77.5 0,1 0,1 0,1 c 0,3.324 2.676,6 6,6 l 62,0 c 3.324,0 6,-2.676 6,-6 l 0,-1 0,-1 0,-1 c 0,3.324 -2.676,6 -6,6 l -62,0 c -3.324,0 -6,-2.676 -6,-6 z"
       id="path3283"
       inkscape:connector-curvature="0" />
    <path
       style="opacity:0.15;fill:#ffffff;fill-opacity:1;fill-rule:nonzero;stroke:none"
       d="m 106,79.5 0,1 c 0,3.324 2.676,6 6,6 l 62,0 c 1.23052,0 2.36247,-0.369434 3.3125,-1 L 112,85.5 c -3.324,0 -6,-2.676 -6,-6 z"
       id="path3285"
       inkscape:connector-curvature="0" />
  </g>
</svg>
