<?xml version="1.0" encoding="UTF-8" standalone="no"?>
<!-- Created with Inkscape (http://www.inkscape.org/) -->

<svg
   xmlns:dc="http://purl.org/dc/elements/1.1/"
   xmlns:cc="http://creativecommons.org/ns#"
   xmlns:rdf="http://www.w3.org/1999/02/22-rdf-syntax-ns#"
   xmlns:svg="http://www.w3.org/2000/svg"
   xmlns="http://www.w3.org/2000/svg"
   xmlns:xlink="http://www.w3.org/1999/xlink"
   xmlns:sodipodi="http://sodipodi.sourceforge.net/DTD/sodipodi-0.dtd"
   xmlns:inkscape="http://www.inkscape.org/namespaces/inkscape"
   version="1.0"
   width="96"
   height="96"
   id="svg2408"
   inkscape:version="0.48.2 r9819"
   sodipodi:docname="folder-development.svg">
  <metadata
     id="metadata72">
    <rdf:RDF>
      <cc:Work
         rdf:about="">
        <dc:format>image/svg+xml</dc:format>
        <dc:type
           rdf:resource="http://purl.org/dc/dcmitype/StillImage" />
        <dc:title />
      </cc:Work>
    </rdf:RDF>
  </metadata>
  <sodipodi:namedview
     pagecolor="#ffffff"
     bordercolor="#666666"
     borderopacity="1"
     objecttolerance="10"
     gridtolerance="10"
     guidetolerance="10"
     inkscape:pageopacity="0"
     inkscape:pageshadow="2"
     inkscape:window-width="1238"
     inkscape:window-height="735"
     id="namedview70"
     showgrid="false"
     inkscape:zoom="2.0926866"
     inkscape:cx="93.540385"
     inkscape:cy="58.389134"
     inkscape:window-x="10"
     inkscape:window-y="0"
     inkscape:window-maximized="0"
     inkscape:current-layer="svg2408"
     inkscape:object-paths="true"
     inkscape:snap-intersection-paths="true"
     inkscape:object-nodes="true"
     inkscape:snap-smooth-nodes="true"
     inkscape:snap-midpoints="true"
     inkscape:snap-object-midpoints="true"
     inkscape:snap-center="true"
     inkscape:snap-bbox="true"
     inkscape:bbox-paths="true"
     inkscape:bbox-nodes="true"
     inkscape:snap-bbox-edge-midpoints="true"
     inkscape:snap-bbox-midpoints="true"
     showguides="true"
     inkscape:guide-bbox="true"
     inkscape:snap-global="true" />
  <defs
     id="defs2410">
    <linearGradient
       inkscape:collect="always"
       id="linearGradient3874">
      <stop
         style="stop-color:#000000;stop-opacity:1;"
         offset="0"
         id="stop3876" />
      <stop
         style="stop-color:#000000;stop-opacity:0;"
         offset="1"
         id="stop3878" />
    </linearGradient>
    <linearGradient
       id="linearGradient4091">
      <stop
         style="stop-color:#ffffff;stop-opacity:1;"
         offset="0"
         id="stop4093" />
      <stop
         id="stop4099"
         offset="0.80000001"
         style="stop-color:#ffffff;stop-opacity:1;" />
      <stop
         style="stop-color:#ffffff;stop-opacity:0;"
         offset="1"
         id="stop4095" />
    </linearGradient>
    <linearGradient
       id="linearGradient4188">
      <stop
         style="stop-color:#ffffff;stop-opacity:0;"
         offset="0"
         id="stop4190" />
      <stop
         id="stop4198"
         offset="0.15000001"
         style="stop-color:#ffffff;stop-opacity:1;" />
      <stop
         id="stop4196"
         offset="0.85000002"
         style="stop-color:#ffffff;stop-opacity:1;" />
      <stop
         style="stop-color:#ffffff;stop-opacity:0;"
         offset="1"
         id="stop4192" />
    </linearGradient>
    <linearGradient
       inkscape:collect="always"
       id="linearGradient3888">
      <stop
         style="stop-color:#ffffff;stop-opacity:1;"
         offset="0"
         id="stop3890" />
      <stop
         style="stop-color:#ffffff;stop-opacity:0;"
         offset="1"
         id="stop3892" />
    </linearGradient>
    <linearGradient
       x1="45.447727"
       y1="92.539597"
       x2="45.447727"
       y2="7.0165396"
       id="ButtonShadow"
       gradientUnits="userSpaceOnUse"
       gradientTransform="scale(1.0058652,0.994169)">
      <stop
         id="stop3750"
         style="stop-color:#000000;stop-opacity:1"
         offset="0" />
      <stop
         id="stop3752"
         style="stop-color:#000000;stop-opacity:0.58823532"
         offset="1" />
    </linearGradient>
    <filter
       color-interpolation-filters="sRGB"
       id="filter3174">
      <feGaussianBlur
         id="feGaussianBlur3176"
         stdDeviation="1.71" />
    </filter>
    <linearGradient
       inkscape:collect="always"
       xlink:href="#gradient4-1"
       id="linearGradient3050-6"
       gradientUnits="userSpaceOnUse"
       spreadMethod="pad"
       x1="32.251045"
       y1="6.1317058"
       x2="32.251045"
       y2="90.238678"
       gradientTransform="translate(6,-89.50005)" />
    <linearGradient
       id="gradient4-1"
       gradientUnits="userSpaceOnUse"
       x1="32.251045"
       y1="6.1317058"
       x2="32.251045"
       y2="90.238678"
       spreadMethod="pad">
      <stop
         stop-color="#000000"
         offset="0.00000000000"
         stop-opacity="1.00000000000"
         id="stop27-0" />
      <stop
         stop-color="#000000"
         offset="1.00000000000"
         stop-opacity="0.58823529412"
         id="stop29-6" />
    </linearGradient>
    <linearGradient
       inkscape:collect="always"
       xlink:href="#gradient3-2"
       id="linearGradient3053-3"
       gradientUnits="userSpaceOnUse"
       gradientTransform="matrix(1.0058652,0,0,0.99416905,5,-90.50005)"
       spreadMethod="pad"
       x1="32.062981"
       y1="6.1676679"
       x2="32.062981"
       y2="90.767815" />
    <linearGradient
       id="gradient3-2"
       gradientTransform="scale(1.0058652,0.99416905)"
       gradientUnits="userSpaceOnUse"
       x1="32.062981"
       y1="6.1676679"
       x2="32.062981"
       y2="90.767815"
       spreadMethod="pad">
      <stop
         stop-color="#000000"
         offset="0.00000000000"
         stop-opacity="1.00000000000"
         id="stop22-0" />
      <stop
         stop-color="#000000"
         offset="1.00000000000"
         stop-opacity="0.58823529412"
         id="stop24-6" />
    </linearGradient>
    <linearGradient
       inkscape:collect="always"
       xlink:href="#gradient2-5"
       id="linearGradient3056-1"
       gradientUnits="userSpaceOnUse"
       gradientTransform="matrix(1.0057307,0,0,-0.99430195,4,91.50005)"
       spreadMethod="pad"
       x1="32.067265"
       y1="6.1668468"
       x2="32.067265"
       y2="90.756142" />
    <linearGradient
       id="gradient2-5"
       gradientTransform="scale(1.0057307,0.99430195)"
       gradientUnits="userSpaceOnUse"
       x1="32.067265"
       y1="6.1668468"
       x2="32.067265"
       y2="90.756142"
       spreadMethod="pad">
      <stop
         stop-color="#000000"
         offset="0.00000000000"
         stop-opacity="1.00000000000"
         id="stop17-5" />
      <stop
         stop-color="#000000"
         offset="1.00000000000"
         stop-opacity="0.58823529412"
         id="stop19-4" />
    </linearGradient>
    <linearGradient
       inkscape:collect="always"
       xlink:href="#gradient1-6"
       id="linearGradient3059-7"
       gradientUnits="userSpaceOnUse"
       gradientTransform="matrix(1.0055984,0,0,-0.9944328,2.96875,92.53125)"
       spreadMethod="pad"
       x1="32.071472"
       y1="6.1660314"
       x2="32.071472"
       y2="90.744209" />
    <linearGradient
       id="gradient1-6"
       gradientTransform="scale(1.0055984,0.9944328)"
       gradientUnits="userSpaceOnUse"
       x1="32.071472"
       y1="6.1660314"
       x2="32.071472"
       y2="90.744209"
       spreadMethod="pad">
      <stop
         stop-color="#000000"
         offset="0.00000000000"
         stop-opacity="1.00000000000"
         id="stop12-5" />
      <stop
         stop-color="#000000"
         offset="1.00000000000"
         stop-opacity="0.58823529412"
         id="stop14-6" />
    </linearGradient>
    <linearGradient
       id="gradient0-3"
       gradientTransform="scale(1.0054757,0.99455408)"
       gradientUnits="userSpaceOnUse"
       x1="32.07542"
       y1="6.1652875"
       x2="32.07542"
       y2="90.732689"
       spreadMethod="pad">
      <stop
         stop-color="#000000"
         offset="0.00000000000"
         stop-opacity="1.00000000000"
         id="stop7-7" />
      <stop
         stop-color="#000000"
         offset="1.00000000000"
         stop-opacity="0.58823529412"
         id="stop9-4" />
    </linearGradient>
    <linearGradient
       y2="90.732689"
       x2="32.07542"
       y1="6.1652875"
       x1="32.07542"
       spreadMethod="pad"
       gradientTransform="matrix(1.0054757,0,0,-0.99455408,1.96875,93.53125)"
       gradientUnits="userSpaceOnUse"
       id="linearGradient3216"
       xlink:href="#gradient0-3"
       inkscape:collect="always" />
    <linearGradient
       id="linearGradient3832">
      <stop
         style="stop-color:#000000;stop-opacity:1;"
         offset="0"
         id="stop3834" />
      <stop
         id="stop3842"
         offset="0.05"
         style="stop-color:#ffffff;stop-opacity:1;" />
      <stop
         style="stop-color:#000000;stop-opacity:1;"
         offset="0.1"
         id="stop3846" />
      <stop
         id="stop3840"
         offset="0.5"
         style="stop-color:#000000;stop-opacity:0.49803922;" />
      <stop
         style="stop-color:#000000;stop-opacity:1;"
         offset="0.89999998"
         id="stop3844" />
      <stop
         id="stop3848"
         offset="0.94999999"
         style="stop-color:#ffffff;stop-opacity:1;" />
      <stop
         style="stop-color:#000000;stop-opacity:1;"
         offset="1"
         id="stop3836" />
    </linearGradient>
    <linearGradient
       inkscape:collect="always"
       xlink:href="#linearGradient4144-8"
       id="linearGradient4025"
       gradientUnits="userSpaceOnUse"
       x1="72.875"
       y1="68.71875"
       x2="72.875"
       y2="77.34375" />
    <linearGradient
       id="linearGradient4144-8">
      <stop
         style="stop-color:#dddddd;stop-opacity:1;"
         offset="0"
         id="stop4146-4" />
      <stop
         id="stop4152-5"
         offset="0.64999998"
         style="stop-color:#989898;stop-opacity:1;" />
      <stop
         style="stop-color:#eaeaea;stop-opacity:1;"
         offset="1"
         id="stop4148-0" />
    </linearGradient>
    <linearGradient
       inkscape:collect="always"
       xlink:href="#linearGradient3888"
       id="linearGradient3205"
       gradientUnits="userSpaceOnUse"
       x1="-56.230446"
       y1="5.5"
       x2="-56.230446"
       y2="69.53125" />
    <linearGradient
       inkscape:collect="always"
       xlink:href="#linearGradient4188"
       id="linearGradient3207"
       gradientUnits="userSpaceOnUse"
       gradientTransform="translate(-200,0)"
       x1="106"
       y1="77.51565"
       x2="180"
       y2="77.51565" />
    <linearGradient
       inkscape:collect="always"
       xlink:href="#linearGradient3832"
       id="linearGradient3209"
       gradientUnits="userSpaceOnUse"
       gradientTransform="translate(0,-0.9843498)"
       x1="-94"
       y1="82.984398"
       x2="-10.187523"
       y2="82.984398" />
    <radialGradient
       inkscape:collect="always"
       xlink:href="#linearGradient4091"
       id="radialGradient3211"
       gradientUnits="userSpaceOnUse"
       gradientTransform="matrix(-1.0721726,0,0,-0.87502024,-0.53571,-19.125546)"
       cx="48"
       cy="-27"
       fx="48"
       fy="-27"
       r="42" />
    <linearGradient
       inkscape:collect="always"
       xlink:href="#linearGradient3832"
       id="linearGradient3213"
       gradientUnits="userSpaceOnUse"
       gradientTransform="translate(0,-0.9843498)"
       x1="-94"
       y1="82.984398"
       x2="-20"
       y2="82.984398" />
    <linearGradient
       inkscape:collect="always"
       xlink:href="#linearGradient3874"
       id="linearGradient3215"
       gradientUnits="userSpaceOnUse"
       gradientTransform="translate(-100,0)"
       x1="70.030853"
       y1="82"
       x2="89.473785"
       y2="82" />
    <linearGradient
       inkscape:collect="always"
       xlink:href="#linearGradient4188-5"
       id="linearGradient4863"
       gradientUnits="userSpaceOnUse"
       x1="112.09375"
       y1="76.609375"
       x2="183.90625"
       y2="76.609375" />
    <linearGradient
       id="linearGradient4188-5">
      <stop
         style="stop-color:#ffffff;stop-opacity:0;"
         offset="0"
         id="stop4190-0" />
      <stop
         id="stop4198-3"
         offset="0.15000001"
         style="stop-color:#ffffff;stop-opacity:1;" />
      <stop
         id="stop4196-6"
         offset="0.85000002"
         style="stop-color:#ffffff;stop-opacity:1;" />
      <stop
         style="stop-color:#ffffff;stop-opacity:0;"
         offset="1"
         id="stop4192-1" />
    </linearGradient>
    <linearGradient
       inkscape:collect="always"
       xlink:href="#linearGradient3888"
       id="linearGradient3117"
       gradientUnits="userSpaceOnUse"
       x1="-56.230446"
       y1="5.5"
       x2="-56.230446"
       y2="69.53125" />
    <linearGradient
       inkscape:collect="always"
       xlink:href="#linearGradient4188"
       id="linearGradient3119"
       gradientUnits="userSpaceOnUse"
       gradientTransform="translate(-200,0)"
       x1="106"
       y1="77.51565"
       x2="180"
       y2="77.51565" />
    <linearGradient
       inkscape:collect="always"
       xlink:href="#linearGradient3832"
       id="linearGradient3121"
       gradientUnits="userSpaceOnUse"
       gradientTransform="translate(0,-0.9843498)"
       x1="-94"
       y1="82.984398"
       x2="-10.187523"
       y2="82.984398" />
    <radialGradient
       inkscape:collect="always"
       xlink:href="#linearGradient4091"
       id="radialGradient3123"
       gradientUnits="userSpaceOnUse"
       gradientTransform="matrix(-1.0721726,0,0,-0.87502024,-0.53571,-19.125546)"
       cx="48"
       cy="-27"
       fx="48"
       fy="-27"
       r="42" />
    <linearGradient
       inkscape:collect="always"
       xlink:href="#linearGradient3832"
       id="linearGradient3125"
       gradientUnits="userSpaceOnUse"
       gradientTransform="translate(0,-0.9843498)"
       x1="-94"
       y1="82.984398"
       x2="-20"
       y2="82.984398" />
    <linearGradient
       inkscape:collect="always"
       xlink:href="#linearGradient3874"
       id="linearGradient3127"
       gradientUnits="userSpaceOnUse"
       gradientTransform="translate(-100,0)"
       x1="70.030853"
       y1="82"
       x2="89.473785"
       y2="82" />
    <linearGradient
       inkscape:collect="always"
       xlink:href="#linearGradient3874"
       id="linearGradient3131"
       gradientUnits="userSpaceOnUse"
       gradientTransform="translate(100,0)"
       x1="70.030853"
       y1="82"
       x2="89.473785"
       y2="82" />
    <linearGradient
       inkscape:collect="always"
       xlink:href="#linearGradient3832"
       id="linearGradient3134"
       gradientUnits="userSpaceOnUse"
       gradientTransform="translate(200,-0.9843498)"
       x1="-94"
       y1="82.984398"
       x2="-20"
       y2="82.984398" />
    <radialGradient
       inkscape:collect="always"
       xlink:href="#linearGradient4091"
       id="radialGradient3139"
       gradientUnits="userSpaceOnUse"
       gradientTransform="matrix(-1.0721726,0,0,-0.87502024,199.46429,-19.125546)"
       cx="48"
       cy="-27"
       fx="48"
       fy="-27"
       r="42" />
    <linearGradient
       inkscape:collect="always"
       xlink:href="#linearGradient3832"
       id="linearGradient3143"
       gradientUnits="userSpaceOnUse"
       gradientTransform="translate(200,-0.9843498)"
       x1="-94"
       y1="82.984398"
       x2="-10.187523"
       y2="82.984398" />
    <linearGradient
       inkscape:collect="always"
       xlink:href="#linearGradient4188"
       id="linearGradient3151"
       gradientUnits="userSpaceOnUse"
       x1="106"
       y1="77.51565"
       x2="180"
       y2="77.51565" />
    <linearGradient
       inkscape:collect="always"
       xlink:href="#linearGradient3888"
       id="linearGradient3154"
       gradientUnits="userSpaceOnUse"
       x1="-56.230446"
       y1="5.5"
       x2="-56.230446"
       y2="69.53125"
       gradientTransform="translate(200,0)" />
    <linearGradient
       inkscape:collect="always"
       xlink:href="#linearGradient3888"
       id="linearGradient3173"
       gradientUnits="userSpaceOnUse"
       gradientTransform="translate(200,0)"
       x1="-56.230446"
       y1="5.5"
       x2="-56.230446"
       y2="69.53125" />
    <linearGradient
       inkscape:collect="always"
       xlink:href="#linearGradient4188"
       id="linearGradient3175"
       gradientUnits="userSpaceOnUse"
       x1="106"
       y1="77.51565"
       x2="180"
       y2="77.51565" />
    <linearGradient
       inkscape:collect="always"
       xlink:href="#linearGradient3832"
       id="linearGradient3177"
       gradientUnits="userSpaceOnUse"
       gradientTransform="translate(200,-0.9843498)"
       x1="-94"
       y1="82.984398"
       x2="-10.187523"
       y2="82.984398" />
    <radialGradient
       inkscape:collect="always"
       xlink:href="#linearGradient4091"
       id="radialGradient3179"
       gradientUnits="userSpaceOnUse"
       gradientTransform="matrix(-1.0721726,0,0,-0.87502024,199.46429,-19.125546)"
       cx="48"
       cy="-27"
       fx="48"
       fy="-27"
       r="42" />
    <linearGradient
       inkscape:collect="always"
       xlink:href="#linearGradient3832"
       id="linearGradient3181"
       gradientUnits="userSpaceOnUse"
       gradientTransform="translate(200,-0.9843498)"
       x1="-94"
       y1="82.984398"
       x2="-20"
       y2="82.984398" />
    <linearGradient
       inkscape:collect="always"
       xlink:href="#linearGradient3874"
       id="linearGradient3183"
       gradientUnits="userSpaceOnUse"
       gradientTransform="translate(100,0)"
       x1="70.030853"
       y1="82"
       x2="89.473785"
       y2="82" />
  </defs>
  <g
     id="layer2"
     style="display:none">
    <rect
       width="86"
       height="85"
       rx="6"
       ry="6"
       x="5"
       y="7"
       id="rect3745"
       style="opacity:0.9;fill:url(#ButtonShadow);fill-opacity:1;fill-rule:nonzero;stroke:none;filter:url(#filter3174)" />
  </g>
  <g
     id="g3943">
    <path
       id="path3786-4"
       d="m 11.99995,93.53125 c -5.51104,0 -10.0312,-4.52016 -10.0312,-10.0312 l 0,-71 c 0,-5.5111 4.52016,-10.0313 10.0312,-10.0313 l 72,0 c 5.5111,0 10.0313,4.5202 10.0313,10.0313 l 0,71 c 0,5.51104 -4.5202,10.0312 -10.0313,10.0312 z"
       style="opacity:0.07999998;fill:url(#linearGradient3216)"
       inkscape:connector-curvature="0" />
    <path
       id="path3778-5"
       d="m 12,92.53125 c -4.97163,0 -9.03125,-4.05962 -9.03125,-9.03125 l 0,-70.99995 c 0,-4.9717 4.05962,-9.0313 9.03125,-9.0313 l 71.99995,0 c 4.9717,0 9.0313,4.0596 9.0313,9.0313 l 0,70.99995 c 0,4.97163 -4.0596,9.03125 -9.0313,9.03125 z"
       style="opacity:0.1;fill:url(#linearGradient3059-7)"
       inkscape:connector-curvature="0" />
    <path
       id="path3770-2"
       d="m 12,91.50005 c -4.40913,0 -8,-3.59087 -8,-8 l 0,-71 c 0,-4.4091 3.59087,-8 8,-8 l 72,0 c 4.4091,0 8,3.5909 8,8 l 0,71 c 0,4.40913 -3.5909,8 -8,8 z"
       style="opacity:0.2;fill:url(#linearGradient3056-1)"
       inkscape:connector-curvature="0" />
    <rect
       id="rect3723-5"
       transform="scale(1,-1)"
       width="86"
       height="85"
       rx="7"
       ry="7"
       style="opacity:0.3;fill:url(#linearGradient3053-3)"
       x="5"
       y="-90.500046" />
    <rect
       id="rect3716-4"
       transform="scale(1,-1)"
       width="84"
       height="84"
       rx="6"
       ry="6"
       style="opacity:0.4;fill:url(#linearGradient3050-6)"
       x="6"
       y="-89.500046" />
  </g>
  <path
     style="fill:#202020;fill-opacity:1;fill-rule:nonzero;stroke:none;display:inline"
     d="m 84,4.5000496 -72,0 c -3.324,0 -6,2.676 -6,6.0000004 l 0,72 c 0,3.324 2.676,6 6,6 l 72,0 c 3.324,0 6,-2.676 6,-6 l 0,-72 C 90,7.1760496 87.324,4.5000496 84,4.5000496 z"
     id="rect2419-1"
     inkscape:connector-curvature="0" />
  <g
     id="g4855"
     transform="translate(-98,0)">
    <path
       sodipodi:nodetypes="sssssssss"
       inkscape:connector-curvature="0"
       id="path4843"
       d="m 117.21875,8.59375 c -3.921,0 -7.125,3.203999 -7.125,7.125 l 0,60.5625 c 0,3.921001 3.204,7.125 7.125,7.125 l 61.5625,0 c 3.921,0 7.125,-3.203999 7.125,-7.125 l 0,-60.5625 c 0,-3.921001 -3.204,-7.125 -7.125,-7.125 z"
       style="font-size:medium;font-style:normal;font-variant:normal;font-weight:normal;font-stretch:normal;text-indent:0;text-align:start;text-decoration:none;line-height:normal;letter-spacing:normal;word-spacing:normal;text-transform:none;direction:ltr;block-progression:tb;writing-mode:lr-tb;text-anchor:start;baseline-shift:baseline;opacity:0.1;color:#000000;fill:#000000;fill-opacity:1;fill-rule:nonzero;stroke:none;stroke-width:2;marker:none;visibility:visible;display:inline;overflow:visible;enable-background:accumulate;font-family:Sans;-inkscape-font-specification:Sans" />
    <path
       style="font-size:medium;font-style:normal;font-variant:normal;font-weight:normal;font-stretch:normal;text-indent:0;text-align:start;text-decoration:none;line-height:normal;letter-spacing:normal;word-spacing:normal;text-transform:none;direction:ltr;block-progression:tb;writing-mode:lr-tb;text-anchor:start;baseline-shift:baseline;opacity:0.2;color:#000000;fill:#000000;fill-opacity:1;fill-rule:nonzero;stroke:none;stroke-width:2;marker:none;visibility:visible;display:inline;overflow:visible;enable-background:accumulate;font-family:Sans;-inkscape-font-specification:Sans"
       d="m 117.21875,8.59375 c -3.37935,0 -6.125,2.745652 -6.125,6.125 l 0,61.5625 c 0,3.379348 2.74565,6.125 6.125,6.125 l 61.5625,0 c 3.37935,0 6.125,-2.745652 6.125,-6.125 l 0,-61.5625 c 0,-3.379348 -2.74565,-6.125 -6.125,-6.125 z"
       id="path4849"
       inkscape:connector-curvature="0"
       sodipodi:nodetypes="sssssssss" />
    <path
       style="fill:#ececec;fill-opacity:1;fill-rule:nonzero;stroke:none;display:inline"
       d="m 178.78677,9.582146 -61.57354,0 c -2.84265,0 -5.13113,2.288484 -5.13113,5.13113 l 0,61.573548 c 0,2.842646 2.28848,5.13113 5.13113,5.13113 l 61.57354,0 c 2.84265,0 5.13113,-2.288484 5.13113,-5.13113 l 0,-61.573548 c 0,-2.842646 -2.28848,-5.13113 -5.13113,-5.13113 z"
       id="path4710"
       inkscape:connector-curvature="0" />
    <path
       inkscape:connector-curvature="0"
       id="path4810"
       d="m 112.09375,74.8125 0,1.46875 c 0,2.842646 2.28235,5.125 5.125,5.125 l 61.5625,0 c 2.84265,0 5.125,-2.282354 5.125,-5.125 l 0,-1.46875 c -0.26183,2.593688 -2.46002,4.59375 -5.125,4.59375 l -61.5625,0 c -2.66498,0 -4.86317,-2.000062 -5.125,-4.59375 z"
       style="opacity:0.1;fill:#000000;fill-opacity:1;fill-rule:nonzero;stroke:none;display:inline" />
    <path
       inkscape:connector-curvature="0"
       id="path4815"
       d="m 112.09375,73.8125 0,1 c 0.26183,2.593688 2.46002,4.59375 5.125,4.59375 l 61.5625,0 c 2.66498,0 4.86317,-2.000062 5.125,-4.59375 l 0,-1 c -0.26183,2.593688 -2.46002,4.59375 -5.125,4.59375 l -61.5625,0 c -2.66498,0 -4.86317,-2.000062 -5.125,-4.59375 z"
       style="opacity:0.4;fill:url(#linearGradient4863);fill-opacity:1;fill-rule:nonzero;stroke:none;display:inline" />
    <path
       inkscape:connector-curvature="0"
       id="path4820"
       d="m 116.6875,9.59375 c -2.59369,0.2618304 -4.59375,2.460019 -4.59375,5.125 l 0,0.46875 c 0.26183,-2.593688 2.46002,-4.59375 5.125,-4.59375 l 61.5625,0 c 2.66498,0 4.86317,2.000062 5.125,4.59375 l 0,-0.46875 c 0,-2.842646 -2.28235,-5.125 -5.125,-5.125 l -61.5625,0 c -0.17767,0 -0.35834,-0.017455 -0.53125,0 z"
       style="opacity:0.5;fill:#ffffff;fill-opacity:1;fill-rule:nonzero;stroke:none;display:inline" />
  </g>
  <path
     style="fill:#333333;fill-opacity:1;fill-rule:nonzero;stroke:none;display:inline"
     d="m 12,4.5 c -3.324,0 -6,2.6759996 -6,6 l 0,70 c 0,3.324 2.676,6 6,6 l 62,0 c 3.324,0 6,-2.676 6,-6 l 0,-38.1875 6.875,-4.125 C 88.74566,37.173813 90,35.1915 90,32.90625 L 90,10.5 c 0,-3.3240004 -2.676,-6 -6,-6 z"
     id="path3262"
     inkscape:connector-curvature="0"
     sodipodi:nodetypes="ssssssccssss" />
  <g
     id="g4031">
    <rect
       y="10"
       x="9"
       height="65"
       width="1"
       id="rect4494"
       style="opacity:0.15;color:#000000;fill:#ffffff;fill-opacity:1;fill-rule:nonzero;stroke:none;stroke-width:5;marker:none;visibility:visible;display:inline;overflow:visible;enable-background:accumulate" />
    <rect
       style="opacity:0.25;color:#000000;fill:#000000;fill-opacity:1;fill-rule:nonzero;stroke:none;stroke-width:5;marker:none;visibility:visible;display:inline;overflow:visible;enable-background:accumulate"
       id="rect4496"
       width="1"
       height="65"
       x="10"
       y="10" />
    <rect
       style="opacity:0.15;color:#000000;fill:#ffffff;fill-opacity:1;fill-rule:nonzero;stroke:none;stroke-width:5;marker:none;visibility:visible;display:inline;overflow:visible;enable-background:accumulate"
       id="rect4498"
       width="1"
       height="65"
       x="13"
       y="10" />
    <rect
       y="10"
       x="14"
       height="65"
       width="1"
       id="rect4500"
       style="opacity:0.25;color:#000000;fill:#000000;fill-opacity:1;fill-rule:nonzero;stroke:none;stroke-width:5;marker:none;visibility:visible;display:inline;overflow:visible;enable-background:accumulate" />
    <path
       id="path4130"
       d="m 72.875,68.71875 c -2.51184,0 -4.5625,1.93878 -4.5625,4.3125 0,2.37372 2.05066,4.3125 4.5625,4.3125 2.51184,0 4.5625,-1.93878 4.5625,-4.3125 0,-2.37372 -2.05066,-4.3125 -4.5625,-4.3125 z m 0,1.34375 c 1.73733,0 3.15625,1.326959 3.15625,2.96875 0,1.641792 -1.41892,2.96875 -3.15625,2.96875 -1.73733,0 -3.15625,-1.326958 -3.15625,-2.96875 0,-1.641791 1.41892,-2.96875 3.15625,-2.96875 z"
       style="color:#000000;fill:url(#linearGradient4025);fill-opacity:1;fill-rule:nonzero;stroke:none;stroke-width:5;marker:none;visibility:visible;display:inline;overflow:visible;enable-background:accumulate"
       inkscape:connector-curvature="0" />
    <path
       id="path4132"
       d="m 72.875,70.0625 c -1.73733,0 -3.15625,1.326959 -3.15625,2.96875 0,0.55226 0.19112,1.056911 0.46875,1.5 0.54773,-0.874152 1.53457,-1.46875 2.6875,-1.46875 1.15293,0 2.13977,0.594598 2.6875,1.46875 0.27763,-0.443089 0.46875,-0.94774 0.46875,-1.5 0,-1.641791 -1.41892,-2.96875 -3.15625,-2.96875 z"
       style="opacity:0.8;color:#000000;fill:#000000;fill-opacity:1;fill-rule:nonzero;stroke:none;stroke-width:5;marker:none;visibility:visible;display:inline;overflow:visible;enable-background:accumulate"
       inkscape:connector-curvature="0" />
    <path
       inkscape:connector-curvature="0"
       id="path4154"
       d="m 72.875,68.71875 c -2.51184,0 -4.5625,1.93878 -4.5625,4.3125 0,0.08494 0.0261,0.166247 0.0313,0.25 0.13954,-2.256915 2.10928,-4.0625 4.53125,-4.0625 2.42197,0 4.39171,1.805585 4.53125,4.0625 0.005,-0.08375 0.0313,-0.165064 0.0313,-0.25 0,-2.37372 -2.05066,-4.3125 -4.5625,-4.3125 z m -3.125,4.5625 c -0.008,0.08469 -0.0313,0.163412 -0.0313,0.25 0,1.641792 1.41892,2.96875 3.15625,2.96875 1.73733,0 3.15625,-1.326958 3.15625,-2.96875 0,-0.08659 -0.0235,-0.165312 -0.0313,-0.25 C 75.86113,74.802331 74.5207,76 72.875,76 71.2293,76 69.88887,74.802331 69.75,73.28125 z"
       style="opacity:0.2;color:#000000;fill:#ffffff;fill-opacity:1;fill-rule:nonzero;stroke:none;stroke-width:5;marker:none;visibility:visible;display:inline;overflow:visible;enable-background:accumulate" />
    <path
       inkscape:connector-curvature="0"
       id="path4170"
       d="m 72.875,73.0625 c -1.15293,0 -2.13977,0.594598 -2.6875,1.46875 C 70.73523,75.405402 71.72207,76 72.875,76 74.02793,76 75.01477,75.405402 75.5625,74.53125 75.01477,73.657098 74.02793,73.0625 72.875,73.0625 z"
       style="opacity:0.7;color:#000000;fill:#000000;fill-opacity:1;fill-rule:nonzero;stroke:none;stroke-width:5;marker:none;visibility:visible;display:inline;overflow:visible;enable-background:accumulate" />
    <path
       inkscape:connector-curvature="0"
       id="path4175"
       d="m 72.875,69.5625 c -1.73733,0 -3.15625,1.326959 -3.15625,2.96875 0,0.08659 0.0235,0.165312 0.0313,0.25 0.13887,-1.52108 1.4793,-2.71875 3.125,-2.71875 1.6457,0 2.98613,1.19767 3.125,2.71875 0.008,-0.08469 0.0313,-0.163412 0.0313,-0.25 0,-1.641791 -1.41892,-2.96875 -3.15625,-2.96875 z m -4.53125,3.21875 c -0.005,0.08375 -0.0313,0.165064 -0.0313,0.25 0,2.37372 2.05066,4.3125 4.5625,4.3125 2.51184,0 4.5625,-1.93878 4.5625,-4.3125 0,-0.08494 -0.0261,-0.166247 -0.0313,-0.25 -0.13954,2.256915 -2.10928,4.0625 -4.53125,4.0625 -2.42197,0 -4.39171,-1.805585 -4.53125,-4.0625 z"
       style="opacity:0.2;color:#000000;fill:#000000;fill-opacity:1;fill-rule:nonzero;stroke:none;stroke-width:5;marker:none;visibility:visible;display:inline;overflow:visible;enable-background:accumulate" />
    <path
       id="path3825"
       d="M 80.875,8.59375 80.34375,9.9375 80,9 l 0,22.21875 0.34375,-0.9375 0.53125,1.34375 0.53125,-1.34375 0.53125,1.3125 0.5,-1.3125 0.5,1.3125 0.53125,-1.3125 L 84,31.625 84.5,30.28125 85.03125,31.625 85.5625,30.28125 86,31.40625 86,8.8125 85.5625,9.9375 85.03125,8.59375 84.5,9.9375 84,8.59375 83.46875,9.9375 82.9375,8.625 82.4375,9.9375 81.9375,8.625 81.40625,9.9375 80.875,8.59375 z"
       style="opacity:0.3;fill:#ffffff;fill-opacity:1;fill-rule:nonzero;stroke:none;display:inline"
       inkscape:connector-curvature="0" />
    <path
       inkscape:connector-curvature="0"
       id="path4207"
       d="M 80.875,8.59375 80.34375,9.9375 80,9 l 0,0.5 0.34375,0.9375 0.53125,-1.34375 0.53125,1.34375 0.53125,-1.3125 0.5,1.3125 0.5,-1.3125 0.53125,1.3125 L 84,9.09375 84.5,10.4375 85.03125,9.09375 85.5625,10.4375 86,9.3125 86,8.8125 85.5625,9.9375 85.03125,8.59375 84.5,9.9375 84,8.59375 83.46875,9.9375 82.9375,8.625 82.4375,9.9375 81.9375,8.625 81.40625,9.9375 80.875,8.59375 z"
       style="opacity:0.2;fill:#ffffff;fill-opacity:1;fill-rule:nonzero;stroke:none;display:inline" />
    <path
       inkscape:connector-curvature="0"
       id="path4212"
       d="M 80.34375,29.78125 80,30.71875 l 0,0.5 0.34375,-0.9375 0.53125,1.34375 0.53125,-1.34375 0.53125,1.3125 0.5,-1.3125 0.5,1.3125 0.53125,-1.3125 L 84,31.625 l 0.5,-1.34375 0.53125,1.34375 0.53125,-1.34375 0.4375,1.125 0,-0.5 -0.4375,-1.125 L 85.03125,31.125 84.5,29.78125 84,31.125 l -0.53125,-1.34375 -0.53125,1.3125 -0.5,-1.3125 -0.5,1.3125 -0.53125,-1.3125 L 80.875,31.125 80.34375,29.78125 z"
       style="opacity:0.15;fill:#000000;fill-opacity:1;fill-rule:nonzero;stroke:none;display:inline" />
  </g>
  <g
     id="g3910"
     transform="translate(-90,0)">
    <path
       sodipodi:nodetypes="scccccccccssscssscsccsssscssssccccccccccsscsccccccccccccsssccccscccsssccsccscccccccccccccccsscccccccsccc"
       inkscape:connector-curvature="0"
       id="path3876"
       d="m 136.125,20.53125 c -1.51919,-0.297115 -3.16959,0.101468 -4.40625,1.28125 -1.32449,1.263761 -1.75463,3.154117 -1.4375,4.9375 l -4.96875,0.0625 -6.125,0.03125 -0.40625,0 L 118.5,27.15625 118.15625,27.5 c -0.1654,0.170705 -0.18286,0.209411 -0.25,0.3125 -0.0671,0.103089 -0.13011,0.227493 -0.21875,0.375 -0.17727,0.295015 -0.42395,0.690843 -0.6875,1.15625 -0.52711,0.930814 -1.20535,2.161683 -1.90625,3.46875 -1.53744,2.867102 -2.28847,4.173563 -2.5625,5.3125 -0.13702,0.569468 -0.0964,1.22939 0.1875,1.6875 0.28388,0.45811 0.63183,0.698455 0.96875,1 0.55159,0.493676 0.98866,0.857562 1.59375,1.03125 0.30254,0.08684 0.68628,0.09985 1.03125,-0.03125 0.14138,-0.05373 0.20114,-0.165912 0.3125,-0.25 0.1438,0.06846 0.32986,0.132644 0.90625,0.4375 0.40311,0.213203 0.50018,0.29491 0.6875,0.40625 -0.0181,0.03352 -0.0117,0.05765 -0.0313,0.09375 -0.23159,0.426844 -0.55695,1.046182 -0.96875,1.78125 -0.8236,1.470135 -1.95161,3.442291 -3.1875,5.59375 -2.49671,4.346334 -3.71828,6.483976 -4.34375,7.625 -0.31273,0.570512 -0.47924,0.877421 -0.59375,1.15625 -0.11451,0.278829 -0.16,0.512963 -0.1875,0.65625 -0.0945,0.492613 -0.0529,1.133679 0.25,1.625 0.3029,0.491321 0.72228,0.841306 1.28125,1.25 0.65033,0.475492 1.14893,0.847918 1.875,0.90625 0.72607,0.05833 1.35417,-0.39884 1.78125,-0.84375 0.16769,-0.174693 0.21292,-0.227127 0.3125,-0.375 0.0996,-0.147873 0.20201,-0.337367 0.34375,-0.5625 0.28349,-0.450265 0.65965,-1.057502 1.09375,-1.78125 0.86824,-1.447496 1.983,-3.362403 3.1563,-5.40625 l 3.03125,-5.28125 0.15625,0.65625 0.75,2.90625 0,9.4375 0,0.40625 0.28125,0.28125 c 0.40834,0.404543 0.73652,0.469944 1.125,0.59375 0.38848,0.123806 0.80118,0.210284 1.21875,0.25 0.041,0.0039 0.0539,-0.0037 0.0937,0 0.85413,0.07977 1.49271,0.153089 2,0.125 0.41521,-0.02299 0.7775,-0.218078 1.125,-0.4375 l -0.34375,0.53125 1.84375,0 33.875,-0.0625 1.9375,0 -1.125,-1.59375 C 160.8343,56.098175 156.26866,50.170886 151.59375,44.75 L 151.375,44.46875 151,44.40625 c -2.82908,-0.437906 -5.83894,-0.423609 -8.65625,-0.03125 l -0.125,0.03125 -0.15625,0.0625 c -0.26819,0.12605 -0.31422,0.202547 -0.4375,0.3125 -0.12328,0.109953 -0.26455,0.260345 -0.40625,0.40625 -0.2834,0.291811 -0.6137,0.651097 -0.96875,1.0625 -0.53154,0.615911 -1.06361,1.312022 -1.5625,1.96875 -0.87377,-0.326255 -1.76746,-0.755599 -2.65625,-1.25 0.0415,-0.230597 0.0594,-0.421908 0.0625,-0.71875 0.004,-0.373818 -0.008,-0.868394 -0.0313,-1.53125 -0.0474,-1.325711 -0.14302,-3.328741 -0.3125,-6.28125 -0.12382,-2.15716 -0.2499,-4.146094 -0.34375,-5.625 -0.0469,-0.739453 -0.0626,-1.342253 -0.0937,-1.78125 -9e-4,-0.01273 8.9e-4,-0.01881 0,-0.03125 2.07634,-0.06875 3.88564,-1.299843 4.625,-3.25 0.53452,-1.409867 0.52819,-3.052854 -0.125,-4.375 -0.76702,-1.552581 -2.16831,-2.546635 -3.6875,-2.84375 z M 122.25,33.3125 c -0.005,0.01056 0.005,0.02058 0,0.03125 -0.30608,0.68986 -0.7177,1.614971 -1.15625,2.59375 -0.43711,0.975567 -0.82629,1.862062 -1.125,2.5 -0.0324,0.06911 -0.064,0.09318 -0.0937,0.15625 -0.16188,-0.08182 -0.29527,-0.160772 -0.46875,-0.25 -0.20536,-0.105627 -0.37619,-0.183403 -0.5625,-0.28125 0.0132,-0.02639 0.0174,-0.03506 0.0313,-0.0625 0.27612,-0.548724 0.68289,-1.299034 1.125,-2.125 l 1.34375,-2.53125 0.90625,-0.03125 z m 7.90625,8.375 c 0.008,0.13852 0.0238,0.233788 0.0313,0.375 0.04,0.75626 0.0389,1.35765 0.0625,1.9375 -0.0454,-0.02398 -0.0796,-0.03831 -0.125,-0.0625 -0.2784,-0.148468 -0.51527,-0.30481 -0.75,-0.4375 0.0257,-0.05747 0.0345,-0.09364 0.0625,-0.15625 0.19562,-0.437292 0.44434,-1.040513 0.71875,-1.65625 z m -1.90625,6 c 0.79198,0.373478 1.74634,0.830428 3.625,1.8125 1.3878,0.725477 2.63886,1.38916 3.5625,1.875 0.24896,0.130956 0.39927,0.209872 0.59375,0.3125 l -6.4375,10.15625 c 0.019,-0.140241 0.0527,-0.262754 0.0625,-0.4375 0.0393,-0.70333 0.008,-1.856611 0,-4.09375 l 0,-4.625 0,-0.15625 -0.0625,-0.125 -0.9375,-3.125 c -0.006,-0.02562 -0.0251,-0.037 -0.0313,-0.0625 -0.14291,-0.589249 -0.2612,-1.053244 -0.375,-1.53125 z"
       style="font-size:medium;font-style:normal;font-variant:normal;font-weight:normal;font-stretch:normal;text-indent:0;text-align:start;text-decoration:none;line-height:normal;letter-spacing:normal;word-spacing:normal;text-transform:none;direction:ltr;block-progression:tb;writing-mode:lr-tb;text-anchor:start;baseline-shift:baseline;opacity:0.2;color:#000000;fill:#000000;fill-opacity:1;fill-rule:nonzero;stroke:none;stroke-width:2;marker:none;visibility:visible;display:inline;overflow:visible;enable-background:accumulate;font-family:Sans;-inkscape-font-specification:Sans" />
    <path
       d="m 125.65526,62.389915 c -0.65134,-0.06195 -1.49068,-0.323804 -1.72415,-0.555104 l 0.007,-9.556283 -0.7709,-3.036344 -0.77089,-3.036347 -4.25631,7.414334 c -2.34096,4.077887 -4.48507,7.652655 -4.76467,7.943933 -0.70977,0.739401 -1.1223,0.706255 -2.34602,-0.188474 -1.04789,-0.766167 -1.28286,-1.1473 -1.14622,-1.859236 0.12313,-0.641473 0.0163,-0.446514 5.00986,-9.139441 2.4748,-4.308173 4.52599,-7.969582 4.5582,-8.136462 0.0501,-0.259623 -0.16152,-0.419821 -1.46633,-1.109937 -1.50673,-0.796914 -1.52736,-0.803031 -1.73204,-0.513595 -0.36357,0.514093 -0.88479,0.36448 -1.90205,-0.545974 -1.39597,-1.249389 -1.44435,-1.048344 1.63306,-6.787273 1.39533,-2.602078 2.69091,-4.889931 2.87906,-5.084117 l 0.34211,-0.353062 6.11253,-0.04098 6.11253,-0.04098 -0.20865,-0.665152 c -0.48604,-1.549448 0.008,-3.448466 1.19017,-4.576429 2.00626,-1.91399 5.22942,-1.278339 6.49362,1.280633 0.47653,0.964565 0.52253,2.510814 0.10729,3.606069 -0.62537,1.649501 -2.08213,2.650748 -3.85668,2.650748 -0.93443,0 -0.98093,0.01548 -0.91746,0.305297 0.0368,0.167913 0.26932,3.832399 0.51677,8.143306 0.33868,5.899967 0.41298,7.97677 0.30047,8.399196 -0.0822,0.308654 -0.12825,0.594632 -0.10234,0.635512 1.2934,0.730207 2.62176,1.480314 4.03035,1.902097 1.098,-1.542749 3.12036,-3.886103 3.51305,-4.070668 2.72645,-0.379705 5.6312,-0.401798 8.34859,0.01882 4.64879,5.390597 9.1905,11.310955 13.30952,17.128484 l -33.88267,0.06778 7.16009,-11.286296 c -0.0293,-0.02448 -2.32529,-1.232176 -5.10214,-2.683781 -4.51675,-2.361137 -5.4394,-2.766264 -5.42824,-2.383492 0.002,0.06069 0.34988,1.538599 0.77357,3.28423 l 0.97787,3.173878 0.0157,4.623884 c 0.0151,4.472841 0.006,4.633272 -0.27451,4.911278 -0.30851,0.30556 -0.93206,0.331838 -2.73957,0.159943 z m 5.5227,-20.385244 c -0.10354,-1.961429 -0.22761,-3.712584 -0.27574,-3.891458 -0.0679,-0.252414 -0.3874,0.348304 -1.42711,2.683284 -0.73678,1.654679 -1.36073,3.049431 -1.38655,3.099447 -0.05,0.09684 3.11845,1.786529 3.21854,1.716388 0.0325,-0.02278 -0.0255,-1.646235 -0.12914,-3.607661 z m -9.17042,-5.652521 c 0.87798,-1.959502 1.63964,-3.67617 1.6926,-3.814822 0.0893,-0.233727 -0.0154,-0.249164 -1.43707,-0.211838 l -1.53335,0.04026 -1.61959,3.02576 c -0.89077,1.664166 -1.59046,3.054608 -1.55486,3.089865 0.0908,0.08995 2.69765,1.430744 2.78466,1.432265 0.0392,6.71e-4 0.78964,-1.601985 1.66761,-3.561485 z"
       inkscape:connector-curvature="0"
       id="path3856"
       style="opacity:0.85;fill:#ffffff;fill-opacity:1;display:inline" />
    <path
       inkscape:connector-curvature="0"
       id="path4015"
       d="m 135.00166,21.40625 c -0.92712,0.03369 -1.8414,0.407254 -2.59375,1.125 -1.18217,1.127963 -1.67354,3.013052 -1.1875,4.5625 l 0.0625,0.21875 c 0.23089,-0.678362 0.61841,-1.297888 1.125,-1.78125 2.00626,-1.91399 5.23579,-1.277722 6.5,1.28125 0.0596,0.120571 0.1102,0.238269 0.15625,0.375 0.33707,-1.076465 0.29116,-2.469356 -0.15625,-3.375 -0.79013,-1.599357 -2.36105,-2.462397 -3.90625,-2.40625 z m -3.84375,6.34375 -5.84375,0.0625 -6.09375,0.03125 -0.34375,0.34375 c -0.18815,0.194185 -1.51092,2.491672 -2.90625,5.09375 -2.86347,5.339956 -2.99158,5.554384 -1.875,6.5625 0.41058,-0.83842 1.0108,-1.950883 1.875,-3.5625 1.39533,-2.602078 2.7181,-4.899565 2.90625,-5.09375 l 0.34375,-0.34375 6.09375,-0.03125 6.125,-0.0625 -0.21875,-0.65625 c -0.23367,-0.744926 -0.24945,-1.561753 -0.0625,-2.34375 z m 3.15625,5.34375 c -0.1205,0.0401 -0.0942,0.136342 -0.0625,0.28125 0.0368,0.167913 0.25255,3.814093 0.5,8.125 0.15072,2.62556 0.22841,4.260058 0.28125,5.5625 0.0155,-0.07085 0.0107,-0.07909 0.0313,-0.15625 0.1125,-0.422426 0.0262,-2.506282 -0.3125,-8.40625 -0.16467,-2.868771 -0.24558,-3.949954 -0.34375,-5.40625 -0.027,0.0048 -0.0739,-0.0066 -0.0937,0 z m -11.84375,2.21875 c -0.20948,0.469744 -0.23022,0.498882 -0.46875,1.03125 -0.87797,1.9595 -1.61705,3.563171 -1.65625,3.5625 -0.0505,-8.83e-4 -0.8614,-0.415712 -1.625,-0.8125 -0.48862,0.927923 -0.79761,1.564306 -0.96875,1.9375 0.0809,0.04266 0.12727,0.04537 0.21875,0.09375 1.30481,0.690117 1.51885,0.865377 1.46875,1.125 -0.001,0.0054 -0.0886,0.143807 -0.0937,0.15625 0.44444,0.224178 0.96893,0.499457 1,0.5 0.0392,6.71e-4 0.77828,-1.603 1.65625,-3.5625 0.87798,-1.959501 1.63454,-3.673848 1.6875,-3.8125 0.0816,-0.213787 -0.11644,-0.243554 -1.21875,-0.21875 z m -4.15625,9 c -0.83824,1.507322 -1.95569,3.537343 -3.40625,6.0625 -4.99356,8.692927 -4.90812,8.514777 -5.03125,9.15625 -0.11076,0.577108 0.0436,0.945089 0.65625,1.46875 0.60209,-1.102101 1.83436,-3.20218 4.375,-7.625 2.4748,-4.308172 4.49904,-7.95812 4.53125,-8.125 0.0433,-0.224381 -0.24057,-0.455379 -1.125,-0.9375 z m 10.8125,0.21875 c -0.4236,0.949488 -0.77642,1.814774 -0.875,2.03125 0.65051,0.299493 1.68413,0.816477 3.0625,1.53125 -0.006,-0.46416 -0.0347,-1.306603 -0.0937,-2.5 -0.1937,-0.03763 -1.23168,-0.585952 -2.09375,-1.0625 z m 17.5625,0.5625 c -1.40667,4.09e-4 -2.82428,0.0914 -4.1875,0.28125 -0.39269,0.184565 -2.43325,2.519752 -3.53125,4.0625 -1.36544,-0.408862 -2.65036,-1.135047 -3.90625,-1.84375 0.0509,1.37733 0.0576,2.096021 0,2.3125 -0.0166,0.06232 -0.0179,0.06636 -0.0313,0.125 0.84019,0.442173 2.39238,1.269663 2.40625,1.28125 l -0.25,0.40625 c 0.59119,0.282199 1.16297,0.533615 1.78125,0.71875 1.098,-1.542748 3.13856,-3.877935 3.53125,-4.0625 2.72644,-0.379706 5.62636,-0.389369 8.34375,0.03125 3.85287,4.467669 7.63016,9.289681 11.15625,14.125 l 2.15625,0 c -4.11902,-5.81753 -8.66371,-11.734404 -13.3125,-17.125 -1.3587,-0.210309 -2.74958,-0.312909 -4.15625,-0.3125 z m -19.75,4.03125 c -0.033,0.02094 -0.0327,0.07715 -0.0313,0.125 0.002,0.06069 0.35756,1.53562 0.78125,3.28125 l 0.96875,3.15625 0,-3 -0.96875,-3.15625 c -0.0285,-0.117624 -0.0347,-0.103909 -0.0625,-0.21875 -0.35153,-0.135542 -0.6113,-0.235888 -0.6875,-0.1875 z m 9.0625,4.4375 -5.71875,9.03125 1.90625,0 5.25,-8.28125 c -0.008,-0.0069 -1.1098,-0.576512 -1.4375,-0.75 z"
       style="opacity:0.1;fill:#000000;fill-opacity:1;display:inline" />
    <path
       inkscape:connector-curvature="0"
       id="path4024"
       d="m 135.00166,21.40625 c -0.92712,0.03369 -1.8414,0.407254 -2.59375,1.125 -1.11201,1.061018 -1.59873,2.788444 -1.25,4.28125 0.19584,-0.866436 0.62197,-1.68202 1.25,-2.28125 2.00626,-1.91399 5.23579,-1.277722 6.5,1.28125 0.13486,0.272975 0.21605,0.594756 0.28125,0.9375 0.19863,-0.998548 0.10636,-2.152909 -0.28125,-2.9375 -0.79013,-1.599357 -2.36105,-2.462397 -3.90625,-2.40625 z m -3.96875,6.34375 -5.71875,0.0625 -6.09375,0.03125 -0.34375,0.34375 c -0.18815,0.194185 -1.51092,2.491672 -2.90625,5.09375 -2.554,4.762841 -2.92291,5.445152 -2.1875,6.25 0.37751,-0.871358 1.06684,-2.160139 2.1875,-4.25 1.39533,-2.602078 2.7181,-4.899565 2.90625,-5.09375 l 0.34375,-0.34375 6.09375,-0.03125 6.125,-0.0625 -0.21875,-0.65625 c -0.13427,-0.428024 -0.19666,-0.885997 -0.1875,-1.34375 z m 3.28125,4.34375 c -0.1205,0.0401 -0.0942,0.136342 -0.0625,0.28125 0.0368,0.167913 0.25255,3.814093 0.5,8.125 0.16934,2.949984 0.26566,4.9405 0.3125,6.25 0.0847,-0.589368 0.006,-2.700427 -0.3125,-8.25 -0.19513,-3.399375 -0.31834,-5.208307 -0.40625,-6.40625 -0.007,0.002 -0.0246,-0.0022 -0.0313,0 z m -11.40625,2.25 c -0.31133,0.702227 -0.44388,0.96807 -0.90625,2 -0.87797,1.9595 -1.61705,3.563171 -1.65625,3.5625 -0.0633,-0.0011 -1.23978,-0.609834 -2.03125,-1.03125 -0.45824,0.888593 -0.77342,1.570551 -0.75,1.59375 0.0908,0.08995 2.69424,1.43598 2.78125,1.4375 0.0392,6.71e-4 0.77828,-1.603 1.65625,-3.5625 0.87798,-1.959501 1.63454,-3.673848 1.6875,-3.8125 0.0663,-0.173837 -0.17103,-0.187066 -0.78125,-0.1875 z m -4.1875,9.21875 c -0.72593,1.333872 -1.99008,3.639995 -3.8125,6.8125 -4.99356,8.692927 -4.90812,8.514777 -5.03125,9.15625 -0.0854,0.444962 -1.6e-4,0.763716 0.3125,1.125 0.38047,-0.784065 1.40883,-2.519249 4.71875,-8.28125 2.4748,-4.308172 4.49904,-7.95812 4.53125,-8.125 0.035,-0.181455 -0.2142,-0.388314 -0.71875,-0.6875 z m 10.0625,0.78125 c -0.25131,0.561775 -0.67458,1.537492 -0.6875,1.5625 -0.0499,0.09684 3.11867,1.788891 3.21875,1.71875 0.0223,-0.01561 -0.0142,-0.918929 -0.0625,-2.03125 -0.18021,-0.01805 -1.58454,-0.745664 -2.46875,-1.25 z m 17.90625,0.75 c -1.40667,4.09e-4 -2.82428,0.0914 -4.1875,0.28125 -0.39269,0.184565 -2.43325,2.519752 -3.53125,4.0625 -1.35234,-0.404939 -2.63051,-1.110462 -3.875,-1.8125 0.0105,0.660826 0.009,1.13166 -0.0313,1.28125 -0.0822,0.308654 -0.15091,0.58412 -0.125,0.625 1.29339,0.730207 2.62266,1.484467 4.03125,1.90625 1.098,-1.542748 3.13856,-3.877935 3.53125,-4.0625 2.72644,-0.379706 5.62636,-0.389369 8.34375,0.03125 4.11817,4.775311 8.14429,9.957993 11.875,15.125 l 1.4375,0 c -4.11902,-5.81753 -8.66371,-11.734404 -13.3125,-17.125 -1.3587,-0.210309 -2.74958,-0.312909 -4.15625,-0.3125 z m -19.75,3.03125 c -0.033,0.02094 -0.0326,0.07715 -0.0313,0.125 0.002,0.06069 0.35756,1.53562 0.78125,3.28125 l 0.96875,3.15625 0,-2 -0.96875,-3.15625 c -0.16948,-0.698251 -0.18457,-0.773487 -0.3125,-1.3125 -0.19375,-0.05893 -0.38177,-0.129135 -0.4375,-0.09375 z m 9.5625,4.6875 -6.21875,9.78125 1.28125,0 5.875,-9.28125 c -0.005,-0.0045 -0.78902,-0.420842 -0.9375,-0.5 z"
       style="opacity:0.2;fill:#000000;fill-opacity:1;display:inline" />
    <path
       inkscape:connector-curvature="0"
       id="path4033"
       d="m 135.00166,21.40625 c -0.92712,0.03369 -1.8414,0.407254 -2.59375,1.125 -0.97514,0.93043 -1.4689,2.368002 -1.34375,3.71875 0.1352,-1.023283 0.612,-2.020552 1.34375,-2.71875 2.00626,-1.91399 5.23579,-1.277722 6.5,1.28125 0.20641,0.417819 0.30139,0.947826 0.34375,1.5 0.094,-0.884122 -0.0132,-1.830971 -0.34375,-2.5 -0.79013,-1.599357 -2.36105,-2.462397 -3.90625,-2.40625 z m -3.84375,6.34375 -5.84375,0.0625 -6.09375,0.03125 -0.34375,0.34375 c -0.18815,0.194185 -1.51092,2.491672 -2.90625,5.09375 -2.24394,4.184636 -2.79679,5.204083 -2.40625,5.9375 0.24441,-0.83847 0.94929,-2.220475 2.40625,-4.9375 1.39533,-2.602078 2.7181,-4.899565 2.90625,-5.09375 l 0.34375,-0.34375 6.09375,-0.03125 6.125,-0.0625 -0.21875,-0.65625 c -0.035,-0.111482 -0.0376,-0.229066 -0.0625,-0.34375 z m 3.125,3.375 c -0.068,0.04423 -0.0577,0.129243 -0.0313,0.25 0.0368,0.167913 0.25255,3.814093 0.5,8.125 0.21522,3.749231 0.32215,5.844453 0.34375,7.0625 0.054,-0.776645 -0.0495,-2.936737 -0.34375,-8.0625 -0.22464,-3.913462 -0.40398,-6.659267 -0.46875,-7.375 z m -10.9375,2.21875 c -0.25728,0.588653 -0.65153,1.455078 -1.34375,3 -0.87797,1.9595 -1.61705,3.563171 -1.65625,3.5625 -0.0754,-0.0013 -1.82259,-0.922361 -2.40625,-1.25 -0.23266,0.467068 -0.39104,0.796617 -0.375,0.8125 0.0908,0.08995 2.69424,1.43598 2.78125,1.4375 0.0392,6.71e-4 0.77828,-1.603 1.65625,-3.5625 0.87798,-1.959501 1.63454,-3.673848 1.6875,-3.8125 0.0511,-0.133956 -0.0561,-0.165788 -0.34375,-0.1875 z m -4.1875,9.46875 c -0.40889,0.805606 -2.04926,3.731417 -4.25,7.5625 -4.99356,8.692927 -4.90812,8.514777 -5.03125,9.15625 -0.0559,0.29154 -0.0365,0.520251 0.0625,0.75 0.13031,-0.511269 0.59938,-1.299938 4.96875,-8.90625 2.4748,-4.308172 4.49904,-7.95812 4.53125,-8.125 0.0263,-0.136092 -0.0439,-0.2654 -0.28125,-0.4375 z m 9.28125,1.3125 c -0.0736,0.163646 -0.33729,0.768746 -0.34375,0.78125 -0.0499,0.09684 3.11867,1.788891 3.21875,1.71875 0.0149,-0.01042 -0.0126,-0.441125 -0.0313,-1 -0.13763,0.02404 -2.11026,-1.045174 -2.84375,-1.5 z m 18.25,0.96875 c -1.40667,4.09e-4 -2.82428,0.0914 -4.1875,0.28125 -0.39269,0.184565 -2.43325,2.519752 -3.53125,4.0625 -1.36544,-0.408862 -2.65036,-1.135047 -3.90625,-1.84375 -0.008,0.10049 0.0134,0.262325 0,0.3125 -0.0822,0.308654 -0.15091,0.58412 -0.125,0.625 1.29339,0.730207 2.62266,1.484467 4.03125,1.90625 1.098,-1.542748 3.13856,-3.877935 3.53125,-4.0625 2.72644,-0.379706 5.62636,-0.389369 8.34375,0.03125 4.38348,5.082954 8.66528,10.630354 12.59375,16.125 l 0.71875,0 c -4.11902,-5.81753 -8.66371,-11.734404 -13.3125,-17.125 -1.3587,-0.210309 -2.74958,-0.312909 -4.15625,-0.3125 z m -19.75,2.03125 c -0.033,0.02094 -0.0326,0.07715 -0.0313,0.125 0.002,0.06069 0.35756,1.53562 0.78125,3.28125 l 0.96875,3.15625 0,-1 -0.96875,-3.15625 c -0.3104,-1.27888 -0.43967,-1.86676 -0.5625,-2.40625 -0.0868,-0.01373 -0.15225,-0.02238 -0.1875,0 z m 10.03125,4.9375 -6.6875,10.53125 0.625,0 6.53125,-10.28125 c -0.003,-0.0023 -0.42888,-0.228344 -0.46875,-0.25 z"
       style="opacity:0.3;fill:#000000;fill-opacity:1;display:inline" />
    <path
       style="opacity:0.5;fill:#000000;fill-opacity:1;display:inline"
       d="m 135.00166,20.40625 c -0.92712,0.03369 -1.8414,0.407254 -2.59375,1.125 -0.97514,0.93043 -1.4689,2.368002 -1.34375,3.71875 0.1352,-1.023283 0.612,-2.020552 1.34375,-2.71875 2.00626,-1.91399 5.23579,-1.277722 6.5,1.28125 0.20641,0.417819 0.30139,0.947826 0.34375,1.5 0.094,-0.884122 -0.0132,-1.830971 -0.34375,-2.5 -0.79013,-1.599357 -2.36105,-2.462397 -3.90625,-2.40625 z m -3.84375,6.34375 -5.84375,0.0625 -6.09375,0.03125 -0.34375,0.34375 c -0.18815,0.194185 -1.51092,2.491672 -2.90625,5.09375 -2.24394,4.184636 -2.79679,5.204083 -2.40625,5.9375 0.24441,-0.83847 0.94929,-2.220475 2.40625,-4.9375 1.39533,-2.602078 2.7181,-4.899565 2.90625,-5.09375 l 0.34375,-0.34375 6.09375,-0.03125 6.125,-0.0625 -0.21875,-0.65625 c -0.035,-0.111482 -0.0376,-0.229066 -0.0625,-0.34375 z m 3.125,3.375 c -0.068,0.04423 -0.0577,0.129243 -0.0313,0.25 0.0368,0.167913 0.25255,3.814093 0.5,8.125 0.21522,3.749231 0.32215,5.844453 0.34375,7.0625 0.054,-0.776645 -0.0495,-2.936737 -0.34375,-8.0625 -0.22464,-3.913462 -0.40398,-6.659267 -0.46875,-7.375 z m -10.9375,2.21875 c -0.25728,0.588653 -0.65153,1.455078 -1.34375,3 -0.87797,1.9595 -1.61705,3.563171 -1.65625,3.5625 -0.0754,-0.0013 -1.82259,-0.922361 -2.40625,-1.25 -0.23266,0.467068 -0.39104,0.796617 -0.375,0.8125 0.0908,0.08995 2.69424,1.43598 2.78125,1.4375 0.0392,6.71e-4 0.77828,-1.603 1.65625,-3.5625 0.87798,-1.959501 1.63454,-3.673848 1.6875,-3.8125 0.0511,-0.133956 -0.0561,-0.165788 -0.34375,-0.1875 z m -4.1875,9.46875 c -0.40889,0.805606 -2.04926,3.731417 -4.25,7.5625 -4.99356,8.692927 -4.90812,8.514777 -5.03125,9.15625 -0.0559,0.29154 -0.0365,0.520251 0.0625,0.75 0.13031,-0.511269 0.59938,-1.299938 4.96875,-8.90625 2.4748,-4.308172 4.49904,-7.95812 4.53125,-8.125 0.0263,-0.136092 -0.0439,-0.2654 -0.28125,-0.4375 z m 9.28125,1.3125 c -0.0736,0.163646 -0.33729,0.768746 -0.34375,0.78125 -0.0499,0.09684 3.11867,1.788891 3.21875,1.71875 0.0149,-0.01042 -0.0126,-0.441125 -0.0313,-1 -0.13763,0.02404 -2.11026,-1.045174 -2.84375,-1.5 z m 18.25,0.96875 c -1.40667,4.09e-4 -2.82428,0.0914 -4.1875,0.28125 -0.39269,0.184565 -2.43325,2.519752 -3.53125,4.0625 -1.36544,-0.408862 -2.65036,-1.135047 -3.90625,-1.84375 -0.008,0.10049 0.0134,0.262325 0,0.3125 -0.0822,0.308654 -0.15091,0.58412 -0.125,0.625 1.29339,0.730207 2.62266,1.484467 4.03125,1.90625 1.098,-1.542748 3.13856,-3.877935 3.53125,-4.0625 2.72644,-0.379706 5.62636,-0.389369 8.34375,0.03125 4.38348,5.082954 8.66528,10.630354 12.59375,16.125 l 0.71875,0 c -4.11902,-5.81753 -8.66371,-11.734404 -13.3125,-17.125 -1.3587,-0.210309 -2.74958,-0.312909 -4.15625,-0.3125 z m -19.75,2.03125 c -0.033,0.02094 -0.0326,0.07715 -0.0313,0.125 0.002,0.06069 0.35756,1.53562 0.78125,3.28125 l 0.96875,3.15625 0,-1 -0.96875,-3.15625 c -0.3104,-1.27888 -0.43967,-1.86676 -0.5625,-2.40625 -0.0868,-0.01373 -0.15225,-0.02238 -0.1875,0 z m 10.03125,4.9375 -6.6875,10.53125 0.625,0 6.53125,-10.28125 c -0.003,-0.0023 -0.42888,-0.228344 -0.46875,-0.25 z"
       id="path4042"
       inkscape:connector-curvature="0" />
    <path
       inkscape:connector-curvature="0"
       id="path4044"
       d="m 131.06416,25.28125 c -0.063,0.501257 -0.0113,0.985703 0.0937,1.46875 l 0.28125,0 -0.21875,-0.65625 c -0.0821,-0.261757 -0.12867,-0.536192 -0.15625,-0.8125 z m 8.1875,0.03125 c -0.0415,0.390551 -0.12277,0.758172 -0.25,1.09375 -0.62536,1.649501 -2.0692,2.65625 -3.84375,2.65625 -0.93443,0 -0.96972,0.02268 -0.90625,0.3125 0.003,0.01548 0.0247,0.677312 0.0313,0.75 0.0952,-0.06192 0.32992,-0.0625 0.875,-0.0625 1.77455,0 3.21839,-1.006749 3.84375,-2.65625 0.23537,-0.620824 0.30543,-1.371191 0.25,-2.09375 z m -17,6 -1.53125,0.0625 -1.625,3.03125 c -0.89077,1.664166 -1.56685,3.027243 -1.53125,3.0625 0.0122,0.01203 0.28488,0.13691 0.375,0.1875 0.28379,-0.569719 0.66677,-1.335533 1.15625,-2.25 l 1.625,-3.03125 1.53125,-0.0625 c 0.60688,-0.01593 0.8795,0.01508 1.09375,0.03125 0.069,-0.157964 0.33255,-0.783164 0.34375,-0.8125 0.0892,-0.233728 -0.0158,-0.256075 -1.4375,-0.21875 z m 8.625,5.75 c -0.12085,-0.02219 -0.4965,0.675643 -1.40625,2.71875 -0.73678,1.654679 -1.34917,3.074984 -1.375,3.125 -0.009,0.01751 0.17958,0.116948 0.34375,0.21875 0.22092,-0.490938 0.47867,-1.102741 1.03125,-2.34375 1.03971,-2.33498 1.3696,-2.908664 1.4375,-2.65625 0.0481,0.178874 0.17771,1.913571 0.28125,3.875 0.0563,1.064706 0.0716,1.96143 0.0937,2.625 0.002,-3.45e-4 0.0301,8.13e-4 0.0313,0 0.0325,-0.02278 -0.0214,-1.663575 -0.125,-3.625 -0.10354,-1.961429 -0.23312,-3.696126 -0.28125,-3.875 -0.008,-0.03155 -0.014,-0.05933 -0.0313,-0.0625 z m -17.3125,1.15625 c -0.27184,0.932555 0.0462,1.185869 0.78125,1.84375 1.01726,0.910454 1.54268,1.076594 1.90625,0.5625 0.20468,-0.289436 0.21202,-0.296914 1.71875,0.5 0.62084,0.328364 0.97208,0.531284 1.1875,0.6875 0.0509,-0.100323 0.27768,-0.54402 0.28125,-0.5625 0.0501,-0.259623 -0.16394,-0.434883 -1.46875,-1.125 -1.50673,-0.796914 -1.51407,-0.789436 -1.71875,-0.5 -0.36357,0.514094 -0.88899,0.347954 -1.90625,-0.5625 -0.37808,-0.338375 -0.63619,-0.571337 -0.78125,-0.84375 z m 13.375,6.90625 c -0.033,0.02094 -0.0327,0.07715 -0.0313,0.125 5.3e-4,0.01623 0.17392,0.678104 0.21875,0.875 0.48167,0.07623 1.86996,0.749421 5.21875,2.5 2.52071,1.317706 4.2326,2.224384 4.625,2.4375 l 0.46875,-0.75 c -0.0293,-0.02448 -2.3169,-1.235895 -5.09375,-2.6875 -3.95217,-2.065995 -5.17537,-2.646602 -5.40625,-2.5 z m -4.53125,0.09375 -4.28125,7.40625 c -2.34096,4.077886 -4.47039,7.646224 -4.75,7.9375 -0.70976,0.739402 -1.12003,0.70723 -2.34375,-0.1875 -0.61878,-0.45242 -0.95102,-0.762452 -1.09375,-1.09375 -0.0186,0.07304 -0.0471,0.169816 -0.0625,0.25 -0.13664,0.711938 0.10836,1.077584 1.15625,1.84375 1.22372,0.89473 1.63399,0.926902 2.34375,0.1875 0.27961,-0.291276 2.40904,-3.859613 4.75,-7.9375 l 4.28125,-7.40625 0.75,3.03125 0.78125,3.03125 0,-1 -0.78125,-3.03125 -0.75,-3.03125 z m 12.6875,0.34375 c -0.008,0.117306 -0.0165,0.288319 -0.0313,0.34375 -0.0822,0.308654 -0.15091,0.58412 -0.125,0.625 0.0396,0.02237 0.0853,0.0401 0.125,0.0625 0.0165,-0.207917 0.0396,-0.560192 0.0313,-1.03125 z m -6.4375,14.78125 c -0.0354,0.633965 -0.10975,0.735997 -0.25,0.875 -0.30851,0.30556 -0.94248,0.328144 -2.75,0.15625 -0.65134,-0.06195 -1.48528,-0.29995 -1.71875,-0.53125 l 0,1 c 0.23347,0.2313 1.06741,0.469301 1.71875,0.53125 1.80752,0.171894 2.44149,0.14931 2.75,-0.15625 0.17504,-0.173484 0.22626,-0.71657 0.25,-1.875 z m 34.78125,1.1875 -32.53125,0.0625 -0.625,1 33.875,-0.0625 c -0.23507,-0.332008 -0.48098,-0.66744 -0.71875,-1 z"
       style="opacity:0.8;fill:#ffffff;fill-opacity:1;display:inline" />
  </g>
  <g
     id="g3156"
     transform="translate(-100,0)">
    <path
       inkscape:connector-curvature="0"
       id="path3157"
       d="m 112,5.5 c -2.7873,0 -5,2.2127028 -5,5 l 0,56.3125 c 1.07066,1.628779 2.89693,2.71875 5,2.71875 l 68,0 0,-25.21875 0,-5 0,-2 6.875,-4.125 c 0.86852,-0.47064 1.58604,-1.147137 2.125,-1.96875 L 189,10.5 c 0,-2.7872972 -2.2127,-5 -5,-5 l -72,0 z m 77,32.71875 c -0.13474,0.205403 -0.28087,0.407435 -0.4375,0.59375 0.16108,-0.189117 0.30071,-0.385228 0.4375,-0.59375 z"
       style="opacity:0.1;fill:url(#linearGradient3173);fill-opacity:1;fill-rule:nonzero;stroke:none;display:inline" />
    <path
       style="opacity:0.2;fill:url(#linearGradient3175);fill-opacity:1;fill-rule:nonzero;stroke:none"
       d="m 106,73.51565 0,2 c 0,3.324 2.676,6 6,6 l 62,0 c 3.324,0 6,-2.676 6,-6 l 0,-2 c 0,3.324 -2.676,6 -6,6 l -62,0 c -3.324,0 -6,-2.676 -6,-6 z"
       id="path3163"
       inkscape:connector-curvature="0"
       sodipodi:nodetypes="csssscssc" />
    <path
       id="path3167"
       d="m 190,29.90625 c 0,2.28525 -1.25434,4.267563 -3.125,5.28125 l -6.875,4.125 0,3 6.875,-4.125 C 188.74566,37.173813 190,35.1915 190,32.90625 l 0,-3 z"
       style="opacity:0.45;fill:#000000;fill-opacity:1;fill-rule:nonzero;stroke:none;display:inline"
       inkscape:connector-curvature="0" />
    <path
       inkscape:connector-curvature="0"
       id="path3169"
       d="m 190,27.90625 c 0,2.28525 -1.25434,4.267563 -3.125,5.28125 l -6.875,4.125 0,2 6.875,-4.125 C 188.74566,34.173813 190,32.1915 190,29.90625 l 0,-2 z"
       style="opacity:0.2;fill:#ffffff;fill-opacity:1;fill-rule:nonzero;stroke:none;display:inline" />
    <path
       style="opacity:0.05;fill:#ffffff;fill-opacity:1;fill-rule:nonzero;stroke:none;display:inline"
       d="m 190,27.90625 c 0,2.28525 -1.25434,4.267563 -3.125,5.28125 l -6.875,4.125 0,2 6.875,-4.125 C 188.74566,34.173813 190,32.1915 190,29.90625 l 0,-2 z"
       id="path3171"
       inkscape:connector-curvature="0" />
    <path
       inkscape:connector-curvature="0"
       id="path3198"
       d="m 106,75.5 0,2 c 0,3.324 2.676,6 6,6 l 62,0 c 3.324,0 6,-2.676 6,-6 l 0,-2 c 0,3.324 -2.676,6 -6,6 l -62,0 c -3.324,0 -6,-2.676 -6,-6 z"
       style="opacity:0.25;fill:#000000;fill-opacity:1;fill-rule:nonzero;stroke:none" />
    <path
       sodipodi:nodetypes="csssscssc"
       inkscape:connector-curvature="0"
       id="path3225"
       d="m 106,80.5 0,2 c 0,3.324 2.676,6 6,6 l 72,0 c 3.324,0 6,-2.676 6,-6 l 0,-2 c 0,3.324 -2.676,6 -6,6 l -72,0 c -3.324,0 -6,-2.676 -6,-6 z"
       style="opacity:0.25;fill:#000000;fill-opacity:1;fill-rule:nonzero;stroke:none" />
    <path
       sodipodi:nodetypes="csssscssc"
       inkscape:connector-curvature="0"
       id="path3227"
       d="m 106,80.5 0,2 c 0,3.324 2.676,6 6,6 l 72,0 c 3.324,0 6,-2.676 6,-6 l 0,-2 c 0,3.324 -2.676,6 -6,6 l -72,0 c -3.324,0 -6,-2.676 -6,-6 z"
       style="opacity:0.1;fill:url(#linearGradient3177);fill-opacity:1;fill-rule:nonzero;stroke:none" />
    <path
       id="path4116"
       d="m 190,79.53125 c 0,3.324 -2.676,6 -6,6 L 177.28125,85.5 c -0.94168,0.62023 -2.06399,1 -3.28125,1 l 10,0.03125 c 3.324,0 6,-2.676 6,-6 l 0,-1 z"
       style="opacity:0.15;fill:#ffffff;fill-opacity:1;fill-rule:nonzero;stroke:none"
       inkscape:connector-curvature="0" />
    <path
       inkscape:connector-curvature="0"
       id="path3316"
       d="m 112,4.5 c -3.324,0 -6,2.6759996 -6,6 l 0,15 1,0 0,-15 c 0,-2.7872972 2.2127,-5 5,-5 l 72,0 c 2.7873,0 5,2.2127028 5,5 l 0,15 1,0 0,-15 c 0,-3.3240004 -2.676,-6 -6,-6 l -72,0 z"
       style="opacity:0.45;fill:url(#radialGradient3179);fill-opacity:1;fill-rule:nonzero;stroke:none;display:inline" />
    <path
       inkscape:connector-curvature="0"
       id="path4105"
       d="m 190,32.90625 c 0,2.28525 -1.25434,4.267563 -3.125,5.28125 L 180,42.3125 180,80.5 c 0,3.324 -2.676,6 -6,6 l 2,0 c 3.324,0 6,-2.676 6,-6 l 0,-38.1875 6.875,-4.125 c 0.40921,-0.221744 0.78146,-0.505024 1.125,-0.8125 l 0,-4.46875 z"
       style="opacity:0.1;fill:#000000;fill-opacity:1;fill-rule:nonzero;stroke:none;display:inline" />
    <path
       inkscape:connector-curvature="0"
       id="path4117"
       d="m 190,37.375 c -0.34354,0.307476 -0.71579,0.590756 -1.125,0.8125 L 182,42.3125 182,80.5 c 0,3.324 -2.676,6 -6,6 l 2,0 c 3.324,0 6,-2.676 6,-6 l 0,-38.1875 6,-3.59375 0,-1.34375 z"
       style="opacity:0.05;fill:#000000;fill-opacity:1;fill-rule:nonzero;stroke:none;display:inline" />
    <path
       inkscape:connector-curvature="0"
       id="path3076"
       d="m 106,75.5 0,2 c 0,3.324 2.676,6 6,6 l 62,0 c 3.324,0 6,-2.676 6,-6 l 0,-2 c 0,3.324 -2.676,6 -6,6 l -62,0 c -3.324,0 -6,-2.676 -6,-6 z"
       style="opacity:0.1;fill:url(#linearGradient3181);fill-opacity:1;fill-rule:nonzero;stroke:none" />
    <path
       inkscape:connector-curvature="0"
       id="path3089"
       d="m 106,77.5 0,1 0,1 0,1 c 0,3.324 2.676,6 6,6 l 62,0 c 3.324,0 6,-2.676 6,-6 l 0,-1 0,-1 0,-1 c 0,3.324 -2.676,6 -6,6 l -62,0 c -3.324,0 -6,-2.676 -6,-6 z"
       style="opacity:0.65;fill:url(#linearGradient3183);fill-opacity:1;fill-rule:nonzero;stroke:none" />
    <path
       inkscape:connector-curvature="0"
       id="path4122"
       d="m 106,79.5 0,1 c 0,3.324 2.676,6 6,6 l 62,0 c 1.23052,0 2.36247,-0.369434 3.3125,-1 L 112,85.5 c -3.324,0 -6,-2.676 -6,-6 z"
       style="opacity:0.15;fill:#ffffff;fill-opacity:1;fill-rule:nonzero;stroke:none" />
  </g>
</svg>
