<?xml version="1.0" encoding="UTF-8" standalone="no"?>
<!-- Created with Inkscape (http://www.inkscape.org/) -->

<svg
   xmlns:dc="http://purl.org/dc/elements/1.1/"
   xmlns:cc="http://creativecommons.org/ns#"
   xmlns:rdf="http://www.w3.org/1999/02/22-rdf-syntax-ns#"
   xmlns:svg="http://www.w3.org/2000/svg"
   xmlns="http://www.w3.org/2000/svg"
   xmlns:xlink="http://www.w3.org/1999/xlink"
   xmlns:sodipodi="http://sodipodi.sourceforge.net/DTD/sodipodi-0.dtd"
   xmlns:inkscape="http://www.inkscape.org/namespaces/inkscape"
   version="1.0"
   width="96"
   height="96"
   id="svg2408"
   inkscape:version="0.48.2 r9819"
   sodipodi:docname="folder-publicshare.svg">
  <metadata
     id="metadata72">
    <rdf:RDF>
      <cc:Work
         rdf:about="">
        <dc:format>image/svg+xml</dc:format>
        <dc:type
           rdf:resource="http://purl.org/dc/dcmitype/StillImage" />
        <dc:title />
      </cc:Work>
    </rdf:RDF>
  </metadata>
  <sodipodi:namedview
     pagecolor="#ffffff"
     bordercolor="#666666"
     borderopacity="1"
     objecttolerance="10"
     gridtolerance="10"
     guidetolerance="10"
     inkscape:pageopacity="0"
     inkscape:pageshadow="2"
     inkscape:window-width="1238"
     inkscape:window-height="735"
     id="namedview70"
     showgrid="false"
     inkscape:zoom="1.4797529"
     inkscape:cx="23.203255"
     inkscape:cy="35.660177"
     inkscape:window-x="10"
     inkscape:window-y="0"
     inkscape:window-maximized="0"
     inkscape:current-layer="svg2408"
     inkscape:object-paths="true"
     inkscape:snap-intersection-paths="true"
     inkscape:object-nodes="true"
     inkscape:snap-smooth-nodes="true"
     inkscape:snap-midpoints="true"
     inkscape:snap-object-midpoints="true"
     inkscape:snap-center="true"
     inkscape:snap-bbox="true"
     inkscape:bbox-paths="true"
     inkscape:bbox-nodes="true"
     inkscape:snap-bbox-edge-midpoints="true"
     inkscape:snap-bbox-midpoints="true"
     showguides="true"
     inkscape:guide-bbox="true"
     inkscape:snap-global="true" />
  <defs
     id="defs2410">
    <linearGradient
       inkscape:collect="always"
       id="linearGradient3874">
      <stop
         style="stop-color:#000000;stop-opacity:1;"
         offset="0"
         id="stop3876" />
      <stop
         style="stop-color:#000000;stop-opacity:0;"
         offset="1"
         id="stop3878" />
    </linearGradient>
    <linearGradient
       id="linearGradient4091">
      <stop
         style="stop-color:#ffffff;stop-opacity:1;"
         offset="0"
         id="stop4093" />
      <stop
         id="stop4099"
         offset="0.80000001"
         style="stop-color:#ffffff;stop-opacity:1;" />
      <stop
         style="stop-color:#ffffff;stop-opacity:0;"
         offset="1"
         id="stop4095" />
    </linearGradient>
    <linearGradient
       id="linearGradient4188">
      <stop
         style="stop-color:#ffffff;stop-opacity:0;"
         offset="0"
         id="stop4190" />
      <stop
         id="stop4198"
         offset="0.15000001"
         style="stop-color:#ffffff;stop-opacity:1;" />
      <stop
         id="stop4196"
         offset="0.85000002"
         style="stop-color:#ffffff;stop-opacity:1;" />
      <stop
         style="stop-color:#ffffff;stop-opacity:0;"
         offset="1"
         id="stop4192" />
    </linearGradient>
    <linearGradient
       inkscape:collect="always"
       id="linearGradient3888">
      <stop
         style="stop-color:#ffffff;stop-opacity:1;"
         offset="0"
         id="stop3890" />
      <stop
         style="stop-color:#ffffff;stop-opacity:0;"
         offset="1"
         id="stop3892" />
    </linearGradient>
    <linearGradient
       x1="45.447727"
       y1="92.539597"
       x2="45.447727"
       y2="7.0165396"
       id="ButtonShadow"
       gradientUnits="userSpaceOnUse"
       gradientTransform="scale(1.0058652,0.994169)">
      <stop
         id="stop3750"
         style="stop-color:#000000;stop-opacity:1"
         offset="0" />
      <stop
         id="stop3752"
         style="stop-color:#000000;stop-opacity:0.58823532"
         offset="1" />
    </linearGradient>
    <filter
       color-interpolation-filters="sRGB"
       id="filter3174">
      <feGaussianBlur
         id="feGaussianBlur3176"
         stdDeviation="1.71" />
    </filter>
    <linearGradient
       inkscape:collect="always"
       xlink:href="#gradient4-1"
       id="linearGradient3050-6"
       gradientUnits="userSpaceOnUse"
       spreadMethod="pad"
       x1="32.251045"
       y1="6.1317058"
       x2="32.251045"
       y2="90.238678"
       gradientTransform="translate(6,-89.50005)" />
    <linearGradient
       id="gradient4-1"
       gradientUnits="userSpaceOnUse"
       x1="32.251045"
       y1="6.1317058"
       x2="32.251045"
       y2="90.238678"
       spreadMethod="pad">
      <stop
         stop-color="#000000"
         offset="0.00000000000"
         stop-opacity="1.00000000000"
         id="stop27-0" />
      <stop
         stop-color="#000000"
         offset="1.00000000000"
         stop-opacity="0.58823529412"
         id="stop29-6" />
    </linearGradient>
    <linearGradient
       inkscape:collect="always"
       xlink:href="#gradient3-2"
       id="linearGradient3053-3"
       gradientUnits="userSpaceOnUse"
       gradientTransform="matrix(1.0058652,0,0,0.99416905,5,-90.50005)"
       spreadMethod="pad"
       x1="32.062981"
       y1="6.1676679"
       x2="32.062981"
       y2="90.767815" />
    <linearGradient
       id="gradient3-2"
       gradientTransform="scale(1.0058652,0.99416905)"
       gradientUnits="userSpaceOnUse"
       x1="32.062981"
       y1="6.1676679"
       x2="32.062981"
       y2="90.767815"
       spreadMethod="pad">
      <stop
         stop-color="#000000"
         offset="0.00000000000"
         stop-opacity="1.00000000000"
         id="stop22-0" />
      <stop
         stop-color="#000000"
         offset="1.00000000000"
         stop-opacity="0.58823529412"
         id="stop24-6" />
    </linearGradient>
    <linearGradient
       inkscape:collect="always"
       xlink:href="#gradient2-5"
       id="linearGradient3056-1"
       gradientUnits="userSpaceOnUse"
       gradientTransform="matrix(1.0057307,0,0,-0.99430195,4,91.50005)"
       spreadMethod="pad"
       x1="32.067265"
       y1="6.1668468"
       x2="32.067265"
       y2="90.756142" />
    <linearGradient
       id="gradient2-5"
       gradientTransform="scale(1.0057307,0.99430195)"
       gradientUnits="userSpaceOnUse"
       x1="32.067265"
       y1="6.1668468"
       x2="32.067265"
       y2="90.756142"
       spreadMethod="pad">
      <stop
         stop-color="#000000"
         offset="0.00000000000"
         stop-opacity="1.00000000000"
         id="stop17-5" />
      <stop
         stop-color="#000000"
         offset="1.00000000000"
         stop-opacity="0.58823529412"
         id="stop19-4" />
    </linearGradient>
    <linearGradient
       inkscape:collect="always"
       xlink:href="#gradient1-6"
       id="linearGradient3059-7"
       gradientUnits="userSpaceOnUse"
       gradientTransform="matrix(1.0055984,0,0,-0.9944328,2.96875,92.53125)"
       spreadMethod="pad"
       x1="32.071472"
       y1="6.1660314"
       x2="32.071472"
       y2="90.744209" />
    <linearGradient
       id="gradient1-6"
       gradientTransform="scale(1.0055984,0.9944328)"
       gradientUnits="userSpaceOnUse"
       x1="32.071472"
       y1="6.1660314"
       x2="32.071472"
       y2="90.744209"
       spreadMethod="pad">
      <stop
         stop-color="#000000"
         offset="0.00000000000"
         stop-opacity="1.00000000000"
         id="stop12-5" />
      <stop
         stop-color="#000000"
         offset="1.00000000000"
         stop-opacity="0.58823529412"
         id="stop14-6" />
    </linearGradient>
    <linearGradient
       id="gradient0-3"
       gradientTransform="scale(1.0054757,0.99455408)"
       gradientUnits="userSpaceOnUse"
       x1="32.07542"
       y1="6.1652875"
       x2="32.07542"
       y2="90.732689"
       spreadMethod="pad">
      <stop
         stop-color="#000000"
         offset="0.00000000000"
         stop-opacity="1.00000000000"
         id="stop7-7" />
      <stop
         stop-color="#000000"
         offset="1.00000000000"
         stop-opacity="0.58823529412"
         id="stop9-4" />
    </linearGradient>
    <linearGradient
       y2="90.732689"
       x2="32.07542"
       y1="6.1652875"
       x1="32.07542"
       spreadMethod="pad"
       gradientTransform="matrix(1.0054757,0,0,-0.99455408,1.96875,93.53125)"
       gradientUnits="userSpaceOnUse"
       id="linearGradient3216"
       xlink:href="#gradient0-3"
       inkscape:collect="always" />
    <linearGradient
       id="linearGradient3832">
      <stop
         style="stop-color:#000000;stop-opacity:1;"
         offset="0"
         id="stop3834" />
      <stop
         id="stop3842"
         offset="0.05"
         style="stop-color:#ffffff;stop-opacity:1;" />
      <stop
         style="stop-color:#000000;stop-opacity:1;"
         offset="0.1"
         id="stop3846" />
      <stop
         id="stop3840"
         offset="0.5"
         style="stop-color:#000000;stop-opacity:0.49803922;" />
      <stop
         style="stop-color:#000000;stop-opacity:1;"
         offset="0.89999998"
         id="stop3844" />
      <stop
         id="stop3848"
         offset="0.94999999"
         style="stop-color:#ffffff;stop-opacity:1;" />
      <stop
         style="stop-color:#000000;stop-opacity:1;"
         offset="1"
         id="stop3836" />
    </linearGradient>
    <linearGradient
       inkscape:collect="always"
       xlink:href="#linearGradient4144-8"
       id="linearGradient4025"
       gradientUnits="userSpaceOnUse"
       x1="72.875"
       y1="68.71875"
       x2="72.875"
       y2="77.34375" />
    <linearGradient
       id="linearGradient4144-8">
      <stop
         style="stop-color:#dddddd;stop-opacity:1;"
         offset="0"
         id="stop4146-4" />
      <stop
         id="stop4152-5"
         offset="0.64999998"
         style="stop-color:#989898;stop-opacity:1;" />
      <stop
         style="stop-color:#eaeaea;stop-opacity:1;"
         offset="1"
         id="stop4148-0" />
    </linearGradient>
    <linearGradient
       inkscape:collect="always"
       xlink:href="#linearGradient3888"
       id="linearGradient3205"
       gradientUnits="userSpaceOnUse"
       x1="-56.230446"
       y1="5.5"
       x2="-56.230446"
       y2="69.53125" />
    <linearGradient
       inkscape:collect="always"
       xlink:href="#linearGradient4188"
       id="linearGradient3207"
       gradientUnits="userSpaceOnUse"
       gradientTransform="translate(-200,0)"
       x1="106"
       y1="77.51565"
       x2="180"
       y2="77.51565" />
    <linearGradient
       inkscape:collect="always"
       xlink:href="#linearGradient3832"
       id="linearGradient3209"
       gradientUnits="userSpaceOnUse"
       gradientTransform="translate(0,-0.9843498)"
       x1="-94"
       y1="82.984398"
       x2="-10.187523"
       y2="82.984398" />
    <radialGradient
       inkscape:collect="always"
       xlink:href="#linearGradient4091"
       id="radialGradient3211"
       gradientUnits="userSpaceOnUse"
       gradientTransform="matrix(-1.0721726,0,0,-0.87502024,-0.53571,-19.125546)"
       cx="48"
       cy="-27"
       fx="48"
       fy="-27"
       r="42" />
    <linearGradient
       inkscape:collect="always"
       xlink:href="#linearGradient3832"
       id="linearGradient3213"
       gradientUnits="userSpaceOnUse"
       gradientTransform="translate(0,-0.9843498)"
       x1="-94"
       y1="82.984398"
       x2="-20"
       y2="82.984398" />
    <linearGradient
       inkscape:collect="always"
       xlink:href="#linearGradient3874"
       id="linearGradient3215"
       gradientUnits="userSpaceOnUse"
       gradientTransform="translate(-100,0)"
       x1="70.030853"
       y1="82"
       x2="89.473785"
       y2="82" />
    <linearGradient
       inkscape:collect="always"
       xlink:href="#linearGradient4188-5"
       id="linearGradient4863"
       gradientUnits="userSpaceOnUse"
       x1="112.09375"
       y1="76.609375"
       x2="183.90625"
       y2="76.609375" />
    <linearGradient
       id="linearGradient4188-5">
      <stop
         style="stop-color:#ffffff;stop-opacity:0;"
         offset="0"
         id="stop4190-0" />
      <stop
         id="stop4198-3"
         offset="0.15000001"
         style="stop-color:#ffffff;stop-opacity:1;" />
      <stop
         id="stop4196-6"
         offset="0.85000002"
         style="stop-color:#ffffff;stop-opacity:1;" />
      <stop
         style="stop-color:#ffffff;stop-opacity:0;"
         offset="1"
         id="stop4192-1" />
    </linearGradient>
    <linearGradient
       inkscape:collect="always"
       xlink:href="#linearGradient3888"
       id="linearGradient3117"
       gradientUnits="userSpaceOnUse"
       x1="-56.230446"
       y1="5.5"
       x2="-56.230446"
       y2="69.53125" />
    <linearGradient
       inkscape:collect="always"
       xlink:href="#linearGradient4188"
       id="linearGradient3119"
       gradientUnits="userSpaceOnUse"
       gradientTransform="translate(-200,0)"
       x1="106"
       y1="77.51565"
       x2="180"
       y2="77.51565" />
    <linearGradient
       inkscape:collect="always"
       xlink:href="#linearGradient3832"
       id="linearGradient3121"
       gradientUnits="userSpaceOnUse"
       gradientTransform="translate(0,-0.9843498)"
       x1="-94"
       y1="82.984398"
       x2="-10.187523"
       y2="82.984398" />
    <radialGradient
       inkscape:collect="always"
       xlink:href="#linearGradient4091"
       id="radialGradient3123"
       gradientUnits="userSpaceOnUse"
       gradientTransform="matrix(-1.0721726,0,0,-0.87502024,-0.53571,-19.125546)"
       cx="48"
       cy="-27"
       fx="48"
       fy="-27"
       r="42" />
    <linearGradient
       inkscape:collect="always"
       xlink:href="#linearGradient3832"
       id="linearGradient3125"
       gradientUnits="userSpaceOnUse"
       gradientTransform="translate(0,-0.9843498)"
       x1="-94"
       y1="82.984398"
       x2="-20"
       y2="82.984398" />
    <linearGradient
       inkscape:collect="always"
       xlink:href="#linearGradient3874"
       id="linearGradient3127"
       gradientUnits="userSpaceOnUse"
       gradientTransform="translate(-100,0)"
       x1="70.030853"
       y1="82"
       x2="89.473785"
       y2="82" />
    <linearGradient
       inkscape:collect="always"
       xlink:href="#linearGradient3874"
       id="linearGradient3131"
       gradientUnits="userSpaceOnUse"
       gradientTransform="translate(110,0)"
       x1="70.030853"
       y1="82"
       x2="89.473785"
       y2="82" />
    <linearGradient
       inkscape:collect="always"
       xlink:href="#linearGradient3832"
       id="linearGradient3134"
       gradientUnits="userSpaceOnUse"
       gradientTransform="translate(210,-0.9843498)"
       x1="-94"
       y1="82.984398"
       x2="-20"
       y2="82.984398" />
    <radialGradient
       inkscape:collect="always"
       xlink:href="#linearGradient4091"
       id="radialGradient3139"
       gradientUnits="userSpaceOnUse"
       gradientTransform="matrix(-1.0721726,0,0,-0.87502024,209.46429,-19.125546)"
       cx="48"
       cy="-27"
       fx="48"
       fy="-27"
       r="42" />
    <linearGradient
       inkscape:collect="always"
       xlink:href="#linearGradient3832"
       id="linearGradient3143"
       gradientUnits="userSpaceOnUse"
       gradientTransform="translate(210,-0.9843498)"
       x1="-94"
       y1="82.984398"
       x2="-10.187523"
       y2="82.984398" />
    <linearGradient
       inkscape:collect="always"
       xlink:href="#linearGradient4188"
       id="linearGradient3151"
       gradientUnits="userSpaceOnUse"
       gradientTransform="translate(10,0)"
       x1="106"
       y1="77.51565"
       x2="180"
       y2="77.51565" />
    <linearGradient
       inkscape:collect="always"
       xlink:href="#linearGradient3888"
       id="linearGradient3154"
       gradientUnits="userSpaceOnUse"
       x1="-56.230446"
       y1="5.5"
       x2="-56.230446"
       y2="69.53125"
       gradientTransform="translate(210,0)" />
    <linearGradient
       inkscape:collect="always"
       xlink:href="#linearGradient3888"
       id="linearGradient3173"
       gradientUnits="userSpaceOnUse"
       gradientTransform="translate(210,0)"
       x1="-56.230446"
       y1="5.5"
       x2="-56.230446"
       y2="69.53125" />
    <linearGradient
       inkscape:collect="always"
       xlink:href="#linearGradient4188"
       id="linearGradient3175"
       gradientUnits="userSpaceOnUse"
       gradientTransform="translate(10,0)"
       x1="106"
       y1="77.51565"
       x2="180"
       y2="77.51565" />
    <linearGradient
       inkscape:collect="always"
       xlink:href="#linearGradient3832"
       id="linearGradient3177"
       gradientUnits="userSpaceOnUse"
       gradientTransform="translate(210,-0.9843498)"
       x1="-94"
       y1="82.984398"
       x2="-10.187523"
       y2="82.984398" />
    <radialGradient
       inkscape:collect="always"
       xlink:href="#linearGradient4091"
       id="radialGradient3179"
       gradientUnits="userSpaceOnUse"
       gradientTransform="matrix(-1.0721726,0,0,-0.87502024,209.46429,-19.125546)"
       cx="48"
       cy="-27"
       fx="48"
       fy="-27"
       r="42" />
    <linearGradient
       inkscape:collect="always"
       xlink:href="#linearGradient3832"
       id="linearGradient3181"
       gradientUnits="userSpaceOnUse"
       gradientTransform="translate(210,-0.9843498)"
       x1="-94"
       y1="82.984398"
       x2="-20"
       y2="82.984398" />
    <linearGradient
       inkscape:collect="always"
       xlink:href="#linearGradient3874"
       id="linearGradient3183"
       gradientUnits="userSpaceOnUse"
       gradientTransform="translate(110,0)"
       x1="70.030853"
       y1="82"
       x2="89.473785"
       y2="82" />
  </defs>
  <g
     id="layer2"
     style="display:none">
    <rect
       width="86"
       height="85"
       rx="6"
       ry="6"
       x="5"
       y="7"
       id="rect3745"
       style="opacity:0.9;fill:url(#ButtonShadow);fill-opacity:1;fill-rule:nonzero;stroke:none;filter:url(#filter3174)" />
  </g>
  <g
     id="g3943">
    <path
       id="path3786-4"
       d="m 11.99995,93.53125 c -5.51104,0 -10.0312,-4.52016 -10.0312,-10.0312 l 0,-71 c 0,-5.5111 4.52016,-10.0313 10.0312,-10.0313 l 72,0 c 5.5111,0 10.0313,4.5202 10.0313,10.0313 l 0,71 c 0,5.51104 -4.5202,10.0312 -10.0313,10.0312 z"
       style="opacity:0.07999998;fill:url(#linearGradient3216)"
       inkscape:connector-curvature="0" />
    <path
       id="path3778-5"
       d="m 12,92.53125 c -4.97163,0 -9.03125,-4.05962 -9.03125,-9.03125 l 0,-70.99995 c 0,-4.9717 4.05962,-9.0313 9.03125,-9.0313 l 71.99995,0 c 4.9717,0 9.0313,4.0596 9.0313,9.0313 l 0,70.99995 c 0,4.97163 -4.0596,9.03125 -9.0313,9.03125 z"
       style="opacity:0.1;fill:url(#linearGradient3059-7)"
       inkscape:connector-curvature="0" />
    <path
       id="path3770-2"
       d="m 12,91.50005 c -4.40913,0 -8,-3.59087 -8,-8 l 0,-71 c 0,-4.4091 3.59087,-8 8,-8 l 72,0 c 4.4091,0 8,3.5909 8,8 l 0,71 c 0,4.40913 -3.5909,8 -8,8 z"
       style="opacity:0.2;fill:url(#linearGradient3056-1)"
       inkscape:connector-curvature="0" />
    <rect
       id="rect3723-5"
       transform="scale(1,-1)"
       width="86"
       height="85"
       rx="7"
       ry="7"
       style="opacity:0.3;fill:url(#linearGradient3053-3)"
       x="5"
       y="-90.500046" />
    <rect
       id="rect3716-4"
       transform="scale(1,-1)"
       width="84"
       height="84"
       rx="6"
       ry="6"
       style="opacity:0.4;fill:url(#linearGradient3050-6)"
       x="6"
       y="-89.500046" />
  </g>
  <path
     style="fill:#202020;fill-opacity:1;fill-rule:nonzero;stroke:none;display:inline"
     d="m 84,4.5000496 -72,0 c -3.324,0 -6,2.676 -6,6.0000004 l 0,72 c 0,3.324 2.676,6 6,6 l 72,0 c 3.324,0 6,-2.676 6,-6 l 0,-72 C 90,7.1760496 87.324,4.5000496 84,4.5000496 z"
     id="rect2419-1"
     inkscape:connector-curvature="0" />
  <g
     id="g4855"
     transform="translate(-98,0)">
    <path
       sodipodi:nodetypes="sssssssss"
       inkscape:connector-curvature="0"
       id="path4843"
       d="m 117.21875,8.59375 c -3.921,0 -7.125,3.203999 -7.125,7.125 l 0,60.5625 c 0,3.921001 3.204,7.125 7.125,7.125 l 61.5625,0 c 3.921,0 7.125,-3.203999 7.125,-7.125 l 0,-60.5625 c 0,-3.921001 -3.204,-7.125 -7.125,-7.125 z"
       style="font-size:medium;font-style:normal;font-variant:normal;font-weight:normal;font-stretch:normal;text-indent:0;text-align:start;text-decoration:none;line-height:normal;letter-spacing:normal;word-spacing:normal;text-transform:none;direction:ltr;block-progression:tb;writing-mode:lr-tb;text-anchor:start;baseline-shift:baseline;opacity:0.1;color:#000000;fill:#000000;fill-opacity:1;fill-rule:nonzero;stroke:none;stroke-width:2;marker:none;visibility:visible;display:inline;overflow:visible;enable-background:accumulate;font-family:Sans;-inkscape-font-specification:Sans" />
    <path
       style="font-size:medium;font-style:normal;font-variant:normal;font-weight:normal;font-stretch:normal;text-indent:0;text-align:start;text-decoration:none;line-height:normal;letter-spacing:normal;word-spacing:normal;text-transform:none;direction:ltr;block-progression:tb;writing-mode:lr-tb;text-anchor:start;baseline-shift:baseline;opacity:0.2;color:#000000;fill:#000000;fill-opacity:1;fill-rule:nonzero;stroke:none;stroke-width:2;marker:none;visibility:visible;display:inline;overflow:visible;enable-background:accumulate;font-family:Sans;-inkscape-font-specification:Sans"
       d="m 117.21875,8.59375 c -3.37935,0 -6.125,2.745652 -6.125,6.125 l 0,61.5625 c 0,3.379348 2.74565,6.125 6.125,6.125 l 61.5625,0 c 3.37935,0 6.125,-2.745652 6.125,-6.125 l 0,-61.5625 c 0,-3.379348 -2.74565,-6.125 -6.125,-6.125 z"
       id="path4849"
       inkscape:connector-curvature="0"
       sodipodi:nodetypes="sssssssss" />
    <path
       style="fill:#ececec;fill-opacity:1;fill-rule:nonzero;stroke:none;display:inline"
       d="m 178.78677,9.582146 -61.57354,0 c -2.84265,0 -5.13113,2.288484 -5.13113,5.13113 l 0,61.573548 c 0,2.842646 2.28848,5.13113 5.13113,5.13113 l 61.57354,0 c 2.84265,0 5.13113,-2.288484 5.13113,-5.13113 l 0,-61.573548 c 0,-2.842646 -2.28848,-5.13113 -5.13113,-5.13113 z"
       id="path4710"
       inkscape:connector-curvature="0" />
    <path
       inkscape:connector-curvature="0"
       id="path4810"
       d="m 112.09375,74.8125 0,1.46875 c 0,2.842646 2.28235,5.125 5.125,5.125 l 61.5625,0 c 2.84265,0 5.125,-2.282354 5.125,-5.125 l 0,-1.46875 c -0.26183,2.593688 -2.46002,4.59375 -5.125,4.59375 l -61.5625,0 c -2.66498,0 -4.86317,-2.000062 -5.125,-4.59375 z"
       style="opacity:0.1;fill:#000000;fill-opacity:1;fill-rule:nonzero;stroke:none;display:inline" />
    <path
       inkscape:connector-curvature="0"
       id="path4815"
       d="m 112.09375,73.8125 0,1 c 0.26183,2.593688 2.46002,4.59375 5.125,4.59375 l 61.5625,0 c 2.66498,0 4.86317,-2.000062 5.125,-4.59375 l 0,-1 c -0.26183,2.593688 -2.46002,4.59375 -5.125,4.59375 l -61.5625,0 c -2.66498,0 -4.86317,-2.000062 -5.125,-4.59375 z"
       style="opacity:0.4;fill:url(#linearGradient4863);fill-opacity:1;fill-rule:nonzero;stroke:none;display:inline" />
    <path
       inkscape:connector-curvature="0"
       id="path4820"
       d="m 116.6875,9.59375 c -2.59369,0.2618304 -4.59375,2.460019 -4.59375,5.125 l 0,0.46875 c 0.26183,-2.593688 2.46002,-4.59375 5.125,-4.59375 l 61.5625,0 c 2.66498,0 4.86317,2.000062 5.125,4.59375 l 0,-0.46875 c 0,-2.842646 -2.28235,-5.125 -5.125,-5.125 l -61.5625,0 c -0.17767,0 -0.35834,-0.017455 -0.53125,0 z"
       style="opacity:0.5;fill:#ffffff;fill-opacity:1;fill-rule:nonzero;stroke:none;display:inline" />
  </g>
  <path
     style="fill:#333333;fill-opacity:1;fill-rule:nonzero;stroke:none;display:inline"
     d="m 12,4.5 c -3.324,0 -6,2.6759996 -6,6 l 0,70 c 0,3.324 2.676,6 6,6 l 62,0 c 3.324,0 6,-2.676 6,-6 l 0,-38.1875 6.875,-4.125 C 88.74566,37.173813 90,35.1915 90,32.90625 L 90,10.5 c 0,-3.3240004 -2.676,-6 -6,-6 z"
     id="path3262"
     inkscape:connector-curvature="0"
     sodipodi:nodetypes="ssssssccssss" />
  <g
     id="g4031">
    <rect
       y="10"
       x="9"
       height="65"
       width="1"
       id="rect4494"
       style="opacity:0.15;color:#000000;fill:#ffffff;fill-opacity:1;fill-rule:nonzero;stroke:none;stroke-width:5;marker:none;visibility:visible;display:inline;overflow:visible;enable-background:accumulate" />
    <rect
       style="opacity:0.25;color:#000000;fill:#000000;fill-opacity:1;fill-rule:nonzero;stroke:none;stroke-width:5;marker:none;visibility:visible;display:inline;overflow:visible;enable-background:accumulate"
       id="rect4496"
       width="1"
       height="65"
       x="10"
       y="10" />
    <rect
       style="opacity:0.15;color:#000000;fill:#ffffff;fill-opacity:1;fill-rule:nonzero;stroke:none;stroke-width:5;marker:none;visibility:visible;display:inline;overflow:visible;enable-background:accumulate"
       id="rect4498"
       width="1"
       height="65"
       x="13"
       y="10" />
    <rect
       y="10"
       x="14"
       height="65"
       width="1"
       id="rect4500"
       style="opacity:0.25;color:#000000;fill:#000000;fill-opacity:1;fill-rule:nonzero;stroke:none;stroke-width:5;marker:none;visibility:visible;display:inline;overflow:visible;enable-background:accumulate" />
    <path
       id="path4130"
       d="m 72.875,68.71875 c -2.51184,0 -4.5625,1.93878 -4.5625,4.3125 0,2.37372 2.05066,4.3125 4.5625,4.3125 2.51184,0 4.5625,-1.93878 4.5625,-4.3125 0,-2.37372 -2.05066,-4.3125 -4.5625,-4.3125 z m 0,1.34375 c 1.73733,0 3.15625,1.326959 3.15625,2.96875 0,1.641792 -1.41892,2.96875 -3.15625,2.96875 -1.73733,0 -3.15625,-1.326958 -3.15625,-2.96875 0,-1.641791 1.41892,-2.96875 3.15625,-2.96875 z"
       style="color:#000000;fill:url(#linearGradient4025);fill-opacity:1;fill-rule:nonzero;stroke:none;stroke-width:5;marker:none;visibility:visible;display:inline;overflow:visible;enable-background:accumulate"
       inkscape:connector-curvature="0" />
    <path
       id="path4132"
       d="m 72.875,70.0625 c -1.73733,0 -3.15625,1.326959 -3.15625,2.96875 0,0.55226 0.19112,1.056911 0.46875,1.5 0.54773,-0.874152 1.53457,-1.46875 2.6875,-1.46875 1.15293,0 2.13977,0.594598 2.6875,1.46875 0.27763,-0.443089 0.46875,-0.94774 0.46875,-1.5 0,-1.641791 -1.41892,-2.96875 -3.15625,-2.96875 z"
       style="opacity:0.8;color:#000000;fill:#000000;fill-opacity:1;fill-rule:nonzero;stroke:none;stroke-width:5;marker:none;visibility:visible;display:inline;overflow:visible;enable-background:accumulate"
       inkscape:connector-curvature="0" />
    <path
       inkscape:connector-curvature="0"
       id="path4154"
       d="m 72.875,68.71875 c -2.51184,0 -4.5625,1.93878 -4.5625,4.3125 0,0.08494 0.0261,0.166247 0.0313,0.25 0.13954,-2.256915 2.10928,-4.0625 4.53125,-4.0625 2.42197,0 4.39171,1.805585 4.53125,4.0625 0.005,-0.08375 0.0313,-0.165064 0.0313,-0.25 0,-2.37372 -2.05066,-4.3125 -4.5625,-4.3125 z m -3.125,4.5625 c -0.008,0.08469 -0.0313,0.163412 -0.0313,0.25 0,1.641792 1.41892,2.96875 3.15625,2.96875 1.73733,0 3.15625,-1.326958 3.15625,-2.96875 0,-0.08659 -0.0235,-0.165312 -0.0313,-0.25 C 75.86113,74.802331 74.5207,76 72.875,76 71.2293,76 69.88887,74.802331 69.75,73.28125 z"
       style="opacity:0.2;color:#000000;fill:#ffffff;fill-opacity:1;fill-rule:nonzero;stroke:none;stroke-width:5;marker:none;visibility:visible;display:inline;overflow:visible;enable-background:accumulate" />
    <path
       inkscape:connector-curvature="0"
       id="path4170"
       d="m 72.875,73.0625 c -1.15293,0 -2.13977,0.594598 -2.6875,1.46875 C 70.73523,75.405402 71.72207,76 72.875,76 74.02793,76 75.01477,75.405402 75.5625,74.53125 75.01477,73.657098 74.02793,73.0625 72.875,73.0625 z"
       style="opacity:0.7;color:#000000;fill:#000000;fill-opacity:1;fill-rule:nonzero;stroke:none;stroke-width:5;marker:none;visibility:visible;display:inline;overflow:visible;enable-background:accumulate" />
    <path
       inkscape:connector-curvature="0"
       id="path4175"
       d="m 72.875,69.5625 c -1.73733,0 -3.15625,1.326959 -3.15625,2.96875 0,0.08659 0.0235,0.165312 0.0313,0.25 0.13887,-1.52108 1.4793,-2.71875 3.125,-2.71875 1.6457,0 2.98613,1.19767 3.125,2.71875 0.008,-0.08469 0.0313,-0.163412 0.0313,-0.25 0,-1.641791 -1.41892,-2.96875 -3.15625,-2.96875 z m -4.53125,3.21875 c -0.005,0.08375 -0.0313,0.165064 -0.0313,0.25 0,2.37372 2.05066,4.3125 4.5625,4.3125 2.51184,0 4.5625,-1.93878 4.5625,-4.3125 0,-0.08494 -0.0261,-0.166247 -0.0313,-0.25 -0.13954,2.256915 -2.10928,4.0625 -4.53125,4.0625 -2.42197,0 -4.39171,-1.805585 -4.53125,-4.0625 z"
       style="opacity:0.2;color:#000000;fill:#000000;fill-opacity:1;fill-rule:nonzero;stroke:none;stroke-width:5;marker:none;visibility:visible;display:inline;overflow:visible;enable-background:accumulate" />
    <path
       id="path3825"
       d="M 80.875,8.59375 80.34375,9.9375 80,9 l 0,22.21875 0.34375,-0.9375 0.53125,1.34375 0.53125,-1.34375 0.53125,1.3125 0.5,-1.3125 0.5,1.3125 0.53125,-1.3125 L 84,31.625 84.5,30.28125 85.03125,31.625 85.5625,30.28125 86,31.40625 86,8.8125 85.5625,9.9375 85.03125,8.59375 84.5,9.9375 84,8.59375 83.46875,9.9375 82.9375,8.625 82.4375,9.9375 81.9375,8.625 81.40625,9.9375 80.875,8.59375 z"
       style="opacity:0.3;fill:#ffffff;fill-opacity:1;fill-rule:nonzero;stroke:none;display:inline"
       inkscape:connector-curvature="0" />
    <path
       inkscape:connector-curvature="0"
       id="path4207"
       d="M 80.875,8.59375 80.34375,9.9375 80,9 l 0,0.5 0.34375,0.9375 0.53125,-1.34375 0.53125,1.34375 0.53125,-1.3125 0.5,1.3125 0.5,-1.3125 0.53125,1.3125 L 84,9.09375 84.5,10.4375 85.03125,9.09375 85.5625,10.4375 86,9.3125 86,8.8125 85.5625,9.9375 85.03125,8.59375 84.5,9.9375 84,8.59375 83.46875,9.9375 82.9375,8.625 82.4375,9.9375 81.9375,8.625 81.40625,9.9375 80.875,8.59375 z"
       style="opacity:0.2;fill:#ffffff;fill-opacity:1;fill-rule:nonzero;stroke:none;display:inline" />
    <path
       inkscape:connector-curvature="0"
       id="path4212"
       d="M 80.34375,29.78125 80,30.71875 l 0,0.5 0.34375,-0.9375 0.53125,1.34375 0.53125,-1.34375 0.53125,1.3125 0.5,-1.3125 0.5,1.3125 0.53125,-1.3125 L 84,31.625 l 0.5,-1.34375 0.53125,1.34375 0.53125,-1.34375 0.4375,1.125 0,-0.5 -0.4375,-1.125 L 85.03125,31.125 84.5,29.78125 84,31.125 l -0.53125,-1.34375 -0.53125,1.3125 -0.5,-1.3125 -0.5,1.3125 -0.53125,-1.3125 L 80.875,31.125 80.34375,29.78125 z"
       style="opacity:0.15;fill:#000000;fill-opacity:1;fill-rule:nonzero;stroke:none;display:inline" />
  </g>
  <g
     id="g3882"
     transform="translate(-80,0)">
    <path
       sodipodi:nodetypes="csccccccccsccssccccccssccccccssccccccssccccccsssccsccccccccsccc"
       inkscape:connector-curvature="0"
       id="path3108"
       d="m 126,17.96875 c -5.02465,0 -9.1875,3.823577 -9.1875,8.59375 l 0,0.03125 c 0.008,0.367258 0.0348,0.838904 0.0625,1.3125 -0.33627,0.444486 -0.56415,0.927271 -0.59375,1.46875 -0.0436,0.798236 0.12661,1.690445 0.5,2.5625 0.2613,0.610242 0.62363,1.058216 0.96875,1.46875 0.0605,0.298334 0.10614,0.568364 0.1875,0.9375 l 0,0.0625 0,0.0625 c 0.22405,0.666246 0.64783,1.315068 1.15625,2.0625 0.44751,0.657883 0.97291,1.342073 1.46875,2 0.0709,0.845571 0.0285,1.683821 -0.0937,2.59375 -1.40366,1.012271 -3.90138,1.960058 -6.21875,2.875 -1.23308,0.486846 -2.38245,0.983511 -3.3125,1.59375 -0.88182,0.578593 -1.64259,1.384856 -1.71875,2.46875 l -0.0313,0 -0.0313,0.125 c -9e-5,0.01067 -5e-5,0.02052 0,0.03125 l -1.0625,6.875 -0.0313,0.09375 0,0.0625 c 0,1.223339 0.88322,2.16325 2,2.875 0.96412,0.614454 2.30434,1.074128 3.78125,1.5 l 0.375,1.4375 0,0.03125 0,0.03125 c 0.20038,0.668066 0.69334,1.167849 1.34375,1.40625 -0.007,-0.0026 0.0357,0.03257 0.0313,0.03125 -0.0884,-0.02601 0.22458,0.161299 0.75,0.3125 2.35731,0.678373 5.78287,1.125 9.6563,1.125 3.87344,0 7.32762,-0.445872 9.6875,-1.125 0.52547,-0.151214 0.83864,-0.338589 0.75,-0.3125 -0.004,0.0013 0.038,-0.03384 0.0313,-0.03125 0.61196,-0.24059 1.10859,-0.714106 1.3125,-1.34375 l 0,-0.03125 0.46875,-1.5625 c 1.44228,-0.422329 2.76843,-0.898909 3.71875,-1.5 1.10023,-0.695912 1.96875,-1.627585 1.96875,-2.84375 l 0,-0.0625 -0.0313,-0.09375 -1.0625,-6.875 0,-0.03125 -0.0313,-0.125 -0.0313,0 c -0.0503,-0.509341 -0.26358,-0.997932 -0.5625,-1.34375 -0.33345,-0.385764 -0.72639,-0.683319 -1.1875,-0.96875 -0.92223,-0.570862 -2.08093,-1.059488 -3.3125,-1.5625 -2.31666,-0.946197 -4.82479,-1.971785 -6.21875,-3.03125 -0.0652,-0.733684 -0.10046,-1.476218 -0.0625,-2.21875 0.46322,-0.706332 0.97745,-1.472297 1.4375,-2.21875 0.51134,-0.829684 0.9563,-1.562483 1.1875,-2.25 l 0,-0.0625 0,-0.03125 c 0.11415,-0.478336 0.17938,-0.807031 0.25,-1.15625 0.2833,-0.374635 0.5341,-0.776991 0.75,-1.28125 0.35368,-0.826027 0.55174,-1.64847 0.53125,-2.40625 -0.0142,-0.525628 -0.18281,-1.052782 -0.46875,-1.5 0.0346,-0.4982 0.047,-0.983562 0.0625,-1.4375 l 0,-0.03125 c 1e-5,-4.623141 -3.93446,-8.275031 -8.75,-8.5 -0.15315,-0.0072 -0.28262,-0.09375 -0.4375,-0.09375 z"
       style="font-size:medium;font-style:normal;font-variant:normal;font-weight:normal;font-stretch:normal;text-indent:0;text-align:start;text-decoration:none;line-height:normal;letter-spacing:normal;word-spacing:normal;text-transform:none;direction:ltr;block-progression:tb;writing-mode:lr-tb;text-anchor:start;baseline-shift:baseline;opacity:0.2;color:#000000;fill:#000000;fill-opacity:1;fill-rule:nonzero;stroke:none;stroke-width:2;marker:none;visibility:visible;display:inline;overflow:visible;enable-background:new;font-family:Sans;-inkscape-font-specification:Sans" />
    <path
       d="m 125.99999,18.978454 c -4.52466,0 -8.19262,3.393432 -8.19262,7.579443 0.011,0.479724 0.018,1.02747 0.0683,1.624166 -0.71606,0.378381 -0.8094,1.858102 -0.17068,3.349842 0.2463,0.575222 0.58223,1.042608 0.92167,1.421143 0.0113,0.01266 0.0228,0.02146 0.0341,0.0338 0.081,0.394135 0.14096,0.705872 0.23895,1.15045 0.30357,0.90272 1.55798,2.60072 2.66261,4.060416 0.11015,1.126053 0.11922,2.238167 -0.10242,3.519029 -3.17949,2.614771 -11.31117,3.78972 -11.29898,6.496664 l -1.09235,7.038052 c 0,1.44197 2.17314,2.76225 5.63243,3.654373 l 0.4779,1.928699 a 1.1896769,1.1792525 0 0 0 0.75099,0.778248 c 0.15355,0.0589 0.26191,0.18343 0.68272,0.304528 2.21673,0.637931 5.59208,1.082774 9.38737,1.082774 3.7953,0 7.20478,-0.444843 9.42151,-1.082774 0.42082,-0.121098 0.52918,-0.245665 0.68272,-0.304528 a 1.1896769,1.1792525 0 0 0 0.71686,-0.74441 l 0.5803,-2.030208 c 3.37478,-0.890713 5.53002,-2.165037 5.53002,-3.586701 l -1.09235,-7.038047 c -0.013,-2.316782 -8.19262,-3.78972 -11.33312,-6.49667 -0.12716,-1.036911 -0.13302,-2.057841 -0.0683,-3.079142 1.00431,-1.535636 2.32653,-3.500932 2.6626,-4.500298 0.12351,-0.517544 0.17716,-0.875229 0.27309,-1.319635 0.29657,-0.359314 0.5662,-0.774489 0.78512,-1.285797 0.60656,-1.416622 0.54993,-2.788378 -0.0683,-3.248331 0.0432,-0.615537 0.0844,-1.199598 0.1024,-1.725677 1e-5,-4.186011 -3.66795,-7.579442 -8.19261,-7.579442 z"
       inkscape:connector-curvature="0"
       id="path3798"
       style="opacity:0.85;fill:#ffffff;fill-opacity:1;stroke:none;display:inline;enable-background:new" />
    <path
       inkscape:connector-curvature="0"
       id="path4040"
       d="m 126,18.968829 c -4.52466,0 -8.1875,3.407739 -8.1875,7.59375 0.011,0.479724 0.0122,1.028304 0.0625,1.625 -0.68678,0.362911 -0.77412,1.728188 -0.21875,3.15625 0.0625,-0.06478 0.14177,-0.115574 0.21875,-0.15625 -0.0503,-0.596696 -0.0515,-1.145276 -0.0625,-1.625 0,-4.186011 3.66284,-7.59375 8.1875,-7.59375 4.52466,0 8.18751,3.407739 8.1875,7.59375 -0.018,0.526079 -0.0505,1.103213 -0.0937,1.71875 0.0418,0.03111 0.0571,0.08581 0.0937,0.125 0.5527,-1.373139 0.50688,-2.678138 -0.0937,-3.125 0.0432,-0.615537 0.0757,-1.192671 0.0937,-1.71875 1e-5,-4.186011 -3.66284,-7.59375 -8.1875,-7.59375 z m -4.46875,22.1875 c -0.0233,0.184632 -0.0293,0.37093 -0.0625,0.5625 -3.17949,2.614771 -11.32469,3.793056 -11.3125,6.5 l -1.09375,7.03125 c 0,0.307206 0.12381,0.613054 0.3125,0.90625 l 0.78125,-4.9375 c -0.0122,-2.706944 8.13301,-3.885229 11.3125,-6.5 0.22164,-1.280862 0.2039,-2.405197 0.0937,-3.53125 -0.009,-0.01159 -0.0225,-0.01963 -0.0313,-0.03125 z m 8.96875,0.375 c -0.0197,0.03002 -0.0431,0.06405 -0.0625,0.09375 -0.0647,1.021301 -0.0647,2.056839 0.0625,3.09375 3.1405,2.70695 11.33075,4.183218 11.34375,6.5 l 0.78125,4.9375 c 0.19341,-0.292204 0.3125,-0.597757 0.3125,-0.90625 l -1.09375,-7.03125 c -0.013,-2.316782 -8.20325,-3.79305 -11.34375,-6.5 -0.008,-0.06199 0.007,-0.125619 0,-0.1875 z"
       style="opacity:0.1;fill:#000000;fill-opacity:1;stroke:none;display:inline;enable-background:new" />
    <path
       inkscape:connector-curvature="0"
       id="path4031"
       d="m 126,18.968829 c -4.52466,0 -8.1875,3.407739 -8.1875,7.59375 0.008,0.341192 0.0105,0.753102 0.0313,1.15625 0.45021,-3.792232 3.93731,-6.75 8.15625,-6.75 4.18264,0 7.62724,2.911169 8.125,6.65625 0.0239,-0.363358 0.0514,-0.737212 0.0625,-1.0625 1e-5,-4.186011 -3.66284,-7.59375 -8.1875,-7.59375 z m -8.1875,9.25 c -0.53753,0.345459 -0.6691,1.35636 -0.375,2.5 0.10045,-0.246265 0.2415,-0.427679 0.4375,-0.53125 -0.0503,-0.596696 -0.0515,-1.145276 -0.0625,-1.625 0,-0.114931 -0.005,-0.230067 0,-0.34375 z m 16.375,0.15625 c 0.002,0.06233 0,0.12481 0,0.1875 -0.018,0.526079 -0.0505,1.103213 -0.0937,1.71875 0.14435,0.107395 0.23068,0.272972 0.3125,0.46875 0.27442,-1.035908 0.19982,-1.950216 -0.21875,-2.375 z m -3.75,12.28125 c -0.0626,1.010878 -0.0634,2.036165 0.0625,3.0625 3.1405,2.70695 11.33075,4.183218 11.34375,6.5 l 0.90625,5.75 c 0.11893,-0.231019 0.1875,-0.478145 0.1875,-0.71875 l -1.09375,-7.03125 c -0.013,-2.316782 -8.20325,-3.79305 -11.34375,-6.5 -0.0432,-0.352525 -0.0453,-0.713027 -0.0625,-1.0625 z m -8.84375,0.125 c -0.0286,0.301976 -0.0696,0.617284 -0.125,0.9375 -3.17949,2.614771 -11.32469,3.793056 -11.3125,6.5 l -1.09375,7.03125 c 0,0.24141 0.0698,0.4856 0.1875,0.71875 l 0.90625,-5.75 c -0.0122,-2.706944 8.13301,-3.885229 11.3125,-6.5 0.18271,-1.055881 0.18323,-2.008626 0.125,-2.9375 z"
       style="opacity:0.2;fill:#000000;fill-opacity:1;stroke:none;display:inline;enable-background:new" />
    <path
       inkscape:connector-curvature="0"
       id="path4022"
       d="m 126,18.968829 c -4.52466,0 -8.1875,3.407739 -8.1875,7.59375 0.003,0.147744 0.0272,0.33991 0.0313,0.5 0.27762,-3.953496 3.81274,-7.09375 8.15625,-7.09375 4.32092,0 7.84625,3.106925 8.15625,7.03125 0.007,-0.141123 0.0267,-0.303466 0.0313,-0.4375 1e-5,-4.186011 -3.66284,-7.59375 -8.1875,-7.59375 z m -8.15625,9.25 c -0.46222,0.277371 -0.65509,1.022102 -0.53125,1.9375 0.0729,-0.466767 0.26175,-0.80983 0.5625,-0.96875 -0.03,-0.355638 -0.022,-0.651927 -0.0313,-0.96875 z m 16.3125,0.125 c -0.0189,0.312905 -0.0389,0.601531 -0.0625,0.9375 0.23184,0.172482 0.36897,0.46054 0.4375,0.84375 0.10095,-0.793941 -0.0193,-1.45443 -0.375,-1.78125 z m -12.53125,11.6875 c -0.0164,0.540268 -0.0533,1.092756 -0.15625,1.6875 -3.17949,2.614771 -11.32469,3.793056 -11.3125,6.5 l -1.09375,7.03125 c 0,0.159681 0.0417,0.312469 0.0937,0.46875 l 1,-6.5 c -0.0122,-2.706944 8.13301,-3.885229 11.3125,-6.5 0.16623,-0.960647 0.19488,-1.839624 0.15625,-2.6875 z m 8.78125,0.375 c -0.0189,0.761313 -9.6e-4,1.540213 0.0937,2.3125 3.1405,2.70695 11.33075,4.183218 11.34375,6.5 l 1,6.5 c 0.0516,-0.153498 0.0937,-0.311317 0.0937,-0.46875 l -1.09375,-7.03125 c -0.013,-2.316782 -8.20325,-3.79305 -11.34375,-6.5 -0.0534,-0.4358 -0.0794,-0.881132 -0.0937,-1.3125 z"
       style="opacity:0.3;fill:#000000;fill-opacity:1;stroke:none;display:inline;enable-background:new" />
    <path
       style="opacity:0.5;fill:#000000;fill-opacity:1;stroke:none;display:inline;enable-background:new"
       d="m 126,17.968829 c -4.52466,0 -8.1875,3.407739 -8.1875,7.59375 0.003,0.147744 0.0272,0.33991 0.0313,0.5 0.27762,-3.953496 3.81274,-7.09375 8.15625,-7.09375 4.32092,0 7.84625,3.106925 8.15625,7.03125 0.007,-0.141123 0.0267,-0.303466 0.0313,-0.4375 1e-5,-4.186011 -3.66284,-7.59375 -8.1875,-7.59375 z m -8.15625,9.25 c -0.46222,0.277371 -0.65509,1.022102 -0.53125,1.9375 0.0729,-0.466767 0.26175,-0.80983 0.5625,-0.96875 -0.03,-0.355638 -0.022,-0.651927 -0.0313,-0.96875 z m 16.3125,0.125 c -0.0189,0.312905 -0.0389,0.601531 -0.0625,0.9375 0.23184,0.172482 0.36897,0.46054 0.4375,0.84375 0.10095,-0.793941 -0.0193,-1.45443 -0.375,-1.78125 z m -12.53125,11.6875 c -0.0164,0.540268 -0.0533,1.092756 -0.15625,1.6875 -3.17949,2.614771 -11.32469,3.793056 -11.3125,6.5 l -1.09375,7.03125 c 0,0.159681 0.0417,0.312469 0.0937,0.46875 l 1,-6.5 c -0.0122,-2.706944 8.13301,-3.885229 11.3125,-6.5 0.16623,-0.960647 0.19488,-1.839624 0.15625,-2.6875 z m 8.78125,0.375 c -0.0189,0.761313 -9.6e-4,1.540213 0.0937,2.3125 3.1405,2.70695 11.33075,4.183218 11.34375,6.5 l 1,6.5 c 0.0516,-0.153498 0.0937,-0.311317 0.0937,-0.46875 l -1.09375,-7.03125 c -0.013,-2.316782 -8.20325,-3.79305 -11.34375,-6.5 -0.0534,-0.4358 -0.0794,-0.881132 -0.0937,-1.3125 z"
       id="path4051"
       inkscape:connector-curvature="0" />
    <path
       inkscape:connector-curvature="0"
       id="path4053"
       d="m 134.15625,26.000079 c -0.0212,0.412781 -0.0303,0.822539 -0.0625,1.28125 0.0236,0.01759 0.0405,0.0423 0.0625,0.0625 0.0158,-0.260376 0.0231,-0.542312 0.0313,-0.78125 0,-0.188488 -0.0166,-0.377464 -0.0313,-0.5625 z m -16.3125,0.0625 c -0.0116,0.164883 -0.0313,0.332409 -0.0313,0.5 0.004,0.193803 0.025,0.441501 0.0313,0.65625 0.0121,-0.0073 0.0187,-0.02463 0.0313,-0.03125 -0.0348,-0.412928 -0.0222,-0.765277 -0.0313,-1.125 z m -0.53125,3.09375 c -0.10074,0.644583 0.0358,1.509791 0.40625,2.375 0.2463,0.575222 0.56681,1.027715 0.90625,1.40625 0.0113,0.01266 0.0199,0.05016 0.0313,0.0625 0.081,0.394135 0.15201,0.680422 0.25,1.125 0.30357,0.90272 1.55162,2.602804 2.65625,4.0625 0.0235,0.240035 0.0495,0.478212 0.0625,0.71875 0.0117,-0.578893 -0.007,-1.155724 -0.0625,-1.71875 -1.10463,-1.459696 -2.35268,-3.15978 -2.65625,-4.0625 -0.098,-0.444578 -0.169,-0.730865 -0.25,-1.125 -0.0113,-0.01234 -0.0199,-0.04984 -0.0313,-0.0625 -0.33944,-0.378535 -0.65995,-0.831028 -0.90625,-1.40625 -0.20228,-0.472426 -0.34734,-0.939585 -0.40625,-1.375 z m 17.21875,0.03125 c -0.0599,0.424282 -0.17612,0.879261 -0.375,1.34375 -0.21892,0.511308 -0.48468,0.921936 -0.78125,1.28125 -0.0959,0.444406 -0.15774,0.794956 -0.28125,1.3125 -0.33607,0.999366 -1.65194,2.964364 -2.65625,4.5 -0.0375,0.592062 -0.0511,1.186252 -0.0313,1.78125 0.006,-0.260864 0.0147,-0.52061 0.0313,-0.78125 1.00431,-1.535636 2.32018,-3.500634 2.65625,-4.5 0.12351,-0.517544 0.18532,-0.868094 0.28125,-1.3125 0.29657,-0.359314 0.56233,-0.769942 0.78125,-1.28125 0.36849,-0.860598 0.47325,-1.710637 0.375,-2.34375 z m -25.375,25.53125 -0.0937,0.53125 c 0,1.44197 2.16571,2.764127 5.625,3.65625 l 0.5,1.9375 a 1.1896769,1.1792525 0 0 0 0.75,0.78125 c 0.15355,0.0589 0.26669,0.160152 0.6875,0.28125 2.21668,0.637931 5.57966,1.09375 9.37495,1.09375 3.7953,0 7.18952,-0.455819 9.40625,-1.09375 0.42082,-0.121098 0.53396,-0.222387 0.6875,-0.28125 a 1.1896769,1.1792525 0 0 0 0.71875,-0.75 l 0.59375,-2.03125 c 3.37478,-0.890713 5.53125,-2.172086 5.53125,-3.59375 l -0.0937,-0.53125 c -0.41427,1.232636 -2.43644,2.332923 -5.4375,3.125 l -0.5938,2.03125 a 1.1896769,1.1792525 0 0 1 -0.71875,0.75 c -0.15354,0.05886 -0.26668,0.160152 -0.6875,0.28125 -2.21673,0.637931 -5.61095,1.09375 -9.40625,1.09375 -3.79529,0 -7.15827,-0.455819 -9.375,-1.09375 -0.42081,-0.121098 -0.53395,-0.22235 -0.6875,-0.28125 a 1.1896769,1.1792525 0 0 1 -0.75,-0.78125 l -0.5,-1.9375 c -3.07621,-0.793331 -5.11292,-1.93252 -5.53125,-3.1875 z"
       style="opacity:0.85;fill:#ffffff;fill-opacity:1;stroke:none;display:inline;enable-background:new" />
  </g>
  <g
     id="g3156"
     transform="translate(-110,0)">
    <path
       inkscape:connector-curvature="0"
       id="path3157"
       d="m 122,5.5 c -2.7873,0 -5,2.2127028 -5,5 l 0,56.3125 c 1.07066,1.628779 2.89693,2.71875 5,2.71875 l 68,0 0,-25.21875 0,-5 0,-2 6.875,-4.125 c 0.86852,-0.47064 1.58604,-1.147137 2.125,-1.96875 L 199,10.5 c 0,-2.7872972 -2.2127,-5 -5,-5 l -72,0 z m 77,32.71875 c -0.13474,0.205403 -0.28087,0.407435 -0.4375,0.59375 0.16108,-0.189117 0.30071,-0.385228 0.4375,-0.59375 z"
       style="opacity:0.1;fill:url(#linearGradient3173);fill-opacity:1;fill-rule:nonzero;stroke:none;display:inline" />
    <path
       style="opacity:0.2;fill:url(#linearGradient3175);fill-opacity:1;fill-rule:nonzero;stroke:none"
       d="m 116,73.51565 0,2 c 0,3.324 2.676,6 6,6 l 62,0 c 3.324,0 6,-2.676 6,-6 l 0,-2 c 0,3.324 -2.676,6 -6,6 l -62,0 c -3.324,0 -6,-2.676 -6,-6 z"
       id="path3163"
       inkscape:connector-curvature="0"
       sodipodi:nodetypes="csssscssc" />
    <path
       id="path3167"
       d="m 200,29.90625 c 0,2.28525 -1.25434,4.267563 -3.125,5.28125 l -6.875,4.125 0,3 6.875,-4.125 C 198.74566,37.173813 200,35.1915 200,32.90625 l 0,-3 z"
       style="opacity:0.45;fill:#000000;fill-opacity:1;fill-rule:nonzero;stroke:none;display:inline"
       inkscape:connector-curvature="0" />
    <path
       inkscape:connector-curvature="0"
       id="path3169"
       d="m 200,27.90625 c 0,2.28525 -1.25434,4.267563 -3.125,5.28125 l -6.875,4.125 0,2 6.875,-4.125 C 198.74566,34.173813 200,32.1915 200,29.90625 l 0,-2 z"
       style="opacity:0.2;fill:#ffffff;fill-opacity:1;fill-rule:nonzero;stroke:none;display:inline" />
    <path
       style="opacity:0.05;fill:#ffffff;fill-opacity:1;fill-rule:nonzero;stroke:none;display:inline"
       d="m 200,27.90625 c 0,2.28525 -1.25434,4.267563 -3.125,5.28125 l -6.875,4.125 0,2 6.875,-4.125 C 198.74566,34.173813 200,32.1915 200,29.90625 l 0,-2 z"
       id="path3171"
       inkscape:connector-curvature="0" />
    <path
       inkscape:connector-curvature="0"
       id="path3198"
       d="m 116,75.5 0,2 c 0,3.324 2.676,6 6,6 l 62,0 c 3.324,0 6,-2.676 6,-6 l 0,-2 c 0,3.324 -2.676,6 -6,6 l -62,0 c -3.324,0 -6,-2.676 -6,-6 z"
       style="opacity:0.25;fill:#000000;fill-opacity:1;fill-rule:nonzero;stroke:none" />
    <path
       sodipodi:nodetypes="csssscssc"
       inkscape:connector-curvature="0"
       id="path3225"
       d="m 116,80.5 0,2 c 0,3.324 2.676,6 6,6 l 72,0 c 3.324,0 6,-2.676 6,-6 l 0,-2 c 0,3.324 -2.676,6 -6,6 l -72,0 c -3.324,0 -6,-2.676 -6,-6 z"
       style="opacity:0.25;fill:#000000;fill-opacity:1;fill-rule:nonzero;stroke:none" />
    <path
       sodipodi:nodetypes="csssscssc"
       inkscape:connector-curvature="0"
       id="path3227"
       d="m 116,80.5 0,2 c 0,3.324 2.676,6 6,6 l 72,0 c 3.324,0 6,-2.676 6,-6 l 0,-2 c 0,3.324 -2.676,6 -6,6 l -72,0 c -3.324,0 -6,-2.676 -6,-6 z"
       style="opacity:0.1;fill:url(#linearGradient3177);fill-opacity:1;fill-rule:nonzero;stroke:none" />
    <path
       id="path4116"
       d="m 200,79.53125 c 0,3.324 -2.676,6 -6,6 L 187.28125,85.5 c -0.94168,0.62023 -2.06399,1 -3.28125,1 l 10,0.03125 c 3.324,0 6,-2.676 6,-6 l 0,-1 z"
       style="opacity:0.15;fill:#ffffff;fill-opacity:1;fill-rule:nonzero;stroke:none"
       inkscape:connector-curvature="0" />
    <path
       inkscape:connector-curvature="0"
       id="path3316"
       d="m 122,4.5 c -3.324,0 -6,2.6759996 -6,6 l 0,15 1,0 0,-15 c 0,-2.7872972 2.2127,-5 5,-5 l 72,0 c 2.7873,0 5,2.2127028 5,5 l 0,15 1,0 0,-15 c 0,-3.3240004 -2.676,-6 -6,-6 l -72,0 z"
       style="opacity:0.45;fill:url(#radialGradient3179);fill-opacity:1;fill-rule:nonzero;stroke:none;display:inline" />
    <path
       inkscape:connector-curvature="0"
       id="path4105"
       d="m 200,32.90625 c 0,2.28525 -1.25434,4.267563 -3.125,5.28125 L 190,42.3125 190,80.5 c 0,3.324 -2.676,6 -6,6 l 2,0 c 3.324,0 6,-2.676 6,-6 l 0,-38.1875 6.875,-4.125 c 0.40921,-0.221744 0.78146,-0.505024 1.125,-0.8125 l 0,-4.46875 z"
       style="opacity:0.1;fill:#000000;fill-opacity:1;fill-rule:nonzero;stroke:none;display:inline" />
    <path
       inkscape:connector-curvature="0"
       id="path4117"
       d="m 200,37.375 c -0.34354,0.307476 -0.71579,0.590756 -1.125,0.8125 L 192,42.3125 192,80.5 c 0,3.324 -2.676,6 -6,6 l 2,0 c 3.324,0 6,-2.676 6,-6 l 0,-38.1875 6,-3.59375 0,-1.34375 z"
       style="opacity:0.05;fill:#000000;fill-opacity:1;fill-rule:nonzero;stroke:none;display:inline" />
    <path
       inkscape:connector-curvature="0"
       id="path3076"
       d="m 116,75.5 0,2 c 0,3.324 2.676,6 6,6 l 62,0 c 3.324,0 6,-2.676 6,-6 l 0,-2 c 0,3.324 -2.676,6 -6,6 l -62,0 c -3.324,0 -6,-2.676 -6,-6 z"
       style="opacity:0.1;fill:url(#linearGradient3181);fill-opacity:1;fill-rule:nonzero;stroke:none" />
    <path
       inkscape:connector-curvature="0"
       id="path3089"
       d="m 116,77.5 0,1 0,1 0,1 c 0,3.324 2.676,6 6,6 l 62,0 c 3.324,0 6,-2.676 6,-6 l 0,-1 0,-1 0,-1 c 0,3.324 -2.676,6 -6,6 l -62,0 c -3.324,0 -6,-2.676 -6,-6 z"
       style="opacity:0.65;fill:url(#linearGradient3183);fill-opacity:1;fill-rule:nonzero;stroke:none" />
    <path
       inkscape:connector-curvature="0"
       id="path4122"
       d="m 116,79.5 0,1 c 0,3.324 2.676,6 6,6 l 62,0 c 1.23052,0 2.36247,-0.369434 3.3125,-1 L 122,85.5 c -3.324,0 -6,-2.676 -6,-6 z"
       style="opacity:0.15;fill:#ffffff;fill-opacity:1;fill-rule:nonzero;stroke:none" />
  </g>
</svg>
