<?xml version="1.0" encoding="UTF-8" standalone="no"?>
<!-- Created with Inkscape (http://www.inkscape.org/) -->

<svg
   xmlns:dc="http://purl.org/dc/elements/1.1/"
   xmlns:cc="http://creativecommons.org/ns#"
   xmlns:rdf="http://www.w3.org/1999/02/22-rdf-syntax-ns#"
   xmlns:svg="http://www.w3.org/2000/svg"
   xmlns="http://www.w3.org/2000/svg"
   xmlns:xlink="http://www.w3.org/1999/xlink"
   xmlns:sodipodi="http://sodipodi.sourceforge.net/DTD/sodipodi-0.dtd"
   xmlns:inkscape="http://www.inkscape.org/namespaces/inkscape"
   version="1.1"
   width="48"
   height="48"
   id="svg3321"
   inkscape:version="0.48.1 r9760"
   sodipodi:docname="midori2.svg">
  <sodipodi:namedview
     pagecolor="#ffffff"
     bordercolor="#666666"
     borderopacity="1"
     objecttolerance="10"
     gridtolerance="10"
     guidetolerance="10"
     inkscape:pageopacity="0"
     inkscape:pageshadow="2"
     inkscape:window-width="1230"
     inkscape:window-height="776"
     id="namedview107"
     showgrid="false"
     inkscape:zoom="4.9939416"
     inkscape:cx="17.829473"
     inkscape:cy="17.753298"
     inkscape:window-x="50"
     inkscape:window-y="24"
     inkscape:window-maximized="1"
     inkscape:current-layer="svg3321" />
  <defs
     id="defs3323">
    <linearGradient
       x1="30"
       y1="33"
       x2="30"
       y2="15"
       id="linearGradient25695"
       xlink:href="#linearGradient25689"
       gradientUnits="userSpaceOnUse" />
    <linearGradient
       id="linearGradient25689">
      <stop
         id="stop25691"
         style="stop-color:#cccccc;stop-opacity:1"
         offset="0" />
      <stop
         id="stop25693"
         style="stop-color:#ffffff;stop-opacity:1"
         offset="1" />
    </linearGradient>
    <linearGradient
       x1="30"
       y1="33"
       x2="30"
       y2="15"
       id="linearGradient3255"
       xlink:href="#linearGradient25689"
       gradientUnits="userSpaceOnUse" />
    <linearGradient
       id="linearGradient3257">
      <stop
         id="stop3259"
         style="stop-color:#cccccc;stop-opacity:1"
         offset="0" />
      <stop
         id="stop3261"
         style="stop-color:#ffffff;stop-opacity:1"
         offset="1" />
    </linearGradient>
    <linearGradient
       x1="23.99999"
       y1="4.999989"
       x2="23.99999"
       y2="43"
       id="linearGradient3114"
       xlink:href="#linearGradient3924"
       gradientUnits="userSpaceOnUse"
       gradientTransform="translate(2.8e-6,0.96748162)" />
    <linearGradient
       id="linearGradient3924">
      <stop
         id="stop3926"
         style="stop-color:#ffffff;stop-opacity:1"
         offset="0" />
      <stop
         id="stop3928"
         style="stop-color:#ffffff;stop-opacity:0.23529412"
         offset="0.06316455" />
      <stop
         id="stop3930"
         style="stop-color:#ffffff;stop-opacity:0.15686275"
         offset="0.95056331" />
      <stop
         id="stop3932"
         style="stop-color:#ffffff;stop-opacity:0.39215687"
         offset="1" />
    </linearGradient>
    <radialGradient
       cx="7.4956832"
       cy="8.4497671"
       r="19.99999"
       fx="7.4956832"
       fy="8.4497671"
       id="radialGradient3117"
       xlink:href="#linearGradient3268"
       gradientUnits="userSpaceOnUse"
       gradientTransform="matrix(1.9428467e-8,2.33699,-2.4722567,-4.3056275e-8,44.890102,-11.467327)" />
    <linearGradient
       id="linearGradient3242-187-536">
      <stop
         id="stop2778"
         style="stop-color:#8badea;stop-opacity:1"
         offset="0" />
      <stop
         id="stop2780"
         style="stop-color:#6396cd;stop-opacity:1"
         offset="0.26238" />
      <stop
         id="stop2782"
         style="stop-color:#3b7caf;stop-opacity:1"
         offset="0.66093999" />
      <stop
         id="stop2784"
         style="stop-color:#194c70;stop-opacity:1"
         offset="1" />
    </linearGradient>
    <linearGradient
       id="linearGradient2490-182-124">
      <stop
         id="stop2788"
         style="stop-color:#1f4b6a;stop-opacity:1"
         offset="0" />
      <stop
         id="stop2790"
         style="stop-color:#4083c2;stop-opacity:1"
         offset="1" />
    </linearGradient>
    <radialGradient
       cx="4.9929786"
       cy="43.5"
       r="2.5"
       fx="4.9929786"
       fy="43.5"
       id="radialGradient2873-966-168"
       xlink:href="#linearGradient3688-166-749"
       gradientUnits="userSpaceOnUse"
       gradientTransform="matrix(2.003784,0,0,1.4,27.98813,-17.4)" />
    <linearGradient
       id="linearGradient3688-166-749">
      <stop
         id="stop2883"
         style="stop-color:#181818;stop-opacity:1"
         offset="0" />
      <stop
         id="stop2885"
         style="stop-color:#181818;stop-opacity:0"
         offset="1" />
    </linearGradient>
    <radialGradient
       cx="4.9929786"
       cy="43.5"
       r="2.5"
       fx="4.9929786"
       fy="43.5"
       id="radialGradient2875-742-326"
       xlink:href="#linearGradient3688-464-309"
       gradientUnits="userSpaceOnUse"
       gradientTransform="matrix(2.003784,0,0,1.4,-20.01187,-104.4)" />
    <linearGradient
       id="linearGradient3688-464-309">
      <stop
         id="stop2889"
         style="stop-color:#181818;stop-opacity:1"
         offset="0" />
      <stop
         id="stop2891"
         style="stop-color:#181818;stop-opacity:0"
         offset="1" />
    </linearGradient>
    <linearGradient
       x1="25.058096"
       y1="47.027729"
       x2="25.058096"
       y2="39.999443"
       id="linearGradient2877-634-617"
       xlink:href="#linearGradient3702-501-757"
       gradientUnits="userSpaceOnUse" />
    <linearGradient
       id="linearGradient3702-501-757">
      <stop
         id="stop2895"
         style="stop-color:#181818;stop-opacity:0"
         offset="0" />
      <stop
         id="stop2897"
         style="stop-color:#181818;stop-opacity:1"
         offset="0.5" />
      <stop
         id="stop2899"
         style="stop-color:#181818;stop-opacity:0"
         offset="1" />
    </linearGradient>
    <linearGradient
       x1="30"
       y1="33"
       x2="30"
       y2="15"
       id="linearGradient9507"
       xlink:href="#linearGradient25689"
       gradientUnits="userSpaceOnUse" />
    <linearGradient
       x1="30"
       y1="33"
       x2="30"
       y2="15"
       id="linearGradient9514"
       xlink:href="#linearGradient25689"
       gradientUnits="userSpaceOnUse" />
    <linearGradient
       x1="25"
       y1="44"
       x2="25"
       y2="6"
       id="linearGradient9746"
       xlink:href="#linearGradient25689"
       gradientUnits="userSpaceOnUse" />
    <radialGradient
       cx="23.676714"
       cy="21"
       r="3"
       fx="23.676714"
       fy="21"
       id="radialGradient3266"
       xlink:href="#linearGradient3260"
       gradientUnits="userSpaceOnUse"
       gradientTransform="matrix(0,1.5833333,-1.8938912,0,63.771715,-15.863131)" />
    <linearGradient
       id="linearGradient3260">
      <stop
         id="stop3262"
         style="stop-color:#fdf5f5;stop-opacity:1"
         offset="0" />
      <stop
         id="stop3286"
         style="stop-color:#ebe9e9;stop-opacity:1"
         offset="0.5" />
      <stop
         id="stop3264"
         style="stop-color:#959595;stop-opacity:1"
         offset="1" />
    </linearGradient>
    <linearGradient
       x1="25.462788"
       y1="27.095541"
       x2="25.462788"
       y2="21.226313"
       id="linearGradient3332"
       xlink:href="#linearGradient3326"
       gradientUnits="userSpaceOnUse"
       gradientTransform="matrix(0.7916668,0,0,0.7916668,4.9999983,4.9999983)" />
    <linearGradient
       id="linearGradient3326">
      <stop
         id="stop3328"
         style="stop-color:#797979;stop-opacity:1"
         offset="0" />
      <stop
         id="stop3330"
         style="stop-color:#fdf5f5;stop-opacity:1"
         offset="1" />
    </linearGradient>
    <radialGradient
       cx="24"
       cy="24"
       r="17"
       fx="24"
       fy="24"
       id="radialGradient2887"
       xlink:href="#linearGradient3301"
       gradientUnits="userSpaceOnUse" />
    <linearGradient
       id="linearGradient3301">
      <stop
         id="stop3303"
         style="stop-color:#ffffff;stop-opacity:0"
         offset="0" />
      <stop
         id="stop3309"
         style="stop-color:#ffffff;stop-opacity:0"
         offset="0.69999999" />
      <stop
         id="stop3305"
         style="stop-color:#000000;stop-opacity:1"
         offset="1" />
    </linearGradient>
    <linearGradient
       x1="29.050154"
       y1="7.0280032"
       x2="29.050154"
       y2="26.493914"
       id="linearGradient2889"
       xlink:href="#linearGradient3708"
       gradientUnits="userSpaceOnUse"
       gradientTransform="matrix(1,0,0,-1,1e-6,47.999998)" />
    <linearGradient
       id="linearGradient3708">
      <stop
         id="stop3710"
         style="stop-color:#000000;stop-opacity:1"
         offset="0" />
      <stop
         id="stop3712"
         style="stop-color:#000000;stop-opacity:1"
         offset="1" />
    </linearGradient>
    <filter
       color-interpolation-filters="sRGB"
       id="filter3759">
      <feGaussianBlur
         id="feGaussianBlur3761"
         stdDeviation="0.56367188" />
    </filter>
    <linearGradient
       x1="24.397675"
       y1="3.6018722"
       x2="24.397675"
       y2="26.091318"
       id="linearGradient2900"
       xlink:href="#linearGradient3996"
       gradientUnits="userSpaceOnUse"
       gradientTransform="translate(-0.3976755,0.3981273)" />
    <linearGradient
       id="linearGradient3996">
      <stop
         id="stop3998"
         style="stop-color:#ffffff;stop-opacity:1"
         offset="0" />
      <stop
         id="stop4000"
         style="stop-color:#ffffff;stop-opacity:0"
         offset="1" />
    </linearGradient>
    <radialGradient
       cx="27.411848"
       cy="12.080106"
       r="18.000002"
       fx="27.411848"
       fy="12.080106"
       id="radialGradient2903"
       xlink:href="#linearGradient3268"
       gradientUnits="userSpaceOnUse"
       gradientTransform="matrix(1.7637903e-8,1.7731075,-2.6591116,2.6451386e-8,59.480381,-17.99927)" />
    <linearGradient
       id="linearGradient3268">
      <stop
         id="stop3270"
         style="stop-color:#66e87a;stop-opacity:1"
         offset="0" />
      <stop
         id="stop3272"
         style="stop-color:#12604d;stop-opacity:1"
         offset="1" />
    </linearGradient>
    <linearGradient
       x1="29.050154"
       y1="7.0280032"
       x2="29.050154"
       y2="40.320171"
       id="linearGradient2905"
       xlink:href="#linearGradient2480"
       gradientUnits="userSpaceOnUse"
       gradientTransform="matrix(1.0606061,0,0,1.060606,-1.4545467,-1.4545435)" />
    <linearGradient
       id="linearGradient2480">
      <stop
         id="stop2482"
         style="stop-color:#636467;stop-opacity:1"
         offset="0" />
      <stop
         id="stop2484"
         style="stop-color:#fcfcfc;stop-opacity:1"
         offset="1" />
    </linearGradient>
    <radialGradient
       cx="24.011986"
       cy="24.003313"
       r="21"
       fx="24.011986"
       fy="24.003313"
       id="radialGradient2908"
       xlink:href="#linearGradient3334"
       gradientUnits="userSpaceOnUse"
       gradientTransform="matrix(0.9532054,0,0,0.9532054,1.1236313,1.1232247)" />
    <linearGradient
       id="linearGradient3334">
      <stop
         id="stop3336"
         style="stop-color:#ffffff;stop-opacity:1"
         offset="0" />
      <stop
         id="stop3338"
         style="stop-color:#dcdcdc;stop-opacity:1"
         offset="0.87326682" />
      <stop
         id="stop3340"
         style="stop-color:#a6a7aa;stop-opacity:1"
         offset="1" />
    </linearGradient>
    <linearGradient
       x1="7.5542169"
       y1="2.9999976"
       x2="7.5542169"
       y2="45.184376"
       id="linearGradient2910"
       xlink:href="#linearGradient3271"
       gradientUnits="userSpaceOnUse" />
    <linearGradient
       id="linearGradient3271">
      <stop
         id="stop3273"
         style="stop-color:#b3b3b3;stop-opacity:1"
         offset="0" />
      <stop
         id="stop3275"
         style="stop-color:#808080;stop-opacity:1"
         offset="1" />
    </linearGradient>
    <radialGradient
       cx="62.625"
       cy="4.625"
       r="10.625"
       fx="62.625"
       fy="4.625"
       id="radialGradient2913"
       xlink:href="#linearGradient8838"
       gradientUnits="userSpaceOnUse"
       gradientTransform="matrix(2.1647059,0,0,0.7529402,-111.56471,36.517647)" />
    <linearGradient
       id="linearGradient8838">
      <stop
         id="stop8840"
         style="stop-color:#000000;stop-opacity:1"
         offset="0" />
      <stop
         id="stop8842"
         style="stop-color:#000000;stop-opacity:0"
         offset="1" />
    </linearGradient>
    <radialGradient
       cx="24"
       cy="24"
       r="17"
       fx="24"
       fy="24"
       id="radialGradient4821"
       xlink:href="#linearGradient3301"
       gradientUnits="userSpaceOnUse"
       gradientTransform="translate(62.625,1.999999)" />
    <linearGradient
       x1="29.050154"
       y1="7.0280032"
       x2="29.050154"
       y2="26.493914"
       id="linearGradient4823"
       xlink:href="#linearGradient3708"
       gradientUnits="userSpaceOnUse"
       gradientTransform="matrix(1,0,0,-1,62.625001,49.999997)" />
    <linearGradient
       x1="24.397675"
       y1="3.6018722"
       x2="24.397675"
       y2="26.091318"
       id="linearGradient4827"
       xlink:href="#linearGradient3996"
       gradientUnits="userSpaceOnUse"
       gradientTransform="translate(62.227325,2.3981263)" />
    <radialGradient
       cx="27.411848"
       cy="12.080106"
       r="18.000002"
       fx="27.411848"
       fy="12.080106"
       id="radialGradient4830"
       xlink:href="#linearGradient3268"
       gradientUnits="userSpaceOnUse"
       gradientTransform="matrix(1.7637903e-8,1.7731075,-2.6591116,2.6451386e-8,122.10538,-15.999271)" />
    <linearGradient
       x1="29.050154"
       y1="7.0280032"
       x2="29.050154"
       y2="40.320171"
       id="linearGradient4832"
       xlink:href="#linearGradient2480"
       gradientUnits="userSpaceOnUse"
       gradientTransform="matrix(1.0606061,0,0,1.060606,61.170453,0.5454555)" />
    <radialGradient
       cx="24.011986"
       cy="24.003313"
       r="21"
       fx="24.011986"
       fy="24.003313"
       id="radialGradient4835"
       xlink:href="#linearGradient3334"
       gradientUnits="userSpaceOnUse"
       gradientTransform="matrix(0.9532054,0,0,0.9532054,63.748631,3.1232237)" />
    <linearGradient
       x1="7.5542169"
       y1="2.9999976"
       x2="7.5542169"
       y2="45.184376"
       id="linearGradient4837"
       xlink:href="#linearGradient3271"
       gradientUnits="userSpaceOnUse"
       gradientTransform="translate(62.625,1.999999)" />
    <radialGradient
       cx="62.625"
       cy="4.625"
       r="10.625"
       fx="62.625"
       fy="4.625"
       id="radialGradient4840"
       xlink:href="#linearGradient8838"
       gradientUnits="userSpaceOnUse"
       gradientTransform="matrix(2.1647059,0,0,0.7529402,-48.93971,38.517646)" />
    <linearGradient
       inkscape:collect="always"
       xlink:href="#linearGradient3924"
       id="linearGradient3870"
       gradientUnits="userSpaceOnUse"
       gradientTransform="translate(2.8e-6,0.96748162)"
       x1="23.99999"
       y1="4.999989"
       x2="23.99999"
       y2="43" />
    <radialGradient
       inkscape:collect="always"
       xlink:href="#linearGradient3268"
       id="radialGradient3873"
       gradientUnits="userSpaceOnUse"
       gradientTransform="matrix(1.9428467e-8,2.33699,-2.4722567,-4.3056275e-8,44.890102,-11.467327)"
       cx="7.4956832"
       cy="8.4497671"
       fx="7.4956832"
       fy="8.4497671"
       r="19.99999" />
    <linearGradient
       inkscape:collect="always"
       xlink:href="#linearGradient3257"
       id="linearGradient3888"
       x1="21.070795"
       y1="37.850742"
       x2="21.070795"
       y2="12.52455"
       gradientUnits="userSpaceOnUse"
       gradientTransform="translate(0,0.5004405)" />
    <linearGradient
       inkscape:collect="always"
       xlink:href="#linearGradient25689-3"
       id="linearGradient3842"
       x1="24.25301"
       y1="27.950199"
       x2="24.25301"
       y2="22.007576"
       gradientUnits="userSpaceOnUse"
       gradientTransform="translate(-53.734513,-5.9200774)" />
    <linearGradient
       id="linearGradient25689-3">
      <stop
         style="stop-color:#c8c8c8;stop-opacity:1;"
         offset="0"
         id="stop25691-4" />
      <stop
         style="stop-color:#ffffff;stop-opacity:1;"
         offset="1"
         id="stop25693-6" />
    </linearGradient>
    <linearGradient
       inkscape:collect="always"
       xlink:href="#linearGradient25689-3"
       id="linearGradient3128"
       gradientUnits="userSpaceOnUse"
       gradientTransform="translate(-53.734513,-5.9200774)"
       x1="24.25301"
       y1="27.950199"
       x2="24.25301"
       y2="22.007576" />
  </defs>
  <metadata
     id="metadata3326">
    <rdf:RDF>
      <cc:Work
         rdf:about="">
        <dc:format>image/svg+xml</dc:format>
        <dc:type
           rdf:resource="http://purl.org/dc/dcmitype/StillImage" />
        <dc:title />
      </cc:Work>
    </rdf:RDF>
  </metadata>
  <g
     style="display:inline"
     id="g2036"
     transform="matrix(1.1,0,0,0.4444449,-2.4000022,25.111102)">
    <g
       style="opacity:0.4"
       id="g3712"
       transform="matrix(1.052632,0,0,1.285713,-1.263158,-13.42854)">
      <rect
         style="fill:url(#radialGradient2873-966-168);fill-opacity:1;stroke:none"
         id="rect2801"
         y="40"
         x="38"
         height="7"
         width="5" />
      <rect
         style="fill:url(#radialGradient2875-742-326);fill-opacity:1;stroke:none"
         id="rect3696"
         transform="scale(-1,-1)"
         y="-47"
         x="-10"
         height="7"
         width="5" />
      <rect
         style="fill:url(#linearGradient2877-634-617);fill-opacity:1;stroke:none"
         id="rect3700"
         y="40"
         x="10"
         height="7.0000005"
         width="28" />
    </g>
  </g>
  <rect
     style="color:#000000;fill:url(#radialGradient3873);fill-opacity:1;fill-rule:nonzero;stroke:#0e5934;stroke-width:1;stroke-linecap:round;stroke-linejoin:round;stroke-miterlimit:4;stroke-opacity:1;stroke-dasharray:none;stroke-dashoffset:0;marker:none;visibility:visible;display:inline;overflow:visible;enable-background:accumulate"
     id="rect5505-21"
     y="5.4674716"
     x="4.499999"
     ry="2"
     rx="2"
     height="39"
     width="39" />
  <rect
     style="opacity:0.5;fill:none;stroke:url(#linearGradient3870);stroke-width:1;stroke-linecap:round;stroke-linejoin:round;stroke-miterlimit:4;stroke-opacity:1;stroke-dasharray:none;stroke-dashoffset:0"
     id="rect6741-2"
     y="6.4674716"
     x="5.499999"
     ry="1"
     rx="1"
     height="37"
     width="37" />
  <path
     inkscape:connector-curvature="0"
     style="fill:#000000;fill-opacity:1;stroke:none;opacity:0.1"
     id="path9714"
     d="m 39.959628,7.5156886 c -2.304745,-0.077858 -5.506275,2.0116037 -8.004949,2.1749297 -1.482415,0.09692 -3.025794,0.4835737 -4.440482,0.03021 -0.822328,-0.263514 -1.252409,-1.4621518 -2.114515,-1.5103675 -0.743734,-0.041601 -1.346622,0.6284465 -1.933271,1.0874645 -1.66927,1.3060557 -2.579435,3.5037087 -4.380066,4.6217257 -0.801758,0.497825 -1.7767,0.78775 -2.718662,0.845806 -1.364752,0.08412 -2.804759,-1.356284 -4.017579,-0.724977 -1.34039,0.697686 -2.440432,2.695885 -1.903063,4.108201 0.22643,0.595245 1.165025,1.00222 1.752026,0.755184 1.051943,-0.442704 0.06719,-3.181304 1.208295,-3.20198 0.716795,-0.01299 0.942797,1.283379 0.845806,1.993685 -0.08557,0.626734 -0.654769,1.124811 -1.178087,1.480161 -0.834054,0.566371 -1.987107,0.447982 -2.899906,0.876013 -0.6472486,0.303503 -1.8380864,0.465411 -1.7822342,1.178087 0.024007,0.305893 0.6495152,0.134722 0.8155986,0.392696 0.1237284,0.192153 0.152942,0.494708 0,0.664562 -0.3245846,0.360555 -1.0829129,-0.166159 -1.4499531,0.151036 -0.4265385,0.368451 -0.7334539,1.212542 -0.3926956,1.661405 0.3531921,0.46533 1.2158195,0.262062 1.7520266,0.03021 0.4703996,-0.203389 0.5983474,-0.8671 1.0270497,-1.147879 0.403026,-0.263989 0.887213,-0.549117 1.359331,-0.453111 0.564157,0.114727 0.815426,1.460486 1.298917,1.14788 0.468732,-0.303109 -0.984802,-1.355762 -0.483318,-1.60099 0.737265,-0.360525 0.617248,1.746187 1.389538,2.023893 0.223196,0.08026 0.581352,-0.0031 0.69477,-0.211452 0.101742,-0.186936 -0.26454,-0.408284 -0.181245,-0.604147 0.133332,-0.313511 0.668822,-0.208742 0.906221,-0.45311 0.273081,-0.281144 0.121988,-0.905388 0.483318,-1.057258 0.596048,-0.250504 1.437448,0.130562 1.842648,0.634355 0.128331,0.159528 0.182577,0.439873 0.06042,0.604147 -0.545658,0.73359 -2.3061,-0.377361 -2.688455,0.45311 -0.12388,0.268998 0.197213,0.636352 0.453111,0.785392 0.449981,0.26208 1.197929,-0.333259 1.570782,0.03021 0.181898,0.17747 0.137105,0.524502 0.03021,0.755184 -0.114277,0.246532 -0.400528,0.419085 -0.664562,0.483318 -0.77684,0.188974 -1.569074,-0.532876 -2.356174,-0.392696 -0.173664,0.03092 -0.277929,0.220838 -0.45311,0.241659 -0.526502,0.06258 -1.19382,-0.02771 -1.510368,-0.45311 -0.128833,-0.17317 0.156934,-0.486123 0,-0.634355 -0.813433,-0.768566 -2.3354422,-0.284542 -3.3530164,0.181244 -0.4980473,0.227972 -0.8326955,0.730128 -1.1478796,1.178087 -0.5130069,0.729102 -0.9319438,1.559754 -1.1780869,2.416589 -0.1372187,0.478425 -0.3177773,1.01115 -0.1510368,1.48016 0.2767207,0.77825 0.9650782,1.501158 1.7520267,1.752027 0.650332,0.207305 1.3438929,-0.391391 2.0238929,-0.332281 0.6041351,0.05252 1.4083711,0.06795 1.6916121,0.604147 0.1165,0.220574 -0.176218,0.475538 -0.181244,0.724976 -0.0032,0.274063 0.07404,0.533143 0.181244,0.785392 0.23007,0.541316 0.966635,0.891981 0.966635,1.48016 8.09e-4,0.496637 -0.740443,0.777789 -0.815599,1.268709 -0.10341,0.675875 0.308104,1.351835 0.543733,1.993686 0.256453,0.698448 0.367572,1.514081 0.936428,1.993685 0.181347,0.152902 0.459292,0.239909 0.694769,0.211452 0.823997,-0.09961 1.518583,-0.730498 2.17493,-1.238502 0.347986,-0.269316 0.773142,-0.51703 0.90622,-0.936428 0.128176,-0.403921 -0.333428,-0.873207 -0.181244,-1.268709 0.194437,-0.505247 1.047686,-0.532844 1.268709,-1.02705 0.352787,-0.78894 -0.371116,-1.770643 -0.120829,-2.597833 0.37356,-1.234807 2.990012,-2.024013 2.295759,-3.111357 -0.278743,-0.436531 -1.065323,0.507964 -1.540575,0.302073 -1.302837,-0.564444 -2.397991,-2.214345 -2.235345,-3.624883 0.01855,-0.160538 0.170899,-0.34098 0.332281,-0.332281 1.334527,0.07193 1.180113,2.95362 2.507211,3.111358 0.970923,0.115399 2.107521,-0.829213 2.325966,-1.782234 0.07612,-0.33208 -0.163298,-0.727108 -0.45311,-0.906221 -0.269998,-0.166877 -0.658798,0.153877 -0.936428,0 -0.20955,-0.116132 -0.542454,-0.417174 -0.392696,-0.604147 0.597514,-0.745913 1.770854,0.669249 2.688455,0.936428 0.700823,0.20405 1.621101,0.005 2.144722,0.513525 0.715836,0.695174 0.08478,2.130635 0.755184,2.869699 0.245587,0.270772 0.720509,0.591869 1.02705,0.392696 0.501434,-0.325783 -0.125514,-1.23736 0.12083,-1.782234 0.258879,-0.572663 0.714475,-1.198057 1.329123,-1.329124 0.452003,-0.09639 0.894323,0.259976 1.298917,0.483318 1.000439,0.552203 1.610043,2.148357 2.748869,2.0541 0.384831,-0.03185 0.726001,-0.464239 0.785391,-0.845806 0.08471,-0.544257 -0.953529,-0.979005 -0.724976,-1.48016 0.305429,-0.669731 1.593455,-0.08618 2.144722,-0.57394 0.533276,-0.47183 0.862606,-1.252981 0.815599,-1.963478 -0.05762,-0.873721 -1.501642,-1.443929 -1.298916,-2.295759 0.06359,-0.267214 0.392491,-0.490664 0.664561,-0.453111 0.69577,0.09598 0.692305,1.516236 1.389539,1.60099 0.216828,0.02636 0.457779,-0.181478 0.513525,-0.392695 0.09997,-0.378994 -0.398815,-0.67452 -0.483318,-1.057258 -0.06298,-0.285156 -0.155924,-0.629093 0,-0.876013 0.157642,-0.249711 0.619106,-0.14865 0.785391,-0.392696 0.716695,-1.051816 1.064425,-2.810195 0.271867,-3.806127 -0.304116,-0.382207 -1.18405,0.198298 -1.449954,-0.211451 -0.372195,-0.573568 0.05201,-1.51862 0.543733,-1.993686 0.403128,-0.389412 1.184351,-0.05426 1.631197,-0.392695 0.462062,-0.349962 0.280083,-1.384118 0.845806,-1.510368 0.33712,-0.07523 0.722987,0.281336 0.845806,0.604147 0.254179,0.668021 -0.59104,1.413201 -0.45311,2.114515 0.133887,0.680764 0.491869,1.793986 1.178087,1.691612 0.540143,-0.08058 0.516173,-0.995437 0.483317,-1.540575 -0.02749,-0.459427 -0.447583,-0.826154 -0.573939,-1.268709 -0.08092,-0.283182 -0.278927,-0.627521 -0.12083,-0.876014 0.157288,-0.247328 0.61988,-0.08506 0.845806,-0.271866 0.656699,-0.543075 1.320954,-1.390626 1.208294,-2.235344 -0.05105,-0.382769 -0.709017,-0.467273 -0.785391,-0.845806 -0.169274,-0.839078 1.43398,-1.7124957 0.906214,-2.38639 C 41.378236,7.8252021 40.727876,7.541641 39.959628,7.5156886 z M 39.717969,34.672102 c -0.569511,0.03261 -0.07992,1.375612 -0.604147,1.60099 -0.303306,0.130379 -0.756362,-0.09854 -0.906221,-0.392696 -0.124385,-0.244227 0.377754,-0.594355 0.181244,-0.785391 -0.386499,-0.375673 -1.073864,0.153338 -1.540575,0.422903 -0.0933,0.05388 -0.133952,0.214448 -0.241659,0.211451 -0.170733,-0.0044 -0.163215,-0.337974 -0.33228,-0.362488 -0.456855,-0.06628 -0.78977,0.475362 -1.178087,0.724976 -0.630975,0.405574 -1.493585,0.591379 -1.872856,1.238502 -0.547579,0.934244 -1.037991,2.497059 -0.271867,3.262394 0.432645,0.432232 1.201988,-0.114188 1.812442,-0.151036 1.014592,-0.06128 2.28694,-0.791277 3.050943,-0.12083 0.412124,0.361668 -0.230509,1.2374 0.151036,1.631198 0.498604,0.514625 1.511474,0.60718 2.144723,0.271866 1.134125,-0.600532 1.757053,-2.160322 1.752026,-3.443639 -0.0045,-1.544622 -0.602617,-4.196483 -2.144722,-4.1082 z" />
  <g
     id="g3117"
     transform="translate(53.734512,6.4187988)">
    <path
       sodipodi:nodetypes="cccccccccccccccccccccccccssssss"
       style="opacity:0.15;fill:#000000;fill-opacity:1;fill-rule:nonzero;stroke:none"
       d="m -29.734513,2.5486726 -1.53125,6.65625 c -1.612523,0.284082 -3.120328,0.9816324 -4.3125,2.0000004 l -1.90625,-0.90625 0.90625,1.90625 c -1.018368,1.192172 -1.715918,2.699977 -2,4.3125 l -6.65625,1.53125 6.65625,1.53125 c 0.284082,1.612523 0.981632,3.120328 2,4.3125 l -0.90625,1.90625 1.90625,-0.90625 c 1.192172,1.018368 2.699977,1.715918 4.3125,2 l 1.53125,6.65625 1.53125,-6.65625 c 1.612742,-0.284121 3.120296,-0.981733 4.3125,-2 l 1.90625,0.90625 -0.90625,-1.90625 c 1.018341,-1.192107 1.716148,-2.699665 2,-4.3125 l 6.65625,-1.53125 -6.65625,-1.53125 c -0.283852,-1.612835 -0.981659,-3.120393 -2,-4.3125 l 0.90625,-1.90625 -1.90625,0.90625 c -1.192204,-1.018267 -2.699758,-1.7158794 -4.3125,-2.0000004 z m 0,7.5000004 c 4.418278,-1e-6 8.000001,3.581722 8,8 1e-6,4.418278 -3.581722,8.000001 -8,8 -4.418278,10e-7 -8.000001,-3.581722 -8,-8 -10e-7,-2.209139 0.896034,-4.208535 2.34375,-5.65625 1.447715,-1.447716 3.447111,-2.343751 5.65625,-2.34375 z"
       id="path3844"
       inkscape:connector-curvature="0" />
    <path
       sodipodi:nodetypes="cccccccccccccccccccccccccssssss"
       inkscape:connector-curvature="0"
       id="path3042"
       d="m -29.734513,3.5486726 -1.53125,6.6562504 c -1.612523,0.284082 -3.120328,0.981632 -4.3125,2 l -1.90625,-0.90625 0.90625,1.90625 c -1.018368,1.192172 -1.715918,2.699977 -2,4.3125 l -6.65625,1.53125 6.65625,1.53125 c 0.284082,1.612523 0.981632,3.120328 2,4.3125 l -0.90625,1.90625 1.90625,-0.90625 c 1.192172,1.018368 2.699977,1.715918 4.3125,2 l 1.53125,6.65625 1.53125,-6.65625 c 1.612742,-0.284121 3.120296,-0.981733 4.3125,-2 l 1.90625,0.90625 -0.90625,-1.90625 c 1.018341,-1.192107 1.716148,-2.699665 2,-4.3125 l 6.65625,-1.53125 -6.65625,-1.53125 c -0.283852,-1.612835 -0.981659,-3.120393 -2,-4.3125 l 0.90625,-1.90625 -1.90625,0.90625 c -1.192204,-1.018267 -2.699758,-1.715879 -4.3125,-2 z m 0,7.5000004 c 4.418278,-1e-6 8.000001,3.581722 8,8 1e-6,4.418278 -3.581722,8.000001 -8,8 -4.418278,10e-7 -8.000001,-3.581722 -8,-8 -10e-7,-2.209139 0.896034,-4.208535 2.34375,-5.65625 1.447715,-1.447716 3.447111,-2.343751 5.65625,-2.34375 z"
       style="fill:#ffffff;fill-opacity:1;fill-rule:nonzero;stroke:none" />
    <path
       id="path3823"
       d="m -15.578263,3.8921726 -15.9375,12.3750004 -12.375,15.9375 15.9375,-12.375 12.375,-15.9375004 z"
       style="opacity:0.1;fill:#000000;fill-opacity:1;fill-rule:nonzero;stroke:none"
       inkscape:connector-curvature="0" />
    <path
       transform="matrix(-0.2130948,-0.2130948,0.98424272,-0.98424272,-33.634339,28.523689)"
       inkscape:transform-center-y="3.3333318"
       d="M 13.081476,21.163029 4.7857927,6.7944839 l 16.5913663,-5e-7 z"
       inkscape:randomized="0"
       inkscape:rounded="0"
       inkscape:flatsided="true"
       sodipodi:arg2="2.6179939"
       sodipodi:arg1="1.5707963"
       sodipodi:r2="4.789515"
       sodipodi:r1="9.57903"
       sodipodi:cy="11.583999"
       sodipodi:cx="13.081476"
       sodipodi:sides="3"
       id="path3043"
       style="fill:#000000;fill-opacity:1;fill-rule:nonzero;stroke:none"
       sodipodi:type="star" />
    <path
       sodipodi:type="star"
       style="fill:#de220c;fill-opacity:1;fill-rule:nonzero;stroke:none"
       id="path3815"
       sodipodi:sides="3"
       sodipodi:cx="13.081476"
       sodipodi:cy="11.583999"
       sodipodi:r1="9.57903"
       sodipodi:r2="4.789515"
       sodipodi:arg1="1.5707963"
       sodipodi:arg2="2.6179939"
       inkscape:flatsided="true"
       inkscape:rounded="0"
       inkscape:randomized="0"
       d="M 13.081476,21.163029 4.7857927,6.7944839 l 16.5913663,-5e-7 z"
       inkscape:transform-center-y="-3.3333319"
       transform="matrix(-0.2130948,-0.2130948,-0.98424272,0.98424272,-20.259497,15.148847)" />
    <path
       sodipodi:nodetypes="cccc"
       inkscape:connector-curvature="0"
       id="path3834"
       d="M -43.876649,33.190809 -27.966746,20.81644 -29.734512,19.048673 z"
       inkscape:transform-center-y="-3.3333319"
       style="opacity:0.35;fill:#000000;fill-opacity:1;fill-rule:nonzero;stroke:none" />
    <path
       sodipodi:nodetypes="cccc"
       inkscape:connector-curvature="0"
       id="path3832"
       d="M -15.592377,4.9065376 -29.734513,19.048673 -31.50228,17.280907 z"
       inkscape:transform-center-y="3.3333318"
       style="opacity:0.35;fill:#ffffff;fill-opacity:1;fill-rule:nonzero;stroke:none" />
    <path
       inkscape:connector-curvature="0"
       id="path3840"
       d="m -29.734513,15.048673 c -1.656854,0 -3,1.343146 -3,3 0,1.656854 1.343146,3 3,3 1.656854,0 3,-1.343146 3,-3 0,-1.656854 -1.343146,-3 -3,-3 z"
       style="opacity:0.1;fill:#000000;fill-opacity:1;fill-rule:nonzero;stroke:none"
       sodipodi:nodetypes="sssss" />
    <path
       sodipodi:nodetypes="sssss"
       style="fill:url(#linearGradient3128);fill-opacity:1;fill-rule:nonzero;stroke:none"
       d="m -29.734513,16.048673 c -1.656854,0 -3,1.343146 -3,3 0,1.656854 1.343146,3 3,3 1.656854,0 3,-1.343146 3,-3 0,-1.656854 -1.343146,-3 -3,-3 z"
       id="path3813"
       inkscape:connector-curvature="0" />
  </g>
</svg>
