<?xml version="1.0" encoding="UTF-8" standalone="no"?>
<!-- Created with Inkscape (http://www.inkscape.org/) -->

<svg
   xmlns:dc="http://purl.org/dc/elements/1.1/"
   xmlns:cc="http://creativecommons.org/ns#"
   xmlns:rdf="http://www.w3.org/1999/02/22-rdf-syntax-ns#"
   xmlns:svg="http://www.w3.org/2000/svg"
   xmlns="http://www.w3.org/2000/svg"
   xmlns:xlink="http://www.w3.org/1999/xlink"
   xmlns:sodipodi="http://sodipodi.sourceforge.net/DTD/sodipodi-0.dtd"
   xmlns:inkscape="http://www.inkscape.org/namespaces/inkscape"
   width="96"
   height="96"
   id="svg2"
   version="1.1"
   inkscape:version="0.48.3.1 r9886"
   sodipodi:docname="image-x-ico.svg">
  <defs
     id="defs4">
    <linearGradient
       id="linearGradient3804">
      <stop
         style="stop-color:#11a699;stop-opacity:1;"
         offset="0"
         id="stop3806" />
      <stop
         style="stop-color:#006464;stop-opacity:1;"
         offset="1"
         id="stop3808" />
    </linearGradient>
    <linearGradient
       id="linearGradient3796">
      <stop
         style="stop-color:#72eac3;stop-opacity:1;"
         offset="0"
         id="stop3798" />
      <stop
         style="stop-color:#1da093;stop-opacity:1;"
         offset="1"
         id="stop3800" />
    </linearGradient>
    <linearGradient
       id="linearGradient3786">
      <stop
         style="stop-color:#646464;stop-opacity:1;"
         offset="0"
         id="stop3788" />
      <stop
         style="stop-color:#8c8c8c;stop-opacity:1;"
         offset="1"
         id="stop3790" />
    </linearGradient>
    <linearGradient
       id="linearGradient3776">
      <stop
         style="stop-color:#fafafa;stop-opacity:1;"
         offset="0"
         id="stop3778" />
      <stop
         style="stop-color:#c8c8c8;stop-opacity:1;"
         offset="1"
         id="stop3780" />
    </linearGradient>
    <linearGradient
       id="linearGradient3817">
      <stop
         style="stop-color:#ffffff;stop-opacity:1;"
         offset="0"
         id="stop3819" />
      <stop
         id="stop3827"
         offset="0.05455951"
         style="stop-color:#ffffff;stop-opacity:0.23529412;" />
      <stop
         id="stop3825"
         offset="0.95526141"
         style="stop-color:#ffffff;stop-opacity:0.15686275;" />
      <stop
         style="stop-color:#ffffff;stop-opacity:0.39215687;"
         offset="1"
         id="stop3821" />
    </linearGradient>
    <radialGradient
       cx="4.9929786"
       cy="43.5"
       r="2.5"
       fx="4.9929786"
       fy="43.5"
       id="radialGradient2873-966-168"
       xlink:href="#linearGradient3688-166-749"
       gradientUnits="userSpaceOnUse"
       gradientTransform="matrix(2.003784,0,0,1.4,27.98813,-17.4)" />
    <linearGradient
       id="linearGradient3688-166-749">
      <stop
         id="stop2883"
         style="stop-color:#181818;stop-opacity:1"
         offset="0" />
      <stop
         id="stop2885"
         style="stop-color:#181818;stop-opacity:0"
         offset="1" />
    </linearGradient>
    <radialGradient
       cx="4.9929786"
       cy="43.5"
       r="2.5"
       fx="4.9929786"
       fy="43.5"
       id="radialGradient2875-742-326"
       xlink:href="#linearGradient3688-464-309"
       gradientUnits="userSpaceOnUse"
       gradientTransform="matrix(2.003784,0,0,1.4,-20.01187,-104.4)" />
    <linearGradient
       id="linearGradient3688-464-309">
      <stop
         id="stop2889"
         style="stop-color:#181818;stop-opacity:1"
         offset="0" />
      <stop
         id="stop2891"
         style="stop-color:#181818;stop-opacity:0"
         offset="1" />
    </linearGradient>
    <linearGradient
       x1="25.058096"
       y1="47.027729"
       x2="25.058096"
       y2="39.999443"
       id="linearGradient2877-634-617"
       xlink:href="#linearGradient3702-501-757"
       gradientUnits="userSpaceOnUse" />
    <linearGradient
       id="linearGradient3702-501-757">
      <stop
         id="stop2895"
         style="stop-color:#181818;stop-opacity:0"
         offset="0" />
      <stop
         id="stop2897"
         style="stop-color:#181818;stop-opacity:1"
         offset="0.5" />
      <stop
         id="stop2899"
         style="stop-color:#181818;stop-opacity:0"
         offset="1" />
    </linearGradient>
    <linearGradient
       inkscape:collect="always"
       xlink:href="#linearGradient3817"
       id="linearGradient3823"
       x1="47.214287"
       y1="965.25507"
       x2="47.214287"
       y2="1042.9185"
       gradientUnits="userSpaceOnUse" />
    <radialGradient
       inkscape:collect="always"
       xlink:href="#linearGradient3776"
       id="radialGradient3784"
       cx="48.357143"
       cy="970.43353"
       fx="48.357143"
       fy="970.43353"
       r="40"
       gradientUnits="userSpaceOnUse"
       gradientTransform="matrix(0,2.2322848,-2.0089472,0,1997.9069,862.48666)" />
    <linearGradient
       inkscape:collect="always"
       xlink:href="#linearGradient3786"
       id="linearGradient3792"
       x1="23.714285"
       y1="1044.0563"
       x2="23.714285"
       y2="964.36218"
       gradientUnits="userSpaceOnUse" />
    <radialGradient
       inkscape:collect="always"
       xlink:href="#linearGradient3796"
       id="radialGradient3802"
       cx="48.17857"
       cy="979.005"
       fx="48.17857"
       fy="979.005"
       r="32"
       gradientUnits="userSpaceOnUse"
       gradientTransform="matrix(-7.7445643e-7,1.8812214,-1.6588201,-6.8289883e-7,1672.1718,888.37118)" />
    <linearGradient
       inkscape:collect="always"
       xlink:href="#linearGradient3804"
       id="linearGradient3810"
       x1="29.571428"
       y1="972.93359"
       x2="29.571428"
       y2="1035.8589"
       gradientUnits="userSpaceOnUse" />
    <linearGradient
       id="linearGradient3961">
      <stop
         style="stop-color:#ffffff;stop-opacity:0;"
         offset="0"
         id="stop3963" />
      <stop
         id="stop3971"
         offset="0.25"
         style="stop-color:#ffffff;stop-opacity:1;" />
      <stop
         id="stop3969"
         offset="0.5"
         style="stop-color:#ffffff;stop-opacity:1;" />
      <stop
         style="stop-color:#ffffff;stop-opacity:0;"
         offset="1"
         id="stop3965" />
    </linearGradient>
    <linearGradient
       id="linearGradient4163">
      <stop
         style="stop-color:#ffffff;stop-opacity:0;"
         offset="0"
         id="stop4165" />
      <stop
         id="stop4167"
         offset="0.25"
         style="stop-color:#ffffff;stop-opacity:1;" />
      <stop
         id="stop4169"
         offset="0.5"
         style="stop-color:#ffffff;stop-opacity:1;" />
      <stop
         style="stop-color:#ffffff;stop-opacity:0;"
         offset="1"
         id="stop4171" />
    </linearGradient>
    <linearGradient
       id="linearGradient4174">
      <stop
         style="stop-color:#ffffff;stop-opacity:0;"
         offset="0"
         id="stop4176" />
      <stop
         id="stop4178"
         offset="0.25"
         style="stop-color:#ffffff;stop-opacity:1;" />
      <stop
         id="stop4180"
         offset="0.5"
         style="stop-color:#ffffff;stop-opacity:1;" />
      <stop
         style="stop-color:#ffffff;stop-opacity:0;"
         offset="1"
         id="stop4182" />
    </linearGradient>
    <linearGradient
       id="linearGradient4185">
      <stop
         style="stop-color:#ffffff;stop-opacity:0;"
         offset="0"
         id="stop4187" />
      <stop
         id="stop4189"
         offset="0.25"
         style="stop-color:#ffffff;stop-opacity:1;" />
      <stop
         id="stop4191"
         offset="0.5"
         style="stop-color:#ffffff;stop-opacity:1;" />
      <stop
         style="stop-color:#ffffff;stop-opacity:0;"
         offset="1"
         id="stop4193" />
    </linearGradient>
    <linearGradient
       id="linearGradient4196">
      <stop
         style="stop-color:#ffffff;stop-opacity:0;"
         offset="0"
         id="stop4198" />
      <stop
         id="stop4200"
         offset="0.25"
         style="stop-color:#ffffff;stop-opacity:1;" />
      <stop
         id="stop4202"
         offset="0.5"
         style="stop-color:#ffffff;stop-opacity:1;" />
      <stop
         style="stop-color:#ffffff;stop-opacity:0;"
         offset="1"
         id="stop4204" />
    </linearGradient>
    <linearGradient
       id="linearGradient4207">
      <stop
         style="stop-color:#ffffff;stop-opacity:0;"
         offset="0"
         id="stop4209" />
      <stop
         id="stop4211"
         offset="0.25"
         style="stop-color:#ffffff;stop-opacity:1;" />
      <stop
         id="stop4213"
         offset="0.5"
         style="stop-color:#ffffff;stop-opacity:1;" />
      <stop
         style="stop-color:#ffffff;stop-opacity:0;"
         offset="1"
         id="stop4215" />
    </linearGradient>
    <linearGradient
       id="linearGradient4218">
      <stop
         style="stop-color:#ffffff;stop-opacity:0;"
         offset="0"
         id="stop4220" />
      <stop
         id="stop4222"
         offset="0.25"
         style="stop-color:#ffffff;stop-opacity:1;" />
      <stop
         id="stop4224"
         offset="0.5"
         style="stop-color:#ffffff;stop-opacity:1;" />
      <stop
         style="stop-color:#ffffff;stop-opacity:0;"
         offset="1"
         id="stop4226" />
    </linearGradient>
    <linearGradient
       id="linearGradient4229">
      <stop
         style="stop-color:#ffffff;stop-opacity:0;"
         offset="0"
         id="stop4231" />
      <stop
         id="stop4233"
         offset="0.25"
         style="stop-color:#ffffff;stop-opacity:1;" />
      <stop
         id="stop4235"
         offset="0.5"
         style="stop-color:#ffffff;stop-opacity:1;" />
      <stop
         style="stop-color:#ffffff;stop-opacity:0;"
         offset="1"
         id="stop4237" />
    </linearGradient>
    <linearGradient
       id="linearGradient4240">
      <stop
         style="stop-color:#ffffff;stop-opacity:0;"
         offset="0"
         id="stop4242" />
      <stop
         id="stop4244"
         offset="0.25"
         style="stop-color:#ffffff;stop-opacity:1;" />
      <stop
         id="stop4246"
         offset="0.5"
         style="stop-color:#ffffff;stop-opacity:1;" />
      <stop
         style="stop-color:#ffffff;stop-opacity:0;"
         offset="1"
         id="stop4248" />
    </linearGradient>
    <linearGradient
       id="linearGradient4251">
      <stop
         style="stop-color:#ffffff;stop-opacity:0;"
         offset="0"
         id="stop4253" />
      <stop
         id="stop4255"
         offset="0.25"
         style="stop-color:#ffffff;stop-opacity:1;" />
      <stop
         id="stop4257"
         offset="0.5"
         style="stop-color:#ffffff;stop-opacity:1;" />
      <stop
         style="stop-color:#ffffff;stop-opacity:0;"
         offset="1"
         id="stop4259" />
    </linearGradient>
    <linearGradient
       id="linearGradient4262">
      <stop
         style="stop-color:#ffffff;stop-opacity:0;"
         offset="0"
         id="stop4264" />
      <stop
         id="stop4266"
         offset="0.25"
         style="stop-color:#ffffff;stop-opacity:1;" />
      <stop
         id="stop4268"
         offset="0.5"
         style="stop-color:#ffffff;stop-opacity:1;" />
      <stop
         style="stop-color:#ffffff;stop-opacity:0;"
         offset="1"
         id="stop4270" />
    </linearGradient>
    <linearGradient
       id="linearGradient4273">
      <stop
         style="stop-color:#ffffff;stop-opacity:0;"
         offset="0"
         id="stop4275" />
      <stop
         id="stop4277"
         offset="0.25"
         style="stop-color:#ffffff;stop-opacity:1;" />
      <stop
         id="stop4279"
         offset="0.5"
         style="stop-color:#ffffff;stop-opacity:1;" />
      <stop
         style="stop-color:#ffffff;stop-opacity:0;"
         offset="1"
         id="stop4281" />
    </linearGradient>
    <linearGradient
       id="linearGradient4284">
      <stop
         style="stop-color:#ffffff;stop-opacity:0;"
         offset="0"
         id="stop4286" />
      <stop
         id="stop4288"
         offset="0.25"
         style="stop-color:#ffffff;stop-opacity:1;" />
      <stop
         id="stop4290"
         offset="0.5"
         style="stop-color:#ffffff;stop-opacity:1;" />
      <stop
         style="stop-color:#ffffff;stop-opacity:0;"
         offset="1"
         id="stop4292" />
    </linearGradient>
    <linearGradient
       id="linearGradient4295">
      <stop
         style="stop-color:#ffffff;stop-opacity:0;"
         offset="0"
         id="stop4297" />
      <stop
         id="stop4299"
         offset="0.25"
         style="stop-color:#ffffff;stop-opacity:1;" />
      <stop
         id="stop4301"
         offset="0.5"
         style="stop-color:#ffffff;stop-opacity:1;" />
      <stop
         style="stop-color:#ffffff;stop-opacity:0;"
         offset="1"
         id="stop4303" />
    </linearGradient>
    <linearGradient
       id="linearGradient4306">
      <stop
         style="stop-color:#ffffff;stop-opacity:0;"
         offset="0"
         id="stop4308" />
      <stop
         id="stop4310"
         offset="0.25"
         style="stop-color:#ffffff;stop-opacity:1;" />
      <stop
         id="stop4312"
         offset="0.5"
         style="stop-color:#ffffff;stop-opacity:1;" />
      <stop
         style="stop-color:#ffffff;stop-opacity:0;"
         offset="1"
         id="stop4314" />
    </linearGradient>
    <linearGradient
       id="linearGradient4317">
      <stop
         style="stop-color:#ffffff;stop-opacity:0;"
         offset="0"
         id="stop4319" />
      <stop
         id="stop4321"
         offset="0.25"
         style="stop-color:#ffffff;stop-opacity:1;" />
      <stop
         id="stop4323"
         offset="0.5"
         style="stop-color:#ffffff;stop-opacity:1;" />
      <stop
         style="stop-color:#ffffff;stop-opacity:0;"
         offset="1"
         id="stop4325" />
    </linearGradient>
    <linearGradient
       id="linearGradient4328">
      <stop
         style="stop-color:#ffffff;stop-opacity:0;"
         offset="0"
         id="stop4330" />
      <stop
         id="stop4332"
         offset="0.25"
         style="stop-color:#ffffff;stop-opacity:1;" />
      <stop
         id="stop4334"
         offset="0.5"
         style="stop-color:#ffffff;stop-opacity:1;" />
      <stop
         style="stop-color:#ffffff;stop-opacity:0;"
         offset="1"
         id="stop4336" />
    </linearGradient>
    <linearGradient
       id="linearGradient4339">
      <stop
         style="stop-color:#ffffff;stop-opacity:0;"
         offset="0"
         id="stop4341" />
      <stop
         id="stop4343"
         offset="0.25"
         style="stop-color:#ffffff;stop-opacity:1;" />
      <stop
         id="stop4345"
         offset="0.5"
         style="stop-color:#ffffff;stop-opacity:1;" />
      <stop
         style="stop-color:#ffffff;stop-opacity:0;"
         offset="1"
         id="stop4347" />
    </linearGradient>
    <linearGradient
       id="linearGradient4350">
      <stop
         style="stop-color:#ffffff;stop-opacity:0;"
         offset="0"
         id="stop4352" />
      <stop
         id="stop4354"
         offset="0.25"
         style="stop-color:#ffffff;stop-opacity:1;" />
      <stop
         id="stop4356"
         offset="0.5"
         style="stop-color:#ffffff;stop-opacity:1;" />
      <stop
         style="stop-color:#ffffff;stop-opacity:0;"
         offset="1"
         id="stop4358" />
    </linearGradient>
    <linearGradient
       id="linearGradient4361">
      <stop
         style="stop-color:#ffffff;stop-opacity:0;"
         offset="0"
         id="stop4363" />
      <stop
         id="stop4365"
         offset="0.25"
         style="stop-color:#ffffff;stop-opacity:1;" />
      <stop
         id="stop4367"
         offset="0.5"
         style="stop-color:#ffffff;stop-opacity:1;" />
      <stop
         style="stop-color:#ffffff;stop-opacity:0;"
         offset="1"
         id="stop4369" />
    </linearGradient>
    <linearGradient
       id="linearGradient4372">
      <stop
         style="stop-color:#ffffff;stop-opacity:0;"
         offset="0"
         id="stop4374" />
      <stop
         id="stop4376"
         offset="0.25"
         style="stop-color:#ffffff;stop-opacity:1;" />
      <stop
         id="stop4378"
         offset="0.5"
         style="stop-color:#ffffff;stop-opacity:1;" />
      <stop
         style="stop-color:#ffffff;stop-opacity:0;"
         offset="1"
         id="stop4380" />
    </linearGradient>
    <linearGradient
       id="linearGradient4383">
      <stop
         style="stop-color:#ffffff;stop-opacity:0;"
         offset="0"
         id="stop4385" />
      <stop
         id="stop4387"
         offset="0.25"
         style="stop-color:#ffffff;stop-opacity:1;" />
      <stop
         id="stop4389"
         offset="0.5"
         style="stop-color:#ffffff;stop-opacity:1;" />
      <stop
         style="stop-color:#ffffff;stop-opacity:0;"
         offset="1"
         id="stop4391" />
    </linearGradient>
    <linearGradient
       id="linearGradient4394">
      <stop
         style="stop-color:#ffffff;stop-opacity:0;"
         offset="0"
         id="stop4396" />
      <stop
         id="stop4398"
         offset="0.25"
         style="stop-color:#ffffff;stop-opacity:1;" />
      <stop
         id="stop4400"
         offset="0.5"
         style="stop-color:#ffffff;stop-opacity:1;" />
      <stop
         style="stop-color:#ffffff;stop-opacity:0;"
         offset="1"
         id="stop4402" />
    </linearGradient>
    <linearGradient
       id="linearGradient4405">
      <stop
         style="stop-color:#ffffff;stop-opacity:0;"
         offset="0"
         id="stop4407" />
      <stop
         id="stop4409"
         offset="0.25"
         style="stop-color:#ffffff;stop-opacity:1;" />
      <stop
         id="stop4411"
         offset="0.5"
         style="stop-color:#ffffff;stop-opacity:1;" />
      <stop
         style="stop-color:#ffffff;stop-opacity:0;"
         offset="1"
         id="stop4413" />
    </linearGradient>
    <linearGradient
       id="linearGradient4416">
      <stop
         style="stop-color:#ffffff;stop-opacity:0;"
         offset="0"
         id="stop4418" />
      <stop
         id="stop4420"
         offset="0.25"
         style="stop-color:#ffffff;stop-opacity:1;" />
      <stop
         id="stop4422"
         offset="0.5"
         style="stop-color:#ffffff;stop-opacity:1;" />
      <stop
         style="stop-color:#ffffff;stop-opacity:0;"
         offset="1"
         id="stop4424" />
    </linearGradient>
    <linearGradient
       id="linearGradient4427">
      <stop
         style="stop-color:#ffffff;stop-opacity:0;"
         offset="0"
         id="stop4429" />
      <stop
         id="stop4431"
         offset="0.25"
         style="stop-color:#ffffff;stop-opacity:1;" />
      <stop
         id="stop4433"
         offset="0.5"
         style="stop-color:#ffffff;stop-opacity:1;" />
      <stop
         style="stop-color:#ffffff;stop-opacity:0;"
         offset="1"
         id="stop4435" />
    </linearGradient>
  </defs>
  <sodipodi:namedview
     id="base"
     pagecolor="#ffffff"
     bordercolor="#666666"
     borderopacity="1.0"
     inkscape:pageopacity="0.0"
     inkscape:pageshadow="2"
     inkscape:zoom="1.979899"
     inkscape:cx="26.772504"
     inkscape:cy="106.9315"
     inkscape:document-units="px"
     inkscape:current-layer="layer1"
     showgrid="false"
     inkscape:window-width="1280"
     inkscape:window-height="756"
     inkscape:window-x="0"
     inkscape:window-y="24"
     inkscape:window-maximized="1" />
  <metadata
     id="metadata7">
    <rdf:RDF>
      <cc:Work
         rdf:about="">
        <dc:format>image/svg+xml</dc:format>
        <dc:type
           rdf:resource="http://purl.org/dc/dcmitype/StillImage" />
        <dc:title />
      </cc:Work>
    </rdf:RDF>
  </metadata>
  <g
     inkscape:label="Livello 1"
     inkscape:groupmode="layer"
     id="layer1"
     transform="translate(0,-956.36218)">
    <g
       style="display:inline"
       id="g2036"
       transform="matrix(2.1999991,0,0,0.88888944,-4.8000008,1006.5844)">
      <g
         style="opacity:0.4"
         id="g3712"
         transform="matrix(1.052632,0,0,1.285713,-1.263158,-13.42854)">
        <rect
           style="fill:url(#radialGradient2873-966-168);fill-opacity:1;stroke:none"
           id="rect2801"
           y="40"
           x="38"
           height="7"
           width="5" />
        <rect
           style="fill:url(#radialGradient2875-742-326);fill-opacity:1;stroke:none"
           id="rect3696"
           transform="scale(-1,-1)"
           y="-47"
           x="-10"
           height="7"
           width="5" />
        <rect
           style="fill:url(#linearGradient2877-634-617);fill-opacity:1;stroke:none"
           id="rect3700"
           y="40"
           x="10"
           height="7.0000005"
           width="28" />
      </g>
    </g>
    <rect
       style="fill:url(#radialGradient3784);fill-opacity:1;stroke:url(#linearGradient3792);stroke-opacity:1"
       id="rect2985"
       width="79"
       height="79"
       x="8.5"
       y="964.86218"
       rx="3"
       ry="3" />
    <rect
       ry="2"
       rx="2"
       y="965.86218"
       x="9.5"
       height="77"
       width="77"
       id="rect3815"
       style="fill:none;stroke:url(#linearGradient3823);stroke-opacity:1;opacity:0.50000000000000000" />
    <rect
       style="fill:url(#radialGradient3802);fill-opacity:1;stroke:url(#linearGradient3810);stroke-opacity:1"
       id="rect3794"
       width="63"
       height="63"
       x="16.5"
       y="972.86218" />
    <path
       style="opacity:0.5;fill:#ffffff;fill-opacity:1;stroke:none"
       d="M 17 17 L 17 21 L 21 21 L 21 17 L 17 17 z M 21 21 L 21 25 L 25 25 L 25 21 L 21 21 z M 25 21 L 29 21 L 29 17 L 25 17 L 25 21 z M 29 21 L 29 25 L 33 25 L 33 21 L 29 21 z M 33 21 L 37 21 L 37 17 L 33 17 L 33 21 z M 37 21 L 37 25 L 41 25 L 41 21 L 37 21 z M 41 21 L 45 21 L 45 17 L 41 17 L 41 21 z M 45 21 L 45 25 L 49 25 L 49 21 L 45 21 z M 49 21 L 53 21 L 53 17 L 49 17 L 49 21 z M 53 21 L 53 25 L 57 25 L 57 21 L 53 21 z M 57 21 L 61 21 L 61 17 L 57 17 L 57 21 z M 61 21 L 61 25 L 65 25 L 65 21 L 61 21 z M 65 21 L 69 21 L 69 17 L 65 17 L 65 21 z M 69 21 L 69 25 L 73 25 L 73 21 L 69 21 z M 73 21 L 77 21 L 77 17 L 73 17 L 73 21 z M 77 21 L 77 25 L 79 25 L 79 21 L 77 21 z M 77 25 L 73 25 L 73 29 L 77 29 L 77 25 z M 77 29 L 77 33 L 79 33 L 79 29 L 77 29 z M 77 33 L 73 33 L 73 37 L 77 37 L 77 33 z M 77 37 L 77 41 L 79 41 L 79 37 L 77 37 z M 77 41 L 73 41 L 73 45 L 77 45 L 77 41 z M 77 45 L 77 49 L 79 49 L 79 45 L 77 45 z M 77 49 L 73 49 L 73 53 L 77 53 L 77 49 z M 77 53 L 77 57 L 79 57 L 79 53 L 77 53 z M 77 57 L 73 57 L 73 61 L 77 61 L 77 57 z M 77 61 L 77 65 L 79 65 L 79 61 L 77 61 z M 77 65 L 73 65 L 73 69 L 77 69 L 77 65 z M 77 69 L 77 73 L 79 73 L 79 69 L 77 69 z M 77 73 L 73 73 L 73 77 L 77 77 L 77 73 z M 77 77 L 77 79 L 79 79 L 79 77 L 77 77 z M 73 77 L 69 77 L 69 79 L 73 79 L 73 77 z M 69 77 L 69 73 L 65 73 L 65 77 L 69 77 z M 65 77 L 61 77 L 61 79 L 65 79 L 65 77 z M 61 77 L 61 73 L 57 73 L 57 77 L 61 77 z M 57 77 L 53 77 L 53 79 L 57 79 L 57 77 z M 53 77 L 53 73 L 49 73 L 49 77 L 53 77 z M 49 77 L 45 77 L 45 79 L 49 79 L 49 77 z M 45 77 L 45 73 L 41 73 L 41 77 L 45 77 z M 41 77 L 37 77 L 37 79 L 41 79 L 41 77 z M 37 77 L 37 73 L 33 73 L 33 77 L 37 77 z M 33 77 L 29 77 L 29 79 L 33 79 L 33 77 z M 29 77 L 29 73 L 25 73 L 25 77 L 29 77 z M 25 77 L 21 77 L 21 79 L 25 79 L 25 77 z M 21 77 L 21 73 L 17 73 L 17 77 L 21 77 z M 21 73 L 25 73 L 25 69 L 21 69 L 21 73 z M 21 69 L 21 65 L 17 65 L 17 69 L 21 69 z M 21 65 L 25 65 L 25 61 L 21 61 L 21 65 z M 21 61 L 21 57 L 17 57 L 17 61 L 21 61 z M 21 57 L 25 57 L 25 53 L 21 53 L 21 57 z M 21 53 L 21 49 L 17 49 L 17 53 L 21 53 z M 21 49 L 25 49 L 25 45 L 21 45 L 21 49 z M 21 45 L 21 41 L 17 41 L 17 45 L 21 45 z M 21 41 L 25 41 L 25 37 L 21 37 L 21 41 z M 21 37 L 21 33 L 17 33 L 17 37 L 21 37 z M 21 33 L 25 33 L 25 29 L 21 29 L 21 33 z M 21 29 L 21 25 L 17 25 L 17 29 L 21 29 z M 25 29 L 29 29 L 29 25 L 25 25 L 25 29 z M 29 29 L 29 33 L 33 33 L 33 29 L 29 29 z M 33 29 L 37 29 L 37 25 L 33 25 L 33 29 z M 37 29 L 37 33 L 41 33 L 41 29 L 37 29 z M 41 29 L 45 29 L 45 25 L 41 25 L 41 29 z M 45 29 L 45 33 L 49 33 L 49 29 L 45 29 z M 49 29 L 53 29 L 53 25 L 49 25 L 49 29 z M 53 29 L 53 33 L 57 33 L 57 29 L 53 29 z M 57 29 L 61 29 L 61 25 L 57 25 L 57 29 z M 61 29 L 61 33 L 65 33 L 65 29 L 61 29 z M 65 29 L 69 29 L 69 25 L 65 25 L 65 29 z M 69 29 L 69 33 L 73 33 L 73 29 L 69 29 z M 69 33 L 65 33 L 65 37 L 69 37 L 69 33 z M 69 37 L 69 41 L 73 41 L 73 37 L 69 37 z M 69 41 L 65 41 L 65 45 L 69 45 L 69 41 z M 69 45 L 69 49 L 73 49 L 73 45 L 69 45 z M 69 49 L 65 49 L 65 53 L 69 53 L 69 49 z M 69 53 L 69 57 L 73 57 L 73 53 L 69 53 z M 69 57 L 65 57 L 65 61 L 69 61 L 69 57 z M 69 61 L 69 65 L 73 65 L 73 61 L 69 61 z M 69 65 L 65 65 L 65 69 L 69 69 L 69 65 z M 69 69 L 69 73 L 73 73 L 73 69 L 69 69 z M 65 69 L 61 69 L 61 73 L 65 73 L 65 69 z M 61 69 L 61 65 L 57 65 L 57 69 L 61 69 z M 57 69 L 53 69 L 53 73 L 57 73 L 57 69 z M 53 69 L 53 65 L 49 65 L 49 69 L 53 69 z M 49 69 L 45 69 L 45 73 L 49 73 L 49 69 z M 45 69 L 45 65 L 41 65 L 41 69 L 45 69 z M 41 69 L 37 69 L 37 73 L 41 73 L 41 69 z M 37 69 L 37 65 L 33 65 L 33 69 L 37 69 z M 33 69 L 29 69 L 29 73 L 33 73 L 33 69 z M 29 69 L 29 65 L 25 65 L 25 69 L 29 69 z M 29 65 L 33 65 L 33 61 L 29 61 L 29 65 z M 29 61 L 29 57 L 25 57 L 25 61 L 29 61 z M 29 57 L 33 57 L 33 53 L 29 53 L 29 57 z M 29 53 L 29 49 L 25 49 L 25 53 L 29 53 z M 29 49 L 33 49 L 33 45 L 29 45 L 29 49 z M 29 45 L 29 41 L 25 41 L 25 45 L 29 45 z M 29 41 L 33 41 L 33 37 L 29 37 L 29 41 z M 29 37 L 29 33 L 25 33 L 25 37 L 29 37 z M 33 37 L 37 37 L 37 33 L 33 33 L 33 37 z M 37 37 L 37 41 L 41 41 L 41 37 L 37 37 z M 41 37 L 45 37 L 45 33 L 41 33 L 41 37 z M 45 37 L 45 41 L 49 41 L 49 37 L 45 37 z M 49 37 L 53 37 L 53 33 L 49 33 L 49 37 z M 53 37 L 53 41 L 57 41 L 57 37 L 53 37 z M 57 37 L 61 37 L 61 33 L 57 33 L 57 37 z M 61 37 L 61 41 L 65 41 L 65 37 L 61 37 z M 61 41 L 57 41 L 57 45 L 61 45 L 61 41 z M 61 45 L 61 49 L 65 49 L 65 45 L 61 45 z M 61 49 L 57 49 L 57 53 L 61 53 L 61 49 z M 61 53 L 61 57 L 65 57 L 65 53 L 61 53 z M 61 57 L 57 57 L 57 61 L 61 61 L 61 57 z M 61 61 L 61 65 L 65 65 L 65 61 L 61 61 z M 57 61 L 53 61 L 53 65 L 57 65 L 57 61 z M 53 61 L 53 57 L 49 57 L 49 61 L 53 61 z M 49 61 L 45 61 L 45 65 L 49 65 L 49 61 z M 45 61 L 45 57 L 41 57 L 41 61 L 45 61 z M 41 61 L 37 61 L 37 65 L 41 65 L 41 61 z M 37 61 L 37 57 L 33 57 L 33 61 L 37 61 z M 37 57 L 41 57 L 41 53 L 37 53 L 37 57 z M 37 53 L 37 49 L 33 49 L 33 53 L 37 53 z M 37 49 L 41 49 L 41 45 L 37 45 L 37 49 z M 37 45 L 37 41 L 33 41 L 33 45 L 37 45 z M 41 45 L 45 45 L 45 41 L 41 41 L 41 45 z M 45 45 L 45 49 L 49 49 L 49 45 L 45 45 z M 49 45 L 53 45 L 53 41 L 49 41 L 49 45 z M 53 45 L 53 49 L 57 49 L 57 45 L 53 45 z M 53 49 L 49 49 L 49 53 L 53 53 L 53 49 z M 53 53 L 53 57 L 57 57 L 57 53 L 53 53 z M 49 53 L 45 53 L 45 57 L 49 57 L 49 53 z M 45 53 L 45 49 L 41 49 L 41 53 L 45 53 z "
       transform="translate(0,956.36218)"
       id="rect4073" />
    <path
       style="opacity:0.07000002;fill:#000000;fill-opacity:1;stroke:none"
       d="m 79.000017,973.36237 0,62.00003 -62.000015,0 c 50.416971,-6.8302 56.913919,-13.6072 62.000015,-62.00003 z"
       id="rect3822"
       inkscape:connector-curvature="0"
       sodipodi:nodetypes="cccc" />
    <rect
       style="opacity:0.02000002;fill:none;stroke:#000000;stroke-width:4;stroke-miterlimit:4;stroke-opacity:1;stroke-dasharray:none"
       id="rect3820"
       width="58"
       height="58"
       x="19"
       y="975.36218" />
    <rect
       y="974.86218"
       x="18.5"
       height="59"
       width="59"
       id="rect3818"
       style="opacity:0.05;fill:none;stroke:#000000;stroke-width:3;stroke-miterlimit:4;stroke-opacity:1;stroke-dasharray:none" />
    <rect
       style="opacity:0.1;fill:none;stroke:#000000;stroke-width:2;stroke-miterlimit:4;stroke-opacity:1;stroke-dasharray:none"
       id="rect3816"
       width="60"
       height="60"
       x="18"
       y="974.36218" />
    <rect
       y="973.86218"
       x="17.5"
       height="61"
       width="61"
       id="rect3812"
       style="opacity:0.2;fill:none;stroke:#000000;stroke-opacity:1" />
    <path
       id="path4049"
       d="m 40,1016.8622 0,2 2,0 0,2 0,2 0,2 0,2 -2,0 0,2 2,0 2,0 2,0 0,-2 -2,0 0,-2 0,-2 0,-2 0,-2 2,0 0,-2 -2,0 -2,0 -2,0 z m 10,0 0,2 2,0 2,0 0,-2 -2,0 -2,0 z m 4,2 0,2 2,0 0,-2 -2,0 z m -4,0 -2,0 0,2 0,2 0,2 0,2 2,0 0,-2 0,-2 0,-2 0,-2 z m 0,8 0,2 2,0 2,0 0,-2 -2,0 -2,0 z m 4,0 2,0 0,-2 -2,0 0,2 z m 6,-10 0,2 2,0 2,0 0,-2 -2,0 -2,0 z m 4,2 0,2 0,2 0,2 0,2 2,0 0,-2 0,-2 0,-2 0,-2 -2,0 z m 0,8 -2,0 -2,0 0,2 2,0 2,0 0,-2 z m -4,0 0,-2 0,-2 0,-2 0,-2 -2,0 0,2 0,2 0,2 0,2 2,0 z"
       style="opacity:0.2;fill:#ffffff;fill-opacity:1;stroke:none"
       inkscape:connector-curvature="0" />
    <path
       style="fill:#14655c;fill-opacity:1;stroke:none"
       d="m 40,1016.3622 0,2 2,0 0,2 0,2 0,2 0,2 -2,0 0,2 2,0 2,0 2,0 0,-2 -2,0 0,-2 0,-2 0,-2 0,-2 2,0 0,-2 -2,0 -2,0 -2,0 z m 10,0 0,2 2,0 2,0 0,-2 -2,0 -2,0 z m 4,2 0,2 2,0 0,-2 -2,0 z m -4,0 -2,0 0,2 0,2 0,2 0,2 2,0 0,-2 0,-2 0,-2 0,-2 z m 0,8 0,2 2,0 2,0 0,-2 -2,0 -2,0 z m 4,0 2,0 0,-2 -2,0 0,2 z m 6,-10 0,2 2,0 2,0 0,-2 -2,0 -2,0 z m 4,2 0,2 0,2 0,2 0,2 2,0 0,-2 0,-2 0,-2 0,-2 -2,0 z m 0,8 -2,0 -2,0 0,2 2,0 2,0 0,-2 z m -4,0 0,-2 0,-2 0,-2 0,-2 -2,0 0,2 0,2 0,2 0,2 2,0 z"
       id="rect3215"
       inkscape:connector-curvature="0" />
  </g>
</svg>
