<?xml version="1.0" encoding="UTF-8" standalone="no"?>
<!-- Created with Inkscape (http://www.inkscape.org/) -->

<svg
   xmlns:dc="http://purl.org/dc/elements/1.1/"
   xmlns:cc="http://creativecommons.org/ns#"
   xmlns:rdf="http://www.w3.org/1999/02/22-rdf-syntax-ns#"
   xmlns:svg="http://www.w3.org/2000/svg"
   xmlns="http://www.w3.org/2000/svg"
   xmlns:xlink="http://www.w3.org/1999/xlink"
   xmlns:sodipodi="http://sodipodi.sourceforge.net/DTD/sodipodi-0.dtd"
   xmlns:inkscape="http://www.inkscape.org/namespaces/inkscape"
   width="96"
   height="96"
   id="svg2"
   version="1.1"
   inkscape:version="0.48.3.1 r9886"
   sodipodi:docname="firefox.svg">
  <defs
     id="defs4">
    <linearGradient
       id="linearGradient3808">
      <stop
         style="stop-color:#f0c178;stop-opacity:1;"
         offset="0"
         id="stop3810" />
      <stop
         id="stop3818"
         offset="0.25"
         style="stop-color:#e18941;stop-opacity:1;" />
      <stop
         id="stop3816"
         offset="0.54800057"
         style="stop-color:#ec4f18;stop-opacity:1;" />
      <stop
         style="stop-color:#c33a0a;stop-opacity:1;"
         offset="1"
         id="stop3812" />
    </linearGradient>
    <linearGradient
       id="linearGradient3800">
      <stop
         style="stop-color:#a63300;stop-opacity:1;"
         offset="0"
         id="stop3802" />
      <stop
         style="stop-color:#ce6b25;stop-opacity:1;"
         offset="1"
         id="stop3804" />
    </linearGradient>
    <linearGradient
       id="linearGradient3817">
      <stop
         style="stop-color:#ffffff;stop-opacity:1;"
         offset="0"
         id="stop3819" />
      <stop
         id="stop3827"
         offset="0.05455951"
         style="stop-color:#ffffff;stop-opacity:0.23529412;" />
      <stop
         id="stop3825"
         offset="0.95526141"
         style="stop-color:#ffffff;stop-opacity:0.15686275;" />
      <stop
         style="stop-color:#ffffff;stop-opacity:0.39215687;"
         offset="1"
         id="stop3821" />
    </linearGradient>
    <radialGradient
       cx="4.9929786"
       cy="43.5"
       r="2.5"
       fx="4.9929786"
       fy="43.5"
       id="radialGradient2873-966-168"
       xlink:href="#linearGradient3688-166-749"
       gradientUnits="userSpaceOnUse"
       gradientTransform="matrix(2.003784,0,0,1.4,27.98813,-17.4)" />
    <linearGradient
       id="linearGradient3688-166-749">
      <stop
         id="stop2883"
         style="stop-color:#181818;stop-opacity:1"
         offset="0" />
      <stop
         id="stop2885"
         style="stop-color:#181818;stop-opacity:0"
         offset="1" />
    </linearGradient>
    <radialGradient
       cx="4.9929786"
       cy="43.5"
       r="2.5"
       fx="4.9929786"
       fy="43.5"
       id="radialGradient2875-742-326"
       xlink:href="#linearGradient3688-464-309"
       gradientUnits="userSpaceOnUse"
       gradientTransform="matrix(2.003784,0,0,1.4,-20.01187,-104.4)" />
    <linearGradient
       id="linearGradient3688-464-309">
      <stop
         id="stop2889"
         style="stop-color:#181818;stop-opacity:1"
         offset="0" />
      <stop
         id="stop2891"
         style="stop-color:#181818;stop-opacity:0"
         offset="1" />
    </linearGradient>
    <linearGradient
       x1="25.058096"
       y1="47.027729"
       x2="25.058096"
       y2="39.999443"
       id="linearGradient2877-634-617"
       xlink:href="#linearGradient3702-501-757"
       gradientUnits="userSpaceOnUse" />
    <linearGradient
       id="linearGradient3702-501-757">
      <stop
         id="stop2895"
         style="stop-color:#181818;stop-opacity:0"
         offset="0" />
      <stop
         id="stop2897"
         style="stop-color:#181818;stop-opacity:1"
         offset="0.5" />
      <stop
         id="stop2899"
         style="stop-color:#181818;stop-opacity:0"
         offset="1" />
    </linearGradient>
    <linearGradient
       inkscape:collect="always"
       xlink:href="#linearGradient3817"
       id="linearGradient3823"
       x1="47.214287"
       y1="965.25507"
       x2="47.214287"
       y2="1042.9185"
       gradientUnits="userSpaceOnUse" />
    <radialGradient
       inkscape:collect="always"
       xlink:href="#linearGradient4620"
       id="radialGradient4521"
       gradientUnits="userSpaceOnUse"
       gradientTransform="matrix(0,3.2863603,-2.5800551,0,69.384265,-66.651192)"
       cx="24.176777"
       cy="17.681444"
       fx="24.176777"
       fy="17.681444"
       r="9" />
    <linearGradient
       id="linearGradient4620">
      <stop
         style="stop-color:#ffffff;stop-opacity:1;"
         offset="0"
         id="stop4622" />
      <stop
         style="stop-color:#dcdcdc;stop-opacity:1;"
         offset="1"
         id="stop4624" />
    </linearGradient>
    <radialGradient
       r="9"
       fy="17.681444"
       fx="24.176777"
       cy="17.681444"
       cx="24.176777"
       gradientTransform="matrix(0,6.5727184,-5.1601085,0,138.7685,-135.30238)"
       gradientUnits="userSpaceOnUse"
       id="radialGradient4420"
       xlink:href="#linearGradient4620"
       inkscape:collect="always" />
    <linearGradient
       inkscape:collect="always"
       xlink:href="#linearGradient3800"
       id="linearGradient3806"
       x1="20.142857"
       y1="1043.3036"
       x2="20.142857"
       y2="964.00507"
       gradientUnits="userSpaceOnUse" />
    <radialGradient
       inkscape:collect="always"
       xlink:href="#linearGradient3808"
       id="radialGradient3814"
       cx="48.505074"
       cy="976.83551"
       fx="48.505074"
       fy="976.83551"
       r="40"
       gradientUnits="userSpaceOnUse"
       gradientTransform="matrix(-2.0238936e-6,1.9729319,-1.6187307,-1.6605432e-6,1629.7389,881.13992)" />
  </defs>
  <sodipodi:namedview
     id="base"
     pagecolor="#ffffff"
     bordercolor="#666666"
     borderopacity="1.0"
     inkscape:pageopacity="0.0"
     inkscape:pageshadow="2"
     inkscape:zoom="2.8284271"
     inkscape:cx="83.805571"
     inkscape:cy="22.754056"
     inkscape:document-units="px"
     inkscape:current-layer="layer1"
     showgrid="false"
     inkscape:window-width="1280"
     inkscape:window-height="749"
     inkscape:window-x="0"
     inkscape:window-y="24"
     inkscape:window-maximized="1" />
  <metadata
     id="metadata7">
    <rdf:RDF>
      <cc:Work
         rdf:about="">
        <dc:format>image/svg+xml</dc:format>
        <dc:type
           rdf:resource="http://purl.org/dc/dcmitype/StillImage" />
        <dc:title />
      </cc:Work>
    </rdf:RDF>
  </metadata>
  <g
     inkscape:label="Livello 1"
     inkscape:groupmode="layer"
     id="layer1"
     transform="translate(0,-956.36218)">
    <g
       style="display:inline"
       id="g2036"
       transform="matrix(2.1999991,0,0,0.88888944,-4.8000008,1006.5844)">
      <g
         style="opacity:0.4"
         id="g3712"
         transform="matrix(1.052632,0,0,1.285713,-1.263158,-13.42854)">
        <rect
           style="fill:url(#radialGradient2873-966-168);fill-opacity:1;stroke:none"
           id="rect2801"
           y="40"
           x="38"
           height="7"
           width="5" />
        <rect
           style="fill:url(#radialGradient2875-742-326);fill-opacity:1;stroke:none"
           id="rect3696"
           transform="scale(-1,-1)"
           y="-47"
           x="-10"
           height="7"
           width="5" />
        <rect
           style="fill:url(#linearGradient2877-634-617);fill-opacity:1;stroke:none"
           id="rect3700"
           y="40"
           x="10"
           height="7.0000005"
           width="28" />
      </g>
    </g>
    <rect
       style="fill:url(#radialGradient3814);fill-opacity:1;stroke:url(#linearGradient3806);stroke-opacity:1"
       id="rect2985"
       width="79"
       height="79"
       x="8.5"
       y="964.86218"
       rx="3"
       ry="3" />
    <rect
       ry="2"
       rx="2"
       y="965.86218"
       x="9.5"
       height="77"
       width="77"
       id="rect3815"
       style="fill:none;stroke:url(#linearGradient3823);stroke-opacity:1;opacity:0.50000000000000000" />
    <path
       inkscape:connector-curvature="0"
       d="m 12,966.36221 c -1.108,0 -2,0.9432 -2,2.11478 l 0,5.81566 0.75,-0.9913 0.5625,0.26434 1.125,0 0.9375,-0.9913 1.125,-0.5287 0.125,-0.72696 -0.6875,-0.66086 -0.625,-0.1982 -0.375,-0.92522 0.8125,-0.5287 1.25,0.72696 0.4375,-0.5287 -0.6875,-0.39662 1.4375,-1.98262 -0.125,-0.4626 -4.0625,0 z m 13.125,0 0,0.0662 0.25,0.39652 0.3125,-0.46262 -0.5625,0 z m 13.1875,0 -0.5625,0.9913 -0.1875,0.5287 1.0625,0.33044 0.1875,-0.72696 0.3125,-0.9913 0.25,-0.1322 -1.0625,0 z m 7.75,0 0,0.5287 1.25,0.5287 -0.625,0.52868 -1.3125,-0.52868 -0.5625,0.52868 -0.8125,-0.9913 -0.1875,0.33044 0.9375,2.97392 0.1875,0.1322 0.625,-0.33042 0.3125,0.1982 0,0.5287 -0.5625,-0.1982 -0.375,0.26436 0.25,0.52868 -0.1875,1.38784 -1.1875,0.1322 -0.0625,-0.4626 0.6875,-0.39652 0.125,-1.25566 -0.75,-1.05738 -0.3125,-1.85044 -1.1875,-0.26434 -0.125,0.66086 0.25,0.33044 -0.5625,0.4626 0.25,1.25566 0.6875,0.33044 0.1875,0.9252 -0.75,-0.52868 -1.875,-0.33044 -0.25,0.66086 -1.5,0.5287 -0.25,-0.39652 -2,1.18956 0,0.72696 -0.8125,0.1322 0.25,-0.5287 0,-0.59478 -0.75,-0.33044 -0.5,0.26436 0.375,0.85912 0.3125,0.5287 0,0.4626 -0.5625,-0.1322 -0.125,-0.0662 -0.5625,0.66088 0.3125,0.52868 -1.3125,0 0.4375,0.5287 -0.125,0.26436 -0.6875,0 -0.5,-0.33044 -0.125,-1.0574 -0.8125,-0.33044 0,-0.39652 1.6875,0.33044 0.9375,0.1322 0.375,-0.66088 -0.375,-0.66086 -2.4375,-0.9913 -0.875,0.1982 -0.3125,0.26436 0.125,0.59478 0.375,0.0662 -0.125,0.99132 1.125,2.77564 -0.8125,1.38784 -0.0625,0.26434 0.4375,0.33044 -0.375,0.26434 -0.25,0 0.0625,1.18956 0.3125,0.5287 0,0.46262 0.4375,0.0662 0.6875,0.26434 0.6875,1.0574 0.0625,0.26434 -0.25,0.39652 0.5,-0.0662 0.5,0.1982 0.75,0.9913 1.6875,0.1982 -0.0625,1.25566 -0.625,0.5287 0.125,0.1982 -0.5625,0.66086 -0.125,0.59478 0.3125,0.5287 1.125,0.4626 0.4375,-0.33042 3,1.18956 0.125,-0.33044 -0.625,-0.59436 0,-0.79304 -0.375,-0.1322 0.0625,-0.66086 0.625,-0.79306 -1.125,-0.85912 0.125,-1.18956 1.1875,-0.85914 1.375,0.0662 0.25,0.46262 1.4375,0.0662 1,-0.59478 -0.5,-0.5948 0.0625,-1.18956 2.75,-1.38804 2.0625,0.9913 0.6875,-0.66086 2.0625,2.0487 1.5625,-0.1322 0.5625,0.5287 1.4375,0.1982 1,-1.38784 1.25,0.59478 0.625,0.0662 0.6875,-0.59478 -0.625,-0.39652 0.5,-0.85912 1.4375,0.52868 0.3125,0.66088 0.625,0 0.375,-0.26436 1.0625,-0.0662 0.125,0.33044 1.1875,0.0662 0.8125,-0.92522 1.6875,0.1982 0.5,-0.1982 0.125,-0.9913 -0.5,-1.18956 0.5,-0.46262 1.625,0 1.5,1.91652 1.9375,1.18958 0.5625,0 0.125,-0.5287 0.6875,-0.46262 0.0625,2.70958 -0.625,0 0,0.66086 0.375,0.46262 -0.0625,0.59478 0.25,0.1322 0.125,-0.39652 0.25,0.0662 0.125,0.1322 0.75,-0.1322 0.6875,-2.18088 0.0625,-2.64348 -0.875,-2.18086 -1.125,-1.45392 -0.5625,0.1322 0,0.4626 -1.3125,-0.59478 0.5,-1.12348 0.4375,-3.04 1.75,-0.59478 0.875,-0.59478 0.9375,0 -0.25,0.33044 0.25,0.4626 0.8125,-0.92522 0.4375,0 -0.0625,-0.52868 -0.75,-0.1322 0.5,-1.9826 0.6875,-0.66088 0.25,0.9913 0.5625,0.1982 0.5625,-0.92522 -0.3125,-0.59478 0.125,-0.5287 0.8125,0 -0.1875,0.39652 0.0625,1.45392 -1.1875,3.10608 0.125,0.66088 -0.0625,1.05738 2.1875,3.37044 0.4375,0.1322 0,-2.70956 0.4375,-0.46262 -0.4375,-1.05738 0.375,-0.46262 -0.875,-1.18956 -0.4375,0.0662 -0.125,-1.98262 1.1875,-0.33042 0.0625,-0.59478 0.625,-0.1322 0.3125,0.33044 0.4375,-1.85044 0.125,-0.1982 -35.8125,0 z m -8.6875,1.9826 0.0625,0.72696 -0.5,0.1322 0,0.33044 0.3125,0.4626 0.75,0.0662 0.375,0.39652 0.375,0 0.1875,-0.46262 -0.5625,-0.66086 -0.25,-0.85914 -0.75,-0.1322 z m -23.3125,1.38784 -0.25,0.1982 0.125,0.26434 0.8125,0.39652 0,-0.66086 -0.6875,-0.1982 z m 15.6875,1.32174 -1.125,0.1322 -0.125,0.5287 -0.25,-0.1322 -0.1875,-0.26436 -0.5,0 -0.0625,0.59478 -0.25,0.1322 -0.1875,-0.33044 -1.125,0.9913 0.25,0.26436 -0.4375,0.1982 -0.9375,1.9826 -0.375,0.26434 0.0625,0.1982 0.3125,0.1982 -0.0625,0.33044 -0.5625,0 -0.1875,-0.1984 -0.375,0.46262 -0.1875,0.1322 -0.0625,0.4626 -0.1875,0.1322 -0.5625,0.0662 -0.25,0.85914 0.1875,1.38782 0.1875,0.66086 0.25,0.1982 0.5,0 0.75,-0.79304 0.25,-0.4626 0.125,0.72696 0.4375,-0.92522 0.0625,-2.5113 0.375,-0.26436 0.125,-1.38782 1.1875,-1.78436 0.5625,-0.1982 0.25,-0.33044 0.875,0.1982 0.375,0.26434 0.1875,-0.79304 0.6875,-0.39652 0.4375,0.72696 0.3125,-0.1982 -0.0625,-0.26436 -0.1875,-0.1322 0.0625,-0.33044 0.125,0 0,-0.1982 -0.6875,-0.1982 z m -0.0625,0.72696 -0.5,0.39652 -0.1875,0.85912 -0.5625,-0.33044 -0.75,-0.1982 -0.1875,0.1982 0.3125,0.26436 0.5,0 0.4375,0.72696 0.0625,1.12348 0.375,0.1322 0.1875,0.39652 -0.1875,0.26434 -1,1.18956 -0.1875,0.59476 0.25,0.85914 0.75,0.59478 1,-0.5287 0.8125,-0.1322 0.75,-1.25564 -0.5625,-1.45392 -0.5,-1.32174 0.0625,-0.85912 -0.3125,-0.0662 -0.125,-0.66088 -0.4375,-0.79304 z m 52.1875,0.85912 0.125,0.26434 0.375,0.26436 0.125,-0.1322 -0.375,-0.39652 -0.25,0 z m -54.4375,0.1982 -0.5625,0.1982 -1.125,1.71826 -0.125,1.4539 -0.375,0.1982 -0.0625,2.5774 -0.5625,0.9913 0.6875,1.18956 0.1875,0.85914 0.3125,0 0.25,-0.46262 0.625,-0.26434 0,-1.32174 0.375,-0.39652 0.3125,-0.39652 0.0625,-0.33044 -0.75,-0.59478 0,-0.72696 0.375,-0.72696 0.3125,-0.0662 0.5625,-0.79304 0,-0.5287 0.75,-0.59478 -0.0625,-1.05738 -0.3125,-0.66088 -0.5625,0 -0.3125,-0.26434 z m 55.3125,0 0,0.26434 0.5,0.1322 0,-0.1982 -0.5,-0.1982 z m 2.5,0.9913 0.1875,0.39652 0.3125,-0.0662 0.0625,-0.26436 -0.5625,-0.0662 z m -72.1875,0.85924 -0.4375,0.26434 -0.3125,0.33044 0,0.1982 0.4375,0.0662 0,0.33044 -0.1875,0.1982 0.0625,0.1322 0.4375,0 0,0.59478 0.625,0.0662 0.4375,0.26434 0.4375,0 0.75,-0.39652 0.5625,-0.79304 0,-0.5287 -0.375,-0.33042 -0.25,-0.26436 -0.1875,0.1322 -0.1875,0.26436 -0.1875,-0.0662 -0.25,-0.26436 -0.3125,0.0662 -0.375,0.33044 -0.3125,0.33044 -0.125,-0.1322 0,-0.33044 0.125,-0.1322 -0.0625,-0.1322 -0.3125,-0.1982 z m 60.75,1.05738 0,0.99132 1.1875,1.9826 0.4375,1.65218 0.75,1.52 0.3125,0.1322 0.25,-0.26436 0.125,-0.33042 -1.125,-1.25566 0.0625,-0.66086 0.25,-0.0662 0.0625,-0.39654 -2.125,-3.17222 -0.1875,-0.1322 z m 6.375,1.52 -0.1875,0.26436 0.0625,0.39652 0.125,0 0.3125,-0.59478 -0.3125,-0.066 z m 0,0.92522 -0.3125,0.0662 0,0.66088 0.1875,0.0662 0.125,-0.1982 0,-0.59478 z m -14,0.46262 -0.375,0.39652 0.5,1.12348 -0.1875,1.12348 -0.5625,0.26434 -0.375,-0.0662 0,1.0574 0.375,0.1322 0.625,-0.33044 0.8125,0.4626 0,0.39652 -0.625,0 -0.4375,1.12348 -0.4375,0 -1.5,2.11478 -1.625,0.72696 -1.0625,0.1322 -0.75,-0.59478 -1,0.59478 -1.125,-0.33044 -0.3125,-0.79304 -1.875,-0.1322 -1,-1.71826 -0.4375,0 -0.375,-0.79304 -0.375,-0.0662 -0.5625,1.38782 -0.6875,0 -0.8125,1.78436 0.6875,0.85912 -1.375,1.98262 -0.6875,-0.0662 -0.5,0.59478 0.125,0.39652 0.5625,0 0.25,0.66086 0.5625,0.1322 1.6875,2.24696 0,1.18958 0.8125,0.52868 0.875,-0.1322 1.125,0.66088 1.375,0.39652 0.625,-0.0662 0.75,-0.0662 1.5625,-1.0574 0.5,0.0662 0.1875,0.46262 0.4375,0.1322 0.5625,0.92522 -0.375,0.9252 0.25,0.5948 0.625,0.26434 0.125,0.72696 0.75,0.0662 0.125,-0.33044 1.125,-0.66086 0.6875,0.0662 0.8125,0.92522 0.5625,-0.1982 0.375,0 0.125,0.4626 0.3125,0.0662 0.375,-0.59478 1.5625,-0.59478 1.375,-1.78436 0.4375,-1.71826 0,-1.12348 -0.625,-0.1322 0.375,-0.39652 -0.0625,-0.66086 -1.5,-1.58608 0,-0.72696 0.4375,-0.5948 0.4375,-0.1982 0,-0.46262 -1.0625,0 -0.1875,0.59478 -0.5,-0.1322 -0.625,-0.66098 0.375,-1.12346 0.5625,-0.5948 0.5,0.0662 -0.0625,0.92522 0.25,0.26436 0.625,-0.72696 0.25,0 -0.0625,-0.59478 0.625,-0.72696 0.4375,0 0.3125,-0.92522 0.3125,-0.1322 0,-0.59478 -0.3125,-0.33044 0,-0.85912 0.5625,-0.0662 0,-2.31306 -0.4375,0.26436 -0.125,0.59478 -0.6875,0 -2.0625,-1.18956 -1.4375,-1.85044 -1.5,-0.0662 z m -36.5,0.4626 -0.5625,0.39652 0,0.26436 0.3125,0.33042 1.125,0.1982 0,-1.12348 -0.875,-0.0662 z m -10.375,0.72696 -0.625,0.4626 -0.375,1.25566 0.375,-0.0662 -0.0625,0.72696 0.1875,0.1982 0.5625,0 0.0625,0.92522 -0.4375,0.0662 -0.0625,0.52868 -0.375,0.5287 0.5625,0.0662 0.1875,0.1322 -1.1875,0.66088 0.4375,0.1982 1.1875,-0.5287 0.75,0.0662 0.375,-0.1982 0.1875,-0.1984 -0.1875,-0.1322 0,-0.1982 0.3125,-0.1322 0,-0.33044 -0.1875,-0.3965 -0.4375,-0.1982 -0.3125,-0.66086 -0.3125,-0.72696 -0.125,-0.66088 0.125,-0.26434 0,-0.26434 -0.625,0 -0.125,-0.1982 0.3125,-0.46262 -0.1875,-0.1982 z m 9.3125,0 -0.1875,0.1322 0.125,0.1322 0.25,0 0.125,-0.1322 -0.125,-0.1322 -0.1875,0 z m -1.0625,0.39652 -0.3125,0.26434 0.125,0.39654 0.3125,-0.26436 -0.125,-0.39652 z m 1.9375,0 0.0625,0.66088 0.9375,0.59478 0.4375,-0.1322 -0.0625,-0.46262 -0.3125,-0.4626 -1.0625,-0.1982 z m -5.3125,0.1982 -0.625,0.79304 0,0.46262 0.25,0.79304 0.5,-0.0662 -0.0625,-0.66088 0.3125,-0.39652 0,-0.26434 -0.25,-0.59478 -0.125,-0.066 z m 4.375,0 -0.375,0.5287 0,0.26434 0.125,0.0662 0.25,0 0.4375,-0.39652 0.0625,-0.1322 -0.25,-0.26434 -0.25,-0.0662 z m 17.5,0.1322 -2.625,1.38782 -0.0625,0.92522 0.625,0.79304 -1.1875,0.66088 -1.5625,0 -0.3125,-0.5287 -1.1875,-0.0662 -1.1875,0.79304 0,1.0574 1.0625,0.92522 0.625,-0.33044 0.6875,0 0.0625,1.12348 -0.4375,0 -0.3125,0.59478 0.4375,0.72696 0.625,0.33044 0.0625,0.39652 0.1875,-0.0662 0.25,-0.26436 0.3125,0.0662 0.1875,0.39652 0.4375,0 0,-0.4626 -0.3125,-0.85914 -0.125,-0.66086 0.8125,-0.33044 1.0625,0.1322 0.625,0.72696 1.5,-0.1322 0.8125,1.18956 1,0.0662 0.25,-0.4626 0.3125,-0.0662 0.0625,-0.5287 0.5,0 0.3125,0.33044 0.25,-0.66088 2.3125,0.33044 0.375,-0.5287 -0.625,-0.85912 0.875,-2.0487 0.6875,0.0662 0.5,-1.25566 -1,-0.1322 -0.5625,-0.52868 -1.5,0.1982 -2,-2.0487 -0.6875,0.66086 -2.125,-1.05738 z m 33.625,0.26434 -0.3125,0.1982 -0.1875,0.39654 0,0.26434 0.25,-0.1322 0.25,-0.5287 0,-0.1982 z m -50.5625,0.1322 -0.4375,0.46262 -0.375,0 0,0.59478 -0.25,0.4626 0.875,0 0.1875,-0.0662 0.25,0.33044 0.5625,-0.0662 0.5,-0.66086 0,-0.46262 -1,-0.59478 -0.3125,0 z m 28.875,0.0662 -0.4375,0.5948 0.625,0.4626 -0.875,0.85914 -0.75,-0.1982 -1.0625,-0.5287 -0.9375,1.25564 0.25,0.66088 0.5,0 1,1.78434 1.9375,0.1322 0.25,0.79304 1,0.33044 1.0625,-0.59478 0.8125,0.59478 1,-0.1322 1.5,-0.72696 1.5625,-2.04868 0.375,-0.0662 0.5,-1.12348 0.5,0 0,-0.1982 -0.6875,-0.33066 -0.625,0.26436 -0.5,-0.0662 0.0625,-1.25556 -1.1875,-0.1322 -0.8125,0.92522 -1.375,-0.0662 -0.125,-0.33042 -0.8125,0 -0.4375,0.33042 -0.75,0 -0.375,-0.72696 L 58,981.03339 z m -27,0.46262 -0.4375,0.1322 0,0.4626 -0.5625,0.79304 -0.5625,0 0.25,0.39654 -0.125,0.33042 0,0.1982 0.125,0.33044 0.4375,-0.26434 0.625,0 0.4375,0.1982 1,0 0.3125,-0.79304 0.1875,-0.33044 0,-0.1322 -0.625,-0.9912 -0.625,-0.26434 L 31,981.49595 z m -6.1875,0.26434 -0.1875,0.1982 0,0.26436 0.4375,0.0662 0,-0.33044 -0.125,-0.1982 -0.125,0 z m 54,0.1322 -0.4375,0.66088 0.0625,0.26434 0.1875,-0.0662 0.5,-0.66086 -0.3125,-0.1982 z m -61.125,0.1982 -0.25,0.59478 -0.5625,0 0,0.5287 0.125,0.33044 -0.625,0.4626 0,0.1322 0.3125,0.1982 0.375,0 1.25,-0.4626 0.125,-0.9913 -0.375,0.1322 -0.4375,-0.39652 0.0625,-0.5287 z m 0.625,0 -0.5,0.0662 -0.0625,0.46262 0.375,0.26434 0.3125,-0.1322 0.1875,-0.26434 -0.3125,-0.39652 z m 9.375,0.1322 -0.3125,0.0662 -0.6875,0.26436 -0.5625,0.4626 0.0625,1.12348 0.25,0.4626 0.75,0.39654 0.6875,0.52868 0.4375,0.1322 0.4375,-0.1322 0.125,0 0.3125,0.1322 0.1875,-0.1322 0.25,-0.4626 0.0625,-0.26436 0,-0.33042 -0.125,-0.1982 -0.0625,-0.33044 -0.0625,-0.39652 0.125,-0.26434 -0.4375,-0.72718 -0.3125,0.066 -1.1875,-0.066 -0.0625,-0.066 0.125,-0.26434 z m 48.875,0.1982 -0.25,0.1982 0.125,0.46262 0.25,0.1982 -0.0625,0.72694 -0.25,0.1322 -0.1875,0.46262 0.625,0.92522 0.375,-0.1322 0.0625,-0.26436 -0.4375,-0.39652 0.25,-0.33042 0.3125,0 0.1875,0.26434 0.0625,-0.5287 0.5625,-0.5287 0.375,-0.0662 -0.3125,-0.52868 -0.125,-0.1982 -0.1875,0.1322 -0.1875,0.26434 -0.4375,-0.0658 -0.4375,-0.33044 -0.3125,-0.39652 z m -52.1875,0.1322 -0.5,0.0662 0,0.39652 -0.5625,0.1322 0.1875,0.99132 -0.4375,0.1982 -0.0625,0.52868 0.3125,0.39652 -0.0625,0.39654 0.4375,0.26434 0,0.5287 0.5,0.1322 0.125,0.33042 0.25,0 0.1875,-0.26434 0.5,-0.0662 0.625,-0.26434 0.0625,-0.33044 -0.6875,-0.66088 -0.0625,-0.1322 0.75,-0.4626 0.4375,-0.066 -0.3125,-0.4626 -0.0625,-1.12358 -0.3125,-0.33044 -0.375,-0.1322 -0.4375,0.1982 -0.25,0 -0.25,-0.26434 z m -1.1875,0.66088 -0.6875,0.33042 0.125,0.1322 0,0.39654 -0.125,-0.0662 -0.1875,-0.26436 -0.375,0.66088 0.625,0.1322 0.1875,0.26434 0.125,0 0.0625,-0.59478 0.375,-0.1322 -0.125,-0.85914 z m 9.375,0.26434 -0.25,0.72696 -1.1875,0 -0.375,-0.1982 -0.5625,0 -0.4375,0.26434 0.125,0.46262 -0.4375,0.92522 0,0.39652 0.1875,0.1322 1.25,0.0662 0.375,-0.26436 0.375,0.1322 0.5,0.72696 -0.375,0.72696 0.4375,0.1982 0.625,-0.79304 0.375,0.0662 0.3125,0.26434 -0.3125,0.39652 0.4375,0.66088 0.375,0 0.1875,-0.46262 0.4375,-0.0662 0.0625,-0.33042 -0.8125,-0.1322 0,-0.39654 0.8125,0 0.8125,-0.72694 0.375,-0.33044 0.0625,-1.12348 -1.6875,-0.1322 -0.625,-0.9913 -0.5,-0.1982 -0.5625,0 z m -10.6875,1.0574 -0.125,0.26434 1.0625,0.72696 0.3125,0.0662 0,-0.33044 -0.25,-0.33044 -0.125,0 -0.25,-0.26434 -0.625,-0.1322 z m 4.5625,0.1982 -0.4375,0.0662 -0.625,0.4626 0.625,0.66088 0.4375,0 0.25,0 0.375,0.26434 0.6875,-0.59478 -0.6875,-0.5287 -0.625,-0.33044 z m -4.75,0.1322 -0.3125,0.1322 -0.6875,0.79304 -0.25,0 -0.25,-0.1982 -0.1875,0 -0.125,0.4626 -1,0.0662 0.0625,0.1982 0.625,0.46262 0.8125,0.66086 0,0.85914 -0.4375,0.72696 0.9375,0.4626 0.9375,0.0662 0.25,-0.33044 0.5625,0 0.1875,0.1322 0.625,0 0.25,-0.4626 -0.375,-0.4626 0,-0.26436 0.0625,-0.33044 -0.1875,-0.33042 -0.3125,0.1322 -0.0625,-0.26436 0.75,-0.85912 0,-0.5287 -0.5,-0.26434 -0.25,-0.0662 -1.125,-0.79306 z m 50.5,0.33042 -0.25,0.1322 -0.25,0.92522 -0.5,0 -0.5625,0.66088 0.0625,0.5287 0.3125,0.1322 0.0625,0.9913 0.5625,0.0662 0.5625,-0.66088 -0.1875,-0.1982 0,-0.66086 0.5,-0.66088 -0.25,-0.4626 0.125,-0.1982 0.125,-0.4626 -0.3125,-0.1322 z m -44.375,0.46262 -0.6875,0.59478 0.125,0.1322 0,0.1322 1.1875,0 0.875,-0.39652 0,-0.39652 -0.1875,0.0662 -0.25,-0.1322 -0.125,0 -0.375,0.1322 -0.5625,-0.1322 z m 49.5,0 -0.375,0.4626 0,0.39652 0.1875,0.26436 0.0625,0.9913 -0.5,0.59478 -0.25,-0.1322 -0.1875,0.46262 -0.0625,0.4626 0.1875,0.26434 -0.125,0.1982 -0.3125,-0.33042 -0.25,0 -0.25,0.1322 -0.125,0.0662 -0.75,0.9252 0.125,0.1982 0.375,0.0662 0.6875,-0.59478 0.5,-0.0662 0.4375,0.5287 0.3125,-0.1322 0.125,-0.5287 0.625,0 0.625,-0.79304 -0.3125,-1.32174 -0.125,-0.66086 0.3125,-0.26436 -0.75,-1.18956 -0.1875,0 z m -51.25,0.33042 -0.0625,0.39652 -0.6875,0.33044 -0.5,0.0662 -0.125,0.1982 0.125,0.1322 0.3125,-0.0662 0.3125,0 0.375,0.33042 0.6875,-0.1982 0.5,-0.26434 0.125,-0.26434 0,-0.26436 -0.5,-0.39652 -0.5625,0 z m 5.1875,0.1322 -0.25,0.26434 0.4375,0.72696 0,0.46262 0.1875,0 0.375,-0.72696 -0.5,-0.66088 -0.25,-0.0662 z m -1.875,0.0662 -0.875,0.4626 -1.1875,0 -0.1875,0.33044 0,0.46262 0.3125,0.1322 0.875,0 1.1875,-1.0574 0,-0.26434 -0.125,-0.0662 z m 0.3125,0.1322 -0.0625,0.26434 -0.875,0.79306 0.75,1.12346 0.4375,0.39654 0.875,0 0.3125,-0.26436 0.375,-0.0662 0.25,0.1982 0.5,-0.59478 -0.0625,-0.33044 -0.5,-0.1322 -0.375,0 0,-0.52868 -0.4375,-0.79306 -1.1875,-0.0662 z m -6.0625,0.33044 -0.6875,0.72696 0,0.0662 0.3125,-0.0662 0.25,0.33042 0.375,-0.1322 0.3125,0.26436 0.125,-0.0662 0.375,-0.59478 -0.125,-0.1322 -0.3125,0 -0.1875,-0.39654 -0.4375,0 z m 3.375,0.39652 -0.375,0.26434 -0.75,0.1322 0.125,0.46262 0.5,0 0.5,-0.39652 0,-0.46262 z m -1.875,0.1322 -0.375,0.0662 -0.3125,0.5287 -0.25,0.1982 -0.3125,-0.26436 -0.375,0.1322 -0.0625,0.26436 0,0.26434 0.375,0.4626 0.5625,0 1.3125,1.5861 0.8125,0.26434 0.4375,0.46262 0.125,1.05738 0.25,-0.1322 0.1875,-0.59478 0,-0.4626 0.375,0 0,-0.26436 -1,-0.52868 -1,-1.0574 -0.4375,-0.59478 -0.0625,-0.59478 0.5,-0.1322 -0.125,-0.39652 -0.3125,-0.26436 -0.3125,0 z m 18,0.1322 -0.6875,0.26434 0.4375,1.38784 0,0.52868 0.25,0 0.375,-0.72694 0.9375,0 0.1875,0.52868 2.0625,1.45392 0.75,0.1982 0.25,0.5287 0.4375,0 0,-0.85914 -0.4375,-0.26434 0.75,-0.9913 0.3125,0 0.3125,0.39652 0.8125,-0.33044 -1.125,-0.4626 -0.0625,-0.1982 -0.25,0.0662 -0.25,0.4626 -1.125,-0.0662 -0.8125,-1.18956 -1.4375,0.1322 -0.6875,-0.72696 -1,-0.1322 z m -14.5,0.1322 -0.3125,0.26434 -0.125,0 -0.125,0.33044 0.375,0.4626 0.0625,0.39654 -0.5,0.66086 0.0625,0.1982 0.25,0.0662 0.25,-0.26434 0.125,0 0.1875,0.1982 0.5625,-0.1982 -0.0625,-0.92522 -0.75,-1.18958 z m -1.5,0.1322 -0.5625,0.4626 -0.5625,0 -0.0625,0.39652 0.25,0.0662 0.125,-0.1982 0.25,0.1982 0.125,0.5948 1.0625,0.52868 0.125,-0.1322 -1.0625,-1.18956 0.0625,-0.1982 1.0625,-0.0662 0.125,-0.33044 -0.6875,0 -0.25,-0.1322 z m 22.75,0.33044 -0.3125,0.72694 -0.375,-0.39652 -0.3125,0 -0.0625,0.39652 0.0625,0.26436 1.3125,0.4626 -1.125,0.5287 -0.1875,-0.1322 -0.25,0.1982 0.0625,0.0662 0.125,0.0662 0.8125,0 0.4375,-0.1324 0.5,-0.66086 0.6875,0.0662 0.8125,-1.18958 -2.1875,-0.26434 z m 22.375,0.1322 -0.5,0.66086 0.25,0.1322 0,0.1982 -0.1875,0.1322 0.1875,0.46262 0.4375,1.05738 0.4375,0 0.4375,-0.59478 0.0625,-0.39652 -0.1875,-0.79304 -0.9375,-0.85914 z m -45.25,0.1322 -0.0625,0.1322 1,1.12348 0.4375,-0.5948 -0.0625,-0.26452 -0.3125,-0.39652 -1,0 z m 4.4375,0.52868 -0.3125,0.0662 -0.1875,0.26436 -1,0 -0.375,-0.26436 0,0.79306 0.25,0.59478 1,0 0.4375,-0.33044 0.4375,-0.1982 -0.125,-0.5287 0.125,-0.26434 -0.25,-0.1322 z m 5.3125,0.0662 -0.4375,0.26436 0.5,0.72696 0.6875,0.26434 0.375,0 0.625,-0.1982 0.1875,-0.26434 -1.9375,-0.79304 z m 6.8125,0.132 -0.3125,0.72696 -0.375,0 -0.625,0 -0.0625,0.39652 -0.6875,0 0,0.5948 0.6875,0.4626 -0.1875,0.66086 0,0.33044 0.3125,0 0.375,-0.5287 0.8125,-0.1982 1.8125,0.72696 0.0625,0.5287 1,0.1322 1.125,-1.25566 -0.125,-0.39652 -0.75,-0.1982 -2.125,-1.4539 -0.125,-0.5287 -0.8125,0 z m -26.0625,0.0662 -0.25,0.0662 -0.1875,0.46262 0.0625,0.5287 0.75,0.0662 0.125,0.33042 -0.375,1.98262 0.0625,0.33044 0.5,0.33042 0.625,0 1.25,-0.26434 0.5625,-0.85914 0,-0.79304 1.0625,-0.9913 0.0625,-0.4626 -0.9375,0 -1,-0.5287 -1.9375,0 -0.375,-0.1982 z m 6.875,0.5287 -0.3125,0.33034 0,0.26434 0.25,0.1982 0.0625,-0.0662 0.0625,-0.39652 -0.0625,-0.33044 z m 24.125,0 -0.625,0.79304 0.375,0.33044 0,0.85914 0.25,0 0.375,-0.1322 0,-0.26436 0.4375,-0.39652 0.3125,0.33044 0,0.5287 0.375,0 0.0625,-0.39652 0.375,-0.0662 0.25,0 0.125,0.26434 0.125,0 0.0625,-0.1982 -0.25,-0.59478 -0.5625,-0.0662 -0.125,-0.33044 -0.125,0 -0.3125,0.1322 -0.875,-0.0662 -0.25,-0.1322 0,-0.1982 0.3125,-0.26434 -0.0625,-0.1322 -0.25,0 z m -9.6875,0.1322 -0.1875,0.26436 0.75,0.9913 0.25,-0.0662 0.4375,0.4626 0.1875,-0.79304 0.4375,0.0662 -0.0625,-0.26434 -0.6875,-0.66088 -0.1875,0.39652 -0.9375,-0.39652 z m -10.1875,0.0662 -0.1875,0.26436 0,0.72694 0.1875,0.46262 0.125,-0.0662 0.25,-0.46262 -0.125,-0.1982 -0.0625,-0.59478 -0.1875,-0.1322 z m 0.875,0 -0.5625,0.1322 0.0625,0.46262 0.125,0.1982 0.5625,-0.33044 -0.1875,-0.4626 z m 4.25,0 -0.875,0.66088 -0.8125,0 -0.0625,0.52868 -0.875,0 -0.375,0.33044 0,0.1982 0.25,0.1982 0,0.1982 -0.125,0.26436 0.125,0.1982 0.25,-0.1322 0.3125,0.33042 -0.0625,0.1982 -0.125,0.1322 0.125,0.1982 0.8125,0.1982 0.5625,-0.26434 0,-0.33044 0.3125,0.0662 0.625,0.39652 0.6875,-0.1322 0.3125,-0.33042 0.1875,0.0662 0,0.39652 0.3125,0 0.1875,-0.5287 2.0625,-0.1982 0.9375,-0.1322 -0.25,-0.33044 0,-0.4626 0.1875,-0.1982 -0.6875,-0.59478 0.0625,-0.46262 -0.375,0 -0.625,-0.26434 -0.3125,0.33044 -1.25,0 -0.75,-0.46262 -0.75,-0.0662 z m -2,0.0662 -0.4375,0.1982 0,0.59478 0.5,-0.1982 0.1875,-0.1324 -0.0625,-0.26434 -0.1875,-0.1982 z m 6.8125,0.198 -0.625,0.1982 -0.0625,0.39652 0.6875,0.59478 0.5,0.1322 0.25,-0.26434 -0.75,-1.05738 z m -7.375,0.0662 -0.3125,0.26436 -1.0625,-0.0662 -0.625,0.39652 -0.375,0.59478 0,0.26434 0.6875,0.33044 0.375,0.1322 -0.1875,0.1982 -0.375,0.0662 -0.0625,0.1982 0.125,0.33044 0.4375,0.26434 0.1875,0 0,-0.59478 0.3125,-0.33044 -0.8125,-0.9913 0.125,-0.33044 0.1875,0 0.3125,0.1982 0.1875,-0.0662 0,-0.33044 0.875,0 0,-0.52868 z m -14.0625,0.1982 -0.0625,1.38784 -0.3125,0.26434 0.0625,0.1322 0.1875,0.33044 -0.125,0.4626 0.1875,0.0662 0.5,-0.0662 -0.0625,-0.39652 0.3125,-1.91652 -0.0625,-0.26434 -0.625,0 z m 58.75,0.26436 -0.4375,0.4626 0,0.4626 0.125,0.1322 0.5625,-0.52868 -0.0625,-0.46262 -0.1875,-0.066 z m -51.5625,0.0662 -0.375,0.1982 0.0625,0.85912 0.3125,0.0662 0.25,-0.26434 0,-0.79304 -0.25,-0.0662 z m 25,0.26434 -0.3125,0.33044 0,0.26434 -0.5,0.1982 -0.875,0 -1.1875,1.25566 -1.0625,-0.0662 0.25,1.9826 0.625,0.1322 0.0625,0.39652 -0.4375,0.39652 0.8125,0.66088 1.5625,-0.59478 0.125,-0.72696 1,-0.66088 0.375,-1.52 0.3125,-0.33042 -0.3125,-0.5287 1,-0.59478 -0.125,-0.1982 -0.5,0 0,0.4626 -0.625,0 0,-0.59478 -0.1875,-0.26434 z m -9.6875,0.1322 -0.1875,0.0662 -0.3125,0.39652 -0.625,-0.1322 -0.1875,0.1982 0.0625,0.33044 0.1875,0.39652 0.875,0.92522 -0.125,0.39652 -0.1875,0 -0.0625,0.39652 0.5,0.59478 0.4375,0.0662 0.875,1.25566 0.4375,0.0662 0.4375,0.26434 0,0.59478 1.5,0.92522 0.5625,0 0.3125,-0.33044 0.4375,0 0.25,0.5948 1.625,0.26434 0.0625,-0.66088 0.5625,-0.1986 0,-0.1982 -0.4375,-0.66086 -0.9375,-0.79304 0.5,-0.46262 -0.0625,-0.1982 -0.625,-0.1322 -0.25,-2.24694 0,-0.46262 -1.75,-0.72696 -0.75,0.1982 -0.375,0.5287 -0.375,0 -0.125,0.0662 -0.8125,-0.0662 L 40,991.40945 39.625,990.94683 z m 34.9375,0.066 -0.25,0.26434 0.0625,0.39654 0.25,0 0.125,0.85912 0.1875,0.1982 0.3125,-0.33044 0.125,-0.52868 -0.375,-0.59468 -0.4375,-0.26436 z m -52.75,0.1322 -0.25,0.1322 0.0625,0.1982 0.3125,0 0.1875,-0.1322 -0.3125,-0.1982 z m 29.3125,0.0662 -0.1875,0.26434 -0.125,0 -0.875,0.5948 0.25,0.52868 -0.3125,0.33044 -0.375,1.58608 -1,0.66088 -0.125,0.72696 -1.625,0.59478 0.4375,0.59478 -0.0625,0.33044 -0.5,0.26434 -0.0625,0.5287 0.625,0 0.1875,-0.1982 1.1875,0 1.0625,0.9913 0.125,-0.4626 0.75,0 0,-0.5948 -0.75,-0.85912 0.125,-0.39652 0.875,-0.0662 1.0625,-2.44522 -0.625,-0.5287 -0.1875,-0.85912 1.5,-0.1322 -0.875,-1.32174 -0.5,-0.1322 z m -24.75,0.79304 -0.75,0.1322 0.0625,0.1982 0.6875,0.33044 0.0625,0.1322 0.1875,0.0662 0,-0.72696 -0.25,-0.1322 z m -15.9375,0.33044 -0.0625,0.1982 0.125,0.1322 0.3125,-0.1982 -0.375,-0.1322 z m 28.125,0 -0.875,0.1322 -0.25,1.25566 -1,0.85912 0.0625,0.39652 1,0.0662 1.5625,1.32174 0.875,0 0,-0.33044 0.3125,-0.33042 0.4375,0.26434 0.0625,-0.0662 -0.8125,-1.18956 -0.4375,-0.0662 -0.5625,-0.72696 0.125,-0.5287 0.1875,0 0.0625,-0.26434 -0.75,-0.79304 z m -13.8125,0.1322 -0.8125,0.33044 0.25,1.18956 -0.3125,0.1982 0.0625,0.5287 0.5625,0.59478 0,0.59478 0.125,0.1982 0.25,-0.0662 0,-0.59478 0.1875,0 0.4375,-0.72696 -0.5625,-0.26434 0,-0.1322 0.125,-0.26436 0,-0.59478 -0.125,-0.0662 0,-0.33044 0.125,-0.1982 0,-0.1982 -0.3125,-0.1982 z m 12.8125,0 -1.9375,0.1982 -0.25,0.4626 -0.375,0 -0.0625,0.39654 0.4375,0.1982 0,1.12346 0.4375,0 0.375,-0.33042 0.1875,-0.0662 1,-0.79304 0.1875,-1.18958 z m -14.4375,0.1322 -2.625,0.5287 -0.5625,0.4626 0.375,1.91652 -1.0625,0.0662 -0.625,1.0574 -1.5,0.33044 0,0.79304 4.9375,3.96525 0.8125,0.066 2.8125,-2.31339 -0.3125,-0.33044 -0.5,-0.0662 -0.3125,-0.59478 0,-2.31304 -0.1875,-0.1982 0,-0.5948 -0.5625,-0.59516 -0.0625,-0.66086 0.25,-0.1322 -0.125,-0.72696 -0.125,-0.39652 -0.625,-0.26434 z m 29.4375,0.1982 -1.4375,0.1322 0.1875,0.66086 0.6875,0.5948 -1.1875,2.57738 -0.8125,0.0662 -0.125,0.26436 0.8125,0.79304 -0.0625,0.79304 -0.8125,-0.0662 -0.0625,0.39652 0.625,0 0.0625,0.26434 -0.5,0.26436 0.3125,0.66085 0.5625,0.1982 0.375,-0.3304 0.1875,-0.46263 0.1875,-0.132 0.25,0.26436 -0.0625,0.66087 -0.1875,0.3304 0.0625,0.5287 2.5,5.5513 0.75,-0.3965 0.375,-1.5861 0,-1.9826 2.4375,-2.7095 0,-0.66093 0.4375,-0.1982 0,-0.79304 -0.5,-1.05738 0.3125,-0.5948 0.625,0.66088 0.875,0 0,0.39652 -0.25,0.26434 0.0625,0.1982 0.4375,0 0.0625,0.5287 0.1875,0 0.3125,-0.59478 0.1875,-1.71826 0.5625,-0.4626 0,-0.5948 -0.1875,-0.4626 -0.375,0 -1.4375,0.9913 0.125,0.66088 -1,0 -0.375,-0.46262 -0.1875,0 0.0625,0.66088 -2.125,-0.1982 -1.375,-0.59478 -0.0625,-0.79316 -0.875,-0.59478 0,-1.18956 -0.625,-0.72696 z m -18.125,0.4626 -0.4375,0.1982 -0.4375,0.0662 0,0.26436 0.1875,0.1322 0.3125,0.0662 0.5625,-0.59478 -0.1875,-0.1322 z m -7.8125,0.0662 -0.25,0.0662 0,0.26436 0.25,0.1322 0.125,-0.1322 -0.125,-0.33044 z m 3.75,0 -0.125,0.1982 0.1875,0.0662 0.125,0.1982 0.6875,0 0.1875,-0.26434 -0.125,-0.0662 -0.1875,0.0662 -0.375,0 -0.125,-0.1982 -0.25,0 z m -12.3125,0.33034 -0.375,0.79304 -0.8125,0.39652 -0.625,1.91652 -1.3125,0.79304 -1.8125,3.17219 1.75,-0.066 0.0625,-0.92523 0.5,0 0,-1.25564 1.5625,0 0,-1.65218 1.5,-0.33044 0.6875,-1.05738 0.9375,-0.0662 -0.3125,-1.71826 -1.75,0 z m 16.875,0 0,0.33044 -0.125,0.4626 0.4375,0.0662 0,-0.72696 -0.3125,-0.1322 z m -21.3125,0.66086 -0.1875,0.1982 0.1875,0.1982 0.25,-0.1322 -0.25,-0.26434 z m 21.125,0.26436 -0.1875,0.79304 0.3125,0.9913 0.3125,-1.4539 0,-0.26436 -0.4375,-0.0662 z m 1.5,0.0662 -0.4375,0.33042 -0.5,0.0662 -0.375,1.38784 0,0.1982 0.5625,0 0.6875,-0.66088 0,-0.1982 -0.25,-0.33044 0.5,-0.39652 -0.0625,-0.39652 -0.125,0 z m -10.625,0.0662 -0.5,0.85912 -0.125,0 -0.0625,0.59478 -0.25,0 0,2.24696 0.25,0.5287 0.5625,0.0662 0.3125,0.4623 1.3125,0.33042 0.3125,-0.1982 3.1875,1.71831 0.5,0.066 -0.0625,-6.01417 -0.6875,-0.1322 -0.375,-0.4626 -0.875,0 -0.4375,0.39652 0,0.1982 0.25,0.26434 0.0625,0.26436 -0.625,0.33042 -1.1875,-0.59478 -0.3125,-0.52868 -1.25,-0.39654 z m 10.9375,0.39652 -0.4375,0.39652 0.1875,0.1982 0,0.33044 -0.75,0.72696 -0.625,0 0.125,0.4626 2.125,2.70956 0,0.72699 0.1875,0.3304 0.5625,0.3305 0.875,1.4539 0.625,-0.5948 1,0.6609 0.875,-0.8592 1.5625,-0.5287 1.125,-0.6613 0.1875,-0.92527 -0.1875,-0.0662 -1.6875,-0.1322 -0.125,-0.72696 -0.375,-0.33044 -1.0625,-1.58608 -0.75,-0.26434 -0.0625,-0.26436 -0.9375,0.0662 -1.5625,-1.38782 -0.875,-0.0662 z m 18.375,0 -0.75,0.1982 0.0625,0.66086 1.25,0.59478 2,0.1982 -0.0625,-0.52868 -1.375,-0.39652 -1.125,-0.72696 z m -21.6875,0.132 -0.5,0.39652 -0.375,0 -0.8125,-0.26434 -0.375,0 0.0625,4.89039 3.9375,0.066 0.4375,-0.52867 -0.0625,-0.79304 -1.4375,-1.91652 -0.1875,-0.59478 0.0625,-0.39652 0.25,0.0662 0.3125,1.0574 0.25,0.1322 0.125,-0.1322 -0.0625,-0.46262 -0.125,-0.33044 -0.3125,-0.9913 -0.0625,0 -0.5,0 -0.4375,-0.1984 -0.1875,0 z m 27.875,0.33044 0,0.66086 -0.5625,0.39652 -0.1875,1.71826 -0.375,0.66088 -0.0625,0.79304 -0.25,0.1322 1.0625,1.05737 0.25,0.5287 0.125,0.6609 0.125,0.1982 0.375,0 0.25,-0.5287 0.125,-0.1982 0.4375,0.8591 0.0625,0.9252 0.25,0.066 0.3125,0.5948 -0.3125,0.4626 0.4375,0.727 0.125,-0.3965 0,-0.9252 -0.5625,-0.9253 -0.0625,-0.1982 0.1875,-0.1982 0,-0.5947 -0.8125,-1.1238 0.125,-0.727 1.0625,-0.46261 0.25,-0.46262 -0.875,-0.1322 -0.125,-0.79304 -0.625,-0.26434 -0.25,-0.66088 0.375,-0.92522 -0.5625,-0.79304 -0.3125,-0.1322 z m -20.8125,0.26434 -0.25,0.26434 0,0.5287 0.5625,0.1982 0,-0.79304 -0.3125,-0.1982 z m 18.5625,0.26434 -0.9375,0.1322 0.1875,0.33044 0.8125,0 -0.0625,-0.4626 z m 13.25,0.1322 -0.5625,0.46262 0,0.85912 0.4375,0.5287 0.125,-0.0662 0,-1.78434 z m -59.0625,0.66088 -0.25,0.1982 0.3125,0.26434 0.1875,-0.39652 -0.25,-0.066 z m 44.875,0.1322 -0.1875,0.39652 0.5,1.05738 0,0.79306 0.125,0.1982 0.625,0.0662 0.3125,-0.39652 0.25,0.1982 0.0625,0.4626 0.25,-0.1322 0,-0.59478 -0.1875,-0.0662 -0.125,-0.5287 -0.4375,0 -0.0625,-0.33022 0.25,-0.33044 0,-0.1982 -0.75,0 -0.625,-0.59478 z m -43.125,0.0662 -0.3125,0.1982 0.125,0.1322 0.1875,-0.33044 z m -1,0.0662 -0.3125,0.0662 0.1875,0.26434 0.25,0 -0.125,-0.33044 z m 28.5,0.66086 -0.25,0.1982 -0.0625,0.59478 0.25,0.1982 0.1875,0 0.0625,-0.79304 -0.1875,-0.1982 z m 2.125,0.0662 -0.5,0.1322 -0.5625,0.85914 -1.0625,0.0662 0.125,0.59478 1.5,0.1322 0.125,-1.18956 0.25,-0.1322 0.125,-0.46262 z m -27.3125,0.0662 0,0.66088 -1.5625,0 0,1.25564 -0.5,0 -0.0625,0.92519 -1.875,0.066 0.3125,0.4627 -0.0625,1.9826 0.5,-0.3305 0.375,-0.066 0.5,0.1322 0.5,0.8592 0.5625,-0.3966 2.5625,0 -0.625,-4.49389 0.625,0 -1.25,-1.05738 z m 47.625,0.26436 -0.5625,0.33042 0.1875,0.79306 0.75,0.1322 0.1875,0.59477 -0.25,0.1982 0,0.1322 1.8125,1.8504 0.0625,0.5287 -0.125,1.6522 -1.25,0.9913 0.1875,0.2644 0.0625,0.3304 0.4375,0.066 0.625,-0.793 0.5625,-0.1982 0.25,-0.7931 -0.125,-1.3883 L 67,1002.05 l -0.625,-0.4626 -0.75,-1.3878 0.5625,-0.99131 -0.8125,-0.92522 -0.625,-0.0662 z m -20.375,0.26434 -0.25,0.1322 -0.0625,1.0574 0.25,0.1322 -0.1875,1.05741 -1.1875,0.6609 0.625,1.1234 0.75,0 1.6875,-2.6434 0,-0.39657 -1.375,-0.79306 -0.25,-0.33042 z m 19.6875,0.1322 -0.3125,0.1982 -0.3125,0.9913 0.5,0.66091 -0.125,0.793 0.125,0 0.875,-0.3965 1.125,1.3217 0,0.8592 0.25,0.1982 0.625,-0.5287 -0.0625,-0.4626 -1.8125,-1.7844 0,-0.2643 0.25,-0.1982 -0.125,-0.46265 -0.75,-0.1322 -0.25,-0.79304 z m -46.1875,0.5287 0.625,4.49391 -2.625,0 -0.5,0.3304 0.5625,0.7931 -0.0625,0.2643 0.875,-0.066 0.3125,0.8588 1.125,0 0.3125,-0.9252 1.625,-1.2556 2.125,-0.1982 0.125,-1.52 -0.4375,-0.066 -3.375,-2.70959 -0.6875,0 z m 7.875,0.4626 -2.8125,2.37911 -0.4375,-0.066 -0.125,1.5861 -1.4375,0.1982 0.8125,1.3218 0.375,-0.066 0.375,-0.5287 0.625,-0.1322 0.625,0.3965 1.3125,0.066 1.0625,-0.4626 0.375,-0.3305 0.0625,-0.4626 0.75,-0.793 0.1875,-1.7189 -0.5,-1.05735 -1.25,-0.33044 z m 1.75,0.1322 -0.375,0.1982 0.5,0.99131 -0.1875,1.8504 -0.75,0.727 0,0.5287 -0.375,0.3304 0.5,0.3966 0.375,0.066 0,1.1895 -0.25,0.1982 -0.0625,0.1982 0.25,0.1322 0.3125,0.6609 0.5,0.066 0,-0.1982 0.8125,0.066 0,-0.3965 1.125,-1.1235 0.6875,0 -0.375,-0.7931 0,-0.9252 0.5625,-0.5287 0,-1.7843 -3.25,-1.85047 z m 40.375,0.0662 -0.375,0.1322 -0.3125,0.33041 0.25,0.4626 0.3125,0 0.375,-0.3304 0.0625,-0.46261 -0.3125,-0.1322 z m -32.0625,0.0662 -0.5625,0.59481 -4,0 0.0625,1.0574 -0.375,0 -0.0625,1.9165 -0.5625,0.5287 0,0.793 0.375,0.8592 0.5,0.2643 -0.0625,0.5287 -0.1875,0.1322 1.875,2.0487 1.0625,0.066 0.125,0.1982 1.5,0.066 0,-0.3304 0.125,-0.2644 0.5,-0.066 -0.625,-0.9252 -0.4375,0 -0.125,-0.6609 0.375,-0.1982 1.0625,-2.3791 0,-1.3217 0.6875,-0.7931 -1.25,-2.11477 z m 27.4375,0 -1,0.39651 -0.0625,0.6609 0.8125,1.0574 0,0.7269 -0.1875,0.1982 0.0625,0.066 0.5625,0.9253 0,1.0574 -0.25,0.4626 -0.0625,0.3304 -0.1875,0.3965 0.125,0.4626 0.5,0.4626 0.4375,0 0.375,0.5948 0.4375,0 0.0625,-0.1982 -0.8125,-0.8599 -0.5,-0.8591 0.0625,-2.0487 0.125,-0.1982 0.3125,0 0,0.4626 0.6875,0.5287 0.25,-0.1322 0,-0.3965 -0.3125,-0.1322 -0.0625,-0.3965 0.375,-0.5948 0.1875,0 0.3125,0.1322 0.3125,0.066 0,-0.793 -0.9375,-1.1235 -0.125,-0.066 -0.8125,0.3965 -0.1875,-0.066 0,-0.8591 -0.5,-0.66091 z m 9.4375,0.39651 -0.375,0.2644 -0.0625,0.9913 0.625,1.2556 0.25,0.1982 0.25,-0.1982 0.4375,0.066 0.125,0.3966 0.3125,0.066 0.1875,-0.2644 -0.25,-0.2643 -0.25,-0.2644 -0.5,-0.066 -0.3125,-0.4626 0.3125,-0.5287 0.0625,-0.4626 -0.25,-0.5948 -0.5625,-0.1322 z m -29.875,1.3211 -1.5,0.5287 -0.875,0.8592 -1,-0.5948 -0.5625,0.5287 0.25,0.7269 0,0.6609 0.25,0.3304 0.25,0.1982 3.75,-1.6521 0.0625,-0.4627 -0.625,-1.1233 z m -3.4375,3.04 -0.25,-0.1322 -0.3125,0.3966 -0.0625,0.5947 0.5625,0 0.0625,-0.8591 z m -2.25,-2.5113 -0.625,0.727 0.0625,0.9252 1.125,0 1.0625,0.9913 0.25,-0.3304 -1.4375,-1.1235 -0.3125,-1.0574 -0.125,-0.1322 z m 28.0625,0.7931 -0.125,0.066 -0.3125,0.5287 0.0625,0.2643 0.3125,0.1322 -0.0625,0.5287 -0.1875,0.1322 0.625,0.727 1.1875,-0.9253 0.0625,-1.4539 -0.5625,0.4626 -0.3125,-0.1982 -0.4375,-0.066 -0.25,-0.1982 z m -50.9375,0.1322 -0.3125,0.066 -0.625,0.4626 -0.125,0.2643 -0.0625,0.2644 0.25,0.1322 0.75,0 0.5,-0.1322 0,0.2643 0,0.3305 0.4375,0.1982 0.125,0.1322 0.5625,0 0.0625,-0.2644 -0.5625,-0.7269 -0.625,-0.8592 -0.375,-0.1322 z m 58.6875,0 0.125,0.4626 0.1875,0.1322 0.125,-0.1982 -0.25,-0.3305 -0.1875,-0.066 z m -62.5,0.066 -0.25,0.1982 0.1875,0.1982 0.25,-0.1322 -0.1875,-0.2644 z m 0.75,0.3965 -0.1875,0.1322 0.125,0.2643 0.3125,-0.1322 -0.25,-0.2643 z m 63.75,0 -0.375,0.066 0.3125,0.3965 0.125,0.3965 0.25,0 -0.0625,-0.661 -0.25,-0.1982 z m -54.1875,0.1982 -0.5625,0.066 -1.625,1.2556 -0.25,0.8592 0.1875,0.2643 0.6875,-0.066 0.1875,-0.4626 0.8125,-0.066 0.625,0.1982 0.8125,-0.6609 -0.875,-1.3876 z m 52.875,0.1982 -0.0625,0.793 0.3125,0.3305 0.0625,0.5287 0.3125,0.066 0.125,-0.3305 -0.1875,-0.1982 -0.0625,-0.9913 -0.5,-0.1982 z m -62.875,0.066 -0.25,0.1982 0.25,0.3304 0.25,-0.066 -0.25,-0.4626 z m 25.8125,0 -1.125,2.6435 -0.375,0.066 0.0625,0.5287 0.4375,0 0.6875,1.0574 0.375,0.1322 0.875,0.793 0.5,0 2,-0.6609 1.4375,-1.6521 -0.75,0 -1.25,-0.7931 -0.0625,-0.4626 -0.8125,0 0.0625,-0.793 -0.9375,-0.8592 -1.125,0 z m -22.0625,0.2637 -0.3125,0.1322 -0.75,0.066 0,0.1322 1.0625,0 0.0625,-0.1982 -0.0625,-0.1322 z m 59.875,0 0,0.7269 0.1875,0.2644 0.25,-0.3305 -0.0625,-0.6608 -0.375,0 z m -2,0.066 -0.125,0.2643 -0.0625,0.3304 -0.75,0.9253 0.0625,0.2643 0.3125,-0.066 0.9375,-1.1235 -0.375,-0.5948 z m -49.3125,0.1322 -0.5,0.1322 -0.25,0.4626 0,1.2556 -0.4375,0.5948 0,0.9252 0.625,0.066 0.6875,0.8592 0.375,0.066 0.25,-0.1322 0.4375,-0.066 0.125,-0.5948 0.625,-0.3966 0.625,-0.066 1.125,-2.1808 -0.0625,-0.5287 -0.5,-0.3965 -1.0625,0.4626 -1.375,0 -0.6875,-0.4627 z m 20.8125,0 -0.375,0.1322 -0.375,0.066 0.375,0.3965 0.4375,-0.3305 0.125,-0.066 -0.1875,-0.1982 z m -30.4375,0.2643 0.1875,0.5287 0.0625,-0.3304 1.3125,0.1322 -0.5625,-0.2644 -1,-0.066 z m 13.375,0.1982 0,0.5287 -1.125,2.247 -0.6875,0.066 -0.5,0.3304 -0.125,0.5948 0.5,0.4626 -0.0625,0.7269 2.75,-0.066 0.1875,-0.2643 -0.75,-0.8591 -0.125,-0.3305 0.5,-0.9913 -0.3125,-0.6608 -0.3125,-0.1322 0,-0.3305 0.3125,-0.2643 0.0625,-0.9913 -0.3125,-0.066 z m -13,0.1322 -0.125,0.3965 0.25,0.4626 0.5625,-0.5947 0,-0.1322 -0.6875,-0.1322 z m 28.8125,0 -0.625,0.3304 0.125,0.5947 -0.125,0.5948 -0.375,0.3305 -1.5625,1.7843 -1.125,0.3304 -0.5,0.6609 0.0625,1.5861 0.375,0.2643 3.375,-3.7669 0.625,-1.9165 0,-0.5948 -0.25,-0.1982 z m 32.5,0 0.0625,0.5287 -0.5,0.3965 -0.4375,0.066 -0.5,0.5287 0.0625,0.1982 0.375,-0.1322 0.3125,-0.1982 0.25,0.6609 0.4375,0.3304 0.1875,-0.066 0.1875,-0.1982 -0.375,-0.3304 0.1875,-0.1982 0.25,0.1982 0.1875,-0.2644 -0.1875,-0.3304 0,-0.793 -0.5,-0.3966 z m -60.5,0.066 0,0.3304 -0.625,0.5287 0.4375,0.7931 0.625,-0.5948 0.625,0 0.5,0.727 0.4375,0.3304 0.1875,-0.3965 0.125,-0.066 0,-0.727 -0.25,-0.9252 -0.9375,0.1322 -1.125,-0.1322 z m 7.1875,0 -0.6875,0.5287 0.3125,0.5948 0,1.6522 0.3125,0 0,-0.9913 0.4375,-0.6609 0,-1.0574 -0.375,-0.066 z m 20.0625,0.2644 -1.5625,0.5947 -0.1875,0 -0.625,-0.4626 0,0.4626 1.1875,0.727 0.875,0.066 0.3125,-0.2644 0.125,-0.5286 -0.125,-0.5948 z m -21.6875,0.3304 -0.75,0.066 -0.25,1.7182 0.1875,0.3966 0.4375,0.7269 0.25,0 0.6875,-0.3965 -0.0625,-2.313 -0.5,-0.1982 z m 0.8125,0.066 -0.125,0.1322 0,2.2469 0.4375,-0.2643 0,-1.6522 L 21,1005.7506 z m 8.9375,0 -1,1.0574 -0.0625,0.4626 -0.8125,-0.066 0,0.1982 -0.5625,-0.066 -0.5,0.9913 0.125,0.2643 0.6875,0.7931 0.3125,-0.3305 0.4375,0 0.125,-0.3965 0.4375,-0.2643 0.9375,0.6608 0.5,-0.5947 2.0625,0.1322 -1.875,-2.1148 0.25,-0.1322 0,-0.3965 -0.4375,-0.1982 -0.625,0 z m 25.9375,0.1322 -0.25,0.1322 0.0625,0.3965 0,0.3304 -0.1875,0.066 0.0625,0.727 0.375,0.1982 0.5,-0.3304 -0.125,-0.7931 0.0625,-0.2643 -0.5,-0.4626 z m -38.4375,0.066 -0.375,0.066 0.0625,0.8591 -0.1875,0.066 -0.25,0.3965 0.5625,0.6609 0.0625,1.0574 0.6875,-0.5288 0.8125,-0.1322 0.8125,0.1982 -0.4375,-0.7269 -0.125,-0.3966 0.125,-1.2556 -0.75,0.066 -0.3125,-0.3305 -0.6875,0 z m -1.8125,0.3303 -0.5625,0.066 -0.5625,0.4626 0.875,0.8592 0.625,-0.7931 -0.375,-0.5948 z m 55.875,0.4626 -0.5,0.9253 0.1875,0.5286 -0.3125,0.4627 -0.5,-0.1982 -1.3125,1.0573 0.0625,0.5287 -0.625,0 0.5,0.5287 1.75,-0.5947 0.375,-1.454 0.8125,-0.066 0.6875,-0.5947 -0.9375,-0.727 -0.1875,-0.3965 z m -55.375,0.2644 -0.625,0.793 1.6875,1.1896 -0.0625,-0.9252 -0.5,-0.5948 -0.5,-0.4626 z m 47.5625,0.198 0.3125,0.7269 0.0625,0.9253 0.375,0.7269 1,0.5948 0.375,0.066 -0.0625,-0.6609 -0.3125,-0.8591 -0.5,-1.0574 0,0.1982 -0.625,-0.066 -0.375,-0.5948 -0.25,0 z m -1.625,0.3304 0,0.3965 1.0625,1.8505 0.25,0 2.1875,3.833 0.875,0.1322 0.4375,-1.3878 -0.6875,-0.4626 -0.125,-0.727 -4,-3.6348 z m 8.875,0.2644 -0.4375,0.5947 0.3125,0.1322 0.25,-0.3304 -0.125,-0.3965 z m -19.0625,0.2643 0.0625,0.3965 0.25,0.1322 0.0625,-0.3965 -0.375,-0.1322 z m -15.625,0.3304 -0.5625,0.066 -0.0625,0.1322 0,0.3966 0.4375,0.8591 -0.5,1.0574 -0.0625,0.3304 2.4375,1.6522 0.75,-1.2557 -0.375,-0.3304 0,-1.7182 0.5,-0.5287 -0.8125,0.2643 -0.5625,0 -0.9375,-0.793 -0.25,-0.1322 z m -7.125,0.1322 -0.375,0.2644 -0.1875,2.1148 -0.625,0.4626 -0.1875,0.4626 0.0625,0.6609 -1.125,0.9252 -0.25,-0.1322 0.0625,0.1322 -0.375,0.3304 1.625,0 0.3125,0.4626 0,0.3305 0.125,0.1322 0.75,0 0.25,-0.4627 0.3125,0 0.125,0.1322 0.4375,0 0.125,1.6522 0.8125,0 0,0.1322 2.0625,0.9913 0.0625,0.1982 0.4375,0 -0.0625,-0.7269 -0.75,-0.3966 0.0625,-0.5286 0.3125,-0.7931 0.75,0 -0.625,-2.313 0,-0.9913 1,-1.7183 0.0625,-0.2643 -0.1875,-0.066 0,-0.4627 -0.1875,0 -0.1875,-0.2643 -3.125,-0.1982 -0.5625,0.5948 -0.9375,-0.6609 z m 42.6875,0.066 -0.5625,0.066 -0.375,1.3877 -1.9375,0.7269 -0.5625,-0.7269 -0.3125,0.066 0.5,2.1147 0.8125,0.1322 1.0625,0.3966 0,0.4626 0.4375,-0.1322 0.75,-0.9913 0,-0.8592 0.375,-0.8591 0.4375,0.1322 -0.5,-1.1896 -0.125,-0.7269 z m -19.5625,0.3305 -0.0625,0.5287 0.1875,0.1322 0.1875,-0.3305 -0.3125,-0.3304 z m -17.9375,0.1322 -0.0625,0.3304 0.1875,0.1982 0,0.3304 -0.75,1.1235 0.5,0.4626 0.25,-0.1982 0.8125,-0.1322 0.125,0 0.0625,-0.3304 0.4375,-0.9913 -0.375,-0.793 -1.1875,0 z m -10.0625,0.066 -0.125,0.3304 0.25,0.1322 0.1875,-0.1982 -0.0625,-0.2643 -0.25,0 z m 3.875,0.066 -0.5,0.7269 -1.25,0.066 0,0.1982 0.75,0.066 0,1.9826 -0.625,0 -0.375,-0.3304 -0.3125,0.1982 -0.0625,0.066 0.1875,0.066 0.0625,0.4626 -0.4375,0.3305 0.0625,0.1982 0.5,-0.3305 0.1875,0 0.0625,0.1982 0.3125,0.1322 0.9375,-0.8591 0,-0.5948 0.1875,-0.4626 0.625,-0.5287 0.125,-1.5861 -0.4375,0 z m 48.125,0.4626 -0.3125,0.7269 0.4375,0.6609 0.1875,0 0.1875,-0.4626 0.125,-0.1322 -0.25,-0.1982 -0.25,-0.1322 -0.125,-0.4626 z m -1,0.1322 -0.5625,0.5287 -0.375,0 -0.5625,-0.3305 -0.4375,0.066 -0.4375,0.727 -0.3125,1.3878 -0.125,0.5287 0.3125,0.4626 -0.1875,0.6609 0,0.1322 0.5,0 0.1875,-1.7183 0.1875,0.066 0.25,1.52 0.3125,0.1322 0.25,-0.6608 -0.25,-1.0574 -0.25,-0.3965 0.75,-0.5287 -0.1875,-0.2644 -0.6875,0.4626 -0.1875,0 -0.3125,-0.5287 0.125,-0.1982 0.5625,-0.3304 0.8125,0.2643 0.25,0 0.6875,-0.5947 -0.3125,-0.3305 z m -50.375,0.1982 0,0.2643 0.6875,0 0,-0.2643 -0.6875,0 z m 0.8125,0 0,0.3965 -0.875,0 -0.5625,1.0574 1.25,1.4539 0.3125,-0.2643 0,-0.2644 -0.1875,-0.1322 0,-0.1982 0.4375,-0.3304 0.4375,0.3965 0.5,0 0,-1.7183 -0.75,-0.066 0,-0.3304 -0.5625,0 z m 26.5625,0 -0.125,0.1982 0.1875,0.1322 0.25,-0.1322 -0.3125,-0.1982 z m -28.625,0.1322 0.125,0.2643 0.125,0.066 0.125,-0.1982 -0.125,-0.1322 -0.25,0 z m -0.1875,0.5287 -0.125,0.066 0,0.1982 0.125,0.066 0.125,-0.1982 -0.125,-0.1322 z m 55.5,0.4626 -0.625,0.066 -0.375,0.3304 0.125,0.3305 0.6875,0.1322 0,0.1322 -0.4375,0.3965 0.25,0.793 0.1875,0 0.1875,-0.793 0.375,0 0.125,0.793 1.6875,1.4539 0,1.1235 0.625,0.6609 0.25,0 0.0625,-4.0313 -1,-0.727 -0.9375,0.6609 -0.3125,0.1982 -0.5625,-0.3304 0,-1.1896 -0.3125,0 z m -45.3125,0.066 -0.25,0.3965 0,0.4626 0.6875,0 0,-0.4626 -0.4375,-0.3965 z m 1.625,0.066 -0.75,0.1982 -0.3125,0.1982 0,0.4626 -0.1875,0.727 -0.1875,0.1982 -0.3125,0.066 0.5625,1.8504 0.8125,0.4626 0.625,0 0,0.1322 -0.5,0 0.25,1.1896 -0.1875,0.8591 0.5,0.5948 0,0.6608 0.0625,0.2644 0.625,-0.727 -0.0625,-0.9252 -0.3125,-0.2643 0,-0.1322 -0.1875,-0.727 2.5625,-0.3304 -0.5625,-1.2557 -0.0625,-1.1895 0.1875,-0.5948 -2.5625,-1.7183 z m 0.625,5.8156 0.4375,0.3305 0.125,1.0574 -0.875,0.9252 -0.1875,-0.5288 0,-0.6608 -0.4375,-0.5286 -1.25,0.5948 1.125,0.5946 0.0625,1.7184 -0.75,1.1896 0,1.3878 0.4375,0.3964 0.9375,-0.6608 0.1875,-0.9252 0,-1.52 1.5625,-1.3878 0.25,0 1,-0.9252 -0.1875,-1.9827 -2.5,0.3305 0.0625,0.5947 z m 41.25,-4.9565 -0.625,0.1322 -0.1875,0.1982 0.1875,0.2644 0.375,-0.1322 0.25,-0.1982 0.375,0.3304 0.1875,-0.1322 -0.3125,-0.3965 -0.25,-0.066 z m -43.125,0.065 -0.625,0.066 0,0.3305 0.125,0.3965 0.1875,0 0.1875,-0.1322 0.125,-0.6609 z m 48.1875,0.3965 -0.0625,3.9653 0.5625,0 0.6875,-0.9253 0.625,0.066 0.375,0.3305 0.125,1.1235 1.1875,0.7268 0.3125,-0.132 0,-0.4625 -0.9375,-0.8592 -0.5,-1.1896 0.375,-0.1982 -0.25,-0.5948 -0.625,-0.066 -0.125,-0.6608 -1.5,-1.1235 -0.25,0 z m -37.3125,0.1322 -0.25,0.1982 0.1875,0.3305 0.3125,0 -0.25,-0.5287 z m -18.75,0.3305 -0.375,0.3304 0.25,0.3965 0.3125,-0.3965 -0.0625,-0.3304 -0.125,0 z m 18.875,0.5287 -0.1875,0.1982 0.125,0.2643 0.25,0.066 0.0625,-0.5287 -0.25,0 z m -17.3125,0.3304 -1.625,0.066 0.5,2.0487 0,0.6609 -0.75,0.859 -0.125,1.454 2.9375,0 0.9375,0.3966 0.8125,-0.132 -0.4375,-0.5948 0,-1.7844 0.875,-0.066 0,-0.6609 -0.75,0 -0.125,-1.6521 -0.3125,0 -0.1875,-0.1322 -0.1875,0 -0.1875,0.5287 -0.9375,0 -0.25,-0.2644 0.0625,-0.3304 -0.25,-0.3965 z m 39.125,0.2644 -0.4375,0.3304 0.125,0.2643 1.3125,0.3305 0.6875,0.1322 0.3125,0.3304 0.75,0.066 0.375,0.3304 0.3125,-0.1322 0.3125,-0.2643 -0.5625,-0.2644 -0.4375,-0.4627 -1.3125,-0.3304 -1.4375,-0.3305 z m -23.25,0.066 -0.0625,0.1982 0.25,0.1982 0.1875,-0.1982 -0.375,-0.1982 z m 42.4375,0.1322 -0.5625,0.1322 0.0625,0.3304 0.5,-0.066 0,-0.3965 z m -52.125,0.5947 -0.6875,0.066 -0.3125,0.7931 0,0.3304 0.8125,0.3965 0.0625,0.8592 -0.6875,0.066 -0.1875,-0.2644 -1.875,-0.8591 -0.0625,0.6609 -0.875,0 0,1.52 0.4375,0.6608 0.75,0.066 0.3125,0.198 0.75,0 0.6875,-1.0574 1.9375,-0.859 0.1875,-0.7931 -0.25,-1.1896 -1,-0.5948 z m 37.9375,0.4627 0.0625,0.3304 0.3125,0.1322 0.1875,-0.1982 -0.1875,-0.2644 -0.375,0 z m -0.5625,0.1982 -0.375,0.1982 0.1875,0.1982 0.5,-0.1982 -0.3125,-0.1982 z m 1.6875,0 -0.1875,0.1322 -0.0625,0.1982 0.6875,0.066 0.5,-0.3305 -0.3125,-0.066 -0.4375,0.1322 -0.1875,-0.1322 z m 2.0625,0.1982 -0.8125,0.7269 0.0625,0.1982 0.375,-0.066 0.375,-0.3965 0.75,-0.1322 -0.125,-0.2644 -0.625,-0.066 z m -35.25,0.4626 0.0625,0.2643 0.3125,0.066 0.125,-0.3304 -0.5,0 z m 32.875,0 -0.4375,0.066 0.4375,0.3304 0.25,0 -0.25,-0.3965 z m -30.625,0.2642 -0.3125,0.8592 -0.5625,1.0573 -1,0.066 -0.375,0.5288 0.0625,1.586 -0.625,0.7932 0.0625,1.2556 0.5,0.5948 0.625,-0.066 0.625,-0.4626 -0.125,-0.727 1.375,-2.5774 -0.25,-0.3304 0.25,-0.661 0.3125,0.132 0.125,-0.2642 -0.3125,-1.2557 -0.1875,-0.5287 -0.1875,0 z m -1.375,0.1982 -0.4375,0.066 0.125,0.2644 0.1875,0 0.125,-0.3305 z m 37.75,1.1897 -1.5625,0.4626 -0.4375,1.3216 -0.6875,0.198 -0.0625,-0.9252 -2.9375,1.8504 0.0625,0.661 -0.4375,0.6608 -1.0625,0 -2.375,1.0574 -0.8125,2.3134 -0.0625,4.1634 -0.625,0.4626 0,0.3966 0.8125,0.5948 2,-0.3966 1.0625,0 0.375,-0.5948 2.3125,-0.4626 1.625,0.5288 -0.125,0.6608 0.25,0.727 1.25,-0.2644 0.0625,0.3966 -0.875,0.5948 0.3125,0.2642 0.5625,-0.2642 -0.125,1.9826 1.125,0.9252 0.6875,-0.2644 0.3125,0.3304 1.9375,-0.2642 1.75,-3.1062 0.6875,-0.132 1.3125,-2.5774 0.3125,-2.247 -0.8125,-1.0574 0.3125,-0.2642 -0.625,-2.181 -0.75,-0.5286 0.125,-2.9078 -0.625,-0.5288 -0.1875,-1.586 -0.3125,0 -1.125,3.833 -0.5625,0.066 -1.375,-1.454 0.75,-2.1808 -1.4375,-0.2644 z m -44.8125,0.3966 -0.4375,0.198 -0.6875,0.9914 -0.875,0 0,0.198 1.4375,1.6522 1.0625,0.3304 0.6875,-1.1894 -0.0625,-1.5862 -1.125,-0.5948 z m -7.9375,0.7932 0.125,0.859 0.9375,1.454 -0.1875,0.793 0,0.3966 0.75,1.9164 0.5,0.066 0.3125,0.3304 0.75,0 0.1875,-2.1808 0,-1.3878 0.4375,-0.066 0.1875,-1.52 1.1875,0 0.375,-0.3966 -0.6875,0 -0.9375,0.132 -1.0625,-0.3964 -2.875,0 z m 5.6875,0.3304 -0.4375,0.3964 -1.125,0.066 -0.1875,1.454 -0.4375,0.132 0,1.3218 0.3125,0.132 -0.0625,0.9912 0.375,0.066 0.75,-0.793 0.9375,0.132 0.25,-0.661 1.1875,-1.1894 -1.4375,-1.7184 0,-0.2642 -0.125,-0.066 z m 13.875,1.3878 -0.1875,0.3304 0,0.3304 0.5,-0.3964 -0.3125,-0.2644 z m -0.8125,0.5286 -0.375,0.066 0,0.2644 0.1875,0.066 0.375,-0.132 -0.1875,-0.2644 z m -11.3125,0.198 -1.25,1.1896 -0.25,0.727 -1,-0.132 -0.8125,0.793 -0.5,-0.066 0.0625,-1.0574 -0.1875,-0.066 -0.1875,2.1148 -0.9375,0 -0.25,-0.3304 -0.4375,0 0.375,1.1234 0.6875,0.727 -0.5,0.5948 0.3125,0.727 0.75,0.2642 0.5625,-0.5286 1.6875,0.066 0.125,-0.198 0.6875,-0.132 2.5,-2.6434 0,-0.7932 -0.25,0.3966 -0.375,0 -0.5,-0.4626 0.25,-0.6608 0.4375,-0.066 -0.0625,-1.3218 -0.9375,-0.2644 z m 1,1.7184 -0.375,0.066 -0.125,0.4626 0.25,0.2642 0.375,0 0.3125,-0.4626 -0.4375,-0.3304 z m -1.5625,1.3216 0.1875,0 0.375,0.3966 0,0.5286 -0.4375,0.198 0,0.198 -0.6875,0 -0.25,-0.5286 0.25,-0.3966 0.5625,-0.3964 z m 0,0.132 -0.5,0.3966 -0.125,0.2644 0.125,0.3304 0.5,0.066 0,-0.132 0.4375,-0.198 0.0625,-0.3304 -0.3125,-0.3966 -0.1875,0 z m 45.5,11.9618 -0.25,1.1234 0.0625,0.8592 0.8125,-0.066 0.9375,-1.52 L 78,1036.6788 z m -31.3125,0.5286 0,0.727 0.9375,0.198 0.1875,-0.5946 -0.3125,0.132 -0.4375,0.066 -0.125,-0.5288 -0.25,0 z M 86,1041.371 l -0.625,0.2644 0.125,0.4626 0.5,0.2642 0,-0.9912 z"
       id="kalimantan"
       style="opacity:0.3;fill:#ffffff;fill-opacity:1" />
    <path
       style="opacity:0.05;fill:#000000;fill-opacity:1;fill-rule:nonzero;stroke:#000000;stroke-width:4;stroke-linejoin:round;stroke-miterlimit:4;stroke-opacity:1;stroke-dasharray:none"
       d="m 20,16 0,1 0,1 0,6 0,6 0,6 0,6 1,0 0,1 1,0 0,1 1,0 0,1 1,0 0,1 1,0 0,1 1,0 0,1 0,6 0,6 1,0 0,1 1,0 0,1 1,0 0,1 1,0 0,1 1,0 0,1 1,0 0,1 1,0 0,1 1,0 0,1 1,0 0,1 1,0 0,1 1,0 0,1 1,0 0,1 1,0 0,1 1,0 0,1 1,0 0,1 1,0 0,1 1,0 0,1 1,0 0,1 1,0 0,1 6,0 0,-1 1,0 0,-1 1,0 0,-1 1,0 0,-1 1,0 0,-1 1,0 0,-1 1,0 0,-1 1,0 0,-1 1,0 0,-1 1,0 0,-1 1,0 0,-1 1,0 0,-1 1,0 0,-1 1,0 0,-1 1,0 0,-1 1,0 0,-1 1,0 0,-1 1,0 0,-1 1,0 0,-1 1,0 0,-6 0,-6 0,-1 1,0 0,-1 1,0 0,-1 1,0 0,-1 1,0 0,-1 1,0 0,-1 1,0 0,-6 0,-6 0,-6 0,-6 0,-1 0,-1 -1,0 -1,0 -1,0 -1,0 0,1 -1,0 0,1 -1,0 0,1 -1,0 0,1 -1,0 0,1 -1,0 0,1 -1,0 0,1 -1,0 0,1 -1,0 0,1 -1,0 0,1 -1,0 0,1 -1,0 0,1 -1,0 0,1 -1,0 0,1 -1,0 0,6 -6,0 -8,0 -6,0 0,-6 -1,0 0,-1 -1,0 0,-1 -1,0 0,-1 -1,0 0,-1 -1,0 0,-1 -1,0 0,-1 -1,0 0,-1 -1,0 0,-1 -1,0 0,-1 -1,0 0,-1 -1,0 0,-1 -1,0 0,-1 -1,0 0,-1 -1,0 0,-1 -1,0 -1,0 -1,0 z m 6,14 6,0 0,6 1,0 0,1 1,0 0,1 1,0 0,1 1,0 0,1 1,0 0,1 1,0 0,1 -6,0 -6,0 0,-6 z m 38,0 6,0 0,6 0,6 -6,0 -6,0 0,-1 1,0 0,-1 1,0 0,-1 1,0 0,-1 1,0 0,-1 1,0 0,-1 1,0 z m -32,22 10,0 0,6 -10,0 z m 22,0 10,0 0,6 -10,0 z m -10,14 8,0 0,6 -8,0 z"
       transform="translate(0,956.36218)"
       id="path3986"
       inkscape:connector-curvature="0"
       sodipodi:nodetypes="cccccccccccccccccccccccccccccccccccccccccccccccccccccccccccccccccccccccccccccccccccccccccccccccccccccccccccccccccccccccccccccccccccccccccccccccccccccccccccccccccccccccccccccccccccccccccccccccccccccccccccccccccccccccccccccccccccccccccccccccc" />
    <path
       id="path3984"
       transform="translate(0,956.36218)"
       d="m 20,16 0,1 0,1 0,6 0,6 0,6 0,6 1,0 0,1 1,0 0,1 1,0 0,1 1,0 0,1 1,0 0,1 1,0 0,1 0,6 0,6 1,0 0,1 1,0 0,1 1,0 0,1 1,0 0,1 1,0 0,1 1,0 0,1 1,0 0,1 1,0 0,1 1,0 0,1 1,0 0,1 1,0 0,1 1,0 0,1 1,0 0,1 1,0 0,1 1,0 0,1 1,0 0,1 1,0 0,1 1,0 0,1 1,0 0,1 6,0 0,-1 1,0 0,-1 1,0 0,-1 1,0 0,-1 1,0 0,-1 1,0 0,-1 1,0 0,-1 1,0 0,-1 1,0 0,-1 1,0 0,-1 1,0 0,-1 1,0 0,-1 1,0 0,-1 1,0 0,-1 1,0 0,-1 1,0 0,-1 1,0 0,-1 1,0 0,-1 1,0 0,-1 1,0 0,-6 0,-6 0,-1 1,0 0,-1 1,0 0,-1 1,0 0,-1 1,0 0,-1 1,0 0,-1 1,0 0,-6 0,-6 0,-6 0,-6 0,-1 0,-1 -1,0 -1,0 -1,0 -1,0 0,1 -1,0 0,1 -1,0 0,1 -1,0 0,1 -1,0 0,1 -1,0 0,1 -1,0 0,1 -1,0 0,1 -1,0 0,1 -1,0 0,1 -1,0 0,1 -1,0 0,1 -1,0 0,1 -1,0 0,1 -1,0 0,6 -6,0 -8,0 -6,0 0,-6 -1,0 0,-1 -1,0 0,-1 -1,0 0,-1 -1,0 0,-1 -1,0 0,-1 -1,0 0,-1 -1,0 0,-1 -1,0 0,-1 -1,0 0,-1 -1,0 0,-1 -1,0 0,-1 -1,0 0,-1 -1,0 0,-1 -1,0 0,-1 -1,0 -1,0 -1,0 z m 6,14 6,0 0,6 1,0 0,1 1,0 0,1 1,0 0,1 1,0 0,1 1,0 0,1 1,0 0,1 -6,0 -6,0 0,-6 z m 38,0 6,0 0,6 0,6 -6,0 -6,0 0,-1 1,0 0,-1 1,0 0,-1 1,0 0,-1 1,0 0,-1 1,0 0,-1 1,0 z m -32,22 10,0 0,6 -10,0 z m 22,0 10,0 0,6 -10,0 z m -10,14 8,0 0,6 -8,0 z"
       style="opacity:0.09999988;fill:#000000;fill-opacity:1;fill-rule:nonzero;stroke:#000000;stroke-width:3;stroke-linejoin:round;stroke-miterlimit:4;stroke-opacity:1;stroke-dasharray:none"
       inkscape:connector-curvature="0"
       sodipodi:nodetypes="cccccccccccccccccccccccccccccccccccccccccccccccccccccccccccccccccccccccccccccccccccccccccccccccccccccccccccccccccccccccccccccccccccccccccccccccccccccccccccccccccccccccccccccccccccccccccccccccccccccccccccccccccccccccccccccccccccccccccccccccc" />
    <path
       style="opacity:0.14999994;fill:#000000;fill-opacity:1;fill-rule:nonzero;stroke:#000000;stroke-width:2;stroke-linejoin:round;stroke-miterlimit:4;stroke-opacity:1;stroke-dasharray:none"
       d="m 20,16 0,1 0,1 0,6 0,6 0,6 0,6 1,0 0,1 1,0 0,1 1,0 0,1 1,0 0,1 1,0 0,1 1,0 0,1 0,6 0,6 1,0 0,1 1,0 0,1 1,0 0,1 1,0 0,1 1,0 0,1 1,0 0,1 1,0 0,1 1,0 0,1 1,0 0,1 1,0 0,1 1,0 0,1 1,0 0,1 1,0 0,1 1,0 0,1 1,0 0,1 1,0 0,1 1,0 0,1 1,0 0,1 1,0 0,1 6,0 0,-1 1,0 0,-1 1,0 0,-1 1,0 0,-1 1,0 0,-1 1,0 0,-1 1,0 0,-1 1,0 0,-1 1,0 0,-1 1,0 0,-1 1,0 0,-1 1,0 0,-1 1,0 0,-1 1,0 0,-1 1,0 0,-1 1,0 0,-1 1,0 0,-1 1,0 0,-1 1,0 0,-1 1,0 0,-6 0,-6 0,-1 1,0 0,-1 1,0 0,-1 1,0 0,-1 1,0 0,-1 1,0 0,-1 1,0 0,-6 0,-6 0,-6 0,-6 0,-1 0,-1 -1,0 -1,0 -1,0 -1,0 0,1 -1,0 0,1 -1,0 0,1 -1,0 0,1 -1,0 0,1 -1,0 0,1 -1,0 0,1 -1,0 0,1 -1,0 0,1 -1,0 0,1 -1,0 0,1 -1,0 0,1 -1,0 0,1 -1,0 0,1 -1,0 0,6 -6,0 -8,0 -6,0 0,-6 -1,0 0,-1 -1,0 0,-1 -1,0 0,-1 -1,0 0,-1 -1,0 0,-1 -1,0 0,-1 -1,0 0,-1 -1,0 0,-1 -1,0 0,-1 -1,0 0,-1 -1,0 0,-1 -1,0 0,-1 -1,0 0,-1 -1,0 0,-1 -1,0 -1,0 -1,0 z m 6,14 6,0 0,6 1,0 0,1 1,0 0,1 1,0 0,1 1,0 0,1 1,0 0,1 1,0 0,1 -6,0 -6,0 0,-6 z m 38,0 6,0 0,6 0,6 -6,0 -6,0 0,-1 1,0 0,-1 1,0 0,-1 1,0 0,-1 1,0 0,-1 1,0 0,-1 1,0 z m -32,22 10,0 0,6 -10,0 z m 22,0 10,0 0,6 -10,0 z m -10,14 8,0 0,6 -8,0 z"
       transform="translate(0,956.36218)"
       id="path3982"
       inkscape:connector-curvature="0"
       sodipodi:nodetypes="cccccccccccccccccccccccccccccccccccccccccccccccccccccccccccccccccccccccccccccccccccccccccccccccccccccccccccccccccccccccccccccccccccccccccccccccccccccccccccccccccccccccccccccccccccccccccccccccccccccccccccccccccccccccccccccccccccccccccccccccc" />
    <path
       id="path3980"
       transform="translate(0,956.36218)"
       d="m 20,16 0,1 0,1 0,6 0,6 0,6 0,6 1,0 0,1 1,0 0,1 1,0 0,1 1,0 0,1 1,0 0,1 1,0 0,1 0,6 0,6 1,0 0,1 1,0 0,1 1,0 0,1 1,0 0,1 1,0 0,1 1,0 0,1 1,0 0,1 1,0 0,1 1,0 0,1 1,0 0,1 1,0 0,1 1,0 0,1 1,0 0,1 1,0 0,1 1,0 0,1 1,0 0,1 1,0 0,1 1,0 0,1 1,0 0,1 6,0 0,-1 1,0 0,-1 1,0 0,-1 1,0 0,-1 1,0 0,-1 1,0 0,-1 1,0 0,-1 1,0 0,-1 1,0 0,-1 1,0 0,-1 1,0 0,-1 1,0 0,-1 1,0 0,-1 1,0 0,-1 1,0 0,-1 1,0 0,-1 1,0 0,-1 1,0 0,-1 1,0 0,-1 1,0 0,-6 0,-6 0,-1 1,0 0,-1 1,0 0,-1 1,0 0,-1 1,0 0,-1 1,0 0,-1 1,0 0,-6 0,-6 0,-6 0,-6 0,-1 0,-1 -1,0 -1,0 -1,0 -1,0 0,1 -1,0 0,1 -1,0 0,1 -1,0 0,1 -1,0 0,1 -1,0 0,1 -1,0 0,1 -1,0 0,1 -1,0 0,1 -1,0 0,1 -1,0 0,1 -1,0 0,1 -1,0 0,1 -1,0 0,1 -1,0 0,6 -6,0 -8,0 -6,0 0,-6 -1,0 0,-1 -1,0 0,-1 -1,0 0,-1 -1,0 0,-1 -1,0 0,-1 -1,0 0,-1 -1,0 0,-1 -1,0 0,-1 -1,0 0,-1 -1,0 0,-1 -1,0 0,-1 -1,0 0,-1 -1,0 0,-1 -1,0 0,-1 -1,0 -1,0 -1,0 z m 6,14 6,0 0,6 1,0 0,1 1,0 0,1 1,0 0,1 1,0 0,1 1,0 0,1 1,0 0,1 -6,0 -6,0 0,-6 z m 38,0 6,0 0,6 0,6 -6,0 -6,0 0,-1 1,0 0,-1 1,0 0,-1 1,0 0,-1 1,0 0,-1 1,0 0,-1 1,0 z m -32,22 10,0 0,6 -10,0 z m 22,0 10,0 0,6 -10,0 z m -10,14 8,0 0,6 -8,0 z"
       style="opacity:0.2;fill:#000000;fill-opacity:1;fill-rule:nonzero;stroke:#000000;stroke-linejoin:round;stroke-opacity:1"
       inkscape:connector-curvature="0"
       sodipodi:nodetypes="cccccccccccccccccccccccccccccccccccccccccccccccccccccccccccccccccccccccccccccccccccccccccccccccccccccccccccccccccccccccccccccccccccccccccccccccccccccccccccccccccccccccccccccccccccccccccccccccccccccccccccccccccccccccccccccccccccccccccccccccc" />
    <path
       style="fill:url(#radialGradient4420);fill-opacity:1;fill-rule:nonzero;stroke:none"
       d="m 20,16 0,1 0,1 0,6 0,6 0,6 0,6 1,0 0,1 1,0 0,1 1,0 0,1 1,0 0,1 1,0 0,1 1,0 0,1 0,6 0,6 1,0 0,1 1,0 0,1 1,0 0,1 1,0 0,1 1,0 0,1 1,0 0,1 1,0 0,1 1,0 0,1 1,0 0,1 1,0 0,1 1,0 0,1 1,0 0,1 1,0 0,1 1,0 0,1 1,0 0,1 1,0 0,1 1,0 0,1 1,0 0,1 1,0 0,1 6,0 0,-1 1,0 0,-1 1,0 0,-1 1,0 0,-1 1,0 0,-1 1,0 0,-1 1,0 0,-1 1,0 0,-1 1,0 0,-1 1,0 0,-1 1,0 0,-1 1,0 0,-1 1,0 0,-1 1,0 0,-1 1,0 0,-1 1,0 0,-1 1,0 0,-1 1,0 0,-1 1,0 0,-1 1,0 0,-6 0,-6 0,-1 1,0 0,-1 1,0 0,-1 1,0 0,-1 1,0 0,-1 1,0 0,-1 1,0 0,-6 0,-6 0,-6 0,-6 0,-1 0,-1 -1,0 -1,0 -1,0 -1,0 0,1 -1,0 0,1 -1,0 0,1 -1,0 0,1 -1,0 0,1 -1,0 0,1 -1,0 0,1 -1,0 0,1 -1,0 0,1 -1,0 0,1 -1,0 0,1 -1,0 0,1 -1,0 0,1 -1,0 0,1 -1,0 0,6 -6,0 -8,0 -6,0 0,-6 -1,0 0,-1 -1,0 0,-1 -1,0 0,-1 -1,0 0,-1 -1,0 0,-1 -1,0 0,-1 -1,0 0,-1 -1,0 0,-1 -1,0 0,-1 -1,0 0,-1 -1,0 0,-1 -1,0 0,-1 -1,0 0,-1 -1,0 0,-1 -1,0 -1,0 -1,0 z m 6,14 6,0 0,6 1,0 0,1 1,0 0,1 1,0 0,1 1,0 0,1 1,0 0,1 1,0 0,1 -6,0 -6,0 0,-6 z m 38,0 6,0 0,6 0,6 -6,0 -6,0 0,-1 1,0 0,-1 1,0 0,-1 1,0 0,-1 1,0 0,-1 1,0 0,-1 1,0 z m -32,22 10,0 0,6 -10,0 z m 22,0 10,0 0,6 -10,0 z m -10,14 8,0 0,6 -8,0 z"
       transform="translate(0,956.36218)"
       id="rect4535"
       inkscape:connector-curvature="0"
       sodipodi:nodetypes="cccccccccccccccccccccccccccccccccccccccccccccccccccccccccccccccccccccccccccccccccccccccccccccccccccccccccccccccccccccccccccccccccccccccccccccccccccccccccccccccccccccccccccccccccccccccccccccccccccccccccccccccccccccccccccccccccccccccccccccccc" />
  </g>
</svg>
