<?xml version="1.0" encoding="UTF-8" standalone="no"?>
<!-- Created with Inkscape (http://www.inkscape.org/) -->

<svg
   xmlns:dc="http://purl.org/dc/elements/1.1/"
   xmlns:cc="http://creativecommons.org/ns#"
   xmlns:rdf="http://www.w3.org/1999/02/22-rdf-syntax-ns#"
   xmlns:svg="http://www.w3.org/2000/svg"
   xmlns="http://www.w3.org/2000/svg"
   xmlns:xlink="http://www.w3.org/1999/xlink"
   xmlns:sodipodi="http://sodipodi.sourceforge.net/DTD/sodipodi-0.dtd"
   xmlns:inkscape="http://www.inkscape.org/namespaces/inkscape"
   width="96"
   height="96"
   id="svg2"
   version="1.1"
   inkscape:version="0.48.3.1 r9886"
   sodipodi:docname="twitter.svg">
  <defs
     id="defs4">
    <linearGradient
       inkscape:collect="always"
       id="linearGradient3964">
      <stop
         style="stop-color:#ffffff;stop-opacity:1;"
         offset="0"
         id="stop3966" />
      <stop
         style="stop-color:#ffffff;stop-opacity:0;"
         offset="1"
         id="stop3968" />
    </linearGradient>
    <linearGradient
       inkscape:collect="always"
       id="linearGradient3939">
      <stop
         style="stop-color:#000000;stop-opacity:1;"
         offset="0"
         id="stop3941" />
      <stop
         style="stop-color:#000000;stop-opacity:0;"
         offset="1"
         id="stop3943" />
    </linearGradient>
    <linearGradient
       id="linearGradient3922">
      <stop
         style="stop-color:#eb8521;stop-opacity:1;"
         offset="0"
         id="stop3924" />
      <stop
         style="stop-color:#f1e025;stop-opacity:1;"
         offset="1"
         id="stop3926" />
    </linearGradient>
    <linearGradient
       id="linearGradient3914">
      <stop
         id="stop3916"
         offset="0"
         style="stop-color:#0d90c8;stop-opacity:1;" />
      <stop
         id="stop3918"
         offset="1"
         style="stop-color:#0266ba;stop-opacity:1;" />
    </linearGradient>
    <linearGradient
       id="linearGradient3894">
      <stop
         style="stop-color:#3962ca;stop-opacity:1;"
         offset="0"
         id="stop3896" />
      <stop
         style="stop-color:#032fa3;stop-opacity:1;"
         offset="1"
         id="stop3898" />
    </linearGradient>
    <linearGradient
       id="linearGradient3886">
      <stop
         style="stop-color:#21a4dc;stop-opacity:1;"
         offset="0"
         id="stop3888" />
      <stop
         style="stop-color:#167ace;stop-opacity:1;"
         offset="1"
         id="stop3890" />
    </linearGradient>
    <linearGradient
       id="linearGradient3878">
      <stop
         style="stop-color:#23b1fb;stop-opacity:1;"
         offset="0"
         id="stop3880" />
      <stop
         style="stop-color:#1062ca;stop-opacity:1;"
         offset="1"
         id="stop3882" />
    </linearGradient>
    <linearGradient
       id="linearGradient3816">
      <stop
         style="stop-color:#1039d0;stop-opacity:1;"
         offset="0"
         id="stop3818" />
      <stop
         style="stop-color:#000000;stop-opacity:1;"
         offset="1"
         id="stop3820" />
    </linearGradient>
    <linearGradient
       inkscape:collect="always"
       id="linearGradient3798">
      <stop
         style="stop-color:#268ad6;stop-opacity:1"
         offset="0"
         id="stop3800" />
      <stop
         style="stop-color:#28dffe;stop-opacity:1"
         offset="1"
         id="stop3802" />
    </linearGradient>
    <linearGradient
       id="linearGradient3787">
      <stop
         style="stop-color:#1b4bd8;stop-opacity:1;"
         offset="0"
         id="stop3789" />
      <stop
         style="stop-color:#3f95de;stop-opacity:1;"
         offset="1"
         id="stop3791" />
    </linearGradient>
    <linearGradient
       id="linearGradient3817">
      <stop
         style="stop-color:#ffffff;stop-opacity:1;"
         offset="0"
         id="stop3819" />
      <stop
         id="stop3827"
         offset="0.05455951"
         style="stop-color:#ffffff;stop-opacity:0.23529412;" />
      <stop
         id="stop3825"
         offset="0.95526141"
         style="stop-color:#ffffff;stop-opacity:0.15686275;" />
      <stop
         style="stop-color:#ffffff;stop-opacity:0.39215687;"
         offset="1"
         id="stop3821" />
    </linearGradient>
    <radialGradient
       cx="4.9929786"
       cy="43.5"
       r="2.5"
       fx="4.9929786"
       fy="43.5"
       id="radialGradient2873-966-168"
       xlink:href="#linearGradient3688-166-749"
       gradientUnits="userSpaceOnUse"
       gradientTransform="matrix(2.003784,0,0,1.4,27.98813,-17.4)" />
    <linearGradient
       id="linearGradient3688-166-749">
      <stop
         id="stop2883"
         style="stop-color:#181818;stop-opacity:1"
         offset="0" />
      <stop
         id="stop2885"
         style="stop-color:#181818;stop-opacity:0"
         offset="1" />
    </linearGradient>
    <radialGradient
       cx="4.9929786"
       cy="43.5"
       r="2.5"
       fx="4.9929786"
       fy="43.5"
       id="radialGradient2875-742-326"
       xlink:href="#linearGradient3688-464-309"
       gradientUnits="userSpaceOnUse"
       gradientTransform="matrix(2.003784,0,0,1.4,-20.01187,-104.4)" />
    <linearGradient
       id="linearGradient3688-464-309">
      <stop
         id="stop2889"
         style="stop-color:#181818;stop-opacity:1"
         offset="0" />
      <stop
         id="stop2891"
         style="stop-color:#181818;stop-opacity:0"
         offset="1" />
    </linearGradient>
    <linearGradient
       x1="25.058096"
       y1="47.027729"
       x2="25.058096"
       y2="39.999443"
       id="linearGradient2877-634-617"
       xlink:href="#linearGradient3702-501-757"
       gradientUnits="userSpaceOnUse" />
    <linearGradient
       id="linearGradient3702-501-757">
      <stop
         id="stop2895"
         style="stop-color:#181818;stop-opacity:0"
         offset="0" />
      <stop
         id="stop2897"
         style="stop-color:#181818;stop-opacity:1"
         offset="0.5" />
      <stop
         id="stop2899"
         style="stop-color:#181818;stop-opacity:0"
         offset="1" />
    </linearGradient>
    <linearGradient
       inkscape:collect="always"
       xlink:href="#linearGradient3817"
       id="linearGradient3823"
       x1="47.214287"
       y1="965.25507"
       x2="47.214287"
       y2="1042.9185"
       gradientUnits="userSpaceOnUse" />
    <linearGradient
       inkscape:collect="always"
       xlink:href="#linearGradient3787"
       id="linearGradient3793"
       x1="32.642857"
       y1="1043.3036"
       x2="32.642857"
       y2="964.00507"
       gradientUnits="userSpaceOnUse" />
    <linearGradient
       inkscape:collect="always"
       xlink:href="#linearGradient3798"
       id="linearGradient3804"
       x1="46.14286"
       y1="989.86212"
       x2="46.14286"
       y2="964.84741"
       gradientUnits="userSpaceOnUse" />
    <radialGradient
       inkscape:collect="always"
       xlink:href="#linearGradient3816"
       id="radialGradient3822"
       cx="25.366711"
       cy="39.45982"
       fx="25.366711"
       fy="39.45982"
       r="11.785714"
       gradientUnits="userSpaceOnUse"
       gradientTransform="matrix(-2.9598657e-7,2.130414,-1.9112357,-2.6553529e-7,100.78374,-14.581766)" />
    <radialGradient
       inkscape:collect="always"
       xlink:href="#linearGradient3816"
       id="radialGradient3826"
       gradientUnits="userSpaceOnUse"
       gradientTransform="matrix(-2.9598657e-7,2.130414,-1.9112357,-2.6553529e-7,100.78374,-14.581766)"
       cx="25.366711"
       cy="39.45982"
       fx="25.366711"
       fy="39.45982"
       r="11.785714" />
    <radialGradient
       inkscape:collect="always"
       xlink:href="#linearGradient3878"
       id="radialGradient3884"
       cx="52.39938"
       cy="980.40393"
       fx="52.39938"
       fy="980.40393"
       r="40"
       gradientUnits="userSpaceOnUse"
       gradientTransform="matrix(-1.9470486e-6,1.2658185,-1.3068894,-2.0102228e-6,1328.2516,917.78227)" />
    <linearGradient
       inkscape:collect="always"
       xlink:href="#linearGradient3886"
       id="linearGradient3892"
       x1="47.92857"
       y1="68.928574"
       x2="47.92857"
       y2="87.144119"
       gradientUnits="userSpaceOnUse" />
    <linearGradient
       inkscape:collect="always"
       xlink:href="#linearGradient3914"
       id="linearGradient3900"
       x1="47.92857"
       y1="53.642857"
       x2="47.92857"
       y2="84.000336"
       gradientUnits="userSpaceOnUse" />
    <linearGradient
       inkscape:collect="always"
       xlink:href="#linearGradient3939"
       id="linearGradient3945"
       x1="23.009062"
       y1="68.194397"
       x2="40.331718"
       y2="68.194397"
       gradientUnits="userSpaceOnUse" />
    <radialGradient
       inkscape:collect="always"
       xlink:href="#linearGradient3922"
       id="radialGradient3957"
       cx="34.546555"
       cy="40.480675"
       fx="34.546555"
       fy="40.480675"
       r="17.484053"
       gradientTransform="matrix(0,1.6714315,-1.5564197,0,97.551474,-16.380224)"
       gradientUnits="userSpaceOnUse" />
    <linearGradient
       inkscape:collect="always"
       xlink:href="#linearGradient3964"
       id="linearGradient3970"
       x1="51.035713"
       y1="74.946426"
       x2="48.05357"
       y2="63.964287"
       gradientUnits="userSpaceOnUse" />
    <radialGradient
       inkscape:collect="always"
       xlink:href="#linearGradient3878"
       id="radialGradient3987"
       gradientUnits="userSpaceOnUse"
       gradientTransform="matrix(-1.9470486e-6,1.2658185,-1.3068894,-2.0102228e-6,1328.7516,918.2823)"
       cx="52.39938"
       cy="980.40393"
       fx="52.39938"
       fy="980.40393"
       r="40" />
    <radialGradient
       inkscape:collect="always"
       xlink:href="#linearGradient3878"
       id="radialGradient3994"
       gradientUnits="userSpaceOnUse"
       gradientTransform="matrix(-1.9470486e-6,1.2658185,-1.3068894,-2.0102228e-6,1328.7516,-38.07988)"
       cx="52.39938"
       cy="980.40393"
       fx="52.39938"
       fy="980.40393"
       r="40" />
    <linearGradient
       inkscape:collect="always"
       xlink:href="#linearGradient3914"
       id="linearGradient3999"
       x1="47.890873"
       y1="1019.4523"
       x2="47.890873"
       y2="1051.2131"
       gradientUnits="userSpaceOnUse"
       gradientTransform="translate(0,-12)" />
    <linearGradient
       inkscape:collect="always"
       xlink:href="#linearGradient3886"
       id="linearGradient4018"
       x1="43.471455"
       y1="1027.0082"
       x2="43.471455"
       y2="1047.0702"
       gradientUnits="userSpaceOnUse"
       gradientTransform="translate(0,-4)" />
    <linearGradient
       inkscape:collect="always"
       xlink:href="#linearGradient3914"
       id="linearGradient4020"
       gradientUnits="userSpaceOnUse"
       gradientTransform="translate(0,-12)"
       x1="47.890873"
       y1="1019.4523"
       x2="47.890873"
       y2="1051.2131" />
    <linearGradient
       inkscape:collect="always"
       xlink:href="#linearGradient3914"
       id="linearGradient4023"
       gradientUnits="userSpaceOnUse"
       gradientTransform="translate(0,-12)"
       x1="47.890873"
       y1="1019.4523"
       x2="47.890873"
       y2="1051.2131" />
    <linearGradient
       inkscape:collect="always"
       xlink:href="#linearGradient3886"
       id="linearGradient4038"
       gradientUnits="userSpaceOnUse"
       gradientTransform="translate(0,-4)"
       x1="43.471455"
       y1="1027.0082"
       x2="43.471455"
       y2="1047.0702" />
    <linearGradient
       inkscape:collect="always"
       xlink:href="#linearGradient3886"
       id="linearGradient4041"
       gradientUnits="userSpaceOnUse"
       gradientTransform="translate(0,-4)"
       x1="43.471455"
       y1="1027.0082"
       x2="43.471455"
       y2="1047.0702" />
  </defs>
  <sodipodi:namedview
     id="base"
     pagecolor="#ffffff"
     bordercolor="#666666"
     borderopacity="1.0"
     inkscape:pageopacity="0.0"
     inkscape:pageshadow="2"
     inkscape:zoom="3.959798"
     inkscape:cx="31.92172"
     inkscape:cy="28.678362"
     inkscape:document-units="px"
     inkscape:current-layer="layer1"
     showgrid="false"
     inkscape:window-width="1280"
     inkscape:window-height="749"
     inkscape:window-x="0"
     inkscape:window-y="24"
     inkscape:window-maximized="1" />
  <metadata
     id="metadata7">
    <rdf:RDF>
      <cc:Work
         rdf:about="">
        <dc:format>image/svg+xml</dc:format>
        <dc:type
           rdf:resource="http://purl.org/dc/dcmitype/StillImage" />
        <dc:title></dc:title>
      </cc:Work>
    </rdf:RDF>
  </metadata>
  <g
     inkscape:label="Livello 1"
     inkscape:groupmode="layer"
     id="layer1"
     transform="translate(0,-956.36218)">
    <g
       style="display:inline"
       id="g2036"
       transform="matrix(2.1999991,0,0,0.88888944,-4.8000008,1006.5844)">
      <g
         style="opacity:0.4"
         id="g3712"
         transform="matrix(1.052632,0,0,1.285713,-1.263158,-13.42854)">
        <rect
           style="fill:url(#radialGradient2873-966-168);fill-opacity:1;stroke:none"
           id="rect2801"
           y="40"
           x="38"
           height="7"
           width="5" />
        <rect
           style="fill:url(#radialGradient2875-742-326);fill-opacity:1;stroke:none"
           id="rect3696"
           transform="scale(-1,-1)"
           y="-47"
           x="-10"
           height="7"
           width="5" />
        <rect
           style="fill:url(#linearGradient2877-634-617);fill-opacity:1;stroke:none"
           id="rect3700"
           y="40"
           x="10"
           height="7.0000005"
           width="28" />
      </g>
    </g>
    <rect
       style="fill:url(#radialGradient3884);fill-opacity:1;stroke:url(#linearGradient3793);stroke-opacity:1"
       id="rect2985"
       width="79"
       height="79"
       x="8.5"
       y="964.86218"
       rx="3"
       ry="3" />
    <path
       sodipodi:type="arc"
       style="fill:#268ad6;fill-opacity:1;stroke:none"
       id="path3806"
       sodipodi:cx="31.785715"
       sodipodi:cy="43.142857"
       sodipodi:rx="11.785714"
       sodipodi:ry="11.785714"
       d="m 43.571429,43.142857 a 11.785714,11.785714 0 1 1 -23.571428,0 11.785714,11.785714 0 1 1 23.571428,0 z"
       transform="matrix(1.0181818,0,0,1.0181818,-2.363637,946.43491)" />
    <path
       transform="matrix(1.0181818,0,0,1.0181818,31.636363,946.43491)"
       d="m 43.571429,43.142857 a 11.785714,11.785714 0 1 1 -23.571428,0 11.785714,11.785714 0 1 1 23.571428,0 z"
       sodipodi:ry="11.785714"
       sodipodi:rx="11.785714"
       sodipodi:cy="43.142857"
       sodipodi:cx="31.785715"
       id="path3808"
       style="fill:#268ad6;fill-opacity:1;stroke:none"
       sodipodi:type="arc" />
    <path
       transform="matrix(0.93333338,0,0,0.93333338,0.33333476,950.09552)"
       d="m 43.571429,43.142857 a 11.785714,11.785714 0 1 1 -23.571428,0 11.785714,11.785714 0 1 1 23.571428,0 z"
       sodipodi:ry="11.785714"
       sodipodi:rx="11.785714"
       sodipodi:cy="43.142857"
       sodipodi:cx="31.785715"
       id="path3810"
       style="fill:#ffffff;fill-opacity:1;stroke:none"
       sodipodi:type="arc" />
    <path
       sodipodi:type="arc"
       style="fill:#ffffff;fill-opacity:1;stroke:none"
       id="path3812"
       sodipodi:cx="31.785715"
       sodipodi:cy="43.142857"
       sodipodi:rx="11.785714"
       sodipodi:ry="11.785714"
       d="m 43.571429,43.142857 a 11.785714,11.785714 0 1 1 -23.571428,0 11.785714,11.785714 0 1 1 23.571428,0 z"
       transform="matrix(0.93333338,0,0,0.93333338,34.333331,950.09551)" />
    <path
       sodipodi:type="arc"
       style="fill:url(#radialGradient3822);fill-opacity:1;stroke:none"
       id="path3814"
       sodipodi:cx="31.785715"
       sodipodi:cy="43.142857"
       sodipodi:rx="11.785714"
       sodipodi:ry="11.785714"
       d="m 43.571429,43.142857 a 11.785714,11.785714 0 1 1 -23.571428,0 11.785714,11.785714 0 1 1 23.571428,0 z"
       transform="matrix(0.42424243,0,0,0.42424243,16.515155,972.05916)" />
    <path
       transform="matrix(0.42424243,0,0,0.42424243,50.515151,972.05915)"
       d="m 43.571429,43.142857 a 11.785714,11.785714 0 1 1 -23.571428,0 11.785714,11.785714 0 1 1 23.571428,0 z"
       sodipodi:ry="11.785714"
       sodipodi:rx="11.785714"
       sodipodi:cy="43.142857"
       sodipodi:cx="31.785715"
       id="path3824"
       style="fill:url(#radialGradient3826);fill-opacity:1;stroke:none"
       sodipodi:type="arc" />
    <path
       style="opacity:0.05;fill:#000000;fill-opacity:1;stroke:none"
       d="m 11.500002,967.36206 73,0 c 1.385,0 2.5,1.115 2.5,2.5 l 0,21.50012 -78.0000001,0 0,-21.50012 c 0,-1.385 1.1150001,-2.5 2.5000001,-2.5 z"
       id="path3840"
       inkscape:connector-curvature="0"
       sodipodi:nodetypes="sssccss" />
    <path
       sodipodi:nodetypes="sssccss"
       inkscape:connector-curvature="0"
       id="path3836"
       d="m 11.500002,966.36206 73,0 c 1.385,0 2.5,1.115 2.5,2.5 l 0,21.50012 -78.0000001,0 0,-21.50012 c 0,-1.385 1.1150001,-2.5 2.5000001,-2.5 z"
       style="fill:#000000;fill-opacity:1;stroke:none;opacity:0.1" />
    <path
       style="fill:url(#linearGradient3804);fill-opacity:1;stroke:none"
       d="m 11.500002,965.36206 73,0 c 1.385,0 2.5,1.115 2.5,2.5 l 0,21.50012 -78.0000001,0 0,-21.50012 c 0,-1.385 1.1150001,-2.5 2.5000001,-2.5 z"
       id="rect3795"
       inkscape:connector-curvature="0"
       sodipodi:nodetypes="sssccss" />
    <path
       style="opacity:0.05;fill:#000000;fill-opacity:1;stroke:none"
       d="m 16,1005.3622 c -2.514888,0 -4.88271,0.5911 -7,1.625 l 0,28.75 c 2.11729,1.0339 4.485112,1.625 7,1.625 3.779837,0 7.262125,-1.3083 10,-3.5 2.737875,2.1917 6.220163,3.5 10,3.5 4.786468,0 9.067883,-2.1065 12,-5.4375 2.932117,3.331 7.213532,5.4375 12,5.4375 3.779837,0 7.262125,-1.3083 10,-3.5 2.737875,2.1917 6.220163,3.5 10,3.5 2.514888,0 4.88271,-0.5911 7,-1.625 l 0,-28.75 c -2.11729,-1.0339 -4.485112,-1.625 -7,-1.625 -3.779837,0 -7.262125,1.3083 -10,3.5 -2.737875,-2.1917 -6.220163,-3.5 -10,-3.5 -4.786468,0 -9.067883,2.1065 -12,5.4375 -2.932117,-3.331 -7.213532,-5.4375 -12,-5.4375 -3.779837,0 -7.262125,1.3083 -10,3.5 -2.737875,-2.1917 -6.220163,-3.5 -10,-3.5 z"
       id="path4005"
       inkscape:connector-curvature="0" />
    <path
       inkscape:connector-curvature="0"
       id="path4001"
       d="m 16,1006.3622 c -2.514888,0 -4.88271,0.5911 -7,1.625 l 0,28.75 c 2.11729,1.0339 4.485112,1.625 7,1.625 3.779837,0 7.262125,-1.3083 10,-3.5 2.737875,2.1917 6.220163,3.5 10,3.5 4.786468,0 9.067883,-2.1065 12,-5.4375 2.932117,3.331 7.213532,5.4375 12,5.4375 3.779837,0 7.262125,-1.3083 10,-3.5 2.737875,2.1917 6.220163,3.5 10,3.5 2.514888,0 4.88271,-0.5911 7,-1.625 l 0,-28.75 c -2.11729,-1.0339 -4.485112,-1.625 -7,-1.625 -3.779837,0 -7.262125,1.3083 -10,3.5 -2.737875,-2.1917 -6.220163,-3.5 -10,-3.5 -4.786468,0 -9.067883,2.1065 -12,5.4375 -2.932117,-3.331 -7.213532,-5.4375 -12,-5.4375 -3.779837,0 -7.262125,1.3083 -10,3.5 -2.737875,-2.1917 -6.220163,-3.5 -10,-3.5 z"
       style="opacity:0.1;fill:#000000;fill-opacity:1;stroke:none" />
    <path
       style="fill:url(#linearGradient4023);fill-opacity:1;stroke:none"
       d="m 16,1007.3622 c -2.514888,0 -4.88271,0.5911 -7,1.625 l 0,28.75 c 2.11729,1.0339 4.485112,1.625 7,1.625 3.779837,0 7.262125,-1.3083 10,-3.5 2.737875,2.1917 6.220163,3.5 10,3.5 4.786468,0 9.067883,-2.1065 12,-5.4375 2.932117,3.331 7.213532,5.4375 12,5.4375 3.779837,0 7.262125,-1.3083 10,-3.5 2.737875,2.1917 6.220163,3.5 10,3.5 2.514888,0 4.88271,-0.5911 7,-1.625 l 0,-28.75 c -2.11729,-1.0339 -4.485112,-1.625 -7,-1.625 -3.779837,0 -7.262125,1.3083 -10,3.5 -2.737875,-2.1917 -6.220163,-3.5 -10,-3.5 -4.786468,0 -9.067883,2.1065 -12,5.4375 -2.932117,-3.331 -7.213532,-5.4375 -12,-5.4375 -3.779837,0 -7.262125,1.3083 -10,3.5 -2.737875,-2.1917 -6.220163,-3.5 -10,-3.5 z"
       id="rect3985"
       inkscape:connector-curvature="0" />
    <path
       style="opacity:0.05;fill:#000000;fill-opacity:1;stroke:none"
       d="m 16,1021.3622 c -2.514888,0 -4.88271,0.5911 -7,1.625 l 0,15.375 c 0,1.662 1.338,3 3,3 l 72,0 c 1.662,0 3,-1.338 3,-3 l 0,-15.375 c -2.11729,-1.0339 -4.485112,-1.625 -7,-1.625 -3.779837,0 -7.262125,1.3083 -10,3.5 -2.737875,-2.1917 -6.220163,-3.5 -10,-3.5 -4.786468,0 -9.067883,2.1065 -12,5.4375 -2.932117,-3.331 -7.213532,-5.4375 -12,-5.4375 -3.779837,0 -7.262125,1.3083 -10,3.5 -2.737875,-2.1917 -6.220163,-3.5 -10,-3.5 z"
       id="path4031"
       inkscape:connector-curvature="0" />
    <path
       inkscape:connector-curvature="0"
       id="path4027"
       d="m 16,1022.3622 c -2.514888,0 -4.88271,0.5911 -7,1.625 l 0,15.375 c 0,1.662 1.338,3 3,3 l 72,0 c 1.662,0 3,-1.338 3,-3 l 0,-15.375 c -2.11729,-1.0339 -4.485112,-1.625 -7,-1.625 -3.779837,0 -7.262125,1.3083 -10,3.5 -2.737875,-2.1917 -6.220163,-3.5 -10,-3.5 -4.786468,0 -9.067883,2.1065 -12,5.4375 -2.932117,-3.331 -7.213532,-5.4375 -12,-5.4375 -3.779837,0 -7.262125,1.3083 -10,3.5 -2.737875,-2.1917 -6.220163,-3.5 -10,-3.5 z"
       style="opacity:0.1;fill:#000000;fill-opacity:1;stroke:none" />
    <path
       style="fill:url(#linearGradient4041);fill-opacity:1;stroke:none"
       d="m 16,1023.3622 c -2.514888,0 -4.88271,0.5911 -7,1.625 l 0,15.375 c 0,1.662 1.338,3 3,3 l 72,0 c 1.662,0 3,-1.338 3,-3 l 0,-15.375 c -2.11729,-1.0339 -4.485112,-1.625 -7,-1.625 -3.779837,0 -7.262125,1.3083 -10,3.5 -2.737875,-2.1917 -6.220163,-3.5 -10,-3.5 -4.786468,0 -9.067883,2.1065 -12,5.4375 -2.932117,-3.331 -7.213532,-5.4375 -12,-5.4375 -3.779837,0 -7.262125,1.3083 -10,3.5 -2.737875,-2.1917 -6.220163,-3.5 -10,-3.5 z"
       id="path3976"
       inkscape:connector-curvature="0" />
    <path
       sodipodi:nodetypes="cccc"
       inkscape:connector-curvature="0"
       id="path3935"
       d="M 41.250001,71.126425 22.737473,39.061788 c 10.872437,-2.996667 24.040573,-2.952915 37.025054,-10e-7 z"
       inkscape:transform-center-y="4.8333786"
       style="fill:#000000;fill-opacity:1;stroke:#000000;stroke-opacity:1;stroke-width:3.19913099000000001;stroke-miterlimit:4;stroke-dasharray:none;stroke-linejoin:round;opacity:0.05"
       transform="matrix(0.97231459,0,0,0.90442313,7.8920234,971.0338)" />
    <path
       transform="matrix(0.97231459,0,0,0.90442313,7.8920234,971.0338)"
       style="fill:#000000;fill-opacity:1;stroke:#000000;stroke-opacity:1;stroke-width:2.13275398999999988;stroke-miterlimit:4;stroke-dasharray:none;stroke-linejoin:round;opacity:0.09999995"
       inkscape:transform-center-y="4.8333786"
       d="M 41.250001,71.126425 22.737473,39.061788 c 10.872437,-2.996667 24.040573,-2.952915 37.025054,-10e-7 z"
       id="path3933"
       inkscape:connector-curvature="0"
       sodipodi:nodetypes="cccc" />
    <path
       sodipodi:nodetypes="cccc"
       inkscape:connector-curvature="0"
       id="path3931"
       d="M 41.250001,71.126425 22.737473,39.061788 c 10.872437,-2.996667 24.040573,-2.952915 37.025054,-10e-7 z"
       inkscape:transform-center-y="4.8333786"
       style="fill:#000000;fill-opacity:1;stroke:#000000;stroke-opacity:1;stroke-width:1.06637699999999991;stroke-miterlimit:4;stroke-dasharray:none;stroke-linejoin:round;opacity:0.15"
       transform="matrix(0.97231459,0,0,0.90442313,7.8920234,971.0338)" />
    <path
       transform="matrix(0.97231459,0,0,0.90442313,7.8920234,971.0338)"
       style="fill:#eb8521;fill-opacity:1;stroke:none"
       inkscape:transform-center-y="4.8333786"
       d="M 41.250001,71.126425 22.737473,39.061788 c 10.872437,-2.996667 24.040573,-2.952915 37.025054,-10e-7 z"
       id="path3920"
       inkscape:connector-curvature="0"
       sodipodi:nodetypes="cccc" />
    <path
       sodipodi:nodetypes="cccc"
       inkscape:connector-curvature="0"
       id="path3947"
       d="M 41.250001,70.020743 23.765947,39.614622 c 10.872437,-2.996667 21.983625,-2.952915 34.968106,-10e-7 z"
       inkscape:transform-center-y="4.8333786"
       style="fill:url(#radialGradient3957);fill-opacity:1;stroke:none"
       transform="matrix(0.97231459,0,0,0.90442313,7.8920234,971.0338)" />
    <path
       transform="matrix(0.97231459,0,0,0.90442313,7.8920234,971.0338)"
       style="fill:#000000;fill-opacity:1;stroke:none;opacity:0.05"
       inkscape:transform-center-y="4.8333786"
       d="M 41.250001,70.020743 23.765947,39.614622 C 29.202165,38.116288 35.490088,37.377896 41.25,37.383365 z"
       id="path3959"
       inkscape:connector-curvature="0"
       sodipodi:nodetypes="cccc" />
    <path
       transform="translate(0,956.36218)"
       style="opacity:0.29999998999999999;fill:url(#linearGradient3970);fill-opacity:1;stroke:none"
       inkscape:transform-center-x="0.58035714"
       inkscape:transform-center-y="1.997396"
       d="m 48,75 0,-11 3,2 z"
       id="path3961"
       inkscape:connector-curvature="0"
       sodipodi:nodetypes="cccc" />
    <path
       sodipodi:type="star"
       style="opacity:1;fill:#935000;fill-opacity:1;stroke:none"
       id="path3972"
       sodipodi:sides="3"
       sodipodi:cx="43.815369"
       sodipodi:cy="50.795673"
       sodipodi:r1="2.6860015"
       sodipodi:r2="1.3430008"
       sodipodi:arg1="0.52359878"
       sodipodi:arg2="1.5707963"
       inkscape:flatsided="true"
       inkscape:rounded="0"
       inkscape:randomized="0"
       d="m 46.141514,52.138674 -4.652291,0 2.326146,-4.029002 z"
       transform="matrix(0,-0.64484356,0.49640081,0,20.11832,1036.1162)"
       inkscape:transform-center-y="3.5636172e-05"
       inkscape:transform-center-x="0.33333623" />
    <path
       inkscape:transform-center-x="-0.33333608"
       inkscape:transform-center-y="3.5636172e-05"
       transform="matrix(0,-0.64484356,-0.49640081,0,75.88168,1036.1162)"
       d="m 46.141514,52.138674 -4.652291,0 2.326146,-4.029002 z"
       inkscape:randomized="0"
       inkscape:rounded="0"
       inkscape:flatsided="true"
       sodipodi:arg2="1.5707963"
       sodipodi:arg1="0.52359878"
       sodipodi:r2="1.3430008"
       sodipodi:r1="2.6860015"
       sodipodi:cy="50.795673"
       sodipodi:cx="43.815369"
       sodipodi:sides="3"
       id="path3974"
       style="opacity:1;fill:#935000;fill-opacity:1;stroke:none"
       sodipodi:type="star" />
    <rect
       ry="2"
       rx="2"
       y="965.86218"
       x="9.5"
       height="77"
       width="77"
       id="rect3815"
       style="fill:none;stroke:url(#linearGradient3823);stroke-opacity:1;opacity:0.50000000000000000" />
  </g>
</svg>
