<?xml version="1.0" encoding="UTF-8" standalone="no"?>
<!-- Created with Inkscape (http://www.inkscape.org/) -->

<svg
   xmlns:dc="http://purl.org/dc/elements/1.1/"
   xmlns:cc="http://creativecommons.org/ns#"
   xmlns:rdf="http://www.w3.org/1999/02/22-rdf-syntax-ns#"
   xmlns:svg="http://www.w3.org/2000/svg"
   xmlns="http://www.w3.org/2000/svg"
   xmlns:sodipodi="http://sodipodi.sourceforge.net/DTD/sodipodi-0.dtd"
   xmlns:inkscape="http://www.inkscape.org/namespaces/inkscape"
   width="24"
   height="24"
   id="svg3790"
   version="1.1"
   inkscape:version="0.48.1 r9760"
   sodipodi:docname="gpm-primary-80-chargingA.svg">
  <defs
     id="defs3792" />
  <sodipodi:namedview
     id="base"
     pagecolor="#ffffff"
     bordercolor="#666666"
     borderopacity="1.0"
     inkscape:pageopacity="0.0"
     inkscape:pageshadow="2"
     inkscape:zoom="11.2"
     inkscape:cx="8.5386384"
     inkscape:cy="4.3521485"
     inkscape:document-units="px"
     inkscape:current-layer="layer1"
     showgrid="false"
     inkscape:window-width="1230"
     inkscape:window-height="776"
     inkscape:window-x="50"
     inkscape:window-y="24"
     inkscape:window-maximized="1" />
  <metadata
     id="metadata3795">
    <rdf:RDF>
      <cc:Work
         rdf:about="">
        <dc:format>image/svg+xml</dc:format>
        <dc:type
           rdf:resource="http://purl.org/dc/dcmitype/StillImage" />
        <dc:title></dc:title>
      </cc:Work>
    </rdf:RDF>
  </metadata>
  <g
     inkscape:label="Livello 1"
     inkscape:groupmode="layer"
     id="layer1"
     transform="translate(0,-1028.3622)">
    <path
       style="font-size:medium;font-style:normal;font-variant:normal;font-weight:normal;font-stretch:normal;text-indent:0;text-align:start;text-decoration:none;line-height:normal;letter-spacing:normal;word-spacing:normal;text-transform:none;direction:ltr;block-progression:tb;writing-mode:lr-tb;text-anchor:start;baseline-shift:baseline;color:#000000;fill:#505050;fill-opacity:1;stroke:none;stroke-width:2;marker:none;visibility:visible;display:inline;overflow:visible;enable-background:accumulate;font-family:Sans;-inkscape-font-specification:Sans"
       d="M 7 5 C 5.9092972 5 5 5.9093 5 7 L 5 19 C 5 20.0907 5.9092972 21 7 21 L 15 21 C 16.090703 21 17 20.0907 17 19 L 17 17 L 16 17 L 16 16 L 15 16 L 15 19 L 7 19 L 7 7 L 15 7 L 15 10 L 16 10 L 16 9 L 17 9 L 17 7 C 17 5.9093 16.090703 5 15 5 L 7 5 z M 16 12 L 16 14 L 17 14 L 17 12 L 16 12 z "
       transform="translate(0,1028.3622)"
       id="rect3798" />
    <rect
       style="fill:#505050;fill-opacity:1;fill-rule:nonzero;stroke:none"
       id="rect4310"
       width="2"
       height="6"
       x="-1033.3622"
       y="8"
       transform="matrix(0,-1,1,0,0,0)" />
    <rect
       y="7.9999828"
       x="-1046.3622"
       height="6"
       width="10"
       id="rect4312"
       style="fill:#505050;fill-opacity:1;stroke:none"
       transform="matrix(0,-1,1,0,0,0)" />
    <path
       style="fill:#505050;fill-opacity:1;fill-rule:nonzero;stroke:none"
       d="M 17 10 L 17 11 L 15 11 L 15 15 L 17 15 L 17 16 L 20 16 L 20 15 L 23 15 L 23 14 L 20 14 L 20 12 L 23 12 L 23 11 L 20 11 L 20 10 L 17 10 z "
       transform="translate(0,1028.3622)"
       id="rect4448" />
  </g>
</svg>
