<?xml version="1.0" encoding="UTF-8" standalone="no"?>
<!-- Created with Inkscape (http://www.inkscape.org/) -->

<svg
   xmlns:dc="http://purl.org/dc/elements/1.1/"
   xmlns:cc="http://creativecommons.org/ns#"
   xmlns:rdf="http://www.w3.org/1999/02/22-rdf-syntax-ns#"
   xmlns:svg="http://www.w3.org/2000/svg"
   xmlns="http://www.w3.org/2000/svg"
   xmlns:sodipodi="http://sodipodi.sourceforge.net/DTD/sodipodi-0.dtd"
   xmlns:inkscape="http://www.inkscape.org/namespaces/inkscape"
   width="24"
   height="24"
   id="svg2"
   version="1.1"
   inkscape:version="0.48.1 r9760"
   sodipodi:docname="network-transmit2.svg">
  <defs
     id="defs4" />
  <sodipodi:namedview
     id="base"
     pagecolor="#ffffff"
     bordercolor="#666666"
     borderopacity="1.0"
     inkscape:pageopacity="0.0"
     inkscape:pageshadow="2"
     inkscape:zoom="11.2"
     inkscape:cx="11.700648"
     inkscape:cy="0.64436585"
     inkscape:document-units="px"
     inkscape:current-layer="layer1"
     showgrid="false"
     inkscape:window-width="1230"
     inkscape:window-height="776"
     inkscape:window-x="50"
     inkscape:window-y="24"
     inkscape:window-maximized="1" />
  <metadata
     id="metadata7">
    <rdf:RDF>
      <cc:Work
         rdf:about="">
        <dc:format>image/svg+xml</dc:format>
        <dc:type
           rdf:resource="http://purl.org/dc/dcmitype/StillImage" />
        <dc:title></dc:title>
      </cc:Work>
    </rdf:RDF>
  </metadata>
  <g
     inkscape:label="Livello 1"
     inkscape:groupmode="layer"
     id="layer1"
     transform="translate(0,-1028.3622)">
    <path
       style="fill:#505050;fill-opacity:1;fill-rule:nonzero;stroke:none"
       d="M 4,2 C 2.892,2 2,2.892 2,4 l 0,16 c 0,1.108 0.892,2 2,2 L 9,22 9,20 6,20 6,18 5,18 5,8 7,8 7,6 9,6 9,5 l 6,0 0,1 2,0 0,2 2,0 0,10 -1,0 0,2 -3,0 0,2 5,0 c 1.108,0 2,-0.892 2,-2 L 22,4 C 22,2.892 21.108,2 20,2 z"
       transform="translate(0,1028.3622)"
       id="rect2985"
       inkscape:connector-curvature="0"
       sodipodi:nodetypes="ssssccccccccccccccccccccsssss" />
    <path
       style="fill:#505050;fill-opacity:1;fill-rule:nonzero;stroke:none"
       d="m 7,9 0,10 3,0 0,3 4,0 0,-3 3,0 0,-10 -2,0 0,7 -6,0 0,-7 z"
       transform="translate(0,1028.3622)"
       id="rect3763"
       inkscape:connector-curvature="0"
       sodipodi:nodetypes="ccccccccccccc" />
    <rect
       style="fill:#505050;fill-opacity:1;fill-rule:nonzero;stroke:none"
       id="rect3767"
       width="4"
       height="7"
       x="10"
       y="1036.3622" />
  </g>
</svg>
