<?xml version="1.0" encoding="UTF-8" standalone="no"?>
<!-- Created with Inkscape (http://www.inkscape.org/) -->

<svg
   xmlns:dc="http://purl.org/dc/elements/1.1/"
   xmlns:cc="http://creativecommons.org/ns#"
   xmlns:rdf="http://www.w3.org/1999/02/22-rdf-syntax-ns#"
   xmlns:svg="http://www.w3.org/2000/svg"
   xmlns="http://www.w3.org/2000/svg"
   xmlns:xlink="http://www.w3.org/1999/xlink"
   xmlns:sodipodi="http://sodipodi.sourceforge.net/DTD/sodipodi-0.dtd"
   xmlns:inkscape="http://www.inkscape.org/namespaces/inkscape"
   width="22"
   height="22"
   id="svg3147"
   version="1.1"
   inkscape:version="0.48.3.1 r9886"
   sodipodi:docname="drive-harddisk-usb.svg">
  <defs
     id="defs3149">
    <linearGradient
       id="linearGradient3863">
      <stop
         style="stop-color:#141414;stop-opacity:1;"
         offset="0"
         id="stop3865" />
      <stop
         style="stop-color:#505050;stop-opacity:1;"
         offset="1"
         id="stop3867" />
    </linearGradient>
    <linearGradient
       id="linearGradient3823">
      <stop
         style="stop-color:#505050;stop-opacity:1;"
         offset="0"
         id="stop3825" />
      <stop
         style="stop-color:#969696;stop-opacity:1;"
         offset="1"
         id="stop3827" />
    </linearGradient>
    <linearGradient
       id="linearGradient3815">
      <stop
         style="stop-color:#a0a0a0;stop-opacity:1;"
         offset="0"
         id="stop3817" />
      <stop
         style="stop-color:#505050;stop-opacity:1;"
         offset="1"
         id="stop3819" />
    </linearGradient>
    <linearGradient
       id="linearGradient3807">
      <stop
         style="stop-color:#333333;stop-opacity:1;"
         offset="0"
         id="stop3809" />
      <stop
         style="stop-color:#505050;stop-opacity:1;"
         offset="1"
         id="stop3811" />
    </linearGradient>
    <linearGradient
       id="linearGradient3797">
      <stop
         style="stop-color:#3c3c3c;stop-opacity:1;"
         offset="0"
         id="stop3799" />
      <stop
         style="stop-color:#787878;stop-opacity:1;"
         offset="1"
         id="stop3801" />
    </linearGradient>
    <linearGradient
       id="linearGradient3773">
      <stop
         style="stop-color:#646464;stop-opacity:1;"
         offset="0"
         id="stop3775" />
      <stop
         id="stop3787"
         offset="0.11835586"
         style="stop-color:#e6e6e6;stop-opacity:1;" />
      <stop
         id="stop3785"
         offset="0.39527026"
         style="stop-color:#c8c8c8;stop-opacity:1;" />
      <stop
         id="stop3783"
         offset="0.61216217"
         style="stop-color:#c8c8c8;stop-opacity:1;" />
      <stop
         id="stop3781"
         offset="0.89099097"
         style="stop-color:#e6e6e6;stop-opacity:1;" />
      <stop
         style="stop-color:#646464;stop-opacity:1;"
         offset="1"
         id="stop3777" />
    </linearGradient>
    <linearGradient
       id="linearGradient4536">
      <stop
         style="stop-color:#ffffff;stop-opacity:0.39215687;"
         offset="0"
         id="stop4538" />
      <stop
         id="stop4546"
         offset="0.09717176"
         style="stop-color:#ffffff;stop-opacity:0.15686275;" />
      <stop
         id="stop4544"
         offset="0.90565783"
         style="stop-color:#ffffff;stop-opacity:0.23529412;" />
      <stop
         style="stop-color:#ffffff;stop-opacity:0.88235295;"
         offset="1"
         id="stop4540" />
    </linearGradient>
    <radialGradient
       inkscape:collect="always"
       xlink:href="#linearGradient3688-166-749"
       id="radialGradient3132"
       gradientUnits="userSpaceOnUse"
       gradientTransform="matrix(2.003784,0,0,1.4,27.98813,-17.4)"
       cx="4.9929786"
       cy="43.5"
       fx="4.9929786"
       fy="43.5"
       r="2.5" />
    <linearGradient
       id="linearGradient3688-166-749">
      <stop
         id="stop2883"
         style="stop-color:#181818;stop-opacity:1"
         offset="0" />
      <stop
         id="stop2885"
         style="stop-color:#181818;stop-opacity:0"
         offset="1" />
    </linearGradient>
    <radialGradient
       inkscape:collect="always"
       xlink:href="#linearGradient3688-464-309"
       id="radialGradient3134"
       gradientUnits="userSpaceOnUse"
       gradientTransform="matrix(2.003784,0,0,1.4,-20.01187,-104.4)"
       cx="4.9929786"
       cy="43.5"
       fx="4.9929786"
       fy="43.5"
       r="2.5" />
    <linearGradient
       id="linearGradient3688-464-309">
      <stop
         id="stop2889"
         style="stop-color:#181818;stop-opacity:1"
         offset="0" />
      <stop
         id="stop2891"
         style="stop-color:#181818;stop-opacity:0"
         offset="1" />
    </linearGradient>
    <linearGradient
       inkscape:collect="always"
       xlink:href="#linearGradient3702-501-757"
       id="linearGradient3136"
       gradientUnits="userSpaceOnUse"
       x1="25.058096"
       y1="47.027729"
       x2="25.058096"
       y2="39.999443" />
    <linearGradient
       id="linearGradient3702-501-757">
      <stop
         id="stop2895"
         style="stop-color:#181818;stop-opacity:0"
         offset="0" />
      <stop
         id="stop2897"
         style="stop-color:#181818;stop-opacity:1"
         offset="0.5" />
      <stop
         id="stop2899"
         style="stop-color:#181818;stop-opacity:0"
         offset="1" />
    </linearGradient>
    <linearGradient
       inkscape:collect="always"
       xlink:href="#linearGradient4536"
       id="linearGradient4542"
       x1="14.153152"
       y1="1010.3351"
       x2="14.178634"
       y2="1022.3438"
       gradientUnits="userSpaceOnUse"
       gradientTransform="translate(-3,22.000041)" />
    <linearGradient
       inkscape:collect="always"
       xlink:href="#linearGradient3773"
       id="linearGradient3779"
       x1="2.0359058"
       y1="1046.4883"
       x2="22"
       y2="1046.4883"
       gradientUnits="userSpaceOnUse"
       gradientTransform="translate(-0.99999998,1.0000244)" />
    <linearGradient
       inkscape:collect="always"
       xlink:href="#linearGradient3797"
       id="linearGradient3803"
       x1="8.557682"
       y1="1050.2361"
       x2="8.557682"
       y2="1030.3441"
       gradientUnits="userSpaceOnUse"
       gradientTransform="translate(-0.99999998,1.0000244)" />
    <linearGradient
       inkscape:collect="always"
       xlink:href="#linearGradient3807"
       id="linearGradient3813"
       x1="6.2522526"
       y1="1032.5153"
       x2="6.2522526"
       y2="1046.1753"
       gradientUnits="userSpaceOnUse"
       gradientTransform="translate(-0.99999998,1.0000244)" />
    <radialGradient
       inkscape:collect="always"
       xlink:href="#linearGradient3815"
       id="radialGradient3821"
       cx="11.963921"
       cy="1032.2578"
       fx="11.963921"
       fy="1032.2578"
       r="10"
       gradientTransform="matrix(-4.5299407e-6,1.0270482,-1.0459445,-4.6132853e-6,1090.6484,1023.1063)"
       gradientUnits="userSpaceOnUse" />
    <linearGradient
       inkscape:collect="always"
       xlink:href="#linearGradient3823"
       id="linearGradient3829"
       x1="11.657658"
       y1="1030.5874"
       x2="11.657658"
       y2="1044.001"
       gradientUnits="userSpaceOnUse"
       gradientTransform="translate(-0.99999998,1.0000244)" />
    <linearGradient
       inkscape:collect="always"
       xlink:href="#linearGradient3807"
       id="linearGradient3853"
       x1="6.7567568"
       y1="1030.2991"
       x2="6.7567568"
       y2="1044.137"
       gradientUnits="userSpaceOnUse"
       gradientTransform="translate(-0.99999998,1.0000244)" />
    <linearGradient
       inkscape:collect="always"
       xlink:href="#linearGradient3863"
       id="linearGradient3869"
       x1="5.4144144"
       y1="1047.3531"
       x2="5.4144144"
       y2="1049.3541"
       gradientUnits="userSpaceOnUse"
       gradientTransform="translate(-0.99999998,1.0000244)" />
    <linearGradient
       inkscape:collect="always"
       xlink:href="#linearGradient3863"
       id="linearGradient3873"
       gradientUnits="userSpaceOnUse"
       x1="5.4144144"
       y1="1047.3531"
       x2="5.4144144"
       y2="1049.3541"
       gradientTransform="translate(1,1.0000244)" />
    <linearGradient
       inkscape:collect="always"
       xlink:href="#linearGradient3863"
       id="linearGradient3877"
       gradientUnits="userSpaceOnUse"
       gradientTransform="translate(3,1.0000244)"
       x1="5.4144144"
       y1="1047.3531"
       x2="5.4144144"
       y2="1049.3541" />
    <radialGradient
       inkscape:collect="always"
       xlink:href="#linearGradient3999"
       id="radialGradient3888"
       gradientUnits="userSpaceOnUse"
       cx="68.25"
       cy="82.5"
       fx="68.25"
       fy="82.5"
       r="2.125" />
    <linearGradient
       id="linearGradient3999">
      <stop
         style="stop-color:#e0fa3b;stop-opacity:1;"
         offset="0"
         id="stop4001" />
      <stop
         style="stop-color:#428b1b;stop-opacity:1;"
         offset="1"
         id="stop4003" />
    </linearGradient>
    <radialGradient
       r="2.125"
       fy="82.5"
       fx="68.25"
       cy="82.5"
       cx="68.25"
       gradientUnits="userSpaceOnUse"
       id="radialGradient3897"
       xlink:href="#linearGradient3999"
       inkscape:collect="always" />
    <linearGradient
       inkscape:collect="always"
       xlink:href="#linearGradient4142"
       id="linearGradient4148"
       x1="47.500008"
       y1="978.36218"
       x2="47.500008"
       y2="1014.6432"
       gradientUnits="userSpaceOnUse" />
    <linearGradient
       id="linearGradient4142">
      <stop
         style="stop-color:#333333;stop-opacity:1;"
         offset="0"
         id="stop4144" />
      <stop
         style="stop-color:#555555;stop-opacity:1;"
         offset="1"
         id="stop4146" />
    </linearGradient>
    <linearGradient
       gradientTransform="matrix(0.30000141,0,0,0.24970663,-2.4000446,788.07141)"
       y2="1014.6432"
       x2="47.500008"
       y1="978.36218"
       x1="47.500008"
       gradientUnits="userSpaceOnUse"
       id="linearGradient3100"
       xlink:href="#linearGradient4142"
       inkscape:collect="always" />
    <linearGradient
       inkscape:collect="always"
       xlink:href="#linearGradient4142"
       id="linearGradient3858"
       gradientUnits="userSpaceOnUse"
       gradientTransform="matrix(0.30000141,0,0,0.24967889,-2.4000446,788.09955)"
       x1="47.500008"
       y1="978.36218"
       x2="47.500008"
       y2="1014.6432" />
    <linearGradient
       inkscape:collect="always"
       xlink:href="#linearGradient4142"
       id="linearGradient3862"
       gradientUnits="userSpaceOnUse"
       gradientTransform="matrix(0.30000141,0,0,0.24967889,-3.4000446,790.09957)"
       x1="47.500008"
       y1="978.36218"
       x2="47.500008"
       y2="1014.6432" />
  </defs>
  <sodipodi:namedview
     id="base"
     pagecolor="#ffffff"
     bordercolor="#666666"
     borderopacity="1.0"
     inkscape:pageopacity="0.0"
     inkscape:pageshadow="2"
     inkscape:zoom="19.622213"
     inkscape:cx="9.8603802"
     inkscape:cy="11.258204"
     inkscape:document-units="px"
     inkscape:current-layer="layer1"
     showgrid="false"
     inkscape:window-width="1280"
     inkscape:window-height="756"
     inkscape:window-x="0"
     inkscape:window-y="24"
     inkscape:window-maximized="1" />
  <metadata
     id="metadata3152">
    <rdf:RDF>
      <cc:Work
         rdf:about="">
        <dc:format>image/svg+xml</dc:format>
        <dc:type
           rdf:resource="http://purl.org/dc/dcmitype/StillImage" />
        <dc:title></dc:title>
      </cc:Work>
    </rdf:RDF>
  </metadata>
  <g
     inkscape:label="Livello 1"
     inkscape:groupmode="layer"
     id="layer1"
     transform="translate(0,-1030.3622)">
    <rect
       style="fill:url(#linearGradient3779);fill-opacity:1;stroke:url(#linearGradient3803);stroke-opacity:1"
       id="rect3163"
       width="19"
       height="19"
       x="1.4999999"
       y="1031.8621"
       rx="1.5"
       ry="1.5" />
    <rect
       style="fill:url(#radialGradient3821);fill-opacity:1;stroke:url(#linearGradient3813);stroke-opacity:1"
       id="rect3805"
       width="19"
       height="13"
       x="1.4999999"
       y="1033.8619"
       rx="1.5"
       ry="1.5" />
    <rect
       ry="1.5"
       rx="1.5"
       y="1031.8621"
       x="1.4999999"
       height="13"
       width="19"
       id="rect3003"
       style="fill:url(#linearGradient3829);fill-opacity:1;stroke:url(#linearGradient3853);stroke-opacity:1" />
    <rect
       style="opacity:0.5;fill:none;stroke:url(#linearGradient4542);stroke-opacity:1"
       id="rect4534"
       width="17"
       height="11"
       x="2.5000005"
       y="1032.8621"
       rx="0.5"
       ry="0.5" />
    <rect
       style="fill:url(#linearGradient3869);fill-opacity:1;stroke:none"
       id="rect3861"
       width="1"
       height="2"
       x="4.000001"
       y="1048.3621" />
    <rect
       y="1048.3621"
       x="6.000001"
       height="2"
       width="1"
       id="rect3871"
       style="fill:url(#linearGradient3873);fill-opacity:1;stroke:none" />
    <rect
       style="fill:url(#linearGradient3877);fill-opacity:1;stroke:none"
       id="rect3875"
       width="1"
       height="2"
       x="7.9999967"
       y="1048.3621" />
    <path
       sodipodi:type="arc"
       style="fill:url(#radialGradient3897);fill-opacity:1;stroke:none"
       id="path3992"
       sodipodi:cx="68.25"
       sodipodi:cy="82.5"
       sodipodi:rx="2.125"
       sodipodi:ry="2.125"
       d="m 70.375,82.5 a 2.125,2.125 0 1 1 -4.25,0 2.125,2.125 0 1 1 4.25,0 z"
       transform="matrix(0.47058824,0,0,0.47058824,-16.117647,1010.5387)" />
    <path
       style="opacity:0.1;fill:#000000;fill-opacity:1;stroke:none"
       d="m 16,1048.3622 c -0.552285,0 -1,0.4477 -1,1 0,0.5523 0.447715,1 1,1 0.552285,0 1,-0.4477 1,-1 0,-0.5523 -0.447715,-1 -1,-1 z m 0,0.5 c 0.276142,0 0.5,0.2239 0.5,0.5 0,0.2761 -0.223858,0.5 -0.5,0.5 -0.276142,0 -0.5,-0.2239 -0.5,-0.5 0,-0.2761 0.223858,-0.5 0.5,-0.5 z"
       id="path3917"
       inkscape:connector-curvature="0" />
    <path
       style="fill:url(#linearGradient3862);fill-opacity:1;stroke:none;display:inline"
       d="m 8.0000105,1038.1136 c 0,0.2621 0.2277525,0.4864 0.5508805,0.5872 l 0,0.6542 c 0,0.234 0.170912,0.4543 0.376434,0.6129 0.0022,0 0.0024,0 0.0046,0.01 0,0 0,0 0,0 3e-6,0 0.0091,0.01 0.0092,0.01 3.9e-5,0 0.0079,0.01 0.0092,0.01 0.0013,0 0.0038,0 0.0046,0 7.5e-4,0 -7.5e-4,0 0,0 0.0031,0 0.0092,0 0.01376,0.01 0.0016,0 0.003,0 0.0046,0 0.0049,0 1.523753,0.9869 1.542461,0.9989 0.0729,0.064 0.125748,0.1531 0.128538,0.2329 l 0,0.5714 c -0.460229,0.1067 -0.794185,0.4063 -0.794185,0.7564 0,0.4397 0.522552,0.7947 1.166028,0.7947 0.643668,0 1.166027,-0.355 1.166027,-0.7947 0,-0.3502 -0.333688,-0.6497 -0.794186,-0.7564 l 0,-0.565 c 0,0 -8.4e-5,-0.01 0,-0.01 8.7e-5,0 5.4e-4,0 0,-0.01 l 0,-0.9861 c 0.003,-0.08 0.0549,-0.1619 0.128541,-0.2264 0.0094,-0.01 0.382958,-0.2501 0.76664,-0.4981 0.194215,-0.1254 0.390981,-0.2503 0.537107,-0.3445 0.07307,-0.047 0.131559,-0.087 0.174446,-0.1149 0.02144,-0.014 0.03888,-0.025 0.0505,-0.032 0.0058,0 0.01068,0 0.01376,-0.01 0.0014,0 0.0031,0 0.0046,-0.01 0.0042,0 0.01092,0 0.01378,-0.01 9.3e-4,0 -9.3e-4,0 0,0 9.3e-4,0 0.0032,0 0.0046,0 0.0013,0 0.0091,-0.013 0.0092,-0.013 5e-6,0 0.0092,-0.01 0.0092,-0.01 0,0 0,0 0,0 0,0 0.0046,0 0.0046,0 7.5e-4,0 -7.5e-4,0 0,0 0.0018,0 0.0046,-0.01 0.0046,-0.01 0.202408,-0.1584 0.371844,-0.375 0.371844,-0.6064 l 0,-0.6 0.518745,0 0,-1.2734 -1.784501,0 0,1.2734 0.522068,0 c 0,0.1335 0,0.2724 0,0.6096 -0.0026,0.08 -0.05449,0.1614 -0.128539,0.2265 l -1.221114,0.7916 0,-3.5268 0.805422,0 -1.19339,-1.4934 -1.193696,1.4934 0.837978,0 0,4.5129 -1.2211159,-0.7882 c -0.07315,-0.065 -0.125831,-0.1531 -0.128538,-0.2331 0,-0.275 4.3e-5,-0.4893 0,-0.6574 0.3307249,-0.099 0.5646499,-0.3247 0.5646499,-0.5905 0,-0.3563 -0.4194039,-0.6477 -0.931903,-0.6477 -0.512499,0 -0.9273131,0.2914 -0.9273131,0.6477 z"
       id="path1334-2"
       sodipodi:nodetypes="cccsccsssssscccsssccscccsssssssssscccsccccccccccccccccccccssc"
       inkscape:connector-curvature="0" />
  </g>
</svg>
