<?xml version="1.0" encoding="UTF-8" standalone="no"?>
<!-- Created with Inkscape (http://www.inkscape.org/) -->

<svg
   xmlns:dc="http://purl.org/dc/elements/1.1/"
   xmlns:cc="http://creativecommons.org/ns#"
   xmlns:rdf="http://www.w3.org/1999/02/22-rdf-syntax-ns#"
   xmlns:svg="http://www.w3.org/2000/svg"
   xmlns="http://www.w3.org/2000/svg"
   xmlns:xlink="http://www.w3.org/1999/xlink"
   xmlns:sodipodi="http://sodipodi.sourceforge.net/DTD/sodipodi-0.dtd"
   xmlns:inkscape="http://www.inkscape.org/namespaces/inkscape"
   width="48px"
   height="48px"
   id="svg14974"
   version="1.1"
   inkscape:version="0.48.3.1 r9886"
   sodipodi:docname="aa.svg">
  <defs
     id="defs14976">
    <linearGradient
       inkscape:collect="always"
       xlink:href="#id2-5-9-5-7"
       id="linearGradient14076-4-6-5"
       gradientUnits="userSpaceOnUse"
       x1="23.279499"
       y1="44.1992"
       x2="23.279499"
       y2="45.509102" />
    <linearGradient
       y2="45.509102"
       x2="23.279499"
       y1="44.1992"
       x1="23.279499"
       gradientUnits="userSpaceOnUse"
       id="id2-5-9-5-7">
      <stop
         id="stop17-1-5-4"
         style="stop-color:#B2B2B2"
         offset="0" />
      <stop
         id="stop19-4-9-7"
         style="stop-color:#7F7F7F"
         offset="1" />
    </linearGradient>
    <linearGradient
       inkscape:collect="always"
       xlink:href="#id2-5-9-5-7"
       id="linearGradient14078-2-9-8"
       gradientUnits="userSpaceOnUse"
       x1="23.279499"
       y1="44.1992"
       x2="23.279499"
       y2="45.509102" />
    <linearGradient
       y2="45.509102"
       x2="23.279499"
       y1="44.1992"
       x1="23.279499"
       gradientUnits="userSpaceOnUse"
       id="linearGradient14785">
      <stop
         id="stop14787"
         style="stop-color:#B2B2B2"
         offset="0" />
      <stop
         id="stop14789"
         style="stop-color:#7F7F7F"
         offset="1" />
    </linearGradient>
    <linearGradient
       inkscape:collect="always"
       xlink:href="#id2-5-9-1"
       id="linearGradient14076-4-2"
       gradientUnits="userSpaceOnUse"
       x1="23.279499"
       y1="44.1992"
       x2="23.279499"
       y2="45.509102" />
    <linearGradient
       y2="45.509102"
       x2="23.279499"
       y1="44.1992"
       x1="23.279499"
       gradientUnits="userSpaceOnUse"
       id="id2-5-9-1">
      <stop
         id="stop17-1-50"
         style="stop-color:#B2B2B2"
         offset="0" />
      <stop
         id="stop19-4-76"
         style="stop-color:#7F7F7F"
         offset="1" />
    </linearGradient>
    <linearGradient
       inkscape:collect="always"
       xlink:href="#id2-5-9-1"
       id="linearGradient14078-2-8"
       gradientUnits="userSpaceOnUse"
       x1="23.279499"
       y1="44.1992"
       x2="23.279499"
       y2="45.509102" />
    <linearGradient
       y2="45.509102"
       x2="23.279499"
       y1="44.1992"
       x1="23.279499"
       gradientUnits="userSpaceOnUse"
       id="linearGradient14796">
      <stop
         id="stop14798"
         style="stop-color:#B2B2B2"
         offset="0" />
      <stop
         id="stop14800"
         style="stop-color:#7F7F7F"
         offset="1" />
    </linearGradient>
    <linearGradient
       inkscape:collect="always"
       xlink:href="#id2-5-9-8"
       id="linearGradient14076-4-0"
       gradientUnits="userSpaceOnUse"
       x1="23.279499"
       y1="44.1992"
       x2="23.279499"
       y2="45.509102" />
    <linearGradient
       y2="45.509102"
       x2="23.279499"
       y1="44.1992"
       x1="23.279499"
       gradientUnits="userSpaceOnUse"
       id="id2-5-9-8">
      <stop
         id="stop17-1-4"
         style="stop-color:#B2B2B2"
         offset="0" />
      <stop
         id="stop19-4-7"
         style="stop-color:#7F7F7F"
         offset="1" />
    </linearGradient>
    <linearGradient
       inkscape:collect="always"
       xlink:href="#id2-5-9-8"
       id="linearGradient14078-2-5"
       gradientUnits="userSpaceOnUse"
       x1="23.279499"
       y1="44.1992"
       x2="23.279499"
       y2="45.509102" />
    <linearGradient
       y2="45.509102"
       x2="23.279499"
       y1="44.1992"
       x1="23.279499"
       gradientUnits="userSpaceOnUse"
       id="linearGradient14807">
      <stop
         id="stop14809"
         style="stop-color:#B2B2B2"
         offset="0" />
      <stop
         id="stop14811"
         style="stop-color:#7F7F7F"
         offset="1" />
    </linearGradient>
    <linearGradient
       inkscape:collect="always"
       xlink:href="#id2-5-9-5"
       id="linearGradient14076-4-6"
       gradientUnits="userSpaceOnUse"
       x1="23.279499"
       y1="44.1992"
       x2="23.279499"
       y2="45.509102" />
    <linearGradient
       y2="45.509102"
       x2="23.279499"
       y1="44.1992"
       x1="23.279499"
       gradientUnits="userSpaceOnUse"
       id="id2-5-9-5">
      <stop
         id="stop17-1-5"
         style="stop-color:#B2B2B2"
         offset="0" />
      <stop
         id="stop19-4-9"
         style="stop-color:#7F7F7F"
         offset="1" />
    </linearGradient>
    <linearGradient
       inkscape:collect="always"
       xlink:href="#id2-5-9-5"
       id="linearGradient14078-2-9"
       gradientUnits="userSpaceOnUse"
       x1="23.279499"
       y1="44.1992"
       x2="23.279499"
       y2="45.509102" />
    <linearGradient
       y2="45.509102"
       x2="23.279499"
       y1="44.1992"
       x1="23.279499"
       gradientUnits="userSpaceOnUse"
       id="linearGradient14818">
      <stop
         id="stop14820"
         style="stop-color:#B2B2B2"
         offset="0" />
      <stop
         id="stop14822"
         style="stop-color:#7F7F7F"
         offset="1" />
    </linearGradient>
    <linearGradient
       inkscape:collect="always"
       xlink:href="#id8-4-5"
       id="linearGradient13765-8"
       gradientUnits="userSpaceOnUse"
       gradientTransform="matrix(0.95959356,0,0,0.8877796,1.985944,-15.265237)"
       x1="24.1406"
       y1="24.542101"
       x2="23.899599"
       y2="31.427999" />
    <linearGradient
       y2="31.427999"
       x2="23.899599"
       y1="24.542101"
       x1="24.1406"
       gradientUnits="userSpaceOnUse"
       id="id8-4-5"
       gradientTransform="translate(-16.897036,-4.9917132)">
      <stop
         id="stop47-9"
         style="stop-color:#999999"
         offset="0" />
      <stop
         id="stop49-5"
         style="stop-color:#666666"
         offset="1" />
    </linearGradient>
    <linearGradient
       inkscape:collect="always"
       xlink:href="#id7-7-2"
       id="linearGradient13771-8"
       gradientUnits="userSpaceOnUse"
       gradientTransform="matrix(0.95959356,0,0,0.8877796,1.985944,-15.265237)"
       x1="24.025999"
       y1="26.385799"
       x2="24.025999"
       y2="29.571301" />
    <linearGradient
       y2="29.571301"
       x2="24.025999"
       y1="26.385799"
       x1="24.025999"
       gradientUnits="userSpaceOnUse"
       id="id7-7-2"
       gradientTransform="translate(-16.897036,-4.9917132)">
      <stop
         id="stop42-7"
         style="stop-color:#CCCCCC"
         offset="0" />
      <stop
         id="stop44-5"
         style="stop-color:#7F7F7F"
         offset="1" />
    </linearGradient>
    <mask
       id="id0-5-1">
      <linearGradient
         y2="25.4126"
         x2="24.0343"
         y1="30.540899"
         x1="24.0886"
         gradientUnits="userSpaceOnUse"
         id="id1-8-7">
        <stop
           id="stop10-0"
           style="stop-opacity:1; stop-color:white"
           offset="0" />
        <stop
           id="stop12-2"
           style="stop-opacity:0; stop-color:white"
           offset="1" />
      </linearGradient>
      <rect
         id="rect14-2"
         height="8.4614201"
         width="5.1401601"
         y="23.746099"
         x="21.491301"
         style="fill:url(#id1-8-7)" />
    </mask>
    <linearGradient
       y2="25.4126"
       x2="24.0343"
       y1="30.540899"
       x1="24.0886"
       gradientUnits="userSpaceOnUse"
       id="linearGradient14837">
      <stop
         id="stop14839"
         style="stop-opacity:1; stop-color:white"
         offset="0" />
      <stop
         id="stop14841"
         style="stop-opacity:0; stop-color:white"
         offset="1" />
    </linearGradient>
    <linearGradient
       inkscape:collect="always"
       xlink:href="#id5-3-4"
       id="linearGradient13781-3"
       gradientUnits="userSpaceOnUse"
       gradientTransform="matrix(0.95959356,0,0,0.8877796,1.985944,-15.265237)"
       x1="23.880699"
       y1="38.676399"
       x2="24.044901"
       y2="29.202801" />
    <linearGradient
       y2="29.202801"
       x2="24.044901"
       y1="38.676399"
       x1="23.880699"
       gradientUnits="userSpaceOnUse"
       id="id5-3-4"
       gradientTransform="translate(-16.897036,-4.9917132)">
      <stop
         id="stop32-0"
         style="stop-color:#B2B2B2"
         offset="0" />
      <stop
         id="stop34-4"
         style="stop-color:whitesmoke"
         offset="1" />
    </linearGradient>
    <linearGradient
       inkscape:collect="always"
       xlink:href="#id9-7-3"
       id="linearGradient13784-8"
       gradientUnits="userSpaceOnUse"
       gradientTransform="matrix(0.95959356,0,0,0.8877796,1.985944,-15.265237)"
       x1="23.516899"
       y1="40.0854"
       x2="24.447599"
       y2="27.6791" />
    <linearGradient
       y2="27.6791"
       x2="24.447599"
       y1="40.0854"
       x1="23.516899"
       gradientUnits="userSpaceOnUse"
       id="id9-7-3"
       gradientTransform="translate(-16.897036,-4.9917132)">
      <stop
         id="stop52-0"
         style="stop-color:#7F7F7F"
         offset="0" />
      <stop
         id="stop54-6"
         style="stop-color:#999999"
         offset="1" />
    </linearGradient>
    <linearGradient
       inkscape:collect="always"
       xlink:href="#id3-1-2"
       id="linearGradient13788-7"
       gradientUnits="userSpaceOnUse"
       gradientTransform="matrix(0.95959356,0,0,0.8877796,1.985944,-15.265237)"
       x1="23.917299"
       y1="22.687799"
       x2="24.061399"
       y2="30.0886" />
    <linearGradient
       y2="30.0886"
       x2="24.061399"
       y1="22.687799"
       x1="23.917299"
       gradientUnits="userSpaceOnUse"
       id="id3-1-2"
       gradientTransform="translate(-16.897036,-4.9917132)">
      <stop
         id="stop22-3"
         style="stop-color:#F2F2F2"
         offset="0" />
      <stop
         id="stop24-6"
         style="stop-color:#7F7F7F"
         offset="1" />
    </linearGradient>
    <linearGradient
       inkscape:collect="always"
       xlink:href="#id2-5-9"
       id="linearGradient14072-4"
       gradientUnits="userSpaceOnUse"
       x1="23.279499"
       y1="44.1992"
       x2="23.279499"
       y2="45.509102" />
    <linearGradient
       y2="45.509102"
       x2="23.279499"
       y1="44.1992"
       x1="23.279499"
       gradientUnits="userSpaceOnUse"
       id="id2-5-9">
      <stop
         id="stop17-1"
         style="stop-color:#B2B2B2"
         offset="0" />
      <stop
         id="stop19-4"
         style="stop-color:#7F7F7F"
         offset="1" />
    </linearGradient>
    <linearGradient
       inkscape:collect="always"
       xlink:href="#id2-5-9"
       id="linearGradient14074-5"
       gradientUnits="userSpaceOnUse"
       x1="23.279499"
       y1="44.1992"
       x2="23.279499"
       y2="45.509102" />
    <linearGradient
       y2="45.509102"
       x2="23.279499"
       y1="44.1992"
       x1="23.279499"
       gradientUnits="userSpaceOnUse"
       id="linearGradient14860">
      <stop
         id="stop14862"
         style="stop-color:#B2B2B2"
         offset="0" />
      <stop
         id="stop14864"
         style="stop-color:#7F7F7F"
         offset="1" />
    </linearGradient>
    <linearGradient
       inkscape:collect="always"
       xlink:href="#id2-5-9"
       id="linearGradient14076-4"
       gradientUnits="userSpaceOnUse"
       x1="23.279499"
       y1="44.1992"
       x2="23.279499"
       y2="45.509102" />
    <linearGradient
       y2="45.509102"
       x2="23.279499"
       y1="44.1992"
       x1="23.279499"
       gradientUnits="userSpaceOnUse"
       id="linearGradient14867">
      <stop
         id="stop14869"
         style="stop-color:#B2B2B2"
         offset="0" />
      <stop
         id="stop14871"
         style="stop-color:#7F7F7F"
         offset="1" />
    </linearGradient>
    <linearGradient
       inkscape:collect="always"
       xlink:href="#id2-5-9"
       id="linearGradient14078-2"
       gradientUnits="userSpaceOnUse"
       x1="23.279499"
       y1="44.1992"
       x2="23.279499"
       y2="45.509102" />
    <linearGradient
       y2="45.509102"
       x2="23.279499"
       y1="44.1992"
       x1="23.279499"
       gradientUnits="userSpaceOnUse"
       id="linearGradient14874">
      <stop
         id="stop14876"
         style="stop-color:#B2B2B2"
         offset="0" />
      <stop
         id="stop14878"
         style="stop-color:#7F7F7F"
         offset="1" />
    </linearGradient>
    <linearGradient
       inkscape:collect="always"
       xlink:href="#id4-5-5"
       id="linearGradient13829-2"
       gradientUnits="userSpaceOnUse"
       gradientTransform="matrix(0.95959356,0,0,0.8877796,1.5083591,-14.979922)"
       x1="23.861799"
       y1="21.557501"
       x2="23.861799"
       y2="44.8465" />
    <linearGradient
       y2="44.8465"
       x2="23.861799"
       y1="21.557501"
       x1="23.861799"
       gradientUnits="userSpaceOnUse"
       id="id4-5-5"
       gradientTransform="translate(-16.897036,-4.9917132)">
      <stop
         id="stop27-0"
         style="stop-color:#8C551E"
         offset="0" />
      <stop
         id="stop29-0"
         style="stop-color:#804716"
         offset="1" />
    </linearGradient>
    <linearGradient
       y2="44.8465"
       x2="23.861799"
       y1="21.557501"
       x1="23.861799"
       gradientTransform="matrix(0.95959356,0,0,0.8877796,1.985944,-15.265237)"
       gradientUnits="userSpaceOnUse"
       id="linearGradient14964"
       xlink:href="#id4-5-5"
       inkscape:collect="always" />
  </defs>
  <sodipodi:namedview
     id="base"
     pagecolor="#ffffff"
     bordercolor="#666666"
     borderopacity="1.0"
     inkscape:pageopacity="0.0"
     inkscape:pageshadow="2"
     inkscape:zoom="3.5"
     inkscape:cx="18.814106"
     inkscape:cy="8.6472418"
     inkscape:current-layer="layer3"
     showgrid="false"
     inkscape:grid-bbox="true"
     inkscape:document-units="px"
     inkscape:window-width="1024"
     inkscape:window-height="724"
     inkscape:window-x="0"
     inkscape:window-y="22"
     inkscape:window-maximized="1">
    <inkscape:grid
       type="xygrid"
       id="grid15379" />
  </sodipodi:namedview>
  <metadata
     id="metadata14979">
    <rdf:RDF>
      <cc:Work
         rdf:about="">
        <dc:format>image/svg+xml</dc:format>
        <dc:type
           rdf:resource="http://purl.org/dc/dcmitype/StillImage" />
        <dc:title></dc:title>
      </cc:Work>
    </rdf:RDF>
  </metadata>
  <g
     inkscape:groupmode="layer"
     id="layer2"
     inkscape:label="Layer">
    <rect
       ry="6.2786646"
       y="-45.712975"
       x="2.2457097"
       height="44.399963"
       width="44.399963"
       id="rect5263-6-7"
       style="fill:#000000;fill-opacity:0.01960784;stroke:none"
       transform="scale(1,-1)" />
    <rect
       style="fill:#000000;fill-opacity:0.03921569;stroke:none"
       id="rect5261-8-3"
       width="43.799973"
       height="43.799973"
       x="2.5456975"
       y="-45.412865"
       ry="6.1938181"
       transform="scale(1,-1)" />
    <rect
       ry="6.1089716"
       y="-45.112816"
       x="2.8456852"
       height="43.199982"
       width="43.199982"
       id="rect5259-7-5"
       style="fill:#000000;fill-opacity:0.07843137;stroke:none"
       transform="scale(1,-1)" />
    <rect
       style="fill:#000000;fill-opacity:0.15686275;stroke:none"
       id="rect5257-4-5"
       width="42.599991"
       height="42.599991"
       x="3.1457036"
       y="-44.812828"
       ry="6.0241251"
       transform="scale(1,-1)" />
    <rect
       ry="5.9392786"
       y="-44.512962"
       x="3.4456913"
       height="42"
       width="42"
       id="rect5237-5-2"
       style="fill:#e69d45;fill-opacity:1;stroke:none"
       transform="scale(1,-1)" />
    <path
       id="path5252-2-0-6"
       d="m 3.4953711,8.757573 0,-0.5 c 0,-3.2904 2.64714,-5.9375 5.9375,-5.9375 l 30.1250009,0 c 3.29036,0 5.9375,2.6471 5.9375,5.9375 l 0,0.5 c 0,-3.2904 -2.64714,-5.9375 -5.9375,-5.9375 l -30.1250009,0 c -3.29036,0 -5.9375,2.6471 -5.9375,5.9375 z"
       style="fill:#000000;fill-opacity:0.09803922;stroke:none"
       inkscape:connector-curvature="0" />
    <path
       style="fill:#ce8743;fill-opacity:0.3157895;fill-rule:evenodd;stroke:none"
       d="m 4.8908741,4.710595 -0.126269,38.0178 0.616846,0 0.126269,-38.0178 z m 1.491416,-1.7173 0,41.2503 0.616847,0 0,-41.2503 z m 1.794463,0 0,41.2503 0.616846,0 0,-41.2503 z m 1.794462,0 0,41.2503 0.6168479,0 0,-41.2503 z m 1.7944639,0 0,41.2503 0.616846,0 0,-41.2503 z m 1.794462,0 0,41.2503 0.616847,0 0,-41.2503 z m 1.794463,0 0,41.2503 0.616846,0 0,-41.2503 z m 1.794463,0 0,41.2503 0.616847,0 0,-41.2503 z m 1.794462,0 0,41.2503 0.616847,0 0,-41.2503 z m 1.794463,0 0,41.2503 0.616846,0 0,-41.2503 z m 1.794463,0 0,41.2503 0.616847,0 0,-41.2503 z m 1.794463,0 0,41.2503 0.616846,0 0,-41.2503 z m 1.794462,0 0,41.2503 0.616847,0 0,-41.2503 z m 1.794463,0 0,41.2503 0.616846,0 0,-41.2503 z m 1.794463,0 0,41.2503 0.616846,0 0,-41.2503 z m 1.794462,0 0,41.2503 0.616847,0 0,-41.2503 z m 1.794465,0 0,41.2503 0.616843,0 0,-41.2503 z m 1.794463,0 0,41.2503 0.616848,0 0,-41.2503 z m 1.794459,0 0,41.2503 0.616848,0 0,-41.2503 z m 1.794468,0 0,41.2503 0.616848,0 0,-41.2503 z m 1.794459,0 0,41.2503 0.616848,0 0,-41.2503 z m 1.794468,0 0,41.2503 0.616839,0 0,-41.2503 z m 1.592427,2.6264 0.01456,36.5614 0.616848,0 -0.01456,-36.5614 z"
       id="rect919"
       inkscape:connector-curvature="0"
       sodipodi:nodetypes="ccccccccccccccccccccccccccccccccccccccccccccccccccccccccccccccccccccccccccccccccccccccccccccccccccccccccccccccccccc" />
    <path
       id="path969"
       d="m 5.0477741,5.013595 -0.101015,37.9799 0.616847,0 0.101014,-37.9799 z m 1.64294,-2.0203 0,41.2503 0.616846,0 0,-41.2503 z m 1.794462,0 0,41.2503 0.616847,0 0,-41.2503 z m 1.7944629,0 0,41.2503 0.616847,0 0,-41.2503 z m 1.794463,0 0,41.2503 0.616847,0 0,-41.2503 z m 1.794462,0 0,41.2503 0.616847,0 0,-41.2503 z m 1.794463,0 0,41.2503 0.616846,0 0,-41.2503 z m 1.794463,0 0,41.2503 0.616847,0 0,-41.2503 z m 1.794463,0 0,41.2503 0.616846,0 0,-41.2503 z m 1.794462,0 0,41.2503 0.616847,0 0,-41.2503 z m 1.794464,0 0,41.2503 0.616846,0 0,-41.2503 z m 1.794462,0 0,41.2503 0.616846,0 0,-41.2503 z m 1.794462,0 0,41.2503 0.616847,0 0,-41.2503 z m 1.794463,0 0,41.2503 0.616846,0 0,-41.2503 z m 1.794463,0 0,41.2503 0.616847,0 0,-41.2503 z m 1.794463,0 0,41.2503 0.616848,0 0,-41.2503 z m 1.794465,0 0,41.2503 0.616848,0 0,-41.2503 z m 1.794459,0 0,41.2503 0.616848,0 0,-41.2503 z m 1.794468,0 0,41.2503 0.616848,0 0,-41.2503 z m 1.794458,0 0,41.2503 0.616849,0 0,-41.2503 z m 1.794468,0 0,41.2503 0.616839,0 0,-41.2503 z m 1.794459,0 0,41.2503 0.616848,0 0,-41.2503 z m 1.844967,2.8789 -0.3541,36.041 0.616848,0 0.3541,-36.041 z"
       style="fill:#9d6229;fill-opacity:0.25101217;fill-rule:evenodd;stroke:none"
       inkscape:connector-curvature="0"
       sodipodi:nodetypes="ccccccccccccccccccccccccccccccccccccccccccccccccccccccccccccccccccccccccccccccccccccccccccccccccccccccccccccccccccc" />
    <path
       inkscape:connector-curvature="0"
       style="fill:#e6c19e;fill-opacity:0.13360326;fill-rule:evenodd;stroke:none"
       d="m 4.7532071,4.660095 -0.138896,37.9167 0.616847,0 0.138896,-37.9167 z m 1.491418,-1.6668 0,41.2503 0.616846,0 0,-41.2503 z m 1.794462,0 0,41.2503 0.616847,0 0,-41.2503 z m 1.794463,0 0,41.2503 0.6168459,0 0,-41.2503 z m 1.7944629,0 0,41.2503 0.616847,0 0,-41.2503 z m 1.794463,0 0,41.2503 0.616846,0 0,-41.2503 z m 1.794462,0 0,41.2503 0.616847,0 0,-41.2503 z m 1.794463,0 0,41.2503 0.616846,0 0,-41.2503 z m 1.794463,0 0,41.2503 0.616846,0 0,-41.2503 z m 1.794462,0 0,41.2503 0.616847,0 0,-41.2503 z m 1.794463,0 0,41.2503 0.616846,0 0,-41.2503 z m 1.794463,0 0,41.2503 0.616847,0 0,-41.2503 z m 1.794463,0 0,41.2503 0.616846,0 0,-41.2503 z m 1.794462,0 0,41.2503 0.616847,0 0,-41.2503 z m 1.794462,0 0,41.2503 0.616847,0 0,-41.2503 z m 1.794464,0 0,41.2503 0.616846,0 0,-41.2503 z m 1.794459,0 0,41.2503 0.616843,0 0,-41.2503 z m 1.794463,0 0,41.2503 0.616848,0 0,-41.2503 z m 1.794459,0 0,41.2503 0.616848,0 0,-41.2503 z m 1.794468,0 0,41.2503 0.616848,0 0,-41.2503 z m 1.794458,0 0,41.2503 0.616849,0 0,-41.2503 z m 1.794468,0 0,41.2503 0.616839,0 0,-41.2503 z m 1.844967,2.4244 -0.157666,36.6473 0.616849,0 0.157665,-36.6473 z"
       id="path971"
       sodipodi:nodetypes="ccccccccccccccccccccccccccccccccccccccccccccccccccccccccccccccccccccccccccccccccccccccccccccccccccccccccccccccccccc" />
  </g>
  <g
     id="layer1"
     inkscape:label="Layer 1"
     inkscape:groupmode="layer"
     style="display:inline">
    <path
       inkscape:connector-curvature="0"
       style="fill:url(#linearGradient14964);fill-rule:evenodd"
       id="path209"
       d="m 16.374011,2.4788876 c 1.473389,1.2226229 3.180256,3.5630061 3.51121,6.3490176 l 0.458158,35.5052498 3.932828,-10e-4 0.0748,0 0.01133,0 0.599557,0 0.01133,0 0.0748,0 0.01133,0 0.0748,0 0.01133,0 0.07593,0 4.423573,10e-4 -0.458158,-35.5052498 c 0.330946,-2.7860207 2.375686,-5.1414553 3.849084,-6.3651257 -1.081241,0 -2.16135,0 -3.241459,0 0,0.046134 -0.837567,0.093317 -0.8387,0.1426041 0,0 -1.054046,1.7531871 -1.804333,3.4224971 -0.326412,0.6196977 -1.651336,1.2435919 -1.75334,2.0174253 l 0.431817,0.027268 -0.445418,0.060811 0.42615,0.084936 -0.439751,0.024125 C 25.214473,9.3088287 25.080734,8.6136353 24.929995,7.7800315 l -0.0204,0.1258264 -0.0204,-0.1258264 C 24.733922,8.635656 24.073162,9.3455337 23.912223,8.1522697 l -0.0023,-0.018877 c -0.01247,-0.1447002 -0.03854,-0.3009341 -0.07593,-0.4645102 l -0.0023,-0.010486 C 23.745563,7.2452646 23.615218,6.8730253 23.454278,6.5133734 22.720983,4.7119535 20.789708,2.6714548 20.742102,2.6725024 c -0.0012,-0.049277 -1.126707,-0.1485207 -1.125573,-0.1946562 -1.081241,0 -2.16135,0.00102 -3.242591,0.00102 z"
       class="fil107"
       sodipodi:nodetypes="cccccccccccccccccccccccccccccccccccc" />
    <path
       style="fill:none"
       inkscape:connector-curvature="0"
       id="path211"
       d="m 17.484915,2.5152118 c 1.473388,1.2226228 3.179124,3.563006 3.510068,6.3490176 l 0,16.4120276 m 8.063983,0 0,-16.4120276 c 0.330946,-2.7860208 2.018543,-5.1777795 3.491942,-6.4014499"
       class="fil108" />
    <path
       style="fill:#743f0d;fill-rule:nonzero"
       inkscape:connector-curvature="0"
       id="path213"
       d="m 17.147138,2.2656572 c 0.836433,0.6951941 1.748802,1.7406069 2.453767,3.0156538 0.576889,1.0454138 1.020038,2.2491536 1.173046,3.5462264 l 0.0034,0.035649 -0.121938,35.4699536 -0.728762,0 0.121938,-35.4625849 C 19.903474,7.6731043 19.490925,6.5574422 18.953708,5.5864763 18.294081,4.3921647 17.441782,3.4138667 16.659752,2.764802 l 0.487352,-0.4991143 z m 11.861275,42.0674878 0.121938,-35.4699541 0.0034,-0.035648 C 29.289023,7.5220901 29.732174,6.3005138 30.310193,5.2404246 31.008354,3.9611873 31.910526,2.9084323 32.745824,2.2142857 L 33.228643,2.7134 C 32.454546,3.356167 31.614712,4.3397152 30.958485,5.5424074 30.42013,6.5280558 30.00758,7.6636415 29.859107,8.8715808 l -0.121938,35.4615202 -0.728762,0 z"
       class="fil109"
       sodipodi:nodetypes="cccccccccccccccccccccc" />
    <path
       style="fill:#422306;fill-opacity:0.43921599;fill-rule:evenodd"
       inkscape:connector-curvature="0"
       id="path215"
       d="m 24.888083,5.3294726 c 0.138272,-0.028315 0.327547,-0.033553 0.532688,0.062916 0.695894,0.3240045 1.861007,0.6228435 2.505901,1.4354773 1.032504,1.2991679 0.191541,4.0893801 0.01927,4.3546661 -0.08047,0.124778 -0.527021,0.06186 -0.667559,0.637523 -0.158673,0.653253 -0.15414,1.346354 -0.138272,1.515165 0.017,0.19608 -1.285251,0.201324 -2.292824,0.176158 -1.006441,0.02517 -2.308696,0.01992 -2.291692,-0.176158 0.01586,-0.168817 0.0204,-0.861915 -0.138271,-1.515165 -0.14054,-0.575658 -0.293546,-0.512745 -0.374015,-0.637523 -0.172274,-0.265285 -1.265983,-3.2023018 -0.23461,-4.5014606 0.644892,-0.8126327 1.849675,-0.9646702 2.545572,-1.2886737 0.206275,-0.09647 0.394416,-0.091221 0.533821,-0.062916 z"
       class="fil110" />
    <path
       style="fill:#743f0d;fill-rule:evenodd"
       inkscape:connector-curvature="0"
       id="path217"
       d="m 23.165421,5.4490572 c 0.239143,0.4728992 0.481686,0.9783062 0.695894,1.4774154 C 23.404564,6.5531868 23.100818,6.0404416 23.165421,5.4490572 z M 26.413683,7.54198 c 0.734429,-1.8957913 1.984545,-4.3336967 2.25089,-4.6251904 1.358919,0 2.739371,0.016782 4.098299,0.015734 C 32.593999,3.0080216 32.620066,3.0814195 32.38999,3.1527205 31.647628,2.950348 27.476795,4.7591132 27.167384,7.904791 26.856838,11.049423 26.734433,7.4885134 26.413687,7.5419901 z"
       class="fil111" />
    <path
       style="fill:#743f0d;fill-rule:evenodd"
       inkscape:connector-curvature="0"
       id="path219"
       d="m 16.307301,2.9880428 5.016333,-0.00102 c -0.0012,0.049277 -0.0012,0.099612 0.0012,0.1520405 0,0 0.941837,1.5518652 1.706867,3.1991494 -0.49302,0.3145711 -0.851167,0.8388499 -0.938437,0.1069556 C 22.005984,5.713275 16.432036,3.0740558 16.432036,3.0740558 l -0.12469,-0.085963 z"
       class="fil111" />
    <path
       style="fill:#ba792f;fill-rule:nonzero"
       inkscape:connector-curvature="0"
       id="path225"
       d="m 33.205028,2.7670024 -0.647159,-0.4886282 -0.218742,0 -3.649478,0.092269 0.09294,-0.035648 -0.213074,0.016782 c 0.03741,0.1667199 0.185874,0.3953065 0.179073,0.6196977 l -0.0544,0.098565 3.776413,-0.2296342 0.588223,0.00102 c -0.0238,-0.024125 0.174541,-0.050325 0.146206,-0.07445 z"
       class="fil114" />
    <path
       style="fill:#ba792f;fill-rule:nonzero"
       inkscape:connector-curvature="0"
       id="path227"
       d="m 16.268613,3.0462494 0.625626,-0.7853711 4.49724,0.283111 0,-0.018877 0.09294,0.1048553 C 21.445879,2.7987858 21.294012,3.14481 21.175007,3.2800739 L 16.190408,3.1217418 c 0.0238,-0.025173 0.04987,-0.050325 0.07821,-0.075497 z"
       class="fil114" />
    <polygon
       style="fill:#663300;fill-rule:evenodd"
       id="polygon229"
       points="24.8209,23.1201 23.8016,23.1201 23.8016,45.3189 24.8209,45.3189 "
       class="fil115"
       transform="matrix(0.95959356,0,0,0.8877796,1.985944,-15.265237)" />
    <polygon
       id="_94968328"
       class="fil116"
       points="24.7559,45.4028 22.0228,45.4028 22.0228,44.0929 24.7559,44.0929 "
       style="fill:#c9c9c9;fill-rule:evenodd"
       transform="matrix(0.95959356,0,0,0.8877796,1.985944,-15.265237)" />
    <polygon
       id="_91306768"
       class="fil117"
       points="22.0524,44.074 24.7854,44.074 24.7559,45.4028 24.7252,45.4028 24.7559,44.7378 22.0524,44.7378 "
       style="fill:#ffffff;fill-rule:evenodd"
       transform="matrix(0.95959356,0,0,0.8877796,1.985944,-15.265237)" />
    <path
       style="fill:#542d08;fill-opacity:0.50196078;fill-rule:nonzero"
       inkscape:connector-curvature="0"
       id="path234"
       d="m 28.105792,28.920146 0.05781,0 -0.01473,1.475696 -0.02947,2.850144 -0.01473,1.420009 -0.631291,0 -0.02834,0 -1.044978,0 -0.01247,1.27067 -0.01586,1.420008 -0.630159,0 -0.02947,0 -2.593167,0 -0.648293,0 0,-1.447854 0,-2.80711 0,-1.44279 0,-0.0052 0,-1.440262 0,-2.809637 0,-1.364323 0,-0.08352 0,-1.364321 0,-2.807111 0,-1.447854 0.02947,0 0,-0.04051 0.111071,0 c -0.0374,-0.237936 -0.05667,-0.491058 -0.05781,-0.75177 l -0.0023,-0.0052 0,-0.01007 0,-0.723927 0,-1.447852 0.648293,0 0.07027,0 0.418217,0 0.09634,0.491054 2.555772,-0.06836 0.108805,-0.422711 0.371748,0 0.01927,0 0.648293,0 0,0.617615 0.03173,0 0,1.447854 0,0.384746 0,2.981771 0,0.387276 0,0.04556 0.643759,0 -0.01473,1.475697 -0.02947,2.850142 -0.0136,1.371917 z m -1.914274,-8.251745 -1.416724,0.03798 0,1.037796 0,1.39976 0.334346,0 0.01473,-1.414946 0.632425,0 0.468085,0 0,-0.858081 -0.03287,0 0,-0.202506 z"
       class="fil118" />
    <polygon
       id="_93416120"
       class="fil119"
       points="24.802,45.5091 21.7571,45.5091 21.7571,44.1992 24.802,44.1992 "
       style="fill:url(#linearGradient14078-2);fill-rule:evenodd"
       transform="matrix(0.95959356,0,0,0.8877796,1.985944,-15.265237)" />
    <rect
       id="_93006944"
       class="fil120"
       x="22.881477"
       y="23.697903"
       width="2.9471133"
       height="0.7044993"
       style="fill:#e5e5e5;fill-rule:evenodd" />
    <polygon
       id="_93006896"
       class="fil119"
       points="26.2311,43.872 23.1874,43.872 23.1874,42.561 26.2311,42.561 "
       style="fill:url(#linearGradient14076-4);fill-rule:evenodd"
       transform="matrix(0.95959356,0,0,0.8877796,1.985944,-15.265237)" />
    <rect
       id="_93830408"
       class="fil120"
       x="24.25322"
       y="22.24354"
       width="2.9471133"
       height="0.7044993"
       style="fill:#e5e5e5;fill-rule:evenodd" />
    <polygon
       id="_120420624"
       class="fil119"
       points="24.802,42.2858 21.7571,42.2858 21.7571,40.976 24.802,40.976 "
       style="fill:url(#linearGradient14074-5);fill-rule:evenodd"
       transform="matrix(0.95959356,0,0,0.8877796,1.985944,-15.265237)" />
    <rect
       id="_120420576"
       class="fil120"
       x="22.881477"
       y="20.83614"
       width="2.9471133"
       height="0.7044993"
       style="fill:#e5e5e5;fill-rule:evenodd" />
    <polygon
       id="_119802704"
       class="fil119"
       points="26.2311,40.6476 23.1874,40.6476 23.1874,39.3378 26.2311,39.3378 "
       style="fill:url(#linearGradient14072-4);fill-rule:evenodd"
       transform="matrix(0.95959356,0,0,0.8877796,1.985944,-15.265237)" />
    <rect
       id="_119802656"
       class="fil120"
       x="24.25322"
       y="19.381868"
       width="2.9471133"
       height="0.7044993"
       style="fill:#e5e5e5;fill-rule:evenodd" />
    <path
       style="fill:#ffffff;fill-rule:evenodd"
       inkscape:connector-curvature="0"
       id="path248"
       d="m 24.291984,15.106235 c 0.03854,0.09437 0.07593,0.188741 0.114471,0.284159 0,0.0073 0,0.01468 0,0.02202 0.136005,0 0.272011,0 0.408016,0 0,-0.0073 0,-0.01468 0,-0.02202 0,-0.04718 0,-0.09437 0,-0.141555 0.200608,0 0.402349,0 0.604091,0 0,0.04718 0,0.09437 0,0.141555 0,0.26948 0,0.53896 0,0.80844 0,0.04718 0,0.09542 0,0.142604 -0.0034,0 -0.0057,0 -0.009,0 0,-0.04718 0,-0.09542 0,-0.142604 0,-0.207615 0,-0.414181 0,-0.621796 -0.200608,0 -0.402349,0 -0.604091,0 0,0.0063 0,0.01363 0,0.02097 0,0.04823 0,0.09542 0,0.142604 -0.136005,0 -0.272012,0 -0.406883,0 0,-0.0083 0,-0.01469 0,-0.02202 -0.03854,-0.09542 -0.07707,-0.189789 -0.114471,-0.284159 -0.421617,0 -0.843234,0 -1.26485,0 0,-0.04718 0,-0.09437 0,-0.141556 0,-0.01573 0,-0.03041 0,-0.04509 0,-0.04718 0,-0.09437 0,-0.141556 0.423883,0 0.8489,0 1.272786,0 z m 0.522487,0.328199 c -0.0023,0 -0.0057,0 -0.009,0 0,0.03985 0,0.07969 0,0.119536 0.0034,0 0.0068,0 0.009,0 0,-0.03984 0,-0.07969 0,-0.119536 z"
       class="fil117" />
    <path
       style="fill:#666666;fill-rule:nonzero"
       inkscape:connector-curvature="0"
       id="path250"
       d="m 24.45521,13.337334 0.0816,0.201324 0.106538,0 0,-0.0032 0,-0.16043 0.172274,0 0.604091,0 0.173407,0 0,0.16043 0,0.951042 0,0.160431 -0.173407,0 -0.604091,0 -0.172274,0 0,-0.160431 0,-0.0042 -0.112204,0 -0.07367,0.198177 -0.0408,0.108003 -0.122405,0 -1.272785,0 -0.173408,0 0,-0.160431 0,-1.235203 0,-0.159382 0.173408,0 1.272785,0 0.119005,0 0.04193,0.103808 z m -0.219875,0.365948 -0.0612,-0.149945 -0.980369,0 0,0.914343 0.978104,0 0.07367,-0.19713 0.03967,-0.10905 0.123538,0 0.406883,0 0.173407,0 0,0.16043 0,0.0042 0.25841,0 0,-0.630185 -0.25841,0 0,0.0032 0,0.16043 -0.173407,0 -0.406883,0 -0.173407,0 0,-0.156235 z"
       class="fil121" />
    <polygon
       style="fill:#b2b2b2;fill-rule:evenodd"
       id="polygon252"
       points="23.2476,32.2807 23.3669,32.6008 23.3669,32.6256 23.7909,32.6256 23.7909,32.4413 24.4205,32.4413 24.4205,33.5126 23.7909,33.5126 23.7909,33.3272 23.3669,33.3272 23.2476,33.672 21.9213,33.672 21.9213,32.2807 "
       class="fil122"
       transform="matrix(0.95959356,0,0,0.8877796,1.985944,-15.265237)" />
    <path
       style="fill:#ffffff;fill-rule:evenodd"
       inkscape:connector-curvature="0"
       id="path254"
       d="m 24.285171,13.401344 0.11447,0.284159 0,0.02202 0.408017,0 0,-0.02202 0,-0.141555 0.602956,0 0,0.141555 0,0.808439 0,0.142604 -0.008,0 0,-0.142604 0,-0.621796 -0.604091,0 0,0.02097 0,0.142604 -0.408016,0 0,-0.02202 -0.114471,-0.28416 -1.263718,0 0,-0.141555 0,-0.04509 0,-0.141555 1.272786,0 z m 0.522487,0.328197 -0.009,0 0,0.119537 0.009,0 0,-0.119537 z"
       class="fil117" />
    <path
       style="fill:#666666;fill-rule:evenodd"
       inkscape:connector-curvature="0"
       id="path256"
       d="m 25.264436,18.78981 c -0.02607,0.06711 -0.05327,0.134215 -0.08047,0.201324 -0.03513,0 -0.0714,0 -0.106538,0 0,-10e-4 0,-0.0021 0,-0.0032 0,-0.05348 0,-0.106952 0,-0.16043 -0.05781,0 -0.115604,0 -0.173407,0 -0.200608,0 -0.402349,0 -0.604091,0 -0.05781,0 -0.115604,0 -0.173407,0 0,0.05348 0,0.106952 0,0.16043 0,0.316664 0,0.63333 0,0.951043 0,0.05243 0,0.105903 0,0.159381 0.05781,0 0.115604,0 0.173407,0 0.201741,0 0.403482,0 0.604091,0 0.05781,0 0.115604,0 0.173407,0 0,-0.05348 0,-0.106952 0,-0.159381 0,-0.0021 0,-0.0032 0,-0.0042 0.0374,0 0.0748,0 0.112205,0 0.02493,0.06606 0.04874,0.131069 0.07367,0.198177 0.0136,0.03565 0.0272,0.07131 0.0408,0.108002 0.0408,0 0.0816,0 0.122404,0 0.423884,0 0.848901,0 1.272786,0 0.05781,0 0.115604,0 0.173407,0 0,-0.05348 0,-0.106954 0,-0.160431 0,-0.411034 0,-0.823117 0,-1.235203 0,-0.05348 0,-0.106952 0,-0.16043 -0.05781,0 -0.115604,0 -0.173407,0 -0.423883,0 -0.848901,0 -1.272786,0 -0.03967,0 -0.07934,0 -0.119005,0 -0.0136,0.03566 -0.02834,0.07025 -0.04307,0.104856 z m 0.221009,0.365948 c 0.0204,-0.05033 0.03967,-0.09961 0.06007,-0.149945 0.327547,0 0.653959,0 0.980369,0 0,0.305131 0,0.609212 0,0.914342 -0.325279,0 -0.651693,0 -0.976972,0 -0.02493,-0.06606 -0.04874,-0.132118 -0.07367,-0.197129 -0.0136,-0.0367 -0.0272,-0.07235 -0.0408,-0.109049 -0.0408,0 -0.0816,0 -0.122405,0 -0.136005,0 -0.272011,0 -0.408016,0 -0.05781,0 -0.115604,0 -0.173407,0 0,0.05348 0,0.106952 0,0.160429 0,0.001 0,0.0021 0,0.0042 -0.08613,0 -0.17114,0 -0.257277,0 0,-0.21076 0,-0.420471 0,-0.630184 0.08613,0 0.17114,0 0.257277,0 0,0.001 0,0.0021 0,0.0032 0,0.05348 0,0.106953 0,0.16043 0.05781,0 0.115604,0 0.173407,0 0.136005,0 0.272011,0 0.408016,0 0.05781,0 0.115605,0 0.173408,0 0,-0.05243 0,-0.104856 0,-0.156236 z"
       class="fil123" />
    <path
       style="fill:#b2b2b2;fill-rule:evenodd"
       inkscape:connector-curvature="0"
       id="path258"
       d="m 25.426511,18.845385 c -0.03854,0.09437 -0.07593,0.189789 -0.114471,0.28416 0,0.0073 0,0.01468 0,0.02202 -0.136005,0 -0.272011,0 -0.408016,0 0,-0.05453 0,-0.109049 0,-0.163575 -0.200608,0 -0.402349,0 -0.604091,0 0,0.316665 0,0.63333 0,0.951044 0.201741,0 0.403482,0 0.604091,0 0,-0.05557 0,-0.1101 0,-0.164624 0.136005,0 0.272011,0 0.408016,0 0.03854,0.10171 0.07593,0.204469 0.114471,0.306179 0.423883,0 0.848901,0 1.272786,0 0,-0.411034 0,-0.823118 0,-1.235203 -0.423883,0 -0.848901,0 -1.272786,0 z"
       class="fil122" />
    <path
       style="fill:#ffffff;fill-rule:evenodd"
       inkscape:connector-curvature="0"
       id="path260"
       d="m 25.43438,18.852754 c -0.0374,0.09542 -0.07593,0.189789 -0.114471,0.284159 0,0.0073 0,0.01468 0,0.02202 -0.134872,0 -0.270877,0 -0.406883,0 0,-0.0073 0,-0.01468 0,-0.02202 0,-0.04718 0,-0.09437 0,-0.141555 -0.201741,0 -0.403482,0 -0.604091,0 0,0.04718 0,0.09437 0,0.141555 0,0.26948 0,0.53896 0,0.809487 0,0.04718 0,0.09437 0,0.141556 0.0023,0 0.0057,0 0.008,0 0,-0.04718 0,-0.09436 0,-0.141556 0,-0.207614 0,-0.415229 0,-0.622843 0.201742,0 0.403483,0 0.604091,0 0,0.0073 0,0.01468 0,0.02202 0,0.04718 0,0.09437 0,0.141555 0.136006,0 0.272012,0 0.408017,0 0,-0.0073 0,-0.01468 0,-0.02202 0.03854,-0.09437 0.07593,-0.18874 0.114471,-0.284159 0.421616,0 0.843233,0 1.26485,0 0,-0.04718 0,-0.09437 0,-0.141556 0,-0.01469 0,-0.02936 0,-0.04404 0,-0.04718 0,-0.09437 0,-0.142603 -0.425017,0 -0.848901,0 -1.273918,0 z m -0.521354,0.329247 c 0.0023,0 0.0057,0 0.008,0 0,0.03984 0,0.07969 0,0.118488 -0.0023,0 -0.0057,0 -0.008,0 0,-0.0388 0,-0.07864 0,-0.118488 z"
       class="fil117" />
    <path
       style="fill:#666666;fill-rule:nonzero"
       inkscape:connector-curvature="0"
       id="path262"
       d="m 25.279118,13.694931 -0.0816,0.201324 -0.106538,0 0,-0.0032 0,-0.160429 -0.173407,0 -0.604091,0 -0.173408,0 0,0.160429 0,0.949995 0,0.160431 0.173408,0 0.604091,0 0.173407,0 0,-0.160431 0,-0.0032 0.112204,0 0.07367,0.19713 0.0408,0.10905 0.122405,0 1.272786,0 0.173407,0 0,-0.16043 0,-1.235203 0,-0.16043 -0.173407,0 -1.272786,0 -0.119005,0 -0.04193,0.104856 z m 0.219875,0.365948 0.06007,-0.149944 0.980368,0 0,0.914342 -0.976971,0 -0.07367,-0.197129 -0.0408,-0.10905 -0.122405,0 -0.408016,0 -0.173408,0 0,0.160429 0,0.0042 -0.257276,0 0,-0.630185 0.257276,0 0,0.0032 0,0.160431 0.173408,0 0.408016,0 0.173407,0 0,-0.156235 z"
       class="fil121" />
    <polygon
       style="fill:#b2b2b2;fill-rule:evenodd"
       id="polygon264"
       points="24.4417,32.6835 24.3224,33.0035 24.3224,33.0283 23.8972,33.0283 23.8972,32.8441 23.2677,32.8441 23.2677,33.9142 23.8972,33.9142 23.8972,33.7299 24.3224,33.7299 24.4417,34.0748 25.7681,34.0748 25.7681,32.6835 "
       class="fil122"
       transform="matrix(0.95959356,0,0,0.8877796,1.985944,-15.265237)" />
    <path
       style="fill:#ffffff;fill-rule:evenodd"
       inkscape:connector-curvature="0"
       id="path266"
       d="m 25.449158,13.758852 -0.114471,0.283112 0,0.02202 -0.408017,0 0,-0.02202 0,-0.141556 -0.604091,0 0,0.141556 0,0.809486 0,0.141556 0.009,0 0,-0.141556 0,-0.622844 0.604092,0 0,0.02202 0,0.141555 0.408016,0 0,-0.02202 0.114471,-0.283112 1.263717,0 0,-0.142604 0,-0.04404 0,-0.141555 -1.272785,0 z m -0.522488,0.328198 0.009,0 0,0.119536 -0.009,0 0,-0.119536 z"
       class="fil117" />
    <path
       style="fill:#ffffff;fill-rule:evenodd"
       inkscape:connector-curvature="0"
       id="path268"
       d="m 24.937982,4.1246669 c 0.133739,-0.028315 0.315079,-0.032506 0.51342,0.059763 0.668693,0.3114223 1.483589,1.1293001 2.103554,1.9094282 0.992843,1.2498784 0.386482,1.862242 0.221009,2.1170437 -0.07821,0.1195358 -0.366081,0.5410564 -0.500953,1.0936469 -0.153007,0.628087 -0.147339,1.2939213 -0.133739,1.4564463 0.017,0.187692 -1.234248,0.192936 -2.203284,0.168819 -0.967904,0.02413 -2.220289,0.01888 -2.203285,-0.168819 0.01473,-0.162526 0.01927,-0.8283603 -0.132605,-1.4564463 C 22.467227,8.7519585 22.178216,8.3304409 22.101146,8.2109021 21.935673,7.9561014 21.329315,7.3437429 22.322155,6.0938584 22.942113,5.3137303 23.757016,4.4958545 24.425709,4.1844302 24.62405,4.0921612 24.80539,4.0963512 24.937995,4.1246672 z"
       class="fil117" />
    <path
       style="fill:#7f7f7f;fill-rule:nonzero"
       inkscape:connector-curvature="0"
       id="path270"
       d="m 24.947098,3.1013236 c 0.07934,-0.00946 0.16774,-0.012581 0.261811,-0.00529 l 0,-0.00214 c 0.141672,0.00946 0.299212,0.049277 0.457884,0.1226816 0.355881,0.1656724 0.740096,0.4477347 1.110711,0.7843225 0.412549,0.3753841 0.820565,0.825216 1.163977,1.2582672 l -0.0012,0.00102 c 0.289012,0.3628008 0.462419,0.6868053 0.554222,0.9699163 l -0.0012,0 c 0.08727,0.2673829 0.107671,0.5054049 0.08954,0.708826 0.226675,0.7759337 -0.103137,1.2446405 -0.287878,1.5067753 l -0.04987,0.071297 -0.0023,0.00529 -0.009,0.012581 c -0.08841,0.1331667 -0.316213,0.4917741 -0.423883,0.9321692 -0.051,0.211809 -0.085,0.444588 -0.10427,0.6553493 -0.02947,0.324005 -0.02493,0.582999 -0.01814,0.666883 l 0.0023,0.0367 0,0.0053 -0.0023,0.01258 c -0.008,0.258994 -0.185874,0.423618 -0.490752,0.503308 l 0,10e-4 c -0.120138,0.03146 -0.281078,0.05557 -0.463552,0.07025 -0.454485,0.0367 -1.139047,0.03251 -1.726136,0.01888 -0.58709,0.01469 -1.272786,0.01783 -1.727268,-0.01888 -0.181341,-0.01469 -0.343414,-0.0388 -0.464685,-0.07025 l 0,-10e-4 c -0.307146,-0.07969 -0.491886,-0.236973 -0.491886,-0.51589 l 0,-0.0053 0.0023,-0.02936 0.0057,-0.217053 -0.0057,-0.141555 c -0.05553,-0.08598 -0.07821,-0.182449 -0.06914,-0.287305 l 0.0023,-0.0053 0.0034,-0.1803533 0.0023,0 -0.008,-0.234877 -0.05327,-0.263188 C 22.093258,9.0151684 21.854115,8.6513179 21.772512,8.5254915 l -0.01247,-0.018877 0.0012,0 -0.0408,-0.059763 c -0.15754,-0.2222942 -0.417084,-0.5924352 -0.358148,-1.1775331 -0.07027,-0.2180995 -0.103137,-0.486531 -0.0408,-0.8042449 0.06686,-0.3407812 0.248209,-0.743428 0.61429,-1.2058442 0.343414,-0.4330542 0.75143,-0.8828862 1.163978,-1.2582682 0.370614,-0.3365868 0.754829,-0.6186491 1.11071,-0.7843215 0.158672,-0.073402 0.317346,-0.1132452 0.461285,-0.1226816 l 0,0.00102 c 0.102004,-0.00732 0.194942,-0.00417 0.275411,0.00631 z m 0.18134,0.875546 c -0.02947,-0.00214 -0.0612,0.00102 -0.08613,0.00631 l -0.206275,0.00214 c -0.02947,-0.00529 -0.06234,-0.00946 -0.08613,-0.00834 l -0.008,0.00214 c -0.02834,0.00214 -0.0646,0.011534 -0.10087,0.028315 -0.261811,0.1216331 -0.565556,0.3481214 -0.870435,0.6249408 -0.369481,0.3365877 -0.743496,0.7486709 -1.061973,1.1513177 -0.273144,0.3449756 -0.403482,0.6217949 -0.44655,0.8409441 -0.03627,0.1834976 -0.008,0.3302951 0.0374,0.4414421 l 0.0272,0.2243922 c -0.05213,0.3208586 0.100871,0.5410564 0.191541,0.6679314 l 0.0057,0.00834 0.04987,0.073402 0.0045,0.00529 0.01247,0.018877 0.0012,0.00315 c 0.09974,0.1541377 0.398949,0.6092116 0.545155,1.2047968 0.02947,0.124779 0.05553,0.241169 0.0714,0.339733 l 0.0034,0.05348 0.009,0.287305 0.0012,0.0053 0.04533,0.02097 0.009,0.2642383 0.0102,0.283111 0.0748,0.0073 c 0.437484,0.03565 1.084638,0.03251 1.630934,0.01888 l 0.02493,0 c 0.548555,0.01258 1.195711,0.01678 1.634331,-0.01888 l 0.07254,-0.0073 c 0.0012,-0.136313 0.009,-0.300936 0.02494,-0.477095 0.0204,-0.2338293 0.06234,-0.5043563 0.126938,-0.7748853 l 0,-0.0021 c 0.147339,-0.6050583 0.452218,-1.0664228 0.549689,-1.214274 l 0.0102,-0.015734 0.009,-0.012581 0.0012,0.00102 0.04647,-0.067107 C 27.598017,7.8136954 27.789558,7.5410715 27.639952,7.105919 l -0.01927,-0.1971285 c 0.01814,-0.1142928 0.01133,-0.2568969 -0.04307,-0.4236178 l -0.0012,-0.00102 C 27.513132,6.2891002 27.38733,6.0552716 27.170854,5.7847439 l -0.0023,-0.00102 C 26.850075,5.38108 26.47606,4.9689958 26.106582,4.632409 25.801702,4.3555897 25.497957,4.1291013 25.236147,4.0074683 c -0.03627,-0.016782 -0.07367,-0.02622 -0.102004,-0.028315 l -0.0057,-0.00214 z"
       class="fil124" />
    <path
       inkscape:connector-curvature="0"
       style="fill:url(#linearGradient13788-7);fill-rule:evenodd"
       id="path272"
       d="m 25.006017,4.7632476 c 0.133739,-0.028315 0.315079,-0.032506 0.51342,0.059763 0.668693,0.3114223 1.483589,1.1282525 2.103554,1.9094282 0.992843,1.2498784 0.386482,1.862242 0.221008,2.1170437 -0.07821,0.1195358 -0.36608,0.5400082 -0.500952,1.0936472 -0.153006,0.6270383 -0.148472,1.2939213 -0.133739,1.4564473 0.017,0.187691 -1.234248,0.192934 -2.203284,0.168817 -0.967904,0.02412 -2.220288,0.01888 -2.203284,-0.168817 0.01473,-0.162527 0.01927,-0.82941 -0.133739,-1.4564473 -0.134872,-0.553639 -0.42275,-0.9741083 -0.49982,-1.0936472 -0.165473,-0.2547997 -0.771831,-0.8671582 0.219876,-2.1170437 0.621091,-0.7811757 1.435993,-1.5980039 2.104686,-1.9094282 0.197208,-0.092269 0.379681,-0.088079 0.512287,-0.059763 z"
       class="fil125" />
    <path
       style="fill:#422306;fill-opacity:0.67843095;fill-rule:evenodd"
       inkscape:connector-curvature="0"
       id="path274"
       d="m 22.649735,11.177278 3.724279,0 c 0.392148,0 1.686466,-0.854575 1.734071,-0.530571 l 0.725363,11.341207 c 0.0204,0.321907 -0.485086,0.742378 -0.872702,0.740282 l -6.626866,0.0346 c -0.386482,10e-4 -0.746896,-0.270528 -0.711761,-0.597678 l 1.229719,-11.374761 c 0.03513,-0.326101 0.406883,0.386919 0.797898,0.386919 z"
       class="fil126" />
    <path
       inkscape:connector-curvature="0"
       style="fill:url(#linearGradient13784-8);fill-rule:nonzero"
       id="path276"
       d="m 22.759609,8.6376952 4.477981,0 c 0.425017,0 0.808099,0.1635752 1.084638,0.4215197 0.278811,0.2600428 0.449952,0.6196978 0.449952,1.0045241 l 0,9.503058 c 0,0.387968 -0.174541,0.743429 -0.446551,1.000324 l -0.0034,0.0032 c -0.276544,0.257946 -0.661892,0.421521 -1.084637,0.421521 l -4.477982,0 c -0.421617,0 -0.808099,-0.161479 -1.084638,-0.417327 l 0,-0.0042 c -0.276545,-0.257946 -0.448819,-0.614456 -0.448819,-1.003467 l 0,-9.503059 c 0,-0.3869183 0.172274,-0.7455253 0.448819,-1.0045236 0.276544,-0.2579444 0.659626,-0.4215196 1.084638,-0.4215196 z m 4.094892,1.7741658 -3.710681,0 0,4.001302 0.113338,-0.0052 3.521411,0 -0.360415,0.0021 0.43635,-3.998151 z m -0.672093,6.106805 -2.356292,0 -0.09634,1.612687 2.58977,-0.0095 -0.137138,-1.60325 z"
       class="fil127" />
    <path
       inkscape:connector-curvature="0"
       style="fill:url(#linearGradient13781-3);fill-rule:evenodd"
       id="path278"
       d="m 22.759609,9.5247647 4.477981,0 c 0.317347,0 0.576889,0.24746 0.575756,0.5389593 l -0.03627,9.604799 c -0.0012,0.289402 -0.262944,0.537911 -0.575757,0.537911 l -4.477981,0 c -0.310546,0 -0.575756,-0.242218 -0.574623,-0.537911 l 0.03626,-9.604799 c 0.0012,-0.2967423 0.258419,-0.5389593 0.574632,-0.5389593 z m 0.861367,6.6132573 2.756375,-0.03355 c 0.197208,-0.0032 0.340014,0.160429 0.358147,0.35651 l 0.191541,2.319413 c 0.01587,0.191886 -0.163207,0.356509 -0.358147,0.357558 l -3.140587,0.04928 c -0.194941,0.001 -0.372881,-0.16043 -0.358147,-0.355462 l 0.193808,-2.33724 c 0.01586,-0.195031 0.16094,-0.354413 0.357014,-0.356509 z"
       class="fil128" />
    <polygon
       style="fill:#7f7f7f;fill-opacity:0.50196078;fill-rule:evenodd"
       id="polygon280"
       points="22.2957,31.1776 25.5154,31.1776 25.5154,33.1134 22.2957,33.1134 "
       class="fil129"
       transform="matrix(0.95959356,0,0,0.8877796,1.985944,-15.265237)" />
    <path
       style="fill:#ffffff;fill-rule:evenodd"
       inkscape:connector-curvature="0"
       id="path282"
       d="m 26.821664,18.571772 c -0.06347,0.07025 -0.17794,0.11639 -0.304879,0.117438 l -2.924112,0.02202 c -0.141672,0.001 -0.26521,-0.05662 -0.323013,-0.139459 l -0.07027,0 0,0.181401 -0.02834,0 0,0.205517 0.0012,0.01258 -0.0012,0 0,0.205517 c 0,0.134215 0.162073,0.246411 0.35928,0.245362 l 2.924112,-0.02202 c 0.196075,-0.0021 0.357014,-0.110098 0.357014,-0.245362 l 0,-0.08598 c 0.01814,-0.02936 0.02834,-0.06081 0.02834,-0.09437 l 0,-0.183497 -0.0034,0 0.0034,-0.0346 0,-0.184547 -0.01814,0 z"
       class="fil117" />
    <path
       style="fill:#ffffff;fill-rule:evenodd"
       inkscape:connector-curvature="0"
       id="path284"
       d="m 23.444183,9.5258297 3.00799,0 c 0.317346,0 0.575756,0.242217 0.575756,0.5379113 0,12.407608 -0.03513,10.410103 -0.03513,0.454026 0,-0.295694 -0.25841,-0.5379123 -0.574623,-0.5379123 l -3.009122,0 c -0.247076,0 -0.460152,0.1488963 -0.540622,0.3544133 l 0,-0.270527 c 0,-0.2956943 0.259544,-0.5379113 0.575757,-0.5379113 z"
       class="fil117" />
    <path
       style="fill:#ffffff;fill-rule:evenodd"
       inkscape:connector-curvature="0"
       id="path286"
       d="m 23.040674,9.7618017 0.404616,0 c -0.309412,0.0083 -0.557622,0.2474603 -0.559889,0.5389593 l -0.06914,9.19793 c -0.0023,0.272625 0.221009,0.503308 0.50322,0.534765 l -0.347947,0.0042 c -0.315078,0.0021 -0.823965,-0.242216 -0.820565,-0.538957 l 0.06914,-9.197929 c 0.0023,-0.296743 0.504354,-0.5389613 0.820566,-0.5389613 z m 0.921436,9.1686333 c 0.0204,0.0042 0.04307,0.0053 0.0646,0.0053 3.697083,-0.05557 2.845914,-0.04928 -0.0646,-0.0053 z"
       class="fil117" />
    <rect
       style="fill:#ffffff;fill-rule:evenodd"
       id="rect288"
       height="0.53987384"
       width="4.4869633"
       y="9.5977421"
       x="22.720074"
       class="fil117" />
    <path
       style="fill:#ffffff;fill-rule:evenodd"
       inkscape:connector-curvature="0"
       id="path290"
       d="m 26.936144,9.9976847 -0.404617,0 c 0.309413,0.0073 0.558755,0.2464123 0.561023,0.5379113 l 0.06914,8.873951 c 0.0023,0.273675 -0.221008,0.503309 -0.503219,0.534765 l 0.347947,0.0042 c 0.313945,0.0032 0.774097,-0.242217 0.770697,-0.538959 l -0.06914,-8.873952 C 27.705675,10.239907 27.25349,9.9976887 26.936144,9.9976887 z M 26.154112,18.84123 c -0.0204,0.0032 0.153007,0.0053 0.131472,0.0053 -3.695941,-0.05557 -3.041988,-0.04928 -0.131472,-0.0053 z"
       class="fil117" />
    <path
       inkscape:connector-curvature="0"
       mask="url(#id0-5-1)"
       id="path292"
       d="m 23.5098,24.9697 c 0.43937,-0.05906 0.382677,-0.11811 0.822047,-0.175984 0.309449,-0.04016 0.506693,0.162992 0.566929,0.330709 0.822047,2.27953 0.896457,3.98268 0.297638,5.60315 -0.06142,0.168898 -0.256299,0.304724 -0.565748,0.330709 -0.41811,0.03543 -0.835039,0.07087 -1.25315,0.105118 -0.309449,0.02598 -0.324803,-0.190157 -0.367323,-0.364961 -0.455906,-1.83307 -0.765354,-3.66496 -0.06614,-5.49803 0.06378,-0.167717 0.25748,-0.28937 0.565748,-0.330709 z"
       style="fill:#4c4c4c;fill-rule:evenodd"
       class="fil130"
       transform="matrix(0.95959356,0,0,0.8877796,1.985944,-15.265237)" />
    <path
       inkscape:connector-curvature="0"
       style="fill:url(#linearGradient13771-8);fill-rule:evenodd"
       id="path294"
       d="m 24.267034,6.7461025 1.549331,0 c 0.165473,0 0.299212,0.1352639 0.299212,0.293597 l 0,5.0676865 c 0,0.160429 -0.136005,0.294645 -0.299212,0.294645 l -1.549331,0 c -0.162073,0 -0.299212,-0.132118 -0.299212,-0.294645 l 0,-5.0676865 c 0,-0.1614779 0.133739,-0.293597 0.299212,-0.293597 z"
       class="fil131" />
    <polygon
       style="fill:#ffffff;fill-rule:evenodd"
       id="polygon296"
       points="25.0382,24.9 25.0382,26.8476 22.9961,26.8476 22.9961,24.9 "
       class="fil117"
       transform="matrix(0.95959356,0,0,0.8877796,1.985944,-15.265237)" />
    <polygon
       style="fill:#666666;fill-rule:evenodd"
       id="polygon298"
       points="25.0335,27.985 25.0335,26.915 22.9925,26.915 22.9925,27.985 "
       class="fil123"
       transform="matrix(0.95959356,0,0,0.8877796,1.985944,-15.265237)" />
    <polygon
       style="fill:#cccccc;fill-rule:evenodd"
       id="polygon300"
       points="25.0205,30.9354 25.0205,29.9492 22.9795,29.9492 22.9795,30.9354 "
       class="fil132"
       transform="matrix(0.95959356,0,0,0.8877796,1.985944,-15.265237)" />
    <path
       inkscape:connector-curvature="0"
       style="fill:url(#linearGradient13765-8);fill-rule:nonzero"
       id="path302"
       d="m 23.976853,6.0792023 2.167021,0 c 0.188141,0 0.355881,0.075497 0.476019,0.1939837 0.115604,0.1142928 0.188141,0.2694791 0.188141,0.4372497 l -0.04987,5.7377113 c 0,0.168817 -0.07367,0.325053 -0.188141,0.438297 l -0.0012,-10e-4 c -0.122405,0.119536 -0.290145,0.195031 -0.473753,0.195031 l -2.168153,0 c -0.184741,0 -0.352481,-0.0755 -0.473753,-0.192935 l -0.0023,-10e-4 c -0.11447,-0.112195 -0.187007,-0.267383 -0.187007,-0.438298 l 0.04874,-5.7377103 c 0,-0.1698678 0.07253,-0.3250541 0.18814,-0.4372497 0.119005,-0.1184872 0.287879,-0.1939836 0.476019,-0.1939836 z m 2.102412,0.6742241 -2.037812,0 -0.04874,5.4839656 2.03668,0 0.04987,-5.4839656 z"
       class="fil133" />
    <g
       id="g14743"
       transform="matrix(0,1,-1,0,34.68821,-13.649587)">
      <path
         class="fil134"
         d="m 34.831536,22.093973 c -0.01473,-0.534765 -0.0068,-1.019197 0,-1.548722 l -2.208956,-0.01783 c -0.008,0.523232 -0.01586,1.007666 -0.0023,1.547675 l -0.99624,0.01888 1.017773,0.846187 1.016642,0.732943 1.016641,-0.732943 1.017774,-0.846187 -0.861368,0 z"
         id="path304"
         inkscape:connector-curvature="0"
         style="fill:#4d1700;fill-opacity:0.21960802;fill-rule:evenodd" />
      <path
         class="fil136"
         d="m 31.599145,19.673136 4.046165,0 c 0.234609,0 0.44655,0.08763 0.601823,0.22681 l 0.0057,0.0052 c 0.154139,0.142272 0.249343,0.33506 0.249343,0.547437 l 0,3.770201 c 0,0.211346 -0.09634,0.40929 -0.25161,0.550531 l -0.0034,0.0021 c -0.155273,0.139179 -0.367215,0.226811 -0.601824,0.226811 l -4.046165,0 c -0.233475,0 -0.445417,-0.0866 -0.601823,-0.226811 l -0.0034,-0.0021 c -0.15535,-0.141236 -0.251688,-0.33918 -0.251688,-0.550526 l 0,-3.770201 c 0,-0.212376 0.0952,-0.405165 0.249344,-0.547437 l 0.0057,-0.0052 c 0.15641,-0.140215 0.368352,-0.226815 0.601828,-0.226815 z m 3.941886,0.874245 -3.837617,0 0,3.580508 3.837617,0 0,-3.580508 z"
         id="path308"
         inkscape:connector-curvature="0"
         style="fill:#4d1700;fill-opacity:0.21960802;fill-rule:nonzero" />
      <path
         class="fil136"
         d="m 38.397098,19.673136 4.046164,0 c 0.234609,0 0.446551,0.08763 0.601824,0.22681 l 0.0057,0.0052 c 0.15414,0.142272 0.249344,0.33506 0.249344,0.547437 l 0,3.770201 c 0,0.211346 -0.09634,0.40929 -0.25161,0.550531 l -0.0034,0.0021 c -0.155273,0.139179 -0.367214,0.226811 -0.601823,0.226811 l -4.046165,0 c -0.233476,0 -0.445417,-0.0866 -0.601823,-0.226811 l -0.0034,-0.0021 c -0.155351,-0.141236 -0.251688,-0.33918 -0.251688,-0.550526 l 0,-3.770201 c 0,-0.212376 0.0952,-0.405165 0.249344,-0.547437 l 0.0057,-0.0052 c 0.156411,-0.140215 0.368353,-0.226815 0.601829,-0.226815 z m 3.941885,0.874245 -3.837616,0 0,3.580508 3.837616,0 0,-3.580508 z"
         id="path310"
         inkscape:connector-curvature="0"
         style="fill:#4d1700;fill-opacity:0.21960802;fill-rule:nonzero" />
      <polygon
         transform="matrix(0.95959356,0,0,0.87287524,2.0134353,-14.282409)"
         style="fill:#4d1700;fill-opacity:0.21960802;fill-rule:evenodd"
         points="40.9134,44.1933 40.9134,43.1126 41.4378,43.1126 40.7811,42.6177 40.1232,42.1228 39.4665,42.6177 38.8087,43.1126 39.3484,43.1126 39.3484,44.1933 "
         class="fil134"
         id="_91755352" />
      <polygon
         transform="matrix(0.95959356,0,0,0.87287524,2.0134353,-14.282409)"
         style="fill:#4d1700;fill-opacity:0.21960802;fill-rule:evenodd"
         points="38.8087,40.872 39.3484,40.872 39.3484,39.9248 40.9122,39.9248 40.9122,40.872 41.4378,40.872 40.7811,41.2843 40.1232,41.6965 39.4665,41.2843 "
         class="fil134"
         id="_46045432" />
      <polygon
         transform="matrix(0.95959356,0,0,0.87287524,2.0134353,-14.282409)"
         style="fill:#4d1700;fill-opacity:0.21960802;fill-rule:evenodd"
         points="41.7496,41.7177 41.7496,42.0591 38.4697,42.0591 38.4697,41.7177 "
         class="fil134"
         id="_95302136" />
    </g>
    <polygon
       id="_94968328-2"
       class="fil116"
       points="24.7559,44.0929 24.7559,45.4028 22.0228,45.4028 22.0228,44.0929 "
       style="fill:#c9c9c9;fill-rule:evenodd"
       transform="matrix(0.95959356,0,0,0.8877796,1.7171183,-12.287297)" />
    <polygon
       id="_91306768-0"
       class="fil117"
       points="24.7854,44.074 24.7559,45.4028 24.7252,45.4028 24.7559,44.7378 22.0524,44.7378 22.0524,44.074 "
       style="fill:#ffffff;fill-rule:evenodd"
       transform="matrix(0.95959356,0,0,0.8877796,1.7171183,-12.287297)" />
    <polygon
       id="_93416120-6"
       class="fil119"
       points="24.802,44.1992 24.802,45.5091 21.7571,45.5091 21.7571,44.1992 "
       style="fill:url(#linearGradient14078-2-9);fill-rule:evenodd"
       transform="matrix(0.95959356,0,0,0.8877796,1.7171183,-12.287297)" />
    <rect
       id="_93006944-2"
       class="fil120"
       x="22.612652"
       y="26.675842"
       width="2.9471133"
       height="0.7044993"
       style="fill:#e5e5e5;fill-rule:evenodd" />
    <polygon
       id="_93006896-5"
       class="fil119"
       points="26.2311,42.561 26.2311,43.872 23.1874,43.872 23.1874,42.561 "
       style="fill:url(#linearGradient14076-4-6);fill-rule:evenodd"
       transform="matrix(0.95959356,0,0,0.8877796,1.7171183,-12.287297)" />
    <rect
       id="_93830408-7"
       class="fil120"
       x="23.984394"
       y="25.221479"
       width="2.9471133"
       height="0.7044993"
       style="fill:#e5e5e5;fill-rule:evenodd" />
    <polygon
       id="_94968328-6"
       class="fil116"
       points="22.0228,44.0929 24.7559,44.0929 24.7559,45.4028 22.0228,45.4028 "
       style="fill:#c9c9c9;fill-rule:evenodd"
       transform="matrix(0.95959356,0,0,0.8877796,1.7171183,-9.2723957)" />
    <polygon
       id="_91306768-8"
       class="fil117"
       points="22.0524,44.074 24.7854,44.074 24.7559,45.4028 24.7252,45.4028 24.7559,44.7378 22.0524,44.7378 "
       style="fill:#ffffff;fill-rule:evenodd"
       transform="matrix(0.95959356,0,0,0.8877796,1.7171183,-9.2723957)" />
    <polygon
       id="_93416120-61"
       class="fil119"
       points="21.7571,44.1992 24.802,44.1992 24.802,45.5091 21.7571,45.5091 "
       style="fill:url(#linearGradient14078-2-5);fill-rule:evenodd"
       transform="matrix(0.95959356,0,0,0.8877796,1.7171183,-9.2723957)" />
    <rect
       id="_93006944-6"
       class="fil120"
       x="22.612652"
       y="29.690744"
       width="2.9471133"
       height="0.7044993"
       style="fill:#e5e5e5;fill-rule:evenodd" />
    <polygon
       id="_93006896-6"
       class="fil119"
       points="23.1874,42.561 26.2311,42.561 26.2311,43.872 23.1874,43.872 "
       style="fill:url(#linearGradient14076-4-0);fill-rule:evenodd"
       transform="matrix(0.95959356,0,0,0.8877796,1.7171183,-9.2723957)" />
    <rect
       id="_93830408-2"
       class="fil120"
       x="23.984394"
       y="28.236382"
       width="2.9471133"
       height="0.7044993"
       style="fill:#e5e5e5;fill-rule:evenodd" />
    <polygon
       id="_94968328-1"
       class="fil116"
       points="22.0228,44.0929 24.7559,44.0929 24.7559,45.4028 22.0228,45.4028 "
       style="fill:#c9c9c9;fill-rule:evenodd"
       transform="matrix(0.95959356,0,0,0.8877796,1.8872458,-6.3843117)" />
    <polygon
       id="_91306768-3"
       class="fil117"
       points="22.0524,44.074 24.7854,44.074 24.7559,45.4028 24.7252,45.4028 24.7559,44.7378 22.0524,44.7378 "
       style="fill:#ffffff;fill-rule:evenodd"
       transform="matrix(0.95959356,0,0,0.8877796,1.8872458,-6.3843117)" />
    <polygon
       id="_93416120-5"
       class="fil119"
       points="21.7571,44.1992 24.802,44.1992 24.802,45.5091 21.7571,45.5091 "
       style="fill:url(#linearGradient14078-2-8);fill-rule:evenodd"
       transform="matrix(0.95959356,0,0,0.8877796,1.8872458,-6.3843117)" />
    <rect
       id="_93006944-62"
       class="fil120"
       x="22.78278"
       y="32.578835"
       width="2.9471133"
       height="0.7044993"
       style="fill:#e5e5e5;fill-rule:evenodd" />
    <polygon
       id="_93006896-0"
       class="fil119"
       points="23.1874,42.561 26.2311,42.561 26.2311,43.872 23.1874,43.872 "
       style="fill:url(#linearGradient14076-4-2);fill-rule:evenodd"
       transform="matrix(0.95959356,0,0,0.8877796,1.8872458,-6.3843117)" />
    <rect
       id="_93830408-5"
       class="fil120"
       x="24.154522"
       y="31.124466"
       width="2.9471133"
       height="0.7044993"
       style="fill:#e5e5e5;fill-rule:evenodd" />
    <polygon
       id="_94968328-2-0"
       class="fil116"
       points="22.0228,45.4028 22.0228,44.0929 24.7559,44.0929 24.7559,45.4028 "
       style="fill:#c9c9c9;fill-rule:evenodd"
       transform="matrix(0.95959356,0,0,0.8877796,1.6184198,-3.4063707)" />
    <polygon
       id="_91306768-0-8"
       class="fil117"
       points="24.7854,44.074 24.7559,45.4028 24.7252,45.4028 24.7559,44.7378 22.0524,44.7378 22.0524,44.074 "
       style="fill:#ffffff;fill-rule:evenodd"
       transform="matrix(0.95959356,0,0,0.8877796,1.6184198,-3.4063707)" />
    <polygon
       id="_93416120-6-6"
       class="fil119"
       points="21.7571,45.5091 21.7571,44.1992 24.802,44.1992 24.802,45.5091 "
       style="fill:url(#linearGradient14078-2-9-8);fill-rule:evenodd"
       transform="matrix(0.95959356,0,0,0.8877796,1.6184198,-3.4063707)" />
    <rect
       id="_93006944-2-9"
       class="fil120"
       x="22.513954"
       y="35.55677"
       width="2.9471133"
       height="0.7044993"
       style="fill:#e5e5e5;fill-rule:evenodd" />
    <polygon
       id="_93006896-5-5"
       class="fil119"
       points="23.1874,43.872 23.1874,42.561 26.2311,42.561 26.2311,43.872 "
       style="fill:url(#linearGradient14076-4-6-5);fill-rule:evenodd"
       transform="matrix(0.95959356,0,0,0.8877796,1.6184198,-3.4063707)" />
    <rect
       id="_93830408-7-0"
       class="fil120"
       x="23.885696"
       y="34.102409"
       width="2.9471133"
       height="0.7044993"
       style="fill:#e5e5e5;fill-rule:evenodd" />
  </g>
  <g
     inkscape:groupmode="layer"
     id="layer3"
     inkscape:label="Layer#1">
    <path
       id="rect5265-4-6"
       d="m 45.795788,31.387838 0,3.4524 c 0,4.5439 -1.117789,9.7978 -5.225586,9.7708 l -32.5987797,-0.2142 c -3.328143,-0.022 -4.658204,-2.487319 -4.658204,-9.5566 l 0,-3.4524 c 0,4.5439 2.677521,8.1994 6.005734,8.1994 l 30.4711007,0 c 3.328214,0 6.005735,-3.6555 6.005735,-8.1994 z"
       style="fill:#000000;fill-opacity:0.19607843;stroke:none"
       inkscape:connector-curvature="0"
       sodipodi:nodetypes="csssscssc" />
    <path
       id="rect5265-4-6-7"
       d="m 45.507283,32.424224 0,0.7669 c 0,2.4023 -1.997547,6.465 -7.158077,6.4564 l -28.297436,-0.048 c -4.3063537,-0.01 -5.7858717,-2.791 -6.0809277,-3.9802 l -0.673216,-2.7134 c 0,1.0095 2.128484,5.6251 7.9238717,5.6251 l 26.450498,0 c 6.396693,0 7.835287,-5.0978 7.835287,-6.1072 z"
       style="opacity:0.6;fill:#ffffff;fill-opacity:0.17647059;stroke:none"
       inkscape:connector-curvature="0"
       sodipodi:nodetypes="csssscssc" />
  </g>
</svg>
