<?xml version="1.0" encoding="UTF-8" standalone="no"?>
<!-- Created with Inkscape (http://www.inkscape.org/) -->

<svg
   xmlns:dc="http://purl.org/dc/elements/1.1/"
   xmlns:cc="http://creativecommons.org/ns#"
   xmlns:rdf="http://www.w3.org/1999/02/22-rdf-syntax-ns#"
   xmlns:svg="http://www.w3.org/2000/svg"
   xmlns="http://www.w3.org/2000/svg"
   xmlns:xlink="http://www.w3.org/1999/xlink"
   xmlns:sodipodi="http://sodipodi.sourceforge.net/DTD/sodipodi-0.dtd"
   xmlns:inkscape="http://www.inkscape.org/namespaces/inkscape"
   width="48px"
   height="48px"
   id="svg85312"
   version="1.1"
   inkscape:version="0.48.3.1 r9886"
   sodipodi:docname="libreoffice-math.svg">
  <defs
     id="defs85314">
    <linearGradient
       inkscape:collect="always"
       xlink:href="#id2-34"
       id="linearGradient85135"
       gradientUnits="userSpaceOnUse"
       gradientTransform="translate(-0.13435794,-2.4066622)"
       x1="27.2008"
       y1="29.7024"
       x2="26.5063"
       y2="8.3586597" />
    <linearGradient
       y2="8.3586597"
       x2="26.5063"
       y1="29.7024"
       x1="27.2008"
       gradientUnits="userSpaceOnUse"
       id="id2-34">
      <stop
         id="stop84798"
         style="stop-color:#F3F3F3"
         offset="0" />
      <stop
         id="stop84800"
         style="stop-color:white"
         offset="1" />
    </linearGradient>
    <linearGradient
       inkscape:collect="always"
       xlink:href="#id6-8"
       id="linearGradient85138"
       gradientUnits="userSpaceOnUse"
       gradientTransform="translate(-0.13435794,-2.4066622)"
       x1="23.7803"
       y1="15.9673"
       x2="29.737801"
       y2="21.336599" />
    <linearGradient
       y2="21.336599"
       x2="29.737801"
       y1="15.9673"
       x1="23.7803"
       gradientUnits="userSpaceOnUse"
       id="id6-8">
      <stop
         id="stop84818"
         style="stop-color:#5A93C4"
         offset="0" />
      <stop
         id="stop84820"
         style="stop-color:#76B5EA"
         offset="1" />
    </linearGradient>
    <linearGradient
       id="id2"
       gradientUnits="userSpaceOnUse"
       x1="26.438999"
       y1="29.858299"
       x2="26.020901"
       y2="8.2984304">
      <stop
         offset="0"
         style="stop-color:#EBEBEB"
         id="stop19" />
      <stop
         offset="1"
         style="stop-color:white"
         id="stop21" />
    </linearGradient>
    <linearGradient
       id="id5"
       gradientUnits="userSpaceOnUse"
       x1="31.0394"
       y1="30.853901"
       x2="31.6583"
       y2="17.5051">
      <stop
         offset="0"
         style="stop-color:#FF8E47"
         id="stop34" />
      <stop
         offset="1"
         style="stop-color:#E6773A"
         id="stop36" />
    </linearGradient>
  </defs>
  <sodipodi:namedview
     id="base"
     pagecolor="#ffffff"
     bordercolor="#666666"
     borderopacity="1.0"
     inkscape:pageopacity="0.0"
     inkscape:pageshadow="2"
     inkscape:zoom="3.5"
     inkscape:cx="-44.280509"
     inkscape:cy="0.65803251"
     inkscape:current-layer="layer1"
     showgrid="true"
     inkscape:grid-bbox="true"
     inkscape:document-units="px"
     inkscape:window-width="1024"
     inkscape:window-height="723"
     inkscape:window-x="0"
     inkscape:window-y="22"
     inkscape:window-maximized="1" />
  <metadata
     id="metadata85317">
    <rdf:RDF>
      <cc:Work
         rdf:about="">
        <dc:format>image/svg+xml</dc:format>
        <dc:type
           rdf:resource="http://purl.org/dc/dcmitype/StillImage" />
        <dc:title></dc:title>
      </cc:Work>
    </rdf:RDF>
  </metadata>
  <g
     id="layer1"
     inkscape:label="Layer 1"
     inkscape:groupmode="layer">
    <rect
       ry="6.2786646"
       y="-44.583736"
       x="1.699003"
       height="44.399963"
       width="44.399963"
       id="rect5263-6-7"
       style="fill:#000000;fill-opacity:0.01960784;stroke:none"
       transform="scale(1,-1)" />
    <rect
       style="fill:#000000;fill-opacity:0.03921569;stroke:none"
       id="rect5261-8-3"
       width="43.799973"
       height="43.799973"
       x="1.9989909"
       y="-44.283627"
       ry="6.1938181"
       transform="scale(1,-1)" />
    <rect
       ry="6.1089716"
       y="-43.983578"
       x="2.2989786"
       height="43.199982"
       width="43.199982"
       id="rect5259-7-5"
       style="fill:#000000;fill-opacity:0.07843137;stroke:none"
       transform="scale(1,-1)" />
    <rect
       style="fill:#000000;fill-opacity:0.15686275;stroke:none"
       id="rect5257-4-5"
       width="42.599991"
       height="42.599991"
       x="2.5989969"
       y="-43.68359"
       ry="6.0241251"
       transform="scale(1,-1)" />
    <rect
       ry="5.9392786"
       y="-43.383724"
       x="2.8989847"
       height="42"
       width="42"
       id="rect5237-5-2"
       style="fill:#9955ff;fill-opacity:1;stroke:none"
       transform="scale(1,-1)" />
    <path
       id="rect5265-4-6"
       d="m 45.270043,30.369358 0,3.452381 c 0,4.543886 -1.125763,9.797836 -5.262862,9.770834 L 7.1758617,43.378287 C 3.8239777,43.35641 2.4844286,38.365625 2.4844286,33.821739 l 0,-3.452381 c 0,4.543886 2.6966206,8.199405 6.048576,8.199405 l 30.6884624,0 c 3.351955,0 6.048576,-3.655519 6.048576,-8.199405 z"
       style="fill:none;stroke:none"
       inkscape:connector-curvature="0"
       sodipodi:nodetypes="csssscssc" />
    <path
       id="rect5265-4-6-4"
       d="m 45.412901,30.226501 0,3.452381 c 0,4.543886 -1.125763,9.797836 -5.262862,9.770834 L 7.3187187,43.23543 C 3.9668347,43.21355 2.6272858,38.222768 2.6272858,33.678882 l 0,-3.452381 c 0,4.543886 2.6966209,8.199405 6.0485759,8.199405 l 30.6884633,0 c 3.351955,0 6.048576,-3.655519 6.048576,-8.199405 z"
       style="fill:#000000;fill-opacity:0.17647059;stroke:none"
       inkscape:connector-curvature="0"
       sodipodi:nodetypes="csssscssc" />
    <path
       id="rect5265-4-6-7"
       d="m 45.090563,31.256197 0,0.766958 c 0,2.402297 -2.013438,6.46502 -7.215019,6.456338 L 9.353012,38.431893 C 5.0124019,38.424643 3.521115,35.640947 3.2237113,34.451726 L 2.5451399,31.73834 c 0,1.00944 2.1454152,5.625096 7.9869031,5.625096 l 26.660904,0 c 6.447577,0 7.897616,-5.097799 7.897616,-6.107239 z"
       style="fill:#ffffff;fill-opacity:0.17647059;stroke:none"
       inkscape:connector-curvature="0"
       sodipodi:nodetypes="csssscssc" />
    <g
       id="g4283"
       transform="translate(0.5122552,-0.22654092)">
      <polygon
         transform="translate(-0.52546644,-2.740904)"
         style="fill:#000000;fill-rule:nonzero"
         class="fil41"
         points="29.3138,21.0437 29.3764,21.0413 29.4142,21.0248 "
         id="polygon4695" />
      <path
         style="fill:#000000;fill-rule:nonzero"
         inkscape:connector-curvature="0"
         class="fil41"
         d="m 25.973733,18.815396 c 0.07205,-0.06378 0.148819,-0.09685 0.229134,-0.111024 l -0.180709,0.102756 -0.04843,0.0083 z"
         id="path4697" />
      <path
         style="fill:#5955bd;fill-opacity:0.21960802;fill-rule:nonzero"
         inkscape:connector-curvature="0"
         class="fil42"
         d="m 36.281233,19.551196 c 0.09567,0.230315 0.15,0.480709 0.152362,0.742913 l 0,0.0047 0.03898,6.03543 0.0035,0.0035 0,0.0059 c 0,0.475984 -0.175984,0.917717 -0.466535,1.26378 l -1.47402,-1.26024 -0.08032,0.0024 0.0189,-0.01417 0.0035,0.0083 0,-0.0047 -0.0035,-0.0035 0.0035,0.0035 0,-0.0012 0.0035,0 -0.03898,-6.02717 -0.01181,-0.01063 0.0012,-0.0012 c -0.01181,-0.0094 -0.03189,-0.01654 -0.05669,-0.01654 l -0.548031,0 2.29961,-0.466535 0.154724,-0.264567 z m -9.99921,8.47559 c -0.114567,-0.07323 -0.222047,-0.158268 -0.318898,-0.251575 -0.376772,-0.36378 -0.617717,-0.871654 -0.620079,-1.43386 l -0.03898,-6.03543 -0.0035,-0.0035 0,-0.0059 c 0,-0.375591 0.109844,-0.729921 0.29882,-1.03346 0.523228,0.271654 1.28976,0.661417 1.99488,1.01929 l -0.232677,0 -0.0071,0 0,-0.0035 c -0.02126,0.0024 -0.04134,0.01063 -0.05315,0.02244 l -0.0024,0 0,0.0012 -0.0035,0 0.03898,6.03189 0.01063,0.0047 c 0.01181,0.01063 0.03189,0.0189 0.05669,0.0189 l 2.76142,0 1.502361,0 2.39409,0 -6.34252,0.141732 -1.435041,1.52717 z m -4.84724,-7.65354 0,0.0024 0.03898,6.03543 0.0035,0.0035 0,0.0059 c 0,0.555118 -0.238583,1.06299 -0.620079,1.42795 l -0.0059,0.0059 -2.7378,-1.41969 1.30157,0 0.0071,0 0,0.0024 c 0.0189,-0.0024 0.04016,-0.01181 0.05315,-0.0248 l 0.0035,0.0083 0,-0.0047 -0.0035,-0.0035 0.0035,0.0035 0,-0.0012 0.0035,0 -0.02835,-4.40315 0.838583,-0.145276 1.14213,-1.49291 z m -10.511799,7.43858 c -0.35315,-0.360236 -0.576378,-0.852756 -0.57874,-1.3937 l -0.03898,-6.03543 -0.0035,-0.0035 0,-0.0059 c 0,-0.530315 0.216142,-1.01693 0.56811,-1.37835 -0.07441,0.173622 -0.09331,0.369685 -0.04606,0.592913 l 1.47756,1.4811 0.03425,5.27835 -0.224409,0 -1.18819,1.46457 z"
         id="path4699" />
      <path
         style="fill:#c1bfff;fill-opacity:0.67843095;fill-rule:evenodd"
         inkscape:connector-curvature="0"
         class="fil43"
         d="m 10.922934,27.811896 1.18819,-1.46457 0.224409,0 0,0.06378 0.01063,0.0047 c 0.01181,0.01063 0.03307,0.0189 0.05669,0.0189 l 2.761419,0 1.50236,0 1.44685,0 2.7378,1.41969 c -0.368504,0.351969 -0.872835,0.571654 -1.42087,0.575197 l -0.0083,0.0035 -0.0071,0 -2.74843,0 -1.50236,0 -2.761419,0 c -0.553937,0 -1.06654,-0.223228 -1.43858,-0.581102 l -0.04134,-0.04016 z m 15.359099,0.214961 1.43504,-1.52717 6.34252,-0.141732 0.354331,0 0.0071,0 0,0.0024 0.03425,-0.01063 0.08031,-0.0024 1.47402,1.26024 c -0.04843,0.05787 -0.09921,0.112205 -0.153542,0.164173 -0.367323,0.354331 -0.875197,0.577559 -1.42677,0.581102 l -0.0083,0.0035 -0.0071,0 -2.74843,0 -1.50236,0 -2.76142,0 c -0.408661,0 -0.794882,-0.121654 -1.11969,-0.329528 z"
         id="path4701" />
      <path
         style="fill:#5955bd;fill-opacity:0.21960802;fill-rule:nonzero"
         inkscape:connector-curvature="0"
         class="fil42"
         d="m 20.507633,13.196896 2.76142,0 0.08386,0 0.0024,0 0.996849,0 0.0024,0 0.416929,0 2.74843,0 0.0059,0 0,0.0012 0.03071,-0.02362 c 0.01654,-0.0189 0.02717,-0.04488 0.02717,-0.07087 l 0,-0.0059 0.0035,0 -0.03898,-6.4925191 c 0,-0.03307 -0.01653,-0.06968 -0.03898,-0.09331 -0.0071,-0.0083 -0.0189,-0.01417 -0.02835,-0.01417 l -0.695669,0 1.15866,-0.200787 0.990945,-1.17756 0.01063,0.01063 c 0.362598,0.375591 0.590551,0.895276 0.594094,1.45866 l 0,0.0047 0.03898,6.5007891 0.0035,0.0035 0,0.0059 c 0,0.437008 -0.13937,0.848031 -0.373228,1.18701 l 0.628346,0.0035 0,-0.0035 c 0.354331,0 0.69685,0.07323 1.00748,0.20315 l 0,0.0012 c 0.329528,0.135827 0.622441,0.334252 0.85748,0.569291 l 0.291732,0.291732 0,0.05906 c 0.108661,0.155906 0.201969,0.325984 0.277559,0.506693 l 0.0012,0 c 0.12874,0.312992 0.20315,0.65315 0.20315,1.00748 l 0,1.35472 0.413386,0 -1.6878,1.4563 -0.908268,-0.152362 -1.0122,-1.30394 0.194882,0 0,-0.999213 -0.292913,-0.0012 1.07244,-1.18937 c 0,0 -13.0311,-0.493701 -13.1445,0.190157 l 0.866929,0.93189 -0.427559,-0.0024 0,0.745276 c -1.00984,-0.07441 -2.04921,-0.116929 -3,-0.09331 l 0,-1.0122 c 0,-0.354331 0.07441,-0.694488 0.20315,-1.00748 l 0.0012,0 c 0.07441,-0.180709 0.168898,-0.350787 0.277559,-0.506693 l 0,-0.05906 0.291732,-0.291732 c 0.235039,-0.235039 0.527953,-0.433465 0.85748,-0.569291 l 0,-0.0012 c 0.31063,-0.129921 0.65315,-0.20315 1.00748,-0.20315 l 0.0035,0.0035 1.58622,0.0094 c -0.206671,-0.324621 -0.328324,-0.714385 -0.329506,-1.126588 l -0.03898,-6.5007901 -0.0035,-0.0035 0,-0.0071 c 0,-0.565748 0.227952,-1.08307 0.591732,-1.45984 l 0.0035,-0.0047 c 0.09567,-0.09803 0.200787,-0.186614 0.314174,-0.264567 l 1.63228,1.63701 -0.480709,0 -0.0059,0 0,-0.0024 -0.03071,0.02126 c -0.01535,0.01772 -0.02598,0.04488 -0.02598,0.07323 l 0,0.0071 -0.0035,0 0.03898,6.4972401 c 0,0.03071 0.01535,0.0626 0.03425,0.08268 l 0.0035,0.0047 c 0.0083,0.0083 0.02126,0.01535 0.02953,0.01535 z"
         id="path4703" />
      <path
         style="fill:#c1bfff;fill-opacity:0.67843095;fill-rule:nonzero"
         inkscape:connector-curvature="0"
         class="fil44"
         d="m 29.182833,17.283496 -11.2051,-0.06732 -0.866929,-0.93189 c 0.113386,-0.683858 13.1445,-0.190157 13.1445,-0.190157 l -1.07244,1.18937 z"
         id="path4705" />
      <path
         style="fill:#5955bd;fill-opacity:0.78039198;fill-rule:nonzero"
         inkscape:connector-curvature="0"
         class="fil45"
         d="m 29.248933,14.290596 0.588189,0.0035 0,-0.0035 c 0.354331,0 0.696851,0.07323 1.00748,0.20315 l 0,0.0012 c 0.329529,0.135827 0.622442,0.334252 0.857481,0.569291 l 0.03425,0.03425 -0.950787,0.995669 -2.4626,-0.531496 0.925984,-1.27205 z"
         id="path4707" />
      <path
         style="fill:#5955bd;fill-opacity:0.78039198;fill-rule:nonzero"
         inkscape:connector-curvature="0"
         class="fil45"
         d="m 15.454833,14.865796 c 0.209055,-0.18189 0.455906,-0.334252 0.726378,-0.446457 l 0,-0.0012 c 0.31063,-0.129921 0.65315,-0.20315 1.00748,-0.20315 l 0.0035,0.0035 1.07717,0.0059 c 0.561024,0.527953 1.45512,1.18701 1.45512,1.18701 l -3.03071,0.188976 -1.238979,-0.734646 z"
         id="path4709" />
      <path
         style="fill:#5955bd;fill-opacity:0.78039198;fill-rule:nonzero"
         inkscape:connector-curvature="0"
         class="fil45"
         d="m 32.889133,18.283896 1.48583,0 c 0.553937,0 1.06417,0.225591 1.433861,0.579921 l 0.0035,0 c 0.200787,0.193701 0.361417,0.427559 0.468898,0.687402 l -0.154724,0.264567 -2.29961,0.466535 -2.35039,0 -0.0024,0 -0.99685,0 -0.0024,0 -2.88071,0 c -0.705118,-0.357874 -1.47165,-0.747638 -1.99488,-1.01929 0.08976,-0.144094 0.198425,-0.277559 0.32126,-0.395669 l -0.0012,-0.0024 0.85748,-0.487795 2.50394,-0.09331 1.0122,1.30394 0.908268,0.152362 1.6878,-1.4563 z m -6.10394,-11.7862001 -5.83701,0 -1.63228,-1.63701 C 19.641887,4.636277 20.035194,4.503993 20.458033,4.502812 l 0.0035,-0.00354 0.0059,0 7.01339,0 c 0.565748,0 1.08307,0.239764 1.453941,0.6200789 l -0.990946,1.17756 -1.15866,0.200787 z m -9.23504,11.4614001 0,0.401575 1.82598,0 c 0.552756,0 1.06299,0.225591 1.43386,0.579921 l 0.0035,0 c 0.248031,0.239764 0.435827,0.539764 0.537402,0.875197 l -4.16457,0 0,0.543307 -0.635433,0 -0.0024,0 -0.99685,0 -0.0024,0 -3.18661,0 -0.0071,0 0,-0.0035 c -0.02126,0.0024 -0.04134,0.01063 -0.05315,0.02244 l -0.0024,0 0,0.0012 -0.0035,0 0.0047,0.689764 -1.47756,-1.4811 c -0.04724,-0.223228 -0.02835,-0.419291 0.04606,-0.592913 l 0.05197,-0.05079 -0.0012,-0.0024 c 0.367323,-0.354331 0.875197,-0.574016 1.42677,-0.577559 l 0.0083,-0.0035 0.0071,0 2.1874,0 0,-0.494882 c 0.950787,-0.02362 1.99016,0.0189 3,0.09331 z"
         id="path4711" />
      <path
         style="fill:#ffffff;fill-rule:evenodd"
         inkscape:connector-curvature="0"
         class="fil36"
         d="m 23.269033,14.196096 -2.76142,0 c -0.57874,0 -1.05945,-0.494882 -1.06299,-1.09843 l -0.03898,-6.5007901 c -0.0035,-0.603543 0.478346,-1.09843 1.06181,-1.09843 l 7.013391,0 c 0.584645,0 1.05945,0.501969 1.062989,1.09843 l 0.03898,6.5007901 c 0.0035,0.594094 -0.480709,1.09843 -1.06299,1.09843 l -2.74843,0 -0.416928,0 0,1.06063 5.482679,0.03307 c 0.451181,0 0.861024,0.185433 1.15748,0.48189 l 0,0.0012 c 0.297638,0.296457 0.48189,0.70748 0.48189,1.1563 l 0,2.35394 2.89843,0 c 0.584646,0 1.05945,0.465354 1.06299,1.01929 l 0.03898,6.03543 c 0.0035,0.551575 -0.480709,1.01929 -1.06299,1.01929 l -2.74843,0 -1.502359,0 -2.761421,0 c -0.57874,0 -1.05945,-0.459449 -1.06299,-1.01929 l -0.03898,-6.03543 c -0.0035,-0.559843 0.478345,-1.01929 1.06181,-1.01929 l 3.11339,0 0,-2.35394 c 0,-0.175984 -0.07087,-0.337795 -0.185433,-0.451181 l -0.0012,0 C 30.173762,16.36342 30.013132,16.291373 29.837149,16.291373 l -12.648401,-0.07559 c -0.175984,0 -0.336614,0.07205 -0.451181,0.186614 l -0.0012,0 c -0.114567,0.113386 -0.185433,0.275197 -0.185433,0.451181 l 0,2.5063 2.8252,0 c 0.584646,0 1.05945,0.465354 1.06299,1.01929 l 0.03898,6.03543 c 0.0035,0.551575 -0.480709,1.01929 -1.06299,1.01929 l -2.74843,0 -1.50236,0 -2.761419,0 c -0.57874,0 -1.05945,-0.459449 -1.06299,-1.01929 l -0.03898,-6.03543 c -0.0035,-0.559843 0.478346,-1.01929 1.06181,-1.01929 l 3.186609,0 0,-2.5063 c 0,-0.448819 0.184252,-0.859843 0.48189,-1.1563 l 0,-0.0012 c 0.296457,-0.296457 0.706299,-0.48189 1.15748,-0.48189 l 6.16417,0.03661 0,-1.05472 -0.08386,0 z"
         id="path4713" />
      <path
         style="fill:#b2b2b2;fill-opacity:0.43921599;fill-rule:nonzero"
         inkscape:connector-curvature="0"
         class="fil46"
         d="m 35.376533,19.968196 -1.54961,0.314173 -2.32205,0 0,-0.804331 0.226772,-0.194882 2.64331,0 c 0.461811,0 0.855118,0.290551 1.00157,0.685039 z m -5.27362,0.314173 -2.50866,0 -1.10433,-0.562205 c 0.19252,-0.263386 0.512598,-0.437008 0.871654,-0.437008 l 2.69528,0 0.04606,0.05906 0,0.940157 z M 20.043513,5.5906689 c 0.129921,-0.059055 0.274016,-0.092126 0.424016,-0.092126 l 7.013391,0 c 0.322441,0 0.61181,0.152362 0.806692,0.389764 l -0.3437,0.408661 -1.158661,0.200787 -5.83701,0 -0.904724,-0.907087 z m -3.4252,13.7693001 2.75787,0 c 0.366142,0 0.688583,0.183071 0.879921,0.455906 l 0.187795,0.682677 -3.25748,-0.13937 -0.56811,0 0,-0.999213 z m -1.21181,0.999213 -3.043699,0 -0.0071,0 0,-0.0035 c -0.02126,0.0024 -0.04134,0.01063 -0.05315,0.02244 l -0.0024,0 0,0.0012 -0.0035,0 -0.957874,-0.275197 c 0.124015,-0.427559 0.539764,-0.744094 1.02402,-0.744094 l 3.043699,0 0,0.999213 z"
         id="path4715" />
      <path
         style="fill:#5955bd;fill-opacity:0.43921599;fill-rule:nonzero"
         inkscape:connector-curvature="0"
         class="fil47"
         d="m 24.522133,33.866196 -0.0083,-0.151181 c 0,-0.409843 0.168898,-0.784252 0.434646,-1.05354 l 0.01181,-0.01181 c 0.269291,-0.265748 0.643701,-0.434646 1.05354,-0.434646 l 11.1591,0 c 0.411024,0 0.785433,0.170079 1.05354,0.434646 l 0.01181,0.01181 c 0.265748,0.269291 0.434646,0.643701 0.434646,1.05354 l -0.0083,0.151181 -14.1425,0 z m -15.7582989,0 -0.0083,-0.151181 c 0,-0.409843 0.168898,-0.784252 0.434646,-1.05354 l 0.01181,-0.01181 c 0.26811,-0.264567 0.6425195,-0.434646 1.0535399,-0.434646 l 11.159099,0 c 0.409843,0 0.784252,0.168898 1.05354,0.434646 l 0.01181,0.01181 c 0.265747,0.269291 0.434646,0.643701 0.434646,1.05354 l -0.0083,0.151181 -14.1425009,0 z"
         id="path4717" />
      <path
         style="fill:#c1bfff;fill-opacity:0.67843095;fill-rule:evenodd"
         inkscape:connector-curvature="0"
         class="fil43"
         d="m 8.7639041,33.866196 14.1424989,0 c -0.03543,0.350787 -0.194882,0.667323 -0.426378,0.902362 l -0.01181,0.01181 c -0.269291,0.265748 -0.643701,0.434646 -1.05354,0.434646 l -11.159099,0 c -0.4110244,0 -0.7854329,-0.170079 -1.0535399,-0.434646 l -0.01181,-0.01181 c -0.231498,-0.235039 -0.390947,-0.551575 -0.42638,-0.902362 z m 15.7582989,0 14.1425,0 c -0.03543,0.350787 -0.194882,0.667323 -0.426378,0.902362 l -0.01181,0.01181 c -0.26811,0.264567 -0.64252,0.434646 -1.05354,0.434646 l -11.1591,0 c -0.409843,0 -0.784252,-0.168898 -1.05354,-0.434646 l -0.01181,-0.01181 c -0.231498,-0.235039 -0.390947,-0.551575 -0.42638,-0.902362 z"
         id="path4719" />
      <path
         style="fill:#f2f2f2;fill-rule:nonzero"
         inkscape:connector-curvature="0"
         class="fil48"
         d="m 26.013933,34.215796 c -0.276378,0 -0.500787,-0.224409 -0.500787,-0.500787 0,-0.276378 0.22441,-0.500787 0.500787,-0.500787 l 11.159101,0 c 0.276378,0 0.500787,0.224409 0.500787,0.500787 0,0.276378 -0.224409,0.500787 -0.500787,0.500787 l -11.159101,0 z m -15.758299,0 c -0.2763784,0 -0.5007874,-0.224409 -0.5007874,-0.500787 0,-0.276378 0.224409,-0.500787 0.5007874,-0.500787 l 11.159099,0 c 0.276378,0 0.500787,0.224409 0.500787,0.500787 0,0.276378 -0.224409,0.500787 -0.500787,0.500787 l -11.159099,0 z"
         id="path4721" />
      <path
         style="fill:#c1bfff;fill-opacity:0.67843095;fill-rule:nonzero"
         inkscape:connector-curvature="0"
         class="fil44"
         d="m 26.013933,32.177196 c -0.409843,0 -0.784252,-0.168898 -1.05354,-0.434646 l -0.01181,-0.01181 C 24.684016,31.46263 24.513937,31.08822 24.513937,30.6772 l 0.0083,-0.152362 14.1425,0 0.0083,0.152362 c 0,0.411024 -0.170079,0.785433 -0.434646,1.05354 l -0.01181,0.01181 c -0.26811,0.264567 -0.642519,0.434646 -1.053539,0.434646 l -11.159101,0 z m -15.758299,0 c -0.4110244,0 -0.7854329,-0.170079 -1.0535399,-0.434646 l -0.01181,-0.01181 C 8.9257171,31.46263 8.7556381,31.08822 8.7556381,30.6772 l 0.0083,-0.152362 14.1424989,0 0.0083,0.152362 c 0,0.411024 -0.170079,0.785433 -0.434646,1.05354 l -0.01181,0.01181 c -0.269327,0.265748 -0.643737,0.434646 -1.053576,0.434646 l -11.159099,0 z"
         id="path4723" />
      <path
         style="fill:#5955bd;fill-opacity:0.43921599;fill-rule:nonzero"
         inkscape:connector-curvature="0"
         class="fil47"
         d="m 24.522133,30.524796 c 0.03543,-0.349606 0.193701,-0.664961 0.426378,-0.901181 l 0.01181,-0.01181 c 0.269291,-0.265748 0.643701,-0.434646 1.05354,-0.434646 l 11.1591,0 c 0.411024,0 0.785433,0.170079 1.05354,0.434646 l 0.01181,0.01181 c 0.232677,0.23622 0.390945,0.551575 0.426378,0.901181 l -14.1425,0 z m -1.61575,0 -14.1424989,0 c 0.03543,-0.349606 0.193701,-0.664961 0.426378,-0.901181 l 0.01181,-0.01181 c 0.26811,-0.264567 0.6425195,-0.434646 1.0535399,-0.434646 l 11.159099,0 c 0.409843,0 0.784252,0.168898 1.05354,0.434646 l 0.01181,0.01181 c 0.232677,0.23622 0.390945,0.551575 0.426378,0.901181 z"
         id="path4725" />
      <path
         style="fill:#f2f2f2;fill-rule:nonzero"
         inkscape:connector-curvature="0"
         class="fil48"
         d="m 26.013933,31.177996 c -0.276378,0 -0.500787,-0.224409 -0.500787,-0.500787 0,-0.276378 0.22441,-0.500787 0.500787,-0.500787 l 11.159101,0 c 0.276378,0 0.500787,0.224409 0.500787,0.500787 0,0.276378 -0.224409,0.500787 -0.500787,0.500787 l -11.159101,0 z m -15.758299,0 c -0.2763784,0 -0.5007874,-0.224409 -0.5007874,-0.500787 0,-0.276378 0.224409,-0.500787 0.5007874,-0.500787 l 11.159099,0 c 0.276378,0 0.500787,0.224409 0.500787,0.500787 0,0.276378 -0.224409,0.500787 -0.500787,0.500787 l -11.159099,0 z"
         id="path4727" />
    </g>
  </g>
  <g
     inkscape:groupmode="layer"
     id="layer2"
     inkscape:label="Layer" />
</svg>
