<?xml version="1.0" encoding="UTF-8" standalone="no"?>
<!-- Created with Inkscape (http://www.inkscape.org/) -->

<svg
   xmlns:dc="http://purl.org/dc/elements/1.1/"
   xmlns:cc="http://creativecommons.org/ns#"
   xmlns:rdf="http://www.w3.org/1999/02/22-rdf-syntax-ns#"
   xmlns:svg="http://www.w3.org/2000/svg"
   xmlns="http://www.w3.org/2000/svg"
   xmlns:xlink="http://www.w3.org/1999/xlink"
   xmlns:sodipodi="http://sodipodi.sourceforge.net/DTD/sodipodi-0.dtd"
   xmlns:inkscape="http://www.inkscape.org/namespaces/inkscape"
   width="48px"
   height="48px"
   id="svg85312"
   version="1.1"
   inkscape:version="0.48.3.1 r9886"
   sodipodi:docname="libreoffice-draw.svg">
  <defs
     id="defs85314">
    <linearGradient
       inkscape:collect="always"
       xlink:href="#id2-34"
       id="linearGradient85135"
       gradientUnits="userSpaceOnUse"
       gradientTransform="translate(-0.13435794,-2.4066622)"
       x1="27.2008"
       y1="29.7024"
       x2="26.5063"
       y2="8.3586597" />
    <linearGradient
       y2="8.3586597"
       x2="26.5063"
       y1="29.7024"
       x1="27.2008"
       gradientUnits="userSpaceOnUse"
       id="id2-34">
      <stop
         id="stop84798"
         style="stop-color:#F3F3F3"
         offset="0" />
      <stop
         id="stop84800"
         style="stop-color:white"
         offset="1" />
    </linearGradient>
    <linearGradient
       inkscape:collect="always"
       xlink:href="#id6-8"
       id="linearGradient85138"
       gradientUnits="userSpaceOnUse"
       gradientTransform="translate(-0.13435794,-2.4066622)"
       x1="23.7803"
       y1="15.9673"
       x2="29.737801"
       y2="21.336599" />
    <linearGradient
       y2="21.336599"
       x2="29.737801"
       y1="15.9673"
       x1="23.7803"
       gradientUnits="userSpaceOnUse"
       id="id6-8">
      <stop
         id="stop84818"
         style="stop-color:#5A93C4"
         offset="0" />
      <stop
         id="stop84820"
         style="stop-color:#76B5EA"
         offset="1" />
    </linearGradient>
    <linearGradient
       id="id2"
       gradientUnits="userSpaceOnUse"
       x1="26.438999"
       y1="29.858299"
       x2="26.020901"
       y2="8.2984304">
      <stop
         offset="0"
         style="stop-color:#EBEBEB"
         id="stop19" />
      <stop
         offset="1"
         style="stop-color:white"
         id="stop21" />
    </linearGradient>
    <linearGradient
       id="id5"
       gradientUnits="userSpaceOnUse"
       x1="31.0394"
       y1="30.853901"
       x2="31.6583"
       y2="17.5051">
      <stop
         offset="0"
         style="stop-color:#FF8E47"
         id="stop34" />
      <stop
         offset="1"
         style="stop-color:#E6773A"
         id="stop36" />
    </linearGradient>
    <linearGradient
       inkscape:collect="always"
       xlink:href="#id3-87"
       id="linearGradient5469"
       gradientUnits="userSpaceOnUse"
       x1="24.807899"
       y1="29.275999"
       x2="23.648001"
       y2="7.7917299" />
    <linearGradient
       y2="7.7917299"
       x2="23.648001"
       y1="29.275999"
       x1="24.807899"
       gradientUnits="userSpaceOnUse"
       id="id3-87">
      <stop
         id="stop5197"
         style="stop-color:#EBEBEB"
         offset="0" />
      <stop
         id="stop5199"
         style="stop-color:white"
         offset="1" />
    </linearGradient>
    <linearGradient
       inkscape:collect="always"
       xlink:href="#id3-87"
       id="linearGradient4390"
       gradientUnits="userSpaceOnUse"
       x1="24.807899"
       y1="29.275999"
       x2="23.648001"
       y2="7.7917299" />
  </defs>
  <sodipodi:namedview
     id="base"
     pagecolor="#ffffff"
     bordercolor="#666666"
     borderopacity="1.0"
     inkscape:pageopacity="0.0"
     inkscape:pageshadow="2"
     inkscape:zoom="3.5"
     inkscape:cx="16.610976"
     inkscape:cy="39.578729"
     inkscape:current-layer="layer1"
     showgrid="true"
     inkscape:grid-bbox="true"
     inkscape:document-units="px"
     inkscape:window-width="1024"
     inkscape:window-height="723"
     inkscape:window-x="0"
     inkscape:window-y="22"
     inkscape:window-maximized="1" />
  <metadata
     id="metadata85317">
    <rdf:RDF>
      <cc:Work
         rdf:about="">
        <dc:format>image/svg+xml</dc:format>
        <dc:type
           rdf:resource="http://purl.org/dc/dcmitype/StillImage" />
        <dc:title></dc:title>
      </cc:Work>
    </rdf:RDF>
  </metadata>
  <g
     id="layer1"
     inkscape:label="Layer 1"
     inkscape:groupmode="layer">
    <rect
       ry="6.2786646"
       y="-44.583736"
       x="1.699003"
       height="44.399963"
       width="44.399963"
       id="rect5263-6-7"
       style="fill:#000000;fill-opacity:0.01960784;stroke:none"
       transform="scale(1,-1)" />
    <rect
       style="fill:#000000;fill-opacity:0.03921569;stroke:none"
       id="rect5261-8-3"
       width="43.799973"
       height="43.799973"
       x="1.9989909"
       y="-44.283627"
       ry="6.1938181"
       transform="scale(1,-1)" />
    <rect
       ry="6.1089716"
       y="-43.983578"
       x="2.2989786"
       height="43.199982"
       width="43.199982"
       id="rect5259-7-5"
       style="fill:#000000;fill-opacity:0.07843137;stroke:none"
       transform="scale(1,-1)" />
    <rect
       style="fill:#000000;fill-opacity:0.15686275;stroke:none"
       id="rect5257-4-5"
       width="42.599991"
       height="42.599991"
       x="2.5989969"
       y="-43.68359"
       ry="6.0241251"
       transform="scale(1,-1)" />
    <rect
       ry="5.9392786"
       y="-43.383724"
       x="2.8989847"
       height="42"
       width="42"
       id="rect5237-5-2"
       style="fill:#abc837;fill-opacity:1;stroke:none"
       transform="scale(1,-1)" />
    <path
       id="rect5265-4-6"
       d="m 45.270043,30.369358 0,3.452381 c 0,4.543886 -1.125763,9.797836 -5.262862,9.770834 L 7.1758617,43.378287 C 3.8239777,43.35641 2.4844286,38.365625 2.4844286,33.821739 l 0,-3.452381 c 0,4.543886 2.6966206,8.199405 6.048576,8.199405 l 30.6884624,0 c 3.351955,0 6.048576,-3.655519 6.048576,-8.199405 z"
       style="fill:none;stroke:none"
       inkscape:connector-curvature="0"
       sodipodi:nodetypes="csssscssc" />
    <path
       id="rect5265-4-6-4"
       d="m 45.412901,30.226501 0,3.452381 c 0,4.543886 -1.125763,9.797836 -5.262862,9.770834 L 7.3187187,43.23543 C 3.9668347,43.21355 2.6272858,38.222768 2.6272858,33.678882 l 0,-3.452381 c 0,4.543886 2.6966209,8.199405 6.0485759,8.199405 l 30.6884633,0 c 3.351955,0 6.048576,-3.655519 6.048576,-8.199405 z"
       style="fill:#000000;fill-opacity:0.17647059;stroke:none"
       inkscape:connector-curvature="0"
       sodipodi:nodetypes="csssscssc" />
    <path
       id="rect5265-4-6-7"
       d="m 45.090563,31.256197 0,0.766958 c 0,2.402297 -2.013438,6.46502 -7.215019,6.456338 L 9.353012,38.431893 C 5.0124019,38.424643 3.521115,35.640947 3.2237113,34.451726 L 2.5451399,31.73834 c 0,1.00944 2.1454152,5.625096 7.9869031,5.625096 l 26.660904,0 c 6.447577,0 7.897616,-5.097799 7.897616,-6.107239 z"
       style="fill:#ffffff;fill-opacity:0.17647059;stroke:none"
       inkscape:connector-curvature="0"
       sodipodi:nodetypes="csssscssc" />
    <g
       id="g4370">
      <path
         style="fill:#daff8f;fill-opacity:0.43921599;fill-rule:evenodd"
         inkscape:connector-curvature="0"
         class="fil21"
         d="m 30.990964,35.768757 c -0.40748,0 -0.797244,-0.126378 -1.08898,-0.330709 l 0,0.0012 c -0.274016,-0.191339 -0.478346,-0.451181 -0.577559,-0.755906 -0.09921,0.304724 -0.303543,0.564567 -0.577559,0.755906 l 0,-0.0012 c -0.291732,0.204331 -0.679134,0.330709 -1.0878,0.330709 l -7.14094,0 c -0.408661,0 -0.796063,-0.126378 -1.0878,-0.330709 l 0,0.0012 c -0.274016,-0.191339 -0.478346,-0.451181 -0.577559,-0.755906 -0.09921,0.304724 -0.303543,0.564567 -0.577559,0.755906 l 0,-0.0012 c -0.291732,0.204331 -0.681496,0.330709 -1.08898,0.330709 l -6.32244,0 c -0.40748,0 -0.797244,-0.126378 -1.08898,-0.330709 l 0,0.0012 C 9.38032,35.164051 9.131107,34.747122 9.131107,34.259328 c 0,-0.509055 0.25748,-0.908268 0.673228,-1.16929 l -0.0012,-0.0024 c 0.291731,-0.183052 0.669684,-0.285808 1.060629,-0.285808 l 6.32244,0 c 0.389764,0 0.767717,0.102756 1.06063,0.285827 l -0.0012,0.0024 c 0.291732,0.183071 0.505512,0.434646 0.607087,0.744094 0.100394,-0.308268 0.312992,-0.559843 0.604724,-0.742913 l -0.0024,-0.0035 c 0.28937,-0.183071 0.669685,-0.285827 1.06299,-0.285827 l 7.14094,0 c 0.393307,0 0.773622,0.102756 1.06299,0.285827 l -0.0024,0.0035 c 0.291732,0.183071 0.504331,0.434646 0.604724,0.742913 0.101575,-0.309449 0.315354,-0.561024 0.607087,-0.744094 l -0.0012,-0.0024 c 0.292913,-0.183071 0.670866,-0.285827 1.06063,-0.285827 l 6.4311,0 c 0.390945,0 0.768898,0.102756 1.06063,0.285827 l -0.0012,0.0024 c 0.415748,0.261024 0.673228,0.660236 0.673228,1.16929 0,0.487795 -0.249213,0.904724 -0.643701,1.17992 l 0,-0.0012 c -0.291732,0.204331 -0.681496,0.330709 -1.08898,0.330709 l -6.4311,0 z"
         id="path5246" />
      <g
         transform="translate(-0.1724363,-2.178843)"
         id="_113919624"
         style="fill-rule:evenodd">
        <path
           style="fill:#000000;fill-rule:nonzero"
           inkscape:connector-curvature="0"
           id="_57639256"
           class="fil36"
           d="m 24.9673,15.8953 c 0.323622,0.323622 0.531496,0.687402 0.633071,1.07244 0.295276,-0.328346 0.596457,-0.655512 0.902362,-0.980315 l -1.29213,-1.17402 0,-0.0035 -1.35709,-1.24252 -0.0035,0 c -0.472441,-0.433465 -0.977953,-0.912992 -1.45984,-1.36772 l -0.0035,-0.0035 c -0.522047,-0.494882 -1.02283,-0.970866 -1.38071,-1.29449 l -0.39685,0.284646 0,-0.772441 C 20.373987,10.02521 20.311388,9.6980454 20.365719,9.3732434 l 0.0035,-0.011811 c 0.02717,-0.152362 0.06968,-0.276378 0.124016,-0.381496 l -3.16417,0 c 1.14685,1.0511796 2.35276,2.1366096 3.55748,3.2232296 l 0.269291,0.242126 1.84606,1.66535 0.0047,0.0035 1.9252,1.75039 0.03543,0.03071 z" />
        <path
           style="fill:#daff8f;fill-rule:nonzero"
           inkscape:connector-curvature="0"
           id="_59904072"
           class="fil37"
           d="m 31.4858,11.0126 -0.0024,0.05079 c -0.02835,0.276378 -0.0874,0.505512 -0.168898,0.685039 l -0.0012,0.0035 c -0.09094,0.198425 -0.204331,0.320079 -0.32126,0.364961 l 0,0.0012 c -0.0378,0.01417 -0.07913,0.02008 -0.121654,0.0189 l 0,0.0035 c -0.04252,0 -0.08858,-0.01299 -0.132283,-0.03071 l -0.0059,-0.0024 -0.05433,-0.02244 -0.263386,-0.112205 -0.01063,-0.216142 c -0.06142,-0.115748 -0.115748,-0.256299 -0.153543,-0.414567 l 0,-0.0047 c -0.0248,-0.102756 -0.0437,-0.211417 -0.05669,-0.324803 l 1.29213,0 z" />
        <path
           style="fill:#9bba65;fill-opacity:0.50196078;fill-rule:nonzero"
           inkscape:connector-curvature="0"
           id="_108472680"
           class="fil24"
           d="m 16.285,29.3138 c -0.06378,-0.09331 -0.122835,-0.196063 -0.172441,-0.308268 l -0.0047,-0.01181 C 16.03815,28.83191 15.985,28.664193 15.947205,28.490571 l -0.0189,-0.184252 c -0.0012,-0.07441 -0.0083,-0.140551 -0.01417,-0.193701 l -0.03189,-0.200787 -0.03071,-0.190157 -0.0047,-0.02362 c -0.01181,-0.09449 -0.02362,-0.211417 -0.0248,-0.364961 l 0.02717,-0.253937 c 0.04488,-0.18189 0.09213,-0.337795 0.141732,-0.474803 0.05079,-0.140551 0.115748,-0.27874 0.196063,-0.421654 l 0.0035,-0.01181 c 0.07677,-0.132283 0.17126,-0.262205 0.283465,-0.392126 0.09213,-0.10748 0.187795,-0.204331 0.290551,-0.301181 l 0.0094,-0.01063 -0.0012,-0.0012 0.02008,-0.02008 6.78898,-7.62874 c 0.06614,-0.108661 0.100394,-0.211417 0.09803,-0.294094 -0.0024,-0.05551 -0.04488,-0.129921 -0.127559,-0.212598 l 0.0012,-0.0012 -1.89094,-1.7185 -1.84134,-1.66181 -0.269291,-0.242126 c -1.26142,-1.1374 -2.52874,-2.27953 -3.64961,-3.30709 l 0.0012,-0.0012 -0.100394,-0.09213 -0.0012,0.0012 -0.0189,-0.01653 -0.02717,-0.02126 -0.0012,-0.0012 0.0024,-0.0024 C 15.647159,10.147964 15.536136,10.047569 15.429837,9.9117417 15.22905,9.6578047 15.099128,9.3589857 15.105034,8.9987497 l -0.0024,0 0,-0.170079 0.0071,-0.101575 c 0.0189,-0.18189 0.04252,-0.346063 0.07559,-0.491339 l 0.0035,-0.011811 c 0.05669,-0.23622 0.148819,-0.440551 0.290551,-0.620079 l -0.0024,-0.00236 0.04016,-0.047244 c 0.699213,0.552756 1.49882,1.14921 1.76339,1.10433 0.349606,-0.059055 7.75276,-0.116929 11.1732,-0.140551 l 0,0.185433 c -2.51693,-0.281102 -7.38543,-0.100394 -7.38543,0.334252 0.263386,0.043701 1.34173,0.572835 2.20039,1.0098393 l -0.252756,0 0.741732,0.699213 c 0.458268,0.432283 0.934252,0.883465 1.44331,1.35118 l -0.0012,0.0012 1.35354,1.24016 0.0012,-0.0024 1.48346,1.34882 0.02717,0.02717 c 0.145276,0.142913 0.264567,0.285827 0.357874,0.431102 l 0.0012,-0.0012 c 0.122835,0.190157 0.196063,0.388583 0.222047,0.596457 -0.897638,-0.02953 -2.19921,0.894094 -2.19921,0.894094 l -3.48425,4.32874 -3.33425,3.56929 c 0,0 -0.108661,0.955512 -0.179528,1.8189 l -0.0012,-0.0012 -0.201969,0 -0.151181,-0.484252 -0.84685,0.950787 -0.03898,0.0437 -0.02126,0.02126 -0.02008,0.01535 c -0.08268,0.07795 -0.15,0.144094 -0.186614,0.186614 l -0.06378,0.0874 -0.0012,-0.0012 -0.04961,0.122835 -0.0437,0.133465 0.0012,0.0083 -0.0012,0 0.02717,0.166535 0.03662,0.226772 0.0047,0.03071 0.02126,0.230315 0.266929,0 0.999213,0 0,0.0024 5.44724,-0.01063 c -2.24291,0.132283 -4.54843,0.279921 -5.9811,0.401575 -1.21654,0.103937 -1.93819,0.438189 -2.35984,0.832677 z" />
        <path
           style="fill:#c3e671;fill-rule:nonzero"
           inkscape:connector-curvature="0"
           id="_47491840"
           class="fil38"
           d="m 28.6465,15.7394 0.01063,0.127559 0.0035,0.03071 0,0.0012 -0.0035,0 c 0.0035,0.230315 -0.05079,0.45 -0.158268,0.681496 -0.07441,0.16063 -0.180709,0.329528 -0.31063,0.512598 l -0.08976,0.109843 c -0.654331,0.688583 -1.25551,1.35827 -1.82362,2.01378 -0.533858,0.615354 -1.12087,1.31339 -1.70787,2.01378 -0.539764,0.643701 -1.11024,1.29331 -1.72323,1.97008 -0.563386,0.623622 -1.09488,1.19409 -1.63346,1.76339 l 0.629528,0.0047 -2.28071,1.48819 -0.109843,-0.106299 c 0.07087,-0.863386 0.179528,-1.8189 0.179528,-1.8189 l 3.33425,-3.56929 3.48425,-4.32874 c 0,0 1.30157,-0.923622 2.19921,-0.894094 z" />
        <path
           style="fill:#9bba65;fill-rule:nonzero"
           inkscape:connector-curvature="0"
           id="_112951032"
           class="fil25"
           d="m 33.339,24.7476 0.0047,0.618898 -1.93346,0 0,2.63622 -0.06968,-0.07323 0.0071,-0.509055 0,-0.0035 0.0094,-0.608268 c -0.05906,0.02835 -0.119291,0.05433 -0.18189,0.07677 l -0.0012,-0.0024 c -0.18189,0.06732 -0.369685,0.109843 -0.569291,0.132283 l -0.08622,0.0035 -0.03898,0.0012 -0.03071,0 -1.69134,-0.01181 c 1.40906,-0.194882 2.43307,-0.395669 2.53819,-0.501969 0.232677,-0.233858 -0.569291,-0.959055 -1.2189,-1.47992 l 0.02835,0 c 0.0059,-0.452362 0.05433,-0.992126 0.282283,-1.42677 l 0,-0.0035 c 0.200787,-0.382677 0.519685,-0.660236 0.869291,-0.79252 l 0,0.0012 c 0.287008,-0.108661 0.590551,-0.126378 0.890551,-0.04252 0.285827,0.07913 0.551575,0.253937 0.761811,0.522047 0.252756,0.322441 0.427559,0.809055 0.429921,1.46339 z" />
        <path
           style="fill:#9bba65;fill-opacity:0.50196078;fill-rule:nonzero"
           inkscape:connector-curvature="0"
           id="_57945112"
           class="fil24"
           d="m 33.3437,25.3665 0.0071,0.891732 0,0.0047 c 0.0035,0.374409 -0.0047,0.786614 -0.01181,1.1811 l 0,0.0035 -0.01181,0.87874 0,0.05906 c -0.01535,0.214961 -0.05197,0.409843 -0.113386,0.584646 l -0.0012,0 c -0.08268,0.237402 -0.207874,0.434646 -0.379134,0.594094 -0.524409,-0.601181 -1.09724,-1.21535 -1.42323,-1.56142 l 0,-2.63622 1.93346,0 z" />
        <path
           style="fill:#daff8f;fill-rule:nonzero"
           inkscape:connector-curvature="0"
           id="_58677640"
           class="fil37"
           d="m 21.0685,9.0378 c 0.263386,0.043701 1.34173,0.572835 2.20039,1.00984 l 6.08504,-0.0047 0,0.05906 c 0.585827,-0.2988193 1.19528,-0.7629923 0.350787,-1.1397603 -1.36299,-0.608268 -8.63622,-0.455906 -8.63622,0.075591 z" />
        <path
           style="fill:#daff8f;fill-rule:nonzero"
           inkscape:connector-curvature="0"
           id="_56933200"
           class="fil39"
           d="m 32.8335,29.5642 -0.03425,0.03189 c -0.166535,0.145276 -0.370866,0.258661 -0.611811,0.334252 -0.159449,0.04961 -0.354331,0.08976 -0.581102,0.120472 l -0.132283,0.0071 -13.2945,0.02598 0,0.0024 -0.494882,0 -0.01181,-0.0012 -0.49252,0 0,-0.112205 c -0.08858,-0.03307 -0.172441,-0.0685 -0.252756,-0.109843 -0.185433,-0.09449 -0.346063,-0.210236 -0.480709,-0.350787 l -0.0083,-0.0071 c -0.05551,-0.05906 -0.105118,-0.122835 -0.153543,-0.191339 0.421654,-0.394488 1.14331,-0.72874 2.35984,-0.832677 1.43268,-0.121654 3.73819,-0.269291 5.9811,-0.401575 l 6.71339,-0.01299 0.0012,-0.137008 c 0.308268,0.325984 0.928346,0.987402 1.49291,1.63465 z" />
        <path
           style="fill:#9bba65;fill-opacity:0.78039198;fill-rule:nonzero"
           inkscape:connector-curvature="0"
           id="_60104184"
           class="fil40"
           d="m 21.8398,24.9685 8.23701,0.05787 c 0.649606,0.520866 1.45157,1.24606 1.2189,1.47992 -0.105118,0.106299 -1.12913,0.307087 -2.53819,0.501969 l -7.90866,-0.05551 0,0.0035 -0.0094,0 -0.02717,-0.0035 c -0.244488,-0.0071 -0.466535,-0.05551 -0.660236,-0.129921 l -0.01181,-0.0035 C 19.929963,26.73661 19.731538,26.611413 19.560278,26.45787 l -0.0012,-0.0012 2.28071,-1.48819 z" />
        <path
           style="fill:#9bba65;fill-rule:nonzero"
           inkscape:connector-curvature="0"
           id="_56153024"
           class="fil25"
           d="m 15.5173,7.55433 c 0.144094,-0.166535 0.330709,-0.3 0.565748,-0.398031 l 0.0035,0 C 16.255489,7.086614 16.446827,7.034645 16.671237,6.99685 l 0.167717,-0.015354 13.6524,0 0.199606,0.022441 c 0.210236,0.04252 0.398031,0.10748 0.559843,0.184252 l 0.0083,0.00354 c 0.200787,0.09685 0.373228,0.220866 0.516142,0.361417 0.07087,0.068504 0.133465,0.145276 0.190157,0.229134 l -1.80591,0.724016 c 0,0 -12.424,0.075591 -12.8787,0.152362 -0.264567,0.044882 -1.06417,-0.551575 -1.76339,-1.10433 z" />
        <path
           inkscape:connector-curvature="0"
           id="_61329104"
           class="fil41"
           d="m 32.3433,24.7512 c 0.0024,0.46063 0.0071,0.995669 0.01181,1.51535 0.0059,0.647244 -0.02362,1.44803 -0.02362,2.04803 -0.0189,0.263386 -0.07559,0.432283 -0.184252,0.527953 -0.125197,0.109843 -0.346063,0.174803 -0.673228,0.219685 l -13.2945,0.02598 0,-0.0012 -0.494882,0 c -0.239764,-0.06732 -0.408661,-0.15 -0.519685,-0.265748 -0.112205,-0.11811 -0.187795,-0.292913 -0.240945,-0.542126 -0.0059,-0.235039 -0.03189,-0.380315 -0.05787,-0.523228 -0.02244,-0.119291 -0.04488,-0.242126 -0.04843,-0.434646 0.07323,-0.290551 0.144094,-0.488976 0.23622,-0.650787 0.09449,-0.162992 0.226772,-0.309449 0.426378,-0.497244 l 0.02126,-0.02126 6.86339,-7.7126 c 0.421654,-0.609449 0.444094,-1.2874 -0.105118,-1.83661 -1.32402,-1.21181 -2.55236,-2.3185 -3.77126,-3.41575 -1.33701,-1.20472 -2.68228,-2.41535 -3.91063,-3.5421296 l -0.0035,-0.00236 -0.111024,-0.100394 -0.0012,-0.00118 c -0.184252,-0.162992 -0.367323,-0.325984 -0.361417,-0.532677 l 0.0012,-0.00945 0,-0.170079 c 0.02953,-0.291732 0.06614,-0.493701 0.16063,-0.61063 0.08858,-0.111024 0.262205,-0.184252 0.576378,-0.237402 l 13.6524,0 c 0.258661,0.05315 0.453543,0.153543 0.584646,0.283465 0.138189,0.137008 0.233858,0.442913 0.249213,0.641339 l -0.0047,1.9310996 c -0.04252,0.18189 -0.165354,0.275197 -0.302362,0.297638 -0.07087,0.01181 -0.148819,0.0094 -0.223228,-0.0047 L 30.774894,10.9382 c -0.08031,-0.01535 -0.13937,0.144094 -0.201969,0.10748 l -0.0012,-0.0024 c -0.151181,-0.0874 -0.256299,-0.235039 -0.224409,-0.405118 l 0.0059,-0.06378 0,-0.7039367 -0.01535,-0.105118 c -0.09449,-0.28937 -0.229134,-0.459449 -0.388583,-0.563386 l 0,-0.00118 c -0.161811,-0.106299 -0.312992,-0.131102 -0.475984,-0.151181 l -0.0437,-0.00236 -7.18346,0.00591 -0.04961,0.00236 -0.05433,0.00827 c -0.155906,0.022441 -0.364961,0.056693 -0.533858,0.178346 l 0,-0.00118 c -0.272835,0.197244 -0.405118,0.317717 -0.03071,0.8291337 l 0.04843,0.05079 c 0.852756,0.77126 1.87205,1.76929 2.89961,2.71181 0.885827,0.812598 1.78583,1.63701 2.84055,2.59134 0.19252,0.190157 0.291732,0.337795 0.295276,0.473622 l 0,0.0012 c 0.0035,0.152362 -0.09095,0.344882 -0.285827,0.616535 -1.31102,1.37953 -2.4437,2.72835 -3.57402,4.0748 -1.12913,1.34528 -2.22402,2.53937 -3.50551,3.88819 -0.161811,0.113386 -0.264567,0.255118 -0.315354,0.40748 -0.05197,0.155906 -0.04842,0.316535 -0.0012,0.464173 l 0.0012,0 c 0.0437,0.13937 0.131102,0.265748 0.243307,0.366142 l 0,0 c 0.155906,0.13937 0.370866,0.232677 0.615354,0.240945 l 0.0094,0 9.60354,0.06732 0.03898,-0.0012 c 0.264567,-0.02953 0.454724,-0.09803 0.594094,-0.219685 l 0.0024,-0.0024 c 0.07441,-0.0685 -0.101575,-1.20236 0.18189,-1.74094 0.302362,-0.574016 1.0689,-0.522047 1.07362,0.690945 z"
           style="fill:url(#linearGradient4390);fill-rule:nonzero" />
      </g>
      <path
         style="fill:#94b35f;fill-rule:nonzero"
         inkscape:connector-curvature="0"
         class="fil42"
         d="m 9.134654,31.239257 c 0.03189,-0.464173 0.281102,-0.827953 0.669685,-1.07244 l -0.0012,-0.0024 c 0.291732,-0.183071 0.669685,-0.285827 1.06063,-0.285827 l 6.32244,0 c 0.389764,0 0.767717,0.102756 1.06063,0.285827 l -0.0012,0.0024 c 0.291732,0.183071 0.505512,0.434646 0.607087,0.744094 0.100394,-0.308268 0.312992,-0.559843 0.604724,-0.742913 l -0.0024,-0.0035 c 0.28937,-0.183071 0.669685,-0.285827 1.06299,-0.285827 l 7.14094,0 c 0.393307,0 0.773622,0.102756 1.06299,0.285827 l -0.0024,0.0035 c 0.291732,0.183071 0.504331,0.434646 0.604724,0.742913 0.101575,-0.309449 0.315354,-0.561024 0.607087,-0.744094 l -0.0012,-0.0024 c 0.292913,-0.183071 0.670866,-0.285827 1.06063,-0.285827 l 6.4311,0 c 0.390945,0 0.768898,0.102756 1.06063,0.285827 l -0.0012,0.0024 c 0.388583,0.244488 0.638976,0.609449 0.669685,1.07244 l -30.0165,0 z"
         id="path5283" />
      <path
         style="fill:#daff8f;fill-opacity:0.43921599;fill-rule:nonzero"
         inkscape:connector-curvature="0"
         class="fil43"
         d="m 30.990964,32.845557 c -0.40748,0 -0.797244,-0.126378 -1.08898,-0.330709 l 0,0.0012 c -0.274016,-0.191339 -0.478346,-0.451181 -0.577559,-0.755906 -0.09921,0.304724 -0.303543,0.564567 -0.577559,0.755906 l 0,-0.0012 c -0.291732,0.204331 -0.679134,0.330709 -1.0878,0.330709 l -7.14094,0 c -0.408661,0 -0.796063,-0.126378 -1.0878,-0.330709 l 0,0.0012 c -0.274016,-0.191339 -0.478346,-0.451181 -0.577559,-0.755906 -0.09921,0.304724 -0.303543,0.564567 -0.577559,0.755906 l 0,-0.0012 c -0.291732,0.204331 -0.681496,0.330709 -1.08898,0.330709 l -6.32244,0 c -0.40748,0 -0.797244,-0.126378 -1.08898,-0.330709 l 0,0.0012 C 9.38032,32.240832 9.131107,31.823903 9.131107,31.336109 l 0.0035,-0.09685 30.0165,0 0.0035,0.09685 c 0,0.487795 -0.249213,0.904724 -0.643701,1.17992 l 0,-0.0012 c -0.291732,0.204331 -0.681496,0.330709 -1.08898,0.330709 l -6.4311,0 z"
         id="path5285" />
      <path
         style="fill:#f2f2f2;fill-rule:nonzero"
         inkscape:connector-curvature="0"
         class="fil44"
         d="m 30.990964,31.846357 c -0.405118,0 -0.733465,-0.229134 -0.733465,-0.510236 0,-0.282283 0.328346,-0.458268 0.733465,-0.458268 l 6.4311,0 c 0.405118,0 0.733465,0.175984 0.733465,0.458268 0,0.281102 -0.328346,0.510236 -0.733465,0.510236 l -6.4311,0 z m -20.1272,0 c -0.405118,0 -0.733465,-0.229134 -0.733465,-0.510236 0,-0.282283 0.328346,-0.458268 0.733465,-0.458268 l 6.32244,0 c 0.405118,0 0.733465,0.175984 0.733465,0.458268 0,0.281102 -0.328346,0.510236 -0.733465,0.510236 l -6.32244,0 z m 9.65433,0 c -0.403937,0 -0.732283,-0.229134 -0.732283,-0.510236 0,-0.282283 0.328346,-0.458268 0.732283,-0.458268 l 7.14094,0 c 0.403937,0 0.732283,0.175984 0.732283,0.458268 0,0.281102 -0.328346,0.510236 -0.732283,0.510236 l -7.14094,0 z"
         id="path5287" />
      <path
         style="fill:#94b35f;fill-rule:nonzero"
         inkscape:connector-curvature="0"
         class="fil42"
         d="m 9.134654,34.163657 c 0.02953,-0.462992 0.279921,-0.829134 0.669685,-1.07362 l -0.0012,-0.0024 c 0.291732,-0.183071 0.669685,-0.285827 1.06063,-0.285827 l 6.32244,0 c 0.389764,0 0.767717,0.102756 1.06063,0.285827 l -0.0012,0.0024 c 0.291732,0.183071 0.505512,0.434646 0.607087,0.744094 0.100394,-0.308268 0.312992,-0.559843 0.604724,-0.742913 l -0.0024,-0.0035 c 0.28937,-0.183071 0.669685,-0.285827 1.06299,-0.285827 l 7.14094,0 c 0.393307,0 0.773622,0.102756 1.06299,0.285827 l -0.0024,0.0035 c 0.291732,0.183071 0.504331,0.434646 0.604724,0.742913 0.101575,-0.309449 0.315354,-0.561024 0.607087,-0.744094 l -0.0012,-0.0024 c 0.292913,-0.183071 0.670866,-0.285827 1.06063,-0.285827 l 6.4311,0 c 0.390945,0 0.768898,0.102756 1.06063,0.285827 l -0.0012,0.0024 c 0.389764,0.244488 0.640157,0.61063 0.669685,1.07362 l -30.0165,0 z"
         id="path5289" />
      <path
         style="fill:#f2f2f2;fill-rule:nonzero"
         inkscape:connector-curvature="0"
         class="fil44"
         d="m 30.990964,34.769557 c -0.405118,0 -0.733465,-0.229134 -0.733465,-0.510236 0,-0.282283 0.328346,-0.458268 0.733465,-0.458268 l 6.4311,0 c 0.405118,0 0.733465,0.175984 0.733465,0.458268 0,0.281102 -0.328346,0.510236 -0.733465,0.510236 l -6.4311,0 z m -20.1272,0 c -0.405118,0 -0.733465,-0.229134 -0.733465,-0.510236 0,-0.282283 0.328346,-0.458268 0.733465,-0.458268 l 6.32244,0 c 0.405118,0 0.733465,0.175984 0.733465,0.458268 0,0.281102 -0.328346,0.510236 -0.733465,0.510236 l -6.32244,0 z m 9.65433,0 c -0.403937,0 -0.732283,-0.229134 -0.732283,-0.510236 0,-0.282283 0.328346,-0.458268 0.732283,-0.458268 l 7.14094,0 c 0.403937,0 0.732283,0.175984 0.732283,0.458268 0,0.281102 -0.328346,0.510236 -0.732283,0.510236 l -7.14094,0 z"
         id="path5291" />
    </g>
  </g>
  <g
     inkscape:groupmode="layer"
     id="layer2"
     inkscape:label="Layer" />
</svg>
