<?xml version="1.0" encoding="UTF-8" standalone="no"?>
<!-- Created with Inkscape (http://www.inkscape.org/) -->

<svg
   xmlns:dc="http://purl.org/dc/elements/1.1/"
   xmlns:cc="http://creativecommons.org/ns#"
   xmlns:rdf="http://www.w3.org/1999/02/22-rdf-syntax-ns#"
   xmlns:svg="http://www.w3.org/2000/svg"
   xmlns="http://www.w3.org/2000/svg"
   xmlns:xlink="http://www.w3.org/1999/xlink"
   xmlns:sodipodi="http://sodipodi.sourceforge.net/DTD/sodipodi-0.dtd"
   xmlns:inkscape="http://www.inkscape.org/namespaces/inkscape"
   width="48px"
   height="48px"
   id="svg85312"
   version="1.1"
   inkscape:version="0.48.3.1 r9886"
   sodipodi:docname="libreoffice-writer.svg">
  <defs
     id="defs85314">
    <linearGradient
       inkscape:collect="always"
       xlink:href="#id2-34"
       id="linearGradient85135"
       gradientUnits="userSpaceOnUse"
       gradientTransform="translate(-0.13435794,-2.4066622)"
       x1="27.2008"
       y1="29.7024"
       x2="26.5063"
       y2="8.3586597" />
    <linearGradient
       y2="8.3586597"
       x2="26.5063"
       y1="29.7024"
       x1="27.2008"
       gradientUnits="userSpaceOnUse"
       id="id2-34">
      <stop
         id="stop84798"
         style="stop-color:#F3F3F3"
         offset="0" />
      <stop
         id="stop84800"
         style="stop-color:white"
         offset="1" />
    </linearGradient>
    <linearGradient
       inkscape:collect="always"
       xlink:href="#id6-8"
       id="linearGradient85138"
       gradientUnits="userSpaceOnUse"
       gradientTransform="translate(-0.13435794,-2.4066622)"
       x1="23.7803"
       y1="15.9673"
       x2="29.737801"
       y2="21.336599" />
    <linearGradient
       y2="21.336599"
       x2="29.737801"
       y1="15.9673"
       x1="23.7803"
       gradientUnits="userSpaceOnUse"
       id="id6-8">
      <stop
         id="stop84818"
         style="stop-color:#5A93C4"
         offset="0" />
      <stop
         id="stop84820"
         style="stop-color:#76B5EA"
         offset="1" />
    </linearGradient>
  </defs>
  <sodipodi:namedview
     id="base"
     pagecolor="#ffffff"
     bordercolor="#666666"
     borderopacity="1.0"
     inkscape:pageopacity="0.0"
     inkscape:pageshadow="2"
     inkscape:zoom="4.9497475"
     inkscape:cx="-1.0951646"
     inkscape:cy="27.016039"
     inkscape:current-layer="layer1"
     showgrid="true"
     inkscape:grid-bbox="true"
     inkscape:document-units="px"
     inkscape:window-width="1024"
     inkscape:window-height="723"
     inkscape:window-x="0"
     inkscape:window-y="22"
     inkscape:window-maximized="1" />
  <metadata
     id="metadata85317">
    <rdf:RDF>
      <cc:Work
         rdf:about="">
        <dc:format>image/svg+xml</dc:format>
        <dc:type
           rdf:resource="http://purl.org/dc/dcmitype/StillImage" />
        <dc:title />
      </cc:Work>
    </rdf:RDF>
  </metadata>
  <g
     id="layer1"
     inkscape:label="Layer 1"
     inkscape:groupmode="layer">
    <rect
       ry="6.2786646"
       y="-44.583736"
       x="1.699003"
       height="44.399963"
       width="44.399963"
       id="rect5263-6-7"
       style="fill:#000000;fill-opacity:0.01960784;stroke:none"
       transform="scale(1,-1)" />
    <rect
       style="fill:#000000;fill-opacity:0.03921569;stroke:none"
       id="rect5261-8-3"
       width="43.799973"
       height="43.799973"
       x="1.9989909"
       y="-44.283627"
       ry="6.1938181"
       transform="scale(1,-1)" />
    <rect
       ry="6.1089716"
       y="-43.983578"
       x="2.2989786"
       height="43.199982"
       width="43.199982"
       id="rect5259-7-5"
       style="fill:#000000;fill-opacity:0.07843137;stroke:none"
       transform="scale(1,-1)" />
    <rect
       style="fill:#000000;fill-opacity:0.15686275;stroke:none"
       id="rect5257-4-5"
       width="42.599991"
       height="42.599991"
       x="2.5989969"
       y="-43.68359"
       ry="6.0241251"
       transform="scale(1,-1)" />
    <rect
       ry="5.9392786"
       y="-43.383724"
       x="2.8989847"
       height="42"
       width="42"
       id="rect5237-5-2"
       style="fill:#80b3ff;fill-opacity:1;stroke:none"
       transform="scale(1,-1)" />
    <path
       id="rect5265-4-6"
       d="m 45.270043,30.369358 0,3.452381 c 0,4.543886 -1.125763,9.797836 -5.262862,9.770834 L 7.1758617,43.378287 C 3.8239777,43.35641 2.4844286,38.365625 2.4844286,33.821739 l 0,-3.452381 c 0,4.543886 2.6966206,8.199405 6.048576,8.199405 l 30.6884624,0 c 3.351955,0 6.048576,-3.655519 6.048576,-8.199405 z"
       style="fill:none;stroke:none"
       inkscape:connector-curvature="0"
       sodipodi:nodetypes="csssscssc" />
    <path
       id="rect5265-4-6-4"
       d="m 45.412901,30.226501 0,3.452381 c 0,4.543886 -1.125763,9.797836 -5.262862,9.770834 L 7.3187187,43.23543 C 3.9668347,43.21355 2.6272858,38.222768 2.6272858,33.678882 l 0,-3.452381 c 0,4.543886 2.6966209,8.199405 6.0485759,8.199405 l 30.6884633,0 c 3.351955,0 6.048576,-3.655519 6.048576,-8.199405 z"
       style="fill:#000000;fill-opacity:0.17647059;stroke:none"
       inkscape:connector-curvature="0"
       sodipodi:nodetypes="csssscssc" />
    <path
       id="rect5265-4-6-7"
       d="m 45.090563,31.256197 0,0.766958 c 0,2.402297 -2.013438,6.46502 -7.215019,6.456338 L 9.353012,38.431893 C 5.0124019,38.424643 3.521115,35.640947 3.2237113,34.451726 L 2.5451399,31.73834 c 0,1.00944 2.1454152,5.625096 7.9869031,5.625096 l 26.660904,0 c 6.447577,0 7.897616,-5.097799 7.897616,-6.107239 z"
       style="fill:#ffffff;fill-opacity:0.17647059;stroke:none"
       inkscape:connector-curvature="0"
       sodipodi:nodetypes="csssscssc" />
    <path
       style="fill:#5a93c4;fill-opacity:0.43921599;fill-rule:nonzero"
       inkscape:connector-curvature="0"
       id="_109255960"
       class="fil42"
       d="m 21.103042,25.605539 0.662598,-1.5874 1.94409,-0.496063 7.56378,-7.64646 c 1.30866,-1.91811 2.94094,-2.84882 3.62008,-3.5374 l 0.224409,0.748819 0.305906,0.387402 -11.139,11.765 -0.399213,0.04606 -2.78268,0.320079 z" />
    <path
       style="fill:#a1d6f9;fill-rule:nonzero"
       inkscape:connector-curvature="0"
       id="_107811824"
       class="fil43"
       d="m 37.195542,11.786639 c 0.451181,0.327165 0.890551,0.612992 1.30512,0.83622 -0.282283,0.872835 -1.0252,1.57559 -1.62756,2.14488 l -0.0012,-0.0012 -0.316535,0.305906 -10.8768,10.9925 -0.207874,0.16063 -0.270472,0.158268 -1.31457,-1.09843 0.399213,-0.04606 12.7276,-13.4433 0.183071,-0.0094 z" />
    <path
       style="fill:#a1d6f9;fill-opacity:0.43921599;fill-rule:nonzero"
       inkscape:connector-curvature="0"
       id="_108318808"
       class="fil44"
       d="m 25.200242,26.383939 -0.05551,0.03189 -0.269291,0.108661 -7.67008,1.82126 0,0.0012 -0.768898,0.183071 c -0.297638,0.07087 -0.523228,0.07677 -0.740551,0.03307 -0.311811,-0.0626 -0.474803,-0.186614 -0.656693,-0.360236 l -0.01181,-0.0071 C 14.891582,28.06229 14.799456,27.952448 14.73922,27.853235 l 2.20157,-1.66654 -0.04016,0.178346 2.61496,-0.620079 0.147638,0.02598 4.22244,-0.485433 1.31457,1.09843 z" />
    <path
       inkscape:connector-curvature="0"
       id="_112689112"
       class="fil45"
       d="m 36.397142,11.178339 c -0.144094,-0.346063 -0.346063,-0.740551 -0.596457,-1.150391 -0.38622,-0.6318901 -0.884646,-1.2885801 -1.45394,-1.8555104 -0.453543,-0.452362 -0.95315,-0.84685 -1.47283,-1.12087 -0.408661,-0.216142 -0.831496,-0.360236 -1.25433,-0.39685 l -0.440551,-0.479528 -3.56102,2.6586603 -8.03031,7.8224411 -1.66654,3.41811 -0.27874,3.02953 -0.701575,3.08268 -2.20157,1.66654 c -0.147638,-0.245669 -0.102756,-0.434646 -0.02244,-0.796063 0.0059,-0.02835 0.01654,-0.06968 0.02362,-0.152362 l 0.02362,-0.132283 2.02559,-8.90079 0.105118,-0.277559 0.190157,-0.33189 0.167717,-0.214961 11.5618,-11.3516014 0.0059,-0.0059 c 0.119291,-0.159449 0.296457,-0.340157 0.532677,-0.499606 l -0.0012,-0.0012 c 0.184252,-0.126378 0.419291,-0.249213 0.700394,-0.344882 0.225591,-0.07677 0.491339,-0.13937 0.794882,-0.17126 0.251575,-0.02598 0.532677,-0.03425 0.840945,-0.01417 0.740551,0.04842 1.45276,0.277559 2.11417,0.628346 0.709843,0.374409 1.36772,0.890551 1.95,1.47047 0.690945,0.687402 1.28858,1.4752 1.75157,2.2311003 0.53622,0.87874 0.908268,1.7503911 1.05354,2.4094511 l 0.0047,0.0035 c 0.09567,0.440551 0.06024,0.84685 -0.06142,1.22126 -0.655512,-0.35315 -1.37598,-0.863386 -2.10354,-1.44449 z"
       style="fill:url(#linearGradient85138);fill-rule:nonzero" />
    <path
       inkscape:connector-curvature="0"
       id="_111492648"
       class="fil46"
       d="m 30.392442,7.5252276 c 1.1126,1.2129903 2.99882,3.2527614 4.30157,4.6606314 l 0.651969,0.706299 0.135827,0.146457 -0.13937,0.141732 -1.97717,2.03622 -0.157087,0.158268 -0.148819,-0.165354 -4.92047,-5.4519711 -0.134646,-0.147638 0.144094,-0.141732 1.94291,-1.9500003 0.154724,-0.151181 0.146457,0.158268 z m -9.23386,17.5606014 -2.97756,-3.36378 -0.07323,-0.08386 0.02598,-0.106299 0.740551,-2.96339 0.05669,-0.09803 8.0811,-7.88858 0.155906,-0.152362 0.146457,0.161811 4.93346,5.47205 0.132283,0.147638 -0.138189,0.140551 -7.97953,8.03031 -0.09685,0.05551 -2.79803,0.713386 -0.122835,0.03071 -0.08622,-0.09567 z m 16.4268,-13.4728 c -0.231496,-1.04646 -1.18583,-2.8051211 -2.53583,-4.1480314 -0.980315,-0.975591 -2.16614,-1.72795 -3.42402,-1.81063 -0.529134,-0.03425 -0.941339,0.02835 -1.25315,0.134646 -0.427559,0.145276 -0.667323,0.368504 -0.774803,0.527953 l -0.02598,0.04134 -0.05787,0.04843 0,0 -11.5618,11.3516014 -0.190157,0.33189 -2.02559,8.90079 c -0.03307,0.357874 -0.121654,0.385039 -0.0094,0.493701 0.10748,0.102756 0.183071,0.142913 0.479528,0.07323 l 0,-0.0012 8.43898,-2.00433 0.325984,-0.190157 10.8768,-10.9925 c 0.660236,-0.666142 1.9748,-1.67008 1.7374,-2.75669 z"
       style="fill:url(#linearGradient85135);fill-rule:evenodd" />
    <path
       id="path84906"
       d="m 10.760142,35.54924 c -0.411024,0 -0.7854333,-0.170079 -1.05354,-0.434646 l -0.01181,-0.01181 C 9.438493,34.842941 9.270776,34.482704 9.260146,34.087033 l 20.1437,0 C 29.393216,34.482702 29.2255,34.84294 28.9692,35.102784 l -0.01181,0.01181 c -0.26811,0.264567 -0.64252,0.434646 -1.05354,0.434646 l -17.1437,0 z"
       class="fil47"
       inkscape:connector-curvature="0"
       style="fill:#b0e2fc;fill-opacity:0.43921599;fill-rule:nonzero" />
    <g
       style="fill-rule:evenodd"
       transform="translate(-0.13435794,-2.4066622)"
       id="_61610304">
      <path
         d="m 9.35906,33.3413 c 0.020079,-0.381496 0.184252,-0.726378 0.432283,-0.976772 l 0.011811,-0.01181 c 0.26811,-0.264567 0.64252,-0.434646 1.05354,-0.434646 l 26.8181,0 c 0.411024,0 0.785433,0.170079 1.05354,0.434646 l 0.01181,0.01181 c 0.249213,0.252756 0.413386,0.597638 0.432283,0.976772 l -29.8134,0 z"
         class="fil48"
         id="_113718504"
         inkscape:connector-curvature="0"
         style="fill:#5a93c4;fill-rule:nonzero" />
      <path
         d="m 10.8567,34.9181 c -0.411024,0 -0.785433,-0.170079 -1.05354,-0.434646 l -0.011811,-0.01181 c -0.264567,-0.26811 -0.434646,-0.64252 -0.434646,-1.05354 l 0.00236,-0.07677 29.8134,0 0.0024,0.07677 c 0,0.411024 -0.170079,0.785433 -0.434646,1.05354 l -0.01181,0.01181 C 38.46026,34.748021 38.08585,34.9181 37.67483,34.9181 l -26.8181,0 z"
         class="fil47"
         id="_121488848"
         inkscape:connector-curvature="0"
         style="fill:#b0e2fc;fill-opacity:0.43921599;fill-rule:nonzero" />
      <path
         d="m 10.8567,33.9189 c -0.276378,0 -0.500787,-0.224409 -0.500787,-0.500787 0,-0.276378 0.224409,-0.500787 0.500787,-0.500787 l 26.8181,0 c 0.276378,0 0.500787,0.224409 0.500787,0.500787 0,0.276378 -0.224409,0.500787 -0.500787,0.500787 l -26.8181,0 z"
         class="fil49"
         id="_56268192"
         inkscape:connector-curvature="0"
         style="fill:#f2f2f2;fill-rule:nonzero" />
      <path
         d="m 9.2811,36.4937 0,-0.03779 c 0,-0.409843 0.168898,-0.784252 0.434646,-1.05354 l 0.011811,-0.01181 c 0.26811,-0.264567 0.64252,-0.434646 1.05354,-0.434646 l 17.1437,0 c 0.411024,0 0.785433,0.170079 1.05354,0.434646 l 0.01181,0.01181 c 0.265748,0.269291 0.434646,0.643701 0.434646,1.05354 l 0,0.03779 -20.1437,0 z"
         class="fil48"
         id="_111305464"
         inkscape:connector-curvature="0"
         style="fill:#5a93c4;fill-rule:nonzero" />
      <path
         d="m 10.7811,36.9567 c -0.276378,0 -0.500787,-0.224409 -0.500787,-0.500787 0,-0.276378 0.224409,-0.500787 0.500787,-0.500787 l 17.1437,0 c 0.276378,0 0.500787,0.224409 0.500787,0.500787 0,0.276378 -0.224409,0.500787 -0.500787,0.500787 l -17.1437,0 z"
         class="fil49"
         id="_58236800"
         inkscape:connector-curvature="0"
         style="fill:#f2f2f2;fill-rule:nonzero" />
    </g>
  </g>
</svg>
