<?xml version="1.0" encoding="UTF-8" standalone="no"?>
<!-- Created with Inkscape (http://www.inkscape.org/) -->

<svg
   xmlns:dc="http://purl.org/dc/elements/1.1/"
   xmlns:cc="http://creativecommons.org/ns#"
   xmlns:rdf="http://www.w3.org/1999/02/22-rdf-syntax-ns#"
   xmlns:svg="http://www.w3.org/2000/svg"
   xmlns="http://www.w3.org/2000/svg"
   xmlns:xlink="http://www.w3.org/1999/xlink"
   xmlns:sodipodi="http://sodipodi.sourceforge.net/DTD/sodipodi-0.dtd"
   xmlns:inkscape="http://www.inkscape.org/namespaces/inkscape"
   width="48px"
   height="48px"
   id="svg85312"
   version="1.1"
   inkscape:version="0.48.3.1 r9886"
   sodipodi:docname="libreoffice-writer.svg">
  <defs
     id="defs85314">
    <linearGradient
       inkscape:collect="always"
       xlink:href="#id2-34"
       id="linearGradient85135"
       gradientUnits="userSpaceOnUse"
       gradientTransform="translate(-0.13435794,-2.4066622)"
       x1="27.2008"
       y1="29.7024"
       x2="26.5063"
       y2="8.3586597" />
    <linearGradient
       y2="8.3586597"
       x2="26.5063"
       y1="29.7024"
       x1="27.2008"
       gradientUnits="userSpaceOnUse"
       id="id2-34">
      <stop
         id="stop84798"
         style="stop-color:#F3F3F3"
         offset="0" />
      <stop
         id="stop84800"
         style="stop-color:white"
         offset="1" />
    </linearGradient>
    <linearGradient
       inkscape:collect="always"
       xlink:href="#id6-8"
       id="linearGradient85138"
       gradientUnits="userSpaceOnUse"
       gradientTransform="translate(-0.13435794,-2.4066622)"
       x1="23.7803"
       y1="15.9673"
       x2="29.737801"
       y2="21.336599" />
    <linearGradient
       y2="21.336599"
       x2="29.737801"
       y1="15.9673"
       x1="23.7803"
       gradientUnits="userSpaceOnUse"
       id="id6-8">
      <stop
         id="stop84818"
         style="stop-color:#5A93C4"
         offset="0" />
      <stop
         id="stop84820"
         style="stop-color:#76B5EA"
         offset="1" />
    </linearGradient>
    <linearGradient
       gradientTransform="translate(0.29222044,-2.3996896)"
       inkscape:collect="always"
       xlink:href="#id2"
       id="linearGradient3139"
       gradientUnits="userSpaceOnUse"
       x1="26.438999"
       y1="29.858299"
       x2="26.020901"
       y2="8.2984304" />
    <linearGradient
       id="id2"
       gradientUnits="userSpaceOnUse"
       x1="26.438999"
       y1="29.858299"
       x2="26.020901"
       y2="8.2984304">
      <stop
         offset="0"
         style="stop-color:#EBEBEB"
         id="stop19" />
      <stop
         offset="1"
         style="stop-color:white"
         id="stop21" />
    </linearGradient>
    <linearGradient
       gradientTransform="translate(0.29222044,-2.3996896)"
       inkscape:collect="always"
       xlink:href="#id5"
       id="linearGradient3145"
       gradientUnits="userSpaceOnUse"
       x1="31.0394"
       y1="30.853901"
       x2="31.6583"
       y2="17.5051" />
    <linearGradient
       id="id5"
       gradientUnits="userSpaceOnUse"
       x1="31.0394"
       y1="30.853901"
       x2="31.6583"
       y2="17.5051">
      <stop
         offset="0"
         style="stop-color:#FF8E47"
         id="stop34" />
      <stop
         offset="1"
         style="stop-color:#E6773A"
         id="stop36" />
    </linearGradient>
  </defs>
  <sodipodi:namedview
     id="base"
     pagecolor="#ffffff"
     bordercolor="#666666"
     borderopacity="1.0"
     inkscape:pageopacity="0.0"
     inkscape:pageshadow="2"
     inkscape:zoom="4.9497475"
     inkscape:cx="-9.5930135"
     inkscape:cy="26.897517"
     inkscape:current-layer="layer1"
     showgrid="true"
     inkscape:grid-bbox="true"
     inkscape:document-units="px"
     inkscape:window-width="1024"
     inkscape:window-height="723"
     inkscape:window-x="0"
     inkscape:window-y="22"
     inkscape:window-maximized="1" />
  <metadata
     id="metadata85317">
    <rdf:RDF>
      <cc:Work
         rdf:about="">
        <dc:format>image/svg+xml</dc:format>
        <dc:type
           rdf:resource="http://purl.org/dc/dcmitype/StillImage" />
        <dc:title></dc:title>
      </cc:Work>
    </rdf:RDF>
  </metadata>
  <g
     id="layer1"
     inkscape:label="Layer 1"
     inkscape:groupmode="layer">
    <rect
       ry="6.2786646"
       y="-44.583736"
       x="1.699003"
       height="44.399963"
       width="44.399963"
       id="rect5263-6-7"
       style="fill:#000000;fill-opacity:0.01960784;stroke:none"
       transform="scale(1,-1)" />
    <rect
       style="fill:#000000;fill-opacity:0.03921569;stroke:none"
       id="rect5261-8-3"
       width="43.799973"
       height="43.799973"
       x="1.9989909"
       y="-44.283627"
       ry="6.1938181"
       transform="scale(1,-1)" />
    <rect
       ry="6.1089716"
       y="-43.983578"
       x="2.2989786"
       height="43.199982"
       width="43.199982"
       id="rect5259-7-5"
       style="fill:#000000;fill-opacity:0.07843137;stroke:none"
       transform="scale(1,-1)" />
    <rect
       style="fill:#000000;fill-opacity:0.15686275;stroke:none"
       id="rect5257-4-5"
       width="42.599991"
       height="42.599991"
       x="2.5989969"
       y="-43.68359"
       ry="6.0241251"
       transform="scale(1,-1)" />
    <rect
       ry="5.9392786"
       y="-43.383724"
       x="2.8989847"
       height="42"
       width="42"
       id="rect5237-5-2"
       style="fill:#ff7f2a;fill-opacity:1;stroke:none"
       transform="scale(1,-1)" />
    <path
       id="rect5265-4-6"
       d="m 45.270043,30.369358 0,3.452381 c 0,4.543886 -1.125763,9.797836 -5.262862,9.770834 L 7.1758617,43.378287 C 3.8239777,43.35641 2.4844286,38.365625 2.4844286,33.821739 l 0,-3.452381 c 0,4.543886 2.6966206,8.199405 6.048576,8.199405 l 30.6884624,0 c 3.351955,0 6.048576,-3.655519 6.048576,-8.199405 z"
       style="fill:none;stroke:none"
       inkscape:connector-curvature="0"
       sodipodi:nodetypes="csssscssc" />
    <path
       id="rect5265-4-6-4"
       d="m 45.412901,30.226501 0,3.452381 c 0,4.543886 -1.125763,9.797836 -5.262862,9.770834 L 7.3187187,43.23543 C 3.9668347,43.21355 2.6272858,38.222768 2.6272858,33.678882 l 0,-3.452381 c 0,4.543886 2.6966209,8.199405 6.0485759,8.199405 l 30.6884633,0 c 3.351955,0 6.048576,-3.655519 6.048576,-8.199405 z"
       style="fill:#000000;fill-opacity:0.17647059;stroke:none"
       inkscape:connector-curvature="0"
       sodipodi:nodetypes="csssscssc" />
    <path
       id="rect5265-4-6-7"
       d="m 45.090563,31.256197 0,0.766958 c 0,2.402297 -2.013438,6.46502 -7.215019,6.456338 L 9.353012,38.431893 C 5.0124019,38.424643 3.521115,35.640947 3.2237113,34.451726 L 2.5451399,31.73834 c 0,1.00944 2.1454152,5.625096 7.9869031,5.625096 l 26.660904,0 c 6.447577,0 7.897616,-5.097799 7.897616,-6.107239 z"
       style="fill:#ffffff;fill-opacity:0.17647059;stroke:none"
       inkscape:connector-curvature="0"
       sodipodi:nodetypes="csssscssc" />
  </g>
  <g
     inkscape:groupmode="layer"
     id="layer2"
     inkscape:label="Layer">
    <path
       style="fill:#ba5837;fill-opacity:0.67843095;fill-rule:nonzero"
       inkscape:connector-curvature="0"
       id="path80"
       d="m 32.27412,10.81921 0.03543,-0.0012 0.03071,-0.0035 c 1.32402,0 2.57953,0.322441 3.68268,0.891732 1.14331,0.590551 2.12835,1.45039 2.87126,2.49213 l -1.6252,1.155121 c -0.55748,-0.781891 -1.29921,-1.427951 -2.16024,-1.873231 -0.826772,-0.426378 -1.76929,-0.667323 -2.7685,-0.667323 l 0,-0.0024 -0.0047,0 -0.06142,-1.99134 z"
       class="fil22" />
    <path
       style="fill:none"
       inkscape:connector-curvature="0"
       id="path117"
       d="m 32.30482,11.81491 0.03543,-0.0012 c 2.36929,0 4.46457,1.16929 5.74134,2.9622"
       class="fil42" />
    <path
       style="fill:#ff8e47;fill-opacity:0.43921599;fill-rule:nonzero"
       inkscape:connector-curvature="0"
       id="path119"
       d="m 11.18672,35.556211 c -0.411024,0 -0.785433,-0.170079 -1.05354,-0.434646 l -0.01181,-0.01181 C 9.8650714,34.849912 9.6973544,34.489676 9.6867244,34.094005 l 20.1436996,0 c -0.01063,0.395669 -0.178346,0.755906 -0.434646,1.01575 l -0.01181,0.01181 c -0.26811,0.264567 -0.64252,0.434646 -1.05354,0.434646 l -17.1437,0 z"
       class="fil43" />
    <path
       style="fill:#ba5837;fill-opacity:0.78039198;fill-rule:nonzero"
       inkscape:connector-curvature="0"
       id="path121"
       d="m 9.6512804,30.941611 c 0.02008,-0.381496 0.184252,-0.726378 0.4322826,-0.976772 l 0.01181,-0.01181 c 0.26811,-0.264567 0.64252,-0.434646 1.05354,-0.434646 l 26.8181,0 c 0.411024,0 0.785433,0.170079 1.05354,0.434646 l 0.01181,0.01181 c 0.249213,0.252756 0.413386,0.597638 0.432283,0.976772 l -29.8133996,0 z"
       class="fil44" />
    <path
       style="fill:#ff8e47;fill-opacity:0.43921599;fill-rule:nonzero"
       inkscape:connector-curvature="0"
       id="path123"
       d="m 11.14892,32.518411 c -0.411024,0 -0.785433,-0.170079 -1.05354,-0.434646 l -0.01181,-0.01181 c -0.2645666,-0.26811 -0.4346456,-0.64252 -0.4346456,-1.05354 l 0.0024,-0.07677 29.8133996,0 0.0024,0.07677 c 0,0.411024 -0.170079,0.785433 -0.434646,1.05354 l -0.01181,0.01181 c -0.268147,0.264567 -0.642557,0.434646 -1.053577,0.434646 l -26.8181,0 z"
       class="fil43" />
    <path
       style="fill:#f2f2f2;fill-rule:nonzero"
       inkscape:connector-curvature="0"
       id="path125"
       d="m 11.14892,31.519211 c -0.276378,0 -0.500787,-0.224409 -0.500787,-0.500787 0,-0.276378 0.224409,-0.500787 0.500787,-0.500787 l 26.8181,0 c 0.276378,0 0.500787,0.224409 0.500787,0.500787 0,0.276378 -0.224409,0.500787 -0.500787,0.500787 l -26.8181,0 z"
       class="fil45" />
    <path
       style="fill:#ba5837;fill-opacity:0.78039198;fill-rule:nonzero"
       inkscape:connector-curvature="0"
       id="path127"
       d="m 9.5733204,34.094011 0,-0.03779 c 0,-0.409843 0.168898,-0.784252 0.4346456,-1.05354 l 0.01181,-0.01181 c 0.26811,-0.264567 0.64252,-0.434646 1.05354,-0.434646 l 17.1437,0 c 0.411024,0 0.785433,0.170079 1.05354,0.434646 l 0.01181,0.01181 c 0.265748,0.269291 0.434646,0.643701 0.434646,1.05354 l 0,0.03779 -20.1436996,0 z"
       class="fil44" />
    <path
       style="fill:#f2f2f2;fill-rule:nonzero"
       inkscape:connector-curvature="0"
       id="path129"
       d="m 11.07332,34.557011 c -0.276378,0 -0.500787,-0.224409 -0.500787,-0.500787 0,-0.276378 0.224409,-0.500787 0.500787,-0.500787 l 17.1437,0 c 0.276378,0 0.500787,0.224409 0.500787,0.500787 0,0.276378 -0.224409,0.500787 -0.500787,0.500787 l -17.1437,0 z"
       class="fil45" />
    <path
       style="fill:#ba5837;fill-opacity:0.43921599;fill-rule:nonzero"
       inkscape:connector-curvature="0"
       id="path131"
       d="m 14.56942,23.255011 c -0.15,-0.101575 -0.290551,-0.217323 -0.415748,-0.34252 l -0.0012,-0.0012 c -0.25628,-0.25628 -0.467698,-0.571635 -0.612973,-0.921241 l 0.0012,-0.0012 c -0.142913,-0.340157 -0.219685,-0.706299 -0.219685,-1.07953 l 0,-13.3913006 c 0,-0.379134 0.07795,-0.746457 0.217323,-1.08189 0.145276,-0.350787 0.357874,-0.664961 0.614173,-0.92126 l 0.144094,-0.144094 c 0.668504,0.477165 1.43504,1.03937 1.43504,1.03937 l 14.2429,0 1.3689,-1.01929 0.132283,0.124016 c 0.256299,0.256299 0.468898,0.570472 0.614173,0.92126 0.13937,0.335433 0.217323,0.702756 0.217323,1.08189 l 0,4.5129896 0,0.999213 -0.999213,0 -1.00157,0 -0.999213,0 0,-0.999213 0,-4.3476396 -12.9862,0 0,13.0606006 0.207874,0 -0.872835,1.23661 8.71181,0.226772 0.0874,-0.07559 0.216142,0 c 0.229134,0 0.916535,0.337795 1.68071,0.758268 l 0,-0.145276 0,-1.00157 0,-0.999213 -0.999213,0 -0.774803,0 0.925984,0.475984 -1.13622,0.987402 -2.27244,-0.05906 c -2.44252,0.03071 -5.8311,0.116929 -6.66732,0.36378 -0.421654,0.125197 -0.689764,0.412205 -0.858661,0.742913 z"
       class="fil46" />
    <path
       style="fill:#ff8e47;fill-rule:nonzero"
       inkscape:connector-curvature="0"
       id="path133"
       d="m 29.30722,8.4865104 0,-0.80315 -12.9862,0 0,0.455906 c -0.535039,-0.444094 -1.35591,-1.12205 -1.57441,-1.27205 -0.530315,-3.19016 16.8177,-0.304724 16.8177,-0.304724 l -2.25709,1.92402 z"
       class="fil40" />
    <path
       style="fill:#ff8e47;fill-rule:nonzero"
       inkscape:connector-curvature="0"
       id="path135"
       d="m 16.62452,4.6833804 11.152,0 c 1.29803,0.698031 2.95512,1.72795 2.95512,1.72795 0,0 -0.63189,0.69685 -1.42441,1.4185 l 0,-0.146457 -12.8173,0 c -0.412205,-0.269291 -0.620079,-0.588189 -0.531496,-0.968504 0,0 -0.112205,-1.3937 0.666142,-2.0315 z"
       class="fil40" />
    <path
       style="fill:#ff8e47;fill-rule:nonzero"
       inkscape:connector-curvature="0"
       id="path137"
       d="m 25.35282,23.744011 -9.19724,0 c -0.373228,0 -0.740551,-0.07677 -1.08071,-0.219685 l -0.0012,0.0012 c -0.178346,-0.07441 -0.348425,-0.164173 -0.504331,-0.270472 0.168898,-0.330709 0.437008,-0.617717 0.858661,-0.742913 0.83622,-0.24685 4.2248,-0.333071 6.66732,-0.36378 l 2.27244,0.05905 0.0874,-0.07559 0.216143,0 c 0.229133,0 0.916535,0.337795 1.68071,0.758268 l 0,0.853937 -0.999213,0 z"
       class="fil40" />
    <polygon
       transform="translate(0.29222044,-2.3996896)"
       style="fill:#ba5837;fill-rule:nonzero"
       id="polygon139"
       points="15.3638,24.3803 16.2366,23.1437 24.2858,23.1437 25.2118,23.6197 24.0756,24.6071 "
       class="fil38" />
    <path
       style="fill:#ba5837;fill-opacity:0.67843095;fill-rule:nonzero"
       inkscape:connector-curvature="0"
       id="path141"
       d="m 14.29652,5.3707804 0.147638,-0.147638 0.05551,0 c 0.177165,-0.127559 0.369685,-0.237402 0.572835,-0.32126 l 0.0012,0.0012 c 0.340157,-0.142913 0.70748,-0.219685 1.08189,-0.219685 l 13.3169,0 c 0.379134,0 0.746457,0.07795 1.08189,0.217323 0.292913,0.121654 0.559843,0.28937 0.788976,0.490157 l -1.3689,1.01929 -14.2429,0 c 0,0 -0.766535,-0.562205 -1.43504,-1.03937 z"
       class="fil22" />
    <path
       inkscape:connector-curvature="0"
       style="fill:url(#linearGradient3145);fill-rule:nonzero"
       id="path143"
       d="m 38.16662,15.808211 c 0.498425,0.685039 0.894094,1.44803 1.15866,2.25945 0.256299,0.788976 0.39685,1.63346 0.39685,2.50748 0,2.23701 -0.907087,4.26378 -2.37165,5.72835 -1.46457,1.46457 -3.49252,2.37165 -5.72953,2.37165 -2.23701,0 -4.26378,-0.907087 -5.72835,-2.37165 -1.2874,-1.2874 -2.1437,-3.00945 -2.33268,-4.92638 0.380315,0.105118 0.891732,0.0685 1.56614,-0.157087 0.141732,-0.04724 0.27874,-0.09803 0.413386,-0.151181 0.119291,1.48701 0.773622,2.8252 1.76811,3.81969 1.10315,1.10315 2.63031,1.78819 4.31339,1.78819 1.68307,0 3.21142,-0.685039 4.31457,-1.78819 1.10315,-1.10315 1.78819,-2.63031 1.78819,-4.31339 0,-0.661417 -0.105118,-1.29803 -0.297638,-1.89094 -0.09449,-0.290551 -0.210236,-0.570472 -0.343701,-0.838583 l -0.124016,0.08504 0.516142,-1.26732 -0.526772,-1.25433 0.544488,-0.52441 0.674409,0.923623 z m -6.09331,5.48858 -0.120472,0.08268 -0.08858,-0.08268 0.209055,0 z"
       class="fil47" />
    <path
       style="fill:#ba5837;fill-opacity:0.78039198;fill-rule:nonzero"
       inkscape:connector-curvature="0"
       id="path145"
       d="m 32.07332,21.296811 -0.209055,0 -0.248031,-0.231496 1.02638,-0.16063 -0.569291,0.392126 z m -0.785433,-0.537402 -0.366142,-0.341339 -0.45,0 0,-5.2748 c 0.0815,-0.331891 0.108661,-0.530316 0.108661,-0.530316 l 1.74803,-2.03386 0.101575,0.767717 0.0083,0.06024 0.01653,0.09685 0.01535,0.167717 0,4.528351 -1.18228,2.55945 z"
       class="fil44" />
    <polygon
       transform="translate(0.29222044,-2.3996896)"
       style="fill:#ba5837;fill-opacity:0.78039198;fill-rule:nonzero"
       id="polygon147"
       points="36.3791,18.0756 36.6555,17.8087 37.1823,19.063 36.6661,20.3303 32.3504,23.3043 31.324,23.465 30.9957,23.1591 32.178,20.5996 32.178,21.0035 36.0035,18.3673 36.3413,18.111 36.3461,18.1075 "
       class="fil44" />
    <path
       style="fill:#ba5837;fill-opacity:0.67843095;fill-rule:nonzero"
       inkscape:connector-curvature="0"
       id="path149"
       d="m 23.55992,21.377111 c -0.02598,-0.263386 -0.03898,-0.531496 -0.03898,-0.801969 0,-2.19803 0.87874,-4.19409 2.30079,-5.653941 1.42559,-1.46102 3.40394,-2.38819 5.59606,-2.44134 l 0.895276,-0.02126 0.01535,0.120472 -1.74803,2.03386 c 0,0 -0.02717,0.198425 -0.108661,0.530316 l 0,-0.565749 c -1.24961,0.238583 -2.36693,0.859844 -3.22087,1.735041 -1.07008,1.09843 -1.7315,2.60315 -1.7315,4.2626 0,0.166535 0.0071,0.330709 0.02008,0.493701 -0.134646,0.05315 -0.271654,0.103937 -0.413386,0.151181 -0.674409,0.225591 -1.18583,0.262205 -1.56614,0.157087 z"
       class="fil22" />
    <path
       inkscape:connector-curvature="0"
       style="fill:url(#linearGradient3139);fill-rule:evenodd"
       id="path151"
       d="m 37.36232,16.394011 c 0.855118,1.17283 1.36063,2.6185 1.36063,4.1811 0,3.92126 -3.17953,7.10079 -7.10197,7.10079 -3.16417,0 -5.84646,-2.07047 -6.76299,-4.9311 l -8.70236,0 c -0.501969,0 -0.96378,-0.207874 -1.29449,-0.539764 l -0.0012,-0.0012 c -0.33189,-0.33189 -0.539764,-0.794882 -0.539764,-1.29449 l 0,-13.3913006 c 0,-0.504331 0.206693,-0.962598 0.539764,-1.29567 l 0.0012,0 c 0.329528,-0.33189 0.791339,-0.539764 1.29449,-0.539764 l 13.3169,0 c 0.504331,0 0.962598,0.206693 1.29567,0.539764 0.333071,0.333071 0.539764,0.791339 0.539764,1.29567 l 0,4.5129896 -1.00157,0 0,-4.5129896 c 0,-0.229134 -0.09449,-0.43937 -0.244488,-0.58937 -0.15,-0.15 -0.360236,-0.244488 -0.58937,-0.244488 l -13.3169,0 c -0.229134,0 -0.440551,0.09449 -0.58937,0.243307 l 0,0.0012 c -0.15,0.15 -0.244488,0.360236 -0.244488,0.58937 l 0,13.3913006 c 0,0.231496 0.09449,0.440551 0.243307,0.58937 l 0.0012,0.0012 c 0.148819,0.148819 0.360236,0.243307 0.58937,0.243307 l 8.46024,0 c -0.0626,-0.380315 -0.09567,-0.770079 -0.09567,-1.16811 0,-3.8622 3.08268,-7.005121 6.92126,-7.099611 0.0059,0.06614 0.01772,0.132283 0.02953,0.196063 l 0,6.746461 -0.08386,0.141732 5.86063,-4.03819 -0.01299,-0.01772 c 0.04252,-0.02717 0.08622,-0.06496 0.127559,-0.109843 z m 0.719291,-1.618111 -5.86063,4.038191 0.08386,-0.141732 0,-6.857481 0.03543,-0.0012 c 2.36929,0 4.46457,1.16929 5.74134,2.9622 z"
       class="fil48" />
    <path
       style="fill:#9c9c9c;fill-opacity:0.12156899;fill-rule:evenodd"
       inkscape:connector-curvature="0"
       id="path153"
       d="m 24.56502,21.372311 c -0.02953,-0.262205 -0.04488,-0.526772 -0.04488,-0.797244 0,-3.8622 3.08268,-7.005121 6.92126,-7.099611 l 0.01535,0.11811 -0.876378,1.01929 c 0,0 -0.02717,0.198425 -0.108661,0.530316 l 0,-0.565749 c -1.24961,0.238583 -2.36693,0.859844 -3.22087,1.735041 -1.07008,1.09843 -1.7315,2.60315 -1.7315,4.2626 0,0.166535 0.0071,0.330709 0.02008,0.493701 -0.134646,0.05315 -0.271654,0.103937 -0.413386,0.151181 -0.200787,0.06732 -0.387402,0.11811 -0.561024,0.152362 z m 7.73976,-8.913781 0.0083,0 0.01535,0.120472 -0.02362,0.02717 0,-0.147638 z"
       class="fil49" />
    <path
       style="fill:#9c9c9c;fill-opacity:0.12156899;fill-rule:evenodd"
       inkscape:connector-curvature="0"
       id="path155"
       d="M 37.26072,15.341611 C 36.704421,14.564445 35.96505,13.92311 35.10875,13.48019 34.281978,13.053812 33.33946,12.812867 32.34025,12.812867 l 0,-0.0024 -0.0047,0 -0.03071,-0.995669 0.03543,-0.0012 c 2.36929,0 4.46457,1.16929 5.74134,2.9622 l -0.820866,0.565749 z"
       class="fil49" />
  </g>
</svg>
