<?xml version="1.0" encoding="UTF-8" standalone="no"?>
<!-- Created with Inkscape (http://www.inkscape.org/) -->

<svg
   xmlns:dc="http://purl.org/dc/elements/1.1/"
   xmlns:cc="http://creativecommons.org/ns#"
   xmlns:rdf="http://www.w3.org/1999/02/22-rdf-syntax-ns#"
   xmlns:svg="http://www.w3.org/2000/svg"
   xmlns="http://www.w3.org/2000/svg"
   xmlns:xlink="http://www.w3.org/1999/xlink"
   xmlns:sodipodi="http://sodipodi.sourceforge.net/DTD/sodipodi-0.dtd"
   xmlns:inkscape="http://www.inkscape.org/namespaces/inkscape"
   width="48px"
   height="48px"
   id="svg85312"
   version="1.1"
   inkscape:version="0.48.3.1 r9886"
   sodipodi:docname="libreoffice-main.svg">
  <defs
     id="defs85314"><linearGradient
   inkscape:collect="always"
   xlink:href="#id2-34"
   id="linearGradient85135"
   gradientUnits="userSpaceOnUse"
   gradientTransform="translate(-0.13435794,-2.4066622)"
   x1="27.2008"
   y1="29.7024"
   x2="26.5063"
   y2="8.3586597" />
<linearGradient
   y2="8.3586597"
   x2="26.5063"
   y1="29.7024"
   x1="27.2008"
   gradientUnits="userSpaceOnUse"
   id="id2-34">
  <stop
     id="stop84798"
     style="stop-color:#F3F3F3"
     offset="0" />
  <stop
     id="stop84800"
     style="stop-color:white"
     offset="1" />
</linearGradient>
<linearGradient
   inkscape:collect="always"
   xlink:href="#id6-8"
   id="linearGradient85138"
   gradientUnits="userSpaceOnUse"
   gradientTransform="translate(-0.13435794,-2.4066622)"
   x1="23.7803"
   y1="15.9673"
   x2="29.737801"
   y2="21.336599" />
<linearGradient
   y2="21.336599"
   x2="29.737801"
   y1="15.9673"
   x1="23.7803"
   gradientUnits="userSpaceOnUse"
   id="id6-8">
  <stop
     id="stop84818"
     style="stop-color:#5A93C4"
     offset="0" />
  <stop
     id="stop84820"
     style="stop-color:#76B5EA"
     offset="1" />
</linearGradient>
<linearGradient
   id="id2"
   gradientUnits="userSpaceOnUse"
   x1="26.438999"
   y1="29.858299"
   x2="26.020901"
   y2="8.2984304">
  <stop
     offset="0"
     style="stop-color:#EBEBEB"
     id="stop19" />
  <stop
     offset="1"
     style="stop-color:white"
     id="stop21" />
</linearGradient>
<linearGradient
   id="id5"
   gradientUnits="userSpaceOnUse"
   x1="31.0394"
   y1="30.853901"
   x2="31.6583"
   y2="17.5051">
  <stop
     offset="0"
     style="stop-color:#FF8E47"
     id="stop34" />
  <stop
     offset="1"
     style="stop-color:#E6773A"
     id="stop36" />
</linearGradient>
<linearGradient
   y2="7.7917299"
   x2="23.648001"
   y1="29.275999"
   x1="24.807899"
   gradientUnits="userSpaceOnUse"
   id="id3-87">
  <stop
     id="stop5197"
     style="stop-color:#EBEBEB"
     offset="0" />
  <stop
     id="stop5199"
     style="stop-color:white"
     offset="1" />
</linearGradient>
<linearGradient
   y2="7.79882"
   x2="24.077999"
   y1="30.039"
   x1="24.681499"
   gradientUnits="userSpaceOnUse"
   id="id3-6">
  <stop
     id="stop5603"
     style="stop-color:#F3F3F3"
     offset="0" />
  <stop
     id="stop5605"
     style="stop-color:white"
     offset="1" />
</linearGradient>
<linearGradient
   y2="26.0492"
   x2="25.3654"
   y1="8.5074797"
   x1="24.9827"
   gradientUnits="userSpaceOnUse"
   id="id5-76">
  <stop
     id="stop5613"
     style="stop-color:#9E59B5"
     offset="0" />
  <stop
     id="stop5615"
     style="stop-color:#B476DE"
     offset="1" />
</linearGradient>
<linearGradient
   y2="28.9417"
   x2="34.985401"
   y1="25.9937"
   x1="34.756302"
   gradientUnits="userSpaceOnUse"
   id="id7-6">
  <stop
     id="stop5623"
     style="stop-color:#9756AD"
     offset="0" />
  <stop
     id="stop5625"
     style="stop-color:#B476DE"
     offset="1" />
</linearGradient>

 <linearGradient
   y2="36.3732"
   x2="15.2102"
   y1="31.9465"
   x1="10.3465"
   gradientUnits="userSpaceOnUse"
   id="id13"
   gradientTransform="translate(52.123871,0.40406102)">
   <stop
   id="stop5296"
   style="stop-color:#5A93C4"
   offset="0" />

   <stop
   id="stop5298"
   style="stop-color:#76B5EA"
   offset="1" />

  </linearGradient>

  <linearGradient
   y2="28.6559"
   x2="13.089"
   y1="40.6417"
   x1="13.089"
   gradientUnits="userSpaceOnUse"
   id="id12"
   gradientTransform="translate(15.455082,-0.94007521)">
   <stop
   id="stop5291"
   style="stop-color:#4E87B4"
   offset="0" />

   <stop
   id="stop5293"
   style="stop-color:#66A1D1"
   offset="1" />

  </linearGradient>

  <linearGradient
   y2="33.4854"
   x2="37.1941"
   y1="42.7287"
   x1="36.5067"
   gradientUnits="userSpaceOnUse"
   id="id11">
   <stop
   id="stop5286"
   style="stop-color:#FF8E47"
   offset="0" />

   <stop
   id="stop5288"
   style="stop-color:#E6773A"
   offset="1" />

  </linearGradient>

  <linearGradient
   y2="41.1012"
   x2="23.8654"
   y1="46.9098"
   x1="23.9669"
   gradientUnits="userSpaceOnUse"
   id="id10">
   <stop
   id="stop5281"
   style="stop-color:#7F7F7F"
   offset="0" />

   <stop
   id="stop5283"
   style="stop-color:#8F8F8F"
   offset="1" />

  </linearGradient>

  <linearGradient
   y2="1.90748"
   x2="35.074"
   y1="25.1705"
   x1="34.8543"
   gradientUnits="userSpaceOnUse"
   id="id9"
   gradientTransform="translate(79.448219,-3.2515076)">
   <stop
   id="stop5276"
   style="stop-color:#5955BD"
   offset="0" />

   <stop
   id="stop5278"
   style="stop-color:#8784EB"
   offset="1" />

  </linearGradient>

  <linearGradient
   y2="44.7094"
   x2="23.8252"
   y1="43.1965"
   x1="23.9858"
   gradientUnits="userSpaceOnUse"
   id="id8">
   <stop
   id="stop5271"
   style="stop-color:#C4C4C4"
   offset="0" />

   <stop
   id="stop5273"
   style="stop-color:#D4D4D4"
   offset="1" />

  </linearGradient>

  <linearGradient
   y2="4.42913"
   x2="34.9181"
   y1="22.5496"
   x1="35.1354"
   xlink:href="#id5-6"
   gradientUnits="userSpaceOnUse"
   id="id7"
   gradientTransform="translate(52.123871,0.40406102)">
  </linearGradient>

  <linearGradient
   y2="27.7689"
   x2="36.3378"
   y1="41.2122"
   x1="37.7055"
   gradientUnits="userSpaceOnUse"
   id="id6">
   <stop
   id="stop5265"
   style="stop-color:#F2F2F2"
   offset="0" />

   <stop
   id="stop5267"
   style="stop-color:white"
   offset="1" />

  </linearGradient>

  <linearGradient
   y2="4.52717"
   x2="34.6016"
   y1="23.361"
   x1="34.8307"
   gradientUnits="userSpaceOnUse"
   id="id5-6">
   <stop
   id="stop5260"
   style="stop-color:#7D7AEA"
   offset="0" />

   <stop
   id="stop5262"
   style="stop-color:#A4A1FF"
   offset="1" />

  </linearGradient>

  <linearGradient
   y2="27.1677"
   x2="12.6354"
   y1="41.524"
   x1="13.1055"
   gradientUnits="userSpaceOnUse"
   id="id4"
   gradientTransform="translate(52.123871,0.40406102)">
   <stop
   id="stop5255"
   style="stop-color:#F3F3F3"
   offset="0" />

   <stop
   id="stop5257"
   style="stop-color:white"
   offset="1" />

  </linearGradient>

  <linearGradient
   y2="24.476"
   x2="13.3878"
   y1="44.8228"
   x1="13.3878"
   gradientUnits="userSpaceOnUse"
   id="id3"
   gradientTransform="translate(52.123871,0.40406102)">
   <stop
   id="stop5250"
   style="stop-color:#6AA2DE"
   offset="0" />

   <stop
   id="stop5252"
   style="stop-color:#84C5FA"
   offset="1" />

  </linearGradient>

  <linearGradient
   y2="0.650787"
   x2="24.4193"
   y1="45.4228"
   x1="23.5287"
   gradientUnits="userSpaceOnUse"
   id="id2-7">
   <stop
   id="stop5245"
   style="stop-color:#999999"
   offset="0" />

   <stop
   id="stop5247"
   style="stop-color:#B2B2B2"
   offset="1" />

  </linearGradient>

  <linearGradient
   y2="24.8516"
   x2="13.2248"
   y1="3.72402"
   x1="13.6937"
   gradientUnits="userSpaceOnUse"
   id="id1"
   gradientTransform="translate(52.123871,0.40406102)">
   <stop
   id="stop5238"
   style="stop-color:#C0E36F"
   offset="0" />

   <stop
   id="stop5240"
   style="stop-color:#ACD156"
   offset="0.419608" />

   <stop
   id="stop5242"
   style="stop-color:#9EC444"
   offset="1" />

  </linearGradient>

  <linearGradient
   y2="45.4441"
   x2="34.7693"
   y1="24.7535"
   x1="35.0173"
   gradientUnits="userSpaceOnUse"
   id="id0"
   gradientTransform="translate(52.077696,0.17603326)">
   <stop
   id="stop5233"
   style="stop-color:#FC8844"
   offset="0" />

   <stop
   id="stop5235"
   style="stop-color:#CC6633"
   offset="1" />

  </linearGradient>

  <style
   id="style5230"
   type="text/css">
   
    .fil18 {fill:#333333}
    .fil19 {fill:#99FF00}
    .fil57 {fill:#B2B2B2}
    .fil15 {fill:#E5E5E5}
    .fil59 {fill:white}
    .fil35 {fill:#B7B5FF}
    .fil20 {fill:#BDE06B}
    .fil58 {fill:#8A8787}
    .fil17 {fill:#8C8C8C}
    .fil64 {fill:black;fill-rule:nonzero}
    .fil70 {fill:white;fill-rule:nonzero}
    .fil63 {fill:#7EA140;fill-rule:nonzero}
    .fil62 {fill:#9BBA65;fill-rule:nonzero}
    .fil32 {fill:#BA5837;fill-rule:nonzero}
    .fil76 {fill:#C1BFFF;fill-rule:nonzero}
    .fil67 {fill:#C3E671;fill-rule:nonzero}
    .fil61 {fill:#CFEDFF;fill-rule:nonzero}
    .fil27 {fill:#FF8E47;fill-rule:nonzero}
    .fil31 {fill:#FFC9A8;fill-rule:nonzero}
    .fil16 {fill:#8C8C8C;fill-rule:nonzero}
    .fil65 {fill:#DAFF8F;fill-rule:nonzero}
    .fil0 {fill:black;fill-opacity:0.000000}
    .fil40 {fill:#4172A3;fill-opacity:0.000000}
    .fil48 {fill:#BA5837;fill-opacity:0.000000}
    .fil1 {fill:black;fill-opacity:0.003922}
    .fil2 {fill:black;fill-opacity:0.007843}
    .fil3 {fill:black;fill-opacity:0.015686}
    .fil4 {fill:black;fill-opacity:0.019608}
    .fil5 {fill:black;fill-opacity:0.023529}
    .fil6 {fill:black;fill-opacity:0.027451}
    .fil41 {fill:#4172A3;fill-opacity:0.031373}
    .fil49 {fill:#BA5837;fill-opacity:0.031373}
    .fil7 {fill:black;fill-opacity:0.031373}
    .fil8 {fill:black;fill-opacity:0.035294}
    .fil9 {fill:black;fill-opacity:0.043137}
    .fil10 {fill:black;fill-opacity:0.047059}
    .fil11 {fill:black;fill-opacity:0.050980}
    .fil12 {fill:black;fill-opacity:0.054902}
    .fil13 {fill:black;fill-opacity:0.058824}
    .fil42 {fill:#4172A3;fill-opacity:0.062745}
    .fil50 {fill:#BA5837;fill-opacity:0.062745}
    .fil43 {fill:#4172A3;fill-opacity:0.094118}
    .fil51 {fill:#BA5837;fill-opacity:0.094118}
    .fil30 {fill:#9C9C9C;fill-opacity:0.121569}
    .fil44 {fill:#4172A3;fill-opacity:0.125490}
    .fil52 {fill:#BA5837;fill-opacity:0.125490}
    .fil45 {fill:#4172A3;fill-opacity:0.156863}
    .fil53 {fill:#BA5837;fill-opacity:0.156863}
    .fil46 {fill:#4172A3;fill-opacity:0.188235}
    .fil54 {fill:#BA5837;fill-opacity:0.188235}
    .fil47 {fill:#4172A3;fill-opacity:0.219608}
    .fil55 {fill:#BA5837;fill-opacity:0.219608}
    .fil74 {fill:#5955BD;fill-rule:nonzero;fill-opacity:0.219608}
    .fil25 {fill:#BA5837;fill-rule:nonzero;fill-opacity:0.219608}
    .fil77 {fill:#B2B2B2;fill-rule:nonzero;fill-opacity:0.439216}
    .fil71 {fill:#5A93C4;fill-rule:nonzero;fill-opacity:0.439216}
    .fil66 {fill:#9BBA65;fill-rule:nonzero;fill-opacity:0.501961}
    .fil75 {fill:#5955BD;fill-rule:nonzero;fill-opacity:0.580392}
    .fil26 {fill:#BA5837;fill-rule:nonzero;fill-opacity:0.678431}
    .fil68 {fill:#9BBA65;fill-rule:nonzero;fill-opacity:0.780392}
    .fil22 {fill:#CFEDFF;fill-rule:nonzero;fill-opacity:0.780392}
    .fil38 {fill:#E1E0FF;fill-rule:nonzero;fill-opacity:0.780392}
    .fil34 {fill:#F8FFC4;fill-rule:nonzero;fill-opacity:0.780392}
    .fil69 {fill:#DAFF8F;fill-rule:nonzero}
    .fil24 {fill:url(#id0)}
    .fil33 {fill:url(#id1)}
    .fil14 {fill:url(#id2)}
    .fil21 {fill:url(#id3)}
    .fil73 {fill:url(#id4)}
    .fil36 {fill:url(#id5)}
    .fil29 {fill:url(#id6)}
    .fil37 {fill:url(#id7)}
    .fil56 {fill:url(#id8)}
    .fil39 {fill:url(#id9);fill-rule:nonzero}
    .fil60 {fill:url(#id10);fill-rule:nonzero}
    .fil28 {fill:url(#id11);fill-rule:nonzero}
    .fil23 {fill:url(#id12);fill-rule:nonzero}
    .fil72 {fill:url(#id13);fill-rule:nonzero}
   
  </style>

  <linearGradient
   inkscape:collect="always"
   xlink:href="#id5-6"
   id="linearGradient4833"
   gradientUnits="userSpaceOnUse"
   x1="34.8307"
   y1="23.361"
   x2="34.6016"
   y2="4.52717"
   gradientTransform="translate(52.123871,0.40406102)" />
</defs>
  <sodipodi:namedview
     id="base"
     pagecolor="#ffffff"
     bordercolor="#666666"
     borderopacity="1.0"
     inkscape:pageopacity="0.0"
     inkscape:pageshadow="2"
     inkscape:zoom="3.5"
     inkscape:cx="-38.076308"
     inkscape:cy="29.345886"
     inkscape:current-layer="g4835"
     showgrid="true"
     inkscape:grid-bbox="true"
     inkscape:document-units="px"
     inkscape:window-width="1024"
     inkscape:window-height="723"
     inkscape:window-x="0"
     inkscape:window-y="22"
     inkscape:window-maximized="1" />
  <metadata
     id="metadata85317">
    <rdf:RDF>
      <cc:Work
         rdf:about="">
        <dc:format>image/svg+xml</dc:format>
        <dc:type
           rdf:resource="http://purl.org/dc/dcmitype/StillImage" />
        <dc:title></dc:title>
      </cc:Work>
    </rdf:RDF>
  </metadata>
  <g
     id="layer1"
     inkscape:label="Layer 1"
     inkscape:groupmode="layer">
    <rect
       ry="6.2786646"
       y="-44.583736"
       x="1.699003"
       height="44.399963"
       width="44.399963"
       id="rect5263-6-7"
       style="fill:#000000;fill-opacity:0.01960784;stroke:none"
       transform="scale(1,-1)" />
    <rect
       style="fill:#000000;fill-opacity:0.03921569;stroke:none"
       id="rect5261-8-3"
       width="43.799973"
       height="43.799973"
       x="1.9989909"
       y="-44.283627"
       ry="6.1938181"
       transform="scale(1,-1)" />
    <rect
       ry="6.1089716"
       y="-43.983578"
       x="2.2989786"
       height="43.199982"
       width="43.199982"
       id="rect5259-7-5"
       style="fill:#000000;fill-opacity:0.07843137;stroke:none"
       transform="scale(1,-1)" />
    <rect
       style="fill:#000000;fill-opacity:0.15686275;stroke:none"
       id="rect5257-4-5"
       width="42.599991"
       height="42.599991"
       x="2.5989969"
       y="-43.68359"
       ry="6.0241251"
       transform="scale(1,-1)" />
    <rect
       ry="5.9392786"
       y="-43.383724"
       x="2.8989847"
       height="42"
       width="42"
       id="rect5237-5-2"
       style="fill:#454837;fill-opacity:1;stroke:none"
       transform="scale(1,-1)" />
    <g
       id="g4476"
       transform="translate(-0.57142853,-0.14285715)">
      <g
         style="fill-rule:evenodd"
         id="g4720"
         transform="translate(-64.495827,-83.251466)">
        <g
           id="Слой_x0020_1">
  <metadata
   id="CorelCorpID_0Corel-Layer" />

  
  
  
  
  
  
  
  
  
  
  
  
  
  
  
  
  
  
  
  
  
  
  
  
  
  
  
  
  
  
  
  
  
  
  
  
  
  <g
   id="g4835"
   transform="matrix(0.97244512,0,0,0.97698304,14.219742,82.079738)">
  <path
     style="fill:url(#id3)"
     inkscape:connector-curvature="0"
     class="fil21"
     d="m 55.009301,28.111561 -0.0024,-2.5689 c 0,-0.252756 0.100394,-0.484252 0.26811,-0.664961 0.214961,-0.25748 0.540945,-0.421654 0.904724,-0.421654 l 18.5693,0.0047 c 0.643701,0 1.20709,0.505512 1.19882,1.13268 -0.01181,0.870472 0.05315,1.75157 0.05433,2.60079 l 0.01417,16.3039 c 0.0012,0.629528 -0.516315,1.167429 -1.14567,1.15276 l -4.803217,0.01729 -8.795731,0.01457 c -2.759652,0.07311 -5.846633,-1.724842 -6.066991,-6.709225 L 55.006945,28.189516 c 0,-0.02598 0,-0.05197 0.0024,-0.07795 z"
     id="path5333"
     sodipodi:nodetypes="ccccccccscccccc" />
  <path
     style="fill:#cfedff;fill-opacity:0.78039198;fill-rule:nonzero"
     inkscape:connector-curvature="0"
     class="fil22"
     d="m 56.316163,25.246161 0,0 18.439998,0.08504 0,0 0.01506,0 0.0024,0 c 1.525175,0.02008 1.343223,1.5189 1.343223,2.55709 l -0.368546,0 c 0,-0.654331 0.03129,-1.49409 -0.996697,-1.50709 l 0,0.0012 -0.01506,0 0,-0.0012 -18.420275,0.01535 0,0.0024 c -0.147186,0 -0.287418,0.03307 -0.410267,0.09095 l 0,0.0012 c -0.508778,0.240945 -0.553977,0.66378 -0.557454,1.1374 l 0,0.0024 0,0.02362 0,0.153543 -0.365068,0 0,-0.153543 0,0 0.0012,-0.17126 -0.0012,0 0,-0.153543 0,0 c 0,-0.940157 0.05331,-2.08346 1.332792,-2.08346 z"
     id="path5335" />
  <path
     style="fill:url(#id0)"
     inkscape:connector-curvature="0"
     class="fil24"
     d="m 76.336397,28.496532 -0.002,-2.5689 c 0,-0.252756 0.10157,-0.484252 0.26929,-0.664961 0.21496,-0.25748 0.54094,-0.421654 0.90354,-0.421654 l 18.8315,0.0047 c 0.6437,0 2.141988,0.55721 2.133718,1.184378 -0.0118,0.871654 0.0543,1.75157 0.0543,2.60079 l -0.03664,10.549757 c 0.41551,2.23097 -1.502978,6.529305 -4.62557,6.529305 -7.54961,0 -3.494,-0.0047 -16.36916,-0.0047 -0.62953,0 -1.14567,-0.518504 -1.14567,-1.15276 l -0.0154,-15.978 c 0,-0.02598 0.001,-0.05197 0.002,-0.07795 z"
     id="path5339"
     sodipodi:nodetypes="ccccccccsscccc" />
  <g
     transform="translate(52.077696,0.17603326)"
     id="_60808800">
   <path
   style="fill:#ba5837;fill-opacity:0.21960802;fill-rule:nonzero"
   inkscape:connector-curvature="0"
   id="_63084416"
   class="fil25"
   d="m 37.7138,30.8492 0.0024,-0.252756 0.02008,-1.20709 2.65748,-2.25945 c 0.27874,0.403937 0.364961,0.72874 0.366142,1.21417 l -0.0874,7.77165 -0.969685,0.729921 0.111024,-6.04606 c 0,0 -1.50236,0.0437 -2.1,0.04961 z" />

   <path
   style="fill:#ba5837;fill-opacity:0.67843095;fill-rule:nonzero"
   inkscape:connector-curvature="0"
   id="_59623152"
   class="fil26"
   d="m 43.4492,34.4445 -1.92047,2.29134 -1.29449,0.891732 -0.985039,-0.922441 -0.518504,0 0,-3.88346 c -0.275197,0.07677 -0.539764,0.180709 -0.788976,0.309449 -0.559843,0.288189 -1.04764,0.701575 -1.41969,1.19764 -0.265748,0.354331 -0.478346,0.752362 -0.618898,1.1752 l 0,0.0035 c -0.134646,0.405118 -0.209055,0.84685 -0.209055,1.31102 0,0.165354 0.0071,0.429921 0.0189,0.648425 0.0094,0.166535 0.02244,0.32126 0.03543,0.400394 l 0.09094,0.537402 0.227953,0.218504 -0.445276,-0.07677 c 0,0 -4.16693,-0.15 -5.60433,-0.159449 l 1.56732,-1.41024 2.11299,0.0437 -0.0024,-0.201969 c 0,-0.673228 0.112205,-1.32756 0.317717,-1.94409 l 0.0012,0 c 0.211417,-0.635433 0.524409,-1.22362 0.912992,-1.74094 0.553937,-0.73937 1.27559,-1.35118 2.1,-1.77638 0.220866,-0.113386 0.448819,-0.21378 0.683858,-0.301181 l 2.17795,-0.07913 -0.125197,4.40197 5.03976,-3.36732 c 0,0 0.382677,0.409843 0.843307,0.650787 -0.798425,0.54685 -1.417319,1.11142 -2.19803,1.78228 z M 29.4626,27.96261 28.31103,26.977571 c 0.05906,-0.07559 0.121654,-0.147638 0.188976,-0.214961 l 0.0024,0.0024 c 0.191339,-0.19252 0.403937,-0.356693 0.659055,-0.479528 0.274016,-0.131102 0.572835,-0.205512 0.908268,-0.205512 l 0,0.0035 8.36575,-0.0248 0,-0.0035 c 0.308268,0 0.609449,0.06378 0.888189,0.180709 l 0.0012,-0.0012 c 0.287008,0.119291 0.545669,0.292913 0.755906,0.50315 0.115748,0.115748 0.222047,0.248031 0.312992,0.392126 l -1.56496,1.45039 -0.277559,-0.759449 -2.09646,-0.201969 -5.32795,0.0248 c 0,0 -1.67244,0.02598 -1.67244,0.304724 l 0.0083,0.01417 z" />

   <path
   style="fill:#ff8e47;fill-rule:nonzero"
   inkscape:connector-curvature="0"
   id="_48246256"
   class="fil27"
   d="m 29.4543,27.9484 0.0083,0.01417 1.39843,1.19646 6.87756,0 0.312992,0.141732 0.777165,-0.720472 -0.277559,-0.759449 -2.09646,-0.201969 -5.32795,0.0248 c 0,0 -1.67244,0.02598 -1.67244,0.304724 z" />

   <path
   style="fill:url(#id11);fill-rule:nonzero"
   inkscape:connector-curvature="0"
   id="_58167224"
   class="fil28"
   d="m 44.837,33.2528 c 0.36378,0.509055 0.649606,1.0689 0.843307,1.66417 0.194882,0.6 0.301181,1.24252 0.301181,1.90157 0,1.6937 -0.688583,3.22913 -1.80118,4.34173 l 0.0024,0.0024 c -1.11024,1.11024 -2.64803,1.79882 -4.34409,1.79882 -1.17638,0 -2.27835,-0.33189 -3.21378,-0.907087 l 0.0012,-0.0012 c -0.835039,-0.512598 -1.53898,-1.22126 -2.04567,-2.06102 l -5.56535,-0.04724 0,0.0035 c -0.340157,0 -0.640157,-0.07559 -0.91063,-0.205512 l -0.0035,0 c -0.138189,-0.06732 -0.263386,-0.146457 -0.381496,-0.23622 l 1.2437,-1.11969 c 1.4374,0.0094 6.65906,0.159449 6.65906,0.159449 l 0.445276,0.07677 0.06968,0.06614 c 0.344882,0.685039 0.879921,1.2626 1.53071,1.66181 l 0.0035,0 c 0.629528,0.387402 1.37362,0.611811 2.16732,0.611811 1.14094,0 2.18031,-0.466535 2.92913,-1.21535 l 0.0047,0 c 0.747638,-0.746457 1.21063,-1.78346 1.21063,-2.92913 0,-0.448819 -0.07205,-0.883465 -0.201969,-1.28504 -0.03071,-0.09567 -0.06496,-0.188976 -0.101575,-0.279921 l -2.15079,1.48228 1.92047,-2.29134 1.3878,-1.19173 z" />

   <path
   style="fill:#ba5837;fill-opacity:0.67843095;fill-rule:nonzero"
   inkscape:connector-curvature="0"
   id="_47816224"
   class="fil26"
   d="m 40.7705,28.8413 c 0.982677,0.0094 1.91339,0.253937 2.73543,0.676772 0.865748,0.447638 1.61457,1.09961 2.17795,1.89094 l 0.282283,0.761811 -0.318898,0.491339 c -0.46063,-0.240945 -0.833858,-0.545669 -0.833858,-0.545669 l -3.98976,-1.9748 -0.05315,-1.30039 z" />

   <path
   style="fill:#ba5837;fill-opacity:0.21960802;fill-rule:nonzero"
   inkscape:connector-curvature="0"
   id="_47930912"
   class="fil25"
   d="m 28.774,39.5067 c -0.09685,-0.07323 -0.186614,-0.153543 -0.274016,-0.240945 l -0.291732,-0.291732 0,-0.138189 c -0.09331,-0.188976 -0.166535,-0.405118 -0.222047,-0.624803 -0.10748,-0.426378 -0.168898,-0.933071 -0.168898,-1.20118 l 0,-8.72362 c 0,-0.308268 0.06378,-0.609449 0.180709,-0.888189 l -0.0012,-0.0012 c 0.0815,-0.196063 0.187795,-0.377953 0.314173,-0.540945 l 2.55,2.1815 -0.0685,0 0,7.92874 0.79252,0.01063 -2.81102,2.52992 z" />

   <path
   style="fill:url(#id6)"
   inkscape:connector-curvature="0"
   id="_126254792"
   class="fil29"
   d="m 44.8713,31.9866 -4.24488,2.92441 0.06024,-0.102756 0,-4.96654 0.02598,-0.0012 c 1.71614,0 3.23386,0.84685 4.15866,2.14606 z m -0.874016,1.80354 c 0.618898,0.849213 0.985039,1.89685 0.985039,3.02835 0,2.84055 -2.30315,5.1437 -5.1437,5.1437 -2.00551,0 -3.74528,-1.14921 -4.59213,-2.82402 l -0.307087,-0.138189 -4.62638,-0.08031 c -0.36378,0 -0.622441,-0.151181 -0.862205,-0.390945 l 0,-0.0012 C 29.211057,38.287776 29.059876,37.34289 29.059876,36.9803 l 0,-8.63268 c 0,-0.364961 0.148819,-0.69685 0.390945,-0.937795 l 0,0 c 0.238583,-0.240945 0.497244,-0.390945 0.862205,-0.390945 l 8.39646,0.03543 c 0.364961,0 0.69685,0.148819 0.937795,0.390945 0.240945,0.240945 0.390945,0.572835 0.390945,0.937795 l -0.02598,2.24646 -1.02638,-0.0248 0.02598,-1.84134 c 0,-0.165354 -0.0685,-0.317717 -0.177165,-0.426378 -0.108661,-0.108661 -0.261024,-0.177165 -0.427559,-0.177165 l -7.76575,-0.06024 c -0.166535,0 -0.318898,0.0685 -0.427559,0.175984 l 0,0.0012 c -0.108661,0.108661 -0.177165,0.261024 -0.177165,0.426378 l 0,8.61969 c 0,0.167717 0.0685,0.320079 0.177165,0.427559 l 0,0.0012 c 0.108661,0.10748 0.261024,0.175984 0.427559,0.175984 l 4.12323,0.103937 c -0.04606,-0.275197 -0.06968,-0.924803 -0.06968,-1.21299 0,-1.15866 0.383858,-2.22874 1.02992,-3.0874 0.912992,-1.21654 2.35512,-2.01496 3.98386,-2.05512 0.0035,0.04842 0.01181,0.09567 0.02126,0.142913 l 0,4.88622 -0.06142,0.102756 4.24488,-2.92559 -0.0094,-0.01299 c 0.03071,-0.0189 0.0626,-0.04606 0.09331,-0.07913 z" />

   <path
   style="fill:#9c9c9c;fill-opacity:0.12156899"
   inkscape:connector-curvature="0"
   id="_57785024"
   class="fil30"
   d="m 38.7307,32.8217 c -0.275197,0.07677 -0.539764,0.180709 -0.788976,0.309449 -0.559843,0.288189 -1.04764,0.701575 -1.41969,1.19764 -0.265748,0.354331 -0.478346,0.752362 -0.618898,1.1752 l 0,0.0035 c -0.134646,0.405118 -0.209055,0.84685 -0.209055,1.31102 0,0.165354 0.0071,0.429921 0.0189,0.648425 0.0094,0.166535 0.02244,0.32126 0.03543,0.400394 l 0.09094,0.537402 0.227953,0.218504 -0.445276,-0.07677 -0.960236,-0.02717 0,-0.488976 0.102756,0.0012 c -0.04606,-0.275197 -0.06968,-0.924803 -0.06968,-1.21299 0,-1.15866 0.383858,-2.22874 1.02992,-3.0874 0.912992,-1.21654 2.35512,-2.01496 3.98386,-2.05512 0.0035,0.04843 0.01181,0.09567 0.02126,0.142913 l -0.999213,1.00276 z" />

   <path
   style="fill:#9c9c9c;fill-opacity:0.12156899"
   inkscape:connector-curvature="0"
   id="_48119416"
   class="fil30"
   d="m 44.8713,31.9866 -0.133465,0.09213 -3.91417,-1.93701 -0.01181,-0.3 c 1.6748,0.03189 3.15236,0.870472 4.05945,2.14488 z" />

  </g>
  <path
     style="fill:#ffc9a8;fill-rule:nonzero"
     inkscape:connector-curvature="0"
     class="fil31"
     d="m 76.701398,26.968132 -0.0011,-0.223228 0,-0.01299 0,-0.01417 0,-0.0059 0.0011,-0.0071 0,-0.01299 -0.0011,-0.231496 0,0 c 0,-0.113386 0.01744,-0.223228 0.05116,-0.330709 l 0.0011,-0.03543 c -0.02876,-0.0815 -0.04989,-0.158268 0.0011,-0.212598 l 0.0021,-0.0024 c -0.0053,-0.0248 -0.0074,-0.04842 -0.0043,-0.06968 -0.02876,-0.0815 -0.04989,-0.158268 0.0011,-0.212598 0.129835,-0.148819 0.29339,-0.270472 0.478159,-0.354331 l 0,0 c 0.182274,-0.08032 0.385774,-0.126378 0.598015,-0.126378 l 0,0 19.153943,0.0047 0,-0.0012 0.01744,0 0.0011,0.0012 c 0.374538,0.0047 0.729099,0.148819 0.986285,0.381496 0.228467,0.20315 0.384527,0.480709 0.418236,0.788976 0.01744,0.06968 0.02875,0.142913 0.03372,0.214961 l 0,0.0012 0.0074,0.05669 c 0.02125,0.08858 0.03372,0.18189 0.03372,0.27874 l 0.0011,0 0,0.01417 -0.0011,0.0012 -0.0011,0.199606 0,0.01417 0,0.0012 0,0.01299 0.0011,0.04134 0.0011,0 0,0.01417 -0.0011,0.0012 0,0.04252 0.0011,0.12874 -0.0021,0 0.0021,0.284646 -0.389527,0 0,-0.152362 -0.02621,0 0,-0.114567 -0.01248,0 0,-0.152362 -0.02621,0 0,-0.284646 0,-0.08976 c -0.05243,-0.125197 -0.136083,-0.237402 -0.237199,-0.33189 -0.191016,-0.168898 -0.450697,-0.276378 -0.724109,-0.279921 l 0,0.0012 -0.01744,0 0,-0.0012 -19.153943,-0.0059 0,0.0024 c -0.153565,0 -0.302131,0.03307 -0.431967,0.08976 l 0,0 c -0.134834,0.06142 -0.257186,0.153543 -0.353323,0.264567 l -0.0064,0.0071 c -0.07241,0.07559 -0.131083,0.161811 -0.169791,0.253937 -0.03245,0.0815 -0.0537,0.173622 -0.05623,0.266929 l 0,0.0189 0,0.223228 -0.0011,0 0.0011,0.284646 -0.111104,0.07441 0,-0.170079 -0.02621,0.01772 0,-0.122835 -0.01247,0.0083 0,-0.17126 -0.02748,0.01772 0,-0.284646 z"
     id="path5351" />
  <path
     style="fill:url(#id1)"
     inkscape:connector-curvature="0"
     class="fil33"
     d="m 61.401733,2.7739787 13.28018,-0.031836 c 0.64252,0 1.427448,0.4324007 1.417998,1.0595687 -0.01181,0.871654 -0.03749,2.9956533 -0.03631,3.8436833 l 0.01417,16.6783 c 0.0012,0.628346 -0.516142,1.15276 -1.14567,1.15276 -7.54843,0 -5.80866,-0.0059 -18.6839,-0.0059 -0.629528,0 -1.14567,-0.517323 -1.14567,-1.15157 L 55.270854,9.8705808 C 55.054787,5.116867 58.057912,2.8741977 61.401733,2.7739787 z"
     id="path5355"
     sodipodi:nodetypes="cccccssccc" />
  <path
     inkscape:connector-curvature="0"
     class="fil36"
     d="m 76.519571,7.422171 -0.0024,-2.56772 c 0,-0.253937 0.03665,-1.2479718 0.204368,-1.4286808 0.214961,-0.256299 0.52796,-0.6660354 0.890558,-0.6660354 l 15.22618,0.030569 c 4.14957,0.3101853 5.751735,4.278252 5.587648,5.7067329 -0.085,6.2728345 0.02836,9.0984685 -0.02007,15.3748685 -0.0047,0.627165 -1.841762,1.023516 -2.471289,1.023516 -7.54843,0 -5.39055,0.03307 -18.2657,0.03307 -0.629528,0 -1.14567,-0.518504 -1.14567,-1.15157 l -0.0059,-16.2767997 c 0,-0.025984 0.0012,-0.051969 0.0024,-0.077953 z"
     id="path5361"
     style="fill:url(#linearGradient4833)"
     sodipodi:nodetypes="cccccccsscccc" />
  <path
     style="fill:#7ea140;fill-rule:nonzero"
     inkscape:connector-curvature="0"
     class="fil63"
     d="m 75.768371,24.783161 c -0.03661,0.04724 -0.07677,0.09094 -0.11811,0.133465 l -0.0024,0.0024 c -0.296457,0.298819 -0.711024,0.485433 -1.15984,0.486614 l 0,0.0024 -0.0024,0 0,-0.0024 -6.52913,-0.0024 -12.1547,-0.0035 0,0.0024 c -0.361417,0 -0.695669,-0.120472 -0.968504,-0.320079 l 0.930709,-0.682677 0.0378,0.0012 0,0.0024 12.1547,0.0035 6.52913,0.0024 0,-0.0024 0.0024,0 0,0.0024 c 0.121654,0 0.238583,-0.0378 0.337795,-0.101575 0.31063,0.151181 0.629528,0.312992 0.94252,0.475984 z"
     id="path5407" />
  <g
     transform="translate(52.123871,0.40406102)"
     id="_47452376">
   <path
   style="fill:#000000;fill-rule:nonzero"
   inkscape:connector-curvature="0"
   id="_64425392"
   class="fil64"
   d="M 9.23858,7.04173 10.75275,8.41417 10.69606,8.36102 10.66063,8.322044 10.59449,8.239367 C 10.246065,7.763383 10.185829,7.372438 10.327561,7.042907 L 9.2385813,7.041727 z" />

   <path
   style="fill:#000000;fill-rule:nonzero"
   inkscape:connector-curvature="0"
   id="_59444200"
   class="fil64"
   d="m 14.7803,12.1146 c 0.124016,0.165354 0.217323,0.341339 0.282283,0.523228 L 15.196048,12.491371 14.7803,12.114599 z" />

   <path
   style="fill:#000000;fill-rule:nonzero"
   inkscape:connector-curvature="0"
   id="_59355128"
   class="fil64"
   d="m 10.2567,21.0154 0.623622,-0.0012 C 10.618117,20.93979 10.37481,20.799239 10.178747,20.620893 l -0.0035,-0.0035 c -0.15,-0.138189 -0.2870083,-0.31063 -0.3862203,-0.497244 l -0.297638,0.335433 -0.038976,0.0437 -0.016535,0.01654 -0.023622,0.0189 -0.120472,0.120472 -0.02126,0.02717 -0.02126,0.05551 -0.02126,0.0685 0.02126,0.206693 0.00827,0 0.9992133,0 0,0.0024 z" />

   <path
   style="fill:#daff8f;fill-rule:nonzero"
   inkscape:connector-curvature="0"
   id="_57897336"
   class="fil65"
   d="m 19.6736,8.12126 0,0.09685 -0.01063,0.222047 c -0.05906,0.549213 -0.187795,0.86811 -0.346063,1.05354 l 0,-0.00236 c -0.154724,0.183071 -0.291732,0.188976 -0.408661,0.173622 -0.16063,-0.02126 -0.288189,-0.132283 -0.40748,-0.36378 l -0.0059,-0.011811 C 18.415736,9.132281 18.355496,8.943305 18.296441,8.695274 l -0.02598,-0.135827 0.510236,-0.692126 0.892913,0.253937 z" />

   <path
   style="fill:#9bba65;fill-rule:nonzero"
   inkscape:connector-curvature="0"
   id="_60803048"
   class="fil62"
   d="m 18.2445,18.398 c 0.01772,-0.261024 0.04606,-0.506693 0.09095,-0.689764 l 0,-0.0035 c 0.08976,-0.357874 0.238583,-0.605906 0.405118,-0.716929 l 0.0024,-0.0035 c 0.121654,-0.08031 0.256299,-0.08622 0.387402,-0.01181 l 0.0012,0 c 0.124016,0.07323 0.245669,0.223228 0.341339,0.454724 l 0.0012,0.0047 0.0012,0.0035 c 0.09803,0.235039 0.172441,0.55748 0.198425,0.962598 l -1.42913,0 z" />

   <path
   style="fill:#9bba65;fill-opacity:0.50196078;fill-rule:nonzero"
   inkscape:connector-curvature="0"
   id="_120388024"
   class="fil66"
   d="m 9.56811,21.2634 -0.701575,0.02126 c -0.287008,0.205512 -1.2437,0.244488 -1.23661,1.04055 C 7.487012,22.118517 7.392523,21.871667 7.334649,21.618911 l -0.00118,0 C 7.25906,21.29647 7.234256,20.922061 7.231894,20.688202 l 0.030709,-0.25748 c 0.040158,-0.158268 0.077953,-0.288189 0.111024,-0.380315 0.04252,-0.11811 0.09685,-0.233858 0.161811,-0.350787 L 7.550792,19.67245 C 7.616934,19.561426 7.693705,19.456308 7.78465,19.35119 7.855516,19.26851 7.929926,19.191741 8.009059,19.116151 l 0.012992,-0.01417 -0.00118,-0.0012 0.015354,-0.01535 5.11299,-5.74606 0.02244,-0.04488 -0.02953,-0.02835 1.784649,-0.284646 -0.15118,-0.608268 -5.9692907,-5.7188996 3.1393707,0.015354 c -0.199606,0.034252 -0.33189,0.069685 -0.376773,0.108661 l 1.94291,1.37008 -0.10748,0 0.165354,0.152362 0.0024,-0.00236 0.959055,0.884646 -0.0012,0.00118 1.02283,0.9377956 0.0012,-0.0024 1.12323,1.02047 0.02362,0.02362 c 0.348425,0.336614 0.551575,0.722835 0.596457,1.13976 -0.917717,0.02126 -1.86496,0.120472 -1.86496,0.120472 l -6.1618105,8.50512 c -0.09685,0.162992 0.046063,0.26811 0.297638,0.334252 z" />

   <path
   style="fill:#000000;fill-rule:nonzero"
   inkscape:connector-curvature="0"
   id="_59443120"
   class="fil64"
   d="m 17.1484,21.0531 c -1.45157,0.03307 -3.76063,0.09803 -5.57244,0.151181 0.09803,-0.08622 0.229134,-0.21378 0.387402,-0.375591 0.757087,0.164173 1.49291,0.27874 1.54961,0.27874 0.09685,0 2.50276,-0.16063 3.63543,-0.238583 l 0,0.184252 z" />

   <path
   style="fill:#c3e671;fill-rule:nonzero"
   inkscape:connector-curvature="0"
   id="_57721896"
   class="fil67"
   d="M 11.576,21.2043 9.56813,21.26336 C 9.316555,21.197213 9.173642,21.092095 9.270492,20.929103 l 6.16181,-8.50512 c 0,0 0.947244,-0.09921 1.86496,-0.120472 l 0.0071,0.100394 c 0.02244,0.464173 -0.144094,0.907087 -0.514961,1.30276 -0.667323,0.715748 -1.14803,1.29213 -1.67008,1.92165 l 0,0.0035 -0.516142,0.617717 c -0.444094,0.530315 -1.01811,1.19646 -1.61929,1.87441 l -0.774803,0.864567 c -0.690945,0.33189 -1.70669,0.840945 -1.92874,1.1315 -0.179528,0.235039 0.767717,0.509055 1.68307,0.708661 -0.158268,0.161811 -0.28937,0.28937 -0.387402,0.375591 z" />

   <path
   style="fill:#9bba65;fill-opacity:0.78039198;fill-rule:nonzero"
   inkscape:connector-curvature="0"
   id="_58064464"
   class="fil68"
   d="m 12.2091,18.9886 -0.08504,0.09213 6.39449,0.06024 c 0.504331,0.451181 -0.132283,1.20709 -0.132283,1.20709 l -0.656693,0.480709 c 0,0 -4.09016,0.27874 -4.21654,0.27874 -0.126378,0 -3.5610204,-0.55748 -3.23268,-0.987402 0.222047,-0.290551 1.2378,-0.799606 1.92874,-1.1315 z" />

   <path
   style="fill:#9bba65;fill-opacity:0.50196078;fill-rule:nonzero"
   inkscape:connector-curvature="0"
   id="_60753424"
   class="fil66"
   d="M 13.1421,13.2661 C 12.258635,12.457045 11.45903,11.73657 10.67596,11.03027 L 10.336984,10.725546 9.907063,10.338144 C 9.027142,9.545624 8.153123,8.757834 7.378323,8.045624 L 7.375963,8.044444 7.295648,7.971216 7.294468,7.972396 7.253129,7.935782 7.251949,7.934602 7.250769,7.933422 C 6.957856,7.672398 6.681478,7.397202 6.688564,6.822002 l -0.00236,0 0,-0.00591 0,-0.12874 0.00709,-0.093307 C 6.708648,6.433415 6.729908,6.290502 6.759436,6.167667 6.809042,5.962155 6.891719,5.780265 7.021641,5.61373 l -0.00354,-0.00236 0.060236,-0.070866 1.33346,1.11142 0.394488,0.00236 5.96929,5.7189 0.151181,0.608268 -1.78465,0.284646 z" />

   <path
   style="fill:#daff8f;fill-rule:nonzero"
   inkscape:connector-curvature="0"
   id="_120370104"
   class="fil69"
   d="m 20.2287,22.3146 c -0.06142,0.09449 -0.133465,0.179528 -0.217323,0.253937 -0.157087,0.140551 -0.348425,0.244488 -0.571654,0.312992 l 0,-0.0012 c -0.147638,0.04606 -0.301181,0.07795 -0.464173,0.101575 l -0.140551,0.0071 -9.57756,0.02008 0,0.0024 -0.374409,0 -0.012992,-0.0024 -0.611811,0.0012 0,-0.164173 -0.061417,-0.02953 C 8.0314556,22.73271 7.8826366,22.622868 7.7562586,22.48586 l 0.00118,-0.0012 c -0.046063,-0.04961 -0.088583,-0.102756 -0.127559,-0.159449 -0.00709,-0.796063 0.949606,-0.835039 1.23661,-1.04055 0,0 8.3834604,-0.253937 9.5444904,-0.253937 0.464173,0 1.1563,0.583465 1.81772,1.28386 z" />

   <path
   style="fill:#daff8f;fill-rule:nonzero"
   inkscape:connector-curvature="0"
   id="_58022000"
   class="fil65"
   d="m 11.9457,6.66969 6.05433,0.029528 c 0.0874,0.03189 0.151181,0.066142 0.184252,0.105118 0.322441,0.376772 -0.347244,1.15039 -0.762992,1.56732 C 17.40712,8.288979 17.39885,8.209845 17.39531,8.130711 l -3.88346,0.017716 -1.94291,-1.37008 c 0.04488,-0.038976 0.177165,-0.074409 0.376772,-0.108661 z" />

   <path
   style="fill:#9bba65;fill-rule:nonzero"
   inkscape:connector-curvature="0"
   id="_57972440"
   class="fil62"
   d="M 7.07835,5.54055 C 7.209452,5.396456 7.372444,5.28307 7.579137,5.19803 l 0,-0.00118 C 7.720869,5.137795 7.885043,5.092913 8.079924,5.061023 l 0.164173,-0.011811 10.6028,0.012992 0.20315,0.018898 c 0.173622,0.036614 0.335433,0.090945 0.474803,0.157087 l 0.01653,0.00827 c 0.178346,0.087402 0.333071,0.194882 0.457087,0.318898 l -0.0024,0.00236 0.04488,0.047244 -1.22598,1.0878 -10.4030999,-0.050787 -1.33346,-1.11142 z" />

   <path
   style="fill:#ffffff;fill-rule:nonzero"
   inkscape:connector-curvature="0"
   id="_61204040"
   class="fil70"
   d="m 19.4917,18.7323 c 0.0024,0.348425 0.0071,0.753543 0.01063,1.14567 0.0035,0.490157 -0.0189,1.09606 -0.0189,1.54961 -0.01417,0.199606 -0.05669,0.327165 -0.13937,0.399213 -0.09449,0.08386 -0.262205,0.132283 -0.509055,0.166535 l -9.5775597,0.02008 0,-0.0012 -0.374409,0 c -0.180709,-0.05079 -0.308268,-0.113386 -0.392126,-0.201969 -0.21378,-0.218504 -0.258661,-0.824409 -0.263386,-1.13386 0.055512,-0.219685 0.108661,-0.369685 0.178346,-0.49252 0.072047,-0.122835 0.172441,-0.233858 0.322441,-0.375591 l 0.016535,-0.01654 5.1921307,-5.83465 c 0.318898,-0.46063 0.336614,-0.973228 -0.08031,-1.38898 -1.00039,-0.917717 -1.9311,-1.75394 -2.85236,-2.5842498 -1.0110207,-0.911811 -2.0291307,-1.82717 -2.9586607,-2.67992 l -0.00236,-0.00118 -0.083858,-0.075591 -0.00118,-0.00118 c -0.13937,-0.124016 -0.277559,-0.24685 -0.272835,-0.403937 l 0,-0.00591 0,-0.12874 c 0.022441,-0.222047 0.050787,-0.373228 0.121654,-0.462992 0.067323,-0.083858 0.198425,-0.13937 0.437008,-0.179528 L 18.846869,6.057887 c 0.197244,0.040158 0.344882,0.116929 0.444094,0.214961 0.105118,0.103937 0.177165,0.335433 0.188976,0.485433 l -0.0035,1.45984 C 19.37364,8.669302 19.114979,8.683475 18.897656,8.669302 18.677971,8.6551288 18.568128,8.541743 18.414585,8.241743 18.356711,8.023239 18.416947,7.503554 18.383876,7.299223 18.3449,7.051192 18.167734,6.986231 18.116947,6.980325 l -0.03307,-0.00118 -6.16772,0.028346 -0.0378,0.00236 -0.04134,0.00591 c -0.359055,0.05315 -0.688583,0.140551 -0.438189,0.48189 l 0.03543,0.038976 c 0.646063,0.583465 1.64409,1.66772 2.42126,2.3811 0.670866,0.615355 1.35118,1.238981 2.14961,1.960631 0.377953,0.367323 0.412205,0.765354 0.05787,1.144489 -0.875197,0.940156 -1.44921,1.664171 -2.2252,2.586611 -0.853937,1.018108 -2.08701,2.428348 -3.05551,3.448818 -0.464173,0.325984 0.05079,0.928346 0.487795,0.940157 l 0.0071,0 6.53504,0.01181 c 0.477165,0.0024 0.6,-0.05197 0.591732,-0.458268 -0.0047,-0.3 -0.01653,-1.11614 0.124016,-1.38307 0.226772,-0.431102 0.961417,-0.35433 0.96378,0.563387 z" />

  </g>
  <path
     style="fill:#5a93c4;fill-opacity:0.43921599;fill-rule:nonzero"
     inkscape:connector-curvature="0"
     class="fil71"
     d="m 70.761671,31.397361 0.04724,0.05197 0.447638,0.483071 c 0.01535,-0.02835 0.02126,-0.05079 0.0189,-0.06378 -0.02598,-0.119291 -0.07087,-0.258661 -0.131102,-0.40748 0.26811,0.207874 0.535039,0.398031 0.794882,0.558661 l -8.08937,8.27953 c 0,0 -1.6252,0.464173 -1.91929,0.506693 -0.294094,0.04252 -2.50984,0.512598 -4.01693,0.830315 l 0.12874,-0.222047 c 0.282283,-0.50315 0.496063,-1.08898 0.656693,-1.65709 l 0.375591,0.115748 -0.23622,1.03701 1.68898,-0.401575 -0.229134,-0.258661 0.975591,0.303543 -0.875197,-0.849213 2.81811,-0.79252 7.16339,-7.00276 c 0,0 0.154724,-0.194882 0.381496,-0.511417 z"
     id="path5424" />
  <path
     style="fill:url(#id13);fill-rule:nonzero"
     inkscape:connector-curvature="0"
     class="fil72"
     d="m 56.967571,42.771361 c 0.274016,-0.200787 0.406299,-0.165354 1.0748,-1.35709 0.668504,-1.19173 1.11142,-4.10197 1.11142,-4.10197 l 0.757087,-2.37874 c 0,0 5.92559,-5.86063 6.22795,-6.0626 0.302362,-0.201969 1.46457,-0.91063 1.46457,-0.91063 0,0 0.641339,0.766535 1.53071,1.67362 l -1.17047,-1.27087 c 0.09803,0.01181 0.204331,0.03543 0.31063,0.06732 l 0.0083,0 c 0.147638,0.0437 0.3,0.108661 0.446457,0.185433 l 0,-0.0012 c 0.157087,0.08386 0.323622,0.193701 0.490157,0.318898 l 0,-0.0012 c 0.161811,0.124016 0.333071,0.276378 0.500787,0.444094 l 0.0047,0 c 0.190157,0.188976 0.367323,0.390945 0.525591,0.592913 0.175984,0.224409 0.337795,0.46063 0.478346,0.687402 l -0.0012,0 c 0.155906,0.255118 0.281102,0.49252 0.370866,0.694488 l 0,0.0035 0.04606,0.106299 c 0.724016,0.562205 1.43976,0.989764 2.01496,1.07244 0.116929,-0.336614 0.154724,-0.698031 0.06968,-1.0878 -0.05669,-0.258661 -0.162992,-0.569291 -0.311811,-0.903543 l -0.0012,0 c -0.135827,-0.304724 -0.301181,-0.62126 -0.485433,-0.924803 l -0.0035,-0.0035 c -0.17717,-0.286967 -0.381501,-0.583424 -0.605911,-0.870431 -0.212598,-0.271654 -0.445276,-0.538583 -0.688583,-0.779528 l 0.0024,-0.0024 c -0.210236,-0.210236 -0.451181,-0.420472 -0.708661,-0.617717 l -0.0047,-0.0047 c -0.23274,-0.175971 -0.49022,-0.341326 -0.759512,-0.484239 l -0.0047,-0.0035 c -0.25748,-0.134646 -0.529134,-0.249213 -0.805512,-0.33189 l 0.0012,-0.0024 c -0.26811,-0.08032 -0.553937,-0.134646 -0.849213,-0.152362 l -0.03189,0 -0.252756,-0.0071 -0.03898,0 c -0.132283,0.0012 -0.24685,0.0083 -0.335433,0.01772 -0.103937,0.01063 -0.210236,0.02953 -0.31063,0.04961 l -0.01535,0.0047 c -0.106299,0.02362 -0.210236,0.05315 -0.304724,0.08386 l -0.0071,0 c -0.09567,0.03189 -0.193701,0.07323 -0.290551,0.120472 -0.121654,0.05787 -0.217323,0.114567 -0.290551,0.164173 l -0.01181,0.0083 c -0.103937,0.07205 -0.199606,0.148819 -0.276378,0.225591 l 0.0024,0.0024 c -0.05787,0.05551 -0.111024,0.114567 -0.155906,0.170079 l -0.0024,0.0024 -0.01063,0.01535 -7.12205,7.0937 -0.06614,0.07441 -0.01181,0.01417 -0.09803,0.140551 -0.135827,0.23622 -0.0815,0.183071 -0.0059,0.01772 -0.02716,0.09449 -1.44331,6.34252 -0.01653,0.07795 -0.0012,0.0083 -0.0035,0.04252 -0.0083,0.04961 -0.0012,0 -0.0012,0.0047 -0.0083,0.03071 c -0.105118,0.490157 -0.148819,0.669685 0.318898,1.12441 l -0.0024,0.0024 0.01181,0.01181 z"
     id="path5426" />
  <path
     style="fill:url(#id4)"
     inkscape:connector-curvature="0"
     class="fil73"
     d="m 68.495171,30.412361 c -0.551575,-0.596457 -1.08543,-1.17638 -1.48228,-1.60748 l 0.0012,0 -0.05787,-0.0626 -0.06142,0.05906 -1.38307,1.38898 -0.0012,0.0012 -0.05669,0.05551 0.05315,0.05787 0,0 3.50551,3.88465 0.05905,0.06496 0.06142,-0.0626 1.40906,-1.45039 0,0 0.05433,-0.05551 -0.05315,-0.05787 -0.0012,0 -0.464173,-0.50315 0,0 -1.58268,-1.7126 0,0 z m -8.98701,7.44094 2.12008,2.39646 0.03543,0.0378 0.04843,-0.01181 0,0 1.98425,-0.506693 0.05315,-0.02953 4.58268,-4.73858 0.05551,-0.05551 -0.05315,-0.05906 -3.51496,-3.89764 -0.05669,-0.06378 -0.06142,0.06024 -4.65591,4.63819 -0.03071,0.05315 -0.525591,2.10236 0,0 -0.01063,0.04134 0.02953,0.03307 z m 12.0709,-7.71614 c 0.348425,0.569291 0.584646,1.11732 0.673228,1.52008 l 0,0 c 0.151181,0.692126 -0.51378,1.32047 -1.01339,1.79291 -0.08858,0.08268 -0.17126,0.161811 -0.242126,0.232677 l -6.65433,6.85512 -0.01299,0.01063 -0.232677,0.135827 -0.01772,0.0071 -5.96102,1.41614 0,0.0012 -0.05197,0.01181 c -0.114567,0.02716 -0.190157,0.03189 -0.249213,0.02008 l -0.0012,0 c -0.06496,-0.01299 -0.106299,-0.04488 -0.152362,-0.08858 l 0,0 c -0.07795,-0.07559 -0.06968,-0.111024 -0.04606,-0.212598 0.0095,-0.0437 0.02362,-0.103937 0.03189,-0.193701 l 0.0012,-0.0083 1.44331,-6.34134 0.0071,-0.0189 0.135827,-0.237402 0.01181,-0.01417 7.14213,-7.11142 0.0035,-0.0035 0.03307,-0.02717 0.01299,-0.02126 0,-0.0012 c 0.04724,-0.06968 0.126378,-0.154724 0.243307,-0.235039 0.08976,-0.06142 0.204331,-0.120472 0.343701,-0.167717 0.121654,-0.04134 0.264567,-0.07323 0.42874,-0.09094 0.145276,-0.01535 0.308268,-0.02008 0.488976,-0.0083 0.431102,0.02835 0.850394,0.164173 1.24843,0.374409 0.444094,0.235039 0.859843,0.563386 1.23425,0.935433 0.454724,0.451181 0.84685,0.968504 1.15157,1.46811 z"
     id="path5428" />
  <g
     transform="translate(52.123871,0.40406102)"
     id="_47561016">
   <polygon
   style="fill:#000000;fill-rule:nonzero"
   id="_58749120"
   class="fil64"
   points="38.3929,15.3437 38.3209,15.3567 38.3657,15.3555 " />

   <path
   style="fill:#000000;fill-rule:nonzero"
   inkscape:connector-curvature="0"
   id="_61207128"
   class="fil64"
   d="m 36.3024,15.7252 c 0.05079,-0.04606 0.106299,-0.06968 0.164173,-0.08031 l -0.129921,0.07441 -0.03425,0.0059 z" />

   <polygon
   style="fill:#000000;fill-rule:nonzero"
   id="_48275400"
   class="fil64"
   points="26.9303,20.9303 31.7728,20.9303 31.7717,16.9984 29.8819,16.9984 29.8795,16.9984 28.8827,16.9984 28.8803,16.9984 26.9291,16.9984 " />

   <polygon
   style="fill:#000000;fill-rule:nonzero"
   id="_58365032"
   class="fil64"
   points="37.9902,20.9303 42.8327,20.9303 42.8315,16.9984 41.0669,16.9984 41.0646,16.9984 40.0677,16.9984 40.0654,16.9984 37.989,16.9984 " />

   <polygon
   style="fill:#000000;fill-rule:nonzero"
   id="_46913944"
   class="fil64"
   points="37.7799,7.0252 32.9374,7.0252 32.9386,10.8555 34.8933,10.8555 34.8957,10.8555 35.8925,10.8555 35.8949,10.8555 37.7811,10.8555 " />

   <path
   style="fill:#5955bd;fill-opacity:0.21960802;fill-rule:nonzero"
   inkscape:connector-curvature="0"
   id="_62980016"
   class="fil74"
   d="m 33.4465,15.7748 c 0.197244,0.28937 0.314173,0.644882 0.316535,1.02047 l 0,0.0035 0.0012,4.32992 0.0035,0 c 0,0.478346 -0.194882,0.927165 -0.50315,1.25079 l -0.04488,0.04488 -1.76339,-1.11024 -4.54606,-0.100394 c 0,0 -0.594094,0.70748 -1.16811,1.42087 -0.108661,-0.07323 -0.207874,-0.155906 -0.298819,-0.250394 l -0.0047,-0.0035 C 25.135083,22.061804 24.941382,21.61771 24.93902,21.132272 l 0,-0.0035 -0.0012,-4.32992 -0.0035,0 0,-0.0047 c 0,-0.364961 0.111024,-0.709843 0.298819,-0.994488 l 1.52598,1.11024 5.55472,0 1.13268,-1.13504 z" />

   <path
   style="fill:#5955bd;fill-opacity:0.21960802;fill-rule:nonzero"
   inkscape:connector-curvature="0"
   id="_47820504"
   class="fil74"
   d="m 44.6197,15.965 c 0.12874,0.248031 0.201969,0.532677 0.20315,0.830315 l 0,0.0035 0.0012,4.32992 0.0035,0 c 0,0.478346 -0.194882,0.927165 -0.50315,1.25079 l -0.05669,0.05669 -1.19646,-1.02047 -1.71732,-0.101575 -3.48425,0.152362 -1.52835,0.724016 c -0.211417,-0.295276 -0.340157,-0.662598 -0.34252,-1.05827 l 0,-0.0035 -0.0012,-4.32992 -0.0035,0 0,-0.0047 c 0,-0.42874 0.153543,-0.829134 0.403937,-1.1374 l 1.72441,1.25315 5.55472,0 0.94252,-0.944882 z" />

   <polygon
   style="fill:#000000;fill-rule:nonzero"
   id="_59065760"
   class="fil64"
   points="33.2634,15.5469 33.2657,15.5504 33.2516,15.5433 33.2587,15.5433 " />

   <path
   style="fill:#5955bd;fill-opacity:0.21960802;fill-rule:nonzero"
   inkscape:connector-curvature="0"
   id="_61854152"
   class="fil74"
   d="m 30.8776,12.0177 0.346063,0 c -0.172441,-0.277559 -0.275197,-0.608268 -0.276378,-0.960236 l 0,-0.0035 -0.0012,-4.2283503 -0.0035,0 0,-0.00472 c 0,-0.48189 0.193701,-0.925984 0.499606,-1.24724 l 0.0248,-0.025984 1.15039,0.933071 5.60551,0.100394 c 0,0 0.608268,-0.374409 1.21181,-0.809055 0.209055,0.295276 0.334252,0.660236 0.336614,1.05 l 0,0.00354 0.0012,4.2283493 0.0035,0 c 0,0.337795 -0.09685,0.661417 -0.263386,0.936614 l -0.03307,0.02717 -0.03307,0.02835 -0.03425,0.02835 -0.03425,0.02835 -0.03425,0.02835 -0.03543,0.02835 -0.03543,0.02953 -0.02126,0.01772 -3.20079,-1.67598 -3.98858,0.556299 -0.869291,1.27795 -0.315354,-0.347244 z m 6.9685,1.35236 1.30748,0.227953 -2.11299,-0.03071 c 0.19252,-0.05197 0.491339,-0.122835 0.805512,-0.197244 z m -3.94134,0.153543 -3.60945,-0.05197 1.71614,-0.206693 -0.783071,0.09449 c 0.649606,0.04252 1.67598,0.10748 2.67638,0.164173 z" />

   <path
   style="fill:#5955bd;fill-opacity:0.58039198;fill-rule:nonzero"
   inkscape:connector-curvature="0"
   id="_58117528"
   class="fil75"
   d="m 37.8461,13.3701 c -0.314173,0.07441 -0.612992,0.145276 -0.805512,0.197244 l -3.12638,-0.0437 c -1.00394,-0.05669 -2.03386,-0.121654 -2.68583,-0.164173 l 0.783071,-0.09449 -1.71614,0.206693 -0.303543,-0.0047 -0.01299,0.04252 -0.49252,0.05905 -1.05591,-0.831496 0.08268,-0.0874 0.291732,-0.291732 0.07795,0 c 0.106299,-0.06614 0.217323,-0.125197 0.334252,-0.173622 l 0.0035,0 c 0.256299,-0.105118 0.535039,-0.166535 0.818504,-0.166535 l 0.838583,0 0.315354,0.347244 0.869291,-1.27795 3.98858,-0.556299 3.20079,1.67598 0.261024,-0.216142 -0.01772,0.02717 0.413386,0 c 0.28937,0 0.569291,0.06024 0.823228,0.166535 0.26811,0.111024 0.509055,0.274016 0.701575,0.466535 0.07677,0.07677 0.147638,0.16063 0.21378,0.251575 l -1.23661,0.713386 -1.25669,-0.01772 -1.30748,-0.227953 z" />

   <path
   style="fill:#c1bfff;fill-rule:nonzero"
   inkscape:connector-curvature="0"
   id="_58041336"
   class="fil76"
   d="m 25.7421,22.6346 c 0.574016,-0.713386 1.16811,-1.42087 1.16811,-1.42087 l 4.54606,0.100394 1.76339,1.11024 c -0.315354,0.309449 -0.744094,0.504331 -1.21417,0.504331 l -5.30787,0 c -0.351969,0 -0.680315,-0.109843 -0.955512,-0.294094 z m 10.5992,-0.444094 1.52835,-0.724016 3.48425,-0.152362 1.71732,0.101575 1.19646,1.02047 c -0.314173,0.302362 -0.737008,0.49252 -1.20236,0.49252 l -5.30787,0 c -0.487795,0 -0.933071,-0.210236 -1.25433,-0.544488 l -0.0047,-0.0035 c -0.05669,-0.05906 -0.108661,-0.122835 -0.157087,-0.190157 z" />

   <polygon
   style="fill:#c1bfff;fill-rule:nonzero"
   id="_58357272"
   class="fil76"
   points="29.7024,14.9787 29.9917,13.4669 40.6465,13.6193 40.5874,15.124 " />

   <path
   style="fill:#5955bd;fill-opacity:0.58039198;fill-rule:nonzero"
   inkscape:connector-curvature="0"
   id="_63456960"
   class="fil75"
   d="m 32.3268,15.0425 c 0.499606,0.153543 0.715748,0.394488 0.938976,0.507874 0.06614,0.06968 0.127559,0.144094 0.180709,0.224409 l -1.13268,1.13504 -5.55472,0 -1.52598,-1.11024 c 0.05906,-0.09094 0.126378,-0.174803 0.200787,-0.252756 0.316535,-0.33189 0.762992,-0.540945 1.25433,-0.543307 l 0.0035,-0.0035 0.0035,0 5.6315,0.04252 z M 31.466957,5.54762 c 0.315354,-0.316535 0.751181,-0.514961 1.22953,-0.517323 l 0.0035,-0.00354 0.0035,0 5.30906,0 c 0.49252,0 0.936614,0.211417 1.25433,0.543307 l 0.0047,0.00354 c 0.05906,0.061417 0.113386,0.127559 0.162992,0.198425 -0.603543,0.434646 -1.21181,0.809055 -1.21181,0.809055 L 32.61736,6.48069 31.46697,5.547619 z m 11.5972,9.45236 0.05315,0.0012 c 0.336614,0.08504 0.628346,0.179528 0.870472,0.270472 0.121654,0.07677 0.231496,0.168898 0.330709,0.271654 l 0.0047,0.0035 c 0.116929,0.122835 0.217323,0.263386 0.296457,0.41811 l -0.94252,0.944882 -5.55472,0 -1.72441,-1.25315 0.09567,-0.109843 c 0.144094,-0.151181 0.316535,-0.277559 0.506693,-0.369685 l 6.06378,-0.177165 z" />

   <path
   style="fill:#ffffff;fill-rule:nonzero"
   inkscape:connector-curvature="0"
   id="_58109784"
   class="fil70"
   d="m 28.9394,15.9992 0,-1.82362 c 0,-0.318898 0.222047,-0.608268 0.432283,-0.818504 l -0.09095,0 c 0.209055,-0.206693 0.594094,-0.340157 0.909449,-0.340157 l 4.70315,0 0,-1.1622 -2.1874,0 c -0.414567,0 -0.759449,-0.361417 -0.762992,-0.800787 l -0.0012,-4.22835 c -0.0024,-0.43937 0.343701,-0.799606 0.761811,-0.799606 l 5.30906,0 c 0.419291,0 0.76063,0.366142 0.762992,0.799606 l 0.0012,4.22835 c 0,0.42874 -0.344882,0.800787 -0.762992,0.800787 l -2.1189,0 0,1.1622 4.01339,0 c 0.317717,0 0.562205,0.132283 0.77126,0.341339 0.209055,0.209055 0.341339,0.499606 0.341339,0.817323 l 0,1.82362 2.04331,0 c 0.419291,0 0.76063,0.366142 0.762992,0.799606 l 0.0012,4.32992 c 0,0.429921 -0.344882,0.800787 -0.762992,0.800787 -1.67598,0 -3.63189,0 -5.30787,0 -0.414567,0 -0.759449,-0.361417 -0.762992,-0.800787 l -0.0012,-4.32992 c -0.0024,-0.43937 0.343701,-0.799606 0.761811,-0.799606 l 2.31024,0 0,-1.82362 c 0,-0.04252 -0.0189,-0.08386 -0.04606,-0.111024 -0.02716,-0.02717 -0.0685,-0.04606 -0.111024,-0.04606 l -9.71811,0 c -0.04488,0 -0.08386,0.01772 -0.112205,0.04488 -0.02717,0.02717 -0.04488,0.06732 -0.04488,0.112205 l 0,1.82362 1.97126,0 c 0.419291,0 0.76063,0.366142 0.762992,0.799606 l 0.0012,4.32992 c 0,0.429921 -0.344882,0.800787 -0.762992,0.800787 -1.67598,0 -3.63189,0 -5.30787,0 -0.414567,0 -0.759449,-0.361417 -0.762992,-0.800787 l -0.0012,-4.32992 c -0.0024,-0.43937 0.343701,-0.799606 0.761811,-0.799606 l 2.24409,0 z" />

   <path
   style="fill:#b2b2b2;fill-opacity:0.43921599;fill-rule:nonzero"
   inkscape:connector-curvature="0"
   id="_58065864"
   class="fil77"
   d="m 28.8803,15.9992 0,-1.30276 0.05079,-0.0012 0,2.21457 -2.17205,0 -0.716929,-0.522047 c 0.133465,-0.232677 0.377953,-0.388583 0.65315,-0.388583 l 2.18504,0 z m 1.00984,0 2.11417,0 c 0.32126,0 0.596457,0.214961 0.708661,0.510236 l -0.399213,0.400394 -2.42362,0 0,-0.91063 z m 2.35984,-9.81614 c 0.126378,-0.098032 0.284646,-0.157087 0.453543,-0.157087 l 5.30906,0 c 0.242126,0 0.458268,0.121654 0.597638,0.308268 l -0.387402,0.24685 -5.60551,-0.100394 -0.367323,-0.297638 z m 8.81693,9.81614 1.99724,0 c 0.406299,0 0.740551,0.346063 0.761811,0.761811 l -0.148819,0.148819 -2.62677,0 c 0,-0.346063 -0.01417,-0.649606 -0.03898,-0.911811 l 0.05551,0 0,0.0012 z M 40.130296,15.998 c -0.0248,0.262205 -0.03898,0.565748 -0.03898,0.911811 l -1.9689,0 -0.915354,-0.664961 c 0.13937,-0.15 0.334252,-0.245669 0.548031,-0.245669 l 2.31024,0 0,-0.0012 0.06496,0 z" />

  </g>
  <rect
     style="opacity:0.6;fill:#ffffff;fill-opacity:1;stroke:none"
     id="rect4898"
     width="0.40398911"
     height="42.843266"
     x="75.710381"
     y="2.6013739"
     ry="0" />
  <rect
     style="opacity:0.59999999999999998;fill:#1a0000;fill-opacity:1;fill-rule:evenodd;stroke:none"
     id="rect4898-8"
     width="0.40398911"
     height="42.843266"
     x="76.10778"
     y="2.6066058"
     ry="0" />
  <path
     style="fill:#441650;fill-rule:nonzero;opacity:0.6"
     inkscape:connector-curvature="0"
     class="fil63"
     d="m 97.528911,24.656507 c -0.03661,0.04724 -0.07676,0.09094 -0.118109,0.133465 l -0.0024,0.0024 c -0.296492,0.298818 -0.711059,0.485432 -1.159875,0.486613 l 0,0.0024 -0.0024,0 0,-0.0024 -6.529129,-0.0024 -12.1547,-0.0035 0,0.0024 c -0.361452,1e-6 -0.695704,-0.120471 -0.968539,-0.320078 l 0.930709,-0.682677 0.0378,0.0012 0,0.0024 12.1547,0.0035 6.52913,0.0024 0,-0.0024 0.0024,0 0,0.0024 c 0.121654,0 0.238583,-0.0378 0.337795,-0.101575 0.31063,0.151181 0.629528,0.312992 0.94252,0.475984 z"
     id="path5407-8" />
</g>

 </g>
      </g>
    </g>
    <path
       id="rect5265-4-6"
       d="m 45.270043,30.369358 0,3.452381 c 0,4.543886 -1.125763,9.797836 -5.262862,9.770834 L 7.1758617,43.378287 C 3.8239777,43.35641 2.4844286,38.365625 2.4844286,33.821739 l 0,-3.452381 c 0,4.543886 2.6966206,8.199405 6.048576,8.199405 l 30.6884624,0 c 3.351955,0 6.048576,-3.655519 6.048576,-8.199405 z"
       style="fill:none;stroke:none"
       inkscape:connector-curvature="0"
       sodipodi:nodetypes="csssscssc" />
    <path
       id="rect5265-4-6-4"
       d="m 45.412901,30.226501 0,3.452381 c 0,4.543886 -1.125763,9.797836 -5.262862,9.770834 L 7.3187187,43.23543 C 3.9668347,43.21355 2.6272858,38.222768 2.6272858,33.678882 l 0,-3.452381 c 0,4.543886 2.6966209,8.199405 6.0485759,8.199405 l 30.6884633,0 c 3.351955,0 6.048576,-3.655519 6.048576,-8.199405 z"
       style="fill:#000000;fill-opacity:0.3137255;stroke:none"
       inkscape:connector-curvature="0"
       sodipodi:nodetypes="csssscssc" />
    <path
       id="rect5265-4-6-7"
       d="m 45.090563,31.256197 0,0.766958 c 0,2.402297 -2.013438,6.46502 -7.215019,6.456338 L 9.353012,38.431893 C 5.0124019,38.424643 3.521115,35.640947 3.2237113,34.451726 L 2.5451399,31.73834 c 0,1.00944 2.1454152,5.625096 7.9869031,5.625096 l 26.660904,0 c 6.447577,0 7.897616,-5.097799 7.897616,-6.107239 z"
       style="fill:#ffffff;fill-opacity:0.47058824;stroke:none"
       inkscape:connector-curvature="0"
       sodipodi:nodetypes="csssscssc" />
  </g>
  <g
     inkscape:groupmode="layer"
     id="layer2"
     inkscape:label="Layer" />
</svg>
