<?xml version="1.0" encoding="UTF-8" standalone="no"?>
<!-- Created with Inkscape (http://www.inkscape.org/) -->

<svg
   xmlns:dc="http://purl.org/dc/elements/1.1/"
   xmlns:cc="http://creativecommons.org/ns#"
   xmlns:rdf="http://www.w3.org/1999/02/22-rdf-syntax-ns#"
   xmlns:svg="http://www.w3.org/2000/svg"
   xmlns="http://www.w3.org/2000/svg"
   xmlns:xlink="http://www.w3.org/1999/xlink"
   xmlns:sodipodi="http://sodipodi.sourceforge.net/DTD/sodipodi-0.dtd"
   xmlns:inkscape="http://www.inkscape.org/namespaces/inkscape"
   width="48px"
   height="48px"
   id="svg85312"
   version="1.1"
   inkscape:version="0.48.3.1 r9886"
   sodipodi:docname="libreoffice-calc.svg">
  <defs
     id="defs85314">
    <linearGradient
       inkscape:collect="always"
       xlink:href="#id2-34"
       id="linearGradient85135"
       gradientUnits="userSpaceOnUse"
       gradientTransform="translate(-0.13435794,-2.4066622)"
       x1="27.2008"
       y1="29.7024"
       x2="26.5063"
       y2="8.3586597" />
    <linearGradient
       y2="8.3586597"
       x2="26.5063"
       y1="29.7024"
       x1="27.2008"
       gradientUnits="userSpaceOnUse"
       id="id2-34">
      <stop
         id="stop84798"
         style="stop-color:#F3F3F3"
         offset="0" />
      <stop
         id="stop84800"
         style="stop-color:white"
         offset="1" />
    </linearGradient>
    <linearGradient
       inkscape:collect="always"
       xlink:href="#id6-8"
       id="linearGradient85138"
       gradientUnits="userSpaceOnUse"
       gradientTransform="translate(-0.13435794,-2.4066622)"
       x1="23.7803"
       y1="15.9673"
       x2="29.737801"
       y2="21.336599" />
    <linearGradient
       y2="21.336599"
       x2="29.737801"
       y1="15.9673"
       x1="23.7803"
       gradientUnits="userSpaceOnUse"
       id="id6-8">
      <stop
         id="stop84818"
         style="stop-color:#5A93C4"
         offset="0" />
      <stop
         id="stop84820"
         style="stop-color:#76B5EA"
         offset="1" />
    </linearGradient>
    <linearGradient
       id="id2"
       gradientUnits="userSpaceOnUse"
       x1="26.438999"
       y1="29.858299"
       x2="26.020901"
       y2="8.2984304">
      <stop
         offset="0"
         style="stop-color:#EBEBEB"
         id="stop19" />
      <stop
         offset="1"
         style="stop-color:white"
         id="stop21" />
    </linearGradient>
    <linearGradient
       id="id5"
       gradientUnits="userSpaceOnUse"
       x1="31.0394"
       y1="30.853901"
       x2="31.6583"
       y2="17.5051">
      <stop
         offset="0"
         style="stop-color:#FF8E47"
         id="stop34" />
      <stop
         offset="1"
         style="stop-color:#E6773A"
         id="stop36" />
    </linearGradient>
    <linearGradient
       y2="7.7917299"
       x2="23.648001"
       y1="29.275999"
       x1="24.807899"
       gradientUnits="userSpaceOnUse"
       id="id3-87">
      <stop
         id="stop5197"
         style="stop-color:#EBEBEB"
         offset="0" />
      <stop
         id="stop5199"
         style="stop-color:white"
         offset="1" />
    </linearGradient>
    <linearGradient
       inkscape:collect="always"
       xlink:href="#id3-87"
       id="linearGradient4390"
       gradientUnits="userSpaceOnUse"
       x1="24.807899"
       y1="29.275999"
       x2="23.648001"
       y2="7.7917299" />
    <linearGradient
       inkscape:collect="always"
       xlink:href="#id3-6"
       id="linearGradient5910"
       gradientUnits="userSpaceOnUse"
       x1="24.681499"
       y1="30.039"
       x2="24.077999"
       y2="7.79882"
       gradientTransform="translate(0.55780779,-2.2204758)" />
    <linearGradient
       y2="7.79882"
       x2="24.077999"
       y1="30.039"
       x1="24.681499"
       gradientUnits="userSpaceOnUse"
       id="id3-6">
      <stop
         id="stop5603"
         style="stop-color:#F3F3F3"
         offset="0" />
      <stop
         id="stop5605"
         style="stop-color:white"
         offset="1" />
    </linearGradient>
    <linearGradient
       inkscape:collect="always"
       xlink:href="#id5-76"
       id="linearGradient5913"
       gradientUnits="userSpaceOnUse"
       x1="24.9827"
       y1="8.5074797"
       x2="25.3654"
       y2="26.0492"
       gradientTransform="translate(0.55780779,-2.2204758)" />
    <linearGradient
       y2="26.0492"
       x2="25.3654"
       y1="8.5074797"
       x1="24.9827"
       gradientUnits="userSpaceOnUse"
       id="id5-76">
      <stop
         id="stop5613"
         style="stop-color:#9E59B5"
         offset="0" />
      <stop
         id="stop5615"
         style="stop-color:#B476DE"
         offset="1" />
    </linearGradient>
    <linearGradient
       inkscape:collect="always"
       xlink:href="#id7-6"
       id="linearGradient5917"
       gradientUnits="userSpaceOnUse"
       x1="34.756302"
       y1="25.9937"
       x2="34.985401"
       y2="28.9417"
       gradientTransform="translate(0.55780779,-2.2204758)" />
    <linearGradient
       y2="28.9417"
       x2="34.985401"
       y1="25.9937"
       x1="34.756302"
       gradientUnits="userSpaceOnUse"
       id="id7-6">
      <stop
         id="stop5623"
         style="stop-color:#9756AD"
         offset="0" />
      <stop
         id="stop5625"
         style="stop-color:#B476DE"
         offset="1" />
    </linearGradient>
    <linearGradient
       inkscape:collect="always"
       xlink:href="#id7-6"
       id="linearGradient4496"
       gradientUnits="userSpaceOnUse"
       gradientTransform="translate(0.55780779,-2.2204758)"
       x1="34.756302"
       y1="25.9937"
       x2="34.985401"
       y2="28.9417" />
    <linearGradient
       inkscape:collect="always"
       xlink:href="#id5-76"
       id="linearGradient4498"
       gradientUnits="userSpaceOnUse"
       gradientTransform="translate(0.55780779,-2.2204758)"
       x1="24.9827"
       y1="8.5074797"
       x2="25.3654"
       y2="26.0492" />
    <linearGradient
       inkscape:collect="always"
       xlink:href="#id3-6"
       id="linearGradient4500"
       gradientUnits="userSpaceOnUse"
       gradientTransform="translate(0.55780779,-2.2204758)"
       x1="24.681499"
       y1="30.039"
       x2="24.077999"
       y2="7.79882" />
  </defs>
  <sodipodi:namedview
     id="base"
     pagecolor="#ffffff"
     bordercolor="#666666"
     borderopacity="1.0"
     inkscape:pageopacity="0.0"
     inkscape:pageshadow="2"
     inkscape:zoom="7"
     inkscape:cx="22.862136"
     inkscape:cy="36.357907"
     inkscape:current-layer="g4476"
     showgrid="true"
     inkscape:grid-bbox="true"
     inkscape:document-units="px"
     inkscape:window-width="1024"
     inkscape:window-height="723"
     inkscape:window-x="0"
     inkscape:window-y="22"
     inkscape:window-maximized="1" />
  <metadata
     id="metadata85317">
    <rdf:RDF>
      <cc:Work
         rdf:about="">
        <dc:format>image/svg+xml</dc:format>
        <dc:type
           rdf:resource="http://purl.org/dc/dcmitype/StillImage" />
        <dc:title></dc:title>
      </cc:Work>
    </rdf:RDF>
  </metadata>
  <g
     id="layer1"
     inkscape:label="Layer 1"
     inkscape:groupmode="layer">
    <rect
       ry="6.2786646"
       y="-44.583736"
       x="1.699003"
       height="44.399963"
       width="44.399963"
       id="rect5263-6-7"
       style="fill:#000000;fill-opacity:0.01960784;stroke:none"
       transform="scale(1,-1)" />
    <rect
       style="fill:#000000;fill-opacity:0.03921569;stroke:none"
       id="rect5261-8-3"
       width="43.799973"
       height="43.799973"
       x="1.9989909"
       y="-44.283627"
       ry="6.1938181"
       transform="scale(1,-1)" />
    <rect
       ry="6.1089716"
       y="-43.983578"
       x="2.2989786"
       height="43.199982"
       width="43.199982"
       id="rect5259-7-5"
       style="fill:#000000;fill-opacity:0.07843137;stroke:none"
       transform="scale(1,-1)" />
    <rect
       style="fill:#000000;fill-opacity:0.15686275;stroke:none"
       id="rect5257-4-5"
       width="42.599991"
       height="42.599991"
       x="2.5989969"
       y="-43.68359"
       ry="6.0241251"
       transform="scale(1,-1)" />
    <rect
       ry="5.9392786"
       y="-43.383724"
       x="2.8989847"
       height="42"
       width="42"
       id="rect5237-5-2"
       style="fill:#e580ff;fill-opacity:1;stroke:none"
       transform="scale(1,-1)" />
    <path
       id="rect5265-4-6"
       d="m 45.270043,30.369358 0,3.452381 c 0,4.543886 -1.125763,9.797836 -5.262862,9.770834 L 7.1758617,43.378287 C 3.8239777,43.35641 2.4844286,38.365625 2.4844286,33.821739 l 0,-3.452381 c 0,4.543886 2.6966206,8.199405 6.048576,8.199405 l 30.6884624,0 c 3.351955,0 6.048576,-3.655519 6.048576,-8.199405 z"
       style="fill:none;stroke:none"
       inkscape:connector-curvature="0"
       sodipodi:nodetypes="csssscssc" />
    <path
       id="rect5265-4-6-4"
       d="m 45.412901,30.226501 0,3.452381 c 0,4.543886 -1.125763,9.797836 -5.262862,9.770834 L 7.3187187,43.23543 C 3.9668347,43.21355 2.6272858,38.222768 2.6272858,33.678882 l 0,-3.452381 c 0,4.543886 2.6966209,8.199405 6.0485759,8.199405 l 30.6884633,0 c 3.351955,0 6.048576,-3.655519 6.048576,-8.199405 z"
       style="fill:#000000;fill-opacity:0.17647059;stroke:none"
       inkscape:connector-curvature="0"
       sodipodi:nodetypes="csssscssc" />
    <path
       id="rect5265-4-6-7"
       d="m 45.090563,31.256197 0,0.766958 c 0,2.402297 -2.013438,6.46502 -7.215019,6.456338 L 9.353012,38.431893 C 5.0124019,38.424643 3.521115,35.640947 3.2237113,34.451726 L 2.5451399,31.73834 c 0,1.00944 2.1454152,5.625096 7.9869031,5.625096 l 26.660904,0 c 6.447577,0 7.897616,-5.097799 7.897616,-6.107239 z"
       style="fill:#ffffff;fill-opacity:0.17647059;stroke:none"
       inkscape:connector-curvature="0"
       sodipodi:nodetypes="csssscssc" />
    <g
       id="g4476"
       transform="translate(-0.57142853,-0.14285715)">
      <path
         style="fill:#9756ad;fill-opacity:0.43921599;fill-rule:nonzero"
         inkscape:connector-curvature="0"
         class="fil21"
         d="m 25.605408,34.386625 -0.0083,-0.151181 c 0,-0.409843 0.168898,-0.784252 0.434646,-1.05354 l 0.01181,-0.01181 c 0.269291,-0.265748 0.643701,-0.434646 1.05354,-0.434646 l 11.1591,0 c 0.411024,0 0.785433,0.170079 1.05354,0.434646 l 0.01181,0.01181 c 0.265748,0.269291 0.434646,0.643701 0.434646,1.05354 l -0.0083,0.151181 -14.1425,0 z m -15.7583002,0 -0.00827,-0.151181 c 0,-0.409843 0.1688982,-0.784252 0.4346462,-1.05354 l 0.01181,-0.01181 c 0.26811,-0.264567 0.64252,-0.434646 1.05354,-0.434646 l 11.1591,0 c 0.409843,0 0.784252,0.168898 1.05354,0.434646 l 0.01181,0.01181 c 0.265748,0.269291 0.434646,0.643701 0.434646,1.05354 l -0.0083,0.151181 -14.1425009,0 z"
         id="path5662" />
      <path
         style="fill:#d67ff2;fill-opacity:0.67843095;fill-rule:evenodd"
         inkscape:connector-curvature="0"
         class="fil22"
         d="m 9.8471778,34.386625 14.1425002,0 c -0.03543,0.350787 -0.194882,0.667323 -0.426378,0.902362 l -0.01181,0.01181 c -0.269291,0.265748 -0.643701,0.434646 -1.05354,0.434646 l -11.1591,0 c -0.411024,0 -0.785433,-0.170079 -1.05354,-0.434646 L 10.2735,35.288987 C 10.042002,35.053948 9.8825528,34.737412 9.8471198,34.386625 z m 15.7583002,0 14.1425,0 c -0.03543,0.350787 -0.194882,0.667323 -0.426378,0.902362 l -0.01181,0.01181 c -0.26811,0.264567 -0.64252,0.434646 -1.05354,0.434646 l -11.1591,0 c -0.409843,0 -0.784252,-0.168898 -1.05354,-0.434646 l -0.01181,-0.01181 c -0.231498,-0.235039 -0.390947,-0.551575 -0.42638,-0.902362 z"
         id="path5664" />
      <polygon
         transform="translate(0.55780779,-2.2204758)"
         style="fill:#000000;fill-rule:nonzero"
         class="fil42"
         points="15.3236,28.4055 15.4772,28.3665 21.9307,28.2803 21.9307,28.4055 "
         id="polygon5699" />
      <path
         style="fill:#000000;fill-rule:nonzero"
         inkscape:connector-curvature="0"
         class="fil42"
         d="m 23.610608,13.501224 3.67441,0 6.6378,-1.05827 -0.0012,0.298819 c -1.21772,0.03898 -5.84055,1.21535 -5.84055,1.21535 l -4.47047,-0.455906 z"
         id="path5701" />
      <path
         style="fill:#000000;fill-rule:nonzero"
         inkscape:connector-curvature="0"
         class="fil42"
         d="m 33.799908,18.513825 0.07559,-1.29094 c 0,0 -1.9311,0.303543 -2.23465,0.303543 -0.0815,0 -0.272835,0.04724 -0.509055,0.114567 0.23622,-0.06732 0.427559,-0.114567 0.509055,-0.114567 0.303543,0 2.23465,-0.303543 2.23465,-0.303543 l -0.07559,1.29094 -1.4563,0.670866 1.4563,-0.670866 z"
         id="path5703" />
      <path
         style="fill:#9756ad;fill-opacity:0.21960802;fill-rule:nonzero"
         inkscape:connector-curvature="0"
         class="fil43"
         d="m 31.714108,20.850025 0,-0.0012 0.484252,-0.106299 1.56496,1.37953 -6.66732,1.06299 -4.50709,0 -6.36378,-0.874016 1.30866,-1.59213 0.301181,0.05906 0,0.0012 0.674409,0.127559 0.0083,0 0.550394,0.108661 0.0083,0.0035 c 0.379134,0.07677 0.80315,0.15 1.26142,0.211417 0.432283,0.05787 0.916535,0.112205 1.43976,0.155906 0.545669,0.04488 1.07835,0.07913 1.59094,0.100394 0.487795,0.0189 1.04055,0.02953 1.66063,0.02953 0.634252,0 1.24134,-0.01181 1.7752,-0.03307 0.571654,-0.02362 1.11614,-0.05787 1.58386,-0.100394 0.440551,-0.04016 0.888189,-0.09449 1.33937,-0.159449 0.441732,-0.06496 0.833858,-0.133465 1.17756,-0.20315 l 0,-0.0012 0.809055,-0.168898 z"
         id="path5705" />
      <path
         style="fill:#9756ad;fill-opacity:0.21960802;fill-rule:nonzero"
         inkscape:connector-curvature="0"
         class="fil43"
         d="m 16.225108,17.259425 1.27087,-1.54606 0,0.101575 c 2.54764,0.400394 4.96772,0.778346 7.55669,0.778346 1.34882,0 2.67874,-0.07205 3.99213,-0.224409 1.09724,-0.127559 2.19094,-0.315354 3.2811,-0.566929 l 1.4374,1.2685 -6.66732,1.06299 -4.50709,0 -6.36378,-0.874016 z"
         id="path5707" />
      <path
         style="fill:#9756ad;fill-opacity:0.21960802;fill-rule:nonzero"
         inkscape:connector-curvature="0"
         class="fil43"
         d="m 16.414108,12.627124 1.2248,-1.49055 0.237402,0.04842 c 0.657874,0.134646 1.31575,0.264567 1.98307,0.375591 0.63189,0.103937 1.2815,0.191339 1.96063,0.248031 0.54685,0.04488 1.07953,0.07913 1.59331,0.100394 0.486614,0.0189 1.04173,0.02953 1.66063,0.02953 0.637795,0 1.24724,-0.01181 1.78346,-0.03307 0.569291,-0.02244 1.11142,-0.05669 1.57795,-0.09921 0.441732,-0.04016 0.88937,-0.09449 1.33819,-0.159449 0.433465,-0.0626 0.827953,-0.132283 1.1811,-0.204331 l 0.0047,0 0.849213,-0.172441 0.04134,-0.01181 0.601181,-0.105118 0.0012,-0.03898 1.47047,1.29803 0,0.03071 -6.6378,1.05827 -4.50709,0 -6.36378,-0.874016 z"
         id="path5709" />
      <path
         inkscape:connector-curvature="0"
         class="fil44"
         d="m 20.490108,24.499625 c 1.20945,0.113386 6.49134,0.574016 8.7437,0.244488 l 0,0.01417 4.61102,0 c 0.20315,0 0.405118,0.04724 0.592913,0.134646 l 0.0083,0.0035 c 0.173622,0.08268 0.335433,0.20315 0.464173,0.350787 l -0.0012,0.0012 c 0.10748,0.120472 0.199606,0.255118 0.26811,0.408661 l 0.0047,0.0035 c 0.03189,0.07323 0.05787,0.148819 0.07795,0.227953 l -8.02441,0.10748 0,-0.01299 -1.37953,0 -0.328346,0 -0.02126,0 -0.977953,0 -0.02126,0 -0.441732,0 -1.57677,0 0,0.07677 -6.45354,0.08622 -0.153543,0.03898 -1.56142,0 c 0.01181,-0.148819 0.04488,-0.292913 0.09094,-0.426378 l 0.0083,-0.0189 c 0.06732,-0.180709 0.166535,-0.347244 0.294094,-0.490157 l -0.0012,-0.0012 0.04488,-0.04842 0.266929,-0.294094 0.134646,0 0.0189,-0.0094 0.0083,-0.0035 c 0.187795,-0.0874 0.390945,-0.134646 0.591732,-0.134646 l 4.7126,0 0,-0.258661 z"
         id="path5711"
         style="fill:url(#linearGradient4496);fill-opacity:0.50196078;fill-rule:nonzero" />
      <path
         style="fill:#e69cff;fill-opacity:0.58039198;fill-rule:nonzero"
         inkscape:connector-curvature="0"
         class="fil45"
         d="m 14.320008,26.185025 8.1685,0 0,0.571654 0,0.04016 4.74685,0 0,-0.04016 0,-0.571654 8.06929,0 0.0024,0.08386 c 0,0.185433 -0.03425,0.387402 -0.09567,0.569291 -0.06496,0.187795 -0.167717,0.373228 -0.302362,0.525591 l 0.0012,0.0012 c -0.129921,0.148819 -0.290551,0.26811 -0.464173,0.350787 l -0.0083,0.0035 c -0.187795,0.0874 -0.389764,0.134646 -0.592913,0.134646 l -4.61102,0 0,0.941339 -0.999213,0 -6.74528,0 -0.999213,0 0,-0.941339 -4.7126,0 c -0.206693,0 -0.405118,-0.04842 -0.57874,-0.127559 l -0.01181,-0.0071 c -0.170104,-0.0791 -0.326009,-0.193665 -0.455931,-0.335397 -0.133465,-0.144094 -0.240945,-0.320079 -0.311811,-0.512598 l -0.0083,-0.01181 c -0.05906,-0.166535 -0.09567,-0.356693 -0.09567,-0.552756 l 0.0047,-0.121654 z"
         id="path5713" />
      <path
         inkscape:connector-curvature="0"
         class="fil46"
         d="m 14.792408,22.432625 1.28031,-1.03346 -0.151181,-13.9736004 2.44134,-0.06496 -0.504331,-0.127559 c 0.283465,-0.0626 0.588189,-0.121654 0.915354,-0.177165 0.843307,-0.142913 1.82598,-0.258661 2.8937,-0.336614 l 0.0035,0 c 1.02756,-0.07677 2.14252,-0.11811 3.3,-0.11811 1.12677,0 2.24882,0.03898 3.27874,0.109843 1.04882,0.07205 2.01614,0.177165 2.8122,0.305906 l 0.0047,0 0.02008,0.0035 1.88031,-0.05079 0.985039,0.303543 -0.07677,13.7469004 c 0,0 0.413386,0.84685 1.02402,1.59449 0.07087,-0.06614 0.135827,-0.133465 0.194882,-0.20315 0.266929,-0.311811 0.427559,-0.659055 0.454724,-1.03583 l 0.0035,-0.07441 0,-0.115748 0,-13.6240014 0,-0.101575 0.0012,-0.0248 0,-0.184252 -0.0035,-0.04724 c -0.0059,-0.133465 -0.02598,-0.251575 -0.06142,-0.36378 l -0.05906,-0.144094 -0.0012,-0.0024 -0.0083,-0.02362 -0.02008,-0.0378 -0.108661,-0.159449 -0.03071,-0.03779 -0.06614,-0.07913 -0.0059,-0.0059 -0.03189,-0.02717 c -0.325984,-0.298819 -0.853937,-0.561024 -1.53661,-0.774803 -0.58937,-0.185433 -1.35118,-0.354331 -2.23701,-0.497244 l 0,-0.0012 c -0.871554,-0.141727 -1.90384,-0.253932 -3.00108,-0.329523 -1.09724,-0.07441 -2.26535,-0.116929 -3.41102,-0.116929 -1.19291,0 -2.35866,0.04488 -3.44882,0.125197 -1.12087,0.0815 -2.16614,0.206693 -3.07677,0.360236 -0.891732,0.15 -1.65118,0.328346 -2.22756,0.517323 -0.688583,0.226772 -1.20472,0.51378 -1.49764,0.844488 l -0.155906,0.235039 c -0.07205,0.153543 -0.112205,0.282283 -0.137008,0.424016 l -0.0012,0 c -0.02008,0.125197 -0.0189,0.217323 -0.01772,0.330709 l -0.0035,0 0,0.0035 0.0035,0.0083 0,0.0035 0.0012,0.105118 -0.0035,0 0,0.0012 0,12.9909004 0.0035,0 -0.0012,0.774803 0.0035,0.08976 0.0035,0.03307 -0.0012,0 0.0012,0.02008 0.0012,0 c 0.01654,0.355512 0.147638,0.676772 0.375591,0.962598 z"
         id="path5715"
         style="fill:url(#linearGradient4498);fill-opacity:0.43921599;fill-rule:nonzero" />
      <path
         inkscape:connector-curvature="0"
         class="fil47"
         d="m 32.512508,21.696825 c -0.305906,0.07087 -0.791339,0.173622 -1.40433,0.298819 -0.780709,0.159449 -1.65118,0.290551 -2.63031,0.379134 -0.981496,0.08976 -2.25236,0.140551 -3.44882,0.140551 -1.18583,0 -2.31378,-0.04843 -3.33307,-0.133465 -1.05827,-0.08858 -2.01614,-0.222047 -2.81929,-0.38622 -0.372047,-0.07559 -0.83622,-0.164173 -1.22835,-0.237402 l -0.0012,0 -0.706299,-0.137008 -0.0071,-0.0012 c -0.235039,-0.05079 -0.35315,-0.211417 -0.406299,-0.38622 -0.03898,-0.124016 -0.03898,-0.253937 -0.03543,-0.329528 l 0.0047,-0.01535 0,-2.68346 0.454724,-0.3 c 1.42205,0.6 3.15236,0.764173 4.66063,0.894094 1.06417,0.09094 2.22756,0.141732 3.44055,0.141732 1.2437,0 2.55118,-0.05197 3.55512,-0.145276 1.00984,-0.09449 1.92047,-0.230315 2.74016,-0.399213 0.329528,-0.06732 0.634252,-0.141732 0.908268,-0.220866 0.265748,-0.07677 0.506693,-0.162992 0.71811,-0.252756 l 0.457087,0.296457 0.02835,2.33031 c 0.0024,0.02598 0.0024,0.05315 0.0024,0.07913 l 0,0.0024 -0.0012,0.0059 c -0.0815,0.682677 -0.367323,0.855118 -0.948425,1.05945 z m -6.98504,3.22559 -0.0189,-1.00512 0,-0.320079 0.322441,-0.0059 c 1.07362,-0.02008 2.2252,-0.0815 3.09921,-0.17126 0.875197,-0.09213 1.66417,-0.217323 2.39173,-0.367323 0.999213,-0.204331 1.85669,-0.490157 2.44724,-0.838583 0.470079,-0.279921 0.759449,-0.590551 0.784252,-0.912992 0,-0.03779 0.0012,-0.07795 0,-0.115748 l 0,-13.6240004 0,-0.111024 0.0012,-0.01535 c 0.0059,-0.152362 0,-0.242126 -0.01535,-0.294094 l -0.0012,-0.0024 c -0.0083,-0.02598 -0.02835,-0.04961 -0.05079,-0.07559 l -0.0059,-0.0059 c -0.435827,-0.399213 -1.61693,-0.758268 -3.25866,-1.02402 -1.66181,-0.269291 -3.96614,-0.431102 -6.25157,-0.431102 -2.39291,0 -4.63228,0.177165 -6.36142,0.470079 -1.64055,0.277559 -2.79685,0.644882 -3.14291,1.03819 -0.06496,0.134646 -0.06496,0.198425 -0.0626,0.329528 l 0,0.0035 0.0012,0.116929 0,0.0012 0,12.9909004 0,0 c 0.0024,0.25748 0,0.517323 -0.0012,0.774803 l 0.0059,0.06378 0.0012,0.02008 c 0.01063,0.337795 0.32126,0.635433 0.835039,0.897638 0.592913,0.301181 1.43622,0.544488 2.41417,0.744094 0.721654,0.147638 1.56496,0.272835 2.49094,0.36378 0.895276,0.0874 1.87441,0.148819 2.90079,0.170079 l 0.435827,0.0071 0,0.318898 0.0189,1.00984 0,0.06142 -0.441732,0 -2.57598,0 0,0.446457 0,0.327165 -0.328346,0 -5.38346,0 c -0.120472,0 -0.232677,0.05551 -0.315354,0.147638 l -0.0012,0 c -0.08976,0.09921 -0.146457,0.242126 -0.146457,0.401575 0,0.157087 0.05669,0.3 0.146457,0.398031 l 0.0012,0.0035 c 0.0815,0.08976 0.194882,0.146457 0.315354,0.146457 l 5.38346,0 0.328346,0 0,0.592913 0,0.348425 6.74528,0 0,-0.348425 0,-0.592913 0.328346,0 5.28189,0 c 0.121654,0 0.235039,-0.05551 0.315354,-0.146457 0.09094,-0.100394 0.147638,-0.281102 0.147638,-0.43937 0,-0.159449 -0.05787,-0.265748 -0.147638,-0.364961 -0.08032,-0.09095 -0.193701,-0.146457 -0.315354,-0.146457 l -5.28189,0 -0.328346,0 0,-0.327165 0,-0.446457 -2.37874,0 -0.328346,0 0,-0.06142 z m 7.93228,-11.332701 -0.01299,2.712991 -0.24685,0.315354 c -2.67874,0.681496 -5.38228,0.974409 -8.14724,0.974409 -2.68583,0 -5.1874,-0.398031 -7.83189,-0.81378 l -0.459449,-0.07559 -0.264567,-0.320079 0,-2.841731 0.455906,-0.3 c 2.2878,0.964961 5.61614,1.04528 8.12126,1.04528 2.46969,0 5.58189,0.01299 7.92874,-0.998031 l 0.457087,0.301181 z m -8.69291,-4.5873994 c 2.89961,-0.01299 5.99646,-0.383858 8.23583,-1.07835 l 0.426378,-0.131102 0,0.441732 c 0,0.625984 0.0094,1.28976 0.01654,1.9417304 0.0094,0.680314 0.0189,1.081889 0.0189,1.488189 0,0.28937 -0.565748,0.402756 -1.42323,0.575197 l -0.887008,0.179528 c -0.779528,0.16063 -1.65,0.290551 -2.62913,0.379134 -0.981496,0.08976 -2.25236,0.13937 -3.45118,0.13937 -1.18701,0 -2.31496,-0.04842 -3.33543,-0.133465 -1.38543,-0.115748 -2.70827,-0.36378 -4.06181,-0.64252 -0.574016,0.0094 -0.922441,-0.501969 -0.933071,-0.209055 l -0.24685,-0.06142 0,-0.255118 0,-2.4909394 0,-0.325984 0.0035,0 0,-0.506693 0,-0.445276 0.427559,0.134646 c 2.1874,0.689764 5.00906,1.01339 7.83898,1.00039 z"
         id="path5717"
         style="fill:url(#linearGradient4500);fill-rule:nonzero" />
      <path
         style="fill:#969696;fill-opacity:0.43921599;fill-rule:nonzero"
         inkscape:connector-curvature="0"
         class="fil48"
         d="m 15.928708,8.1082246 -0.0071,-0.682677 2.44134,-0.06496 -0.504331,-0.127559 c 0.283465,-0.0626 0.588189,-0.121654 0.915354,-0.177165 0.843307,-0.142913 1.82598,-0.258661 2.8937,-0.336614 l 0.0035,0 c 1.02756,-0.07677 2.14252,-0.11811 3.3,-0.11811 1.12677,0 2.24882,0.03898 3.27874,0.109843 1.04882,0.07205 2.01614,0.177165 2.8122,0.305906 l 0.0047,0 0.02008,0.0035 1.88031,-0.05079 0.985039,0.303543 -0.0047,0.835039 0.605906,0 0,-0.54685 0,-0.111024 0.0012,-0.01535 c 0.0059,-0.152362 0,-0.242126 -0.01535,-0.294094 l -0.0012,-0.0024 c -0.0083,-0.02598 -0.02835,-0.04961 -0.05079,-0.07559 l -0.0059,-0.0059 c -0.435827,-0.399213 -1.61693,-0.758268 -3.25866,-1.02402 -1.66181,-0.269291 -3.96614,-0.431102 -6.25157,-0.431102 -2.39291,0 -4.63228,0.177165 -6.36142,0.470079 -1.64055,0.277559 -2.79685,0.644882 -3.14291,1.03819 -0.06496,0.134646 -0.06496,0.198425 -0.0626,0.329528 l 0,0.0035 0.0012,0.116929 0,0.0012 0,0.54685 0.523228,0 z"
         id="path5719" />
      <path
         style="fill:#f2f2f2;fill-rule:nonzero"
         inkscape:connector-curvature="0"
         class="fil49"
         d="m 27.097208,34.736225 c -0.276378,0 -0.500787,-0.224409 -0.500787,-0.500787 0,-0.276378 0.224409,-0.500787 0.500787,-0.500787 l 11.1591,0 c 0.276378,0 0.500787,0.224409 0.500787,0.500787 0,0.276378 -0.224409,0.500787 -0.500787,0.500787 l -11.1591,0 z m -15.7583,0 c -0.276378,0 -0.500787,-0.224409 -0.500787,-0.500787 0,-0.276378 0.224409,-0.500787 0.500787,-0.500787 l 11.1591,0 c 0.276378,0 0.500787,0.224409 0.500787,0.500787 0,0.276378 -0.224409,0.500787 -0.500787,0.500787 l -11.1591,0 z"
         id="path5721" />
      <path
         style="fill:#d67ff2;fill-opacity:0.67843095;fill-rule:nonzero"
         inkscape:connector-curvature="0"
         class="fil50"
         d="m 27.097208,32.697625 c -0.409843,0 -0.784252,-0.168898 -1.05354,-0.434646 l -0.01181,-0.01181 c -0.264567,-0.26811 -0.434646,-0.64252 -0.434646,-1.05354 l 0.0083,-0.152362 14.1425,0 0.0083,0.152362 c 0,0.411024 -0.170079,0.785433 -0.434646,1.05354 l -0.01181,0.01181 c -0.26811,0.264567 -0.64252,0.434646 -1.05354,0.434646 l -11.1591,0 z m -15.7583,0 c -0.411024,0 -0.785433,-0.170079 -1.05354,-0.434646 l -0.01181,-0.01181 c -0.264567,-0.26811 -0.4346462,-0.64252 -0.4346462,-1.05354 l 0.00827,-0.152362 14.1425002,0 0.0083,0.152362 c 0,0.411024 -0.170079,0.785433 -0.434646,1.05354 l -0.01181,0.01181 c -0.269327,0.265748 -0.643737,0.434646 -1.053576,0.434646 l -11.1591,0 z"
         id="path5723" />
      <path
         style="fill:#9756ad;fill-opacity:0.43921599;fill-rule:nonzero"
         inkscape:connector-curvature="0"
         class="fil21"
         d="m 25.605408,31.045225 c 0.03543,-0.349606 0.193701,-0.664961 0.426378,-0.901181 l 0.01181,-0.01181 c 0.269291,-0.265748 0.643701,-0.434646 1.05354,-0.434646 l 11.1591,0 c 0.411024,0 0.785433,0.170079 1.05354,0.434646 l 0.01181,0.01181 c 0.232677,0.23622 0.390945,0.551575 0.426378,0.901181 l -14.1425,0 z m -1.61575,0 -14.1425002,0 c 0.035433,-0.349606 0.1937012,-0.664961 0.4263782,-0.901181 l 0.01181,-0.01181 c 0.26811,-0.264567 0.64252,-0.434646 1.05354,-0.434646 l 11.1591,0 c 0.409843,0 0.784252,0.168898 1.05354,0.434646 l 0.01181,0.01181 c 0.232677,0.23622 0.390945,0.551575 0.426378,0.901181 z"
         id="path5725" />
      <path
         style="fill:#f2f2f2;fill-rule:nonzero"
         inkscape:connector-curvature="0"
         class="fil49"
         d="m 27.097208,31.698425 c -0.276378,0 -0.500787,-0.224409 -0.500787,-0.500787 0,-0.276378 0.224409,-0.500787 0.500787,-0.500787 l 11.1591,0 c 0.276378,0 0.500787,0.224409 0.500787,0.500787 0,0.276378 -0.224409,0.500787 -0.500787,0.500787 l -11.1591,0 z m -15.7583,0 c -0.276378,0 -0.500787,-0.224409 -0.500787,-0.500787 0,-0.276378 0.224409,-0.500787 0.500787,-0.500787 l 11.1591,0 c 0.276378,0 0.500787,0.224409 0.500787,0.500787 0,0.276378 -0.224409,0.500787 -0.500787,0.500787 l -11.1591,0 z"
         id="path5727" />
    </g>
  </g>
  <g
     inkscape:groupmode="layer"
     id="layer2"
     inkscape:label="Layer" />
</svg>
