<?xml version="1.0" encoding="UTF-8" standalone="no"?>
<!-- Created with Inkscape (http://www.inkscape.org/) -->

<svg
   xmlns:dc="http://purl.org/dc/elements/1.1/"
   xmlns:cc="http://creativecommons.org/ns#"
   xmlns:rdf="http://www.w3.org/1999/02/22-rdf-syntax-ns#"
   xmlns:svg="http://www.w3.org/2000/svg"
   xmlns="http://www.w3.org/2000/svg"
   xmlns:xlink="http://www.w3.org/1999/xlink"
   xmlns:sodipodi="http://sodipodi.sourceforge.net/DTD/sodipodi-0.dtd"
   xmlns:inkscape="http://www.inkscape.org/namespaces/inkscape"
   width="48px"
   height="48px"
   id="svg85312"
   version="1.1"
   inkscape:version="0.48.3.1 r9886"
   sodipodi:docname="libreoffice-impress.svg">
  <defs
     id="defs85314">
    <linearGradient
       inkscape:collect="always"
       xlink:href="#id2-34"
       id="linearGradient85135"
       gradientUnits="userSpaceOnUse"
       gradientTransform="translate(-0.13435794,-2.4066622)"
       x1="27.2008"
       y1="29.7024"
       x2="26.5063"
       y2="8.3586597" />
    <linearGradient
       y2="8.3586597"
       x2="26.5063"
       y1="29.7024"
       x1="27.2008"
       gradientUnits="userSpaceOnUse"
       id="id2-34">
      <stop
         id="stop84798"
         style="stop-color:#F3F3F3"
         offset="0" />
      <stop
         id="stop84800"
         style="stop-color:white"
         offset="1" />
    </linearGradient>
    <linearGradient
       inkscape:collect="always"
       xlink:href="#id6-8"
       id="linearGradient85138"
       gradientUnits="userSpaceOnUse"
       gradientTransform="translate(-0.13435794,-2.4066622)"
       x1="23.7803"
       y1="15.9673"
       x2="29.737801"
       y2="21.336599" />
    <linearGradient
       y2="21.336599"
       x2="29.737801"
       y1="15.9673"
       x1="23.7803"
       gradientUnits="userSpaceOnUse"
       id="id6-8">
      <stop
         id="stop84818"
         style="stop-color:#5A93C4"
         offset="0" />
      <stop
         id="stop84820"
         style="stop-color:#76B5EA"
         offset="1" />
    </linearGradient>
    <linearGradient
       gradientTransform="translate(0.29222044,-2.3996896)"
       inkscape:collect="always"
       xlink:href="#id2"
       id="linearGradient3139"
       gradientUnits="userSpaceOnUse"
       x1="26.438999"
       y1="29.858299"
       x2="26.020901"
       y2="8.2984304" />
    <linearGradient
       id="id2"
       gradientUnits="userSpaceOnUse"
       x1="26.438999"
       y1="29.858299"
       x2="26.020901"
       y2="8.2984304">
      <stop
         offset="0"
         style="stop-color:#EBEBEB"
         id="stop19" />
      <stop
         offset="1"
         style="stop-color:white"
         id="stop21" />
    </linearGradient>
    <linearGradient
       gradientTransform="translate(0.29222044,-2.3996896)"
       inkscape:collect="always"
       xlink:href="#id5"
       id="linearGradient3145"
       gradientUnits="userSpaceOnUse"
       x1="31.0394"
       y1="30.853901"
       x2="31.6583"
       y2="17.5051" />
    <linearGradient
       id="id5"
       gradientUnits="userSpaceOnUse"
       x1="31.0394"
       y1="30.853901"
       x2="31.6583"
       y2="17.5051">
      <stop
         offset="0"
         style="stop-color:#FF8E47"
         id="stop34" />
      <stop
         offset="1"
         style="stop-color:#E6773A"
         id="stop36" />
    </linearGradient>
  </defs>
  <sodipodi:namedview
     id="base"
     pagecolor="#ffffff"
     bordercolor="#666666"
     borderopacity="1.0"
     inkscape:pageopacity="0.0"
     inkscape:pageshadow="2"
     inkscape:zoom="7"
     inkscape:cx="16.324655"
     inkscape:cy="41.26974"
     inkscape:current-layer="layer1"
     showgrid="true"
     inkscape:grid-bbox="true"
     inkscape:document-units="px"
     inkscape:window-width="1024"
     inkscape:window-height="723"
     inkscape:window-x="0"
     inkscape:window-y="22"
     inkscape:window-maximized="1" />
  <metadata
     id="metadata85317">
    <rdf:RDF>
      <cc:Work
         rdf:about="">
        <dc:format>image/svg+xml</dc:format>
        <dc:type
           rdf:resource="http://purl.org/dc/dcmitype/StillImage" />
        <dc:title></dc:title>
      </cc:Work>
    </rdf:RDF>
  </metadata>
  <g
     id="layer1"
     inkscape:label="Layer 1"
     inkscape:groupmode="layer">
    <rect
       ry="6.2786646"
       y="-44.583736"
       x="1.699003"
       height="44.399963"
       width="44.399963"
       id="rect5263-6-7"
       style="fill:#000000;fill-opacity:0.01960784;stroke:none"
       transform="scale(1,-1)" />
    <rect
       style="fill:#000000;fill-opacity:0.03921569;stroke:none"
       id="rect5261-8-3"
       width="43.799973"
       height="43.799973"
       x="1.9989909"
       y="-44.283627"
       ry="6.1938181"
       transform="scale(1,-1)" />
    <rect
       ry="6.1089716"
       y="-43.983578"
       x="2.2989786"
       height="43.199982"
       width="43.199982"
       id="rect5259-7-5"
       style="fill:#000000;fill-opacity:0.07843137;stroke:none"
       transform="scale(1,-1)" />
    <rect
       style="fill:#000000;fill-opacity:0.15686275;stroke:none"
       id="rect5257-4-5"
       width="42.599991"
       height="42.599991"
       x="2.5989969"
       y="-43.68359"
       ry="6.0241251"
       transform="scale(1,-1)" />
    <rect
       ry="5.9392786"
       y="-43.383724"
       x="2.8989847"
       height="42"
       width="42"
       id="rect5237-5-2"
       style="fill:#ffd42a;fill-opacity:1;stroke:none"
       transform="scale(1,-1)" />
    <path
       id="rect5265-4-6"
       d="m 45.270043,30.369358 0,3.452381 c 0,4.543886 -1.125763,9.797836 -5.262862,9.770834 L 7.1758617,43.378287 C 3.8239777,43.35641 2.4844286,38.365625 2.4844286,33.821739 l 0,-3.452381 c 0,4.543886 2.6966206,8.199405 6.048576,8.199405 l 30.6884624,0 c 3.351955,0 6.048576,-3.655519 6.048576,-8.199405 z"
       style="fill:none;stroke:none"
       inkscape:connector-curvature="0"
       sodipodi:nodetypes="csssscssc" />
    <path
       id="rect5265-4-6-4"
       d="m 45.412901,30.226501 0,3.452381 c 0,4.543886 -1.125763,9.797836 -5.262862,9.770834 L 7.3187187,43.23543 C 3.9668347,43.21355 2.6272858,38.222768 2.6272858,33.678882 l 0,-3.452381 c 0,4.543886 2.6966209,8.199405 6.0485759,8.199405 l 30.6884633,0 c 3.351955,0 6.048576,-3.655519 6.048576,-8.199405 z"
       style="fill:#000000;fill-opacity:0.17647059;stroke:none"
       inkscape:connector-curvature="0"
       sodipodi:nodetypes="csssscssc" />
    <path
       id="rect5265-4-6-7"
       d="m 45.090563,31.256197 0,0.766958 c 0,2.402297 -2.013438,6.46502 -7.215019,6.456338 L 9.353012,38.431893 C 5.0124019,38.424643 3.521115,35.640947 3.2237113,34.451726 L 2.5451399,31.73834 c 0,1.00944 2.1454152,5.625096 7.9869031,5.625096 l 26.660904,0 c 6.447577,0 7.897616,-5.097799 7.897616,-6.107239 z"
       style="fill:#ffffff;fill-opacity:0.17647059;stroke:none"
       inkscape:connector-curvature="0"
       sodipodi:nodetypes="csssscssc" />
    <path
       id="path88-3"
       d="m 11.067277,36.410735 23.0799,0.0756 c 0.393307,0.001 0.714567,0.11221 0.980315,0.29291 l -1.16811,0.70276 -22.8921,-0.0744 c -0.09685,0 -0.184252,0.0153 -0.261024,0.0437 l -0.712205,-0.74764 c 0.261024,-0.18189 0.57874,-0.29409 0.973228,-0.29291 z"
       class="fil34"
       inkscape:connector-curvature="0"
       style="fill:#fee868;fill-opacity:0.43921599;fill-rule:nonzero" />
    <g
       id="g4205"
       transform="translate(0.42857143,0.28571428)">
      <path
         style="fill:#fee65e;fill-rule:evenodd"
         inkscape:connector-curvature="0"
         class="fil21"
         d="m 30.424248,35.409135 c -0.40748,0 -0.797244,-0.12638 -1.08898,-0.33071 l 0,10e-4 c -0.274016,-0.19134 -0.478346,-0.45118 -0.577559,-0.7559 -0.09921,0.30472 -0.303543,0.56456 -0.577559,0.7559 l 0,-10e-4 c -0.291732,0.20433 -0.679134,0.33071 -1.0878,0.33071 l -7.14094,0 c -1.75748,0 -1.57323,0 -3.33189,0 l -6.32244,0 c -0.40748,0 -0.797244,-0.12638 -1.08898,-0.33071 l 0,10e-4 c -0.394488,-0.27521 -0.643701,-0.69214 -0.643701,-1.17994 l 0.0035,-0.0957 30.0165,0 0.0035,0.0957 c 0,0.4878 -0.249213,0.90473 -0.643701,1.17992 l 0,-0.001 c -0.291732,0.20433 -0.681496,0.33071 -1.08898,0.33071 l -6.4311,0 z"
         id="path65" />
      <path
         style="fill:#d17813;fill-opacity:0.43921599;fill-rule:nonzero"
         inkscape:connector-curvature="0"
         class="fil35"
         d="m 8.567938,30.879635 c 0.03189,-0.46417 0.281102,-0.82795 0.669685,-1.07244 l -0.0012,-0.002 c 0.291732,-0.18307 0.669685,-0.28583 1.06063,-0.28583 6.19724,0 10.526,0 16.7953,0 0.393307,0 0.773622,0.10276 1.06299,0.28583 l -0.0024,0.004 c 0.291732,0.18307 0.504331,0.43465 0.604724,0.74291 0.101575,-0.30945 0.315354,-0.56102 0.607087,-0.74409 l -0.0012,-0.002 c 0.292913,-0.18307 0.670866,-0.28583 1.06063,-0.28583 l 6.4311,0 c 0.390945,0 0.768898,0.10276 1.06063,0.28583 l -0.0012,0.002 c 0.388582,0.24449 0.638976,0.60945 0.669685,1.07244 l -30.0165,0 z"
         id="path90" />
      <path
         style="fill:#fee65e;fill-rule:nonzero"
         inkscape:connector-curvature="0"
         class="fil36"
         d="m 30.424248,32.485935 c -0.40748,0 -0.797244,-0.12638 -1.08898,-0.33071 l 0,10e-4 c -0.274016,-0.19134 -0.478346,-0.45118 -0.577559,-0.7559 -0.09921,0.30472 -0.303543,0.56456 -0.577559,0.7559 l 0,-10e-4 c -0.291732,0.20433 -0.679134,0.33071 -1.0878,0.33071 -7.30984,0 -9.67559,0 -16.7953,0 -0.40748,0 -0.797244,-0.12638 -1.08898,-0.33071 l 0,10e-4 c -0.394488,-0.27521 -0.643701,-0.69214 -0.643701,-1.17994 l 0.0035,-0.0969 30.0165,0 0.0035,0.0969 c 0,0.4878 -0.249213,0.90473 -0.643701,1.17992 l 0,-10e-4 c -0.291732,0.20433 -0.681496,0.33071 -1.08898,0.33071 l -6.4311,0 z"
         id="path92" />
      <path
         style="fill:#f2f2f2;fill-rule:nonzero"
         inkscape:connector-curvature="0"
         class="fil37"
         d="m 30.424248,31.486735 c -0.405118,0 -0.733465,-0.22913 -0.733465,-0.51024 0,-0.28228 0.328346,-0.45826 0.733465,-0.45826 l 6.4311,0 c 0.405118,0 0.733465,0.17598 0.733465,0.45826 0,0.28111 -0.328346,0.51024 -0.733465,0.51024 l -6.4311,0 z"
         id="path94" />
      <path
         style="fill:#d17813;fill-opacity:0.43921599;fill-rule:nonzero"
         inkscape:connector-curvature="0"
         class="fil35"
         d="m 8.567938,33.804035 c 0.02953,-0.46299 0.279921,-0.82913 0.669685,-1.07362 l -0.0012,-0.002 c 0.291732,-0.18307 0.669685,-0.28583 1.06063,-0.28583 7.04882,0 9.56693,0 16.7953,0 0.393307,0 0.773622,0.10276 1.06299,0.28583 l -0.0024,0.004 c 0.291732,0.18307 0.504331,0.43465 0.604724,0.74291 0.101575,-0.30945 0.315354,-0.56102 0.607087,-0.74409 l -0.0012,-0.002 c 0.292913,-0.18307 0.670866,-0.28583 1.06063,-0.28583 l 6.4311,0 c 0.390945,0 0.768898,0.10276 1.06063,0.28583 l -0.0012,0.002 c 0.389764,0.24449 0.640157,0.61063 0.669685,1.07362 l -30.0165,0 z"
         id="path96" />
      <path
         style="fill:#f2f2f2;fill-rule:nonzero"
         inkscape:connector-curvature="0"
         class="fil37"
         d="m 30.424248,34.409935 c -0.405118,0 -0.733465,-0.22913 -0.733465,-0.51024 0,-0.28228 0.328346,-0.45826 0.733465,-0.45826 l 6.4311,0 c 0.405118,0 0.733465,0.17598 0.733465,0.45826 0,0.28111 -0.328346,0.51024 -0.733465,0.51024 l -6.4311,0 z"
         id="path98" />
      <path
         style="fill:#f2f2f2;fill-rule:nonzero"
         inkscape:connector-curvature="0"
         class="fil37"
         d="m 10.297048,31.486735 c -0.405118,0 -0.733465,-0.22913 -0.733465,-0.51024 0,-0.28228 0.328346,-0.45826 0.733465,-0.45826 l 16.7764,0 c 0.405118,0 0.733465,0.17598 0.733465,0.45826 0,0.28111 -0.328346,0.51024 -0.733465,0.51024 l -16.7764,0 z"
         id="path112" />
      <path
         style="fill:#f2f2f2;fill-rule:nonzero"
         inkscape:connector-curvature="0"
         class="fil37"
         d="m 10.297048,34.409935 c -0.405118,0 -0.733465,-0.22913 -0.733465,-0.51024 0,-0.28228 0.328346,-0.45826 0.733465,-0.45826 l 16.7764,0 c 0.405118,0 0.733465,0.17598 0.733465,0.45826 0,0.28111 -0.328346,0.51024 -0.733465,0.51024 l -16.7764,0 z"
         id="path114" />
      <path
         style="fill:#d17813;fill-opacity:0.21960802;fill-rule:nonzero"
         inkscape:connector-curvature="0"
         class="fil44"
         d="m 10.299448,6.0434259 c -0.0012,-0.479528 0.131102,-0.859843 0.420472,-1.1563 l 0.0035,-0.0035 c 0.295276,-0.298819 0.677953,-0.440551 1.16575,-0.442913 0.63189,-0.0024 0.994488,0.197244 1.24606,0.647244 0.172441,0.308268 0.18189,0.576378 0.183071,0.940157 l 0,0.0035 0.02362,10.8542991 4.03701,-11.2322991 -0.0024,-0.0012 c 0.11811,-0.36378 0.349606,-0.668504 0.64252,-0.879921 l -0.0012,-0.0012 0.03543,-0.0248 0,-0.314173 0.999213,0 17.3858,0 c 0.488976,0 0.93189,0.199606 1.24843,0.516142 0.316535,0.316535 0.516142,0.759449 0.516142,1.24843 l -0.0035,0.03071 -0.0024,0.05906 0.03071,2.522829 0.0035,0.01181 c 0,0.669684 -0.385039,1.2519701 -0.848031,1.5342501 l 0.0012,0.0012 c -0.205512,0.125197 -0.440551,0.201969 -0.673228,0.216142 -0.277559,0.01772 -0.558661,-0.04961 -0.806693,-0.207874 l 0.0012,-0.0012 C 35.496963,10.100433 35.193419,9.6031889 35.193419,8.8212999 l 0.0035,0 0.0035,-1.29685 1.20472,-1.32874 c 0,0 -17.4626,-0.607087 -17.2358,0.303543 l 1.00866,0.972047 -0.09567,0 -7.38425,20.0113981 -0.0047,0.02835 0.0024,0 -0.0024,0.02598 -2.47913,0 -0.0012,-0.08032 -0.0035,-0.0083 c 0,-0.153543 0.02717,-0.282283 0.05906,-0.424017 l -0.0012,0 0.03189,-0.159449 -0.0035,-0.0083 0,-20.8134001 0.0035,0 z m 23.1992,9.7216491 c 0.07795,0.238583 0.11811,0.494882 0.11811,0.742913 0,0.608268 -0.232677,1.21772 -0.694488,1.67953 l -0.0047,0 -3.09094,3.08976 3.09685,3.09685 0.0012,0.0012 c 0.459449,0.459449 0.693307,1.07008 0.693307,1.67717 0,0.526772 -0.175984,1.05236 -0.524409,1.48465 l -3.71929,0 0.19252,0.19252 -3.09449,-3.09331 -2.90079,2.90079 -3.72402,0 c -0.350787,-0.432283 -0.524409,-0.956693 -0.524409,-1.48465 0,-0.605906 0.232677,-1.21063 0.693307,-1.67244 l 0,-0.0047 0.0012,-0.0012 3.09685,-3.09685 -3.09094,-3.08976 -0.0047,0 c -0.461811,-0.461811 -0.693307,-1.07126 -0.693307,-1.67953 0,-0.250394 0.03898,-0.501969 0.11811,-0.742913 l 4.86614,0 2.15787,2.15906 2.15906,-2.15906 4.87205,0 z m -2.25591,0.367323 c -0.09449,0 -0.191339,0.03779 -0.264567,0.111024 l -3.80079,3.80079 -0.706299,0.706299 -0.708661,-0.711024 -3.79724,-3.79843 -0.0024,0.0024 c -0.07323,-0.07323 -0.170079,-0.111024 -0.264567,-0.111024 -0.09449,0 -0.191339,0.03779 -0.264567,0.111024 -0.07205,0.07205 -0.109843,0.170079 -0.109843,0.264567 0,0.09449 0.03779,0.19252 0.109843,0.264567 l -0.0024,0.0024 3.79843,3.79724 0.709843,0.709843 -0.705118,0.705118 -3.80197,3.80197 -0.0012,0.0012 -0.0024,-0.0024 c -0.06968,0.07205 -0.10748,0.167717 -0.10748,0.264567 0,0.09685 0.0378,0.193701 0.10748,0.265748 l 0.0024,-0.0024 0.0012,0.0012 c 0.07205,0.07205 0.170079,0.109843 0.264567,0.109843 0.09449,0 0.19252,-0.0378 0.264567,-0.109843 l 3.80079,-3.80079 0.703937,-0.705118 0.706299,0.705118 3.80197,3.80079 0.0047,0 c 0.07205,0.07205 0.170079,0.109843 0.264567,0.109843 0.09449,0 0.19252,-0.0378 0.264567,-0.109843 l 0.0012,-0.0012 0.0024,0.0024 c 0.06968,-0.07205 0.10748,-0.168898 0.10748,-0.265748 0,-0.09331 -0.0378,-0.190157 -0.109843,-0.262205 l -0.0012,-0.0012 -3.80197,-3.80197 -0.706299,-0.705118 0.711024,-0.709843 3.79843,-3.79724 -0.0024,-0.0024 c 0.07323,-0.07323 0.111024,-0.170079 0.111024,-0.264567 0,-0.09449 -0.0378,-0.191339 -0.111024,-0.264567 -0.07323,-0.07323 -0.170079,-0.111024 -0.264567,-0.111024 z m -18.9213,6.60236 -0.02717,-0.0047 0,0.07795 0.02717,-0.07323 z m 24.8669,-13.9133991 0.0035,0 -0.0035,-0.0024 0,0.0024 z"
         id="path116" />
      <path
         style="fill:#d17813;fill-opacity:0.43921599;fill-rule:nonzero"
         inkscape:connector-curvature="0"
         class="fil35"
         d="m 29.563248,14.828435 c 0.461811,-0.461811 1.07126,-0.694488 1.67953,-0.694488 0.608268,0 1.21772,0.232677 1.67953,0.694488 0.271654,0.271654 0.464173,0.594094 0.576378,0.936614 l -4.87205,0 0.936614,-0.936614 z m -10.1197,0.936614 c 0.112205,-0.34252 0.303543,-0.664961 0.575197,-0.936614 0.461811,-0.461811 1.07126,-0.694488 1.67953,-0.694488 0.608268,0 1.21772,0.232677 1.67953,0.694488 l 0,0.0047 0.93189,0.93189 -4.86614,0 z"
         id="path118" />
      <path
         style="fill:#fee65e;fill-rule:nonzero"
         inkscape:connector-curvature="0"
         class="fil36"
         d="m 12.693548,27.537135 c -0.08504,0.713386 -0.142913,1.06181 -1.24252,1.07244 l -0.0047,0 c -0.914173,0.0059 -1.20591,-0.399213 -1.23189,-1.07244 l 2.47913,0 z m 7.15394,0 3.72402,0 -0.194882,0.194882 c -0.461811,0.461811 -1.07126,0.693307 -1.67953,0.693307 -0.608268,0 -1.21772,-0.231496 -1.67953,-0.693307 l -0.0012,-0.0012 0,-0.0047 c -0.06022,-0.06024 -0.11691,-0.124022 -0.168879,-0.188982 z m 9.52677,0 3.71929,0 c -0.05197,0.06496 -0.108661,0.12874 -0.168898,0.188976 l 0,0.0047 -0.0012,0.0012 c -0.461811,0.461811 -1.07126,0.693307 -1.67953,0.693307 -0.608268,0 -1.21772,-0.231496 -1.67953,-0.693307 l 0.0024,-0.0024 -0.19252,-0.19252 z"
         id="path120" />
      <path
         style="fill:#fff1a1;fill-rule:nonzero"
         inkscape:connector-curvature="0"
         class="fil23"
         d="m 35.200648,7.5245359 0,-0.05315 -15.0224,0 -1.00866,-0.972047 c -0.226772,-0.91063 17.2358,-0.303543 17.2358,-0.303543 l -1.20472,1.32874 z"
         id="path122" />
      <path
         style="fill:#d17813;fill-opacity:0.43921599;fill-rule:nonzero"
         inkscape:connector-curvature="0"
         class="fil35"
         d="m 10.364348,5.5119259 c 0.06614,-0.240945 0.183071,-0.447638 0.355512,-0.624803 l 0.0035,-0.0035 c 0.295276,-0.298819 0.677953,-0.440551 1.16575,-0.442913 0.63189,-0.0024 0.994488,0.197244 1.24606,0.647244 0.0815,0.145276 0.127559,0.282283 0.152362,0.424016 l -2.92323,0 z m 7.06535,0 c 0.12874,-0.302362 0.335433,-0.556299 0.58937,-0.73937 l -0.0012,-0.0012 0.03543,-0.0248 0,-0.314173 0.999213,0 17.3858,0 c 0.488976,0 0.93189,0.199606 1.24843,0.516142 0.159449,0.159449 0.288189,0.350787 0.377953,0.563386 l -20.635,0 z"
         id="path124" />
      <path
         style="fill:#ffffff;fill-rule:nonzero"
         inkscape:connector-curvature="0"
         class="fil45"
         d="m 11.295148,6.0434259 c -0.0035,-0.420472 0.177165,-0.604724 0.597638,-0.607087 0.421654,-0.0024 0.426378,0.174803 0.429921,0.595276 l 0.03661,16.5365991 5.96693,-16.6074991 c 0.105122,-0.322441 0.403941,-0.527953 0.726382,-0.527953 l 0,-0.0012 17.3858,0 c 0.422835,0 0.765354,0.343701 0.765354,0.765354 l -0.0024,0.06968 0.03071,2.55472 c 0,0.761811 -1.03937,1.2295301 -1.03937,0 l 0.0059,-2.34921 -16.8118,0 -7.63465,20.6905991 -0.0012,0 c -0.09921,0.303543 0.02717,0.447638 -0.308268,0.451181 -0.420472,0.0024 -0.144094,-0.335433 -0.147638,-0.757087 l 0,-20.8133991 z m 18.9756,9.4925191 c 0.53622,-0.53622 1.40787,-0.53622 1.94409,0 0.53622,0.53622 0.53622,1.40787 0,1.94409 l -3.80079,3.79961 3.80197,3.80197 c 0.53622,0.535039 0.53622,1.40669 0,1.94291 -0.53622,0.53622 -1.40787,0.53622 -1.94409,0 l -3.80197,-3.80079 -3.80079,3.80079 c -0.53622,0.53622 -1.40787,0.53622 -1.94409,0 -0.53622,-0.53622 -0.53622,-1.40787 0,-1.94291 l 3.80197,-3.80197 -3.80079,-3.79961 c -0.53622,-0.53622 -0.53622,-1.40787 0,-1.94409 0.53622,-0.53622 1.40787,-0.53622 1.94409,0 l 3.79961,3.80079 3.80079,-3.80079 z"
         id="path126" />
      <line
         style="fill:none"
         class="fil46"
         x1="21.594347"
         y1="14.999737"
         x2="32.010448"
         y2="25.414639"
         id="line128" />
      <line
         style="fill:none"
         class="fil46"
         x1="32.009251"
         y1="14.999737"
         x2="21.593147"
         y2="25.414639"
         id="line130" />
      <path
         style="fill:#b2b2b2;fill-opacity:0.43921599;fill-rule:nonzero"
         inkscape:connector-curvature="0"
         class="fil47"
         d="m 30.270648,15.535935 c 0.53622,-0.53622 1.40787,-0.53622 1.94409,0 0.400394,0.400394 0.500787,0.987402 0.303543,1.48228 l -0.477165,-0.151181 c 0.05079,-0.113386 0.07559,-0.23622 0.07559,-0.359055 0,-0.224409 -0.08622,-0.45 -0.255118,-0.618898 -0.168898,-0.168898 -0.394488,-0.255118 -0.618898,-0.255118 -0.224409,0 -0.45,0.08622 -0.618898,0.255118 l -3.80079,3.80079 -0.35315,0.35315 -0.35315,-0.354331 -3.79961,-3.79961 c -0.168898,-0.168898 -0.394488,-0.255118 -0.618898,-0.255118 -0.224409,0 -0.45,0.08622 -0.618898,0.255118 -0.168898,0.168898 -0.253937,0.394488 -0.253937,0.618898 0,0.157087 0.04252,0.315354 0.125197,0.454724 l -0.472441,0.178346 c -0.269291,-0.517323 -0.185433,-1.17165 0.248031,-1.60512 0.53622,-0.53622 1.40787,-0.53622 1.94409,0 l 3.79961,3.80079 3.80079,-3.80079 z m -1.84843,5.75197 3.7937,3.7937 c 0.466535,0.465354 0.526772,1.18583 0.18189,1.7185 l -0.361417,-0.377953 c 0.05315,-0.115748 0.0815,-0.243307 0.0815,-0.369685 0,-0.223228 -0.08622,-0.448819 -0.253937,-0.616535 l -0.0012,-0.0012 -3.80197,-3.80197 -0.226772,-0.226772 0.464173,-0.09685 0.124016,-0.02126 z m -7.98898,5.30433 c -0.212598,-0.500787 -0.116929,-1.10315 0.291732,-1.51063 l 3.72756,-3.72756 0.605906,0.100394 -0.178346,0.178346 -3.80197,3.80197 -0.0012,0.0012 -0.0012,-0.0012 c -0.167717,0.168898 -0.252756,0.392126 -0.252756,0.617717 0,0.06142 0.0059,0.124016 0.0189,0.184252 l -0.408661,0.355512 z"
         id="path132" />
      <path
         style="fill:#9c9a9a;fill-opacity:0.43921599;fill-rule:nonzero"
         inkscape:connector-curvature="0"
         class="fil48"
         d="m 30.270648,15.535935 c 0.53622,-0.53622 1.40787,-0.53622 1.94409,0 0.07087,0.07087 0.132283,0.147638 0.185433,0.229134 l -2.35866,0 0.229134,-0.229134 z m -9.72992,0.229134 c 0.05315,-0.0815 0.114567,-0.158268 0.185433,-0.229134 0.53622,-0.53622 1.40787,-0.53622 1.94409,0 l 0.229134,0.229134 -2.35866,0 z"
         id="path134" />
    </g>
  </g>
  <g
     inkscape:groupmode="layer"
     id="layer2"
     inkscape:label="Layer" />
</svg>
