<?xml version="1.0" encoding="UTF-8" standalone="no"?>
<!-- Created with Inkscape (http://www.inkscape.org/) -->

<svg
   xmlns:dc="http://purl.org/dc/elements/1.1/"
   xmlns:cc="http://creativecommons.org/ns#"
   xmlns:rdf="http://www.w3.org/1999/02/22-rdf-syntax-ns#"
   xmlns:svg="http://www.w3.org/2000/svg"
   xmlns="http://www.w3.org/2000/svg"
   xmlns:xlink="http://www.w3.org/1999/xlink"
   xmlns:sodipodi="http://sodipodi.sourceforge.net/DTD/sodipodi-0.dtd"
   xmlns:inkscape="http://www.inkscape.org/namespaces/inkscape"
   width="16"
   height="16"
   id="svg2"
   version="1.1"
   inkscape:version="0.48.3.1 r9886"
   sodipodi:docname="user-offline-symbolic.svg">
  <defs
     id="defs4">
    <linearGradient
       id="linearGradient4303">
      <stop
         style="stop-color:#969696;stop-opacity:1;"
         offset="0"
         id="stop4305" />
      <stop
         style="stop-color:#333333;stop-opacity:1;"
         offset="1"
         id="stop4307" />
    </linearGradient>
    <linearGradient
       id="linearGradient4295">
      <stop
         style="stop-color:#646464;stop-opacity:1;"
         offset="0"
         id="stop4297" />
      <stop
         style="stop-color:#c8c8c8;stop-opacity:1;"
         offset="1"
         id="stop4299" />
    </linearGradient>
    <linearGradient
       inkscape:collect="always"
       xlink:href="#linearGradient4295"
       id="linearGradient4301"
       x1="8.2187519"
       y1="1039.3745"
       x2="8.2187519"
       y2="1049.3507"
       gradientUnits="userSpaceOnUse"
       gradientTransform="translate(-0.5,-1036.8622)" />
  </defs>
  <sodipodi:namedview
     id="base"
     pagecolor="#ffffff"
     bordercolor="#666666"
     borderopacity="1.0"
     inkscape:pageopacity="0.0"
     inkscape:pageshadow="2"
     inkscape:zoom="16"
     inkscape:cx="3.6570865"
     inkscape:cy="3.8292642"
     inkscape:document-units="px"
     inkscape:current-layer="layer1"
     showgrid="false"
     inkscape:window-width="1280"
     inkscape:window-height="749"
     inkscape:window-x="0"
     inkscape:window-y="24"
     inkscape:window-maximized="1" />
  <metadata
     id="metadata7">
    <rdf:RDF>
      <cc:Work
         rdf:about="">
        <dc:format>image/svg+xml</dc:format>
        <dc:type
           rdf:resource="http://purl.org/dc/dcmitype/StillImage" />
        <dc:title />
      </cc:Work>
    </rdf:RDF>
  </metadata>
  <g
     inkscape:label="Livello 1"
     inkscape:groupmode="layer"
     id="layer1"
     transform="translate(0,-1036.3622)">
    <path
       style="opacity:0.35;fill:#bebebe;fill-opacity:1;stroke:none"
       d="M 2 1 C 1.446 1 1 1.446 1 2 L 1 12 C 1 12.554 1.446 13 2 13 L 4 13 L 8 16 L 12 13 L 14 13 C 14.554 13 15 12.554 15 12 L 15 2 C 15 1.446 14.554 1 14 1 L 2 1 z M 5.875 3.65625 C 6.0028096 3.65625 6.1208158 3.7143 6.21875 3.8125 L 8 5.59375 L 9.78125 3.8125 C 9.9771185 3.6167 10.272881 3.6167 10.46875 3.8125 L 11.1875 4.53125 C 11.383368 4.72715 11.383368 5.02295 11.1875 5.21875 L 9.40625 7 L 11.1875 8.78125 C 11.383368 8.97705 11.383368 9.27285 11.1875 9.46875 L 10.46875 10.1875 C 10.272881 10.3833 9.9771185 10.3833 9.78125 10.1875 L 8 8.40625 L 6.21875 10.1875 C 6.0228815 10.3833 5.7271185 10.3833 5.53125 10.1875 L 4.8125 9.46875 C 4.6166314 9.27285 4.6166314 8.97705 4.8125 8.78125 L 6.59375 7 L 4.8125 5.21875 C 4.6166314 5.02295 4.6166314 4.72715 4.8125 4.53125 L 5.53125 3.8125 C 5.629184 3.7145 5.7471904 3.65625 5.875 3.65625 z "
       transform="translate(0,1036.3622)"
       id="rect3017" />
  </g>
</svg>
